<?xml version="1.0" encoding="UTF-8" standalone="no"?>
<svg
   xmlns:dc="http://purl.org/dc/elements/1.1/"
   xmlns:cc="http://creativecommons.org/ns#"
   xmlns:rdf="http://www.w3.org/1999/02/22-rdf-syntax-ns#"
   xmlns:svg="http://www.w3.org/2000/svg"
   xmlns="http://www.w3.org/2000/svg"
   xmlns:sodipodi="http://sodipodi.sourceforge.net/DTD/sodipodi-0.dtd"
   xmlns:inkscape="http://www.inkscape.org/namespaces/inkscape"
   width="23mm"
   height="10mm"
   viewBox="0 0 23 10"
   version="1.1"
   id="svg8"
   inkscape:version="1.0.2-2 (e86c870879, 2021-01-15)"
   sodipodi:docname="simplified logo.svg">
  <defs
     id="defs2">
    <style
       id="style861">.a{fill:#2b313f;}</style>
  </defs>
  <sodipodi:namedview
     id="base"
     pagecolor="#ffffff"
     bordercolor="#666666"
     borderopacity="1.0"
     inkscape:pageopacity="0.0"
     inkscape:pageshadow="2"
     inkscape:zoom="7.9195959"
     inkscape:cx="55.888647"
     inkscape:cy="33.951911"
     inkscape:document-units="mm"
     inkscape:current-layer="svg8"
     inkscape:document-rotation="0"
     showgrid="false"
     inkscape:window-width="2560"
     inkscape:window-height="1377"
     inkscape:window-x="-8"
     inkscape:window-y="-8"
     inkscape:window-maximized="1" />
  <metadata
     id="metadata5">
    <rdf:RDF>
      <cc:Work
         rdf:about="">
        <dc:format>image/svg+xml</dc:format>
        <dc:type
           rdf:resource="http://purl.org/dc/dcmitype/StillImage" />
        <dc:title />
      </cc:Work>
    </rdf:RDF>
    <rdf:RDF>
      <cc:Work
         rdf:about="">
        <dc:title />
      </cc:Work>
    </rdf:RDF>
  </metadata>
  <g
     inkscape:label="Layer 1"
     inkscape:groupmode="layer"
     id="layer1">
    <g
       id="g1098"
       style="stroke:#000000;stroke-opacity:1;fill:#2b313f;fill-opacity:1">
      <g
         aria-label="TWIG"
         id="text835"
         style="font-size:6.54849px;line-height:1.25;font-family:Rubik;-inkscape-font-specification:Rubik;letter-spacing:0px;word-spacing:0px;fill:#2b313f;fill-opacity:1;stroke:#000000;stroke-width:0;stroke-miterlimit:4;stroke-dasharray:none;stroke-opacity:1">
        <g
           id="path917"
           style="opacity:1;stroke:#000000;stroke-opacity:1;fill:#2b313f;fill-opacity:1">
          <path
             style="color:#000000;font-style:normal;font-variant:normal;font-weight:normal;font-stretch:normal;font-size:medium;line-height:1.25;font-family:Rubik;-inkscape-font-specification:Rubik;font-variant-ligatures:normal;font-variant-position:normal;font-variant-caps:normal;font-variant-numeric:normal;font-variant-alternates:normal;font-variant-east-asian:normal;font-feature-settings:normal;font-variation-settings:normal;text-indent:0;text-align:start;text-decoration:none;text-decoration-line:none;text-decoration-style:solid;text-decoration-color:#000000;letter-spacing:0px;word-spacing:0px;text-transform:none;writing-mode:lr-tb;direction:ltr;text-orientation:mixed;dominant-baseline:auto;baseline-shift:baseline;text-anchor:start;white-space:normal;shape-padding:0;shape-margin:0;inline-size:0;clip-rule:nonzero;display:inline;overflow:visible;visibility:visible;isolation:auto;mix-blend-mode:normal;color-interpolation:sRGB;color-interpolation-filters:linearRGB;solid-color:#000000;solid-opacity:1;vector-effect:none;fill:#2b313f;fill-opacity:1;fill-rule:nonzero;stroke:#000000;stroke-width:0;stroke-linecap:butt;stroke-linejoin:miter;stroke-miterlimit:4;stroke-dasharray:none;stroke-dashoffset:0;stroke-opacity:1;color-rendering:auto;image-rendering:auto;shape-rendering:auto;text-rendering:auto;enable-background:accumulate;stop-color:#000000;stop-opacity:1"
             d="m 11.539064,3.3585981 c 0.04802,0 0.08949,0.017463 0.124422,0.052388 0.03493,0.034925 0.05239,0.076399 0.05239,0.1244213 V 3.771153 c 0,0.048022 -0.01746,0.089496 -0.05239,0.1244213 -0.03493,0.034925 -0.0764,0.052388 -0.124422,0.052388 H 10.314497 V 7.765732 c 0,0.048022 -0.01746,0.089496 -0.05239,0.1244213 -0.03493,0.034925 -0.0764,0.052388 -0.124422,0.052388 H 9.8691994 c -0.048022,0 -0.089496,-0.017463 -0.1244213,-0.052388 C 9.7098528,7.855228 9.6923901,7.8137542 9.6923901,7.765732 V 3.9479622 H 8.4678225 c -0.048022,0 -0.089496,-0.017463 -0.1244213,-0.052388 C 8.3084759,3.860649 8.2910133,3.8191753 8.2910133,3.771153 V 3.5354073 c 0,-0.048022 0.017463,-0.089496 0.052388,-0.1244213 0.034925,-0.034925 0.076399,-0.052388 0.1244213,-0.052388 z"
             id="path928" />
          <path
             style="color:#000000;font-style:normal;font-variant:normal;font-weight:normal;font-stretch:normal;font-size:medium;line-height:1.25;font-family:Rubik;-inkscape-font-specification:Rubik;font-variant-ligatures:normal;font-variant-position:normal;font-variant-caps:normal;font-variant-numeric:normal;font-variant-alternates:normal;font-variant-east-asian:normal;font-feature-settings:normal;font-variation-settings:normal;text-indent:0;text-align:start;text-decoration:none;text-decoration-line:none;text-decoration-style:solid;text-decoration-color:#000000;letter-spacing:0px;word-spacing:0px;text-transform:none;writing-mode:lr-tb;direction:ltr;text-orientation:mixed;dominant-baseline:auto;baseline-shift:baseline;text-anchor:start;white-space:normal;shape-padding:0;shape-margin:0;inline-size:0;clip-rule:nonzero;display:inline;overflow:visible;visibility:visible;isolation:auto;mix-blend-mode:normal;color-interpolation:sRGB;color-interpolation-filters:linearRGB;solid-color:#000000;solid-opacity:1;vector-effect:none;fill:#2b313f;fill-opacity:1;fill-rule:nonzero;stroke:#000000;stroke-linecap:butt;stroke-linejoin:miter;stroke-miterlimit:4;stroke-dasharray:none;stroke-dashoffset:0;stroke-opacity:1;color-rendering:auto;image-rendering:auto;shape-rendering:auto;text-rendering:auto;enable-background:accumulate;stop-color:#000000;stop-opacity:1"
             d="M 8.46875 3.3417969 C 8.416849 3.3417969 8.3695493 3.3628726 8.3320312 3.4003906 C 8.2945132 3.4379089 8.2753906 3.4832554 8.2753906 3.5351562 L 8.2753906 3.7714844 C 8.2753906 3.8233854 8.2945132 3.8687321 8.3320312 3.90625 C 8.3695495 3.943768 8.4168492 3.9648437 8.46875 3.9648438 L 9.6757812 3.9648438 L 9.6757812 7.765625 C 9.6757812 7.817526 9.6968569 7.8648257 9.734375 7.9023438 C 9.7718932 7.9398618 9.8172398 7.9589844 9.8691406 7.9589844 L 10.136719 7.9589844 C 10.188619 7.9589844 10.235918 7.9398616 10.273438 7.9023438 C 10.310957 7.8648256 10.330078 7.817526 10.330078 7.765625 L 10.330078 3.9648438 L 11.539062 3.9648438 C 11.590963 3.9648438 11.636309 3.9437679 11.673828 3.90625 C 11.711348 3.8687318 11.732422 3.8233853 11.732422 3.7714844 L 11.732422 3.5351562 C 11.732422 3.4832551 11.711348 3.4379086 11.673828 3.4003906 C 11.636308 3.362873 11.590961 3.3417969 11.539062 3.3417969 L 8.46875 3.3417969 z M 8.46875 3.375 L 11.539062 3.375 C 11.583204 3.375 11.620008 3.389542 11.652344 3.421875 C 11.684678 3.4542077 11.699219 3.491013 11.699219 3.5351562 L 11.699219 3.7714844 C 11.699219 3.8156274 11.684678 3.8524327 11.652344 3.8847656 C 11.62001 3.9170984 11.583205 3.9316406 11.539062 3.9316406 L 10.298828 3.9316406 L 10.298828 7.765625 C 10.298828 7.809768 10.282334 7.8465734 10.25 7.8789062 C 10.217666 7.9112391 10.180861 7.9257813 10.136719 7.9257812 L 9.8691406 7.9257812 C 9.8249974 7.9257812 9.7881922 7.9112389 9.7558594 7.8789062 C 9.7235268 7.8465736 9.7089844 7.8097684 9.7089844 7.765625 L 9.7089844 3.9316406 L 8.46875 3.9316406 C 8.4246068 3.9316406 8.3878016 3.9170983 8.3554688 3.8847656 C 8.3231362 3.8524332 8.3066406 3.8156279 8.3066406 3.7714844 L 8.3066406 3.5351562 C 8.3066406 3.4910131 8.3231361 3.4542078 8.3554688 3.421875 C 8.3878014 3.3895424 8.4246066 3.375 8.46875 3.375 z "
             id="path930" />
        </g>
        <g
           id="path919"
           style="opacity:1;stroke:#000000;stroke-opacity:1;fill:#2b313f;fill-opacity:1">
          <path
             style="color:#000000;font-style:normal;font-variant:normal;font-weight:normal;font-stretch:normal;font-size:medium;line-height:1.25;font-family:Rubik;-inkscape-font-specification:Rubik;font-variant-ligatures:normal;font-variant-position:normal;font-variant-caps:normal;font-variant-numeric:normal;font-variant-alternates:normal;font-variant-east-asian:normal;font-feature-settings:normal;font-variation-settings:normal;text-indent:0;text-align:start;text-decoration:none;text-decoration-line:none;text-decoration-style:solid;text-decoration-color:#000000;letter-spacing:0px;word-spacing:0px;text-transform:none;writing-mode:lr-tb;direction:ltr;text-orientation:mixed;dominant-baseline:auto;baseline-shift:baseline;text-anchor:start;white-space:normal;shape-padding:0;shape-margin:0;inline-size:0;clip-rule:nonzero;display:inline;overflow:visible;visibility:visible;isolation:auto;mix-blend-mode:normal;color-interpolation:sRGB;color-interpolation-filters:linearRGB;solid-color:#000000;solid-opacity:1;vector-effect:none;fill:#2b313f;fill-opacity:1;fill-rule:nonzero;stroke:#000000;stroke-width:0;stroke-linecap:butt;stroke-linejoin:miter;stroke-miterlimit:4;stroke-dasharray:none;stroke-dashoffset:0;stroke-opacity:1;color-rendering:auto;image-rendering:auto;shape-rendering:auto;text-rendering:auto;enable-background:accumulate;stop-color:#000000;stop-opacity:1"
             d="m 15.513987,7.1567223 0.667946,-3.621315 c 0.0131,-0.061119 0.03711,-0.1047759 0.07203,-0.1309698 0.03929,-0.030559 0.08295,-0.045839 0.13097,-0.045839 h 0.26194 c 0.03929,0 0.07204,0.01528 0.09823,0.045839 0.03056,0.026194 0.04584,0.058936 0.04584,0.098227 l -0.0065,0.052388 -0.805464,4.0469668 c -0.02619,0.1178729 -0.06112,0.2051861 -0.104776,0.2619396 -0.04366,0.052388 -0.115693,0.078582 -0.2161,0.078582 h -0.26194 c -0.09605,0 -0.168078,-0.028377 -0.2161,-0.08513 -0.04802,-0.061119 -0.08731,-0.1462497 -0.117873,-0.2553912 L 14.45968,5.414824 13.857219,7.6020196 c -0.03056,0.1091415 -0.06985,0.1942719 -0.117873,0.2553912 -0.04802,0.056753 -0.120053,0.08513 -0.2161,0.08513 h -0.26194 c -0.10041,0 -0.172443,-0.026194 -0.2161,-0.078582 -0.04366,-0.056753 -0.07859,-0.1440665 -0.104776,-0.2619396 l -0.805464,-4.0469668 -0.0065,-0.052388 c 0,-0.039291 0.0131,-0.072033 0.03929,-0.098227 0.03056,-0.030559 0.06548,-0.045839 0.104775,-0.045839 h 0.26194 c 0.04802,0 0.08949,0.01528 0.124421,0.045839 0.03929,0.026194 0.06549,0.069851 0.07858,0.1309698 l 0.667946,3.621315 0.720334,-2.593202 c 0.0087,-0.043657 0.03056,-0.08513 0.06548,-0.1244214 0.03493,-0.043657 0.08732,-0.065485 0.157164,-0.065485 h 0.222648 c 0.06985,0 0.122239,0.021828 0.157164,0.065485 0.03493,0.039291 0.05676,0.080764 0.06549,0.1244214 z"
             id="path934" />
          <path
             style="color:#000000;font-style:normal;font-variant:normal;font-weight:normal;font-stretch:normal;font-size:medium;line-height:1.25;font-family:Rubik;-inkscape-font-specification:Rubik;font-variant-ligatures:normal;font-variant-position:normal;font-variant-caps:normal;font-variant-numeric:normal;font-variant-alternates:normal;font-variant-east-asian:normal;font-feature-settings:normal;font-variation-settings:normal;text-indent:0;text-align:start;text-decoration:none;text-decoration-line:none;text-decoration-style:solid;text-decoration-color:#000000;letter-spacing:0px;word-spacing:0px;text-transform:none;writing-mode:lr-tb;direction:ltr;text-orientation:mixed;dominant-baseline:auto;baseline-shift:baseline;text-anchor:start;white-space:normal;shape-padding:0;shape-margin:0;inline-size:0;clip-rule:nonzero;display:inline;overflow:visible;visibility:visible;isolation:auto;mix-blend-mode:normal;color-interpolation:sRGB;color-interpolation-filters:linearRGB;solid-color:#000000;solid-opacity:1;vector-effect:none;fill:#2b313f;fill-opacity:1;fill-rule:nonzero;stroke:#000000;stroke-linecap:butt;stroke-linejoin:miter;stroke-miterlimit:4;stroke-dasharray:none;stroke-dashoffset:0;stroke-opacity:1;color-rendering:auto;image-rendering:auto;shape-rendering:auto;text-rendering:auto;enable-background:accumulate;stop-color:#000000;stop-opacity:1"
             d="M 12.273438 3.3417969 C 12.229999 3.3417969 12.189234 3.3595945 12.15625 3.3925781 C 12.127228 3.4216006 12.113281 3.459107 12.113281 3.5019531 L 12.113281 3.5039062 L 12.119141 3.5566406 L 12.923828 7.6054688 L 12.925781 7.6054688 C 12.952262 7.7246487 12.987222 7.813276 13.033203 7.8730469 L 13.033203 7.875 C 13.080722 7.9320225 13.158526 7.9589844 13.261719 7.9589844 L 13.523438 7.9589844 C 13.622636 7.9589844 13.700535 7.9279564 13.751953 7.8671875 C 13.801815 7.8037267 13.842109 7.715959 13.873047 7.6054688 L 14.458984 5.4765625 L 15.046875 7.6054688 C 15.077815 7.7159588 15.118109 7.8037267 15.167969 7.8671875 C 15.219388 7.9279561 15.297288 7.9589844 15.396484 7.9589844 L 15.658203 7.9589844 C 15.761393 7.9589844 15.839197 7.9320219 15.886719 7.875 L 15.886719 7.8730469 C 15.932697 7.813276 15.967657 7.7246484 15.994141 7.6054688 L 16.800781 3.5566406 L 16.806641 3.5039062 L 16.806641 3.5019531 C 16.806641 3.4594486 16.78999 3.4230729 16.757812 3.3945312 C 16.729046 3.3609704 16.689926 3.3417969 16.646484 3.3417969 L 16.384766 3.3417969 C 16.333352 3.3417969 16.285927 3.3600797 16.244141 3.3925781 C 16.20521 3.4217802 16.179628 3.46774 16.166016 3.53125 L 16.166016 3.5332031 L 15.509766 7.0859375 L 14.808594 4.5605469 L 14.808594 4.5585938 C 14.799135 4.5129666 14.775533 4.4698007 14.740234 4.4296875 C 14.702059 4.3819678 14.643497 4.3574219 14.570312 4.3574219 L 14.347656 4.3574219 C 14.274474 4.3574219 14.217865 4.381968 14.179688 4.4296875 C 14.143967 4.4702833 14.118624 4.5143106 14.109375 4.5605469 L 13.408203 7.0859375 L 12.753906 3.5332031 L 12.753906 3.53125 C 12.740447 3.4684235 12.712121 3.4216467 12.669922 3.3925781 C 12.63226 3.359626 12.58657 3.3417969 12.535156 3.3417969 L 12.273438 3.3417969 z M 12.273438 3.375 L 12.535156 3.375 C 12.579782 3.375 12.616245 3.3878491 12.648438 3.4160156 L 12.648438 3.4179688 L 12.650391 3.4179688 C 12.685588 3.4414319 12.710152 3.4806911 12.722656 3.5390625 L 13.390625 7.1601562 L 13.419922 7.1601562 L 13.421875 7.1542969 L 14.140625 4.5664062 C 14.148735 4.5258664 14.16972 4.4868053 14.203125 4.4492188 C 14.234801 4.4096249 14.28114 4.3886719 14.347656 4.3886719 L 14.570312 4.3886719 C 14.63683 4.3886719 14.683169 4.4096251 14.714844 4.4492188 L 14.716797 4.4492188 C 14.750208 4.4868051 14.769234 4.5258669 14.777344 4.5664062 L 15.498047 7.1601562 L 15.529297 7.1601562 L 16.197266 3.5390625 C 16.209853 3.4803338 16.232762 3.4411544 16.263672 3.4179688 C 16.300472 3.3893485 16.34014 3.375 16.384766 3.375 L 16.646484 3.375 C 16.68163 3.375 16.708801 3.3865047 16.732422 3.4140625 L 16.734375 3.4160156 C 16.761934 3.4396371 16.775391 3.4668107 16.775391 3.5019531 L 16.769531 3.5527344 L 15.962891 7.5996094 C 15.937045 7.7149978 15.902392 7.8001338 15.861328 7.8535156 C 15.82153 7.9012697 15.755827 7.9257813 15.658203 7.9257812 L 15.396484 7.9257812 C 15.304364 7.9257812 15.237972 7.8995266 15.193359 7.8476562 C 15.147179 7.7888784 15.108309 7.7054492 15.078125 7.5976562 L 14.458984 5.3554688 L 13.841797 7.5976562 C 13.811615 7.7054491 13.772745 7.7888786 13.726562 7.8476562 C 13.68194 7.900394 13.616333 7.9257812 13.523438 7.9257812 L 13.261719 7.9257812 C 13.164918 7.9257812 13.098498 7.9004833 13.058594 7.8535156 C 13.017636 7.8002749 12.982852 7.7145316 12.957031 7.5996094 L 12.150391 3.5527344 L 12.144531 3.5 C 12.144961 3.4652617 12.156777 3.4389263 12.179688 3.4160156 C 12.207823 3.3878805 12.238296 3.375 12.273438 3.375 z "
             id="path936" />
        </g>
        <g
           id="path921"
           style="opacity:1;stroke:#000000;stroke-opacity:1;fill:#2b313f;fill-opacity:1">
          <path
             style="color:#000000;font-style:normal;font-variant:normal;font-weight:normal;font-stretch:normal;font-size:medium;line-height:1.25;font-family:Rubik;-inkscape-font-specification:Rubik;font-variant-ligatures:normal;font-variant-position:normal;font-variant-caps:normal;font-variant-numeric:normal;font-variant-alternates:normal;font-variant-east-asian:normal;font-feature-settings:normal;font-variation-settings:normal;text-indent:0;text-align:start;text-decoration:none;text-decoration-line:none;text-decoration-style:solid;text-decoration-color:#000000;letter-spacing:0px;word-spacing:0px;text-transform:none;writing-mode:lr-tb;direction:ltr;text-orientation:mixed;dominant-baseline:auto;baseline-shift:baseline;text-anchor:start;white-space:normal;shape-padding:0;shape-margin:0;inline-size:0;clip-rule:nonzero;display:inline;overflow:visible;visibility:visible;isolation:auto;mix-blend-mode:normal;color-interpolation:sRGB;color-interpolation-filters:linearRGB;solid-color:#000000;solid-opacity:1;vector-effect:none;fill:#2b313f;fill-opacity:1;fill-rule:nonzero;stroke:#000000;stroke-width:0;stroke-linecap:butt;stroke-linejoin:miter;stroke-miterlimit:4;stroke-dasharray:none;stroke-dashoffset:0;stroke-opacity:1;color-rendering:auto;image-rendering:auto;shape-rendering:auto;text-rendering:auto;enable-background:accumulate;stop-color:#000000;stop-opacity:1"
             d="m 17.792861,7.9425411 c -0.04802,0 -0.08949,-0.017463 -0.124422,-0.052388 -0.03493,-0.034925 -0.05239,-0.076399 -0.05239,-0.1244213 V 3.5354073 c 0,-0.048022 0.01746,-0.089496 0.05239,-0.1244213 0.03493,-0.034925 0.0764,-0.052388 0.124422,-0.052388 h 0.268488 c 0.04802,0 0.08949,0.017463 0.124421,0.052388 0.03493,0.034925 0.05239,0.076399 0.05239,0.1244213 v 4.2303246 c 0,0.048022 -0.01746,0.089496 -0.05239,0.1244213 -0.03493,0.034925 -0.0764,0.052388 -0.124421,0.052388 z"
             id="path940" />
          <path
             style="color:#000000;font-style:normal;font-variant:normal;font-weight:normal;font-stretch:normal;font-size:medium;line-height:1.25;font-family:Rubik;-inkscape-font-specification:Rubik;font-variant-ligatures:normal;font-variant-position:normal;font-variant-caps:normal;font-variant-numeric:normal;font-variant-alternates:normal;font-variant-east-asian:normal;font-feature-settings:normal;font-variation-settings:normal;text-indent:0;text-align:start;text-decoration:none;text-decoration-line:none;text-decoration-style:solid;text-decoration-color:#000000;letter-spacing:0px;word-spacing:0px;text-transform:none;writing-mode:lr-tb;direction:ltr;text-orientation:mixed;dominant-baseline:auto;baseline-shift:baseline;text-anchor:start;white-space:normal;shape-padding:0;shape-margin:0;inline-size:0;clip-rule:nonzero;display:inline;overflow:visible;visibility:visible;isolation:auto;mix-blend-mode:normal;color-interpolation:sRGB;color-interpolation-filters:linearRGB;solid-color:#000000;solid-opacity:1;vector-effect:none;fill:#2b313f;fill-opacity:1;fill-rule:nonzero;stroke:#000000;stroke-linecap:butt;stroke-linejoin:miter;stroke-miterlimit:4;stroke-dasharray:none;stroke-dashoffset:0;stroke-opacity:1;color-rendering:auto;image-rendering:auto;shape-rendering:auto;text-rendering:auto;enable-background:accumulate;stop-color:#000000;stop-opacity:1"
             d="M 17.792969 3.3417969 C 17.741069 3.3417969 17.693769 3.3628728 17.65625 3.4003906 C 17.618731 3.4379088 17.599609 3.4832553 17.599609 3.5351562 L 17.599609 7.765625 C 17.599609 7.8175261 17.618731 7.8648257 17.65625 7.9023438 C 17.693771 7.9398614 17.74107 7.9589844 17.792969 7.9589844 L 18.060547 7.9589844 C 18.112446 7.9589844 18.159746 7.9398616 18.197266 7.9023438 C 18.234785 7.8648256 18.253906 7.817526 18.253906 7.765625 L 18.253906 3.5351562 C 18.253906 3.4832551 18.234785 3.4379086 18.197266 3.4003906 C 18.159746 3.3628729 18.112446 3.3417969 18.060547 3.3417969 L 17.792969 3.3417969 z M 17.792969 3.375 L 18.060547 3.375 C 18.104688 3.375 18.141493 3.389542 18.173828 3.421875 C 18.206162 3.4542077 18.222656 3.491013 18.222656 3.5351562 L 18.222656 7.765625 C 18.222656 7.809768 18.206162 7.8465734 18.173828 7.8789062 C 18.141494 7.9112391 18.104689 7.9257812 18.060547 7.9257812 L 17.792969 7.9257812 C 17.748828 7.9257812 17.712023 7.9112393 17.679688 7.8789062 C 17.647354 7.8465736 17.632813 7.8097683 17.632812 7.765625 L 17.632812 3.5351562 C 17.632812 3.4910132 17.647354 3.4542079 17.679688 3.421875 C 17.712022 3.3895422 17.748826 3.375 17.792969 3.375 z "
             id="path942" />
        </g>
        <g
           id="path923"
           style="opacity:1;stroke:#000000;stroke-opacity:1;fill:#2b313f;fill-opacity:1">
          <path
             style="color:#000000;font-style:normal;font-variant:normal;font-weight:normal;font-stretch:normal;font-size:medium;line-height:1.25;font-family:Rubik;-inkscape-font-specification:Rubik;font-variant-ligatures:normal;font-variant-position:normal;font-variant-caps:normal;font-variant-numeric:normal;font-variant-alternates:normal;font-variant-east-asian:normal;font-feature-settings:normal;font-variation-settings:normal;text-indent:0;text-align:start;text-decoration:none;text-decoration-line:none;text-decoration-style:solid;text-decoration-color:#000000;letter-spacing:0px;word-spacing:0px;text-transform:none;writing-mode:lr-tb;direction:ltr;text-orientation:mixed;dominant-baseline:auto;baseline-shift:baseline;text-anchor:start;white-space:normal;shape-padding:0;shape-margin:0;inline-size:0;clip-rule:nonzero;display:inline;overflow:visible;visibility:visible;isolation:auto;mix-blend-mode:normal;color-interpolation:sRGB;color-interpolation-filters:linearRGB;solid-color:#000000;solid-opacity:1;vector-effect:none;fill:#2b313f;fill-opacity:1;fill-rule:nonzero;stroke:#000000;stroke-width:0;stroke-linecap:butt;stroke-linejoin:miter;stroke-miterlimit:4;stroke-dasharray:none;stroke-dashoffset:0;stroke-opacity:1;color-rendering:auto;image-rendering:auto;shape-rendering:auto;text-rendering:auto;enable-background:accumulate;stop-color:#000000;stop-opacity:1"
             d="m 21.067094,3.2931132 c 0.371081,0 0.691957,0.069851 0.962628,0.2095517 0.270671,0.1353355 0.475857,0.3034134 0.615558,0.5042337 0.144067,0.1964547 0.220466,0.3798125 0.229197,0.5500732 0.0043,0.039291 -0.0088,0.074216 -0.03929,0.1047758 -0.03056,0.026194 -0.06549,0.039291 -0.104776,0.039291 h -0.268488 c -0.10041,0 -0.163712,-0.024011 -0.189906,-0.072033 C 22.145413,4.3845286 21.992615,4.198988 21.813623,4.0723839 21.638996,3.9457798 21.390154,3.8824777 21.067095,3.8824777 c -0.366715,0 -0.66358,0.1047758 -0.890595,0.3143275 -0.227014,0.205186 -0.34707,0.5020509 -0.360167,0.8905947 -0.0043,0.1309698 -0.0065,0.3121447 -0.0065,0.5435246 0,0.23138 0.0022,0.4125549 0.0065,0.5435247 0.0131,0.4103721 0.130973,0.7203339 0.353619,0.9298856 0.227014,0.2095517 0.526062,0.3143275 0.897143,0.3143275 0.379812,0 0.683225,-0.098227 0.91024,-0.294682 0.227014,-0.2008204 0.340521,-0.5151479 0.340521,-0.9429826 V 5.9976396 h -0.942982 c -0.04802,0 -0.08949,-0.017463 -0.124421,-0.052388 -0.03493,-0.034925 -0.05239,-0.076399 -0.05239,-0.1244214 V 5.5850847 c 0,-0.048022 0.01746,-0.089496 0.05239,-0.1244213 0.03493,-0.034925 0.0764,-0.052388 0.124421,-0.052388 h 1.38828 c 0.04802,0 0.08949,0.017463 0.124421,0.052388 0.03493,0.034925 0.05239,0.076399 0.05239,0.1244213 v 0.6221066 c 0,0.3492528 -0.07422,0.6613975 -0.222649,0.936434 -0.148432,0.2706709 -0.364532,0.4824055 -0.6483,0.6352036 -0.279403,0.1527981 -0.613376,0.2291971 -1.001919,0.2291971 -0.602461,0 -1.060856,-0.1658951 -1.375183,-0.4976852 -0.314327,-0.3361559 -0.480222,-0.770539 -0.497685,-1.3031495 -0.0043,-0.1309698 -0.0065,-0.3230589 -0.0065,-0.5762672 0,-0.2532083 0.0022,-0.4452973 0.0065,-0.5762671 0.0131,-0.3361558 0.08732,-0.6352035 0.222648,-0.8971431 0.139701,-0.2663053 0.34707,-0.475857 0.622107,-0.6286551 0.279402,-0.1571637 0.622106,-0.2357456 1.028113,-0.2357456 z"
             id="path946" />
          <path
             style="color:#000000;font-style:normal;font-variant:normal;font-weight:normal;font-stretch:normal;font-size:medium;line-height:1.25;font-family:Rubik;-inkscape-font-specification:Rubik;font-variant-ligatures:normal;font-variant-position:normal;font-variant-caps:normal;font-variant-numeric:normal;font-variant-alternates:normal;font-variant-east-asian:normal;font-feature-settings:normal;font-variation-settings:normal;text-indent:0;text-align:start;text-decoration:none;text-decoration-line:none;text-decoration-style:solid;text-decoration-color:#000000;letter-spacing:0px;word-spacing:0px;text-transform:none;writing-mode:lr-tb;direction:ltr;text-orientation:mixed;dominant-baseline:auto;baseline-shift:baseline;text-anchor:start;white-space:normal;shape-padding:0;shape-margin:0;inline-size:0;clip-rule:nonzero;display:inline;overflow:visible;visibility:visible;isolation:auto;mix-blend-mode:normal;color-interpolation:sRGB;color-interpolation-filters:linearRGB;solid-color:#000000;solid-opacity:1;vector-effect:none;fill:#2b313f;fill-opacity:1;fill-rule:nonzero;stroke:#000000;stroke-linecap:butt;stroke-linejoin:miter;stroke-miterlimit:4;stroke-dasharray:none;stroke-dashoffset:0;stroke-opacity:1;color-rendering:auto;image-rendering:auto;shape-rendering:auto;text-rendering:auto;enable-background:accumulate;stop-color:#000000;stop-opacity:1"
             d="M 21.066406 3.2773438 C 20.658335 3.2773438 20.313538 3.3568378 20.03125 3.515625 C 19.753769 3.669781 19.543467 3.881375 19.402344 4.1503906 C 19.265827 4.4146229 19.190912 4.716551 19.177734 5.0546875 C 19.17339 5.1859979 19.171875 5.3775598 19.171875 5.6308594 C 19.171875 5.884159 19.17339 6.0757209 19.177734 6.2070312 C 19.195296 6.742674 19.362582 7.1823573 19.679688 7.5214844 C 19.997525 7.8569795 20.461008 8.0234375 21.066406 8.0234375 C 21.457047 8.0234375 21.79403 7.9472649 22.076172 7.7929688 C 22.362387 7.638853 22.58058 7.4237177 22.730469 7.1503906 C 22.880246 6.8728631 22.955078 6.5585507 22.955078 6.2070312 L 22.955078 5.5859375 C 22.955078 5.5340364 22.935957 5.4867368 22.898438 5.4492188 C 22.860918 5.411701 22.815571 5.3925781 22.763672 5.3925781 L 21.375 5.3925781 C 21.3231 5.3925781 21.275801 5.4117009 21.238281 5.4492188 C 21.200762 5.4867369 21.181641 5.5340365 21.181641 5.5859375 L 21.181641 5.8203125 C 21.181641 5.8722137 21.200762 5.9195132 21.238281 5.9570312 C 21.275801 5.994549 21.323101 6.0136719 21.375 6.0136719 L 22.302734 6.0136719 L 22.302734 6.1816406 C 22.302734 6.6066454 22.189587 6.9142438 21.966797 7.1113281 C 21.743121 7.3048935 21.44346 7.4023438 21.066406 7.4023438 C 20.698337 7.4023437 20.405462 7.2984014 20.181641 7.0917969 C 19.962676 6.8857105 19.845042 6.5813978 19.832031 6.1738281 C 19.827708 6.0431696 19.826172 5.8621395 19.826172 5.6308594 C 19.826172 5.3995793 19.827708 5.2185492 19.832031 5.0878906 C 19.845027 4.7023628 19.9641 4.4109043 20.1875 4.2089844 C 20.411359 4.0023452 20.702739 3.8984375 21.066406 3.8984375 C 21.387375 3.8984375 21.633857 3.9620855 21.804688 4.0859375 C 21.981167 4.2107648 22.132106 4.3939744 22.257812 4.6367188 C 22.272967 4.6645023 22.29971 4.6842652 22.333984 4.6972656 C 22.368258 4.710266 22.41141 4.7167969 22.462891 4.7167969 L 22.730469 4.7167969 C 22.773315 4.7167969 22.812571 4.7022271 22.845703 4.6738281 C 22.878444 4.6410521 22.894813 4.5997343 22.890625 4.5566406 C 22.881679 4.3821992 22.803482 4.1961548 22.658203 3.9980469 C 22.516698 3.7946331 22.309627 3.62454 22.037109 3.4882812 C 21.76379 3.3472134 21.439495 3.2773438 21.066406 3.2773438 z M 21.066406 3.3085938 C 21.435479 3.3085938 21.753461 3.3792437 22.021484 3.5175781 L 22.023438 3.5175781 C 22.292262 3.6519903 22.494915 3.8173981 22.632812 4.015625 C 22.775667 4.2104265 22.850858 4.3925137 22.859375 4.5585938 C 22.86321 4.5933659 22.852055 4.6225242 22.824219 4.6503906 C 22.796231 4.6743797 22.766204 4.6855469 22.730469 4.6855469 L 22.462891 4.6855469 C 22.413961 4.6855469 22.374731 4.6789794 22.345703 4.6679688 C 22.317261 4.6571802 22.298229 4.640736 22.287109 4.6210938 C 22.159608 4.3748841 22.00377 4.1869747 21.822266 4.0585938 C 21.643843 3.9292375 21.391555 3.8671875 21.066406 3.8671875 C 20.696643 3.8671875 20.396185 3.9730827 20.166016 4.1855469 C 19.935388 4.393999 19.81398 4.6943777 19.800781 5.0859375 C 19.796438 5.2172185 19.792969 5.3993796 19.792969 5.6308594 C 19.792969 5.8623393 19.796438 6.0445002 19.800781 6.1757812 C 19.813971 6.5889557 19.931875 6.9022175 20.158203 7.1152344 C 20.38841 7.3277332 20.692313 7.4355469 21.066406 7.4355469 C 21.448977 7.4355469 21.757928 7.3360627 21.988281 7.1367188 C 22.219519 6.9321623 22.333984 6.6123052 22.333984 6.1816406 L 22.333984 5.9824219 L 21.375 5.9824219 C 21.330859 5.9824219 21.294054 5.9659267 21.261719 5.9335938 C 21.229385 5.9012611 21.214844 5.8644558 21.214844 5.8203125 L 21.214844 5.5859375 C 21.214844 5.5417945 21.229385 5.5049891 21.261719 5.4726562 C 21.294053 5.4403234 21.330858 5.4238281 21.375 5.4238281 L 22.763672 5.4238281 C 22.807813 5.4238281 22.844618 5.4403233 22.876953 5.4726562 C 22.909287 5.5049889 22.923828 5.5417942 22.923828 5.5859375 L 22.923828 6.2070312 C 22.923828 6.5540174 22.850213 6.8641732 22.703125 7.1367188 C 22.55615 7.4047335 22.341868 7.6141445 22.060547 7.765625 C 21.783884 7.916925 21.452852 7.9921875 21.066406 7.9921875 C 20.466882 7.9921875 20.013942 7.8280851 19.703125 7.5 C 19.391576 7.1668153 19.228301 6.7366094 19.210938 6.2070312 C 19.206615 6.076402 19.203125 5.8839764 19.203125 5.6308594 C 19.203125 5.3777424 19.206615 5.1853167 19.210938 5.0546875 C 19.22396 4.7205124 19.297493 4.4237094 19.431641 4.1640625 C 19.56992 3.9004676 19.774283 3.694409 20.046875 3.5429688 C 20.323391 3.3874286 20.662464 3.3085938 21.066406 3.3085938 z "
             id="path948" />
        </g>
      </g>
      <path
         style="color:#000000;font-style:normal;font-variant:normal;font-weight:normal;font-stretch:normal;font-size:medium;line-height:normal;font-family:sans-serif;font-variant-ligatures:normal;font-variant-position:normal;font-variant-caps:normal;font-variant-numeric:normal;font-variant-alternates:normal;font-variant-east-asian:normal;font-feature-settings:normal;font-variation-settings:normal;text-indent:0;text-align:start;text-decoration:none;text-decoration-line:none;text-decoration-style:solid;text-decoration-color:#000000;letter-spacing:normal;word-spacing:normal;text-transform:none;writing-mode:lr-tb;direction:ltr;text-orientation:mixed;dominant-baseline:auto;baseline-shift:baseline;text-anchor:start;white-space:normal;shape-padding:0;shape-margin:0;inline-size:0;clip-rule:nonzero;display:inline;overflow:visible;visibility:visible;isolation:auto;mix-blend-mode:normal;color-interpolation:sRGB;color-interpolation-filters:linearRGB;solid-color:#000000;solid-opacity:1;vector-effect:none;fill:#2b313f;fill-opacity:1;fill-rule:nonzero;stroke-width:0.0852264;stroke-linecap:butt;stroke-linejoin:miter;stroke-miterlimit:4;stroke-dasharray:none;stroke-dashoffset:0;stroke-opacity:1;color-rendering:auto;image-rendering:auto;shape-rendering:auto;text-rendering:auto;enable-background:accumulate;stop-color:#000000;stop-opacity:1;stroke:#000000;opacity:1"
         d="M 6.3826139,0 H 0.89487859 C 0.40065059,-6.0751447e-8 -3.0375677e-7,0.40065103 0,0.89487903 V 8.296802 C 4.7008752e-4,8.7908349 0.40084573,9.1912102 0.89487859,9.19168 H 6.3826139 C 6.8766469,9.1912105 7.2770228,8.790835 7.2774929,8.296802 V 0.89487903 C 7.2774932,0.40065087 6.8768421,-2.8718841e-7 6.3826139,0 Z m 0.19943,5.828642 c -4e-7,0.070604 -0.057236,0.1278391 -0.12784,0.127839 H 4.3175759 C 4.2585176,5.9561912 4.207165,5.9969187 4.1939969,6.054491 3.8948519,7.34482 2.9207129,8.043678 1.3815219,8.043678 H 0.96646865 c -0.0706041,10e-8 -0.12784008,-0.057236 -0.12783996,-0.12784 V 7.404479 c -1.2e-7,-0.070604 0.0572358,-0.1278401 0.12783996,-0.12784 H 1.3772609 c 0.617892,0 1.107944,-0.130397 1.454817,-0.387781 0.2539758,-0.1927476 0.443319,-0.458185 0.542892,-0.761072 0.028564,-0.083253 -0.033005,-0.1699713 -0.121021,-0.170454 h -0.876129 c -0.070604,1e-7 -0.1278396,-0.057235 -0.12784,-0.127839 V 5.488587 c -10e-8,-0.070604 0.057236,-0.1278401 0.12784,-0.12784 h 0.937492 c 0.1168723,4.73e-4 0.2121285,-0.093641 0.213066,-0.21051 V 4.979785 c -4e-7,-0.070604 -0.057236,-0.1278391 -0.12784,-0.127839 h -0.502836 c -0.070604,1e-7 -0.1278401,-0.057236 -0.12784,-0.12784 v -0.25568 c 4e-7,-0.070604 0.057236,-0.1278391 0.12784,-0.127839 h 0.415053 c 0.1176734,-2e-7 0.2130664,-0.095394 0.213066,-0.213067 V 3.935761 c 1e-7,-0.070604 -0.057236,-0.1278401 -0.12784,-0.12784 h -0.12443 c -0.070604,1e-7 -0.1278401,-0.057236 -0.12784,-0.12784 V 3.556503 c -1e-7,-0.070604 0.057236,-0.1278401 0.12784,-0.12784 h 0.80539 c 0.1176734,-4e-7 0.2130668,0.095393 0.213067,0.213066 v 0.487496 c 2e-7,0.117673 0.095393,0.2130658 0.213066,0.213066 h 1.164194 c 0.070604,-1e-7 0.1278401,0.057236 0.12784,0.12784 V 4.72581 c 10e-8,0.070604 -0.057236,0.1278401 -0.12784,0.12784 h -1.24942 c -0.070604,-1e-7 -0.1278401,0.057236 -0.12784,0.12784 v 0.170453 c -9.449e-4,0.1184763 0.094587,0.2151546 0.213066,0.215623 h 1.94913 c 0.070604,-1e-7 0.1278401,0.057236 0.12784,0.12784 z"
         id="path865" />
    </g>
  </g>
</svg>
