%
M48
METRIC,000.000
T10C0.40
T11C0.60
T12C0.65
T13C0.85
T14C1.00
%
T10
X054249Y022926
X053924Y013467
X053622Y016881
X053332Y024485
X050147Y020973
X049774Y023010
X049700Y018600
X048900Y015024
X047724Y028725
X047262Y027577
X045923Y019322
X045525Y015499
X045268Y020079
X045268Y020965
X044427Y015362
X044130Y017470
X043393Y020376
X043376Y015601
X042969Y017506
X041844Y027490
X041600Y024198
X041593Y013970
X041354Y029926
X040566Y018717
X040302Y016548
X039911Y019535
X039878Y017818
X039870Y013099
X037612Y019685
X037536Y023873
X036975Y026299
X036866Y014849
X036406Y023944
X036350Y016109
X036350Y018014
X035842Y014077
X035138Y024130
X034699Y014331
X034699Y016998
X034699Y019030
X033683Y014204
X033683Y015982
X033683Y018014
X033683Y020046
X033338Y024549
X032667Y014331
X032667Y016998
X032667Y019030
X031651Y014204
X031651Y015982
X031651Y018014
X031651Y020046
X031125Y024374
X030762Y016998
X030762Y019030
X030762Y021697
X030635Y014331
X030274Y029499
X029492Y014204
X029423Y023800
X029350Y026774
X028984Y016109
X028984Y018014
X028984Y020046
X028476Y014712
X028349Y021443
X028199Y029426
X028095Y017125
X027968Y019157
X027475Y026225
X026800Y024198
X025911Y028514
X025525Y016241
X025072Y023205
X024994Y013066
X023874Y026251
X023874Y025400
X023790Y029520
X022835Y029532
X021991Y023629
X020173Y020140
X020025Y015054
X019967Y029520
X019967Y027920
X019931Y025380
X018938Y013317
X018545Y022461
X017839Y019921
X017267Y029629
X017074Y018882
X017021Y016181
X016980Y014325
X016467Y023637
X015776Y028171
X015771Y027312
X014801Y018321
X014676Y027655
X014455Y019962
X013932Y016721
X013236Y028499
X012677Y023132
X011588Y026838
X010043Y025070
X009114Y023670
X061750Y016073
X062075Y025532
X062377Y022118
X062667Y014514
X065852Y018026
X066225Y015989
X066299Y020399
X067099Y023975
X068275Y010274
X068737Y011422
X070076Y019677
X070474Y023500
X070731Y018920
X070731Y018034
X071572Y023637
X071869Y021529
X072606Y018623
X072623Y023398
X073030Y021493
X074155Y011509
X074399Y014801
X074406Y025029
X074645Y009073
X075433Y020282
X075697Y022451
X076088Y019464
X076121Y021181
X076129Y025900
X078387Y019314
X078463Y015126
X079024Y012700
X079133Y024150
X079593Y015055
X079649Y022890
X079649Y020985
X080157Y024922
X080861Y014869
X081300Y024668
X081300Y022001
X081300Y019969
X082316Y024795
X082316Y023017
X082316Y020985
X082316Y018953
X082661Y014450
X083332Y024668
X083332Y022001
X083332Y019969
X084348Y024795
X084348Y023017
X084348Y020985
X084348Y018953
X084874Y014625
X085237Y022001
X085237Y019969
X085237Y017302
X085364Y024668
X085725Y009500
X086507Y024795
X086576Y015199
X086649Y012225
X087015Y022890
X087015Y020985
X087015Y018953
X087523Y024287
X087650Y017556
X087800Y009573
X087904Y021874
X088031Y019842
X088524Y012774
X089199Y014801
X090088Y010485
X090474Y022758
X090927Y015794
X091005Y025933
X092125Y012748
X092125Y013599
X092209Y009479
X093164Y009467
X094008Y015370
X095826Y018859
X095974Y023945
X096032Y009479
X096032Y011079
X096068Y013619
X097061Y025682
X097454Y016538
X098160Y019078
X098732Y009370
X098925Y020117
X098978Y022817
X099019Y024674
X099532Y015362
X100223Y010828
X100228Y011687
X101198Y020678
X101323Y011344
X101544Y019037
X102067Y022278
X102763Y010500
X103322Y015867
X104411Y012162
X105956Y013929
X106885Y015329
X054249Y048926
X053924Y039467
X053622Y042881
X053332Y050485
X050147Y046973
X049774Y049010
X049700Y044600
X048900Y041024
X047724Y054725
X047262Y053577
X045923Y045322
X045525Y041499
X045268Y046079
X045268Y046965
X044427Y041362
X044130Y043470
X043393Y046376
X043376Y041601
X042969Y043506
X041844Y053490
X041600Y050198
X041593Y039970
X041354Y055926
X040566Y044717
X040302Y042548
X039911Y045535
X039878Y043818
X039870Y039099
X037612Y045685
X037536Y049873
X036975Y052299
X036866Y040849
X036406Y049944
X036350Y042109
X036350Y044014
X035842Y040077
X035138Y050130
X034699Y040331
X034699Y042998
X034699Y045030
X033683Y040204
X033683Y041982
X033683Y044014
X033683Y046046
X033338Y050549
X032667Y040331
X032667Y042998
X032667Y045030
X031651Y040204
X031651Y041982
X031651Y044014
X031651Y046046
X031125Y050374
X030762Y042998
X030762Y045030
X030762Y047697
X030635Y040331
X030274Y055499
X029492Y040204
X029423Y049800
X029350Y052774
X028984Y042109
X028984Y044014
X028984Y046046
X028476Y040712
X028349Y047443
X028199Y055426
X028095Y043125
X027968Y045157
X027475Y052225
X026800Y050198
X025911Y054514
X025525Y042241
X025072Y049205
X024994Y039066
X023874Y052251
X023874Y051400
X023790Y055520
X022835Y055532
X021991Y049629
X020173Y046140
X020025Y041054
X019967Y055520
X019967Y053920
X019931Y051380
X018938Y039317
X018545Y048461
X017839Y045921
X017267Y055629
X017074Y044882
X017021Y042182
X016980Y040325
X016467Y049637
X015776Y054171
X015771Y053312
X014801Y044321
X014676Y053655
X014455Y045962
X013932Y042721
X013236Y054499
X012677Y049132
X011588Y052838
X010043Y051070
X009114Y049670
X061750Y042073
X062075Y051532
X062377Y048118
X062667Y040514
X065852Y044026
X066225Y041989
X066299Y046399
X067099Y049975
X068275Y036274
X068737Y037422
X070076Y045677
X070474Y049500
X070731Y044920
X070731Y044034
X071572Y049637
X071869Y047529
X072606Y044623
X072623Y049398
X073030Y047493
X074155Y037509
X074399Y040801
X074406Y051029
X074645Y035073
X075433Y046282
X075697Y048451
X076088Y045464
X076121Y047181
X076129Y051900
X078387Y045314
X078463Y041126
X079024Y038700
X079133Y050150
X079593Y041055
X079649Y048890
X079649Y046985
X080157Y050922
X080861Y040869
X081300Y050668
X081300Y048001
X081300Y045969
X082316Y050795
X082316Y049017
X082316Y046985
X082316Y044953
X082661Y040450
X083332Y050668
X083332Y048001
X083332Y045969
X084348Y050795
X084348Y049017
X084348Y046985
X084348Y044953
X084874Y040625
X085237Y048001
X085237Y045969
X085237Y043302
X085364Y050668
X085725Y035500
X086507Y050795
X086576Y041199
X086649Y038225
X087015Y048890
X087015Y046985
X087015Y044953
X087523Y050287
X087650Y043556
X087800Y035573
X087904Y047874
X088031Y045842
X088524Y038774
X089199Y040801
X090088Y036485
X090474Y048758
X090927Y041794
X091005Y051933
X092125Y038748
X092125Y039599
X092209Y035479
X093164Y035467
X094008Y041370
X095826Y044859
X095974Y049945
X096032Y035479
X096032Y037079
X096068Y039619
X097061Y051682
X097454Y042538
X098160Y045078
X098732Y035370
X098925Y046117
X098978Y048817
X099019Y050674
X099532Y041362
X100223Y036828
X100228Y037687
X101198Y046678
X101323Y037344
X101544Y045037
X102067Y048278
X102763Y036500
X103322Y041867
X104411Y038162
X105956Y039929
X106885Y041329
X054249Y074926
X053924Y065467
X053622Y068881
X053332Y076485
X050147Y072973
X049774Y075010
X049700Y070600
X048900Y067024
X047724Y080725
X047262Y079577
X045923Y071322
X045525Y067499
X045268Y072079
X045268Y072965
X044427Y067362
X044130Y069470
X043393Y072376
X043376Y067601
X042969Y069506
X041844Y079490
X041600Y076198
X041593Y065970
X041354Y081926
X040566Y070717
X040302Y068548
X039911Y071535
X039878Y069818
X039870Y065099
X037612Y071685
X037536Y075873
X036975Y078299
X036866Y066849
X036406Y075944
X036350Y068109
X036350Y070014
X035842Y066077
X035138Y076130
X034699Y066331
X034699Y068998
X034699Y071030
X033683Y066204
X033683Y067982
X033683Y070014
X033683Y072046
X033338Y076549
X032667Y066331
X032667Y068998
X032667Y071030
X031651Y066204
X031651Y067982
X031651Y070014
X031651Y072046
X031125Y076374
X030762Y068998
X030762Y071030
X030762Y073697
X030635Y066331
X030274Y081499
X029492Y066204
X029423Y075800
X029350Y078774
X028984Y068109
X028984Y070014
X028984Y072046
X028476Y066712
X028349Y073443
X028199Y081426
X028095Y069125
X027968Y071157
X027475Y078225
X026800Y076198
X025911Y080514
X025525Y068241
X025072Y075205
X024994Y065066
X023874Y078251
X023874Y077400
X023790Y081520
X022835Y081532
X021991Y075629
X020173Y072140
X020025Y067054
X019967Y081520
X019967Y079920
X019931Y077380
X018938Y065316
X018545Y074461
X017839Y071921
X017267Y081629
X017074Y070882
X017021Y068182
X016980Y066325
X016467Y075637
X015776Y080171
X015771Y079312
X014801Y070321
X014676Y079655
X014455Y071962
X013932Y068721
X013236Y080499
X012677Y075132
X011588Y078838
X010043Y077070
X009114Y075670
X054249Y100926
X053924Y091467
X053622Y094881
X053332Y102485
X050147Y098973
X049774Y101010
X049700Y096600
X048900Y093024
X047724Y106725
X047262Y105577
X045923Y097322
X045525Y093499
X045268Y098079
X045268Y098965
X044427Y093362
X044130Y095470
X043393Y098376
X043376Y093601
X042969Y095506
X041844Y105490
X041600Y102198
X041593Y091970
X041354Y107926
X040566Y096717
X040302Y094548
X039911Y097535
X039878Y095818
X039870Y091099
X037612Y097685
X037536Y101873
X036975Y104299
X036866Y092849
X036406Y101944
X036350Y094109
X036350Y096014
X035842Y092077
X035138Y102130
X034699Y092331
X034699Y094998
X034699Y097030
X033683Y092204
X033683Y093982
X033683Y096014
X033683Y098046
X033338Y102549
X032667Y092331
X032667Y094998
X032667Y097030
X031651Y092204
X031651Y093982
X031651Y096014
X031651Y098046
X031125Y102374
X030762Y094998
X030762Y097030
X030762Y099697
X030635Y092331
X030274Y107499
X029492Y092204
X029423Y101800
X029350Y104774
X028984Y094109
X028984Y096014
X028984Y098046
X028476Y092712
X028349Y099443
X028199Y107426
X028095Y095125
X027968Y097157
X027475Y104225
X026800Y102198
X025911Y106514
X025525Y094241
X025072Y101205
X024994Y091066
X023874Y104251
X023874Y103400
X023790Y107520
X022835Y107532
X021991Y101629
X020173Y098140
X020025Y093054
X019967Y107520
X019967Y105920
X019931Y103380
X018938Y091317
X018545Y100461
X017839Y097921
X017267Y107629
X017074Y096882
X017021Y094182
X016980Y092325
X016467Y101637
X015776Y106171
X015771Y105312
X014801Y096321
X014676Y105655
X014455Y097962
X013932Y094721
X013236Y106499
X012677Y101132
X011588Y104838
X010043Y103070
X009114Y101670
X062750Y068073
X063075Y077532
X063377Y074118
X063667Y066514
X066852Y070026
X067225Y067989
X067299Y072399
X068099Y075975
X069275Y062274
X069737Y063422
X071076Y071677
X071474Y075500
X071731Y070920
X071731Y070034
X072572Y075637
X072869Y073529
X073606Y070623
X073623Y075398
X074030Y073493
X075155Y063509
X075399Y066801
X075406Y077029
X075645Y061073
X076433Y072282
X076697Y074451
X077088Y071464
X077121Y073181
X077129Y077900
X079387Y071314
X079463Y067126
X080024Y064700
X080133Y076150
X080593Y067055
X080649Y074890
X080649Y072985
X081157Y076922
X081861Y066869
X082300Y076668
X082300Y074001
X082300Y071969
X083316Y076795
X083316Y075017
X083316Y072985
X083316Y070953
X083661Y066450
X084332Y076668
X084332Y074001
X084332Y071969
X085348Y076795
X085348Y075017
X085348Y072985
X085348Y070953
X085874Y066625
X086237Y074001
X086237Y071969
X086237Y069302
X086364Y076668
X086725Y061500
X087507Y076795
X087576Y067199
X087649Y064224
X088015Y074890
X088015Y072985
X088015Y070953
X088523Y076287
X088650Y069556
X088800Y061573
X088904Y073874
X089031Y071842
X089524Y064774
X090199Y066801
X091088Y062485
X091474Y074758
X091927Y067794
X092005Y077933
X093125Y064748
X093125Y065599
X093209Y061479
X094164Y061467
X095008Y067370
X096826Y070859
X096974Y075945
X097032Y061479
X097032Y063079
X097068Y065619
X098061Y077682
X098454Y068538
X099160Y071078
X099732Y061370
X099925Y072117
X099978Y074817
X100019Y076674
X100532Y067362
X101223Y062828
X101228Y063687
X102198Y072678
X102323Y063344
X102544Y071037
X103067Y074278
X103763Y062500
X104322Y067867
X105411Y064162
X106956Y065929
X107885Y067329
X061750Y094073
X062075Y103532
X062377Y100118
X062667Y092514
X065852Y096026
X066225Y093989
X066299Y098399
X067099Y101975
X068275Y088274
X068737Y089422
X070076Y097677
X070474Y101500
X070731Y096920
X070731Y096034
X071572Y101637
X071869Y099529
X072606Y096623
X072623Y101398
X073030Y099493
X074155Y089509
X074399Y092801
X074406Y103029
X074645Y087073
X075433Y098282
X075697Y100451
X076088Y097464
X076121Y099181
X076129Y103900
X078387Y097314
X078463Y093126
X079024Y090700
X079133Y102150
X079593Y093055
X079649Y100890
X079649Y098985
X080157Y102922
X080861Y092869
X081300Y102668
X081300Y100001
X081300Y097969
X082316Y102795
X082316Y101017
X082316Y098985
X082316Y096953
X082661Y092450
X083332Y102668
X083332Y100001
X083332Y097969
X084348Y102795
X084348Y101017
X084348Y098985
X084348Y096953
X084874Y092625
X085237Y100001
X085237Y097969
X085237Y095302
X085364Y102668
X085725Y087500
X086507Y102795
X086576Y093199
X086649Y090225
X087015Y100890
X087015Y098985
X087015Y096953
X087523Y102287
X087650Y095556
X087800Y087573
X087904Y099874
X088031Y097842
X088524Y090774
X089199Y092801
X090088Y088485
X090474Y100758
X090927Y093794
X091005Y103933
X092125Y090748
X092125Y091599
X092209Y087479
X093164Y087467
X094008Y093370
X095826Y096859
X095974Y101945
X096032Y087479
X096032Y089079
X096068Y091619
X097061Y103682
X097454Y094538
X098160Y097078
X098732Y087370
X098925Y098117
X098978Y100817
X099019Y102674
X099532Y093362
X100223Y088828
X100228Y089687
X101198Y098678
X101323Y089344
X101544Y097037
X102067Y100278
X102763Y088500
X103322Y093867
X104411Y090162
X105956Y091929
X106885Y093329
T11
X052164Y025705
X049411Y028100
X046281Y029357
X042652Y029738
X063835Y013294
X066588Y010899
X069718Y009642
X073347Y009261
X052164Y051705
X049411Y054100
X046281Y055357
X042652Y055738
X063835Y039294
X066588Y036899
X069718Y035642
X073347Y035261
X052164Y077705
X049411Y080100
X046281Y081357
X042652Y081738
X052164Y103705
X049411Y106100
X046281Y107357
X042652Y107738
X064834Y065294
X067588Y062899
X070718Y061642
X074347Y061261
X063835Y091294
X066588Y088899
X069718Y087642
X073347Y087261
X015583Y014323G85X014483Y014323
X015583Y022964G85X014483Y022964
X011153Y014323G85X010554Y014323
X011153Y022964G85X010554Y022964
X010086Y015148G85X009388Y015148
X009388Y022149G85X010086Y022149
X100416Y024676G85X101516Y024676
X100416Y016035G85X101516Y016035
X104846Y024676G85X105445Y024676
X104846Y016035G85X105445Y016035
X105913Y023851G85X106611Y023851
X106611Y016850G85X105913Y016850
X015583Y040323G85X014483Y040323
X015583Y048964G85X014483Y048964
X011153Y040323G85X010554Y040323
X011153Y048964G85X010554Y048964
X010086Y041148G85X009388Y041148
X009388Y048149G85X010086Y048149
X100416Y050676G85X101516Y050676
X100416Y042035G85X101516Y042035
X104846Y050676G85X105445Y050676
X104846Y042035G85X105445Y042035
X105913Y049851G85X106611Y049851
X106611Y042850G85X105913Y042850
X015583Y066323G85X014483Y066323
X015583Y074964G85X014483Y074964
X011153Y066323G85X010554Y066323
X011153Y074964G85X010554Y074964
X010086Y067148G85X009388Y067148
X009388Y074149G85X010086Y074149
X015583Y092323G85X014483Y092323
X015583Y100964G85X014483Y100964
X011153Y092323G85X010554Y092323
X011153Y100964G85X010554Y100964
X010086Y093148G85X009388Y093148
X009388Y100149G85X010086Y100149
X101416Y076676G85X102516Y076676
X101416Y068035G85X102516Y068035
X105846Y076676G85X106445Y076676
X105846Y068035G85X106445Y068035
X106913Y075851G85X107611Y075851
X107611Y068850G85X106913Y068850
X100416Y102676G85X101516Y102676
X100416Y094035G85X101516Y094035
X104846Y102676G85X105445Y102676
X104846Y094035G85X105445Y094035
X105913Y101851G85X106611Y101851
X106611Y094850G85X105913Y094850
T12
X014503Y015753
X014503Y021534
X101496Y023246
X101496Y017465
X014503Y041753
X014503Y047534
X101496Y049246
X101496Y043465
X014503Y067753
X014503Y073534
X014503Y093753
X014503Y099534
X102496Y075246
X102496Y069465
X101496Y101246
X101496Y095465
T13
X012436Y016149
X012436Y021150
X103563Y022850
X103563Y017849
X012436Y042149
X012436Y047150
X103563Y048850
X103563Y043849
X012436Y068149
X012436Y073150
X012436Y094149
X012436Y099150
X104563Y074850
X104563Y069849
X103563Y100850
X103563Y095849
T14
X046167Y024966
X043627Y024966
X039716Y029649
X037176Y029649
X023249Y013508
X020709Y013508
X069832Y014033
X072372Y014033
X076283Y009350
X078823Y009350
X092750Y025491
X095290Y025491
X046167Y050966
X043627Y050966
X039716Y055649
X037176Y055649
X023249Y039508
X020709Y039508
X069832Y040033
X072372Y040033
X076283Y035350
X078823Y035350
X092750Y051491
X095290Y051491
X046167Y076966
X043627Y076966
X039716Y081649
X037176Y081649
X023249Y065507
X020709Y065507
X046167Y102966
X043627Y102966
X039716Y107649
X037176Y107649
X023249Y091508
X020709Y091508
X070832Y066033
X073372Y066033
X077283Y061350
X079823Y061350
X093750Y077491
X096290Y077491
X069832Y092033
X072372Y092033
X076283Y087350
X078823Y087350
X092750Y103491
X095290Y103491
M30