%MOIN*%
%OFA0B0*%
%FSLAX36Y36*%
%IPPOS*%
%LPD*%
%ADD10C,0*%
D10*
X004566928Y000000000D02*
X004566928Y000000000D01*
X004575689Y000000986D01*
X004584010Y000003897D01*
X004591474Y000008588D01*
X004597708Y000014822D01*
X004602400Y000022287D01*
X004605311Y000030608D01*
X004606298Y000039369D01*
X004606298Y004566928D01*
X004605311Y004575689D01*
X004602400Y004584010D01*
X004597708Y004591474D01*
X004591474Y004597708D01*
X004584010Y004602400D01*
X004575689Y004605311D01*
X004566928Y004606298D01*
X000039369Y004606298D01*
X000030608Y004605311D01*
X000022287Y004602400D01*
X000014822Y004597708D01*
X000008588Y004591474D01*
X000003897Y004584010D01*
X000000986Y004575689D01*
X000000000Y004566928D01*
X000000000Y000039369D01*
X000000986Y000030608D01*
X000003897Y000022287D01*
X000008588Y000014822D01*
X000014822Y000008588D01*
X000022287Y000003897D01*
X000030608Y000000986D01*
X000039369Y000000000D01*
X004566928Y000000000D01*
X004096664Y004061640D02*
X004096664Y004061640D01*
X004087077Y004062890D01*
X004144204Y004157709D01*
X004149789Y004149817D01*
X004153999Y004141113D01*
X004156718Y004131834D01*
X004157872Y004122235D01*
X004157428Y004112576D01*
X004155401Y004103122D01*
X004151843Y004094132D01*
X004146854Y004085850D01*
X004140568Y004078503D01*
X004133158Y004072292D01*
X004124827Y004067386D01*
X004115801Y004063919D01*
X004106327Y004061986D01*
X004096664Y004061640D01*
X002556878Y004061640D02*
X002556878Y004061640D01*
X002547215Y004061986D01*
X002537741Y004063919D01*
X002528715Y004067386D01*
X002520384Y004072292D01*
X002512974Y004078503D01*
X002506688Y004085850D01*
X002501699Y004094132D01*
X002498141Y004103122D01*
X002496113Y004112576D01*
X002495670Y004122235D01*
X002496823Y004131834D01*
X002499542Y004141113D01*
X002503753Y004149817D01*
X002509339Y004157709D01*
X002566465Y004062890D01*
X002556878Y004061640D01*
X004087077Y004062890D02*
X004087077Y004062890D01*
X003814945Y004212105D01*
X003827591Y004210544D01*
X003840181Y004208584D01*
X003852703Y004206228D01*
X003865144Y004203479D01*
X003877493Y004200338D01*
X003889736Y004196809D01*
X003901862Y004192895D01*
X003913858Y004188601D01*
X003925713Y004183931D01*
X003937415Y004178889D01*
X003948951Y004173480D01*
X003960311Y004167709D01*
X003971483Y004161583D01*
X003982457Y004155107D01*
X003993221Y004148289D01*
X004003763Y004141134D01*
X004014076Y004133650D01*
X004024146Y004125845D01*
X004033966Y004117725D01*
X004043525Y004109300D01*
X004052813Y004100577D01*
X004061821Y004091566D01*
X004070540Y004082274D01*
X004078962Y004072712D01*
X004087077Y004062890D01*
X002566465Y004062890D02*
X002566465Y004062890D01*
X002574581Y004072712D01*
X002583002Y004082274D01*
X002591722Y004091566D01*
X002600729Y004100577D01*
X002610017Y004109300D01*
X002619576Y004117725D01*
X002629395Y004125845D01*
X002639466Y004133650D01*
X002649778Y004141134D01*
X002660321Y004148289D01*
X002671085Y004155107D01*
X002682058Y004161583D01*
X002693231Y004167709D01*
X002704591Y004173480D01*
X002716127Y004178889D01*
X002727829Y004183931D01*
X002739684Y004188601D01*
X002751680Y004192895D01*
X002763806Y004196809D01*
X002776049Y004200338D01*
X002788398Y004203479D01*
X002800839Y004206228D01*
X002813361Y004208584D01*
X002825951Y004210544D01*
X002838597Y004212105D01*
X002566465Y004062890D01*
X004144107Y004157627D02*
X004144107Y004157627D01*
X003872018Y004306886D01*
X003884662Y004305320D01*
X003897250Y004303356D01*
X003909771Y004300996D01*
X003922211Y004298243D01*
X003934557Y004295099D01*
X003946798Y004291566D01*
X003958922Y004287650D01*
X003970916Y004283353D01*
X003982769Y004278679D01*
X003994468Y004273635D01*
X004006002Y004268223D01*
X004017361Y004262452D01*
X004028531Y004256323D01*
X004039502Y004249847D01*
X004050264Y004243027D01*
X004060805Y004235871D01*
X004071116Y004228387D01*
X004081185Y004220581D01*
X004091003Y004212461D01*
X004100560Y004204035D01*
X004109846Y004195313D01*
X004118853Y004186301D01*
X004127571Y004177010D01*
X004135992Y004167449D01*
X004144107Y004157627D01*
X002509435Y004157627D02*
X002509435Y004157627D01*
X002517550Y004167449D01*
X002525971Y004177010D01*
X002534689Y004186301D01*
X002543696Y004195313D01*
X002552982Y004204035D01*
X002562539Y004212461D01*
X002572357Y004220581D01*
X002582426Y004228387D01*
X002592737Y004235871D01*
X002603278Y004243027D01*
X002614040Y004249847D01*
X002625011Y004256323D01*
X002636181Y004262452D01*
X002647540Y004268223D01*
X002659074Y004273635D01*
X002670773Y004278679D01*
X002682626Y004283353D01*
X002694620Y004287650D01*
X002706743Y004291566D01*
X002718985Y004295099D01*
X002731331Y004298243D01*
X002743771Y004300996D01*
X002756291Y004303356D01*
X002768880Y004305320D01*
X002781524Y004306886D01*
X002509435Y004157627D01*
X003814945Y004212105D02*
X003814945Y004212105D01*
X003809274Y004219977D01*
X003804988Y004228681D01*
X003802203Y004237975D01*
X003800999Y004247603D01*
X003801408Y004257296D01*
X003803420Y004266788D01*
X003806977Y004275814D01*
X003811981Y004284126D01*
X003818296Y004291493D01*
X003825744Y004297710D01*
X003834120Y004302606D01*
X003843192Y004306046D01*
X003852709Y004307933D01*
X003862408Y004308216D01*
X003872018Y004306886D01*
X003814945Y004212105D01*
X002838597Y004212105D02*
X002838597Y004212105D01*
X002781524Y004306886D01*
X002791134Y004308216D01*
X002800833Y004307933D01*
X002810349Y004306046D01*
X002819422Y004302606D01*
X002827798Y004297710D01*
X002835247Y004291493D01*
X002841560Y004284126D01*
X002846565Y004275814D01*
X002850123Y004266788D01*
X002852133Y004257296D01*
X002852542Y004247603D01*
X002851339Y004237975D01*
X002848554Y004228681D01*
X002844268Y004219977D01*
X002838597Y004212105D01*
X004136034Y003038018D02*
X004136034Y003038018D01*
X004126447Y003039268D01*
X004183574Y003134087D01*
X004189159Y003126195D01*
X004193369Y003117491D01*
X004196088Y003108212D01*
X004197242Y003098613D01*
X004196798Y003088954D01*
X004194771Y003079500D01*
X004191213Y003070510D01*
X004186224Y003062228D01*
X004179938Y003054881D01*
X004172528Y003048670D01*
X004164197Y003043764D01*
X004155171Y003040297D01*
X004145697Y003038364D01*
X004136034Y003038018D01*
X002596248Y003038018D02*
X002596248Y003038018D01*
X002586585Y003038364D01*
X002577111Y003040297D01*
X002568085Y003043764D01*
X002559754Y003048670D01*
X002552344Y003054881D01*
X002546059Y003062228D01*
X002541069Y003070510D01*
X002537511Y003079500D01*
X002535483Y003088954D01*
X002535040Y003098613D01*
X002536193Y003108212D01*
X002538912Y003117491D01*
X002543123Y003126195D01*
X002548709Y003134087D01*
X002605835Y003039268D01*
X002596248Y003038018D01*
X004126447Y003039268D02*
X004126447Y003039268D01*
X003854315Y003188483D01*
X003866961Y003186922D01*
X003879551Y003184962D01*
X003892073Y003182606D01*
X003904515Y003179857D01*
X003916863Y003176716D01*
X003929106Y003173187D01*
X003941232Y003169273D01*
X003953228Y003164979D01*
X003965083Y003160309D01*
X003976785Y003155267D01*
X003988321Y003149858D01*
X003999681Y003144087D01*
X004010853Y003137961D01*
X004021827Y003131485D01*
X004032591Y003124667D01*
X004043133Y003117512D01*
X004053446Y003110028D01*
X004063517Y003102222D01*
X004073336Y003094103D01*
X004082895Y003085678D01*
X004092183Y003076955D01*
X004101191Y003067944D01*
X004109910Y003058652D01*
X004118332Y003049090D01*
X004126447Y003039268D01*
X002605835Y003039268D02*
X002605835Y003039268D01*
X002613951Y003049090D01*
X002622372Y003058652D01*
X002631092Y003067944D01*
X002640100Y003076955D01*
X002649387Y003085678D01*
X002658946Y003094103D01*
X002668765Y003102222D01*
X002678836Y003110028D01*
X002689148Y003117512D01*
X002699691Y003124667D01*
X002710455Y003131485D01*
X002721429Y003137961D01*
X002732601Y003144087D01*
X002743961Y003149858D01*
X002755497Y003155267D01*
X002767199Y003160309D01*
X002779054Y003164979D01*
X002791050Y003169273D01*
X002803176Y003173187D01*
X002815419Y003176716D01*
X002827768Y003179857D01*
X002840209Y003182606D01*
X002852731Y003184962D01*
X002865321Y003186922D01*
X002877967Y003188483D01*
X002605835Y003039268D01*
X004183477Y003134005D02*
X004183477Y003134005D01*
X003911388Y003283264D01*
X003924032Y003281698D01*
X003936620Y003279734D01*
X003949141Y003277374D01*
X003961581Y003274621D01*
X003973927Y003271477D01*
X003986168Y003267944D01*
X003998292Y003264027D01*
X004010286Y003259731D01*
X004022139Y003255057D01*
X004033838Y003250013D01*
X004045372Y003244601D01*
X004056731Y003238829D01*
X004067901Y003232701D01*
X004078872Y003226225D01*
X004089634Y003219405D01*
X004100175Y003212249D01*
X004110486Y003204765D01*
X004120555Y003196959D01*
X004130373Y003188839D01*
X004139930Y003180413D01*
X004149216Y003171690D01*
X004158223Y003162679D01*
X004166941Y003153388D01*
X004175362Y003143827D01*
X004183477Y003134005D01*
X002548805Y003134005D02*
X002548805Y003134005D01*
X002556920Y003143827D01*
X002565341Y003153388D01*
X002574059Y003162679D01*
X002583066Y003171690D01*
X002592352Y003180413D01*
X002601909Y003188839D01*
X002611727Y003196959D01*
X002621796Y003204765D01*
X002632107Y003212249D01*
X002642648Y003219405D01*
X002653410Y003226225D01*
X002664381Y003232701D01*
X002675552Y003238829D01*
X002686910Y003244601D01*
X002698444Y003250013D01*
X002710143Y003255057D01*
X002721996Y003259731D01*
X002733990Y003264027D01*
X002746114Y003267944D01*
X002758355Y003271477D01*
X002770702Y003274621D01*
X002783141Y003277374D01*
X002795661Y003279734D01*
X002808250Y003281698D01*
X002820894Y003283264D01*
X002548805Y003134005D01*
X003854316Y003188483D02*
X003854316Y003188483D01*
X003848645Y003196355D01*
X003844358Y003205059D01*
X003841573Y003214353D01*
X003840369Y003223981D01*
X003840778Y003233674D01*
X003842790Y003243166D01*
X003846347Y003252192D01*
X003851352Y003260504D01*
X003857666Y003267871D01*
X003865114Y003274088D01*
X003873490Y003278984D01*
X003882562Y003282424D01*
X003892079Y003284311D01*
X003901778Y003284594D01*
X003911388Y003283264D01*
X003854316Y003188483D01*
X002877967Y003188483D02*
X002877967Y003188483D01*
X002820894Y003283264D01*
X002830505Y003284594D01*
X002840203Y003284311D01*
X002849720Y003282424D01*
X002858792Y003278984D01*
X002867168Y003274088D01*
X002874617Y003267871D01*
X002880930Y003260504D01*
X002885935Y003252192D01*
X002889493Y003243166D01*
X002891503Y003233674D01*
X002891912Y003223981D01*
X002890709Y003214353D01*
X002887924Y003205059D01*
X002883638Y003196355D01*
X002877967Y003188483D01*
X000470264Y003615524D02*
X000470264Y003615524D01*
X000479851Y003614274D01*
X000422724Y003519456D01*
X000417139Y003527348D01*
X000412929Y003536051D01*
X000410210Y003545330D01*
X000409056Y003554930D01*
X000409500Y003564588D01*
X000411527Y003574042D01*
X000415085Y003583033D01*
X000420075Y003591314D01*
X000426360Y003598661D01*
X000433770Y003604873D01*
X000442101Y003609779D01*
X000451127Y003613246D01*
X000460601Y003615178D01*
X000470264Y003615524D01*
X002010051Y003615524D02*
X002010051Y003615524D01*
X002019713Y003615178D01*
X002029187Y003613246D01*
X002038213Y003609779D01*
X002046544Y003604873D01*
X002053954Y003598661D01*
X002060240Y003591314D01*
X002065229Y003583033D01*
X002068787Y003574042D01*
X002070815Y003564588D01*
X002071258Y003554930D01*
X002070105Y003545330D01*
X002067386Y003536051D01*
X002063176Y003527348D01*
X002057589Y003519456D01*
X002000463Y003614274D01*
X002010051Y003615524D01*
X000479851Y003614275D02*
X000479851Y003614275D01*
X000751983Y003465060D01*
X000739337Y003466621D01*
X000726747Y003468580D01*
X000714225Y003470936D01*
X000701784Y003473686D01*
X000689435Y003476826D01*
X000677192Y003480355D01*
X000665066Y003484269D01*
X000653070Y003488563D01*
X000641215Y003493234D01*
X000629513Y003498276D01*
X000617977Y003503685D01*
X000606617Y003509456D01*
X000595445Y003515581D01*
X000584471Y003522057D01*
X000573707Y003528876D01*
X000563165Y003536030D01*
X000552852Y003543514D01*
X000542782Y003551320D01*
X000532962Y003559439D01*
X000523404Y003567865D01*
X000514116Y003576587D01*
X000505107Y003585599D01*
X000496388Y003594890D01*
X000487967Y003604452D01*
X000479851Y003614275D01*
X002000463Y003614275D02*
X002000463Y003614275D01*
X001992347Y003604452D01*
X001983926Y003594890D01*
X001975206Y003585599D01*
X001966199Y003576587D01*
X001956911Y003567865D01*
X001947353Y003559439D01*
X001937533Y003551320D01*
X001927462Y003543514D01*
X001917150Y003536030D01*
X001906607Y003528876D01*
X001895843Y003522057D01*
X001884870Y003515581D01*
X001873697Y003509456D01*
X001862337Y003503685D01*
X001850801Y003498276D01*
X001839099Y003493234D01*
X001827244Y003488563D01*
X001815248Y003484269D01*
X001803122Y003480355D01*
X001790879Y003476826D01*
X001778531Y003473686D01*
X001766089Y003470936D01*
X001753567Y003468580D01*
X001740977Y003466621D01*
X001728331Y003465060D01*
X002000463Y003614275D01*
X000422821Y003519537D02*
X000422821Y003519537D01*
X000694910Y003370279D01*
X000682266Y003371844D01*
X000669678Y003373808D01*
X000657157Y003376168D01*
X000644718Y003378922D01*
X000632371Y003382066D01*
X000620130Y003385598D01*
X000608006Y003389515D01*
X000596012Y003393812D01*
X000584159Y003398485D01*
X000572460Y003403529D01*
X000560926Y003408941D01*
X000549568Y003414713D01*
X000538397Y003420841D01*
X000527426Y003427318D01*
X000516664Y003434137D01*
X000506123Y003441293D01*
X000495812Y003448778D01*
X000485743Y003456584D01*
X000475925Y003464704D01*
X000466368Y003473129D01*
X000457082Y003481852D01*
X000448075Y003490863D01*
X000439357Y003500154D01*
X000430936Y003509715D01*
X000422821Y003519537D01*
X002057493Y003519537D02*
X002057493Y003519537D01*
X002049378Y003509715D01*
X002040957Y003500154D01*
X002032239Y003490863D01*
X002023233Y003481852D01*
X002013946Y003473129D01*
X002004389Y003464704D01*
X001994571Y003456584D01*
X001984502Y003448778D01*
X001974192Y003441293D01*
X001963650Y003434137D01*
X001952888Y003427318D01*
X001941917Y003420841D01*
X001930747Y003414713D01*
X001919388Y003408941D01*
X001907854Y003403529D01*
X001896155Y003398485D01*
X001884302Y003393812D01*
X001872308Y003389515D01*
X001860185Y003385598D01*
X001847943Y003382066D01*
X001835597Y003378922D01*
X001823157Y003376168D01*
X001810637Y003373808D01*
X001798048Y003371844D01*
X001785404Y003370279D01*
X002057493Y003519537D01*
X000751983Y003465060D02*
X000751983Y003465060D01*
X000757654Y003457187D01*
X000761941Y003448483D01*
X000764725Y003439189D01*
X000765929Y003429562D01*
X000765520Y003419868D01*
X000763508Y003410377D01*
X000759951Y003401350D01*
X000754947Y003393038D01*
X000748632Y003385672D01*
X000741184Y003379454D01*
X000732808Y003374558D01*
X000723736Y003371119D01*
X000714219Y003369232D01*
X000704521Y003368949D01*
X000694910Y003370279D01*
X000751983Y003465060D01*
X001728331Y003465060D02*
X001728331Y003465060D01*
X001785404Y003370279D01*
X001775794Y003368949D01*
X001766096Y003369232D01*
X001756579Y003371119D01*
X001747506Y003374558D01*
X001739130Y003379454D01*
X001731682Y003385672D01*
X001725368Y003393038D01*
X001720363Y003401350D01*
X001716806Y003410377D01*
X001714795Y003419868D01*
X001714386Y003429562D01*
X001715590Y003439189D01*
X001718374Y003448483D01*
X001722660Y003457187D01*
X001728331Y003465060D01*
X000470264Y002591902D02*
X000470264Y002591902D01*
X000479851Y002590652D01*
X000422724Y002495834D01*
X000417139Y002503726D01*
X000412929Y002512429D01*
X000410210Y002521708D01*
X000409056Y002531308D01*
X000409500Y002540966D01*
X000411527Y002550420D01*
X000415085Y002559411D01*
X000420075Y002567692D01*
X000426360Y002575039D01*
X000433770Y002581251D01*
X000442101Y002586157D01*
X000451127Y002589624D01*
X000460601Y002591556D01*
X000470264Y002591902D01*
X002010051Y002591902D02*
X002010051Y002591902D01*
X002019713Y002591556D01*
X002029187Y002589624D01*
X002038213Y002586157D01*
X002046544Y002581251D01*
X002053954Y002575039D01*
X002060240Y002567692D01*
X002065229Y002559411D01*
X002068787Y002550420D01*
X002070815Y002540966D01*
X002071258Y002531308D01*
X002070105Y002521708D01*
X002067386Y002512429D01*
X002063176Y002503726D01*
X002057589Y002495834D01*
X002000463Y002590652D01*
X002010051Y002591902D01*
X000479851Y002590653D02*
X000479851Y002590653D01*
X000751983Y002441438D01*
X000739337Y002442999D01*
X000726747Y002444958D01*
X000714225Y002447314D01*
X000701784Y002450064D01*
X000689435Y002453204D01*
X000677192Y002456733D01*
X000665066Y002460647D01*
X000653070Y002464941D01*
X000641215Y002469612D01*
X000629513Y002474654D01*
X000617977Y002480063D01*
X000606617Y002485833D01*
X000595445Y002491959D01*
X000584471Y002498435D01*
X000573707Y002505254D01*
X000563165Y002512408D01*
X000552852Y002519892D01*
X000542782Y002527698D01*
X000532962Y002535817D01*
X000523404Y002544242D01*
X000514116Y002552965D01*
X000505107Y002561977D01*
X000496388Y002571268D01*
X000487967Y002580830D01*
X000479851Y002590653D01*
X002000463Y002590653D02*
X002000463Y002590653D01*
X001992347Y002580830D01*
X001983926Y002571268D01*
X001975206Y002561977D01*
X001966199Y002552965D01*
X001956911Y002544242D01*
X001947353Y002535817D01*
X001937533Y002527698D01*
X001927462Y002519892D01*
X001917150Y002512408D01*
X001906607Y002505254D01*
X001895843Y002498435D01*
X001884870Y002491959D01*
X001873697Y002485833D01*
X001862337Y002480063D01*
X001850801Y002474654D01*
X001839099Y002469612D01*
X001827244Y002464941D01*
X001815248Y002460647D01*
X001803122Y002456733D01*
X001790879Y002453204D01*
X001778531Y002450064D01*
X001766089Y002447314D01*
X001753567Y002444958D01*
X001740977Y002442999D01*
X001728331Y002441438D01*
X002000463Y002590653D01*
X000422821Y002495915D02*
X000422821Y002495915D01*
X000694910Y002346656D01*
X000682266Y002348222D01*
X000669678Y002350186D01*
X000657157Y002352546D01*
X000644718Y002355300D01*
X000632371Y002358444D01*
X000620130Y002361976D01*
X000608006Y002365893D01*
X000596012Y002370190D01*
X000584159Y002374863D01*
X000572460Y002379907D01*
X000560926Y002385319D01*
X000549568Y002391091D01*
X000538397Y002397219D01*
X000527426Y002403696D01*
X000516664Y002410515D01*
X000506123Y002417671D01*
X000495812Y002425156D01*
X000485743Y002432962D01*
X000475925Y002441082D01*
X000466368Y002449507D01*
X000457082Y002458230D01*
X000448075Y002467241D01*
X000439357Y002476532D01*
X000430936Y002486093D01*
X000422821Y002495915D01*
X002057493Y002495915D02*
X002057493Y002495915D01*
X002049378Y002486093D01*
X002040957Y002476532D01*
X002032239Y002467241D01*
X002023233Y002458230D01*
X002013946Y002449507D01*
X002004389Y002441082D01*
X001994571Y002432962D01*
X001984502Y002425156D01*
X001974192Y002417671D01*
X001963650Y002410515D01*
X001952888Y002403696D01*
X001941917Y002397219D01*
X001930747Y002391091D01*
X001919388Y002385319D01*
X001907854Y002379907D01*
X001896155Y002374863D01*
X001884302Y002370190D01*
X001872308Y002365893D01*
X001860185Y002361976D01*
X001847943Y002358444D01*
X001835597Y002355300D01*
X001823157Y002352546D01*
X001810637Y002350186D01*
X001798048Y002348222D01*
X001785404Y002346656D01*
X002057493Y002495915D01*
X000751983Y002441438D02*
X000751983Y002441438D01*
X000757654Y002433565D01*
X000761941Y002424861D01*
X000764725Y002415567D01*
X000765929Y002405940D01*
X000765520Y002396246D01*
X000763508Y002386755D01*
X000759951Y002377728D01*
X000754947Y002369416D01*
X000748632Y002362050D01*
X000741184Y002355832D01*
X000732808Y002350936D01*
X000723736Y002347497D01*
X000714219Y002345610D01*
X000704521Y002345327D01*
X000694910Y002346656D01*
X000751983Y002441438D01*
X001728331Y002441438D02*
X001728331Y002441438D01*
X001785404Y002346656D01*
X001775794Y002345327D01*
X001766096Y002345610D01*
X001756579Y002347497D01*
X001747506Y002350936D01*
X001739130Y002355832D01*
X001731682Y002362050D01*
X001725368Y002369416D01*
X001720363Y002377728D01*
X001716806Y002386755D01*
X001714795Y002396246D01*
X001714386Y002405940D01*
X001715590Y002415567D01*
X001718374Y002424861D01*
X001722660Y002433565D01*
X001728331Y002441438D01*
X004096664Y002014396D02*
X004096664Y002014396D01*
X004087077Y002015646D01*
X004144204Y002110465D01*
X004149789Y002102573D01*
X004153999Y002093869D01*
X004156718Y002084590D01*
X004157872Y002074991D01*
X004157428Y002065332D01*
X004155401Y002055878D01*
X004151843Y002046888D01*
X004146854Y002038606D01*
X004140568Y002031259D01*
X004133158Y002025047D01*
X004124827Y002020142D01*
X004115801Y002016675D01*
X004106327Y002014742D01*
X004096664Y002014396D01*
X002556878Y002014396D02*
X002556878Y002014396D01*
X002547215Y002014742D01*
X002537741Y002016675D01*
X002528715Y002020142D01*
X002520384Y002025047D01*
X002512974Y002031259D01*
X002506688Y002038606D01*
X002501699Y002046888D01*
X002498141Y002055878D01*
X002496113Y002065332D01*
X002495670Y002074991D01*
X002496823Y002084590D01*
X002499542Y002093869D01*
X002503753Y002102573D01*
X002509339Y002110465D01*
X002566465Y002015646D01*
X002556878Y002014396D01*
X004087077Y002015646D02*
X004087077Y002015646D01*
X003814945Y002164861D01*
X003827591Y002163300D01*
X003840181Y002161340D01*
X003852703Y002158984D01*
X003865144Y002156235D01*
X003877493Y002153094D01*
X003889736Y002149565D01*
X003901862Y002145651D01*
X003913858Y002141357D01*
X003925713Y002136687D01*
X003937415Y002131645D01*
X003948951Y002126235D01*
X003960311Y002120465D01*
X003971483Y002114339D01*
X003982457Y002107863D01*
X003993221Y002101045D01*
X004003763Y002093890D01*
X004014076Y002086406D01*
X004024146Y002078600D01*
X004033966Y002070481D01*
X004043525Y002062056D01*
X004052813Y002053333D01*
X004061821Y002044322D01*
X004070540Y002035030D01*
X004078962Y002025468D01*
X004087077Y002015646D01*
X002566465Y002015646D02*
X002566465Y002015646D01*
X002574581Y002025468D01*
X002583002Y002035030D01*
X002591722Y002044322D01*
X002600729Y002053333D01*
X002610017Y002062056D01*
X002619576Y002070481D01*
X002629395Y002078600D01*
X002639466Y002086406D01*
X002649778Y002093890D01*
X002660321Y002101045D01*
X002671085Y002107863D01*
X002682058Y002114339D01*
X002693231Y002120465D01*
X002704591Y002126235D01*
X002716127Y002131645D01*
X002727829Y002136687D01*
X002739684Y002141357D01*
X002751680Y002145651D01*
X002763806Y002149565D01*
X002776049Y002153094D01*
X002788398Y002156235D01*
X002800839Y002158984D01*
X002813361Y002161340D01*
X002825951Y002163300D01*
X002838597Y002164861D01*
X002566465Y002015646D01*
X004144107Y002110383D02*
X004144107Y002110383D01*
X003872018Y002259642D01*
X003884662Y002258076D01*
X003897250Y002256112D01*
X003909771Y002253752D01*
X003922211Y002250999D01*
X003934557Y002247855D01*
X003946798Y002244322D01*
X003958922Y002240405D01*
X003970916Y002236109D01*
X003982769Y002231435D01*
X003994468Y002226391D01*
X004006002Y002220979D01*
X004017361Y002215207D01*
X004028531Y002209079D01*
X004039502Y002202603D01*
X004050264Y002195783D01*
X004060805Y002188627D01*
X004071116Y002181142D01*
X004081185Y002173336D01*
X004091003Y002165217D01*
X004100560Y002156791D01*
X004109846Y002148068D01*
X004118853Y002139057D01*
X004127571Y002129766D01*
X004135992Y002120205D01*
X004144107Y002110383D01*
X002509435Y002110383D02*
X002509435Y002110383D01*
X002517550Y002120205D01*
X002525971Y002129766D01*
X002534689Y002139057D01*
X002543696Y002148068D01*
X002552982Y002156791D01*
X002562539Y002165217D01*
X002572357Y002173336D01*
X002582426Y002181142D01*
X002592737Y002188627D01*
X002603278Y002195783D01*
X002614040Y002202603D01*
X002625011Y002209079D01*
X002636181Y002215207D01*
X002647540Y002220979D01*
X002659074Y002226391D01*
X002670773Y002231435D01*
X002682626Y002236109D01*
X002694620Y002240405D01*
X002706743Y002244322D01*
X002718985Y002247855D01*
X002731331Y002250999D01*
X002743771Y002253752D01*
X002756291Y002256112D01*
X002768880Y002258076D01*
X002781524Y002259642D01*
X002509435Y002110383D01*
X003814945Y002164861D02*
X003814945Y002164861D01*
X003809274Y002172733D01*
X003804988Y002181437D01*
X003802203Y002190731D01*
X003800999Y002200359D01*
X003801408Y002210052D01*
X003803420Y002219544D01*
X003806977Y002228570D01*
X003811981Y002236882D01*
X003818296Y002244249D01*
X003825744Y002250466D01*
X003834120Y002255362D01*
X003843192Y002258802D01*
X003852709Y002260689D01*
X003862408Y002260971D01*
X003872018Y002259642D01*
X003814945Y002164861D01*
X002838597Y002164861D02*
X002838597Y002164861D01*
X002781524Y002259642D01*
X002791134Y002260971D01*
X002800833Y002260689D01*
X002810349Y002258802D01*
X002819422Y002255362D01*
X002827798Y002250466D01*
X002835247Y002244249D01*
X002841560Y002236882D01*
X002846565Y002228570D01*
X002850123Y002219544D01*
X002852133Y002210052D01*
X002852542Y002200359D01*
X002851339Y002190731D01*
X002848554Y002181437D01*
X002844268Y002172733D01*
X002838597Y002164861D01*
X000470264Y001568280D02*
X000470264Y001568280D01*
X000479851Y001567030D01*
X000422724Y001472212D01*
X000417139Y001480104D01*
X000412929Y001488807D01*
X000410210Y001498086D01*
X000409056Y001507686D01*
X000409500Y001517344D01*
X000411527Y001526798D01*
X000415085Y001535789D01*
X000420075Y001544070D01*
X000426360Y001551417D01*
X000433770Y001557629D01*
X000442101Y001562535D01*
X000451127Y001566002D01*
X000460601Y001567934D01*
X000470264Y001568280D01*
X002010051Y001568280D02*
X002010051Y001568280D01*
X002019713Y001567934D01*
X002029187Y001566002D01*
X002038213Y001562535D01*
X002046544Y001557629D01*
X002053954Y001551417D01*
X002060240Y001544070D01*
X002065229Y001535789D01*
X002068787Y001526798D01*
X002070815Y001517344D01*
X002071258Y001507686D01*
X002070105Y001498086D01*
X002067386Y001488807D01*
X002063176Y001480104D01*
X002057589Y001472212D01*
X002000463Y001567030D01*
X002010051Y001568280D01*
X000479851Y001567031D02*
X000479851Y001567031D01*
X000751983Y001417816D01*
X000739337Y001419377D01*
X000726747Y001421336D01*
X000714225Y001423692D01*
X000701784Y001426442D01*
X000689435Y001429582D01*
X000677192Y001433111D01*
X000665066Y001437025D01*
X000653070Y001441319D01*
X000641215Y001445990D01*
X000629513Y001451032D01*
X000617977Y001456441D01*
X000606617Y001462211D01*
X000595445Y001468337D01*
X000584471Y001474813D01*
X000573707Y001481632D01*
X000563165Y001488786D01*
X000552852Y001496270D01*
X000542782Y001504076D01*
X000532962Y001512195D01*
X000523404Y001520620D01*
X000514116Y001529343D01*
X000505107Y001538355D01*
X000496388Y001547646D01*
X000487967Y001557208D01*
X000479851Y001567031D01*
X002000463Y001567031D02*
X002000463Y001567031D01*
X001992347Y001557208D01*
X001983926Y001547646D01*
X001975206Y001538355D01*
X001966199Y001529343D01*
X001956911Y001520620D01*
X001947353Y001512195D01*
X001937533Y001504076D01*
X001927462Y001496270D01*
X001917150Y001488786D01*
X001906607Y001481632D01*
X001895843Y001474813D01*
X001884870Y001468337D01*
X001873697Y001462211D01*
X001862337Y001456441D01*
X001850801Y001451032D01*
X001839099Y001445990D01*
X001827244Y001441319D01*
X001815248Y001437025D01*
X001803122Y001433111D01*
X001790879Y001429582D01*
X001778531Y001426442D01*
X001766089Y001423692D01*
X001753567Y001421336D01*
X001740977Y001419377D01*
X001728331Y001417816D01*
X002000463Y001567031D01*
X000422821Y001472293D02*
X000422821Y001472293D01*
X000694910Y001323034D01*
X000682266Y001324600D01*
X000669678Y001326564D01*
X000657157Y001328924D01*
X000644718Y001331678D01*
X000632371Y001334822D01*
X000620130Y001338354D01*
X000608006Y001342271D01*
X000596012Y001346568D01*
X000584159Y001351241D01*
X000572460Y001356285D01*
X000560926Y001361697D01*
X000549568Y001367469D01*
X000538397Y001373597D01*
X000527426Y001380073D01*
X000516664Y001386893D01*
X000506123Y001394049D01*
X000495812Y001401534D01*
X000485743Y001409340D01*
X000475925Y001417460D01*
X000466368Y001425885D01*
X000457082Y001434608D01*
X000448075Y001443619D01*
X000439357Y001452910D01*
X000430936Y001462471D01*
X000422821Y001472293D01*
X002057493Y001472293D02*
X002057493Y001472293D01*
X002049378Y001462471D01*
X002040957Y001452910D01*
X002032239Y001443619D01*
X002023233Y001434608D01*
X002013946Y001425885D01*
X002004389Y001417460D01*
X001994571Y001409340D01*
X001984502Y001401534D01*
X001974192Y001394049D01*
X001963650Y001386893D01*
X001952888Y001380073D01*
X001941917Y001373597D01*
X001930747Y001367469D01*
X001919388Y001361697D01*
X001907854Y001356285D01*
X001896155Y001351241D01*
X001884302Y001346568D01*
X001872308Y001342271D01*
X001860185Y001338354D01*
X001847943Y001334822D01*
X001835597Y001331678D01*
X001823157Y001328924D01*
X001810637Y001326564D01*
X001798048Y001324600D01*
X001785404Y001323034D01*
X002057493Y001472293D01*
X000751983Y001417816D02*
X000751983Y001417816D01*
X000757654Y001409943D01*
X000761941Y001401239D01*
X000764725Y001391945D01*
X000765929Y001382318D01*
X000765520Y001372624D01*
X000763508Y001363133D01*
X000759951Y001354106D01*
X000754947Y001345794D01*
X000748632Y001338427D01*
X000741184Y001332210D01*
X000732808Y001327314D01*
X000723736Y001323875D01*
X000714219Y001321988D01*
X000704521Y001321705D01*
X000694910Y001323034D01*
X000751983Y001417816D01*
X001728331Y001417816D02*
X001728331Y001417816D01*
X001785404Y001323034D01*
X001775794Y001321705D01*
X001766096Y001321988D01*
X001756579Y001323875D01*
X001747506Y001327314D01*
X001739130Y001332210D01*
X001731682Y001338427D01*
X001725368Y001345794D01*
X001720363Y001354106D01*
X001716806Y001363133D01*
X001714795Y001372624D01*
X001714386Y001382318D01*
X001715590Y001391945D01*
X001718374Y001401239D01*
X001722660Y001409943D01*
X001728331Y001417816D01*
X004096664Y000990774D02*
X004096664Y000990774D01*
X004087077Y000992024D01*
X004144204Y001086842D01*
X004149789Y001078951D01*
X004153999Y001070247D01*
X004156718Y001060968D01*
X004157872Y001051369D01*
X004157428Y001041710D01*
X004155401Y001032256D01*
X004151843Y001023266D01*
X004146854Y001014984D01*
X004140568Y001007637D01*
X004133158Y001001425D01*
X004124827Y000996519D01*
X004115801Y000993053D01*
X004106327Y000991120D01*
X004096664Y000990774D01*
X002556878Y000990774D02*
X002556878Y000990774D01*
X002547215Y000991120D01*
X002537741Y000993053D01*
X002528715Y000996519D01*
X002520384Y001001425D01*
X002512974Y001007637D01*
X002506688Y001014984D01*
X002501699Y001023266D01*
X002498141Y001032256D01*
X002496113Y001041710D01*
X002495670Y001051369D01*
X002496823Y001060968D01*
X002499542Y001070247D01*
X002503753Y001078951D01*
X002509339Y001086842D01*
X002566465Y000992024D01*
X002556878Y000990774D01*
X004087077Y000992024D02*
X004087077Y000992024D01*
X003814945Y001141239D01*
X003827591Y001139678D01*
X003840181Y001137718D01*
X003852703Y001135362D01*
X003865144Y001132613D01*
X003877493Y001129472D01*
X003889736Y001125943D01*
X003901862Y001122029D01*
X003913858Y001117735D01*
X003925713Y001113064D01*
X003937415Y001108022D01*
X003948951Y001102613D01*
X003960311Y001096843D01*
X003971483Y001090717D01*
X003982457Y001084241D01*
X003993221Y001077423D01*
X004003763Y001070268D01*
X004014076Y001062784D01*
X004024146Y001054978D01*
X004033966Y001046859D01*
X004043525Y001038434D01*
X004052813Y001029711D01*
X004061821Y001020700D01*
X004070540Y001011408D01*
X004078962Y001001846D01*
X004087077Y000992024D01*
X002566465Y000992024D02*
X002566465Y000992024D01*
X002574581Y001001846D01*
X002583002Y001011408D01*
X002591722Y001020700D01*
X002600729Y001029711D01*
X002610017Y001038434D01*
X002619576Y001046859D01*
X002629395Y001054978D01*
X002639466Y001062784D01*
X002649778Y001070268D01*
X002660321Y001077423D01*
X002671085Y001084241D01*
X002682058Y001090717D01*
X002693231Y001096843D01*
X002704591Y001102613D01*
X002716127Y001108022D01*
X002727829Y001113064D01*
X002739684Y001117735D01*
X002751680Y001122029D01*
X002763806Y001125943D01*
X002776049Y001129472D01*
X002788398Y001132613D01*
X002800839Y001135362D01*
X002813361Y001137718D01*
X002825951Y001139678D01*
X002838597Y001141239D01*
X002566465Y000992024D01*
X004144107Y001086761D02*
X004144107Y001086761D01*
X003872018Y001236020D01*
X003884662Y001234454D01*
X003897250Y001232490D01*
X003909771Y001230130D01*
X003922211Y001227377D01*
X003934557Y001224233D01*
X003946798Y001220700D01*
X003958922Y001216783D01*
X003970916Y001212487D01*
X003982769Y001207813D01*
X003994468Y001202769D01*
X004006002Y001197357D01*
X004017361Y001191585D01*
X004028531Y001185457D01*
X004039502Y001178981D01*
X004050264Y001172161D01*
X004060805Y001165005D01*
X004071116Y001157520D01*
X004081185Y001149714D01*
X004091003Y001141595D01*
X004100560Y001133169D01*
X004109846Y001124446D01*
X004118853Y001115435D01*
X004127571Y001106144D01*
X004135992Y001096583D01*
X004144107Y001086761D01*
X002509435Y001086761D02*
X002509435Y001086761D01*
X002517550Y001096583D01*
X002525971Y001106144D01*
X002534689Y001115435D01*
X002543696Y001124446D01*
X002552982Y001133169D01*
X002562539Y001141595D01*
X002572357Y001149714D01*
X002582426Y001157520D01*
X002592737Y001165005D01*
X002603278Y001172161D01*
X002614040Y001178981D01*
X002625011Y001185457D01*
X002636181Y001191585D01*
X002647540Y001197357D01*
X002659074Y001202769D01*
X002670773Y001207813D01*
X002682626Y001212487D01*
X002694620Y001216783D01*
X002706743Y001220700D01*
X002718985Y001224233D01*
X002731331Y001227377D01*
X002743771Y001230130D01*
X002756291Y001232490D01*
X002768880Y001234454D01*
X002781524Y001236020D01*
X002509435Y001086761D01*
X003814945Y001141239D02*
X003814945Y001141239D01*
X003809274Y001149111D01*
X003804988Y001157815D01*
X003802203Y001167109D01*
X003800999Y001176737D01*
X003801408Y001186430D01*
X003803420Y001195922D01*
X003806977Y001204948D01*
X003811981Y001213260D01*
X003818296Y001220627D01*
X003825744Y001226844D01*
X003834120Y001231740D01*
X003843192Y001235180D01*
X003852709Y001237066D01*
X003862408Y001237349D01*
X003872018Y001236020D01*
X003814945Y001141239D01*
X002838597Y001141239D02*
X002838597Y001141239D01*
X002781524Y001236020D01*
X002791134Y001237349D01*
X002800833Y001237066D01*
X002810349Y001235180D01*
X002819422Y001231740D01*
X002827798Y001226844D01*
X002835247Y001220627D01*
X002841560Y001213260D01*
X002846565Y001204948D01*
X002850123Y001195922D01*
X002852133Y001186430D01*
X002852542Y001176737D01*
X002851339Y001167109D01*
X002848554Y001157815D01*
X002844268Y001149111D01*
X002838597Y001141239D01*
X000470264Y000544658D02*
X000470264Y000544658D01*
X000479851Y000543408D01*
X000422724Y000448590D01*
X000417139Y000456481D01*
X000412929Y000465185D01*
X000410210Y000474464D01*
X000409056Y000484064D01*
X000409500Y000493722D01*
X000411527Y000503176D01*
X000415085Y000512166D01*
X000420075Y000520448D01*
X000426360Y000527795D01*
X000433770Y000534007D01*
X000442101Y000538913D01*
X000451127Y000542379D01*
X000460601Y000544312D01*
X000470264Y000544658D01*
X002010051Y000544658D02*
X002010051Y000544658D01*
X002019713Y000544312D01*
X002029187Y000542379D01*
X002038213Y000538913D01*
X002046544Y000534007D01*
X002053954Y000527795D01*
X002060240Y000520448D01*
X002065229Y000512166D01*
X002068787Y000503176D01*
X002070815Y000493722D01*
X002071258Y000484064D01*
X002070105Y000474464D01*
X002067386Y000465185D01*
X002063176Y000456481D01*
X002057589Y000448590D01*
X002000463Y000543408D01*
X002010051Y000544658D01*
X000479851Y000543409D02*
X000479851Y000543409D01*
X000751983Y000394193D01*
X000739337Y000395755D01*
X000726747Y000397714D01*
X000714225Y000400070D01*
X000701784Y000402820D01*
X000689435Y000405960D01*
X000677192Y000409489D01*
X000665066Y000413403D01*
X000653070Y000417697D01*
X000641215Y000422368D01*
X000629513Y000427410D01*
X000617977Y000432819D01*
X000606617Y000438589D01*
X000595445Y000444715D01*
X000584471Y000451191D01*
X000573707Y000458009D01*
X000563165Y000465164D01*
X000552852Y000472648D01*
X000542782Y000480454D01*
X000532962Y000488573D01*
X000523404Y000496998D01*
X000514116Y000505721D01*
X000505107Y000514733D01*
X000496388Y000524024D01*
X000487967Y000533586D01*
X000479851Y000543409D01*
X002000463Y000543409D02*
X002000463Y000543409D01*
X001992347Y000533586D01*
X001983926Y000524024D01*
X001975206Y000514733D01*
X001966199Y000505721D01*
X001956911Y000496998D01*
X001947353Y000488573D01*
X001937533Y000480454D01*
X001927462Y000472648D01*
X001917150Y000465164D01*
X001906607Y000458009D01*
X001895843Y000451191D01*
X001884870Y000444715D01*
X001873697Y000438589D01*
X001862337Y000432819D01*
X001850801Y000427410D01*
X001839099Y000422368D01*
X001827244Y000417697D01*
X001815248Y000413403D01*
X001803122Y000409489D01*
X001790879Y000405960D01*
X001778531Y000402820D01*
X001766089Y000400070D01*
X001753567Y000397714D01*
X001740977Y000395755D01*
X001728331Y000394193D01*
X002000463Y000543409D01*
X000422821Y000448671D02*
X000422821Y000448671D01*
X000694910Y000299412D01*
X000682266Y000300978D01*
X000669678Y000302942D01*
X000657157Y000305302D01*
X000644718Y000308056D01*
X000632371Y000311199D01*
X000620130Y000314732D01*
X000608006Y000318649D01*
X000596012Y000322945D01*
X000584159Y000327619D01*
X000572460Y000332663D01*
X000560926Y000338075D01*
X000549568Y000343847D01*
X000538397Y000349975D01*
X000527426Y000356451D01*
X000516664Y000363271D01*
X000506123Y000370427D01*
X000495812Y000377912D01*
X000485743Y000385718D01*
X000475925Y000393838D01*
X000466368Y000402263D01*
X000457082Y000410986D01*
X000448075Y000419997D01*
X000439357Y000429288D01*
X000430936Y000438849D01*
X000422821Y000448671D01*
X002057493Y000448671D02*
X002057493Y000448671D01*
X002049378Y000438849D01*
X002040957Y000429288D01*
X002032239Y000419997D01*
X002023233Y000410986D01*
X002013946Y000402263D01*
X002004389Y000393838D01*
X001994571Y000385718D01*
X001984502Y000377912D01*
X001974192Y000370427D01*
X001963650Y000363271D01*
X001952888Y000356451D01*
X001941917Y000349975D01*
X001930747Y000343847D01*
X001919388Y000338075D01*
X001907854Y000332663D01*
X001896155Y000327619D01*
X001884302Y000322945D01*
X001872308Y000318649D01*
X001860185Y000314732D01*
X001847943Y000311199D01*
X001835597Y000308056D01*
X001823157Y000305302D01*
X001810637Y000302942D01*
X001798048Y000300978D01*
X001785404Y000299412D01*
X002057493Y000448671D01*
X000751983Y000394193D02*
X000751983Y000394193D01*
X000757654Y000386321D01*
X000761941Y000377617D01*
X000764725Y000368323D01*
X000765929Y000358695D01*
X000765520Y000349002D01*
X000763508Y000339511D01*
X000759951Y000330484D01*
X000754947Y000322172D01*
X000748632Y000314805D01*
X000741184Y000308588D01*
X000732808Y000303692D01*
X000723736Y000300253D01*
X000714219Y000298366D01*
X000704521Y000298083D01*
X000694910Y000299412D01*
X000751983Y000394193D01*
X001728331Y000394193D02*
X001728331Y000394193D01*
X001785404Y000299412D01*
X001775794Y000298083D01*
X001766096Y000298366D01*
X001756579Y000300253D01*
X001747506Y000303692D01*
X001739130Y000308588D01*
X001731682Y000314805D01*
X001725368Y000322172D01*
X001720363Y000330484D01*
X001716806Y000339511D01*
X001714795Y000349002D01*
X001714386Y000358695D01*
X001715590Y000368323D01*
X001718374Y000377617D01*
X001722660Y000386321D01*
X001728331Y000394193D01*
X000196849Y002867260D02*
X000196849Y002867260D01*
X000196849Y003707542D01*
X000196895Y003709448D01*
X000197034Y003711349D01*
X000197264Y003713241D01*
X000197585Y003715120D01*
X000197997Y003716981D01*
X000198499Y003718819D01*
X000199089Y003720632D01*
X000199766Y003722414D01*
X000200528Y003724161D01*
X000201375Y003725869D01*
X000202303Y003727534D01*
X000203310Y003729152D01*
X000204394Y003730719D01*
X000205553Y003732232D01*
X000206784Y003733688D01*
X000208084Y003735082D01*
X000209450Y003736411D01*
X000210879Y003737673D01*
X000212367Y003738864D01*
X000213911Y003739982D01*
X000264441Y003774730D01*
X000268090Y003776958D01*
X000271960Y003778777D01*
X000276004Y003780166D01*
X000280174Y003781108D01*
X000284423Y003781592D01*
X000288698Y003781612D01*
X000292951Y003781169D01*
X000297131Y003780267D01*
X000301188Y003778917D01*
X000305074Y003777136D01*
X000308745Y003774943D01*
X000312156Y003772365D01*
X000315268Y003769432D01*
X000318043Y003766180D01*
X000320449Y003762645D01*
X000322458Y003758871D01*
X000324045Y003754900D01*
X000325193Y003750782D01*
X000325887Y003746563D01*
X000326119Y003742293D01*
X000326127Y003629930D01*
X000308490Y003629930D01*
X000313131Y003618255D01*
X000318071Y003606702D01*
X000323306Y003595280D01*
X000328832Y003583996D01*
X000334645Y003572858D01*
X000340741Y003561872D01*
X000347118Y003551046D01*
X000353770Y003540387D01*
X000360693Y003529902D01*
X000367882Y003519598D01*
X000375334Y003509482D01*
X000383043Y003499560D01*
X000391002Y003489839D01*
X000399210Y003480326D01*
X000407658Y003471026D01*
X000416341Y003461945D01*
X000425255Y003453090D01*
X000434393Y003444467D01*
X000443749Y003436081D01*
X000453316Y003427937D01*
X000463090Y003420041D01*
X000473062Y003412399D01*
X000483228Y003405015D01*
X000493579Y003397894D01*
X000504110Y003391040D01*
X000514813Y003384459D01*
X000525680Y003378154D01*
X000536706Y003372131D01*
X000547884Y003366391D01*
X000559204Y003360940D01*
X000570661Y003355782D01*
X000582245Y003350918D01*
X000593951Y003346354D01*
X000605770Y003342091D01*
X000617695Y003338132D01*
X000629717Y003334481D01*
X000641828Y003331139D01*
X000654022Y003328108D01*
X000666288Y003325391D01*
X000678621Y003322990D01*
X000691011Y003320906D01*
X000703451Y003319139D01*
X000715932Y003317693D01*
X000728445Y003316566D01*
X000740984Y003315762D01*
X000753539Y003315279D01*
X000766102Y003315118D01*
X000936102Y003315117D01*
X000936102Y003545118D01*
X001183556Y003545118D01*
X001187085Y003544959D01*
X001190587Y003544485D01*
X001194031Y003543698D01*
X001197391Y003542606D01*
X001200640Y003541218D01*
X001203751Y003539543D01*
X001206700Y003537597D01*
X001209462Y003535394D01*
X001212015Y003532952D01*
X001214339Y003530291D01*
X001216416Y003527432D01*
X001218228Y003524399D01*
X001219760Y003521215D01*
X001221001Y003517907D01*
X001221940Y003514501D01*
X001222571Y003511025D01*
X001222887Y003507506D01*
X001222886Y003503973D01*
X001222568Y003500454D01*
X001221937Y003496978D01*
X001177395Y003302038D01*
X001176718Y003299476D01*
X001175871Y003296966D01*
X001174856Y003294518D01*
X001173679Y003292144D01*
X001172345Y003289854D01*
X001170861Y003287660D01*
X001169231Y003285570D01*
X001167465Y003283595D01*
X001165570Y003281743D01*
X001163555Y003280022D01*
X001161429Y003278441D01*
X001159201Y003277007D01*
X001156882Y003275725D01*
X001154481Y003274603D01*
X001152011Y003273645D01*
X001149482Y003272855D01*
X001146905Y003272236D01*
X001144293Y003271793D01*
X001141656Y003271526D01*
X001139008Y003271438D01*
X000766102Y003271496D01*
X000753530Y003271334D01*
X000740966Y003270850D01*
X000728419Y003270045D01*
X000715897Y003268916D01*
X000703407Y003267468D01*
X000690960Y003265699D01*
X000678560Y003263612D01*
X000666220Y003261207D01*
X000653944Y003258487D01*
X000641743Y003255452D01*
X000629623Y003252106D01*
X000617594Y003248449D01*
X000605662Y003244485D01*
X000593836Y003240216D01*
X000582123Y003235645D01*
X000570532Y003230775D01*
X000559068Y003225609D01*
X000547742Y003220151D01*
X000536559Y003214404D01*
X000525527Y003208372D01*
X000514654Y003202059D01*
X000503946Y003195469D01*
X000493411Y003188607D01*
X000483056Y003181476D01*
X000472887Y003174083D01*
X000462910Y003166430D01*
X000453134Y003158524D01*
X000443563Y003150370D01*
X000434205Y003141973D01*
X000425066Y003133339D01*
X000416151Y003124474D01*
X000407466Y003115382D01*
X000399017Y003106070D01*
X000390811Y003096545D01*
X000382851Y003086812D01*
X000375143Y003076879D01*
X000367693Y003066750D01*
X000360505Y003056435D01*
X000353585Y003045937D01*
X000346936Y003035266D01*
X000340563Y003024428D01*
X000334470Y003013430D01*
X000328661Y003002279D01*
X000323140Y002990983D01*
X000317912Y002979549D01*
X000312978Y002967984D01*
X000308342Y002956297D01*
X000326102Y002956299D01*
X000326111Y002832519D01*
X000325879Y002828249D01*
X000325185Y002824029D01*
X000324038Y002819910D01*
X000322451Y002815939D01*
X000320443Y002812164D01*
X000318037Y002808629D01*
X000315262Y002805376D01*
X000312150Y002802443D01*
X000308739Y002799865D01*
X000305068Y002797672D01*
X000301181Y002795890D01*
X000297124Y002794539D01*
X000292944Y002793637D01*
X000288691Y002793194D01*
X000284415Y002793214D01*
X000280167Y002793698D01*
X000275996Y002794640D01*
X000271951Y002796029D01*
X000268082Y002797848D01*
X000264432Y002800076D01*
X000213910Y002834821D01*
X000212366Y002835939D01*
X000210878Y002837130D01*
X000209450Y002838391D01*
X000208084Y002839721D01*
X000206784Y002841115D01*
X000205553Y002842570D01*
X000204394Y002844083D01*
X000203310Y002845651D01*
X000202302Y002847269D01*
X000201374Y002848934D01*
X000200528Y002850642D01*
X000199766Y002852389D01*
X000199089Y002854171D01*
X000198499Y002855983D01*
X000197997Y002857822D01*
X000197585Y002859683D01*
X000197264Y002861562D01*
X000197034Y002863454D01*
X000196895Y002865355D01*
X000196849Y002867260D01*
X000196849Y000820016D02*
X000196849Y000820016D01*
X000196849Y001620928D01*
X000196895Y001622833D01*
X000197034Y001624734D01*
X000197264Y001626626D01*
X000197585Y001628505D01*
X000197997Y001630366D01*
X000198499Y001632205D01*
X000199089Y001634018D01*
X000199766Y001635799D01*
X000200528Y001637546D01*
X000201375Y001639254D01*
X000202302Y001640919D01*
X000203310Y001642537D01*
X000204394Y001644105D01*
X000205553Y001645618D01*
X000206784Y001647073D01*
X000208084Y001648467D01*
X000209450Y001649797D01*
X000210878Y001651058D01*
X000212366Y001652250D01*
X000213910Y001653367D01*
X000264443Y001688119D01*
X000268093Y001690347D01*
X000271962Y001692166D01*
X000276006Y001693555D01*
X000280177Y001694497D01*
X000284425Y001694981D01*
X000288701Y001695001D01*
X000292953Y001694558D01*
X000297133Y001693656D01*
X000301190Y001692307D01*
X000305077Y001690525D01*
X000308748Y001688332D01*
X000312159Y001685754D01*
X000315270Y001682822D01*
X000318046Y001679569D01*
X000320452Y001676034D01*
X000322460Y001672260D01*
X000324048Y001668290D01*
X000325195Y001664171D01*
X000325890Y001659952D01*
X000326122Y001655682D01*
X000326127Y001582686D01*
X000308490Y001582686D01*
X000313131Y001571010D01*
X000318071Y001559458D01*
X000323306Y001548036D01*
X000328832Y001536752D01*
X000334645Y001525614D01*
X000340741Y001514628D01*
X000347118Y001503802D01*
X000353770Y001493143D01*
X000360693Y001482658D01*
X000367882Y001472354D01*
X000375334Y001462238D01*
X000383043Y001452316D01*
X000391002Y001442595D01*
X000399210Y001433082D01*
X000407658Y001423781D01*
X000416341Y001414701D01*
X000425255Y001405846D01*
X000434393Y001397223D01*
X000443749Y001388836D01*
X000453316Y001380693D01*
X000463090Y001372797D01*
X000473062Y001365155D01*
X000483228Y001357771D01*
X000493579Y001350650D01*
X000504110Y001343796D01*
X000514813Y001337215D01*
X000525680Y001330910D01*
X000536706Y001324887D01*
X000547884Y001319147D01*
X000559204Y001313696D01*
X000570661Y001308538D01*
X000582245Y001303674D01*
X000593951Y001299110D01*
X000605770Y001294847D01*
X000617695Y001290888D01*
X000629717Y001287237D01*
X000641828Y001283894D01*
X000654022Y001280864D01*
X000666288Y001278147D01*
X000678621Y001275746D01*
X000691011Y001273661D01*
X000703451Y001271895D01*
X000715932Y001270449D01*
X000728445Y001269322D01*
X000740984Y001268518D01*
X000753539Y001268035D01*
X000766102Y001267874D01*
X000936102Y001267873D01*
X000936102Y001497873D01*
X001144186Y001497873D01*
X001147715Y001497715D01*
X001151217Y001497241D01*
X001154661Y001496454D01*
X001158021Y001495362D01*
X001161270Y001493973D01*
X001164381Y001492299D01*
X001167330Y001490352D01*
X001170092Y001488149D01*
X001172645Y001485707D01*
X001174970Y001483046D01*
X001177046Y001480187D01*
X001178858Y001477154D01*
X001180390Y001473971D01*
X001181631Y001470663D01*
X001182570Y001467256D01*
X001183201Y001463780D01*
X001183517Y001460261D01*
X001183516Y001456728D01*
X001183198Y001453209D01*
X001182566Y001449733D01*
X001138021Y001254799D01*
X001137344Y001252237D01*
X001136496Y001249727D01*
X001135481Y001247279D01*
X001134304Y001244905D01*
X001132971Y001242616D01*
X001131486Y001240421D01*
X001129856Y001238332D01*
X001128090Y001236356D01*
X001126195Y001234504D01*
X001124180Y001232784D01*
X001122054Y001231203D01*
X001119826Y001229768D01*
X001117507Y001228487D01*
X001115106Y001227365D01*
X001112636Y001226407D01*
X001110107Y001225617D01*
X001107530Y001224998D01*
X001104918Y001224555D01*
X001102282Y001224288D01*
X001099634Y001224200D01*
X001099634Y001224200D01*
X000766102Y001224251D01*
X000753530Y001224090D01*
X000740966Y001223606D01*
X000728419Y001222800D01*
X000715897Y001221672D01*
X000703407Y001220224D01*
X000690960Y001218455D01*
X000678560Y001216368D01*
X000666220Y001213963D01*
X000653944Y001211242D01*
X000641743Y001208208D01*
X000629623Y001204861D01*
X000617594Y001201205D01*
X000605662Y001197240D01*
X000593836Y001192972D01*
X000582123Y001188401D01*
X000570532Y001183531D01*
X000559068Y001178365D01*
X000547742Y001172907D01*
X000536559Y001167160D01*
X000525527Y001161128D01*
X000514654Y001154815D01*
X000503946Y001148225D01*
X000493411Y001141363D01*
X000483056Y001134232D01*
X000472887Y001126839D01*
X000462910Y001119186D01*
X000453134Y001111280D01*
X000443563Y001103126D01*
X000434205Y001094729D01*
X000425066Y001086095D01*
X000416151Y001077229D01*
X000407466Y001068138D01*
X000399017Y001058826D01*
X000390811Y001049301D01*
X000382851Y001039568D01*
X000375143Y001029635D01*
X000367693Y001019506D01*
X000360505Y001009191D01*
X000353585Y000998693D01*
X000346936Y000988022D01*
X000340563Y000977184D01*
X000334470Y000966186D01*
X000328661Y000955035D01*
X000323140Y000943739D01*
X000317912Y000932305D01*
X000312978Y000920740D01*
X000308342Y000909053D01*
X000326102Y000909054D01*
X000326111Y000785274D01*
X000325879Y000781005D01*
X000325185Y000776785D01*
X000324038Y000772666D01*
X000322451Y000768695D01*
X000320443Y000764920D01*
X000318037Y000761385D01*
X000315262Y000758132D01*
X000312150Y000755199D01*
X000308739Y000752621D01*
X000305068Y000750428D01*
X000301181Y000748645D01*
X000297124Y000747295D01*
X000292944Y000746393D01*
X000288691Y000745950D01*
X000284415Y000745970D01*
X000280167Y000746454D01*
X000275996Y000747396D01*
X000271951Y000748785D01*
X000268082Y000750604D01*
X000264432Y000752832D01*
X000213910Y000787577D01*
X000212366Y000788694D01*
X000210878Y000789886D01*
X000209450Y000791147D01*
X000208084Y000792477D01*
X000206784Y000793871D01*
X000205553Y000795326D01*
X000204394Y000796839D01*
X000203310Y000798407D01*
X000202302Y000800025D01*
X000201374Y000801690D01*
X000200528Y000803398D01*
X000199766Y000805145D01*
X000199089Y000806926D01*
X000198499Y000808739D01*
X000197997Y000810578D01*
X000197585Y000812439D01*
X000197264Y000814317D01*
X000197034Y000816210D01*
X000196895Y000818111D01*
X000196849Y000820016D01*
X004409447Y001683618D02*
X004409447Y001683618D01*
X004409447Y000875436D01*
X004409344Y000872596D01*
X004409037Y000869770D01*
X004408527Y000866973D01*
X004407816Y000864221D01*
X004406908Y000861527D01*
X004405809Y000858906D01*
X004404523Y000856371D01*
X004403057Y000853935D01*
X004401420Y000851611D01*
X004399619Y000849412D01*
X004397664Y000847348D01*
X004395566Y000845431D01*
X004393334Y000843670D01*
X004390982Y000842075D01*
X004388520Y000840653D01*
X004385962Y000839413D01*
X004383321Y000838361D01*
X004380612Y000837502D01*
X004377847Y000836841D01*
X004375042Y000836381D01*
X004285144Y000824952D01*
X004281816Y000824672D01*
X004278476Y000824675D01*
X004275148Y000824960D01*
X004271857Y000825527D01*
X004268625Y000826371D01*
X004265477Y000827486D01*
X004262435Y000828863D01*
X004259520Y000830494D01*
X004256753Y000832365D01*
X004254156Y000834465D01*
X004251745Y000836777D01*
X004249540Y000839285D01*
X004247555Y000841970D01*
X004245804Y000844815D01*
X004244301Y000847797D01*
X004243056Y000850897D01*
X004242079Y000854090D01*
X004241375Y000857355D01*
X004240951Y000860668D01*
X004240809Y000864005D01*
X004240801Y000976368D01*
X004258439Y000976368D01*
X004253797Y000988044D01*
X004248857Y000999596D01*
X004243622Y001011018D01*
X004238096Y001022302D01*
X004232284Y001033440D01*
X004226187Y001044426D01*
X004219810Y001055252D01*
X004213158Y001065911D01*
X004206235Y001076396D01*
X004199046Y001086700D01*
X004191594Y001096817D01*
X004183886Y001106738D01*
X004175926Y001116459D01*
X004167718Y001125973D01*
X004159270Y001135273D01*
X004150587Y001144353D01*
X004141673Y001153208D01*
X004132536Y001161831D01*
X004123180Y001170218D01*
X004113612Y001178361D01*
X004103838Y001186257D01*
X004093866Y001193899D01*
X004083700Y001201283D01*
X004073349Y001208405D01*
X004062818Y001215258D01*
X004052115Y001221839D01*
X004041248Y001228144D01*
X004030222Y001234168D01*
X004019044Y001239907D01*
X004007724Y001245358D01*
X003996267Y001250516D01*
X003984683Y001255380D01*
X003972977Y001259944D01*
X003961158Y001264207D01*
X003949234Y001268166D01*
X003937212Y001271817D01*
X003925100Y001275160D01*
X003912906Y001278190D01*
X003900640Y001280907D01*
X003888307Y001283308D01*
X003875917Y001285393D01*
X003863477Y001287159D01*
X003850996Y001288605D01*
X003838483Y001289732D01*
X003825944Y001290537D01*
X003813390Y001291020D01*
X003800826Y001291181D01*
X003630827Y001291181D01*
X003630827Y001061181D01*
X003422742Y001061181D01*
X003419213Y001061339D01*
X003415712Y001061814D01*
X003412267Y001062600D01*
X003408907Y001063692D01*
X003405658Y001065081D01*
X003402547Y001066755D01*
X003399598Y001068702D01*
X003396836Y001070905D01*
X003394283Y001073347D01*
X003391958Y001076008D01*
X003389882Y001078867D01*
X003388070Y001081900D01*
X003386538Y001085083D01*
X003385297Y001088392D01*
X003384358Y001091798D01*
X003383728Y001095274D01*
X003383412Y001098793D01*
X003383412Y001102326D01*
X003383730Y001105845D01*
X003384362Y001109321D01*
X003428908Y001304255D01*
X003429584Y001306817D01*
X003430432Y001309327D01*
X003431447Y001311775D01*
X003432624Y001314149D01*
X003433958Y001316438D01*
X003435443Y001318633D01*
X003437072Y001320723D01*
X003438838Y001322698D01*
X003440733Y001324550D01*
X003442748Y001326270D01*
X003444874Y001327851D01*
X003447102Y001329286D01*
X003449421Y001330567D01*
X003451822Y001331689D01*
X003454292Y001332648D01*
X003456821Y001333438D01*
X003459398Y001334056D01*
X003462010Y001334499D01*
X003464646Y001334766D01*
X003467294Y001334855D01*
X003800826Y001334803D01*
X003813399Y001334964D01*
X003825962Y001335448D01*
X003838509Y001336254D01*
X003851031Y001337382D01*
X003863521Y001338830D01*
X003875969Y001340599D01*
X003888368Y001342686D01*
X003900708Y001345091D01*
X003912984Y001347812D01*
X003925185Y001350846D01*
X003937305Y001354193D01*
X003949334Y001357849D01*
X003961266Y001361814D01*
X003973093Y001366083D01*
X003984805Y001370654D01*
X003996397Y001375523D01*
X004007860Y001380689D01*
X004019186Y001386147D01*
X004030369Y001391894D01*
X004041401Y001397926D01*
X004052274Y001404239D01*
X004062982Y001410829D01*
X004073517Y001417691D01*
X004083873Y001424822D01*
X004094041Y001432216D01*
X004104018Y001439868D01*
X004113794Y001447774D01*
X004123365Y001455928D01*
X004132723Y001464325D01*
X004141863Y001472959D01*
X004150778Y001481825D01*
X004159462Y001490917D01*
X004167911Y001500228D01*
X004176117Y001509753D01*
X004184077Y001519486D01*
X004191785Y001529419D01*
X004199235Y001539548D01*
X004206423Y001549864D01*
X004213343Y001560361D01*
X004219992Y001571032D01*
X004226365Y001581870D01*
X004232458Y001592868D01*
X004238267Y001604019D01*
X004243788Y001615315D01*
X004249017Y001626750D01*
X004253950Y001638314D01*
X004258586Y001650001D01*
X004240826Y001650000D01*
X004240823Y001695033D01*
X004240964Y001698370D01*
X004241388Y001701683D01*
X004242091Y001704948D01*
X004243068Y001708142D01*
X004244313Y001711241D01*
X004245815Y001714224D01*
X004247566Y001717069D01*
X004249551Y001719755D01*
X004251756Y001722263D01*
X004254166Y001724576D01*
X004256764Y001726675D01*
X004259530Y001728547D01*
X004262444Y001730178D01*
X004265487Y001731556D01*
X004268635Y001732671D01*
X004271867Y001733515D01*
X004275158Y001734083D01*
X004278486Y001734369D01*
X004281826Y001734372D01*
X004285154Y001734092D01*
X004375038Y001722674D01*
X004377844Y001722214D01*
X004380608Y001721553D01*
X004383318Y001720694D01*
X004385959Y001719642D01*
X004388517Y001718402D01*
X004390979Y001716981D01*
X004393332Y001715386D01*
X004395564Y001713625D01*
X004397663Y001711707D01*
X004399618Y001709644D01*
X004401419Y001707444D01*
X004403057Y001705120D01*
X004404522Y001702684D01*
X004405808Y001700149D01*
X004406908Y001697528D01*
X004407816Y001694834D01*
X004408527Y001692081D01*
X004409037Y001689285D01*
X004409344Y001686459D01*
X004409447Y001683618D01*
X004409447Y002762659D02*
X004409447Y002762659D01*
X004409447Y001859688D01*
X004409344Y001856847D01*
X004409037Y001854022D01*
X004408527Y001851225D01*
X004407816Y001848473D01*
X004406908Y001845779D01*
X004405809Y001843158D01*
X004404523Y001840622D01*
X004403057Y001838187D01*
X004401420Y001835863D01*
X004399619Y001833664D01*
X004397664Y001831600D01*
X004395565Y001829682D01*
X004393334Y001827921D01*
X004390981Y001826326D01*
X004388519Y001824905D01*
X004385961Y001823665D01*
X004383320Y001822612D01*
X004380611Y001821754D01*
X004377846Y001821092D01*
X004375041Y001820632D01*
X004285146Y001809207D01*
X004281818Y001808927D01*
X004278478Y001808930D01*
X004275150Y001809216D01*
X004271859Y001809783D01*
X004268627Y001810627D01*
X004265479Y001811741D01*
X004262437Y001813119D01*
X004259522Y001814749D01*
X004256756Y001816621D01*
X004254158Y001818720D01*
X004251748Y001821032D01*
X004249542Y001823540D01*
X004247557Y001826226D01*
X004245807Y001829071D01*
X004244304Y001832053D01*
X004243059Y001835152D01*
X004242081Y001838346D01*
X004241378Y001841611D01*
X004240954Y001844923D01*
X004240812Y001848260D01*
X004240801Y001999990D01*
X004258439Y001999990D01*
X004253797Y002011666D01*
X004248857Y002023218D01*
X004243622Y002034640D01*
X004238096Y002045924D01*
X004232284Y002057062D01*
X004226187Y002068048D01*
X004219810Y002078874D01*
X004213158Y002089533D01*
X004206235Y002100018D01*
X004199046Y002110322D01*
X004191594Y002120439D01*
X004183886Y002130360D01*
X004175926Y002140081D01*
X004167718Y002149595D01*
X004159270Y002158895D01*
X004150587Y002167975D01*
X004141673Y002176830D01*
X004132536Y002185453D01*
X004123180Y002193840D01*
X004113612Y002201983D01*
X004103838Y002209879D01*
X004093866Y002217521D01*
X004083700Y002224905D01*
X004073349Y002232027D01*
X004062818Y002238880D01*
X004052115Y002245461D01*
X004041248Y002251766D01*
X004030222Y002257790D01*
X004019044Y002263529D01*
X004007724Y002268980D01*
X003996267Y002274138D01*
X003984683Y002279002D01*
X003972977Y002283566D01*
X003961158Y002287829D01*
X003949234Y002291788D01*
X003937212Y002295440D01*
X003925100Y002298782D01*
X003912906Y002301812D01*
X003900640Y002304529D01*
X003888307Y002306930D01*
X003875917Y002309015D01*
X003863477Y002310781D01*
X003850996Y002312227D01*
X003838483Y002313354D01*
X003825944Y002314159D01*
X003813390Y002314642D01*
X003800826Y002314803D01*
X003630827Y002314803D01*
X003630827Y002084803D01*
X003423822Y002084803D01*
X003421064Y002084899D01*
X003418320Y002085189D01*
X003415603Y002085670D01*
X003412926Y002086340D01*
X003410303Y002087197D01*
X003407746Y002088234D01*
X003405268Y002089449D01*
X003402881Y002090834D01*
X003400598Y002092382D01*
X003398428Y002094087D01*
X003396383Y002095940D01*
X003394473Y002097931D01*
X003392707Y002100051D01*
X003391093Y002102290D01*
X003389641Y002104636D01*
X003388356Y002107078D01*
X003387246Y002109605D01*
X003386316Y002112202D01*
X003385569Y002114859D01*
X003385011Y002117561D01*
X003351800Y002312513D01*
X003351372Y002315910D01*
X003351241Y002319331D01*
X003351408Y002322750D01*
X003351871Y002326142D01*
X003352627Y002329481D01*
X003353671Y002332742D01*
X003354993Y002335899D01*
X003356585Y002338930D01*
X003358435Y002341811D01*
X003360527Y002344521D01*
X003362847Y002347038D01*
X003365377Y002349345D01*
X003368098Y002351423D01*
X003370989Y002353256D01*
X003374028Y002354832D01*
X003377193Y002356138D01*
X003380459Y002357163D01*
X003383802Y002357901D01*
X003387197Y002358346D01*
X003390617Y002358495D01*
X003840196Y002358425D01*
X003852769Y002358586D01*
X003865332Y002359070D01*
X003877879Y002359876D01*
X003890401Y002361004D01*
X003902891Y002362452D01*
X003915339Y002364221D01*
X003927738Y002366308D01*
X003940078Y002368713D01*
X003952354Y002371434D01*
X003964555Y002374468D01*
X003976675Y002377815D01*
X003988704Y002381471D01*
X004000636Y002385436D01*
X004012463Y002389705D01*
X004024175Y002394276D01*
X004035767Y002399145D01*
X004047230Y002404311D01*
X004058556Y002409769D01*
X004069739Y002415516D01*
X004080771Y002421548D01*
X004091644Y002427861D01*
X004102352Y002434451D01*
X004112887Y002441313D01*
X004123243Y002448444D01*
X004133411Y002455838D01*
X004143388Y002463490D01*
X004153164Y002471396D01*
X004162735Y002479550D01*
X004172093Y002487947D01*
X004181233Y002496581D01*
X004190148Y002505447D01*
X004198833Y002514539D01*
X004207281Y002523850D01*
X004215487Y002533375D01*
X004223447Y002543108D01*
X004231155Y002553042D01*
X004238605Y002563170D01*
X004245793Y002573486D01*
X004252714Y002583983D01*
X004259363Y002594654D01*
X004265735Y002605492D01*
X004271828Y002616490D01*
X004277637Y002627641D01*
X004283158Y002638937D01*
X004288387Y002650372D01*
X004293321Y002661936D01*
X004297956Y002673623D01*
X004280196Y002673622D01*
X004280187Y002797402D01*
X004280419Y002801672D01*
X004281113Y002805891D01*
X004282260Y002810010D01*
X004283847Y002813981D01*
X004285855Y002817756D01*
X004288261Y002821291D01*
X004291037Y002824544D01*
X004294148Y002827477D01*
X004297560Y002830056D01*
X004301230Y002832249D01*
X004305117Y002834031D01*
X004309175Y002835381D01*
X004313355Y002836283D01*
X004317608Y002836726D01*
X004321884Y002836706D01*
X004326132Y002836222D01*
X004330303Y002835280D01*
X004334348Y002833891D01*
X004338218Y002832072D01*
X004341867Y002829843D01*
X004392387Y002795098D01*
X004393931Y002793980D01*
X004395419Y002792789D01*
X004396847Y002791527D01*
X004398213Y002790198D01*
X004399513Y002788804D01*
X004400744Y002787349D01*
X004401903Y002785836D01*
X004402987Y002784268D01*
X004403994Y002782650D01*
X004404922Y002780985D01*
X004405768Y002779277D01*
X004406531Y002777530D01*
X004407208Y002775749D01*
X004407798Y002773936D01*
X004408299Y002772097D01*
X004408711Y002770237D01*
X004409033Y002768358D01*
X004409263Y002766466D01*
X004409401Y002764565D01*
X004409447Y002762659D01*
X004409447Y003770232D02*
X004409447Y003770232D01*
X004409447Y002985371D01*
X004409401Y002983466D01*
X004409263Y002981565D01*
X004409033Y002979673D01*
X004408711Y002977794D01*
X004408299Y002975933D01*
X004407798Y002974094D01*
X004407208Y002972282D01*
X004406531Y002970500D01*
X004405768Y002968753D01*
X004404922Y002967045D01*
X004403994Y002965380D01*
X004402987Y002963762D01*
X004401903Y002962195D01*
X004400744Y002960682D01*
X004399513Y002959226D01*
X004398213Y002957832D01*
X004396847Y002956503D01*
X004395419Y002955241D01*
X004393931Y002954050D01*
X004392387Y002952932D01*
X004341856Y002918180D01*
X004338207Y002915952D01*
X004334337Y002914133D01*
X004330293Y002912744D01*
X004326122Y002911802D01*
X004321874Y002911317D01*
X004317598Y002911297D01*
X004313346Y002911740D01*
X004309166Y002912642D01*
X004305109Y002913991D01*
X004301222Y002915773D01*
X004297551Y002917966D01*
X004294140Y002920544D01*
X004291028Y002923476D01*
X004288253Y002926729D01*
X004285847Y002930264D01*
X004283838Y002934038D01*
X004282250Y002938008D01*
X004281103Y002942127D01*
X004280409Y002946346D01*
X004280176Y002950616D01*
X004280171Y003023612D01*
X004297809Y003023612D01*
X004293167Y003035288D01*
X004288227Y003046840D01*
X004282992Y003058262D01*
X004277466Y003069546D01*
X004271654Y003080684D01*
X004265557Y003091670D01*
X004259180Y003102496D01*
X004252528Y003113155D01*
X004245605Y003123640D01*
X004238416Y003133945D01*
X004230964Y003144061D01*
X004223256Y003153982D01*
X004215296Y003163703D01*
X004207089Y003173217D01*
X004198640Y003182517D01*
X004189957Y003191598D01*
X004181043Y003200452D01*
X004171906Y003209075D01*
X004162550Y003217462D01*
X004152982Y003225605D01*
X004143208Y003233501D01*
X004133236Y003241144D01*
X004123070Y003248528D01*
X004112719Y003255649D01*
X004102189Y003262502D01*
X004091485Y003269083D01*
X004080618Y003275388D01*
X004069592Y003281412D01*
X004058414Y003287151D01*
X004047094Y003292602D01*
X004035637Y003297761D01*
X004024053Y003302624D01*
X004012347Y003307189D01*
X004000528Y003311451D01*
X003988604Y003315410D01*
X003976582Y003319062D01*
X003964470Y003322404D01*
X003952276Y003325434D01*
X003940010Y003328151D01*
X003927677Y003330553D01*
X003915287Y003332637D01*
X003902848Y003334403D01*
X003890367Y003335850D01*
X003877853Y003336976D01*
X003865314Y003337781D01*
X003852760Y003338264D01*
X003840196Y003338425D01*
X003670197Y003338425D01*
X003670197Y003108425D01*
X003422742Y003108425D01*
X003419213Y003108583D01*
X003415712Y003109058D01*
X003412267Y003109844D01*
X003408907Y003110936D01*
X003405658Y003112325D01*
X003402547Y003113999D01*
X003399598Y003115946D01*
X003396836Y003118149D01*
X003394283Y003120591D01*
X003391958Y003123252D01*
X003389882Y003126111D01*
X003388070Y003129144D01*
X003386538Y003132328D01*
X003385297Y003135636D01*
X003384358Y003139042D01*
X003383728Y003142518D01*
X003383412Y003146037D01*
X003383412Y003149570D01*
X003383730Y003153089D01*
X003384362Y003156566D01*
X003428908Y003351499D01*
X003429584Y003354061D01*
X003430432Y003356571D01*
X003431447Y003359019D01*
X003432624Y003361393D01*
X003433958Y003363683D01*
X003435443Y003365877D01*
X003437072Y003367967D01*
X003438838Y003369942D01*
X003440733Y003371794D01*
X003442748Y003373514D01*
X003444874Y003375095D01*
X003447102Y003376530D01*
X003449421Y003377811D01*
X003451822Y003378933D01*
X003454292Y003379892D01*
X003456821Y003380682D01*
X003459398Y003381300D01*
X003462010Y003381743D01*
X003464646Y003382010D01*
X003467294Y003382099D01*
X003800826Y003382047D01*
X003813399Y003382208D01*
X003825962Y003382692D01*
X003838509Y003383498D01*
X003851031Y003384626D01*
X003863521Y003386074D01*
X003875969Y003387843D01*
X003888368Y003389930D01*
X003900708Y003392335D01*
X003912984Y003395056D01*
X003925185Y003398090D01*
X003937305Y003401437D01*
X003949334Y003405093D01*
X003961266Y003409058D01*
X003973093Y003413327D01*
X003984805Y003417898D01*
X003996397Y003422767D01*
X004007860Y003427933D01*
X004019186Y003433391D01*
X004030369Y003439138D01*
X004041401Y003445170D01*
X004052274Y003451483D01*
X004062982Y003458073D01*
X004073517Y003464935D01*
X004083873Y003472066D01*
X004094041Y003479460D01*
X004104018Y003487112D01*
X004113794Y003495018D01*
X004123365Y003503172D01*
X004132723Y003511569D01*
X004141863Y003520203D01*
X004150778Y003529069D01*
X004159462Y003538161D01*
X004167911Y003547472D01*
X004176117Y003556997D01*
X004184077Y003566730D01*
X004191785Y003576664D01*
X004199235Y003586792D01*
X004206423Y003597108D01*
X004213343Y003607605D01*
X004219992Y003618276D01*
X004226365Y003629114D01*
X004232458Y003640112D01*
X004238267Y003651263D01*
X004243788Y003662559D01*
X004249017Y003673994D01*
X004253950Y003685558D01*
X004258586Y003697245D01*
X004240826Y003697244D01*
X004240820Y003781650D01*
X004240961Y003784987D01*
X004241385Y003788300D01*
X004242088Y003791566D01*
X004243066Y003794760D01*
X004244310Y003797859D01*
X004245813Y003800842D01*
X004247563Y003803687D01*
X004249548Y003806373D01*
X004251754Y003808881D01*
X004254164Y003811194D01*
X004256761Y003813293D01*
X004259527Y003815165D01*
X004262442Y003816796D01*
X004265485Y003818174D01*
X004268633Y003819289D01*
X004271865Y003820133D01*
X004275157Y003820700D01*
X004278484Y003820986D01*
X004281824Y003820989D01*
X004285153Y003820709D01*
X004375040Y003809288D01*
X004377845Y003808828D01*
X004380610Y003808167D01*
X004383319Y003807308D01*
X004385960Y003806256D01*
X004388518Y003805016D01*
X004390980Y003803595D01*
X004393333Y003801999D01*
X004395565Y003800238D01*
X004397663Y003798321D01*
X004399618Y003796257D01*
X004401419Y003794058D01*
X004403057Y003791734D01*
X004404522Y003789298D01*
X004405808Y003786763D01*
X004406908Y003784142D01*
X004407816Y003781448D01*
X004408527Y003778695D01*
X004409037Y003775899D01*
X004409344Y003773073D01*
X004409447Y003770232D01*
X004409447Y000236219D02*
X004409447Y000236219D01*
X004408460Y000227458D01*
X004405548Y000219137D01*
X004400858Y000211672D01*
X004394624Y000205438D01*
X004387159Y000200748D01*
X004378839Y000197836D01*
X004370077Y000196849D01*
X003438489Y000196849D01*
X003435483Y000196964D01*
X003432495Y000197308D01*
X003429541Y000197879D01*
X003426640Y000198674D01*
X003423808Y000199689D01*
X003421062Y000200916D01*
X003418417Y000202350D01*
X003415890Y000203981D01*
X003413495Y000205801D01*
X003411245Y000207798D01*
X003409155Y000209961D01*
X003407235Y000212277D01*
X003405499Y000214733D01*
X003403954Y000217315D01*
X003402612Y000220007D01*
X003401479Y000222793D01*
X003400562Y000225658D01*
X003399866Y000228585D01*
X003399396Y000231556D01*
X003399154Y000234555D01*
X003397645Y000270202D01*
X003397639Y000273377D01*
X003397889Y000276542D01*
X003398393Y000279677D01*
X003399147Y000282761D01*
X003400148Y000285774D01*
X003401388Y000288696D01*
X003402860Y000291509D01*
X003404554Y000294195D01*
X003406458Y000296735D01*
X003408561Y000299113D01*
X003410849Y000301315D01*
X003413307Y000303324D01*
X003415918Y000305130D01*
X003418667Y000306719D01*
X003421535Y000308081D01*
X003424503Y000309208D01*
X003427552Y000310092D01*
X003430663Y000310727D01*
X003433814Y000311110D01*
X003436986Y000311237D01*
X003436986Y000311237D01*
X003800826Y000311181D01*
X003813399Y000311342D01*
X003825962Y000311826D01*
X003838509Y000312632D01*
X003851031Y000313760D01*
X003863521Y000315208D01*
X003875969Y000316977D01*
X003888368Y000319064D01*
X003900708Y000321469D01*
X003912984Y000324190D01*
X003925185Y000327224D01*
X003937305Y000330571D01*
X003949334Y000334227D01*
X003961266Y000338192D01*
X003973093Y000342460D01*
X003984805Y000347032D01*
X003996397Y000351901D01*
X004007860Y000357067D01*
X004019186Y000362525D01*
X004030369Y000368272D01*
X004041401Y000374304D01*
X004052274Y000380617D01*
X004062982Y000387207D01*
X004073517Y000394069D01*
X004083873Y000401200D01*
X004094041Y000408594D01*
X004104018Y000416246D01*
X004113794Y000424152D01*
X004123365Y000432306D01*
X004132723Y000440703D01*
X004141863Y000449337D01*
X004150778Y000458203D01*
X004159462Y000467295D01*
X004167911Y000476606D01*
X004176117Y000486131D01*
X004184077Y000495864D01*
X004191785Y000505797D01*
X004199235Y000515926D01*
X004206423Y000526241D01*
X004213343Y000536739D01*
X004219992Y000547410D01*
X004226365Y000558248D01*
X004232458Y000569246D01*
X004238267Y000580397D01*
X004243788Y000591693D01*
X004249017Y000603127D01*
X004253950Y000614692D01*
X004258586Y000626379D01*
X004240826Y000626378D01*
X004240820Y000710784D01*
X004240961Y000714121D01*
X004241385Y000717434D01*
X004242088Y000720700D01*
X004243066Y000723893D01*
X004244310Y000726993D01*
X004245813Y000729976D01*
X004247563Y000732821D01*
X004249548Y000735507D01*
X004251754Y000738015D01*
X004254164Y000740327D01*
X004256761Y000742427D01*
X004259527Y000744299D01*
X004262442Y000745930D01*
X004265485Y000747308D01*
X004268633Y000748423D01*
X004271865Y000749267D01*
X004275157Y000749834D01*
X004278484Y000750120D01*
X004281824Y000750123D01*
X004285153Y000749843D01*
X004375040Y000738422D01*
X004377845Y000737962D01*
X004380610Y000737301D01*
X004383319Y000736442D01*
X004385960Y000735390D01*
X004388518Y000734150D01*
X004390980Y000732728D01*
X004393333Y000731133D01*
X004395565Y000729372D01*
X004397663Y000727455D01*
X004399618Y000725391D01*
X004401419Y000723192D01*
X004403057Y000720868D01*
X004404522Y000718432D01*
X004405808Y000715897D01*
X004406908Y000713276D01*
X004407816Y000710582D01*
X004408527Y000707829D01*
X004409037Y000705033D01*
X004409344Y000702207D01*
X004409447Y000699366D01*
X004409447Y000236219D01*
X000196849Y004370077D02*
X000196849Y004370077D01*
X000197836Y004378839D01*
X000200748Y004387159D01*
X000205438Y004394624D01*
X000211672Y004400858D01*
X000219137Y004405548D01*
X000227458Y004408460D01*
X000236219Y004409447D01*
X001148486Y004409447D01*
X001150565Y004409392D01*
X001152638Y004409228D01*
X001154700Y004408954D01*
X001156744Y004408571D01*
X001158765Y004408082D01*
X001160758Y004407486D01*
X001162716Y004406786D01*
X001164634Y004405983D01*
X001166508Y004405080D01*
X001168331Y004404080D01*
X001170099Y004402984D01*
X001171807Y004401797D01*
X001173449Y004400521D01*
X001175022Y004399161D01*
X001176521Y004397719D01*
X001177941Y004396200D01*
X001179279Y004394608D01*
X001180532Y004392948D01*
X001181695Y004391224D01*
X001182765Y004389441D01*
X001202905Y004353789D01*
X001204734Y004350116D01*
X001206171Y004346273D01*
X001207200Y004342302D01*
X001207810Y004338245D01*
X001207995Y004334146D01*
X001207752Y004330051D01*
X001207084Y004326002D01*
X001205999Y004322046D01*
X001204508Y004318224D01*
X001202627Y004314577D01*
X001200377Y004311147D01*
X001197782Y004307969D01*
X001194870Y004305078D01*
X001191673Y004302506D01*
X001188227Y004300281D01*
X001184567Y004298427D01*
X001180734Y004296963D01*
X001176770Y004295907D01*
X001172717Y004295268D01*
X001168620Y004295055D01*
X000766102Y004295118D01*
X000753530Y004294956D01*
X000740966Y004294472D01*
X000728419Y004293667D01*
X000715897Y004292538D01*
X000703407Y004291090D01*
X000690960Y004289321D01*
X000678560Y004287234D01*
X000666220Y004284829D01*
X000653944Y004282109D01*
X000641743Y004279074D01*
X000629623Y004275728D01*
X000617594Y004272071D01*
X000605662Y004268107D01*
X000593836Y004263838D01*
X000582123Y004259267D01*
X000570532Y004254397D01*
X000559068Y004249231D01*
X000547742Y004243773D01*
X000536559Y004238026D01*
X000525527Y004231994D01*
X000514654Y004225681D01*
X000503946Y004219091D01*
X000493411Y004212229D01*
X000483056Y004205098D01*
X000472887Y004197705D01*
X000462910Y004190052D01*
X000453134Y004182146D01*
X000443563Y004173992D01*
X000434205Y004165595D01*
X000425066Y004156961D01*
X000416151Y004148096D01*
X000407466Y004139004D01*
X000399017Y004129692D01*
X000390811Y004120167D01*
X000382851Y004110434D01*
X000375143Y004100501D01*
X000367693Y004090372D01*
X000360505Y004080057D01*
X000353585Y004069559D01*
X000346936Y004058888D01*
X000340563Y004048050D01*
X000334470Y004037052D01*
X000328661Y004025901D01*
X000323140Y004014605D01*
X000317912Y004003171D01*
X000312978Y003991606D01*
X000308342Y003979919D01*
X000326102Y003979921D01*
X000326108Y003895514D01*
X000325876Y003891244D01*
X000325183Y003887025D01*
X000324036Y003882906D01*
X000322448Y003878935D01*
X000320440Y003875160D01*
X000318034Y003871625D01*
X000315259Y003868372D01*
X000312148Y003865439D01*
X000308737Y003862860D01*
X000305066Y003860667D01*
X000301179Y003858885D01*
X000297122Y003857535D01*
X000292942Y003856633D01*
X000288689Y003856189D01*
X000284413Y003856210D01*
X000280164Y003856694D01*
X000275993Y003857636D01*
X000271949Y003859024D01*
X000268079Y003860843D01*
X000264430Y003863071D01*
X000213911Y003897812D01*
X000212367Y003898930D01*
X000210879Y003900121D01*
X000209450Y003901383D01*
X000208084Y003902713D01*
X000206784Y003904107D01*
X000205553Y003905562D01*
X000204394Y003907075D01*
X000203310Y003908643D01*
X000202302Y003910261D01*
X000201375Y003911926D01*
X000200528Y003913634D01*
X000199766Y003915381D01*
X000199089Y003917162D01*
X000198499Y003918975D01*
X000197997Y003920814D01*
X000197585Y003922675D01*
X000197264Y003924554D01*
X000197034Y003926446D01*
X000196895Y003928347D01*
X000196849Y003930252D01*
X000196849Y004370077D01*
X004240801Y004047234D02*
X004240801Y004047234D01*
X004258439Y004047234D01*
X004253797Y004058910D01*
X004248857Y004070462D01*
X004243622Y004081884D01*
X004238096Y004093168D01*
X004232284Y004104306D01*
X004226187Y004115293D01*
X004219810Y004126118D01*
X004213158Y004136777D01*
X004206235Y004147262D01*
X004199046Y004157567D01*
X004191594Y004167683D01*
X004183886Y004177604D01*
X004175926Y004187325D01*
X004167718Y004196839D01*
X004159270Y004206139D01*
X004150587Y004215220D01*
X004141673Y004224074D01*
X004132536Y004232697D01*
X004123180Y004241084D01*
X004113612Y004249227D01*
X004103838Y004257123D01*
X004093866Y004264766D01*
X004083700Y004272150D01*
X004073349Y004279271D01*
X004062818Y004286124D01*
X004052115Y004292705D01*
X004041248Y004299010D01*
X004030222Y004305034D01*
X004019044Y004310773D01*
X004007724Y004316224D01*
X003996267Y004321383D01*
X003984683Y004326246D01*
X003972977Y004330811D01*
X003961158Y004335073D01*
X003949234Y004339032D01*
X003937212Y004342684D01*
X003925100Y004346026D01*
X003912906Y004349056D01*
X003900640Y004351773D01*
X003888307Y004354175D01*
X003875917Y004356259D01*
X003863477Y004358025D01*
X003850996Y004359472D01*
X003838483Y004360598D01*
X003825944Y004361403D01*
X003813390Y004361886D01*
X003800826Y004362047D01*
X003630827Y004362047D01*
X003630827Y004132047D01*
X003422742Y004132047D01*
X003419246Y004132202D01*
X003415778Y004132668D01*
X003412365Y004133439D01*
X003409033Y004134511D01*
X003405810Y004135874D01*
X003402721Y004137518D01*
X003399790Y004139430D01*
X003397040Y004141594D01*
X003394494Y004143994D01*
X003392170Y004146611D01*
X003390088Y004149424D01*
X003388264Y004152410D01*
X003386713Y004155547D01*
X003385446Y004158809D01*
X003384473Y004162171D01*
X003383804Y004165605D01*
X003383441Y004169086D01*
X003383390Y004172585D01*
X003383649Y004176075D01*
X003384217Y004179528D01*
X003426042Y004378188D01*
X003426684Y004380793D01*
X003427502Y004383349D01*
X003428492Y004385842D01*
X003429649Y004388263D01*
X003430969Y004390599D01*
X003432445Y004392840D01*
X003434070Y004394975D01*
X003435837Y004396994D01*
X003437737Y004398889D01*
X003439761Y004400649D01*
X003441901Y004402268D01*
X003444147Y004403737D01*
X003446487Y004405050D01*
X003448911Y004406200D01*
X003451407Y004407183D01*
X003453965Y004407993D01*
X003456572Y004408627D01*
X003459217Y004409082D01*
X003461886Y004409356D01*
X003464567Y004409447D01*
X004370077Y004409447D01*
X004378839Y004408460D01*
X004387159Y004405548D01*
X004394624Y004400858D01*
X004400858Y004394624D01*
X004405548Y004387159D01*
X004408460Y004378839D01*
X004409447Y004370077D01*
X004409447Y003946302D01*
X004409344Y003943462D01*
X004409037Y003940636D01*
X004408527Y003937839D01*
X004407816Y003935087D01*
X004406908Y003932393D01*
X004405809Y003929772D01*
X004404523Y003927237D01*
X004403057Y003924801D01*
X004401420Y003922478D01*
X004399619Y003920278D01*
X004397664Y003918214D01*
X004395566Y003916297D01*
X004393334Y003914536D01*
X004390982Y003912941D01*
X004388520Y003911519D01*
X004385962Y003910279D01*
X004383321Y003909227D01*
X004380612Y003908368D01*
X004377847Y003907707D01*
X004375042Y003907247D01*
X004285144Y003895818D01*
X004281816Y003895538D01*
X004278476Y003895541D01*
X004275148Y003895827D01*
X004271857Y003896393D01*
X004268625Y003897237D01*
X004265477Y003898352D01*
X004262435Y003899729D01*
X004259520Y003901360D01*
X004256753Y003903232D01*
X004254156Y003905331D01*
X004251745Y003907643D01*
X004249540Y003910151D01*
X004247555Y003912837D01*
X004245804Y003915681D01*
X004244301Y003918664D01*
X004243056Y003921763D01*
X004242079Y003924956D01*
X004241375Y003928221D01*
X004240951Y003931534D01*
X004240809Y003934871D01*
X004240801Y004047234D01*
X000326122Y002679304D02*
X000326122Y002679304D01*
X000326127Y002606308D01*
X000308490Y002606308D01*
X000313131Y002594633D01*
X000318071Y002583080D01*
X000323306Y002571658D01*
X000328832Y002560374D01*
X000334645Y002549236D01*
X000340741Y002538250D01*
X000347118Y002527424D01*
X000353770Y002516765D01*
X000360693Y002506280D01*
X000367882Y002495976D01*
X000375334Y002485860D01*
X000383043Y002475938D01*
X000391002Y002466217D01*
X000399210Y002456704D01*
X000407658Y002447404D01*
X000416341Y002438323D01*
X000425255Y002429468D01*
X000434393Y002420845D01*
X000443749Y002412459D01*
X000453316Y002404315D01*
X000463090Y002396419D01*
X000473062Y002388777D01*
X000483228Y002381393D01*
X000493579Y002374272D01*
X000504110Y002367418D01*
X000514813Y002360837D01*
X000525680Y002354532D01*
X000536706Y002348509D01*
X000547884Y002342769D01*
X000559204Y002337318D01*
X000570661Y002332160D01*
X000582245Y002327296D01*
X000593951Y002322732D01*
X000605770Y002318469D01*
X000617695Y002314510D01*
X000629717Y002310859D01*
X000641828Y002307516D01*
X000654022Y002304486D01*
X000666288Y002301769D01*
X000678621Y002299368D01*
X000691011Y002297283D01*
X000703451Y002295517D01*
X000715932Y002294071D01*
X000728445Y002292944D01*
X000740984Y002292140D01*
X000753539Y002291657D01*
X000766102Y002291496D01*
X000936102Y002291495D01*
X000936102Y002521495D01*
X001144186Y002521495D01*
X001147715Y002521337D01*
X001151217Y002520863D01*
X001154661Y002520076D01*
X001158021Y002518984D01*
X001161270Y002517595D01*
X001164381Y002515921D01*
X001167330Y002513974D01*
X001170092Y002511771D01*
X001172645Y002509329D01*
X001174970Y002506668D01*
X001177046Y002503810D01*
X001178858Y002500776D01*
X001180390Y002497593D01*
X001181631Y002494285D01*
X001182570Y002490879D01*
X001183201Y002487402D01*
X001183517Y002483883D01*
X001183516Y002480350D01*
X001183198Y002476831D01*
X001182566Y002473355D01*
X001138021Y002278421D01*
X001137344Y002275859D01*
X001136496Y002273349D01*
X001135481Y002270901D01*
X001134304Y002268527D01*
X001132971Y002266238D01*
X001131486Y002264043D01*
X001129856Y002261954D01*
X001128090Y002259978D01*
X001126195Y002258126D01*
X001124180Y002256406D01*
X001122054Y002254825D01*
X001119826Y002253391D01*
X001117507Y002252109D01*
X001115106Y002250987D01*
X001112636Y002250029D01*
X001110107Y002249239D01*
X001107530Y002248620D01*
X001104918Y002248177D01*
X001102282Y002247910D01*
X001099634Y002247822D01*
X000766102Y002247874D01*
X000753530Y002247712D01*
X000740966Y002247228D01*
X000728419Y002246422D01*
X000715897Y002245294D01*
X000703407Y002243846D01*
X000690960Y002242077D01*
X000678560Y002239990D01*
X000666220Y002237585D01*
X000653944Y002234865D01*
X000641743Y002231830D01*
X000629623Y002228483D01*
X000617594Y002224827D01*
X000605662Y002220862D01*
X000593836Y002216594D01*
X000582123Y002212023D01*
X000570532Y002207153D01*
X000559068Y002201987D01*
X000547742Y002196529D01*
X000536559Y002190782D01*
X000525527Y002184750D01*
X000514654Y002178437D01*
X000503946Y002171847D01*
X000493411Y002164985D01*
X000483056Y002157854D01*
X000472887Y002150461D01*
X000462910Y002142808D01*
X000453134Y002134902D01*
X000443563Y002126748D01*
X000434205Y002118351D01*
X000425066Y002109717D01*
X000416151Y002100852D01*
X000407466Y002091760D01*
X000399017Y002082448D01*
X000390811Y002072923D01*
X000382851Y002063190D01*
X000375143Y002053257D01*
X000367693Y002043128D01*
X000360505Y002032813D01*
X000353585Y002022315D01*
X000346936Y002011644D01*
X000340563Y002000806D01*
X000334470Y001989808D01*
X000328661Y001978657D01*
X000323140Y001967361D01*
X000317912Y001955927D01*
X000312978Y001944362D01*
X000308342Y001932675D01*
X000326102Y001932677D01*
X000326111Y001808897D01*
X000325879Y001804627D01*
X000325185Y001800407D01*
X000324038Y001796288D01*
X000322451Y001792317D01*
X000320443Y001788542D01*
X000318037Y001785007D01*
X000315262Y001781754D01*
X000312150Y001778821D01*
X000308739Y001776243D01*
X000305068Y001774050D01*
X000301181Y001772268D01*
X000297124Y001770917D01*
X000292944Y001770015D01*
X000288691Y001769572D01*
X000284415Y001769592D01*
X000280167Y001770076D01*
X000275996Y001771018D01*
X000271951Y001772407D01*
X000268082Y001774226D01*
X000264432Y001776454D01*
X000213910Y001811199D01*
X000212366Y001812316D01*
X000210878Y001813508D01*
X000209450Y001814769D01*
X000208084Y001816099D01*
X000206784Y001817493D01*
X000205553Y001818948D01*
X000204394Y001820461D01*
X000203310Y001822029D01*
X000202302Y001823647D01*
X000201374Y001825312D01*
X000200528Y001827020D01*
X000199766Y001828767D01*
X000199089Y001830548D01*
X000198499Y001832361D01*
X000197997Y001834200D01*
X000197585Y001836061D01*
X000197264Y001837939D01*
X000197034Y001839832D01*
X000196895Y001841733D01*
X000196849Y001843638D01*
X000196849Y002644550D01*
X000196895Y002646455D01*
X000197034Y002648356D01*
X000197264Y002650249D01*
X000197585Y002652127D01*
X000197997Y002653988D01*
X000198499Y002655827D01*
X000199089Y002657640D01*
X000199766Y002659421D01*
X000200528Y002661168D01*
X000201375Y002662876D01*
X000202302Y002664541D01*
X000203310Y002666159D01*
X000204394Y002667727D01*
X000205553Y002669240D01*
X000206784Y002670695D01*
X000208084Y002672089D01*
X000209450Y002673419D01*
X000210878Y002674680D01*
X000212366Y002675872D01*
X000213910Y002676989D01*
X000264443Y002711741D01*
X000268093Y002713969D01*
X000271962Y002715788D01*
X000276006Y002717177D01*
X000280177Y002718119D01*
X000284425Y002718603D01*
X000288701Y002718623D01*
X000292953Y002718180D01*
X000297133Y002717278D01*
X000301190Y002715929D01*
X000305077Y002714147D01*
X000308748Y002711954D01*
X000312159Y002709376D01*
X000315270Y002706444D01*
X000318046Y002703191D01*
X000320452Y002699657D01*
X000322460Y002695882D01*
X000324048Y002691912D01*
X000325195Y002687793D01*
X000325890Y002683574D01*
X000326122Y002679304D01*
X000326127Y000559064D02*
X000326127Y000559064D01*
X000308490Y000559064D01*
X000313131Y000547388D01*
X000318071Y000535836D01*
X000323306Y000524414D01*
X000328832Y000513130D01*
X000334645Y000501992D01*
X000340741Y000491006D01*
X000347118Y000480180D01*
X000353770Y000469521D01*
X000360693Y000459036D01*
X000367882Y000448732D01*
X000375334Y000438615D01*
X000383043Y000428694D01*
X000391002Y000418973D01*
X000399210Y000409459D01*
X000407658Y000400159D01*
X000416341Y000391079D01*
X000425255Y000382224D01*
X000434393Y000373601D01*
X000443749Y000365214D01*
X000453316Y000357071D01*
X000463090Y000349175D01*
X000473062Y000341533D01*
X000483228Y000334149D01*
X000493579Y000327027D01*
X000504110Y000320174D01*
X000514813Y000313593D01*
X000525680Y000307288D01*
X000536706Y000301264D01*
X000547884Y000295525D01*
X000559204Y000290074D01*
X000570661Y000284916D01*
X000582245Y000280052D01*
X000593951Y000275488D01*
X000605770Y000271225D01*
X000617695Y000267266D01*
X000629717Y000263615D01*
X000641828Y000260272D01*
X000654022Y000257242D01*
X000666288Y000254525D01*
X000678621Y000252124D01*
X000691011Y000250039D01*
X000703451Y000248273D01*
X000715932Y000246827D01*
X000728445Y000245700D01*
X000740984Y000244896D01*
X000753539Y000244413D01*
X000766102Y000244252D01*
X000936102Y000244251D01*
X000936102Y000474251D01*
X001144186Y000474251D01*
X001147682Y000474096D01*
X001151150Y000473631D01*
X001154563Y000472859D01*
X001157895Y000471787D01*
X001161118Y000470424D01*
X001164207Y000468780D01*
X001167138Y000466869D01*
X001169888Y000464704D01*
X001172434Y000462304D01*
X001174758Y000459687D01*
X001176840Y000456875D01*
X001178664Y000453888D01*
X001180215Y000450752D01*
X001181482Y000447490D01*
X001182455Y000444128D01*
X001183124Y000440693D01*
X001183487Y000437213D01*
X001183538Y000433714D01*
X001183279Y000430224D01*
X001182711Y000426771D01*
X001140888Y000228109D01*
X001140246Y000225503D01*
X001139428Y000222948D01*
X001138438Y000220454D01*
X001137281Y000218033D01*
X001135961Y000215697D01*
X001134485Y000213457D01*
X001132860Y000211321D01*
X001131093Y000209302D01*
X001129193Y000207408D01*
X001127168Y000205647D01*
X001125028Y000204028D01*
X001122783Y000202559D01*
X001120443Y000201247D01*
X001118019Y000200096D01*
X001115522Y000199114D01*
X001112964Y000198304D01*
X001110357Y000197669D01*
X001107713Y000197214D01*
X001105044Y000196941D01*
X001102362Y000196849D01*
X000236219Y000196849D01*
X000227458Y000197836D01*
X000219137Y000200748D01*
X000211672Y000205438D01*
X000205438Y000211672D01*
X000200748Y000219137D01*
X000197836Y000227458D01*
X000196849Y000236219D01*
X000196849Y000597306D01*
X000196895Y000599211D01*
X000197034Y000601112D01*
X000197264Y000603004D01*
X000197585Y000604883D01*
X000197997Y000606744D01*
X000198499Y000608583D01*
X000199089Y000610395D01*
X000199766Y000612177D01*
X000200528Y000613924D01*
X000201375Y000615632D01*
X000202302Y000617297D01*
X000203310Y000618915D01*
X000204394Y000620483D01*
X000205553Y000621996D01*
X000206784Y000623451D01*
X000208084Y000624845D01*
X000209450Y000626175D01*
X000210878Y000627436D01*
X000212366Y000628628D01*
X000213910Y000629745D01*
X000264443Y000664497D01*
X000268093Y000666725D01*
X000271962Y000668544D01*
X000276006Y000669933D01*
X000280177Y000670875D01*
X000284425Y000671359D01*
X000288701Y000671379D01*
X000292953Y000670936D01*
X000297133Y000670034D01*
X000301190Y000668685D01*
X000305077Y000666903D01*
X000308748Y000664710D01*
X000312159Y000662132D01*
X000315270Y000659200D01*
X000318046Y000655947D01*
X000320452Y000652412D01*
X000322460Y000648638D01*
X000324048Y000644668D01*
X000325195Y000640549D01*
X000325890Y000636330D01*
X000326122Y000632060D01*
X000326127Y000559064D01*
X003149605Y004409447D02*
X003149605Y004409447D01*
X003152286Y004409356D01*
X003154956Y004409082D01*
X003157600Y004408627D01*
X003160207Y004407993D01*
X003162765Y004407183D01*
X003165262Y004406200D01*
X003167686Y004405050D01*
X003170026Y004403737D01*
X003172271Y004402268D01*
X003174411Y004400649D01*
X003176436Y004398889D01*
X003178336Y004396994D01*
X003180102Y004394975D01*
X003181727Y004392840D01*
X003183203Y004390599D01*
X003184523Y004388263D01*
X003185681Y004385842D01*
X003186671Y004383349D01*
X003187488Y004380793D01*
X003188130Y004378188D01*
X003229955Y004179528D01*
X003230523Y004176075D01*
X003230783Y004172585D01*
X003230731Y004169086D01*
X003230369Y004165605D01*
X003229699Y004162171D01*
X003228727Y004158809D01*
X003227460Y004155547D01*
X003225908Y004152410D01*
X003224084Y004149424D01*
X003222002Y004146611D01*
X003219679Y004143994D01*
X003217132Y004141594D01*
X003214382Y004139430D01*
X003211451Y004137518D01*
X003208362Y004135874D01*
X003205139Y004134511D01*
X003201808Y004133439D01*
X003198394Y004132668D01*
X003194926Y004132202D01*
X003191430Y004132047D01*
X002930826Y004132047D01*
X002930826Y004362047D01*
X002850826Y004362047D01*
X002838417Y004361890D01*
X002826015Y004361418D01*
X002813629Y004360633D01*
X002801267Y004359535D01*
X002788938Y004358123D01*
X002776648Y004356400D01*
X002764405Y004354366D01*
X002752218Y004352022D01*
X002740094Y004349371D01*
X002728040Y004346414D01*
X002716066Y004343152D01*
X002704179Y004339588D01*
X002692385Y004335724D01*
X002680693Y004331563D01*
X002669110Y004327107D01*
X002657644Y004322358D01*
X002646301Y004317322D01*
X002635090Y004312000D01*
X002624017Y004306395D01*
X002613090Y004300511D01*
X002602315Y004294353D01*
X002591699Y004287924D01*
X002581250Y004281228D01*
X002570974Y004274270D01*
X002560878Y004267053D01*
X002550967Y004259583D01*
X002541248Y004251865D01*
X002531729Y004243903D01*
X002522413Y004235702D01*
X002513309Y004227268D01*
X002504421Y004218607D01*
X002495755Y004209723D01*
X002487318Y004200622D01*
X002479112Y004191310D01*
X002471146Y004181794D01*
X002463423Y004172080D01*
X002455949Y004162172D01*
X002448729Y004152079D01*
X002441766Y004141806D01*
X002435065Y004131359D01*
X002428631Y004120747D01*
X002422468Y004109975D01*
X002416580Y004099050D01*
X002410970Y004087980D01*
X002405643Y004076771D01*
X002400601Y004065431D01*
X002395847Y004053966D01*
X002391386Y004042386D01*
X002387220Y004030695D01*
X002383351Y004018904D01*
X002379781Y004007017D01*
X002376514Y003995044D01*
X002373552Y003982993D01*
X002370895Y003970870D01*
X002368546Y003958684D01*
X002366506Y003946442D01*
X002364777Y003934153D01*
X002363361Y003921823D01*
X002362256Y003909462D01*
X002361466Y003897077D01*
X002360988Y003884675D01*
X002360826Y003872266D01*
X002360978Y003859856D01*
X002361443Y003847455D01*
X002362223Y003835069D01*
X002363316Y003822706D01*
X002364722Y003810376D01*
X002366440Y003798085D01*
X002368468Y003785841D01*
X002370807Y003773653D01*
X002373452Y003761527D01*
X002376404Y003749474D01*
X002379661Y003737498D01*
X002383220Y003725609D01*
X002387078Y003713813D01*
X002391234Y003702119D01*
X002395685Y003690534D01*
X002400428Y003679066D01*
X002405460Y003667721D01*
X002410777Y003656507D01*
X002416377Y003645432D01*
X002422255Y003634502D01*
X002428409Y003623725D01*
X002434833Y003613106D01*
X002441525Y003602654D01*
X002448478Y003592375D01*
X002455690Y003582275D01*
X002463156Y003572361D01*
X002470870Y003562639D01*
X002478827Y003553116D01*
X002487024Y003543797D01*
X002495454Y003534688D01*
X002504111Y003525797D01*
X002512992Y003517127D01*
X002522088Y003508685D01*
X002531396Y003500476D01*
X002540909Y003492506D01*
X002550620Y003484779D01*
X002560524Y003477300D01*
X002570615Y003470075D01*
X002580885Y003463107D01*
X002591328Y003456402D01*
X002601938Y003449963D01*
X002612707Y003443795D01*
X002623629Y003437902D01*
X002634697Y003432288D01*
X002645903Y003426955D01*
X002657241Y003421908D01*
X002668703Y003417150D01*
X002680282Y003412683D01*
X002691970Y003408512D01*
X002703761Y003404637D01*
X002715645Y003401063D01*
X002727616Y003397790D01*
X002739667Y003394822D01*
X002751788Y003392160D01*
X002763974Y003389805D01*
X002776215Y003387761D01*
X002788503Y003386026D01*
X002800832Y003384604D01*
X002813193Y003383494D01*
X002825578Y003382698D01*
X002837979Y003382215D01*
X002850388Y003382047D01*
X002862798Y003382193D01*
X003146913Y003382148D01*
X003149561Y003382059D01*
X003152197Y003381791D01*
X003154809Y003381347D01*
X003157385Y003380729D01*
X003159914Y003379938D01*
X003162384Y003378979D01*
X003164783Y003377856D01*
X003167102Y003376574D01*
X003169329Y003375140D01*
X003171455Y003373558D01*
X003173470Y003371838D01*
X003175364Y003369985D01*
X003177129Y003368010D01*
X003178758Y003365920D01*
X003180242Y003363726D01*
X003181576Y003361436D01*
X003182752Y003359062D01*
X003183766Y003356615D01*
X003184613Y003354104D01*
X003185289Y003351543D01*
X003229812Y003156559D01*
X003230443Y003153083D01*
X003230760Y003149564D01*
X003230760Y003146032D01*
X003230444Y003142513D01*
X003229813Y003139037D01*
X003228874Y003135631D01*
X003227633Y003132324D01*
X003226100Y003129141D01*
X003224288Y003126108D01*
X003222212Y003123249D01*
X003219887Y003120589D01*
X003217334Y003118147D01*
X003214572Y003115945D01*
X003211624Y003113998D01*
X003208513Y003112324D01*
X003205264Y003110935D01*
X003201904Y003109844D01*
X003198460Y003109058D01*
X003194959Y003108583D01*
X003191430Y003108425D01*
X002970196Y003108425D01*
X002970196Y003338425D01*
X002890196Y003338425D01*
X002877787Y003338268D01*
X002865385Y003337796D01*
X002853000Y003337011D01*
X002840638Y003335913D01*
X002828308Y003334501D01*
X002816018Y003332778D01*
X002803775Y003330744D01*
X002791588Y003328400D01*
X002779464Y003325749D01*
X002767410Y003322792D01*
X002755436Y003319530D01*
X002743549Y003315966D01*
X002731755Y003312102D01*
X002720063Y003307941D01*
X002708480Y003303485D01*
X002697014Y003298736D01*
X002685671Y003293700D01*
X002674460Y003288378D01*
X002663387Y003282773D01*
X002652460Y003276889D01*
X002641685Y003270731D01*
X002631069Y003264302D01*
X002620620Y003257606D01*
X002610344Y003250648D01*
X002600248Y003243431D01*
X002590337Y003235961D01*
X002580618Y003228243D01*
X002571099Y003220281D01*
X002561783Y003212080D01*
X002552679Y003203646D01*
X002543791Y003194985D01*
X002535125Y003186101D01*
X002526688Y003177000D01*
X002518482Y003167688D01*
X002510516Y003158172D01*
X002502794Y003148457D01*
X002495319Y003138550D01*
X002488099Y003128456D01*
X002481136Y003118184D01*
X002474435Y003107737D01*
X002468001Y003097125D01*
X002461838Y003086353D01*
X002455950Y003075428D01*
X002450340Y003064358D01*
X002445013Y003053149D01*
X002439971Y003041808D01*
X002435218Y003030344D01*
X002430756Y003018764D01*
X002426590Y003007073D01*
X002422721Y002995281D01*
X002419151Y002983395D01*
X002415884Y002971422D01*
X002412922Y002959371D01*
X002410265Y002947248D01*
X002407916Y002935062D01*
X002405876Y002922820D01*
X002404148Y002910531D01*
X002402731Y002898201D01*
X002401627Y002885840D01*
X002400836Y002873455D01*
X002400358Y002861053D01*
X002400196Y002848644D01*
X002400348Y002836234D01*
X002400813Y002823832D01*
X002401593Y002811447D01*
X002402687Y002799084D01*
X002404092Y002786754D01*
X002405810Y002774462D01*
X002407839Y002762219D01*
X002410177Y002750031D01*
X002412822Y002737905D01*
X002415774Y002725852D01*
X002419031Y002713875D01*
X002422590Y002701987D01*
X002426448Y002690191D01*
X002430604Y002678497D01*
X002435055Y002666912D01*
X002439798Y002655444D01*
X002444830Y002644099D01*
X002450147Y002632885D01*
X002455747Y002621810D01*
X002461625Y002610880D01*
X002467779Y002600103D01*
X002474203Y002589484D01*
X002480895Y002579032D01*
X002487848Y002568753D01*
X002495061Y002558653D01*
X002502526Y002548739D01*
X002510240Y002539017D01*
X002518197Y002529494D01*
X002526394Y002520175D01*
X002534824Y002511066D01*
X002543481Y002502175D01*
X002552362Y002493505D01*
X002561458Y002485063D01*
X002570766Y002476854D01*
X002580279Y002468884D01*
X002589990Y002461157D01*
X002599894Y002453678D01*
X002609985Y002446453D01*
X002620255Y002439485D01*
X002630698Y002432780D01*
X002641308Y002426341D01*
X002652077Y002420173D01*
X002662999Y002414280D01*
X002674067Y002408666D01*
X002685273Y002403333D01*
X002696611Y002398286D01*
X002708073Y002393528D01*
X002719652Y002389061D01*
X002731340Y002384890D01*
X002743131Y002381015D01*
X002755015Y002377440D01*
X002766987Y002374168D01*
X002779037Y002371200D01*
X002791159Y002368538D01*
X002803344Y002366183D01*
X002815585Y002364139D01*
X002827873Y002362404D01*
X002840202Y002360982D01*
X002852563Y002359872D01*
X002864948Y002359076D01*
X002877349Y002358593D01*
X002889758Y002358425D01*
X002902168Y002358571D01*
X003144863Y002358533D01*
X003148283Y002358384D01*
X003151677Y002357938D01*
X003155019Y002357199D01*
X003158285Y002356172D01*
X003161449Y002354866D01*
X003164488Y002353289D01*
X003167378Y002351455D01*
X003170098Y002349377D01*
X003172627Y002347070D01*
X003174946Y002344552D01*
X003177038Y002341842D01*
X003178887Y002338961D01*
X003180478Y002335930D01*
X003181800Y002332773D01*
X003182842Y002329512D01*
X003183598Y002326173D01*
X003184060Y002322782D01*
X003184226Y002319363D01*
X003184095Y002315942D01*
X003183667Y002312546D01*
X003150420Y002117556D01*
X003149862Y002114854D01*
X003149115Y002112197D01*
X003148184Y002109600D01*
X003147074Y002107074D01*
X003145789Y002104633D01*
X003144336Y002102287D01*
X003142723Y002100048D01*
X003140957Y002097928D01*
X003139047Y002095938D01*
X003137002Y002094085D01*
X003134832Y002092381D01*
X003132549Y002090832D01*
X003130162Y002089448D01*
X003127685Y002088234D01*
X003125128Y002087196D01*
X003122505Y002086340D01*
X003119828Y002085670D01*
X003117112Y002085189D01*
X003114368Y002084899D01*
X003111610Y002084803D01*
X002930826Y002084803D01*
X002930826Y002314803D01*
X002850826Y002314803D01*
X002838417Y002314646D01*
X002826015Y002314174D01*
X002813629Y002313389D01*
X002801267Y002312291D01*
X002788938Y002310879D01*
X002776648Y002309156D01*
X002764405Y002307122D01*
X002752218Y002304778D01*
X002740094Y002302127D01*
X002728040Y002299170D01*
X002716066Y002295908D01*
X002704179Y002292344D01*
X002692385Y002288480D01*
X002680693Y002284319D01*
X002669110Y002279863D01*
X002657644Y002275114D01*
X002646301Y002270078D01*
X002635090Y002264756D01*
X002624017Y002259151D01*
X002613090Y002253267D01*
X002602315Y002247109D01*
X002591699Y002240680D01*
X002581250Y002233984D01*
X002570974Y002227025D01*
X002560878Y002219809D01*
X002550967Y002212339D01*
X002541248Y002204621D01*
X002531729Y002196659D01*
X002522413Y002188458D01*
X002513309Y002180024D01*
X002504421Y002171363D01*
X002495755Y002162479D01*
X002487318Y002153378D01*
X002479112Y002144066D01*
X002471146Y002134550D01*
X002463423Y002124835D01*
X002455949Y002114928D01*
X002448729Y002104834D01*
X002441766Y002094561D01*
X002435065Y002084115D01*
X002428631Y002073503D01*
X002422468Y002062731D01*
X002416580Y002051806D01*
X002410970Y002040736D01*
X002405643Y002029527D01*
X002400601Y002018186D01*
X002395847Y002006722D01*
X002391386Y001995142D01*
X002387220Y001983451D01*
X002383351Y001971659D01*
X002379781Y001959773D01*
X002376514Y001947800D01*
X002373552Y001935749D01*
X002370895Y001923626D01*
X002368546Y001911440D01*
X002366506Y001899198D01*
X002364777Y001886909D01*
X002363361Y001874579D01*
X002362256Y001862218D01*
X002361466Y001849833D01*
X002360988Y001837431D01*
X002360826Y001825022D01*
X002360978Y001812612D01*
X002361443Y001800210D01*
X002362223Y001787825D01*
X002363316Y001775462D01*
X002364722Y001763132D01*
X002366440Y001750840D01*
X002368468Y001738597D01*
X002370807Y001726409D01*
X002373452Y001714283D01*
X002376404Y001702229D01*
X002379661Y001690253D01*
X002383220Y001678364D01*
X002387078Y001666569D01*
X002391234Y001654875D01*
X002395685Y001643290D01*
X002400428Y001631822D01*
X002405460Y001620477D01*
X002410777Y001609263D01*
X002416377Y001598188D01*
X002422255Y001587258D01*
X002428409Y001576481D01*
X002434833Y001565862D01*
X002441525Y001555410D01*
X002448478Y001545131D01*
X002455690Y001535031D01*
X002463156Y001525117D01*
X002470870Y001515395D01*
X002478827Y001505872D01*
X002487024Y001496553D01*
X002495454Y001487444D01*
X002504111Y001478553D01*
X002512992Y001469883D01*
X002522088Y001461441D01*
X002531396Y001453232D01*
X002540909Y001445262D01*
X002550620Y001437535D01*
X002560524Y001430056D01*
X002570615Y001422831D01*
X002580885Y001415863D01*
X002591328Y001409158D01*
X002601938Y001402719D01*
X002612707Y001396551D01*
X002623629Y001390658D01*
X002634697Y001385044D01*
X002645903Y001379711D01*
X002657241Y001374664D01*
X002668703Y001369906D01*
X002680282Y001365439D01*
X002691970Y001361268D01*
X002703761Y001357393D01*
X002715645Y001353818D01*
X002727616Y001350546D01*
X002739667Y001347578D01*
X002751788Y001344916D01*
X002763974Y001342561D01*
X002776215Y001340517D01*
X002788503Y001338782D01*
X002800832Y001337360D01*
X002813193Y001336250D01*
X002825578Y001335454D01*
X002837979Y001334971D01*
X002850388Y001334803D01*
X002862798Y001334949D01*
X003146913Y001334904D01*
X003149561Y001334815D01*
X003152197Y001334547D01*
X003154809Y001334103D01*
X003157385Y001333484D01*
X003159914Y001332694D01*
X003162384Y001331735D01*
X003164783Y001330612D01*
X003167102Y001329330D01*
X003169329Y001327896D01*
X003171455Y001326314D01*
X003173470Y001324594D01*
X003175364Y001322741D01*
X003177129Y001320766D01*
X003178758Y001318676D01*
X003180242Y001316481D01*
X003181576Y001314192D01*
X003182752Y001311818D01*
X003183766Y001309370D01*
X003184613Y001306860D01*
X003185289Y001304298D01*
X003229812Y001109315D01*
X003230443Y001105839D01*
X003230760Y001102320D01*
X003230760Y001098788D01*
X003230444Y001095269D01*
X003229813Y001091793D01*
X003228874Y001088387D01*
X003227633Y001085080D01*
X003226100Y001081896D01*
X003224288Y001078864D01*
X003222212Y001076005D01*
X003219887Y001073345D01*
X003217334Y001070903D01*
X003214572Y001068700D01*
X003211624Y001066754D01*
X003208513Y001065080D01*
X003205264Y001063691D01*
X003201904Y001062600D01*
X003198460Y001061813D01*
X003194959Y001061339D01*
X003191430Y001061181D01*
X002930826Y001061181D01*
X002930826Y001291181D01*
X002850826Y001291181D01*
X002838417Y001291024D01*
X002826015Y001290552D01*
X002813629Y001289767D01*
X002801267Y001288669D01*
X002788938Y001287257D01*
X002776648Y001285534D01*
X002764405Y001283500D01*
X002752218Y001281156D01*
X002740094Y001278505D01*
X002728040Y001275547D01*
X002716066Y001272286D01*
X002704179Y001268722D01*
X002692385Y001264858D01*
X002680693Y001260697D01*
X002669110Y001256241D01*
X002657644Y001251492D01*
X002646301Y001246456D01*
X002635090Y001241133D01*
X002624017Y001235529D01*
X002613090Y001229645D01*
X002602315Y001223487D01*
X002591699Y001217058D01*
X002581250Y001210362D01*
X002570974Y001203403D01*
X002560878Y001196187D01*
X002550967Y001188717D01*
X002541248Y001180999D01*
X002531729Y001173037D01*
X002522413Y001164836D01*
X002513309Y001156402D01*
X002504421Y001147741D01*
X002495755Y001138857D01*
X002487318Y001129756D01*
X002479112Y001120444D01*
X002471146Y001110928D01*
X002463423Y001101213D01*
X002455949Y001091306D01*
X002448729Y001081212D01*
X002441766Y001070939D01*
X002435065Y001060493D01*
X002428631Y001049880D01*
X002422468Y001039109D01*
X002416580Y001028184D01*
X002410970Y001017114D01*
X002405643Y001005905D01*
X002400601Y000994564D01*
X002395847Y000983100D01*
X002391386Y000971520D01*
X002387220Y000959829D01*
X002383351Y000948037D01*
X002379781Y000936151D01*
X002376514Y000924178D01*
X002373552Y000912127D01*
X002370895Y000900004D01*
X002368546Y000887818D01*
X002366506Y000875576D01*
X002364777Y000863287D01*
X002363361Y000850957D01*
X002362256Y000838596D01*
X002361466Y000826211D01*
X002360988Y000813809D01*
X002360826Y000801400D01*
X002360978Y000788990D01*
X002361443Y000776588D01*
X002362223Y000764203D01*
X002363316Y000751840D01*
X002364722Y000739510D01*
X002366440Y000727218D01*
X002368468Y000714975D01*
X002370807Y000702787D01*
X002373452Y000690661D01*
X002376404Y000678607D01*
X002379661Y000666631D01*
X002383220Y000654742D01*
X002387078Y000642947D01*
X002391234Y000631253D01*
X002395685Y000619668D01*
X002400428Y000608200D01*
X002405460Y000596855D01*
X002410777Y000585641D01*
X002416377Y000574566D01*
X002422255Y000563636D01*
X002428409Y000552858D01*
X002434833Y000542240D01*
X002441525Y000531788D01*
X002448478Y000521509D01*
X002455690Y000511409D01*
X002463156Y000501495D01*
X002470870Y000491773D01*
X002478827Y000482250D01*
X002487024Y000472931D01*
X002495454Y000463822D01*
X002504111Y000454931D01*
X002512992Y000446261D01*
X002522088Y000437819D01*
X002531396Y000429610D01*
X002540909Y000421640D01*
X002550620Y000413912D01*
X002560524Y000406434D01*
X002570615Y000399208D01*
X002580885Y000392241D01*
X002591328Y000385536D01*
X002601938Y000379097D01*
X002612707Y000372929D01*
X002623629Y000367036D01*
X002634697Y000361422D01*
X002645903Y000356089D01*
X002657241Y000351042D01*
X002668703Y000346284D01*
X002680282Y000341817D01*
X002691970Y000337646D01*
X002703761Y000333771D01*
X002715645Y000330196D01*
X002727616Y000326924D01*
X002739667Y000323956D01*
X002751788Y000321294D01*
X002763974Y000318939D01*
X002776215Y000316895D01*
X002788503Y000315160D01*
X002800832Y000313738D01*
X002813193Y000312628D01*
X002825578Y000311831D01*
X002837979Y000311349D01*
X002850388Y000311181D01*
X002862798Y000311327D01*
X003231853Y000311269D01*
X003235025Y000311141D01*
X003238176Y000310757D01*
X003241286Y000310121D01*
X003244335Y000309236D01*
X003247303Y000308109D01*
X003250170Y000306746D01*
X003252917Y000305156D01*
X003255528Y000303351D01*
X003257985Y000301340D01*
X003260272Y000299139D01*
X003262375Y000296760D01*
X003264278Y000294220D01*
X003265971Y000291535D01*
X003267442Y000288722D01*
X003268682Y000285799D01*
X003269682Y000282786D01*
X003270436Y000279703D01*
X003270939Y000276568D01*
X003271188Y000273404D01*
X003271182Y000270229D01*
X003269667Y000234549D01*
X003269425Y000231551D01*
X003268954Y000228580D01*
X003268259Y000225654D01*
X003267341Y000222790D01*
X003266208Y000220003D01*
X003264865Y000217312D01*
X003263321Y000214731D01*
X003261584Y000212275D01*
X003259665Y000209959D01*
X003257575Y000207796D01*
X003255325Y000205799D01*
X003252930Y000203980D01*
X003250403Y000202349D01*
X003247758Y000200916D01*
X003245012Y000199688D01*
X003242180Y000198674D01*
X003239280Y000197879D01*
X003236326Y000197308D01*
X003233338Y000196964D01*
X003230333Y000196849D01*
X001417322Y000196849D01*
X001414640Y000196941D01*
X001411971Y000197214D01*
X001409327Y000197669D01*
X001406720Y000198304D01*
X001404162Y000199114D01*
X001401665Y000200096D01*
X001399241Y000201247D01*
X001396901Y000202559D01*
X001394656Y000204028D01*
X001392516Y000205647D01*
X001390491Y000207408D01*
X001388591Y000209302D01*
X001386824Y000211321D01*
X001385199Y000213457D01*
X001383723Y000215697D01*
X001382404Y000218033D01*
X001381246Y000220454D01*
X001380256Y000222948D01*
X001379438Y000225503D01*
X001378796Y000228109D01*
X001336973Y000426771D01*
X001336405Y000430224D01*
X001336146Y000433714D01*
X001336197Y000437213D01*
X001336560Y000440693D01*
X001337229Y000444128D01*
X001338202Y000447490D01*
X001339469Y000450752D01*
X001341020Y000453888D01*
X001342844Y000456875D01*
X001344926Y000459687D01*
X001347250Y000462304D01*
X001349796Y000464704D01*
X001352546Y000466869D01*
X001355477Y000468780D01*
X001358566Y000470424D01*
X001361789Y000471787D01*
X001365121Y000472859D01*
X001368534Y000473631D01*
X001372002Y000474096D01*
X001375498Y000474251D01*
X001636102Y000474251D01*
X001636102Y000244251D01*
X001716102Y000244251D01*
X001728512Y000244408D01*
X001740913Y000244880D01*
X001753299Y000245665D01*
X001765661Y000246764D01*
X001777991Y000248175D01*
X001790280Y000249898D01*
X001802524Y000251932D01*
X001814710Y000254276D01*
X001826835Y000256927D01*
X001838888Y000259885D01*
X001850862Y000263146D01*
X001862750Y000266710D01*
X001874543Y000270574D01*
X001886235Y000274735D01*
X001897818Y000279191D01*
X001909285Y000283940D01*
X001920627Y000288976D01*
X001931838Y000294299D01*
X001942911Y000299903D01*
X001953838Y000305787D01*
X001964613Y000311945D01*
X001975229Y000318374D01*
X001985678Y000325070D01*
X001995954Y000332029D01*
X002006051Y000339245D01*
X002015961Y000346715D01*
X002025680Y000354433D01*
X002035199Y000362395D01*
X002044515Y000370596D01*
X002053619Y000379030D01*
X002062507Y000387691D01*
X002071173Y000396575D01*
X002079611Y000405676D01*
X002087816Y000414988D01*
X002095782Y000424504D01*
X002103505Y000434219D01*
X002110979Y000444126D01*
X002118199Y000454220D01*
X002125163Y000464493D01*
X002131863Y000474939D01*
X002138297Y000485552D01*
X002144460Y000496323D01*
X002150348Y000507248D01*
X002155958Y000518318D01*
X002161286Y000529528D01*
X002166327Y000540868D01*
X002171081Y000552332D01*
X002175542Y000563912D01*
X002179709Y000575603D01*
X002183578Y000587395D01*
X002187147Y000599281D01*
X002190414Y000611254D01*
X002193377Y000623305D01*
X002196033Y000635428D01*
X002198382Y000647614D01*
X002200422Y000659856D01*
X002202151Y000672146D01*
X002203567Y000684475D01*
X002204672Y000696836D01*
X002205463Y000709221D01*
X002205940Y000721623D01*
X002206102Y000734032D01*
X002205951Y000746442D01*
X002205485Y000758844D01*
X002204705Y000771229D01*
X002203612Y000783592D01*
X002202206Y000795922D01*
X002200488Y000808214D01*
X002198460Y000820457D01*
X002196122Y000832645D01*
X002193476Y000844771D01*
X002190524Y000856825D01*
X002187267Y000868801D01*
X002183709Y000880690D01*
X002179850Y000892485D01*
X002175694Y000904179D01*
X002171243Y000915764D01*
X002166500Y000927233D01*
X002161469Y000938577D01*
X002156151Y000949791D01*
X002150551Y000960866D01*
X002144673Y000971796D01*
X002138519Y000982574D01*
X002132095Y000993192D01*
X002125403Y001003644D01*
X002118450Y001013924D01*
X002111238Y001024023D01*
X002103772Y001033937D01*
X002096059Y001043659D01*
X002088101Y001053182D01*
X002079904Y001062501D01*
X002071474Y001071610D01*
X002062817Y001080501D01*
X002053936Y001089171D01*
X002044840Y001097613D01*
X002035532Y001105822D01*
X002026019Y001113792D01*
X002016308Y001121520D01*
X002006404Y001128998D01*
X001996313Y001136224D01*
X001986044Y001143191D01*
X001975600Y001149896D01*
X001964990Y001156335D01*
X001954221Y001162503D01*
X001943299Y001168396D01*
X001932231Y001174010D01*
X001921025Y001179343D01*
X001909687Y001184390D01*
X001898225Y001189148D01*
X001886646Y001193615D01*
X001874958Y001197787D01*
X001863168Y001201661D01*
X001851283Y001205236D01*
X001839312Y001208508D01*
X001827261Y001211476D01*
X001815140Y001214138D01*
X001802955Y001216493D01*
X001790714Y001218538D01*
X001778425Y001220272D01*
X001766096Y001221694D01*
X001753735Y001222804D01*
X001741351Y001223601D01*
X001728949Y001224083D01*
X001716540Y001224251D01*
X001704130Y001224106D01*
X001420015Y001224150D01*
X001420015Y001224150D01*
X001417367Y001224239D01*
X001414731Y001224507D01*
X001412119Y001224951D01*
X001409543Y001225570D01*
X001407014Y001226360D01*
X001404544Y001227319D01*
X001402145Y001228442D01*
X001399826Y001229724D01*
X001397599Y001231159D01*
X001395473Y001232740D01*
X001393458Y001234461D01*
X001391564Y001236313D01*
X001389799Y001238288D01*
X001388170Y001240378D01*
X001386686Y001242573D01*
X001385353Y001244862D01*
X001384176Y001247236D01*
X001383162Y001249684D01*
X001382315Y001252194D01*
X001381639Y001254756D01*
X001337116Y001449739D01*
X001336485Y001453215D01*
X001336168Y001456734D01*
X001336168Y001460267D01*
X001336484Y001463785D01*
X001337115Y001467261D01*
X001338054Y001470667D01*
X001339296Y001473975D01*
X001340828Y001477158D01*
X001342640Y001480191D01*
X001344716Y001483049D01*
X001347041Y001485709D01*
X001349594Y001488151D01*
X001352356Y001490354D01*
X001355304Y001492300D01*
X001358415Y001493974D01*
X001361664Y001495363D01*
X001365024Y001496454D01*
X001368468Y001497241D01*
X001371969Y001497715D01*
X001375498Y001497873D01*
X001636102Y001497873D01*
X001636102Y001267873D01*
X001716102Y001267873D01*
X001728512Y001268030D01*
X001740913Y001268502D01*
X001753299Y001269287D01*
X001765661Y001270386D01*
X001777991Y001271797D01*
X001790280Y001273520D01*
X001802524Y001275554D01*
X001814710Y001277898D01*
X001826835Y001280549D01*
X001838888Y001283507D01*
X001850862Y001286768D01*
X001862750Y001290332D01*
X001874543Y001294196D01*
X001886235Y001298357D01*
X001897818Y001302814D01*
X001909285Y001307562D01*
X001920627Y001312598D01*
X001931838Y001317921D01*
X001942911Y001323526D01*
X001953838Y001329409D01*
X001964613Y001335567D01*
X001975229Y001341996D01*
X001985678Y001348692D01*
X001995954Y001355651D01*
X002006051Y001362867D01*
X002015961Y001370337D01*
X002025680Y001378055D01*
X002035199Y001386017D01*
X002044515Y001394218D01*
X002053619Y001402652D01*
X002062507Y001411313D01*
X002071173Y001420197D01*
X002079611Y001429298D01*
X002087816Y001438610D01*
X002095782Y001448126D01*
X002103505Y001457841D01*
X002110979Y001467748D01*
X002118199Y001477842D01*
X002125163Y001488115D01*
X002131863Y001498561D01*
X002138297Y001509174D01*
X002144460Y001519946D01*
X002150348Y001530870D01*
X002155958Y001541940D01*
X002161286Y001553150D01*
X002166327Y001564490D01*
X002171081Y001575954D01*
X002175542Y001587534D01*
X002179709Y001599225D01*
X002183578Y001611017D01*
X002187147Y001622903D01*
X002190414Y001634876D01*
X002193377Y001646927D01*
X002196033Y001659050D01*
X002198382Y001671236D01*
X002200422Y001683478D01*
X002202151Y001695768D01*
X002203567Y001708097D01*
X002204672Y001720458D01*
X002205463Y001732843D01*
X002205940Y001745245D01*
X002206102Y001757654D01*
X002205951Y001770064D01*
X002205485Y001782466D01*
X002204705Y001794852D01*
X002203612Y001807214D01*
X002202206Y001819544D01*
X002200488Y001831836D01*
X002198460Y001844079D01*
X002196122Y001856268D01*
X002193476Y001868393D01*
X002190524Y001880447D01*
X002187267Y001892423D01*
X002183709Y001904312D01*
X002179850Y001916108D01*
X002175694Y001927801D01*
X002171243Y001939386D01*
X002166500Y001950855D01*
X002161469Y001962199D01*
X002156151Y001973413D01*
X002150551Y001984488D01*
X002144673Y001995418D01*
X002138519Y002006196D01*
X002132095Y002016814D01*
X002125403Y002027266D01*
X002118450Y002037546D01*
X002111238Y002047645D01*
X002103772Y002057559D01*
X002096059Y002067281D01*
X002088101Y002076804D01*
X002079904Y002086123D01*
X002071474Y002095232D01*
X002062817Y002104123D01*
X002053936Y002112793D01*
X002044840Y002121235D01*
X002035532Y002129444D01*
X002026019Y002137414D01*
X002016308Y002145142D01*
X002006404Y002152620D01*
X001996313Y002159846D01*
X001986044Y002166813D01*
X001975600Y002173518D01*
X001964990Y002179957D01*
X001954221Y002186125D01*
X001943299Y002192018D01*
X001932231Y002197632D01*
X001921025Y002202965D01*
X001909687Y002208012D01*
X001898225Y002212770D01*
X001886646Y002217237D01*
X001874958Y002221409D01*
X001863168Y002225283D01*
X001851283Y002228858D01*
X001839312Y002232130D01*
X001827261Y002235098D01*
X001815140Y002237760D01*
X001802955Y002240115D01*
X001790714Y002242160D01*
X001778425Y002243894D01*
X001766096Y002245316D01*
X001753735Y002246426D01*
X001741351Y002247223D01*
X001728949Y002247705D01*
X001716540Y002247874D01*
X001704130Y002247728D01*
X001420015Y002247772D01*
X001417367Y002247861D01*
X001414731Y002248129D01*
X001412119Y002248573D01*
X001409543Y002249192D01*
X001407014Y002249982D01*
X001404544Y002250941D01*
X001402145Y002252064D01*
X001399826Y002253346D01*
X001397599Y002254781D01*
X001395473Y002256362D01*
X001393458Y002258083D01*
X001391564Y002259935D01*
X001389799Y002261910D01*
X001388170Y002264000D01*
X001386686Y002266195D01*
X001385353Y002268484D01*
X001384176Y002270858D01*
X001383162Y002273306D01*
X001382315Y002275816D01*
X001381639Y002278378D01*
X001337116Y002473361D01*
X001336485Y002476837D01*
X001336168Y002480356D01*
X001336168Y002483889D01*
X001336484Y002487407D01*
X001337115Y002490883D01*
X001338054Y002494289D01*
X001339296Y002497597D01*
X001340828Y002500780D01*
X001342640Y002503813D01*
X001344716Y002506671D01*
X001347041Y002509331D01*
X001349594Y002511773D01*
X001352356Y002513976D01*
X001355304Y002515922D01*
X001358415Y002517596D01*
X001361664Y002518985D01*
X001365024Y002520077D01*
X001368468Y002520863D01*
X001371969Y002521337D01*
X001375498Y002521495D01*
X001636102Y002521495D01*
X001636102Y002291495D01*
X001716102Y002291495D01*
X001728512Y002291652D01*
X001740913Y002292124D01*
X001753299Y002292909D01*
X001765661Y002294008D01*
X001777991Y002295419D01*
X001790280Y002297142D01*
X001802524Y002299176D01*
X001814710Y002301520D01*
X001826835Y002304171D01*
X001838888Y002307129D01*
X001850862Y002310390D01*
X001862750Y002313954D01*
X001874543Y002317818D01*
X001886235Y002321979D01*
X001897818Y002326436D01*
X001909285Y002331184D01*
X001920627Y002336220D01*
X001931838Y002341543D01*
X001942911Y002347148D01*
X001953838Y002353031D01*
X001964613Y002359189D01*
X001975229Y002365619D01*
X001985678Y002372314D01*
X001995954Y002379273D01*
X002006051Y002386489D01*
X002015961Y002393959D01*
X002025680Y002401677D01*
X002035199Y002409639D01*
X002044515Y002417840D01*
X002053619Y002426274D01*
X002062507Y002434935D01*
X002071173Y002443820D01*
X002079611Y002452920D01*
X002087816Y002462232D01*
X002095782Y002471748D01*
X002103505Y002481463D01*
X002110979Y002491370D01*
X002118199Y002501464D01*
X002125163Y002511737D01*
X002131863Y002522183D01*
X002138297Y002532796D01*
X002144460Y002543568D01*
X002150348Y002554492D01*
X002155958Y002565562D01*
X002161286Y002576772D01*
X002166327Y002588112D01*
X002171081Y002599576D01*
X002175542Y002611156D01*
X002179709Y002622847D01*
X002183578Y002634639D01*
X002187147Y002646525D01*
X002190414Y002658498D01*
X002193377Y002670550D01*
X002196033Y002682672D01*
X002198382Y002694858D01*
X002200422Y002707100D01*
X002202151Y002719390D01*
X002203567Y002731719D01*
X002204672Y002744080D01*
X002205463Y002756466D01*
X002205940Y002768867D01*
X002206102Y002781276D01*
X002205951Y002793686D01*
X002205485Y002806088D01*
X002204705Y002818474D01*
X002203612Y002830836D01*
X002202206Y002843166D01*
X002200488Y002855458D01*
X002198460Y002867701D01*
X002196122Y002879890D01*
X002193476Y002892015D01*
X002190524Y002904069D01*
X002187267Y002916045D01*
X002183709Y002927934D01*
X002179850Y002939730D01*
X002175694Y002951423D01*
X002171243Y002963008D01*
X002166500Y002974477D01*
X002161469Y002985821D01*
X002156151Y002997035D01*
X002150551Y003008110D01*
X002144673Y003019040D01*
X002138519Y003029818D01*
X002132095Y003040436D01*
X002125403Y003050888D01*
X002118450Y003061168D01*
X002111238Y003071268D01*
X002103772Y003081181D01*
X002096059Y003090903D01*
X002088101Y003100427D01*
X002079904Y003109746D01*
X002071474Y003118854D01*
X002062817Y003127745D01*
X002053936Y003136415D01*
X002044840Y003144857D01*
X002035532Y003153066D01*
X002026019Y003161036D01*
X002016308Y003168764D01*
X002006404Y003176242D01*
X001996313Y003183468D01*
X001986044Y003190435D01*
X001975600Y003197141D01*
X001964990Y003203579D01*
X001954221Y003209747D01*
X001943299Y003215640D01*
X001932231Y003221255D01*
X001921025Y003226587D01*
X001909687Y003231634D01*
X001898225Y003236392D01*
X001886646Y003240859D01*
X001874958Y003245031D01*
X001863168Y003248905D01*
X001851283Y003252480D01*
X001839312Y003255752D01*
X001827261Y003258720D01*
X001815140Y003261382D01*
X001802955Y003263737D01*
X001790714Y003265782D01*
X001778425Y003267516D01*
X001766096Y003268939D01*
X001753735Y003270048D01*
X001741351Y003270845D01*
X001728949Y003271327D01*
X001716540Y003271496D01*
X001704130Y003271350D01*
X001459380Y003271388D01*
X001456732Y003271477D01*
X001454097Y003271745D01*
X001451485Y003272189D01*
X001448908Y003272808D01*
X001446380Y003273598D01*
X001443910Y003274557D01*
X001441510Y003275680D01*
X001439191Y003276962D01*
X001436964Y003278397D01*
X001434838Y003279978D01*
X001432824Y003281699D01*
X001430929Y003283551D01*
X001429164Y003285527D01*
X001427535Y003287617D01*
X001426051Y003289811D01*
X001424718Y003292101D01*
X001423541Y003294475D01*
X001422527Y003296923D01*
X001421680Y003299433D01*
X001421004Y003301995D01*
X001376486Y003496984D01*
X001375855Y003500460D01*
X001375538Y003503979D01*
X001375538Y003507512D01*
X001375854Y003511030D01*
X001376485Y003514506D01*
X001377425Y003517912D01*
X001378666Y003521219D01*
X001380199Y003524402D01*
X001382010Y003527435D01*
X001384087Y003530293D01*
X001386411Y003532954D01*
X001388965Y003535395D01*
X001391727Y003537598D01*
X001394675Y003539544D01*
X001397786Y003541218D01*
X001401034Y003542607D01*
X001404394Y003543699D01*
X001407838Y003544485D01*
X001411339Y003544959D01*
X001414868Y003545118D01*
X001636102Y003545118D01*
X001636102Y003315117D01*
X001716102Y003315117D01*
X001728512Y003315274D01*
X001740913Y003315746D01*
X001753299Y003316531D01*
X001765661Y003317630D01*
X001777991Y003319041D01*
X001790280Y003320764D01*
X001802524Y003322798D01*
X001814710Y003325142D01*
X001826835Y003327793D01*
X001838888Y003330751D01*
X001850862Y003334012D01*
X001862750Y003337576D01*
X001874543Y003341440D01*
X001886235Y003345601D01*
X001897818Y003350058D01*
X001909285Y003354806D01*
X001920627Y003359842D01*
X001931838Y003365165D01*
X001942911Y003370770D01*
X001953838Y003376653D01*
X001964613Y003382811D01*
X001975229Y003389241D01*
X001985678Y003395936D01*
X001995954Y003402895D01*
X002006051Y003410111D01*
X002015961Y003417581D01*
X002025680Y003425299D01*
X002035199Y003433261D01*
X002044515Y003441462D01*
X002053619Y003449896D01*
X002062507Y003458557D01*
X002071173Y003467442D01*
X002079611Y003476542D01*
X002087816Y003485854D01*
X002095782Y003495370D01*
X002103505Y003505085D01*
X002110979Y003514992D01*
X002118199Y003525086D01*
X002125163Y003535359D01*
X002131863Y003545805D01*
X002138297Y003556418D01*
X002144460Y003567190D01*
X002150348Y003578114D01*
X002155958Y003589184D01*
X002161286Y003600394D01*
X002166327Y003611734D01*
X002171081Y003623198D01*
X002175542Y003634779D01*
X002179709Y003646469D01*
X002183578Y003658261D01*
X002187147Y003670147D01*
X002190414Y003682120D01*
X002193377Y003694172D01*
X002196033Y003706294D01*
X002198382Y003718480D01*
X002200422Y003730722D01*
X002202151Y003743012D01*
X002203567Y003755341D01*
X002204672Y003767702D01*
X002205463Y003780088D01*
X002205940Y003792489D01*
X002206102Y003804898D01*
X002205951Y003817308D01*
X002205485Y003829710D01*
X002204705Y003842096D01*
X002203612Y003854458D01*
X002202206Y003866788D01*
X002200488Y003879080D01*
X002198460Y003891323D01*
X002196122Y003903512D01*
X002193476Y003915637D01*
X002190524Y003927691D01*
X002187267Y003939667D01*
X002183709Y003951556D01*
X002179850Y003963352D01*
X002175694Y003975045D01*
X002171243Y003986630D01*
X002166500Y003998099D01*
X002161469Y004009443D01*
X002156151Y004020657D01*
X002150551Y004031732D01*
X002144673Y004042662D01*
X002138519Y004053440D01*
X002132095Y004064058D01*
X002125403Y004074510D01*
X002118450Y004084790D01*
X002111238Y004094890D01*
X002103772Y004104803D01*
X002096059Y004114525D01*
X002088101Y004124049D01*
X002079904Y004133368D01*
X002071474Y004142476D01*
X002062817Y004151368D01*
X002053936Y004160037D01*
X002044840Y004168479D01*
X002035532Y004176688D01*
X002026019Y004184658D01*
X002016308Y004192386D01*
X002006404Y004199864D01*
X001996313Y004207090D01*
X001986044Y004214057D01*
X001975600Y004220763D01*
X001964990Y004227201D01*
X001954221Y004233369D01*
X001943299Y004239262D01*
X001932231Y004244877D01*
X001921025Y004250209D01*
X001909687Y004255256D01*
X001898225Y004260014D01*
X001886646Y004264481D01*
X001874958Y004268653D01*
X001863168Y004272527D01*
X001851283Y004276102D01*
X001839312Y004279374D01*
X001827261Y004282342D01*
X001815140Y004285004D01*
X001802955Y004287359D01*
X001790714Y004289404D01*
X001778425Y004291138D01*
X001766096Y004292561D01*
X001753735Y004293670D01*
X001741351Y004294467D01*
X001728949Y004294949D01*
X001716540Y004295118D01*
X001704130Y004294972D01*
X001351041Y004295027D01*
X001346945Y004295241D01*
X001342893Y004295880D01*
X001338930Y004296938D01*
X001335098Y004298402D01*
X001331439Y004300257D01*
X001327994Y004302482D01*
X001324798Y004305054D01*
X001321887Y004307945D01*
X001319293Y004311122D01*
X001317044Y004314553D01*
X001315164Y004318198D01*
X001313673Y004322020D01*
X001312588Y004325976D01*
X001311921Y004330023D01*
X001311678Y004334118D01*
X001311863Y004338216D01*
X001312473Y004342272D01*
X001313502Y004346243D01*
X001314938Y004350085D01*
X001316766Y004353757D01*
X001336917Y004389437D01*
X001337987Y004391221D01*
X001339150Y004392945D01*
X001340402Y004394606D01*
X001341741Y004396198D01*
X001343161Y004397717D01*
X001344660Y004399159D01*
X001346233Y004400520D01*
X001347876Y004401796D01*
X001349583Y004402983D01*
X001351351Y004404079D01*
X001353174Y004405079D01*
X001355048Y004405982D01*
X001356967Y004406785D01*
X001358925Y004407485D01*
X001360918Y004408081D01*
X001362939Y004408571D01*
X001364984Y004408954D01*
X001367045Y004409228D01*
X001369119Y004409392D01*
X001371198Y004409447D01*
X003149605Y004409447D01*
M02*