%
M48
METRIC,000.000
T10C0.40
T11C0.60
T12C0.65
T13C0.85
T14C1.00
%
T10
X054249Y023926
X053924Y014467
X053622Y017881
X053332Y025485
X050147Y021973
X049774Y024010
X049700Y019600
X048900Y016024
X047724Y029725
X047262Y028577
X045923Y020322
X045525Y016499
X045268Y021079
X045268Y021965
X044427Y016361
X044130Y018470
X043393Y021376
X043376Y016601
X042969Y018506
X041844Y028490
X041600Y025198
X041593Y014970
X041354Y030926
X040566Y019717
X040302Y017548
X039911Y020535
X039878Y018818
X039870Y014099
X037612Y020685
X037536Y024873
X036975Y027299
X036866Y015849
X036406Y024944
X036350Y017109
X036350Y019014
X035842Y015077
X035138Y025130
X034699Y015331
X034699Y017998
X034699Y020030
X033683Y015204
X033683Y016982
X033683Y019014
X033683Y021046
X033338Y025549
X032667Y015331
X032667Y017998
X032667Y020030
X031651Y015204
X031651Y016982
X031651Y019014
X031651Y021046
X031125Y025374
X030762Y017998
X030762Y020030
X030762Y022697
X030635Y015331
X030274Y030499
X029492Y015204
X029423Y024800
X029350Y027774
X028984Y017109
X028984Y019014
X028984Y021046
X028476Y015712
X028349Y022443
X028199Y030426
X028095Y018125
X027968Y020157
X027475Y027225
X026800Y025198
X025911Y029514
X025525Y017241
X025072Y024205
X024994Y014066
X023874Y027251
X023874Y026400
X023790Y030520
X022835Y030532
X021991Y024629
X020173Y021140
X020025Y016053
X019967Y030520
X019967Y028920
X019931Y026380
X018938Y014317
X018545Y023461
X017839Y020921
X017267Y030629
X017074Y019882
X017021Y017182
X016980Y015325
X016467Y024637
X015776Y029171
X015771Y028312
X014801Y019321
X014676Y028655
X014455Y020962
X013932Y017721
X013236Y029499
X012677Y024132
X011588Y027838
X010043Y026070
X009114Y024670
X061750Y017073
X062075Y026532
X062377Y023118
X062667Y015514
X065852Y019026
X066225Y016989
X066299Y021399
X067099Y024975
X068275Y011274
X068737Y012422
X070076Y020677
X070474Y024500
X070731Y019920
X070731Y019034
X071572Y024637
X071869Y022529
X072606Y019623
X072623Y024398
X073030Y022493
X074155Y012509
X074399Y015801
X074406Y026029
X074645Y010073
X075433Y021282
X075697Y023451
X076088Y020464
X076121Y022181
X076129Y026900
X078387Y020314
X078463Y016126
X079024Y013700
X079133Y025150
X079593Y016055
X079649Y023890
X079649Y021985
X080157Y025922
X080861Y015869
X081300Y025668
X081300Y023001
X081300Y020969
X082316Y025795
X082316Y024017
X082316Y021985
X082316Y019953
X082661Y015450
X083332Y025668
X083332Y023001
X083332Y020969
X084348Y025795
X084348Y024017
X084348Y021985
X084348Y019953
X084874Y015625
X085237Y023001
X085237Y020969
X085237Y018302
X085364Y025668
X085725Y010500
X086507Y025795
X086576Y016199
X086649Y013225
X087015Y023890
X087015Y021985
X087015Y019953
X087523Y025287
X087650Y018556
X087800Y010573
X087904Y022874
X088031Y020842
X088524Y013774
X089199Y015801
X090088Y011485
X090474Y023758
X090927Y016794
X091005Y026933
X092125Y013748
X092125Y014599
X092209Y010479
X093164Y010467
X094008Y016370
X095826Y019859
X095974Y024945
X096032Y010479
X096032Y012079
X096068Y014619
X097061Y026682
X097454Y017538
X098160Y020078
X098732Y010370
X098925Y021117
X098978Y023817
X099019Y025674
X099532Y016361
X100223Y011828
X100228Y012687
X101198Y021678
X101323Y012344
X101544Y020037
X102067Y023278
X102763Y011500
X103322Y016867
X104411Y013162
X105956Y014929
X106885Y016329
X054249Y050926
X053924Y041467
X053622Y044881
X053332Y052485
X050147Y048973
X049774Y051010
X049700Y046600
X048900Y043024
X047724Y056725
X047262Y055577
X045923Y047322
X045525Y043499
X045268Y048079
X045268Y048965
X044427Y043362
X044130Y045470
X043393Y048376
X043376Y043601
X042969Y045506
X041844Y055490
X041600Y052198
X041593Y041970
X041354Y057926
X040566Y046717
X040302Y044548
X039911Y047535
X039878Y045818
X039870Y041099
X037612Y047685
X037536Y051873
X036975Y054299
X036866Y042849
X036406Y051944
X036350Y044109
X036350Y046014
X035842Y042077
X035138Y052130
X034699Y042331
X034699Y044998
X034699Y047030
X033683Y042204
X033683Y043982
X033683Y046014
X033683Y048046
X033338Y052549
X032667Y042331
X032667Y044998
X032667Y047030
X031651Y042204
X031651Y043982
X031651Y046014
X031651Y048046
X031125Y052374
X030762Y044998
X030762Y047030
X030762Y049697
X030635Y042331
X030274Y057499
X029492Y042204
X029423Y051800
X029350Y054774
X028984Y044109
X028984Y046014
X028984Y048046
X028476Y042712
X028349Y049443
X028199Y057426
X028095Y045125
X027968Y047157
X027475Y054225
X026800Y052198
X025911Y056514
X025525Y044241
X025072Y051205
X024994Y041066
X023874Y054251
X023874Y053400
X023790Y057520
X022835Y057532
X021991Y051629
X020173Y048140
X020025Y043054
X019967Y057520
X019967Y055920
X019931Y053380
X018938Y041317
X018545Y050461
X017839Y047921
X017267Y057629
X017074Y046882
X017021Y044182
X016980Y042325
X016467Y051637
X015776Y056171
X015771Y055312
X014801Y046321
X014676Y055655
X014455Y047962
X013932Y044721
X013236Y056499
X012677Y051132
X011588Y054838
X010043Y053070
X009114Y051670
X061750Y044073
X062075Y053532
X062377Y050118
X062667Y042514
X065852Y046026
X066225Y043989
X066299Y048399
X067099Y051975
X068275Y038274
X068737Y039422
X070076Y047677
X070474Y051500
X070731Y046920
X070731Y046034
X071572Y051637
X071869Y049529
X072606Y046623
X072623Y051398
X073030Y049493
X074155Y039509
X074399Y042801
X074406Y053029
X074645Y037073
X075433Y048282
X075697Y050451
X076088Y047464
X076121Y049181
X076129Y053900
X078387Y047314
X078463Y043126
X079024Y040700
X079133Y052150
X079593Y043055
X079649Y050890
X079649Y048985
X080157Y052922
X080861Y042869
X081300Y052668
X081300Y050001
X081300Y047969
X082316Y052795
X082316Y051017
X082316Y048985
X082316Y046953
X082661Y042450
X083332Y052668
X083332Y050001
X083332Y047969
X084348Y052795
X084348Y051017
X084348Y048985
X084348Y046953
X084874Y042625
X085237Y050001
X085237Y047969
X085237Y045302
X085364Y052668
X085725Y037500
X086507Y052795
X086576Y043199
X086649Y040225
X087015Y050890
X087015Y048985
X087015Y046953
X087523Y052287
X087650Y045556
X087800Y037573
X087904Y049874
X088031Y047842
X088524Y040774
X089199Y042801
X090088Y038485
X090474Y050758
X090927Y043794
X091005Y053933
X092125Y040748
X092125Y041599
X092209Y037479
X093164Y037467
X094008Y043370
X095826Y046859
X095974Y051945
X096032Y037479
X096032Y039079
X096068Y041619
X097061Y053682
X097454Y044538
X098160Y047078
X098732Y037370
X098925Y048117
X098978Y050817
X099019Y052674
X099532Y043362
X100223Y038828
X100228Y039687
X101198Y048678
X101323Y039344
X101544Y047037
X102067Y050278
X102763Y038500
X103322Y043867
X104411Y040162
X105956Y041929
X106885Y043329
X054249Y077926
X053924Y068467
X053622Y071881
X053332Y079485
X050147Y075973
X049774Y078010
X049700Y073600
X048900Y070024
X047724Y083725
X047262Y082577
X045923Y074322
X045525Y070499
X045268Y075079
X045268Y075965
X044427Y070362
X044130Y072470
X043393Y075376
X043376Y070601
X042969Y072506
X041844Y082490
X041600Y079198
X041593Y068970
X041354Y084926
X040566Y073717
X040302Y071548
X039911Y074535
X039878Y072818
X039870Y068099
X037612Y074685
X037536Y078873
X036975Y081299
X036866Y069849
X036406Y078944
X036350Y071109
X036350Y073014
X035842Y069077
X035138Y079130
X034699Y069331
X034699Y071998
X034699Y074030
X033683Y069204
X033683Y070982
X033683Y073014
X033683Y075046
X033338Y079549
X032667Y069331
X032667Y071998
X032667Y074030
X031651Y069204
X031651Y070982
X031651Y073014
X031651Y075046
X031125Y079374
X030762Y071998
X030762Y074030
X030762Y076697
X030635Y069331
X030274Y084499
X029492Y069204
X029423Y078800
X029350Y081774
X028984Y071109
X028984Y073014
X028984Y075046
X028476Y069712
X028349Y076443
X028199Y084426
X028095Y072125
X027968Y074157
X027475Y081225
X026800Y079198
X025911Y083514
X025525Y071241
X025072Y078205
X024994Y068066
X023874Y081251
X023874Y080400
X023790Y084520
X022835Y084532
X021991Y078629
X020173Y075140
X020025Y070054
X019967Y084520
X019967Y082920
X019931Y080380
X018938Y068317
X018545Y077461
X017839Y074921
X017267Y084629
X017074Y073882
X017021Y071182
X016980Y069325
X016467Y078637
X015776Y083171
X015771Y082312
X014801Y073321
X014676Y082655
X014455Y074962
X013932Y071721
X013236Y083499
X012677Y078132
X011588Y081838
X010043Y080070
X009114Y078670
X054249Y104926
X053924Y095467
X053622Y098881
X053332Y106485
X050147Y102973
X049774Y105010
X049700Y100600
X048900Y097024
X047724Y110725
X047262Y109577
X045923Y101322
X045525Y097499
X045268Y102079
X045268Y102965
X044427Y097362
X044130Y099470
X043393Y102376
X043376Y097601
X042969Y099506
X041844Y109490
X041600Y106198
X041593Y095970
X041354Y111926
X040566Y100717
X040302Y098548
X039911Y101535
X039878Y099818
X039870Y095099
X037612Y101685
X037536Y105873
X036975Y108299
X036866Y096849
X036406Y105944
X036350Y098109
X036350Y100014
X035842Y096077
X035138Y106130
X034699Y096331
X034699Y098998
X034699Y101030
X033683Y096204
X033683Y097982
X033683Y100014
X033683Y102046
X033338Y106549
X032667Y096331
X032667Y098998
X032667Y101030
X031651Y096204
X031651Y097982
X031651Y100014
X031651Y102046
X031125Y106374
X030762Y098998
X030762Y101030
X030762Y103697
X030635Y096331
X030274Y111499
X029492Y096204
X029423Y105800
X029350Y108774
X028984Y098109
X028984Y100014
X028984Y102046
X028476Y096712
X028349Y103443
X028199Y111426
X028095Y099125
X027968Y101157
X027475Y108225
X026800Y106198
X025911Y110514
X025525Y098241
X025072Y105205
X024994Y095066
X023874Y108251
X023874Y107400
X023790Y111520
X022835Y111532
X021991Y105629
X020173Y102140
X020025Y097054
X019967Y111520
X019967Y109920
X019931Y107380
X018938Y095317
X018545Y104461
X017839Y101921
X017267Y111629
X017074Y100882
X017021Y098182
X016980Y096325
X016467Y105637
X015776Y110171
X015771Y109312
X014801Y100321
X014676Y109655
X014455Y101962
X013932Y098721
X013236Y110499
X012677Y105132
X011588Y108838
X010043Y107070
X009114Y105670
X061750Y071073
X062075Y080532
X062377Y077118
X062667Y069514
X065852Y073026
X066225Y070989
X066299Y075399
X067099Y078975
X068275Y065274
X068737Y066422
X070076Y074677
X070474Y078500
X070731Y073920
X070731Y073034
X071572Y078637
X071869Y076529
X072606Y073623
X072623Y078398
X073030Y076493
X074155Y066509
X074399Y069801
X074406Y080029
X074645Y064072
X075433Y075282
X075697Y077451
X076088Y074464
X076121Y076181
X076129Y080900
X078387Y074314
X078463Y070126
X079024Y067700
X079133Y079150
X079593Y070055
X079649Y077890
X079649Y075985
X080157Y079922
X080861Y069869
X081300Y079668
X081300Y077001
X081300Y074969
X082316Y079795
X082316Y078017
X082316Y075985
X082316Y073953
X082661Y069450
X083332Y079668
X083332Y077001
X083332Y074969
X084348Y079795
X084348Y078017
X084348Y075985
X084348Y073953
X084874Y069625
X085237Y077001
X085237Y074969
X085237Y072302
X085364Y079668
X085725Y064500
X086507Y079795
X086576Y070199
X086649Y067225
X087015Y077890
X087015Y075985
X087015Y073953
X087523Y079287
X087650Y072556
X087800Y064572
X087904Y076874
X088031Y074842
X088524Y067774
X089199Y069801
X090088Y065485
X090474Y077758
X090927Y070794
X091005Y080933
X092125Y067748
X092125Y068599
X092209Y064479
X093164Y064467
X094008Y070370
X095826Y073859
X095974Y078945
X096032Y064479
X096032Y066079
X096068Y068619
X097061Y080682
X097454Y071538
X098160Y074078
X098732Y064370
X098925Y075117
X098978Y077817
X099019Y079674
X099532Y070362
X100223Y065828
X100228Y066687
X101198Y075678
X101323Y066344
X101544Y074037
X102067Y077278
X102763Y065500
X103322Y070867
X104411Y067162
X105956Y068929
X106885Y070329
X061750Y098073
X062075Y107532
X062377Y104118
X062667Y096514
X065852Y100026
X066225Y097989
X066299Y102399
X067099Y105975
X068275Y092274
X068737Y093422
X070076Y101677
X070474Y105500
X070731Y100920
X070731Y100034
X071572Y105637
X071869Y103529
X072606Y100623
X072623Y105398
X073030Y103493
X074155Y093509
X074399Y096801
X074406Y107029
X074645Y091073
X075433Y102282
X075697Y104451
X076088Y101464
X076121Y103181
X076129Y107900
X078387Y101314
X078463Y097126
X079024Y094700
X079133Y106150
X079593Y097055
X079649Y104890
X079649Y102985
X080157Y106922
X080861Y096869
X081300Y106668
X081300Y104001
X081300Y101969
X082316Y106795
X082316Y105017
X082316Y102985
X082316Y100953
X082661Y096450
X083332Y106668
X083332Y104001
X083332Y101969
X084348Y106795
X084348Y105017
X084348Y102985
X084348Y100953
X084874Y096625
X085237Y104001
X085237Y101969
X085237Y099302
X085364Y106668
X085725Y091500
X086507Y106795
X086576Y097199
X086649Y094225
X087015Y104890
X087015Y102985
X087015Y100953
X087523Y106287
X087650Y099556
X087800Y091573
X087904Y103874
X088031Y101842
X088524Y094774
X089199Y096801
X090088Y092485
X090474Y104758
X090927Y097794
X091005Y107933
X092125Y094748
X092125Y095599
X092209Y091479
X093164Y091467
X094008Y097370
X095826Y100859
X095974Y105945
X096032Y091479
X096032Y093079
X096068Y095619
X097061Y107682
X097454Y098538
X098160Y101078
X098732Y091370
X098925Y102117
X098978Y104817
X099019Y106674
X099532Y097362
X100223Y092828
X100228Y093687
X101198Y102678
X101323Y093344
X101544Y101037
X102067Y104278
X102763Y092500
X103322Y097867
X104411Y094162
X105956Y095929
X106885Y097329
T11
X052164Y026705
X049411Y029100
X046281Y030357
X042652Y030738
X063835Y014294
X066588Y011899
X069718Y010642
X073347Y010261
X052164Y053705
X049411Y056100
X046281Y057357
X042652Y057738
X063835Y041294
X066588Y038899
X069718Y037642
X073347Y037261
X052164Y080705
X049411Y083100
X046281Y084357
X042652Y084738
X052164Y107705
X049411Y110100
X046281Y111357
X042652Y111738
X063835Y068294
X066588Y065899
X069718Y064641
X073347Y064260
X063835Y095294
X066588Y092899
X069718Y091642
X073347Y091261
X015583Y015323G85X014483Y015323
X015583Y023964G85X014483Y023964
X011153Y015323G85X010554Y015323
X011153Y023964G85X010554Y023964
X010086Y016148G85X009388Y016148
X009388Y023149G85X010086Y023149
X100416Y025676G85X101516Y025676
X100416Y017035G85X101516Y017035
X104846Y025676G85X105445Y025676
X104846Y017035G85X105445Y017035
X105913Y024851G85X106611Y024851
X106611Y017850G85X105913Y017850
X015583Y042323G85X014483Y042323
X015583Y050964G85X014483Y050964
X011153Y042323G85X010554Y042323
X011153Y050964G85X010554Y050964
X010086Y043148G85X009388Y043148
X009388Y050149G85X010086Y050149
X100416Y052676G85X101516Y052676
X100416Y044035G85X101516Y044035
X104846Y052676G85X105445Y052676
X104846Y044035G85X105445Y044035
X105913Y051851G85X106611Y051851
X106611Y044850G85X105913Y044850
X015583Y069323G85X014483Y069323
X015583Y077964G85X014483Y077964
X011153Y069323G85X010554Y069323
X011153Y077964G85X010554Y077964
X010086Y070148G85X009388Y070148
X009388Y077149G85X010086Y077149
X015583Y096323G85X014483Y096323
X015583Y104964G85X014483Y104964
X011153Y096323G85X010554Y096323
X011153Y104964G85X010554Y104964
X010086Y097148G85X009388Y097148
X009388Y104149G85X010086Y104149
X100416Y079676G85X101516Y079676
X100416Y071035G85X101516Y071035
X104846Y079676G85X105445Y079676
X104846Y071035G85X105445Y071035
X105913Y078851G85X106611Y078851
X106611Y071850G85X105913Y071850
X100416Y106676G85X101516Y106676
X100416Y098035G85X101516Y098035
X104846Y106676G85X105445Y106676
X104846Y098035G85X105445Y098035
X105913Y105851G85X106611Y105851
X106611Y098850G85X105913Y098850
T12
X014503Y016753
X014503Y022534
X101496Y024246
X101496Y018465
X014503Y043753
X014503Y049534
X101496Y051246
X101496Y045465
X014503Y070753
X014503Y076534
X014503Y097753
X014503Y103534
X101496Y078246
X101496Y072465
X101496Y105246
X101496Y099465
T13
X012436Y017149
X012436Y022150
X103563Y023850
X103563Y018849
X012436Y044149
X012436Y049150
X103563Y050850
X103563Y045849
X012436Y071149
X012436Y076150
X012436Y098149
X012436Y103150
X103563Y077850
X103563Y072849
X103563Y104850
X103563Y099849
T14
X046167Y025966
X043627Y025966
X039716Y030649
X037176Y030649
X023249Y014508
X020709Y014508
X069832Y015033
X072372Y015033
X076283Y010350
X078823Y010350
X092750Y026491
X095290Y026491
X046167Y052966
X043627Y052966
X039716Y057649
X037176Y057649
X023249Y041508
X020709Y041508
X069832Y042033
X072372Y042033
X076283Y037350
X078823Y037350
X092750Y053491
X095290Y053491
X046167Y079966
X043627Y079966
X039716Y084649
X037176Y084649
X023249Y068508
X020709Y068508
X046167Y106966
X043627Y106966
X039716Y111649
X037176Y111649
X023249Y095508
X020709Y095508
X069832Y069033
X072372Y069033
X076283Y064349
X078823Y064349
X092750Y080491
X095290Y080491
X069832Y096033
X072372Y096033
X076283Y091350
X078823Y091350
X092750Y107491
X095290Y107491
M30