%MOIN*%
%OFA0B0*%
%FSLAX46Y46*%
%IPPOS*%
%LPD*%
%ADD10C,0.0039370078740157488*%
%ADD11O,0.066929133858267723X0.066929133858267723*%
%ADD12R,0.066929133858267723X0.066929133858267723*%
%ADD13R,0.074803149606299218X0.059055118110236227*%
%ADD14C,0.057086614173228349*%
%ADD15R,0.053149606299212608X0.015748031496062995*%
%ADD16O,0.074803149606299218X0.047244094488188976*%
%ADD17R,0.074803149606299218X0.047244094488188976*%
%ADD18O,0.062992125984251982X0.03937007874015748*%
%ADD19C,0.025590551181102365*%
%ADD20O,0.082677165354330714X0.03937007874015748*%
%ADD31C,0.0039370078740157488*%
%ADD32O,0.066929133858267723X0.066929133858267723*%
%ADD33R,0.066929133858267723X0.066929133858267723*%
%ADD34R,0.074803149606299218X0.059055118110236227*%
%ADD35C,0.057086614173228349*%
%ADD36R,0.053149606299212608X0.015748031496062995*%
%ADD37O,0.074803149606299218X0.047244094488188976*%
%ADD38R,0.074803149606299218X0.047244094488188976*%
%ADD39O,0.062992125984251982X0.03937007874015748*%
%ADD40C,0.025590551181102365*%
%ADD41O,0.082677165354330714X0.03937007874015748*%
%ADD42C,0.0039370078740157488*%
%ADD43O,0.066929133858267723X0.066929133858267723*%
%ADD44R,0.066929133858267723X0.066929133858267723*%
%ADD45R,0.074803149606299218X0.059055118110236227*%
%ADD46C,0.057086614173228349*%
%ADD47R,0.053149606299212608X0.015748031496062995*%
%ADD48O,0.074803149606299218X0.047244094488188976*%
%ADD49R,0.074803149606299218X0.047244094488188976*%
%ADD50O,0.062992125984251982X0.03937007874015748*%
%ADD51C,0.025590551181102365*%
%ADD52O,0.082677165354330714X0.03937007874015748*%
%ADD53C,0.0039370078740157488*%
%ADD54O,0.066929133858267723X0.066929133858267723*%
%ADD55R,0.066929133858267723X0.066929133858267723*%
%ADD56R,0.074803149606299218X0.059055118110236227*%
%ADD57C,0.057086614173228349*%
%ADD58R,0.053149606299212608X0.015748031496062995*%
%ADD59O,0.074803149606299218X0.047244094488188976*%
%ADD60R,0.074803149606299218X0.047244094488188976*%
%ADD61O,0.062992125984251982X0.03937007874015748*%
%ADD62C,0.025590551181102365*%
%ADD63O,0.082677165354330714X0.03937007874015748*%
%ADD64C,0.0039370078740157488*%
%ADD65O,0.066929133858267723X0.066929133858267723*%
%ADD66R,0.066929133858267723X0.066929133858267723*%
%ADD67R,0.074803149606299218X0.059055118110236227*%
%ADD68C,0.057086614173228349*%
%ADD69R,0.053149606299212608X0.015748031496062995*%
%ADD70O,0.074803149606299218X0.047244094488188976*%
%ADD71R,0.074803149606299218X0.047244094488188976*%
%ADD72O,0.062992125984251982X0.03937007874015748*%
%ADD73C,0.025590551181102365*%
%ADD74O,0.082677165354330714X0.03937007874015748*%
%ADD75C,0.0039370078740157488*%
%ADD76O,0.066929133858267723X0.066929133858267723*%
%ADD77R,0.066929133858267723X0.066929133858267723*%
%ADD78R,0.074803149606299218X0.059055118110236227*%
%ADD79C,0.057086614173228349*%
%ADD80R,0.053149606299212608X0.015748031496062995*%
%ADD81O,0.074803149606299218X0.047244094488188976*%
%ADD82R,0.074803149606299218X0.047244094488188976*%
%ADD83O,0.062992125984251982X0.03937007874015748*%
%ADD84C,0.025590551181102365*%
%ADD85O,0.082677165354330714X0.03937007874015748*%
%ADD86C,0.0039370078740157488*%
%ADD87O,0.066929133858267723X0.066929133858267723*%
%ADD88R,0.066929133858267723X0.066929133858267723*%
%ADD89R,0.074803149606299218X0.059055118110236227*%
%ADD90C,0.057086614173228349*%
%ADD91R,0.053149606299212608X0.015748031496062995*%
%ADD92O,0.074803149606299218X0.047244094488188976*%
%ADD93R,0.074803149606299218X0.047244094488188976*%
%ADD94O,0.062992125984251982X0.03937007874015748*%
%ADD95C,0.025590551181102365*%
%ADD96O,0.082677165354330714X0.03937007874015748*%
%ADD97C,0.0039370078740157488*%
%ADD98O,0.066929133858267723X0.066929133858267723*%
%ADD99R,0.066929133858267723X0.066929133858267723*%
%ADD100R,0.074803149606299218X0.059055118110236227*%
%ADD101C,0.057086614173228349*%
%ADD102R,0.053149606299212608X0.015748031496062995*%
%ADD103O,0.074803149606299218X0.047244094488188976*%
%ADD104R,0.074803149606299218X0.047244094488188976*%
%ADD105O,0.062992125984251982X0.03937007874015748*%
%ADD106C,0.025590551181102365*%
%ADD107O,0.082677165354330714X0.03937007874015748*%
%ADD108C,0.11811023622047245*%
G01*
D10*
G36*
X0002057513Y0000987837D02*
G01*
X0002045627Y0000998168D01*
X0002045823Y0000998393D01*
X0002045255Y0000998718D01*
X0002043995Y0000999613D01*
X0002042828Y0001000627D01*
X0002041767Y0001001750D01*
X0002040821Y0001002972D01*
X0002039999Y0001004281D01*
X0002039309Y0001005664D01*
X0002038759Y0001007108D01*
X0002038352Y0001008599D01*
X0002038094Y0001010123D01*
X0002037986Y0001011664D01*
X0002038030Y0001013209D01*
X0002038225Y0001014742D01*
X0002038569Y0001016249D01*
X0002039060Y0001017714D01*
X0002039691Y0001019125D01*
X0002040458Y0001020467D01*
X0002041353Y0001021727D01*
X0002042367Y0001022893D01*
X0002043490Y0001023954D01*
X0002044712Y0001024901D01*
X0002046021Y0001025722D01*
X0002047404Y0001026412D01*
X0002048848Y0001026963D01*
X0002050339Y0001027369D01*
X0002050927Y0001027469D01*
X0002040132Y0001036854D01*
X0002056920Y0001056167D01*
X0002091090Y0001026464D01*
X0002057513Y0000987837D01*
G37*
G36*
X0001971792Y0001096261D02*
G01*
X0001960996Y0001105645D01*
X0001960979Y0001105048D01*
X0001960784Y0001103515D01*
X0001960440Y0001102009D01*
X0001959949Y0001100543D01*
X0001959318Y0001099133D01*
X0001958551Y0001097791D01*
X0001957656Y0001096531D01*
X0001956642Y0001095365D01*
X0001955519Y0001094303D01*
X0001954297Y0001093357D01*
X0001952988Y0001092535D01*
X0001951605Y0001091846D01*
X0001950161Y0001091295D01*
X0001948670Y0001090888D01*
X0001947146Y0001090630D01*
X0001945605Y0001090522D01*
X0001944060Y0001090566D01*
X0001942527Y0001090761D01*
X0001941020Y0001091105D01*
X0001939555Y0001091596D01*
X0001938144Y0001092227D01*
X0001936802Y0001092994D01*
X0001935542Y0001093889D01*
X0001934376Y0001094903D01*
X0001933314Y0001096026D01*
X0001932914Y0001096544D01*
X0001932718Y0001096319D01*
X0001920833Y0001106651D01*
X0001954411Y0001145277D01*
X0001988581Y0001115574D01*
X0001971792Y0001096261D01*
G37*
D11*
X0001817623Y0000982914D03*
D12*
X0001717623Y0000982914D03*
D13*
X0000383366Y0000773622D03*
D14*
X0000489665Y0000635826D03*
D15*
X0000489665Y0000708661D03*
X0000489665Y0000683070D03*
X0000489665Y0000785433D03*
X0000489665Y0000759842D03*
X0000489665Y0000734251D03*
D14*
X0000489665Y0000832677D03*
D13*
X0000383366Y0000694881D03*
D16*
X0000383366Y0000596456D03*
X0000383366Y0000872047D03*
D17*
X0000383366Y0000848425D03*
X0000383366Y0000620078D03*
D11*
X0000915323Y0000531814D03*
D12*
X0000815323Y0000531814D03*
D11*
X0001563582Y0001167322D03*
D12*
X0001463582Y0001167322D03*
D10*
G36*
X0001839070Y0001138172D02*
G01*
X0001823409Y0001139818D01*
X0001823440Y0001140115D01*
X0001822788Y0001140055D01*
X0001821242Y0001140065D01*
X0001819706Y0001140227D01*
X0001818192Y0001140538D01*
X0001816716Y0001140996D01*
X0001815292Y0001141597D01*
X0001813934Y0001142334D01*
X0001812655Y0001143201D01*
X0001811466Y0001144190D01*
X0001810381Y0001145290D01*
X0001809408Y0001146491D01*
X0001808558Y0001147781D01*
X0001807838Y0001149149D01*
X0001807256Y0001150580D01*
X0001806817Y0001152062D01*
X0001806526Y0001153580D01*
X0001806384Y0001155119D01*
X0001806395Y0001156664D01*
X0001806556Y0001158201D01*
X0001806867Y0001159715D01*
X0001807326Y0001161191D01*
X0001807926Y0001162615D01*
X0001808664Y0001163973D01*
X0001809531Y0001165252D01*
X0001810519Y0001166441D01*
X0001810944Y0001166860D01*
X0001796718Y0001168355D01*
X0001799393Y0001193805D01*
X0001844420Y0001189073D01*
X0001839070Y0001138172D01*
G37*
G36*
X0001706663Y0001177820D02*
G01*
X0001692436Y0001179315D01*
X0001692765Y0001178817D01*
X0001693484Y0001177449D01*
X0001694066Y0001176018D01*
X0001694505Y0001174536D01*
X0001694797Y0001173018D01*
X0001694938Y0001171479D01*
X0001694928Y0001169934D01*
X0001694767Y0001168397D01*
X0001694455Y0001166883D01*
X0001693997Y0001165407D01*
X0001693396Y0001163983D01*
X0001692659Y0001162625D01*
X0001691792Y0001161346D01*
X0001690804Y0001160158D01*
X0001689704Y0001159072D01*
X0001688503Y0001158099D01*
X0001687212Y0001157249D01*
X0001685844Y0001156530D01*
X0001684413Y0001155948D01*
X0001682931Y0001155509D01*
X0001681413Y0001155217D01*
X0001679874Y0001155076D01*
X0001678329Y0001155086D01*
X0001676792Y0001155247D01*
X0001675278Y0001155559D01*
X0001674653Y0001155753D01*
X0001674622Y0001155456D01*
X0001658960Y0001157102D01*
X0001664310Y0001208003D01*
X0001709338Y0001203271D01*
X0001706663Y0001177820D01*
G37*
D18*
X0000427285Y0000563935D03*
D19*
X0000570985Y0000620234D03*
D18*
X0000427285Y0000904092D03*
D19*
X0000570985Y0000847793D03*
D20*
X0000591851Y0000904092D03*
X0000591851Y0000563935D03*
G04 next file*
G04 Gerber Fmt 4.6, Leading zero omitted, Abs format (unit mm)*
G04 Created by KiCad (PCBNEW (5.1.10)-1) date 2021-07-16 00:37:02*
G01*
G04 APERTURE LIST*
G04 APERTURE END LIST*
D31*
G36*
X0002509416Y0000547595D02*
G01*
X0002521301Y0000537264D01*
X0002521105Y0000537039D01*
X0002521673Y0000536714D01*
X0002522934Y0000535819D01*
X0002524100Y0000534805D01*
X0002525161Y0000533682D01*
X0002526107Y0000532460D01*
X0002526929Y0000531151D01*
X0002527619Y0000529768D01*
X0002528170Y0000528324D01*
X0002528576Y0000526833D01*
X0002528834Y0000525309D01*
X0002528942Y0000523768D01*
X0002528898Y0000522223D01*
X0002528703Y0000520690D01*
X0002528359Y0000519183D01*
X0002527869Y0000517718D01*
X0002527237Y0000516307D01*
X0002526470Y0000514965D01*
X0002525575Y0000513705D01*
X0002524562Y0000512539D01*
X0002523438Y0000511478D01*
X0002522216Y0000510531D01*
X0002520907Y0000509710D01*
X0002519524Y0000509020D01*
X0002518080Y0000508469D01*
X0002516589Y0000508063D01*
X0002516001Y0000507963D01*
X0002526797Y0000498578D01*
X0002510008Y0000479265D01*
X0002475838Y0000508969D01*
X0002509416Y0000547595D01*
G37*
G36*
X0002595136Y0000439172D02*
G01*
X0002605932Y0000429787D01*
X0002605949Y0000430384D01*
X0002606144Y0000431917D01*
X0002606488Y0000433423D01*
X0002606979Y0000434889D01*
X0002607611Y0000436299D01*
X0002608377Y0000437641D01*
X0002609272Y0000438901D01*
X0002610286Y0000440068D01*
X0002611409Y0000441129D01*
X0002612631Y0000442075D01*
X0002613940Y0000442897D01*
X0002615323Y0000443586D01*
X0002616767Y0000444137D01*
X0002618258Y0000444544D01*
X0002619782Y0000444802D01*
X0002621324Y0000444910D01*
X0002622868Y0000444866D01*
X0002624401Y0000444671D01*
X0002625908Y0000444327D01*
X0002627374Y0000443836D01*
X0002628784Y0000443205D01*
X0002630126Y0000442438D01*
X0002631386Y0000441543D01*
X0002632552Y0000440529D01*
X0002633614Y0000439406D01*
X0002634014Y0000438888D01*
X0002634210Y0000439113D01*
X0002646095Y0000428782D01*
X0002612517Y0000390155D01*
X0002578347Y0000419858D01*
X0002595136Y0000439172D01*
G37*
D32*
X0002749305Y0000552518D03*
D33*
X0002849305Y0000552518D03*
D34*
X0004183562Y0000761810D03*
D35*
X0004077263Y0000899606D03*
D36*
X0004077263Y0000826771D03*
X0004077263Y0000852362D03*
X0004077263Y0000749999D03*
X0004077263Y0000775590D03*
X0004077263Y0000801181D03*
D35*
X0004077263Y0000702755D03*
D34*
X0004183562Y0000840551D03*
D37*
X0004183562Y0000938976D03*
X0004183562Y0000663385D03*
D38*
X0004183562Y0000687007D03*
X0004183562Y0000915354D03*
D32*
X0003651605Y0001003618D03*
D33*
X0003751605Y0001003618D03*
D32*
X0003003346Y0000368110D03*
D33*
X0003103346Y0000368110D03*
D31*
G36*
X0002727858Y0000397260D02*
G01*
X0002743520Y0000395614D01*
X0002743488Y0000395317D01*
X0002744140Y0000395377D01*
X0002745686Y0000395367D01*
X0002747223Y0000395206D01*
X0002748736Y0000394894D01*
X0002750212Y0000394436D01*
X0002751636Y0000393835D01*
X0002752994Y0000393098D01*
X0002754274Y0000392231D01*
X0002755462Y0000391242D01*
X0002756547Y0000390143D01*
X0002757520Y0000388942D01*
X0002758370Y0000387651D01*
X0002759090Y0000386283D01*
X0002759672Y0000384852D01*
X0002760111Y0000383370D01*
X0002760402Y0000381852D01*
X0002760544Y0000380313D01*
X0002760534Y0000378768D01*
X0002760372Y0000377231D01*
X0002760061Y0000375717D01*
X0002759602Y0000374241D01*
X0002759002Y0000372817D01*
X0002758264Y0000371459D01*
X0002757397Y0000370180D01*
X0002756409Y0000368992D01*
X0002755984Y0000368572D01*
X0002770210Y0000367077D01*
X0002767535Y0000341627D01*
X0002722508Y0000346359D01*
X0002727858Y0000397260D01*
G37*
G36*
X0002860266Y0000357612D02*
G01*
X0002874492Y0000356117D01*
X0002874163Y0000356615D01*
X0002873444Y0000357983D01*
X0002872862Y0000359414D01*
X0002872423Y0000360896D01*
X0002872131Y0000362414D01*
X0002871990Y0000363953D01*
X0002872000Y0000365498D01*
X0002872161Y0000367035D01*
X0002872473Y0000368549D01*
X0002872931Y0000370025D01*
X0002873532Y0000371449D01*
X0002874269Y0000372807D01*
X0002875136Y0000374086D01*
X0002876125Y0000375275D01*
X0002877224Y0000376360D01*
X0002878425Y0000377333D01*
X0002879716Y0000378183D01*
X0002881084Y0000378902D01*
X0002882515Y0000379485D01*
X0002883997Y0000379923D01*
X0002885515Y0000380215D01*
X0002887054Y0000380356D01*
X0002888599Y0000380346D01*
X0002890136Y0000380185D01*
X0002891650Y0000379873D01*
X0002892275Y0000379679D01*
X0002892306Y0000379976D01*
X0002907968Y0000378330D01*
X0002902618Y0000327429D01*
X0002857591Y0000332161D01*
X0002860266Y0000357612D01*
G37*
D39*
X0004139644Y0000971497D03*
D40*
X0003995943Y0000915198D03*
D39*
X0004139644Y0000631340D03*
D40*
X0003995943Y0000687639D03*
D41*
X0003975077Y0000631340D03*
X0003975077Y0000971497D03*
G04 next file*
G04 Gerber Fmt 4.6, Leading zero omitted, Abs format (unit mm)*
G04 Created by KiCad (PCBNEW (5.1.10)-1) date 2021-07-16 00:37:02*
G01*
G04 APERTURE LIST*
G04 APERTURE END LIST*
D42*
G36*
X0002057513Y0002011459D02*
G01*
X0002045627Y0002021790D01*
X0002045823Y0002022015D01*
X0002045255Y0002022340D01*
X0002043995Y0002023235D01*
X0002042828Y0002024249D01*
X0002041767Y0002025372D01*
X0002040821Y0002026594D01*
X0002039999Y0002027903D01*
X0002039309Y0002029286D01*
X0002038759Y0002030730D01*
X0002038352Y0002032221D01*
X0002038094Y0002033745D01*
X0002037986Y0002035286D01*
X0002038030Y0002036831D01*
X0002038225Y0002038364D01*
X0002038569Y0002039871D01*
X0002039060Y0002041336D01*
X0002039691Y0002042747D01*
X0002040458Y0002044089D01*
X0002041353Y0002045349D01*
X0002042367Y0002046515D01*
X0002043490Y0002047576D01*
X0002044712Y0002048523D01*
X0002046021Y0002049344D01*
X0002047404Y0002050034D01*
X0002048848Y0002050585D01*
X0002050339Y0002050991D01*
X0002050927Y0002051091D01*
X0002040132Y0002060476D01*
X0002056920Y0002079789D01*
X0002091090Y0002050086D01*
X0002057513Y0002011459D01*
G37*
G36*
X0001971792Y0002119883D02*
G01*
X0001960996Y0002129267D01*
X0001960979Y0002128671D01*
X0001960784Y0002127137D01*
X0001960440Y0002125631D01*
X0001959949Y0002124165D01*
X0001959318Y0002122755D01*
X0001958551Y0002121413D01*
X0001957656Y0002120153D01*
X0001956642Y0002118987D01*
X0001955519Y0002117925D01*
X0001954297Y0002116979D01*
X0001952988Y0002116157D01*
X0001951605Y0002115468D01*
X0001950161Y0002114917D01*
X0001948670Y0002114510D01*
X0001947146Y0002114252D01*
X0001945605Y0002114144D01*
X0001944060Y0002114188D01*
X0001942527Y0002114383D01*
X0001941020Y0002114728D01*
X0001939555Y0002115218D01*
X0001938144Y0002115850D01*
X0001936802Y0002116616D01*
X0001935542Y0002117511D01*
X0001934376Y0002118525D01*
X0001933314Y0002119648D01*
X0001932914Y0002120166D01*
X0001932718Y0002119941D01*
X0001920833Y0002130273D01*
X0001954411Y0002168899D01*
X0001988581Y0002139196D01*
X0001971792Y0002119883D01*
G37*
D43*
X0001817623Y0002006536D03*
D44*
X0001717623Y0002006536D03*
D45*
X0000383366Y0001797244D03*
D46*
X0000489665Y0001659448D03*
D47*
X0000489665Y0001732283D03*
X0000489665Y0001706692D03*
X0000489665Y0001809055D03*
X0000489665Y0001783464D03*
X0000489665Y0001757874D03*
D46*
X0000489665Y0001856299D03*
D45*
X0000383366Y0001718503D03*
D48*
X0000383366Y0001620078D03*
X0000383366Y0001895669D03*
D49*
X0000383366Y0001872047D03*
X0000383366Y0001643700D03*
D43*
X0000915323Y0001555436D03*
D44*
X0000815323Y0001555436D03*
D43*
X0001563582Y0002190944D03*
D44*
X0001463582Y0002190944D03*
D42*
G36*
X0001839070Y0002161794D02*
G01*
X0001823409Y0002163440D01*
X0001823440Y0002163737D01*
X0001822788Y0002163677D01*
X0001821242Y0002163687D01*
X0001819706Y0002163849D01*
X0001818192Y0002164160D01*
X0001816716Y0002164618D01*
X0001815292Y0002165219D01*
X0001813934Y0002165956D01*
X0001812655Y0002166823D01*
X0001811466Y0002167812D01*
X0001810381Y0002168912D01*
X0001809408Y0002170113D01*
X0001808558Y0002171403D01*
X0001807838Y0002172771D01*
X0001807256Y0002174202D01*
X0001806817Y0002175684D01*
X0001806526Y0002177202D01*
X0001806384Y0002178741D01*
X0001806395Y0002180286D01*
X0001806556Y0002181823D01*
X0001806867Y0002183337D01*
X0001807326Y0002184813D01*
X0001807926Y0002186237D01*
X0001808664Y0002187595D01*
X0001809531Y0002188874D01*
X0001810519Y0002190063D01*
X0001810944Y0002190482D01*
X0001796718Y0002191977D01*
X0001799393Y0002217427D01*
X0001844420Y0002212695D01*
X0001839070Y0002161794D01*
G37*
G36*
X0001706663Y0002201442D02*
G01*
X0001692436Y0002202938D01*
X0001692765Y0002202439D01*
X0001693484Y0002201071D01*
X0001694066Y0002199640D01*
X0001694505Y0002198158D01*
X0001694797Y0002196640D01*
X0001694938Y0002195101D01*
X0001694928Y0002193556D01*
X0001694767Y0002192019D01*
X0001694455Y0002190505D01*
X0001693997Y0002189029D01*
X0001693396Y0002187605D01*
X0001692659Y0002186247D01*
X0001691792Y0002184968D01*
X0001690804Y0002183780D01*
X0001689704Y0002182694D01*
X0001688503Y0002181721D01*
X0001687212Y0002180871D01*
X0001685844Y0002180152D01*
X0001684413Y0002179570D01*
X0001682931Y0002179131D01*
X0001681413Y0002178839D01*
X0001679874Y0002178698D01*
X0001678329Y0002178708D01*
X0001676792Y0002178869D01*
X0001675278Y0002179181D01*
X0001674653Y0002179375D01*
X0001674622Y0002179078D01*
X0001658960Y0002180725D01*
X0001664310Y0002231625D01*
X0001709338Y0002226893D01*
X0001706663Y0002201442D01*
G37*
D50*
X0000427285Y0001587557D03*
D51*
X0000570985Y0001643856D03*
D50*
X0000427285Y0001927714D03*
D51*
X0000570985Y0001871415D03*
D52*
X0000591851Y0001927714D03*
X0000591851Y0001587557D03*
G04 next file*
G04 Gerber Fmt 4.6, Leading zero omitted, Abs format (unit mm)*
G04 Created by KiCad (PCBNEW (5.1.10)-1) date 2021-07-16 00:37:02*
G01*
G04 APERTURE LIST*
G04 APERTURE END LIST*
D53*
G36*
X0002509416Y0001571217D02*
G01*
X0002521301Y0001560886D01*
X0002521105Y0001560661D01*
X0002521673Y0001560336D01*
X0002522934Y0001559441D01*
X0002524100Y0001558427D01*
X0002525161Y0001557304D01*
X0002526107Y0001556082D01*
X0002526929Y0001554773D01*
X0002527619Y0001553390D01*
X0002528170Y0001551946D01*
X0002528576Y0001550455D01*
X0002528834Y0001548931D01*
X0002528942Y0001547390D01*
X0002528898Y0001545845D01*
X0002528703Y0001544312D01*
X0002528359Y0001542805D01*
X0002527869Y0001541340D01*
X0002527237Y0001539929D01*
X0002526470Y0001538587D01*
X0002525575Y0001537327D01*
X0002524562Y0001536161D01*
X0002523438Y0001535100D01*
X0002522216Y0001534154D01*
X0002520907Y0001533332D01*
X0002519524Y0001532642D01*
X0002518080Y0001532092D01*
X0002516589Y0001531685D01*
X0002516001Y0001531585D01*
X0002526797Y0001522201D01*
X0002510008Y0001502887D01*
X0002475838Y0001532591D01*
X0002509416Y0001571217D01*
G37*
G36*
X0002595136Y0001462794D02*
G01*
X0002605932Y0001453409D01*
X0002605949Y0001454006D01*
X0002606144Y0001455539D01*
X0002606488Y0001457045D01*
X0002606979Y0001458511D01*
X0002607611Y0001459921D01*
X0002608377Y0001461263D01*
X0002609272Y0001462523D01*
X0002610286Y0001463690D01*
X0002611409Y0001464751D01*
X0002612631Y0001465697D01*
X0002613940Y0001466519D01*
X0002615323Y0001467208D01*
X0002616767Y0001467759D01*
X0002618258Y0001468166D01*
X0002619782Y0001468424D01*
X0002621324Y0001468532D01*
X0002622868Y0001468488D01*
X0002624401Y0001468293D01*
X0002625908Y0001467949D01*
X0002627374Y0001467458D01*
X0002628784Y0001466827D01*
X0002630126Y0001466060D01*
X0002631386Y0001465165D01*
X0002632552Y0001464151D01*
X0002633614Y0001463028D01*
X0002634014Y0001462510D01*
X0002634210Y0001462735D01*
X0002646095Y0001452404D01*
X0002612517Y0001413777D01*
X0002578347Y0001443480D01*
X0002595136Y0001462794D01*
G37*
D54*
X0002749305Y0001576140D03*
D55*
X0002849305Y0001576140D03*
D56*
X0004183562Y0001785433D03*
D57*
X0004077263Y0001923228D03*
D58*
X0004077263Y0001850393D03*
X0004077263Y0001875984D03*
X0004077263Y0001773622D03*
X0004077263Y0001799212D03*
X0004077263Y0001824803D03*
D57*
X0004077263Y0001726377D03*
D56*
X0004183562Y0001864173D03*
D59*
X0004183562Y0001962598D03*
X0004183562Y0001687007D03*
D60*
X0004183562Y0001710629D03*
X0004183562Y0001938976D03*
D54*
X0003651605Y0002027240D03*
D55*
X0003751605Y0002027240D03*
D54*
X0003003346Y0001391732D03*
D55*
X0003103346Y0001391732D03*
D53*
G36*
X0002727858Y0001420882D02*
G01*
X0002743520Y0001419236D01*
X0002743488Y0001418939D01*
X0002744140Y0001418999D01*
X0002745686Y0001418989D01*
X0002747223Y0001418828D01*
X0002748736Y0001418516D01*
X0002750212Y0001418058D01*
X0002751636Y0001417457D01*
X0002752994Y0001416720D01*
X0002754274Y0001415853D01*
X0002755462Y0001414865D01*
X0002756547Y0001413765D01*
X0002757520Y0001412564D01*
X0002758370Y0001411273D01*
X0002759090Y0001409905D01*
X0002759672Y0001408474D01*
X0002760111Y0001406992D01*
X0002760402Y0001405474D01*
X0002760544Y0001403935D01*
X0002760534Y0001402390D01*
X0002760372Y0001400853D01*
X0002760061Y0001399339D01*
X0002759602Y0001397863D01*
X0002759002Y0001396439D01*
X0002758264Y0001395081D01*
X0002757397Y0001393802D01*
X0002756409Y0001392614D01*
X0002755984Y0001392194D01*
X0002770210Y0001390699D01*
X0002767535Y0001365249D01*
X0002722508Y0001369981D01*
X0002727858Y0001420882D01*
G37*
G36*
X0002860266Y0001381234D02*
G01*
X0002874492Y0001379739D01*
X0002874163Y0001380237D01*
X0002873444Y0001381605D01*
X0002872862Y0001383036D01*
X0002872423Y0001384518D01*
X0002872131Y0001386036D01*
X0002871990Y0001387575D01*
X0002872000Y0001389120D01*
X0002872161Y0001390657D01*
X0002872473Y0001392171D01*
X0002872931Y0001393647D01*
X0002873532Y0001395071D01*
X0002874269Y0001396429D01*
X0002875136Y0001397708D01*
X0002876125Y0001398897D01*
X0002877224Y0001399982D01*
X0002878425Y0001400955D01*
X0002879716Y0001401805D01*
X0002881084Y0001402524D01*
X0002882515Y0001403107D01*
X0002883997Y0001403545D01*
X0002885515Y0001403837D01*
X0002887054Y0001403978D01*
X0002888599Y0001403968D01*
X0002890136Y0001403807D01*
X0002891650Y0001403495D01*
X0002892275Y0001403301D01*
X0002892306Y0001403598D01*
X0002907968Y0001401952D01*
X0002902618Y0001351051D01*
X0002857591Y0001355784D01*
X0002860266Y0001381234D01*
G37*
D61*
X0004139644Y0001995119D03*
D62*
X0003995943Y0001938820D03*
D61*
X0004139644Y0001654962D03*
D62*
X0003995943Y0001711261D03*
D63*
X0003975077Y0001654962D03*
X0003975077Y0001995119D03*
G04 next file*
G04 Gerber Fmt 4.6, Leading zero omitted, Abs format (unit mm)*
G04 Created by KiCad (PCBNEW (5.1.10)-1) date 2021-07-16 00:37:02*
G01*
G04 APERTURE LIST*
G04 APERTURE END LIST*
D64*
G36*
X0002057513Y0003035081D02*
G01*
X0002045627Y0003045412D01*
X0002045823Y0003045637D01*
X0002045255Y0003045962D01*
X0002043995Y0003046857D01*
X0002042828Y0003047871D01*
X0002041767Y0003048994D01*
X0002040821Y0003050216D01*
X0002039999Y0003051525D01*
X0002039309Y0003052908D01*
X0002038759Y0003054352D01*
X0002038352Y0003055843D01*
X0002038094Y0003057367D01*
X0002037986Y0003058908D01*
X0002038030Y0003060453D01*
X0002038225Y0003061986D01*
X0002038569Y0003063493D01*
X0002039060Y0003064958D01*
X0002039691Y0003066369D01*
X0002040458Y0003067711D01*
X0002041353Y0003068971D01*
X0002042367Y0003070137D01*
X0002043490Y0003071199D01*
X0002044712Y0003072145D01*
X0002046021Y0003072966D01*
X0002047404Y0003073656D01*
X0002048848Y0003074207D01*
X0002050339Y0003074613D01*
X0002050927Y0003074713D01*
X0002040132Y0003084098D01*
X0002056920Y0003103411D01*
X0002091090Y0003073708D01*
X0002057513Y0003035081D01*
G37*
G36*
X0001971792Y0003143505D02*
G01*
X0001960996Y0003152889D01*
X0001960979Y0003152293D01*
X0001960784Y0003150759D01*
X0001960440Y0003149253D01*
X0001959949Y0003147787D01*
X0001959318Y0003146377D01*
X0001958551Y0003145035D01*
X0001957656Y0003143775D01*
X0001956642Y0003142609D01*
X0001955519Y0003141547D01*
X0001954297Y0003140601D01*
X0001952988Y0003139779D01*
X0001951605Y0003139090D01*
X0001950161Y0003138539D01*
X0001948670Y0003138133D01*
X0001947146Y0003137874D01*
X0001945605Y0003137766D01*
X0001944060Y0003137810D01*
X0001942527Y0003138005D01*
X0001941020Y0003138350D01*
X0001939555Y0003138840D01*
X0001938144Y0003139472D01*
X0001936802Y0003140238D01*
X0001935542Y0003141133D01*
X0001934376Y0003142147D01*
X0001933314Y0003143270D01*
X0001932914Y0003143788D01*
X0001932718Y0003143563D01*
X0001920833Y0003153895D01*
X0001954411Y0003192522D01*
X0001988581Y0003162818D01*
X0001971792Y0003143505D01*
G37*
D65*
X0001817623Y0003030158D03*
D66*
X0001717623Y0003030158D03*
D67*
X0000383366Y0002820866D03*
D68*
X0000489665Y0002683070D03*
D69*
X0000489665Y0002755905D03*
X0000489665Y0002730314D03*
X0000489665Y0002832677D03*
X0000489665Y0002807086D03*
X0000489665Y0002781496D03*
D68*
X0000489665Y0002879921D03*
D67*
X0000383366Y0002742125D03*
D70*
X0000383366Y0002643700D03*
X0000383366Y0002919291D03*
D71*
X0000383366Y0002895669D03*
X0000383366Y0002667322D03*
D65*
X0000915323Y0002579058D03*
D66*
X0000815323Y0002579058D03*
D65*
X0001563582Y0003214566D03*
D66*
X0001463582Y0003214566D03*
D64*
G36*
X0001839070Y0003185416D02*
G01*
X0001823409Y0003187062D01*
X0001823440Y0003187359D01*
X0001822788Y0003187299D01*
X0001821242Y0003187309D01*
X0001819706Y0003187471D01*
X0001818192Y0003187782D01*
X0001816716Y0003188240D01*
X0001815292Y0003188841D01*
X0001813934Y0003189578D01*
X0001812655Y0003190445D01*
X0001811466Y0003191434D01*
X0001810381Y0003192534D01*
X0001809408Y0003193735D01*
X0001808558Y0003195025D01*
X0001807838Y0003196393D01*
X0001807256Y0003197825D01*
X0001806817Y0003199306D01*
X0001806526Y0003200824D01*
X0001806384Y0003202363D01*
X0001806395Y0003203908D01*
X0001806556Y0003205445D01*
X0001806867Y0003206959D01*
X0001807326Y0003208435D01*
X0001807926Y0003209859D01*
X0001808664Y0003211217D01*
X0001809531Y0003212496D01*
X0001810519Y0003213685D01*
X0001810944Y0003214104D01*
X0001796718Y0003215599D01*
X0001799393Y0003241050D01*
X0001844420Y0003236317D01*
X0001839070Y0003185416D01*
G37*
G36*
X0001706663Y0003225064D02*
G01*
X0001692436Y0003226560D01*
X0001692765Y0003226061D01*
X0001693484Y0003224693D01*
X0001694066Y0003223262D01*
X0001694505Y0003221780D01*
X0001694797Y0003220262D01*
X0001694938Y0003218723D01*
X0001694928Y0003217178D01*
X0001694767Y0003215641D01*
X0001694455Y0003214127D01*
X0001693997Y0003212651D01*
X0001693396Y0003211227D01*
X0001692659Y0003209869D01*
X0001691792Y0003208590D01*
X0001690804Y0003207402D01*
X0001689704Y0003206316D01*
X0001688503Y0003205344D01*
X0001687212Y0003204493D01*
X0001685844Y0003203774D01*
X0001684413Y0003203192D01*
X0001682931Y0003202753D01*
X0001681413Y0003202461D01*
X0001679874Y0003202320D01*
X0001678329Y0003202330D01*
X0001676792Y0003202491D01*
X0001675278Y0003202803D01*
X0001674653Y0003202997D01*
X0001674622Y0003202700D01*
X0001658960Y0003204347D01*
X0001664310Y0003255247D01*
X0001709338Y0003250515D01*
X0001706663Y0003225064D01*
G37*
D72*
X0000427285Y0002611179D03*
D73*
X0000570985Y0002667478D03*
D72*
X0000427285Y0002951337D03*
D73*
X0000570985Y0002895037D03*
D74*
X0000591851Y0002951337D03*
X0000591851Y0002611179D03*
G04 next file*
G04 Gerber Fmt 4.6, Leading zero omitted, Abs format (unit mm)*
G04 Created by KiCad (PCBNEW (5.1.10)-1) date 2021-07-16 00:37:02*
G01*
G04 APERTURE LIST*
G04 APERTURE END LIST*
D75*
G36*
X0002057513Y0004058703D02*
G01*
X0002045627Y0004069034D01*
X0002045823Y0004069259D01*
X0002045255Y0004069584D01*
X0002043995Y0004070479D01*
X0002042828Y0004071493D01*
X0002041767Y0004072616D01*
X0002040821Y0004073838D01*
X0002039999Y0004075147D01*
X0002039309Y0004076530D01*
X0002038759Y0004077974D01*
X0002038352Y0004079465D01*
X0002038094Y0004080989D01*
X0002037986Y0004082530D01*
X0002038030Y0004084075D01*
X0002038225Y0004085608D01*
X0002038569Y0004087115D01*
X0002039060Y0004088581D01*
X0002039691Y0004089991D01*
X0002040458Y0004091333D01*
X0002041353Y0004092593D01*
X0002042367Y0004093759D01*
X0002043490Y0004094821D01*
X0002044712Y0004095767D01*
X0002046021Y0004096589D01*
X0002047404Y0004097278D01*
X0002048848Y0004097829D01*
X0002050339Y0004098235D01*
X0002050927Y0004098335D01*
X0002040132Y0004107720D01*
X0002056920Y0004127033D01*
X0002091090Y0004097330D01*
X0002057513Y0004058703D01*
G37*
G36*
X0001971792Y0004167127D02*
G01*
X0001960996Y0004176511D01*
X0001960979Y0004175915D01*
X0001960784Y0004174382D01*
X0001960440Y0004172875D01*
X0001959949Y0004171409D01*
X0001959318Y0004169999D01*
X0001958551Y0004168657D01*
X0001957656Y0004167397D01*
X0001956642Y0004166231D01*
X0001955519Y0004165169D01*
X0001954297Y0004164223D01*
X0001952988Y0004163401D01*
X0001951605Y0004162712D01*
X0001950161Y0004162161D01*
X0001948670Y0004161755D01*
X0001947146Y0004161496D01*
X0001945605Y0004161388D01*
X0001944060Y0004161432D01*
X0001942527Y0004161627D01*
X0001941020Y0004161972D01*
X0001939555Y0004162462D01*
X0001938144Y0004163094D01*
X0001936802Y0004163861D01*
X0001935542Y0004164755D01*
X0001934376Y0004165769D01*
X0001933314Y0004166892D01*
X0001932914Y0004167410D01*
X0001932718Y0004167185D01*
X0001920833Y0004177517D01*
X0001954411Y0004216144D01*
X0001988581Y0004186440D01*
X0001971792Y0004167127D01*
G37*
D76*
X0001817623Y0004053780D03*
D77*
X0001717623Y0004053780D03*
D78*
X0000383366Y0003844488D03*
D79*
X0000489665Y0003706692D03*
D80*
X0000489665Y0003779527D03*
X0000489665Y0003753937D03*
X0000489665Y0003856299D03*
X0000489665Y0003830708D03*
X0000489665Y0003805118D03*
D79*
X0000489665Y0003903543D03*
D78*
X0000383366Y0003765748D03*
D81*
X0000383366Y0003667322D03*
X0000383366Y0003942913D03*
D82*
X0000383366Y0003919291D03*
X0000383366Y0003690944D03*
D76*
X0000915323Y0003602680D03*
D77*
X0000815323Y0003602680D03*
D76*
X0001563582Y0004238188D03*
D77*
X0001463582Y0004238188D03*
D75*
G36*
X0001839070Y0004209038D02*
G01*
X0001823409Y0004210684D01*
X0001823440Y0004210981D01*
X0001822788Y0004210921D01*
X0001821242Y0004210931D01*
X0001819706Y0004211093D01*
X0001818192Y0004211404D01*
X0001816716Y0004211862D01*
X0001815292Y0004212463D01*
X0001813934Y0004213201D01*
X0001812655Y0004214068D01*
X0001811466Y0004215056D01*
X0001810381Y0004216156D01*
X0001809408Y0004217357D01*
X0001808558Y0004218647D01*
X0001807838Y0004220015D01*
X0001807256Y0004221447D01*
X0001806817Y0004222928D01*
X0001806526Y0004224446D01*
X0001806384Y0004225985D01*
X0001806395Y0004227530D01*
X0001806556Y0004229067D01*
X0001806867Y0004230581D01*
X0001807326Y0004232057D01*
X0001807926Y0004233481D01*
X0001808664Y0004234839D01*
X0001809531Y0004236118D01*
X0001810519Y0004237307D01*
X0001810944Y0004237726D01*
X0001796718Y0004239221D01*
X0001799393Y0004264672D01*
X0001844420Y0004259939D01*
X0001839070Y0004209038D01*
G37*
G36*
X0001706663Y0004248686D02*
G01*
X0001692436Y0004250182D01*
X0001692765Y0004249683D01*
X0001693484Y0004248315D01*
X0001694066Y0004246884D01*
X0001694505Y0004245402D01*
X0001694797Y0004243884D01*
X0001694938Y0004242345D01*
X0001694928Y0004240800D01*
X0001694767Y0004239263D01*
X0001694455Y0004237749D01*
X0001693997Y0004236273D01*
X0001693396Y0004234849D01*
X0001692659Y0004233491D01*
X0001691792Y0004232212D01*
X0001690804Y0004231024D01*
X0001689704Y0004229938D01*
X0001688503Y0004228966D01*
X0001687212Y0004228115D01*
X0001685844Y0004227396D01*
X0001684413Y0004226814D01*
X0001682931Y0004226375D01*
X0001681413Y0004226083D01*
X0001679874Y0004225942D01*
X0001678329Y0004225952D01*
X0001676792Y0004226113D01*
X0001675278Y0004226425D01*
X0001674653Y0004226619D01*
X0001674622Y0004226322D01*
X0001658960Y0004227969D01*
X0001664310Y0004278869D01*
X0001709338Y0004274137D01*
X0001706663Y0004248686D01*
G37*
D83*
X0000427285Y0003634801D03*
D84*
X0000570985Y0003691100D03*
D83*
X0000427285Y0003974959D03*
D84*
X0000570985Y0003918659D03*
D85*
X0000591851Y0003974959D03*
X0000591851Y0003634801D03*
G04 next file*
G04 Gerber Fmt 4.6, Leading zero omitted, Abs format (unit mm)*
G04 Created by KiCad (PCBNEW (5.1.10)-1) date 2021-07-16 00:37:02*
G01*
G04 APERTURE LIST*
G04 APERTURE END LIST*
D86*
G36*
X0002548786Y0002594840D02*
G01*
X0002560671Y0002584508D01*
X0002560475Y0002584283D01*
X0002561044Y0002583958D01*
X0002562304Y0002583063D01*
X0002563470Y0002582049D01*
X0002564531Y0002580926D01*
X0002565477Y0002579704D01*
X0002566299Y0002578395D01*
X0002566989Y0002577012D01*
X0002567540Y0002575568D01*
X0002567946Y0002574077D01*
X0002568204Y0002572554D01*
X0002568312Y0002571012D01*
X0002568268Y0002569467D01*
X0002568073Y0002567934D01*
X0002567729Y0002566427D01*
X0002567239Y0002564962D01*
X0002566607Y0002563551D01*
X0002565840Y0002562210D01*
X0002564945Y0002560949D01*
X0002563932Y0002559783D01*
X0002562808Y0002558722D01*
X0002561586Y0002557776D01*
X0002560277Y0002556954D01*
X0002558894Y0002556264D01*
X0002557450Y0002555714D01*
X0002555959Y0002555307D01*
X0002555371Y0002555207D01*
X0002566167Y0002545823D01*
X0002549378Y0002526509D01*
X0002515208Y0002556213D01*
X0002548786Y0002594840D01*
G37*
G36*
X0002634506Y0002486416D02*
G01*
X0002645302Y0002477031D01*
X0002645319Y0002477628D01*
X0002645514Y0002479161D01*
X0002645859Y0002480667D01*
X0002646349Y0002482133D01*
X0002646981Y0002483543D01*
X0002647747Y0002484885D01*
X0002648642Y0002486145D01*
X0002649656Y0002487312D01*
X0002650779Y0002488373D01*
X0002652001Y0002489319D01*
X0002653310Y0002490141D01*
X0002654693Y0002490830D01*
X0002656137Y0002491381D01*
X0002657628Y0002491788D01*
X0002659152Y0002492046D01*
X0002660694Y0002492154D01*
X0002662238Y0002492110D01*
X0002663772Y0002491915D01*
X0002665278Y0002491571D01*
X0002666744Y0002491080D01*
X0002668154Y0002490449D01*
X0002669496Y0002489682D01*
X0002670756Y0002488787D01*
X0002671922Y0002487773D01*
X0002672984Y0002486650D01*
X0002673385Y0002486132D01*
X0002673580Y0002486357D01*
X0002685465Y0002476026D01*
X0002651887Y0002437399D01*
X0002617718Y0002467102D01*
X0002634506Y0002486416D01*
G37*
D87*
X0002788675Y0002599762D03*
D88*
X0002888675Y0002599762D03*
D89*
X0004222933Y0002809055D03*
D90*
X0004116633Y0002946850D03*
D91*
X0004116633Y0002874015D03*
X0004116633Y0002899606D03*
X0004116633Y0002797244D03*
X0004116633Y0002822834D03*
X0004116633Y0002848425D03*
D90*
X0004116633Y0002750000D03*
D89*
X0004222933Y0002887795D03*
D92*
X0004222933Y0002986220D03*
X0004222933Y0002710629D03*
D93*
X0004222933Y0002734251D03*
X0004222933Y0002962598D03*
D87*
X0003690975Y0003050862D03*
D88*
X0003790975Y0003050862D03*
D87*
X0003042716Y0002415354D03*
D88*
X0003142716Y0002415354D03*
D86*
G36*
X0002767228Y0002444504D02*
G01*
X0002782890Y0002442858D01*
X0002782858Y0002442561D01*
X0002783510Y0002442621D01*
X0002785056Y0002442611D01*
X0002786593Y0002442450D01*
X0002788106Y0002442138D01*
X0002789582Y0002441680D01*
X0002791006Y0002441079D01*
X0002792364Y0002440342D01*
X0002793644Y0002439475D01*
X0002794832Y0002438487D01*
X0002795918Y0002437387D01*
X0002796890Y0002436186D01*
X0002797740Y0002434895D01*
X0002798460Y0002433527D01*
X0002799042Y0002432096D01*
X0002799481Y0002430614D01*
X0002799772Y0002429096D01*
X0002799914Y0002427557D01*
X0002799904Y0002426012D01*
X0002799742Y0002424475D01*
X0002799431Y0002422961D01*
X0002798972Y0002421485D01*
X0002798372Y0002420061D01*
X0002797634Y0002418703D01*
X0002796767Y0002417424D01*
X0002795779Y0002416236D01*
X0002795354Y0002415816D01*
X0002809580Y0002414321D01*
X0002806906Y0002388871D01*
X0002761878Y0002393603D01*
X0002767228Y0002444504D01*
G37*
G36*
X0002899636Y0002404856D02*
G01*
X0002913862Y0002403361D01*
X0002913533Y0002403859D01*
X0002912814Y0002405227D01*
X0002912232Y0002406658D01*
X0002911793Y0002408140D01*
X0002911501Y0002409658D01*
X0002911360Y0002411197D01*
X0002911370Y0002412742D01*
X0002911532Y0002414279D01*
X0002911843Y0002415793D01*
X0002912301Y0002417269D01*
X0002912902Y0002418693D01*
X0002913639Y0002420051D01*
X0002914506Y0002421330D01*
X0002915495Y0002422519D01*
X0002916595Y0002423604D01*
X0002917796Y0002424577D01*
X0002919086Y0002425427D01*
X0002920454Y0002426147D01*
X0002921885Y0002426729D01*
X0002923367Y0002427168D01*
X0002924885Y0002427459D01*
X0002926424Y0002427600D01*
X0002927969Y0002427590D01*
X0002929506Y0002427429D01*
X0002931020Y0002427117D01*
X0002931645Y0002426923D01*
X0002931676Y0002427220D01*
X0002947338Y0002425574D01*
X0002941988Y0002374673D01*
X0002896961Y0002379406D01*
X0002899636Y0002404856D01*
G37*
D94*
X0004179014Y0003018741D03*
D95*
X0004035313Y0002962442D03*
D94*
X0004179014Y0002678584D03*
D95*
X0004035313Y0002734883D03*
D96*
X0004014447Y0002678584D03*
X0004014447Y0003018741D03*
G04 next file*
G04 Gerber Fmt 4.6, Leading zero omitted, Abs format (unit mm)*
G04 Created by KiCad (PCBNEW (5.1.10)-1) date 2021-07-16 00:37:02*
G01*
G04 APERTURE LIST*
G04 APERTURE END LIST*
D97*
G36*
X0002509416Y0003618462D02*
G01*
X0002521301Y0003608130D01*
X0002521105Y0003607905D01*
X0002521673Y0003607580D01*
X0002522934Y0003606685D01*
X0002524100Y0003605671D01*
X0002525161Y0003604548D01*
X0002526107Y0003603326D01*
X0002526929Y0003602017D01*
X0002527619Y0003600634D01*
X0002528170Y0003599190D01*
X0002528576Y0003597699D01*
X0002528834Y0003596176D01*
X0002528942Y0003594634D01*
X0002528898Y0003593089D01*
X0002528703Y0003591556D01*
X0002528359Y0003590049D01*
X0002527869Y0003588584D01*
X0002527237Y0003587173D01*
X0002526470Y0003585832D01*
X0002525575Y0003584572D01*
X0002524562Y0003583405D01*
X0002523438Y0003582344D01*
X0002522216Y0003581398D01*
X0002520907Y0003580576D01*
X0002519524Y0003579886D01*
X0002518080Y0003579336D01*
X0002516589Y0003578929D01*
X0002516001Y0003578829D01*
X0002526797Y0003569445D01*
X0002510008Y0003550131D01*
X0002475838Y0003579835D01*
X0002509416Y0003618462D01*
G37*
G36*
X0002595136Y0003510038D02*
G01*
X0002605932Y0003500653D01*
X0002605949Y0003501250D01*
X0002606144Y0003502783D01*
X0002606488Y0003504289D01*
X0002606979Y0003505755D01*
X0002607611Y0003507165D01*
X0002608377Y0003508507D01*
X0002609272Y0003509767D01*
X0002610286Y0003510934D01*
X0002611409Y0003511995D01*
X0002612631Y0003512941D01*
X0002613940Y0003513763D01*
X0002615323Y0003514453D01*
X0002616767Y0003515003D01*
X0002618258Y0003515410D01*
X0002619782Y0003515668D01*
X0002621324Y0003515776D01*
X0002622868Y0003515732D01*
X0002624401Y0003515537D01*
X0002625908Y0003515193D01*
X0002627374Y0003514702D01*
X0002628784Y0003514071D01*
X0002630126Y0003513304D01*
X0002631386Y0003512409D01*
X0002632552Y0003511395D01*
X0002633614Y0003510272D01*
X0002634014Y0003509754D01*
X0002634210Y0003509979D01*
X0002646095Y0003499648D01*
X0002612517Y0003461021D01*
X0002578347Y0003490724D01*
X0002595136Y0003510038D01*
G37*
D98*
X0002749305Y0003623385D03*
D99*
X0002849305Y0003623385D03*
D100*
X0004183562Y0003832677D03*
D101*
X0004077263Y0003970472D03*
D102*
X0004077263Y0003897637D03*
X0004077263Y0003923228D03*
X0004077263Y0003820866D03*
X0004077263Y0003846456D03*
X0004077263Y0003872047D03*
D101*
X0004077263Y0003773622D03*
D100*
X0004183562Y0003911417D03*
D103*
X0004183562Y0004009842D03*
X0004183562Y0003734251D03*
D104*
X0004183562Y0003757874D03*
X0004183562Y0003986220D03*
D98*
X0003651605Y0004074485D03*
D99*
X0003751605Y0004074485D03*
D98*
X0003003346Y0003438976D03*
D99*
X0003103346Y0003438976D03*
D97*
G36*
X0002727858Y0003468126D02*
G01*
X0002743520Y0003466480D01*
X0002743488Y0003466183D01*
X0002744140Y0003466243D01*
X0002745686Y0003466233D01*
X0002747223Y0003466072D01*
X0002748736Y0003465760D01*
X0002750212Y0003465302D01*
X0002751636Y0003464701D01*
X0002752994Y0003463964D01*
X0002754274Y0003463097D01*
X0002755462Y0003462109D01*
X0002756547Y0003461009D01*
X0002757520Y0003459808D01*
X0002758370Y0003458517D01*
X0002759090Y0003457149D01*
X0002759672Y0003455718D01*
X0002760111Y0003454236D01*
X0002760402Y0003452718D01*
X0002760544Y0003451179D01*
X0002760534Y0003449634D01*
X0002760372Y0003448097D01*
X0002760061Y0003446583D01*
X0002759602Y0003445107D01*
X0002759002Y0003443683D01*
X0002758264Y0003442325D01*
X0002757397Y0003441046D01*
X0002756409Y0003439858D01*
X0002755984Y0003439438D01*
X0002770210Y0003437943D01*
X0002767535Y0003412493D01*
X0002722508Y0003417225D01*
X0002727858Y0003468126D01*
G37*
G36*
X0002860266Y0003428478D02*
G01*
X0002874492Y0003426983D01*
X0002874163Y0003427481D01*
X0002873444Y0003428849D01*
X0002872862Y0003430281D01*
X0002872423Y0003431762D01*
X0002872131Y0003433280D01*
X0002871990Y0003434819D01*
X0002872000Y0003436364D01*
X0002872161Y0003437901D01*
X0002872473Y0003439415D01*
X0002872931Y0003440891D01*
X0002873532Y0003442315D01*
X0002874269Y0003443673D01*
X0002875136Y0003444952D01*
X0002876125Y0003446141D01*
X0002877224Y0003447226D01*
X0002878425Y0003448199D01*
X0002879716Y0003449049D01*
X0002881084Y0003449769D01*
X0002882515Y0003450351D01*
X0002883997Y0003450790D01*
X0002885515Y0003451081D01*
X0002887054Y0003451223D01*
X0002888599Y0003451212D01*
X0002890136Y0003451051D01*
X0002891650Y0003450739D01*
X0002892275Y0003450545D01*
X0002892306Y0003450842D01*
X0002907968Y0003449196D01*
X0002902618Y0003398295D01*
X0002857591Y0003403028D01*
X0002860266Y0003428478D01*
G37*
D105*
X0004139644Y0004042363D03*
D106*
X0003995943Y0003986064D03*
D105*
X0004139644Y0003702206D03*
D106*
X0003995943Y0003758505D03*
D107*
X0003975077Y0003702206D03*
X0003975077Y0004042363D03*
G04 next file*
D108*
X0000000000Y0000000000D02*
X0000118110Y0004488188D03*
X0000118110Y0000118110D03*
X0004488188Y0000118110D03*
M02*