%
M48
METRIC,000.000
T01C0.50
%
T01
X107966Y100163
X107966Y101163
X107966Y102163
X107966Y103163
X107966Y104163
X111749Y099994
X111749Y100994
X111749Y101994
X111749Y102994
X111749Y103994
X107966Y073163
X107966Y074163
X107966Y075163
X107966Y076163
X107966Y077163
X111749Y072994
X111749Y073994
X111749Y074994
X111749Y075994
X111749Y076994
X107966Y046163
X107966Y047163
X107966Y048163
X107966Y049163
X107966Y050163
X111749Y045994
X111749Y046994
X111749Y047994
X111749Y048994
X111749Y049994
X107966Y020163
X107966Y021163
X107966Y022163
X107966Y023163
X107966Y024163
X111749Y019994
X111749Y020994
X111749Y021994
X111749Y022994
X111749Y023994
X008033Y021850
X008033Y020850
X008033Y019850
X008033Y018850
X008033Y017850
X005249Y022352
X005249Y021352
X005249Y020352
X005249Y019352
X005249Y018352
X005249Y017352
X008033Y048850
X008033Y047850
X008033Y046850
X008033Y045850
X008033Y044850
X005249Y049352
X005249Y048352
X005249Y047352
X005249Y046352
X005249Y045352
X005249Y044352
X008033Y075850
X008033Y074850
X008033Y073850
X008033Y072850
X008033Y071850
X005249Y076352
X005249Y075352
X005249Y074352
X005249Y073352
X005249Y072352
X005249Y071352
X008033Y102850
X008033Y101850
X008033Y100850
X008033Y099850
X008033Y098850
X005249Y103352
X005249Y102352
X005249Y101352
X005249Y100352
X005249Y099352
X005249Y098352
X086644Y109204
X085644Y109204
X084644Y109204
X083644Y109204
X082644Y109204
X081644Y109204
X087178Y116749
X086178Y116749
X085178Y116749
X084178Y116749
X083178Y116749
X082178Y116749
X081178Y116749
X085644Y082204
X084644Y082204
X083644Y082204
X082644Y082204
X081644Y082204
X080644Y082204
X080558Y089656
X081558Y089656
X082558Y089656
X083558Y089656
X084558Y089655
X085558Y089655
X085644Y055203
X084644Y055203
X083644Y055203
X082644Y055203
X081644Y055203
X080644Y055203
X080558Y062656
X081558Y062656
X082558Y062656
X083558Y062656
X084558Y062655
X085558Y062655
X086644Y028204
X085644Y028204
X084644Y028204
X083644Y028204
X082644Y028204
X081644Y028204
X081558Y035656
X082558Y035656
X083558Y035656
X084558Y035655
X085558Y035655
X086558Y035655
X035473Y086343
X034473Y086343
X033473Y086343
X032473Y086343
X031473Y086344
X030473Y086344
X030341Y093795
X031341Y093795
X032341Y093795
X033341Y093795
X034341Y093795
X035341Y093795
X035473Y059343
X034473Y059343
X033473Y059343
X032473Y059343
X031473Y059344
X030473Y059344
X030341Y066795
X031341Y066795
X032341Y066795
X033341Y066795
X034341Y066795
X035341Y066795
X035473Y032343
X034473Y032343
X033473Y032343
X032473Y032343
X031473Y032344
X030473Y032344
X030341Y039795
X031341Y039795
X032341Y039795
X033341Y039795
X034341Y039795
X035341Y039795
X029341Y012795
X030341Y012795
X031341Y012795
X032341Y012795
X033341Y012795
X034341Y012795
X029474Y005249
X030474Y005249
X031474Y005249
X032474Y005249
X033474Y005249
X034474Y005249
X034473Y113343
X033473Y113343
X032473Y113343
X031473Y113344
X030473Y113344
X034178Y116749
X033178Y116749
X032178Y116749
X031178Y116749
X030178Y116749
X082558Y008656
X083558Y008656
X084558Y008655
X085558Y008655
X086558Y008655
X083474Y005249
X084474Y005249
X085474Y005249
X086474Y005249
X054432Y013048
X054918Y013922
X055334Y014831
X055677Y015770
X055945Y016733
X060722Y016395
X061147Y015491
X061643Y014623
X054432Y040048
X054918Y040922
X055334Y041831
X055677Y042770
X055945Y043733
X060722Y043395
X061147Y042491
X061643Y041623
X054432Y067048
X054918Y067922
X055334Y068831
X055677Y069770
X055945Y070733
X060722Y070395
X061147Y069491
X061643Y068623
X054432Y094048
X054918Y094922
X055334Y095831
X055677Y096770
X055945Y097733
X060722Y097395
X061147Y096491
X061643Y095623
M30