%MOIN*%
%OFA0B0*%
%FSLAX46Y46*%
%IPPOS*%
%LPD*%
%ADD10C,0.0039370078740157488*%
%ADD11O,0.066929133858267723X0.066929133858267723*%
%ADD12R,0.066929133858267723X0.066929133858267723*%
%ADD13R,0.074803149606299218X0.059055118110236227*%
%ADD14C,0.057086614173228349*%
%ADD15R,0.053149606299212608X0.015748031496062995*%
%ADD16O,0.074803149606299218X0.047244094488188976*%
%ADD17R,0.074803149606299218X0.047244094488188976*%
%ADD18O,0.062992125984251982X0.03937007874015748*%
%ADD19C,0.025590551181102365*%
%ADD20O,0.082677165354330714X0.03937007874015748*%
%ADD31C,0.0039370078740157488*%
%ADD32O,0.066929133858267723X0.066929133858267723*%
%ADD33R,0.066929133858267723X0.066929133858267723*%
%ADD34R,0.074803149606299218X0.059055118110236227*%
%ADD35C,0.057086614173228349*%
%ADD36R,0.053149606299212608X0.015748031496062995*%
%ADD37O,0.074803149606299218X0.047244094488188976*%
%ADD38R,0.074803149606299218X0.047244094488188976*%
%ADD39O,0.062992125984251982X0.03937007874015748*%
%ADD40C,0.025590551181102365*%
%ADD41O,0.082677165354330714X0.03937007874015748*%
%ADD42C,0.0039370078740157488*%
%ADD43O,0.066929133858267723X0.066929133858267723*%
%ADD44R,0.066929133858267723X0.066929133858267723*%
%ADD45R,0.074803149606299218X0.059055118110236227*%
%ADD46C,0.057086614173228349*%
%ADD47R,0.053149606299212608X0.015748031496062995*%
%ADD48O,0.074803149606299218X0.047244094488188976*%
%ADD49R,0.074803149606299218X0.047244094488188976*%
%ADD50O,0.062992125984251982X0.03937007874015748*%
%ADD51C,0.025590551181102365*%
%ADD52O,0.082677165354330714X0.03937007874015748*%
%ADD53C,0.0039370078740157488*%
%ADD54O,0.066929133858267723X0.066929133858267723*%
%ADD55R,0.066929133858267723X0.066929133858267723*%
%ADD56R,0.074803149606299218X0.059055118110236227*%
%ADD57C,0.057086614173228349*%
%ADD58R,0.053149606299212608X0.015748031496062995*%
%ADD59O,0.074803149606299218X0.047244094488188976*%
%ADD60R,0.074803149606299218X0.047244094488188976*%
%ADD61O,0.062992125984251982X0.03937007874015748*%
%ADD62C,0.025590551181102365*%
%ADD63O,0.082677165354330714X0.03937007874015748*%
%ADD64C,0.0039370078740157488*%
%ADD65O,0.066929133858267723X0.066929133858267723*%
%ADD66R,0.066929133858267723X0.066929133858267723*%
%ADD67R,0.074803149606299218X0.059055118110236227*%
%ADD68C,0.057086614173228349*%
%ADD69R,0.053149606299212608X0.015748031496062995*%
%ADD70O,0.074803149606299218X0.047244094488188976*%
%ADD71R,0.074803149606299218X0.047244094488188976*%
%ADD72O,0.062992125984251982X0.03937007874015748*%
%ADD73C,0.025590551181102365*%
%ADD74O,0.082677165354330714X0.03937007874015748*%
%ADD75C,0.0039370078740157488*%
%ADD76O,0.066929133858267723X0.066929133858267723*%
%ADD77R,0.066929133858267723X0.066929133858267723*%
%ADD78R,0.074803149606299218X0.059055118110236227*%
%ADD79C,0.057086614173228349*%
%ADD80R,0.053149606299212608X0.015748031496062995*%
%ADD81O,0.074803149606299218X0.047244094488188976*%
%ADD82R,0.074803149606299218X0.047244094488188976*%
%ADD83O,0.062992125984251982X0.03937007874015748*%
%ADD84C,0.025590551181102365*%
%ADD85O,0.082677165354330714X0.03937007874015748*%
%ADD86C,0.0039370078740157488*%
%ADD87O,0.066929133858267723X0.066929133858267723*%
%ADD88R,0.066929133858267723X0.066929133858267723*%
%ADD89R,0.074803149606299218X0.059055118110236227*%
%ADD90C,0.057086614173228349*%
%ADD91R,0.053149606299212608X0.015748031496062995*%
%ADD92O,0.074803149606299218X0.047244094488188976*%
%ADD93R,0.074803149606299218X0.047244094488188976*%
%ADD94O,0.062992125984251982X0.03937007874015748*%
%ADD95C,0.025590551181102365*%
%ADD96O,0.082677165354330714X0.03937007874015748*%
%ADD97C,0.0039370078740157488*%
%ADD98O,0.066929133858267723X0.066929133858267723*%
%ADD99R,0.066929133858267723X0.066929133858267723*%
%ADD100R,0.074803149606299218X0.059055118110236227*%
%ADD101C,0.057086614173228349*%
%ADD102R,0.053149606299212608X0.015748031496062995*%
%ADD103O,0.074803149606299218X0.047244094488188976*%
%ADD104R,0.074803149606299218X0.047244094488188976*%
%ADD105O,0.062992125984251982X0.03937007874015748*%
%ADD106C,0.025590551181102365*%
%ADD107O,0.082677165354330714X0.03937007874015748*%
%ADD108C,0.11811023622047245*%
G01*
D10*
G36*
X0002057512Y0001027207D02*
G01*
X0002045627Y0001037538D01*
X0002045823Y0001037763D01*
X0002045255Y0001038088D01*
X0002043994Y0001038983D01*
X0002042828Y0001039997D01*
X0002041767Y0001041120D01*
X0002040821Y0001042342D01*
X0002039999Y0001043651D01*
X0002039309Y0001045034D01*
X0002038759Y0001046478D01*
X0002038352Y0001047969D01*
X0002038094Y0001049493D01*
X0002037986Y0001051035D01*
X0002038030Y0001052579D01*
X0002038225Y0001054112D01*
X0002038569Y0001055619D01*
X0002039059Y0001057085D01*
X0002039691Y0001058495D01*
X0002040458Y0001059837D01*
X0002041353Y0001061097D01*
X0002042367Y0001062263D01*
X0002043490Y0001063325D01*
X0002044712Y0001064271D01*
X0002046021Y0001065092D01*
X0002047404Y0001065782D01*
X0002048848Y0001066333D01*
X0002050339Y0001066739D01*
X0002050927Y0001066839D01*
X0002040132Y0001076224D01*
X0002056920Y0001095537D01*
X0002091090Y0001065834D01*
X0002057512Y0001027207D01*
G37*
G36*
X0001971792Y0001135631D02*
G01*
X0001960996Y0001145015D01*
X0001960979Y0001144418D01*
X0001960784Y0001142885D01*
X0001960440Y0001141379D01*
X0001959949Y0001139913D01*
X0001959318Y0001138503D01*
X0001958551Y0001137161D01*
X0001957656Y0001135901D01*
X0001956642Y0001134735D01*
X0001955519Y0001133673D01*
X0001954297Y0001132727D01*
X0001952988Y0001131905D01*
X0001951605Y0001131216D01*
X0001950161Y0001130665D01*
X0001948670Y0001130259D01*
X0001947146Y0001130000D01*
X0001945605Y0001129892D01*
X0001944060Y0001129936D01*
X0001942527Y0001130131D01*
X0001941020Y0001130475D01*
X0001939555Y0001130966D01*
X0001938144Y0001131598D01*
X0001936802Y0001132364D01*
X0001935542Y0001133259D01*
X0001934376Y0001134273D01*
X0001933314Y0001135396D01*
X0001932914Y0001135914D01*
X0001932718Y0001135689D01*
X0001920833Y0001146021D01*
X0001954411Y0001184648D01*
X0001988581Y0001154944D01*
X0001971792Y0001135631D01*
G37*
D11*
X0001817623Y0001022284D03*
D12*
X0001717623Y0001022284D03*
D13*
X0000383366Y0000812992D03*
D14*
X0000489665Y0000675196D03*
D15*
X0000489665Y0000748031D03*
X0000489665Y0000722440D03*
X0000489665Y0000824803D03*
X0000489665Y0000799212D03*
X0000489665Y0000773622D03*
D14*
X0000489665Y0000872047D03*
D13*
X0000383366Y0000734251D03*
D16*
X0000383366Y0000635826D03*
X0000383366Y0000911417D03*
D17*
X0000383366Y0000887795D03*
X0000383366Y0000659448D03*
D11*
X0000915323Y0000571184D03*
D12*
X0000815323Y0000571184D03*
D11*
X0001563582Y0001206692D03*
D12*
X0001463582Y0001206692D03*
D10*
G36*
X0001839070Y0001177542D02*
G01*
X0001823409Y0001179188D01*
X0001823440Y0001179485D01*
X0001822788Y0001179425D01*
X0001821242Y0001179435D01*
X0001819705Y0001179597D01*
X0001818192Y0001179908D01*
X0001816716Y0001180366D01*
X0001815292Y0001180967D01*
X0001813934Y0001181705D01*
X0001812655Y0001182572D01*
X0001811466Y0001183560D01*
X0001810381Y0001184660D01*
X0001809408Y0001185861D01*
X0001808558Y0001187151D01*
X0001807838Y0001188519D01*
X0001807256Y0001189951D01*
X0001806817Y0001191432D01*
X0001806526Y0001192950D01*
X0001806385Y0001194489D01*
X0001806394Y0001196035D01*
X0001806556Y0001197571D01*
X0001806868Y0001199085D01*
X0001807326Y0001200561D01*
X0001807927Y0001201985D01*
X0001808664Y0001203343D01*
X0001809531Y0001204622D01*
X0001810519Y0001205811D01*
X0001810944Y0001206230D01*
X0001796718Y0001207725D01*
X0001799393Y0001233175D01*
X0001844420Y0001228443D01*
X0001839070Y0001177542D01*
G37*
G36*
X0001706662Y0001217190D02*
G01*
X0001692437Y0001218686D01*
X0001692765Y0001218187D01*
X0001693485Y0001216820D01*
X0001694066Y0001215388D01*
X0001694505Y0001213906D01*
X0001694797Y0001212388D01*
X0001694938Y0001210850D01*
X0001694928Y0001209304D01*
X0001694767Y0001207767D01*
X0001694455Y0001206253D01*
X0001693997Y0001204777D01*
X0001693396Y0001203353D01*
X0001692659Y0001201995D01*
X0001691792Y0001200716D01*
X0001690803Y0001199528D01*
X0001689703Y0001198442D01*
X0001688503Y0001197470D01*
X0001687212Y0001196619D01*
X0001685844Y0001195900D01*
X0001684412Y0001195318D01*
X0001682931Y0001194879D01*
X0001681413Y0001194587D01*
X0001679874Y0001194446D01*
X0001678329Y0001194456D01*
X0001676792Y0001194618D01*
X0001675278Y0001194929D01*
X0001674653Y0001195123D01*
X0001674622Y0001194826D01*
X0001658960Y0001196473D01*
X0001664310Y0001247373D01*
X0001709338Y0001242641D01*
X0001706662Y0001217190D01*
G37*
D18*
X0000427284Y0000603305D03*
D19*
X0000570985Y0000659604D03*
D18*
X0000427284Y0000943462D03*
D19*
X0000570985Y0000887163D03*
D20*
X0000591851Y0000943462D03*
X0000591851Y0000603305D03*
G04 next file*
G04 #@! TF.GenerationSoftware,KiCad,Pcbnew,(5.1.10)-1*
G04 #@! TF.CreationDate,2021-07-19T19:08:23-05:00*
G04 #@! TF.ProjectId,temp sensor,74656d70-2073-4656-9e73-6f722e6b6963,0.2*
G04 #@! TF.SameCoordinates,Original*
G04 #@! TF.FileFunction,Soldermask,Bot*
G04 #@! TF.FilePolarity,Negative*
G04 Gerber Fmt 4.5, Leading zero omitted, Abs format (unit mm)*
G04 Created by KiCad (PCBNEW (5.1.10)-1) date 2021-07-19 19:08:23*
G01*
G04 APERTURE LIST*
G04 APERTURE END LIST*
D31*
G04 #@! TO.C,SW1*
G36*
X0002509416Y0000586966D02*
G01*
X0002521301Y0000576634D01*
X0002521105Y0000576409D01*
X0002521674Y0000576084D01*
X0002522934Y0000575189D01*
X0002524100Y0000574175D01*
X0002525161Y0000573052D01*
X0002526107Y0000571830D01*
X0002526929Y0000570521D01*
X0002527619Y0000569138D01*
X0002528170Y0000567694D01*
X0002528576Y0000566203D01*
X0002528835Y0000564679D01*
X0002528942Y0000563137D01*
X0002528898Y0000561593D01*
X0002528703Y0000560060D01*
X0002528359Y0000558553D01*
X0002527869Y0000557088D01*
X0002527237Y0000555677D01*
X0002526470Y0000554336D01*
X0002525575Y0000553075D01*
X0002524561Y0000551909D01*
X0002523438Y0000550848D01*
X0002522216Y0000549901D01*
X0002520907Y0000549080D01*
X0002519524Y0000548390D01*
X0002518080Y0000547839D01*
X0002516589Y0000547433D01*
X0002516001Y0000547333D01*
X0002526796Y0000537949D01*
X0002510008Y0000518635D01*
X0002475838Y0000548338D01*
X0002509416Y0000586966D01*
G37*
G36*
X0002595137Y0000478542D02*
G01*
X0002605932Y0000469157D01*
X0002605949Y0000469753D01*
X0002606144Y0000471287D01*
X0002606488Y0000472793D01*
X0002606979Y0000474259D01*
X0002607611Y0000475670D01*
X0002608377Y0000477011D01*
X0002609272Y0000478271D01*
X0002610286Y0000479437D01*
X0002611409Y0000480499D01*
X0002612631Y0000481445D01*
X0002613940Y0000482266D01*
X0002615323Y0000482957D01*
X0002616767Y0000483507D01*
X0002618258Y0000483914D01*
X0002619781Y0000484172D01*
X0002621324Y0000484279D01*
X0002622868Y0000484236D01*
X0002624401Y0000484041D01*
X0002625908Y0000483697D01*
X0002627373Y0000483206D01*
X0002628784Y0000482574D01*
X0002630126Y0000481808D01*
X0002631386Y0000480912D01*
X0002632552Y0000479899D01*
X0002633614Y0000478776D01*
X0002634014Y0000478258D01*
X0002634210Y0000478483D01*
X0002646095Y0000468151D01*
X0002612517Y0000429525D01*
X0002578347Y0000459228D01*
X0002595137Y0000478542D01*
G37*
G04 #@! TD*
D32*
G04 #@! TO.C,J2*
X0002749305Y0000591888D03*
D33*
X0002849305Y0000591888D03*
G04 #@! TD*
D34*
G04 #@! TO.C,J4*
X0004183562Y0000801180D03*
D35*
X0004077263Y0000938975D03*
D36*
X0004077263Y0000866141D03*
X0004077263Y0000891732D03*
X0004077263Y0000789369D03*
X0004077263Y0000814960D03*
X0004077263Y0000840550D03*
D35*
X0004077263Y0000742125D03*
D34*
X0004183562Y0000879920D03*
D37*
X0004183562Y0000978346D03*
X0004183562Y0000702755D03*
D38*
X0004183562Y0000726377D03*
X0004183562Y0000954724D03*
G04 #@! TD*
D32*
G04 #@! TO.C,J5*
X0003651605Y0001042988D03*
D33*
X0003751605Y0001042988D03*
G04 #@! TD*
D32*
G04 #@! TO.C,J6*
X0003003346Y0000407479D03*
D33*
X0003103346Y0000407479D03*
G04 #@! TD*
D31*
G04 #@! TO.C,SW2*
G36*
X0002727858Y0000436630D02*
G01*
X0002743520Y0000434983D01*
X0002743488Y0000434687D01*
X0002744140Y0000434747D01*
X0002745686Y0000434737D01*
X0002747223Y0000434575D01*
X0002748736Y0000434264D01*
X0002750212Y0000433806D01*
X0002751636Y0000433205D01*
X0002752994Y0000432468D01*
X0002754274Y0000431601D01*
X0002755462Y0000430612D01*
X0002756547Y0000429512D01*
X0002757520Y0000428312D01*
X0002758370Y0000427021D01*
X0002759090Y0000425653D01*
X0002759672Y0000424221D01*
X0002760111Y0000422740D01*
X0002760402Y0000421222D01*
X0002760543Y0000419683D01*
X0002760534Y0000418138D01*
X0002760372Y0000416601D01*
X0002760060Y0000415087D01*
X0002759602Y0000413611D01*
X0002759001Y0000412187D01*
X0002758264Y0000410829D01*
X0002757397Y0000409550D01*
X0002756409Y0000408361D01*
X0002755984Y0000407942D01*
X0002770211Y0000406447D01*
X0002767535Y0000380996D01*
X0002722507Y0000385729D01*
X0002727858Y0000436630D01*
G37*
G36*
X0002860265Y0000396981D02*
G01*
X0002874492Y0000395487D01*
X0002874163Y0000395985D01*
X0002873444Y0000397353D01*
X0002872861Y0000398785D01*
X0002872423Y0000400266D01*
X0002872131Y0000401784D01*
X0002871990Y0000403323D01*
X0002872000Y0000404868D01*
X0002872161Y0000406405D01*
X0002872473Y0000407919D01*
X0002872931Y0000409395D01*
X0002873532Y0000410818D01*
X0002874269Y0000412177D01*
X0002875136Y0000413456D01*
X0002876124Y0000414644D01*
X0002877224Y0000415730D01*
X0002878425Y0000416703D01*
X0002879716Y0000417553D01*
X0002881084Y0000418272D01*
X0002882515Y0000418854D01*
X0002883997Y0000419294D01*
X0002885515Y0000419585D01*
X0002887053Y0000419726D01*
X0002888599Y0000419716D01*
X0002890136Y0000419555D01*
X0002891650Y0000419243D01*
X0002892275Y0000419049D01*
X0002892306Y0000419346D01*
X0002907968Y0000417699D01*
X0002902618Y0000366799D01*
X0002857590Y0000371531D01*
X0002860265Y0000396981D01*
G37*
G04 #@! TD*
D39*
G04 #@! TO.C,J1*
X0004139644Y0001010867D03*
D40*
X0003995943Y0000954568D03*
D39*
X0004139644Y0000670710D03*
D40*
X0003995943Y0000727009D03*
D41*
X0003975077Y0000670710D03*
X0003975077Y0001010867D03*
G04 #@! TD*
G04 next file*
G04 #@! TF.GenerationSoftware,KiCad,Pcbnew,(5.1.10)-1*
G04 #@! TF.CreationDate,2021-07-19T19:08:23-05:00*
G04 #@! TF.ProjectId,temp sensor,74656d70-2073-4656-9e73-6f722e6b6963,0.2*
G04 #@! TF.SameCoordinates,Original*
G04 #@! TF.FileFunction,Soldermask,Bot*
G04 #@! TF.FilePolarity,Negative*
G04 Gerber Fmt 4.5, Leading zero omitted, Abs format (unit mm)*
G04 Created by KiCad (PCBNEW (5.1.10)-1) date 2021-07-19 19:08:23*
G01*
G04 APERTURE LIST*
G04 APERTURE END LIST*
D42*
G04 #@! TO.C,SW1*
G36*
X0002057512Y0002090199D02*
G01*
X0002045627Y0002100531D01*
X0002045823Y0002100755D01*
X0002045255Y0002101080D01*
X0002043994Y0002101975D01*
X0002042828Y0002102989D01*
X0002041767Y0002104112D01*
X0002040821Y0002105334D01*
X0002039999Y0002106643D01*
X0002039309Y0002108026D01*
X0002038759Y0002109470D01*
X0002038352Y0002110961D01*
X0002038094Y0002112485D01*
X0002037986Y0002114027D01*
X0002038030Y0002115571D01*
X0002038225Y0002117105D01*
X0002038569Y0002118611D01*
X0002039059Y0002120077D01*
X0002039691Y0002121487D01*
X0002040458Y0002122829D01*
X0002041353Y0002124089D01*
X0002042367Y0002125255D01*
X0002043490Y0002126317D01*
X0002044712Y0002127263D01*
X0002046021Y0002128085D01*
X0002047404Y0002128774D01*
X0002048848Y0002129325D01*
X0002050339Y0002129731D01*
X0002050927Y0002129831D01*
X0002040132Y0002139216D01*
X0002056920Y0002158529D01*
X0002091090Y0002128826D01*
X0002057512Y0002090199D01*
G37*
G36*
X0001971792Y0002198623D02*
G01*
X0001960996Y0002208007D01*
X0001960979Y0002207411D01*
X0001960784Y0002205877D01*
X0001960440Y0002204371D01*
X0001959949Y0002202905D01*
X0001959318Y0002201495D01*
X0001958551Y0002200153D01*
X0001957656Y0002198893D01*
X0001956642Y0002197727D01*
X0001955519Y0002196665D01*
X0001954297Y0002195719D01*
X0001952988Y0002194898D01*
X0001951605Y0002194208D01*
X0001950161Y0002193657D01*
X0001948670Y0002193251D01*
X0001947146Y0002192992D01*
X0001945605Y0002192885D01*
X0001944060Y0002192928D01*
X0001942527Y0002193124D01*
X0001941020Y0002193468D01*
X0001939555Y0002193958D01*
X0001938144Y0002194590D01*
X0001936802Y0002195357D01*
X0001935542Y0002196251D01*
X0001934376Y0002197265D01*
X0001933314Y0002198388D01*
X0001932914Y0002198906D01*
X0001932718Y0002198681D01*
X0001920833Y0002209013D01*
X0001954411Y0002247640D01*
X0001988581Y0002217936D01*
X0001971792Y0002198623D01*
G37*
G04 #@! TD*
D43*
G04 #@! TO.C,J2*
X0001817623Y0002085276D03*
D44*
X0001717623Y0002085276D03*
G04 #@! TD*
D45*
G04 #@! TO.C,J4*
X0000383366Y0001875984D03*
D46*
X0000489665Y0001738188D03*
D47*
X0000489665Y0001811023D03*
X0000489665Y0001785433D03*
X0000489665Y0001887795D03*
X0000489665Y0001862204D03*
X0000489665Y0001836614D03*
D46*
X0000489665Y0001935039D03*
D45*
X0000383366Y0001797244D03*
D48*
X0000383366Y0001698818D03*
X0000383366Y0001974409D03*
D49*
X0000383366Y0001950787D03*
X0000383366Y0001722440D03*
G04 #@! TD*
D43*
G04 #@! TO.C,J5*
X0000915323Y0001634176D03*
D44*
X0000815323Y0001634176D03*
G04 #@! TD*
D43*
G04 #@! TO.C,J6*
X0001563582Y0002269685D03*
D44*
X0001463582Y0002269685D03*
G04 #@! TD*
D42*
G04 #@! TO.C,SW2*
G36*
X0001839070Y0002240534D02*
G01*
X0001823409Y0002242181D01*
X0001823440Y0002242477D01*
X0001822788Y0002242417D01*
X0001821242Y0002242427D01*
X0001819705Y0002242589D01*
X0001818192Y0002242900D01*
X0001816716Y0002243359D01*
X0001815292Y0002243959D01*
X0001813934Y0002244697D01*
X0001812655Y0002245564D01*
X0001811466Y0002246552D01*
X0001810381Y0002247652D01*
X0001809408Y0002248853D01*
X0001808558Y0002250143D01*
X0001807838Y0002251511D01*
X0001807256Y0002252943D01*
X0001806817Y0002254424D01*
X0001806526Y0002255942D01*
X0001806385Y0002257481D01*
X0001806394Y0002259027D01*
X0001806556Y0002260563D01*
X0001806868Y0002262077D01*
X0001807326Y0002263553D01*
X0001807927Y0002264977D01*
X0001808664Y0002266335D01*
X0001809531Y0002267614D01*
X0001810519Y0002268803D01*
X0001810944Y0002269222D01*
X0001796718Y0002270717D01*
X0001799393Y0002296168D01*
X0001844420Y0002291435D01*
X0001839070Y0002240534D01*
G37*
G36*
X0001706662Y0002280183D02*
G01*
X0001692437Y0002281678D01*
X0001692765Y0002281179D01*
X0001693485Y0002279812D01*
X0001694066Y0002278380D01*
X0001694505Y0002276898D01*
X0001694797Y0002275380D01*
X0001694938Y0002273842D01*
X0001694928Y0002272296D01*
X0001694767Y0002270759D01*
X0001694455Y0002269245D01*
X0001693997Y0002267770D01*
X0001693396Y0002266346D01*
X0001692659Y0002264987D01*
X0001691792Y0002263708D01*
X0001690803Y0002262520D01*
X0001689703Y0002261434D01*
X0001688503Y0002260462D01*
X0001687212Y0002259611D01*
X0001685844Y0002258892D01*
X0001684412Y0002258310D01*
X0001682931Y0002257871D01*
X0001681413Y0002257579D01*
X0001679874Y0002257438D01*
X0001678329Y0002257448D01*
X0001676792Y0002257610D01*
X0001675278Y0002257921D01*
X0001674653Y0002258115D01*
X0001674622Y0002257818D01*
X0001658960Y0002259465D01*
X0001664310Y0002310365D01*
X0001709338Y0002305633D01*
X0001706662Y0002280183D01*
G37*
G04 #@! TD*
D50*
G04 #@! TO.C,J1*
X0000427284Y0001666297D03*
D51*
X0000570985Y0001722596D03*
D50*
X0000427284Y0002006455D03*
D51*
X0000570985Y0001950155D03*
D52*
X0000591851Y0002006455D03*
X0000591851Y0001666297D03*
G04 #@! TD*
G04 next file*
G04 #@! TF.GenerationSoftware,KiCad,Pcbnew,(5.1.10)-1*
G04 #@! TF.CreationDate,2021-07-19T19:08:23-05:00*
G04 #@! TF.ProjectId,temp sensor,74656d70-2073-4656-9e73-6f722e6b6963,0.2*
G04 #@! TF.SameCoordinates,Original*
G04 #@! TF.FileFunction,Soldermask,Bot*
G04 #@! TF.FilePolarity,Negative*
G04 Gerber Fmt 4.5, Leading zero omitted, Abs format (unit mm)*
G04 Created by KiCad (PCBNEW (5.1.10)-1) date 2021-07-19 19:08:23*
G01*
G04 APERTURE LIST*
G04 APERTURE END LIST*
D53*
G04 #@! TO.C,SW1*
G36*
X0002509416Y0001649958D02*
G01*
X0002521301Y0001639626D01*
X0002521105Y0001639401D01*
X0002521674Y0001639076D01*
X0002522934Y0001638181D01*
X0002524100Y0001637167D01*
X0002525161Y0001636044D01*
X0002526107Y0001634822D01*
X0002526929Y0001633513D01*
X0002527619Y0001632130D01*
X0002528170Y0001630686D01*
X0002528576Y0001629195D01*
X0002528835Y0001627672D01*
X0002528942Y0001626129D01*
X0002528898Y0001624585D01*
X0002528703Y0001623052D01*
X0002528359Y0001621546D01*
X0002527869Y0001620080D01*
X0002527237Y0001618670D01*
X0002526470Y0001617328D01*
X0002525575Y0001616068D01*
X0002524561Y0001614901D01*
X0002523438Y0001613840D01*
X0002522216Y0001612894D01*
X0002520907Y0001612072D01*
X0002519524Y0001611382D01*
X0002518080Y0001610831D01*
X0002516589Y0001610425D01*
X0002516001Y0001610325D01*
X0002526796Y0001600941D01*
X0002510008Y0001581627D01*
X0002475838Y0001611330D01*
X0002509416Y0001649958D01*
G37*
G36*
X0002595137Y0001541534D02*
G01*
X0002605932Y0001532149D01*
X0002605949Y0001532746D01*
X0002606144Y0001534279D01*
X0002606488Y0001535785D01*
X0002606979Y0001537251D01*
X0002607611Y0001538662D01*
X0002608377Y0001540003D01*
X0002609272Y0001541263D01*
X0002610286Y0001542429D01*
X0002611409Y0001543491D01*
X0002612631Y0001544437D01*
X0002613940Y0001545259D01*
X0002615323Y0001545949D01*
X0002616767Y0001546499D01*
X0002618258Y0001546906D01*
X0002619781Y0001547164D01*
X0002621324Y0001547272D01*
X0002622868Y0001547228D01*
X0002624401Y0001547033D01*
X0002625908Y0001546689D01*
X0002627373Y0001546198D01*
X0002628784Y0001545566D01*
X0002630126Y0001544800D01*
X0002631386Y0001543905D01*
X0002632552Y0001542891D01*
X0002633614Y0001541768D01*
X0002634014Y0001541250D01*
X0002634210Y0001541475D01*
X0002646095Y0001531143D01*
X0002612517Y0001492517D01*
X0002578347Y0001522220D01*
X0002595137Y0001541534D01*
G37*
G04 #@! TD*
D54*
G04 #@! TO.C,J2*
X0002749305Y0001654881D03*
D55*
X0002849305Y0001654881D03*
G04 #@! TD*
D56*
G04 #@! TO.C,J4*
X0004183562Y0001864172D03*
D57*
X0004077263Y0002001968D03*
D58*
X0004077263Y0001929133D03*
X0004077263Y0001954724D03*
X0004077263Y0001852362D03*
X0004077263Y0001877952D03*
X0004077263Y0001903542D03*
D57*
X0004077263Y0001805117D03*
D56*
X0004183562Y0001942912D03*
D59*
X0004183562Y0002041338D03*
X0004183562Y0001765747D03*
D60*
X0004183562Y0001789370D03*
X0004183562Y0002017716D03*
G04 #@! TD*
D54*
G04 #@! TO.C,J5*
X0003651605Y0002105980D03*
D55*
X0003751605Y0002105980D03*
G04 #@! TD*
D54*
G04 #@! TO.C,J6*
X0003003346Y0001470472D03*
D55*
X0003103346Y0001470472D03*
G04 #@! TD*
D53*
G04 #@! TO.C,SW2*
G36*
X0002727858Y0001499622D02*
G01*
X0002743520Y0001497975D01*
X0002743488Y0001497679D01*
X0002744140Y0001497739D01*
X0002745686Y0001497729D01*
X0002747223Y0001497568D01*
X0002748736Y0001497256D01*
X0002750212Y0001496798D01*
X0002751636Y0001496197D01*
X0002752994Y0001495460D01*
X0002754274Y0001494593D01*
X0002755462Y0001493604D01*
X0002756547Y0001492505D01*
X0002757520Y0001491304D01*
X0002758370Y0001490013D01*
X0002759090Y0001488646D01*
X0002759672Y0001487213D01*
X0002760111Y0001485732D01*
X0002760402Y0001484214D01*
X0002760543Y0001482675D01*
X0002760534Y0001481130D01*
X0002760372Y0001479593D01*
X0002760060Y0001478079D01*
X0002759602Y0001476603D01*
X0002759001Y0001475179D01*
X0002758264Y0001473821D01*
X0002757397Y0001472542D01*
X0002756409Y0001471354D01*
X0002755984Y0001470935D01*
X0002770211Y0001469439D01*
X0002767535Y0001443989D01*
X0002722507Y0001448722D01*
X0002727858Y0001499622D01*
G37*
G36*
X0002860265Y0001459974D02*
G01*
X0002874492Y0001458479D01*
X0002874163Y0001458977D01*
X0002873444Y0001460345D01*
X0002872861Y0001461777D01*
X0002872423Y0001463259D01*
X0002872131Y0001464776D01*
X0002871990Y0001466315D01*
X0002872000Y0001467861D01*
X0002872161Y0001469398D01*
X0002872473Y0001470911D01*
X0002872931Y0001472387D01*
X0002873532Y0001473811D01*
X0002874269Y0001475169D01*
X0002875136Y0001476448D01*
X0002876124Y0001477637D01*
X0002877224Y0001478722D01*
X0002878425Y0001479695D01*
X0002879716Y0001480545D01*
X0002881084Y0001481264D01*
X0002882515Y0001481847D01*
X0002883997Y0001482286D01*
X0002885515Y0001482577D01*
X0002887053Y0001482718D01*
X0002888599Y0001482709D01*
X0002890136Y0001482547D01*
X0002891650Y0001482235D01*
X0002892275Y0001482041D01*
X0002892306Y0001482338D01*
X0002907968Y0001480691D01*
X0002902618Y0001429791D01*
X0002857590Y0001434523D01*
X0002860265Y0001459974D01*
G37*
G04 #@! TD*
D61*
G04 #@! TO.C,J1*
X0004139644Y0002073859D03*
D62*
X0003995943Y0002017560D03*
D61*
X0004139644Y0001733702D03*
D62*
X0003995943Y0001790001D03*
D63*
X0003975077Y0001733702D03*
X0003975077Y0002073859D03*
G04 #@! TD*
G04 next file*
G04 #@! TF.GenerationSoftware,KiCad,Pcbnew,(5.1.10)-1*
G04 #@! TF.CreationDate,2021-07-19T19:08:23-05:00*
G04 #@! TF.ProjectId,temp sensor,74656d70-2073-4656-9e73-6f722e6b6963,0.2*
G04 #@! TF.SameCoordinates,Original*
G04 #@! TF.FileFunction,Soldermask,Bot*
G04 #@! TF.FilePolarity,Negative*
G04 Gerber Fmt 4.5, Leading zero omitted, Abs format (unit mm)*
G04 Created by KiCad (PCBNEW (5.1.10)-1) date 2021-07-19 19:08:23*
G01*
G04 APERTURE LIST*
G04 APERTURE END LIST*
D64*
G04 #@! TO.C,SW1*
G36*
X0002057512Y0003153191D02*
G01*
X0002045627Y0003163523D01*
X0002045823Y0003163748D01*
X0002045255Y0003164072D01*
X0002043994Y0003164967D01*
X0002042828Y0003165981D01*
X0002041767Y0003167105D01*
X0002040821Y0003168326D01*
X0002039999Y0003169635D01*
X0002039309Y0003171018D01*
X0002038759Y0003172462D01*
X0002038352Y0003173953D01*
X0002038094Y0003175477D01*
X0002037986Y0003177019D01*
X0002038030Y0003178563D01*
X0002038225Y0003180097D01*
X0002038569Y0003181603D01*
X0002039059Y0003183069D01*
X0002039691Y0003184479D01*
X0002040458Y0003185821D01*
X0002041353Y0003187081D01*
X0002042367Y0003188248D01*
X0002043490Y0003189309D01*
X0002044712Y0003190255D01*
X0002046021Y0003191077D01*
X0002047404Y0003191766D01*
X0002048848Y0003192317D01*
X0002050339Y0003192724D01*
X0002050927Y0003192823D01*
X0002040132Y0003202208D01*
X0002056920Y0003221521D01*
X0002091090Y0003191818D01*
X0002057512Y0003153191D01*
G37*
G36*
X0001971792Y0003261615D02*
G01*
X0001960996Y0003271000D01*
X0001960979Y0003270403D01*
X0001960784Y0003268870D01*
X0001960440Y0003267363D01*
X0001959949Y0003265898D01*
X0001959318Y0003264487D01*
X0001958551Y0003263145D01*
X0001957656Y0003261885D01*
X0001956642Y0003260719D01*
X0001955519Y0003259657D01*
X0001954297Y0003258711D01*
X0001952988Y0003257890D01*
X0001951605Y0003257200D01*
X0001950161Y0003256650D01*
X0001948670Y0003256243D01*
X0001947146Y0003255985D01*
X0001945605Y0003255877D01*
X0001944060Y0003255920D01*
X0001942527Y0003256116D01*
X0001941020Y0003256460D01*
X0001939555Y0003256950D01*
X0001938144Y0003257582D01*
X0001936802Y0003258349D01*
X0001935542Y0003259244D01*
X0001934376Y0003260257D01*
X0001933314Y0003261381D01*
X0001932914Y0003261898D01*
X0001932718Y0003261673D01*
X0001920833Y0003272005D01*
X0001954411Y0003310632D01*
X0001988581Y0003280928D01*
X0001971792Y0003261615D01*
G37*
G04 #@! TD*
D65*
G04 #@! TO.C,J2*
X0001817623Y0003148268D03*
D66*
X0001717623Y0003148268D03*
G04 #@! TD*
D67*
G04 #@! TO.C,J4*
X0000383366Y0002938976D03*
D68*
X0000489665Y0002801181D03*
D69*
X0000489665Y0002874015D03*
X0000489665Y0002848425D03*
X0000489665Y0002950787D03*
X0000489665Y0002925196D03*
X0000489665Y0002899606D03*
D68*
X0000489665Y0002998031D03*
D67*
X0000383366Y0002860236D03*
D70*
X0000383366Y0002761811D03*
X0000383366Y0003037401D03*
D71*
X0000383366Y0003013779D03*
X0000383366Y0002785433D03*
G04 #@! TD*
D65*
G04 #@! TO.C,J5*
X0000915323Y0002697168D03*
D66*
X0000815323Y0002697168D03*
G04 #@! TD*
D65*
G04 #@! TO.C,J6*
X0001563582Y0003332677D03*
D66*
X0001463582Y0003332677D03*
G04 #@! TD*
D64*
G04 #@! TO.C,SW2*
G36*
X0001839070Y0003303526D02*
G01*
X0001823409Y0003305173D01*
X0001823440Y0003305469D01*
X0001822788Y0003305409D01*
X0001821242Y0003305419D01*
X0001819705Y0003305581D01*
X0001818192Y0003305892D01*
X0001816716Y0003306351D01*
X0001815292Y0003306951D01*
X0001813934Y0003307689D01*
X0001812655Y0003308556D01*
X0001811466Y0003309544D01*
X0001810381Y0003310644D01*
X0001809408Y0003311845D01*
X0001808558Y0003313135D01*
X0001807838Y0003314503D01*
X0001807256Y0003315935D01*
X0001806817Y0003317416D01*
X0001806526Y0003318934D01*
X0001806385Y0003320473D01*
X0001806394Y0003322019D01*
X0001806556Y0003323555D01*
X0001806868Y0003325069D01*
X0001807326Y0003326545D01*
X0001807927Y0003327969D01*
X0001808664Y0003329327D01*
X0001809531Y0003330607D01*
X0001810519Y0003331795D01*
X0001810944Y0003332214D01*
X0001796718Y0003333709D01*
X0001799393Y0003359160D01*
X0001844420Y0003354427D01*
X0001839070Y0003303526D01*
G37*
G36*
X0001706662Y0003343175D02*
G01*
X0001692437Y0003344670D01*
X0001692765Y0003344171D01*
X0001693485Y0003342804D01*
X0001694066Y0003341372D01*
X0001694505Y0003339890D01*
X0001694797Y0003338372D01*
X0001694938Y0003336834D01*
X0001694928Y0003335288D01*
X0001694767Y0003333751D01*
X0001694455Y0003332237D01*
X0001693997Y0003330762D01*
X0001693396Y0003329338D01*
X0001692659Y0003327979D01*
X0001691792Y0003326700D01*
X0001690803Y0003325512D01*
X0001689703Y0003324426D01*
X0001688503Y0003323454D01*
X0001687212Y0003322603D01*
X0001685844Y0003321884D01*
X0001684412Y0003321302D01*
X0001682931Y0003320863D01*
X0001681413Y0003320572D01*
X0001679874Y0003320430D01*
X0001678329Y0003320440D01*
X0001676792Y0003320602D01*
X0001675278Y0003320913D01*
X0001674653Y0003321107D01*
X0001674622Y0003320811D01*
X0001658960Y0003322457D01*
X0001664310Y0003373357D01*
X0001709338Y0003368625D01*
X0001706662Y0003343175D01*
G37*
G04 #@! TD*
D72*
G04 #@! TO.C,J1*
X0000427284Y0002729289D03*
D73*
X0000570985Y0002785588D03*
D72*
X0000427284Y0003069447D03*
D73*
X0000570985Y0003013148D03*
D74*
X0000591851Y0003069447D03*
X0000591851Y0002729289D03*
G04 #@! TD*
G04 next file*
G04 #@! TF.GenerationSoftware,KiCad,Pcbnew,(5.1.10)-1*
G04 #@! TF.CreationDate,2021-07-19T19:08:23-05:00*
G04 #@! TF.ProjectId,temp sensor,74656d70-2073-4656-9e73-6f722e6b6963,0.2*
G04 #@! TF.SameCoordinates,Original*
G04 #@! TF.FileFunction,Soldermask,Bot*
G04 #@! TF.FilePolarity,Negative*
G04 Gerber Fmt 4.5, Leading zero omitted, Abs format (unit mm)*
G04 Created by KiCad (PCBNEW (5.1.10)-1) date 2021-07-19 19:08:23*
G01*
G04 APERTURE LIST*
G04 APERTURE END LIST*
D75*
G04 #@! TO.C,SW1*
G36*
X0002057512Y0004216183D02*
G01*
X0002045627Y0004226515D01*
X0002045823Y0004226740D01*
X0002045255Y0004227064D01*
X0002043994Y0004227959D01*
X0002042828Y0004228973D01*
X0002041767Y0004230097D01*
X0002040821Y0004231318D01*
X0002039999Y0004232627D01*
X0002039309Y0004234011D01*
X0002038759Y0004235455D01*
X0002038352Y0004236946D01*
X0002038094Y0004238469D01*
X0002037986Y0004240011D01*
X0002038030Y0004241555D01*
X0002038225Y0004243089D01*
X0002038569Y0004244595D01*
X0002039059Y0004246061D01*
X0002039691Y0004247471D01*
X0002040458Y0004248813D01*
X0002041353Y0004250073D01*
X0002042367Y0004251240D01*
X0002043490Y0004252301D01*
X0002044712Y0004253247D01*
X0002046021Y0004254069D01*
X0002047404Y0004254759D01*
X0002048848Y0004255309D01*
X0002050339Y0004255716D01*
X0002050927Y0004255815D01*
X0002040132Y0004265200D01*
X0002056920Y0004284513D01*
X0002091090Y0004254810D01*
X0002057512Y0004216183D01*
G37*
G36*
X0001971792Y0004324607D02*
G01*
X0001960996Y0004333992D01*
X0001960979Y0004333395D01*
X0001960784Y0004331862D01*
X0001960440Y0004330355D01*
X0001959949Y0004328890D01*
X0001959318Y0004327479D01*
X0001958551Y0004326137D01*
X0001957656Y0004324877D01*
X0001956642Y0004323711D01*
X0001955519Y0004322650D01*
X0001954297Y0004321703D01*
X0001952988Y0004320882D01*
X0001951605Y0004320192D01*
X0001950161Y0004319642D01*
X0001948670Y0004319235D01*
X0001947146Y0004318977D01*
X0001945605Y0004318869D01*
X0001944060Y0004318912D01*
X0001942527Y0004319108D01*
X0001941020Y0004319452D01*
X0001939555Y0004319942D01*
X0001938144Y0004320574D01*
X0001936802Y0004321341D01*
X0001935542Y0004322236D01*
X0001934376Y0004323250D01*
X0001933314Y0004324373D01*
X0001932914Y0004324890D01*
X0001932718Y0004324665D01*
X0001920833Y0004334997D01*
X0001954411Y0004373624D01*
X0001988581Y0004343920D01*
X0001971792Y0004324607D01*
G37*
G04 #@! TD*
D76*
G04 #@! TO.C,J2*
X0001817623Y0004211260D03*
D77*
X0001717623Y0004211260D03*
G04 #@! TD*
D78*
G04 #@! TO.C,J4*
X0000383366Y0004001968D03*
D79*
X0000489665Y0003864173D03*
D80*
X0000489665Y0003937007D03*
X0000489665Y0003911417D03*
X0000489665Y0004013779D03*
X0000489665Y0003988188D03*
X0000489665Y0003962598D03*
D79*
X0000489665Y0004061023D03*
D78*
X0000383366Y0003923228D03*
D81*
X0000383366Y0003824803D03*
X0000383366Y0004100393D03*
D82*
X0000383366Y0004076771D03*
X0000383366Y0003848425D03*
G04 #@! TD*
D76*
G04 #@! TO.C,J5*
X0000915323Y0003760160D03*
D77*
X0000815323Y0003760160D03*
G04 #@! TD*
D76*
G04 #@! TO.C,J6*
X0001563582Y0004395669D03*
D77*
X0001463582Y0004395669D03*
G04 #@! TD*
D75*
G04 #@! TO.C,SW2*
G36*
X0001839070Y0004366518D02*
G01*
X0001823409Y0004368165D01*
X0001823440Y0004368461D01*
X0001822788Y0004368401D01*
X0001821242Y0004368411D01*
X0001819705Y0004368573D01*
X0001818192Y0004368885D01*
X0001816716Y0004369343D01*
X0001815292Y0004369944D01*
X0001813934Y0004370681D01*
X0001812655Y0004371548D01*
X0001811466Y0004372536D01*
X0001810381Y0004373636D01*
X0001809408Y0004374837D01*
X0001808558Y0004376127D01*
X0001807838Y0004377495D01*
X0001807256Y0004378927D01*
X0001806817Y0004380409D01*
X0001806526Y0004381926D01*
X0001806385Y0004383465D01*
X0001806394Y0004385011D01*
X0001806556Y0004386548D01*
X0001806868Y0004388061D01*
X0001807326Y0004389537D01*
X0001807927Y0004390961D01*
X0001808664Y0004392320D01*
X0001809531Y0004393599D01*
X0001810519Y0004394787D01*
X0001810944Y0004395206D01*
X0001796718Y0004396701D01*
X0001799393Y0004422152D01*
X0001844420Y0004417419D01*
X0001839070Y0004366518D01*
G37*
G36*
X0001706662Y0004406167D02*
G01*
X0001692437Y0004407662D01*
X0001692765Y0004407163D01*
X0001693485Y0004405796D01*
X0001694066Y0004404364D01*
X0001694505Y0004402882D01*
X0001694797Y0004401364D01*
X0001694938Y0004399826D01*
X0001694928Y0004398280D01*
X0001694767Y0004396743D01*
X0001694455Y0004395229D01*
X0001693997Y0004393754D01*
X0001693396Y0004392330D01*
X0001692659Y0004390972D01*
X0001691792Y0004389692D01*
X0001690803Y0004388504D01*
X0001689703Y0004387418D01*
X0001688503Y0004386446D01*
X0001687212Y0004385596D01*
X0001685844Y0004384876D01*
X0001684412Y0004384294D01*
X0001682931Y0004383855D01*
X0001681413Y0004383564D01*
X0001679874Y0004383422D01*
X0001678329Y0004383432D01*
X0001676792Y0004383594D01*
X0001675278Y0004383905D01*
X0001674653Y0004384100D01*
X0001674622Y0004383803D01*
X0001658960Y0004385449D01*
X0001664310Y0004436350D01*
X0001709338Y0004431617D01*
X0001706662Y0004406167D01*
G37*
G04 #@! TD*
D83*
G04 #@! TO.C,J1*
X0000427284Y0003792281D03*
D84*
X0000570985Y0003848581D03*
D83*
X0000427284Y0004132439D03*
D84*
X0000570985Y0004076140D03*
D85*
X0000591851Y0004132439D03*
X0000591851Y0003792281D03*
G04 #@! TD*
G04 next file*
G04 #@! TF.GenerationSoftware,KiCad,Pcbnew,(5.1.10)-1*
G04 #@! TF.CreationDate,2021-07-19T19:08:23-05:00*
G04 #@! TF.ProjectId,temp sensor,74656d70-2073-4656-9e73-6f722e6b6963,0.2*
G04 #@! TF.SameCoordinates,Original*
G04 #@! TF.FileFunction,Soldermask,Bot*
G04 #@! TF.FilePolarity,Negative*
G04 Gerber Fmt 4.5, Leading zero omitted, Abs format (unit mm)*
G04 Created by KiCad (PCBNEW (5.1.10)-1) date 2021-07-19 19:08:23*
G01*
G04 APERTURE LIST*
G04 APERTURE END LIST*
D86*
G04 #@! TO.C,SW1*
G36*
X0002509416Y0002712950D02*
G01*
X0002521301Y0002702618D01*
X0002521105Y0002702393D01*
X0002521674Y0002702068D01*
X0002522934Y0002701174D01*
X0002524100Y0002700160D01*
X0002525161Y0002699036D01*
X0002526107Y0002697814D01*
X0002526929Y0002696505D01*
X0002527619Y0002695122D01*
X0002528170Y0002693678D01*
X0002528576Y0002692187D01*
X0002528835Y0002690664D01*
X0002528942Y0002689122D01*
X0002528898Y0002687577D01*
X0002528703Y0002686044D01*
X0002528359Y0002684538D01*
X0002527869Y0002683072D01*
X0002527237Y0002681662D01*
X0002526470Y0002680320D01*
X0002525575Y0002679060D01*
X0002524561Y0002677893D01*
X0002523438Y0002676832D01*
X0002522216Y0002675886D01*
X0002520907Y0002675064D01*
X0002519524Y0002674374D01*
X0002518080Y0002673824D01*
X0002516589Y0002673417D01*
X0002516001Y0002673318D01*
X0002526796Y0002663933D01*
X0002510008Y0002644620D01*
X0002475838Y0002674322D01*
X0002509416Y0002712950D01*
G37*
G36*
X0002595137Y0002604526D02*
G01*
X0002605932Y0002595141D01*
X0002605949Y0002595738D01*
X0002606144Y0002597271D01*
X0002606488Y0002598777D01*
X0002606979Y0002600243D01*
X0002607611Y0002601654D01*
X0002608377Y0002602996D01*
X0002609272Y0002604255D01*
X0002610286Y0002605422D01*
X0002611409Y0002606483D01*
X0002612631Y0002607429D01*
X0002613940Y0002608251D01*
X0002615323Y0002608941D01*
X0002616767Y0002609491D01*
X0002618258Y0002609898D01*
X0002619781Y0002610156D01*
X0002621324Y0002610264D01*
X0002622868Y0002610220D01*
X0002624401Y0002610025D01*
X0002625908Y0002609681D01*
X0002627373Y0002609190D01*
X0002628784Y0002608559D01*
X0002630126Y0002607792D01*
X0002631386Y0002606897D01*
X0002632552Y0002605883D01*
X0002633614Y0002604760D01*
X0002634014Y0002604242D01*
X0002634210Y0002604468D01*
X0002646095Y0002594136D01*
X0002612517Y0002555509D01*
X0002578347Y0002585212D01*
X0002595137Y0002604526D01*
G37*
G04 #@! TD*
D87*
G04 #@! TO.C,J2*
X0002749305Y0002717873D03*
D88*
X0002849305Y0002717873D03*
G04 #@! TD*
D89*
G04 #@! TO.C,J4*
X0004183562Y0002927164D03*
D90*
X0004077263Y0003064960D03*
D91*
X0004077263Y0002992125D03*
X0004077263Y0003017716D03*
X0004077263Y0002915354D03*
X0004077263Y0002940944D03*
X0004077263Y0002966535D03*
D90*
X0004077263Y0002868109D03*
D89*
X0004183562Y0003005905D03*
D92*
X0004183562Y0003104330D03*
X0004183562Y0002828739D03*
D93*
X0004183562Y0002852362D03*
X0004183562Y0003080708D03*
G04 #@! TD*
D87*
G04 #@! TO.C,J5*
X0003651605Y0003168972D03*
D88*
X0003751605Y0003168972D03*
G04 #@! TD*
D87*
G04 #@! TO.C,J6*
X0003003346Y0002533464D03*
D88*
X0003103346Y0002533464D03*
G04 #@! TD*
D86*
G04 #@! TO.C,SW2*
G36*
X0002727858Y0002562614D02*
G01*
X0002743520Y0002560968D01*
X0002743488Y0002560672D01*
X0002744140Y0002560731D01*
X0002745686Y0002560722D01*
X0002747223Y0002560560D01*
X0002748736Y0002560248D01*
X0002750212Y0002559790D01*
X0002751636Y0002559189D01*
X0002752994Y0002558452D01*
X0002754274Y0002557585D01*
X0002755462Y0002556596D01*
X0002756547Y0002555497D01*
X0002757520Y0002554296D01*
X0002758370Y0002553005D01*
X0002759090Y0002551638D01*
X0002759672Y0002550206D01*
X0002760111Y0002548724D01*
X0002760402Y0002547207D01*
X0002760543Y0002545668D01*
X0002760534Y0002544122D01*
X0002760372Y0002542585D01*
X0002760060Y0002541071D01*
X0002759602Y0002539596D01*
X0002759001Y0002538172D01*
X0002758264Y0002536813D01*
X0002757397Y0002535534D01*
X0002756409Y0002534346D01*
X0002755984Y0002533927D01*
X0002770211Y0002532431D01*
X0002767535Y0002506981D01*
X0002722507Y0002511714D01*
X0002727858Y0002562614D01*
G37*
G36*
X0002860265Y0002522966D02*
G01*
X0002874492Y0002521471D01*
X0002874163Y0002521970D01*
X0002873444Y0002523337D01*
X0002872861Y0002524769D01*
X0002872423Y0002526251D01*
X0002872131Y0002527768D01*
X0002871990Y0002529307D01*
X0002872000Y0002530853D01*
X0002872161Y0002532390D01*
X0002872473Y0002533903D01*
X0002872931Y0002535379D01*
X0002873532Y0002536803D01*
X0002874269Y0002538161D01*
X0002875136Y0002539440D01*
X0002876124Y0002540629D01*
X0002877224Y0002541714D01*
X0002878425Y0002542687D01*
X0002879716Y0002543537D01*
X0002881084Y0002544256D01*
X0002882515Y0002544839D01*
X0002883997Y0002545278D01*
X0002885515Y0002545569D01*
X0002887053Y0002545711D01*
X0002888599Y0002545701D01*
X0002890136Y0002545539D01*
X0002891650Y0002545227D01*
X0002892275Y0002545033D01*
X0002892306Y0002545330D01*
X0002907968Y0002543683D01*
X0002902618Y0002492783D01*
X0002857590Y0002497516D01*
X0002860265Y0002522966D01*
G37*
G04 #@! TD*
D94*
G04 #@! TO.C,J1*
X0004139644Y0003136851D03*
D95*
X0003995943Y0003080552D03*
D94*
X0004139644Y0002796694D03*
D95*
X0003995943Y0002852993D03*
D96*
X0003975077Y0002796694D03*
X0003975077Y0003136851D03*
G04 #@! TD*
G04 next file*
G04 #@! TF.GenerationSoftware,KiCad,Pcbnew,(5.1.10)-1*
G04 #@! TF.CreationDate,2021-07-19T19:08:23-05:00*
G04 #@! TF.ProjectId,temp sensor,74656d70-2073-4656-9e73-6f722e6b6963,0.2*
G04 #@! TF.SameCoordinates,Original*
G04 #@! TF.FileFunction,Soldermask,Bot*
G04 #@! TF.FilePolarity,Negative*
G04 Gerber Fmt 4.5, Leading zero omitted, Abs format (unit mm)*
G04 Created by KiCad (PCBNEW (5.1.10)-1) date 2021-07-19 19:08:23*
G01*
G04 APERTURE LIST*
G04 APERTURE END LIST*
D97*
G04 #@! TO.C,SW1*
G36*
X0002509416Y0003775942D02*
G01*
X0002521301Y0003765610D01*
X0002521105Y0003765385D01*
X0002521674Y0003765061D01*
X0002522934Y0003764166D01*
X0002524100Y0003763152D01*
X0002525161Y0003762028D01*
X0002526107Y0003760807D01*
X0002526929Y0003759498D01*
X0002527619Y0003758114D01*
X0002528170Y0003756670D01*
X0002528576Y0003755179D01*
X0002528835Y0003753656D01*
X0002528942Y0003752114D01*
X0002528898Y0003750570D01*
X0002528703Y0003749036D01*
X0002528359Y0003747530D01*
X0002527869Y0003746064D01*
X0002527237Y0003744654D01*
X0002526470Y0003743312D01*
X0002525575Y0003742052D01*
X0002524561Y0003740885D01*
X0002523438Y0003739824D01*
X0002522216Y0003738878D01*
X0002520907Y0003738056D01*
X0002519524Y0003737366D01*
X0002518080Y0003736816D01*
X0002516589Y0003736409D01*
X0002516001Y0003736310D01*
X0002526796Y0003726925D01*
X0002510008Y0003707612D01*
X0002475838Y0003737315D01*
X0002509416Y0003775942D01*
G37*
G36*
X0002595137Y0003667518D02*
G01*
X0002605932Y0003658133D01*
X0002605949Y0003658730D01*
X0002606144Y0003660263D01*
X0002606488Y0003661770D01*
X0002606979Y0003663235D01*
X0002607611Y0003664646D01*
X0002608377Y0003665988D01*
X0002609272Y0003667248D01*
X0002610286Y0003668414D01*
X0002611409Y0003669475D01*
X0002612631Y0003670422D01*
X0002613940Y0003671243D01*
X0002615323Y0003671933D01*
X0002616767Y0003672483D01*
X0002618258Y0003672890D01*
X0002619781Y0003673148D01*
X0002621324Y0003673256D01*
X0002622868Y0003673212D01*
X0002624401Y0003673017D01*
X0002625908Y0003672673D01*
X0002627373Y0003672183D01*
X0002628784Y0003671551D01*
X0002630126Y0003670784D01*
X0002631386Y0003669889D01*
X0002632552Y0003668875D01*
X0002633614Y0003667752D01*
X0002634014Y0003667235D01*
X0002634210Y0003667460D01*
X0002646095Y0003657128D01*
X0002612517Y0003618501D01*
X0002578347Y0003648205D01*
X0002595137Y0003667518D01*
G37*
G04 #@! TD*
D98*
G04 #@! TO.C,J2*
X0002749305Y0003780865D03*
D99*
X0002849305Y0003780865D03*
G04 #@! TD*
D100*
G04 #@! TO.C,J4*
X0004183562Y0003990157D03*
D101*
X0004077263Y0004127952D03*
D102*
X0004077263Y0004055118D03*
X0004077263Y0004080708D03*
X0004077263Y0003978346D03*
X0004077263Y0004003937D03*
X0004077263Y0004029527D03*
D101*
X0004077263Y0003931102D03*
D100*
X0004183562Y0004068897D03*
D103*
X0004183562Y0004167322D03*
X0004183562Y0003891732D03*
D104*
X0004183562Y0003915354D03*
X0004183562Y0004143700D03*
G04 #@! TD*
D98*
G04 #@! TO.C,J5*
X0003651605Y0004231965D03*
D99*
X0003751605Y0004231965D03*
G04 #@! TD*
D98*
G04 #@! TO.C,J6*
X0003003346Y0003596456D03*
D99*
X0003103346Y0003596456D03*
G04 #@! TD*
D97*
G04 #@! TO.C,SW2*
G36*
X0002727858Y0003625607D02*
G01*
X0002743520Y0003623960D01*
X0002743488Y0003623664D01*
X0002744140Y0003623724D01*
X0002745686Y0003623714D01*
X0002747223Y0003623552D01*
X0002748736Y0003623240D01*
X0002750212Y0003622782D01*
X0002751636Y0003622181D01*
X0002752994Y0003621444D01*
X0002754274Y0003620577D01*
X0002755462Y0003619589D01*
X0002756547Y0003618489D01*
X0002757520Y0003617288D01*
X0002758370Y0003615998D01*
X0002759090Y0003614630D01*
X0002759672Y0003613198D01*
X0002760111Y0003611716D01*
X0002760402Y0003610199D01*
X0002760543Y0003608660D01*
X0002760534Y0003607114D01*
X0002760372Y0003605577D01*
X0002760060Y0003604064D01*
X0002759602Y0003602588D01*
X0002759001Y0003601164D01*
X0002758264Y0003599805D01*
X0002757397Y0003598526D01*
X0002756409Y0003597338D01*
X0002755984Y0003596919D01*
X0002770211Y0003595424D01*
X0002767535Y0003569973D01*
X0002722507Y0003574706D01*
X0002727858Y0003625607D01*
G37*
G36*
X0002860265Y0003585958D02*
G01*
X0002874492Y0003584463D01*
X0002874163Y0003584962D01*
X0002873444Y0003586329D01*
X0002872861Y0003587761D01*
X0002872423Y0003589243D01*
X0002872131Y0003590761D01*
X0002871990Y0003592299D01*
X0002872000Y0003593845D01*
X0002872161Y0003595382D01*
X0002872473Y0003596896D01*
X0002872931Y0003598371D01*
X0002873532Y0003599795D01*
X0002874269Y0003601153D01*
X0002875136Y0003602433D01*
X0002876124Y0003603621D01*
X0002877224Y0003604707D01*
X0002878425Y0003605679D01*
X0002879716Y0003606529D01*
X0002881084Y0003607249D01*
X0002882515Y0003607831D01*
X0002883997Y0003608270D01*
X0002885515Y0003608561D01*
X0002887053Y0003608703D01*
X0002888599Y0003608693D01*
X0002890136Y0003608531D01*
X0002891650Y0003608220D01*
X0002892275Y0003608025D01*
X0002892306Y0003608322D01*
X0002907968Y0003606676D01*
X0002902618Y0003555775D01*
X0002857590Y0003560508D01*
X0002860265Y0003585958D01*
G37*
G04 #@! TD*
D105*
G04 #@! TO.C,J1*
X0004139644Y0004199844D03*
D106*
X0003995943Y0004143544D03*
D105*
X0004139644Y0003859686D03*
D106*
X0003995943Y0003915985D03*
D107*
X0003975077Y0003859686D03*
X0003975077Y0004199844D03*
G04 #@! TD*
G04 next file*
D108*
X0000000000Y0000000000D02*
X0000118110Y0004685039D03*
X0000118110Y0000118110D03*
X0004488188Y0000118110D03*
M02*