%
M48
METRIC,000.000
T01C0.50
%
T01
X107966Y096163
X107966Y097163
X107966Y098163
X107966Y099163
X107966Y100163
X111749Y095994
X111749Y096994
X111749Y097994
X111749Y098994
X111749Y099994
X108966Y071163
X108966Y072163
X108966Y073163
X108966Y074163
X108966Y075163
X111749Y070994
X111749Y071994
X111749Y072994
X111749Y073994
X111749Y074994
X107966Y043163
X107966Y044163
X107966Y045163
X107966Y046163
X107966Y047163
X111749Y042994
X111749Y043994
X111749Y044994
X111749Y045994
X111749Y046994
X107966Y018163
X107966Y019163
X107966Y020163
X107966Y021163
X107966Y022163
X111749Y017994
X111749Y018994
X111749Y019994
X111749Y020994
X111749Y021994
X008033Y019850
X008033Y018850
X008033Y017850
X008033Y016850
X008033Y015850
X005249Y020352
X005249Y019352
X005249Y018352
X005249Y017352
X005249Y016352
X005249Y015352
X008033Y045850
X008033Y044850
X008033Y043850
X008033Y042850
X008033Y041850
X005249Y046352
X005249Y045352
X005249Y044352
X005249Y043352
X005249Y042352
X005249Y041352
X008033Y071850
X008033Y070850
X008033Y069850
X008033Y068850
X008033Y067850
X005249Y072352
X005249Y071352
X005249Y070352
X005249Y069352
X005249Y068352
X005249Y067352
X008033Y098850
X008033Y097850
X008033Y096850
X008033Y095850
X008033Y094850
X005249Y099352
X005249Y098352
X005249Y097352
X005249Y096352
X005249Y095352
X005249Y094352
X086644Y105204
X085644Y105204
X084644Y105204
X083644Y105204
X082644Y105204
X081644Y105204
X087178Y111749
X086178Y111749
X085178Y111749
X084178Y111749
X083178Y111749
X082178Y111749
X081178Y111749
X080178Y111749
X086644Y079204
X085644Y079204
X084644Y079204
X083644Y079204
X082644Y079204
X081644Y079204
X080558Y085656
X081558Y085656
X082558Y085656
X083558Y085656
X084558Y085655
X085558Y085655
X086558Y085655
X087558Y085655
X086644Y053203
X085644Y053203
X084644Y053203
X083644Y053203
X082644Y053203
X081644Y053203
X080644Y053203
X079644Y053203
X080558Y059656
X081558Y059656
X082558Y059656
X083558Y059656
X084558Y059656
X085558Y059655
X086644Y027204
X085644Y027204
X084644Y027204
X083644Y027204
X082644Y027204
X081644Y027204
X080558Y033656
X081558Y033656
X082558Y033656
X083558Y033656
X084558Y033655
X085558Y033655
X086558Y033655
X087558Y033655
X036473Y083343
X035473Y083343
X034473Y083343
X033473Y083343
X032473Y083343
X031473Y083344
X030473Y083344
X029473Y083344
X030341Y089795
X031341Y089795
X032341Y089795
X033341Y089795
X034341Y089795
X035341Y089795
X035473Y057343
X034473Y057343
X033473Y057343
X032473Y057343
X031473Y057344
X030473Y057344
X029473Y057344
X028473Y057344
X029341Y063795
X030341Y063795
X031341Y063795
X032341Y063795
X033341Y063795
X034341Y063795
X035473Y031343
X034473Y031343
X033473Y031343
X032473Y031343
X031473Y031344
X030473Y031344
X029473Y031344
X028473Y031344
X029341Y037795
X030341Y037795
X031341Y037795
X032341Y037795
X033341Y037795
X034341Y037795
X029341Y011795
X030341Y011795
X031341Y011795
X032341Y011795
X033341Y011795
X034341Y011795
X028474Y005249
X029474Y005249
X030474Y005249
X031474Y005249
X032474Y005249
X033474Y005249
X034474Y005249
X035474Y005249
X034473Y109343
X033473Y109343
X032473Y109343
X031473Y109344
X030473Y109344
X034178Y111749
X033178Y111749
X032178Y111749
X031178Y111749
X030178Y111749
X029178Y111749
X082558Y007656
X083558Y007656
X084558Y007655
X085558Y007655
X086558Y007655
X082474Y005249
X083474Y005249
X084474Y005249
X085474Y005249
X086474Y005249
M30