%MOIN*%
%OFA0B0*%
%FSLAX36Y36*%
%IPPOS*%
%LPD*%
%ADD10C,0*%
D10*
X004566928Y000000000D02*
X004566928Y000000000D01*
X004575689Y000000986D01*
X004584010Y000003897D01*
X004591474Y000008588D01*
X004597708Y000014822D01*
X004602400Y000022287D01*
X004605311Y000030608D01*
X004606298Y000039369D01*
X004606298Y004763778D01*
X004605311Y004772539D01*
X004602400Y004780860D01*
X004597708Y004788326D01*
X004591474Y004794559D01*
X004584010Y004799249D01*
X004575689Y004802161D01*
X004566928Y004803148D01*
X000039369Y004803148D01*
X000030608Y004802161D01*
X000022287Y004799249D01*
X000014822Y004794559D01*
X000008588Y004788326D01*
X000003897Y004780860D01*
X000000986Y004772539D01*
X000000000Y004763778D01*
X000000000Y000039369D01*
X000000986Y000030608D01*
X000003897Y000022287D01*
X000008588Y000014822D01*
X000014822Y000008588D01*
X000022287Y000003897D01*
X000030608Y000000986D01*
X000039369Y000000000D01*
X004566928Y000000000D01*
X002557225Y004219132D02*
X002557225Y004219132D01*
X002547902Y004219383D01*
X002538736Y004221113D01*
X002529962Y004224277D01*
X002521802Y004228795D01*
X002514464Y004234552D01*
X002508134Y004241402D01*
X002502973Y004249171D01*
X002499112Y004257662D01*
X002496649Y004266658D01*
X002495647Y004275931D01*
X002496132Y004285246D01*
X002498090Y004294365D01*
X002501473Y004303057D01*
X002506194Y004311101D01*
X002511904Y004316927D01*
X002520110Y004326712D01*
X002528624Y004336231D01*
X002537433Y004345477D01*
X002546532Y004354439D01*
X002555910Y004363107D01*
X002565557Y004371475D01*
X002575465Y004379533D01*
X002585624Y004387273D01*
X002596022Y004394687D01*
X002606649Y004401768D01*
X002617496Y004408509D01*
X002628551Y004414903D01*
X002639803Y004420943D01*
X002651241Y004426625D01*
X002662853Y004431941D01*
X002674627Y004436887D01*
X002686552Y004441457D01*
X002698616Y004445646D01*
X002710807Y004449452D01*
X002723112Y004452870D01*
X002735519Y004455896D01*
X002748015Y004458528D01*
X002760589Y004460763D01*
X002773228Y004462598D01*
X002781524Y004464366D01*
X002790932Y004465684D01*
X002800430Y004465457D01*
X002809765Y004463690D01*
X002818688Y004460431D01*
X002826965Y004455765D01*
X002834373Y004449817D01*
X002840717Y004442745D01*
X002845828Y004434737D01*
X002849571Y004426005D01*
X002851845Y004416780D01*
X002852592Y004407309D01*
X002851790Y004397842D01*
X002849461Y004388632D01*
X002845668Y004379922D01*
X002837042Y004375354D01*
X002824289Y004374408D01*
X002811580Y004372991D01*
X002798931Y004371106D01*
X002786361Y004368756D01*
X002773887Y004365943D01*
X002761524Y004362671D01*
X002749291Y004358946D01*
X002737203Y004354771D01*
X002725279Y004350153D01*
X002713532Y004345098D01*
X002701980Y004339613D01*
X002690639Y004333705D01*
X002679523Y004327382D01*
X002668649Y004320654D01*
X002658030Y004313529D01*
X002647681Y004306016D01*
X002637617Y004298127D01*
X002627851Y004289871D01*
X002618396Y004281261D01*
X002609266Y004272307D01*
X002600472Y004263022D01*
X002592027Y004253420D01*
X002583942Y004243512D01*
X002576229Y004233312D01*
X002568897Y004222834D01*
X002566471Y004220366D01*
X002557225Y004219132D01*
X004085838Y004230931D02*
X004085838Y004230931D01*
X004076250Y004232181D01*
X004076250Y004232181D01*
X004071229Y004238948D01*
X004062575Y004248220D01*
X004053634Y004257215D01*
X004044415Y004265925D01*
X004034927Y004274341D01*
X004025180Y004282455D01*
X004015182Y004290259D01*
X004004944Y004297744D01*
X003994477Y004304905D01*
X003983789Y004311733D01*
X003972892Y004318222D01*
X003961797Y004324366D01*
X003950514Y004330158D01*
X003939055Y004335592D01*
X003927430Y004340665D01*
X003915653Y004345369D01*
X003903733Y004349701D01*
X003891683Y004353657D01*
X003879514Y004357232D01*
X003867240Y004360423D01*
X003854871Y004363227D01*
X003842420Y004365641D01*
X003829900Y004367664D01*
X003817323Y004369291D01*
X003815017Y004369626D01*
X003809475Y004377283D01*
X003805244Y004385737D01*
X003802437Y004394764D01*
X003801128Y004404126D01*
X003801351Y004413576D01*
X003803101Y004422866D01*
X003806331Y004431750D01*
X003810957Y004439995D01*
X003816855Y004447382D01*
X003823871Y004453717D01*
X003831820Y004458833D01*
X003840493Y004462595D01*
X003849659Y004464905D01*
X003859079Y004465700D01*
X003868503Y004464960D01*
X003872018Y004464366D01*
X003884681Y004462798D01*
X003897288Y004460830D01*
X003909826Y004458466D01*
X003922284Y004455706D01*
X003934648Y004452555D01*
X003946906Y004449014D01*
X003959047Y004445088D01*
X003971057Y004440780D01*
X003982926Y004436095D01*
X003994640Y004431038D01*
X004006189Y004425613D01*
X004017560Y004419826D01*
X004028743Y004413683D01*
X004039727Y004407190D01*
X004050500Y004400353D01*
X004061052Y004393178D01*
X004071372Y004385675D01*
X004081449Y004377849D01*
X004091275Y004369708D01*
X004100838Y004361262D01*
X004110130Y004352518D01*
X004119141Y004343484D01*
X004127862Y004334170D01*
X004133377Y004326999D01*
X004138963Y004319107D01*
X004143173Y004310403D01*
X004145892Y004301125D01*
X004147045Y004291525D01*
X004146602Y004281867D01*
X004144574Y004272413D01*
X004141016Y004263423D01*
X004136026Y004255141D01*
X004129741Y004247794D01*
X004122331Y004241583D01*
X004114000Y004236677D01*
X004104974Y004233210D01*
X004095501Y004231277D01*
X004085838Y004230931D01*
X002557225Y003156140D02*
X002557225Y003156140D01*
X002547902Y003156391D01*
X002538736Y003158121D01*
X002529962Y003161284D01*
X002521802Y003165803D01*
X002514464Y003171560D01*
X002508134Y003178410D01*
X002502973Y003186179D01*
X002499112Y003194670D01*
X002496649Y003203666D01*
X002495647Y003212939D01*
X002496132Y003222254D01*
X002498090Y003231373D01*
X002501473Y003240065D01*
X002506194Y003248108D01*
X002511904Y003253934D01*
X002520110Y003263720D01*
X002528624Y003273239D01*
X002537433Y003282485D01*
X002546532Y003291446D01*
X002555910Y003300115D01*
X002565557Y003308483D01*
X002575465Y003316541D01*
X002585624Y003324280D01*
X002596022Y003331695D01*
X002606649Y003338776D01*
X002617496Y003345517D01*
X002628551Y003351911D01*
X002639803Y003357951D01*
X002651241Y003363633D01*
X002662853Y003368949D01*
X002674627Y003373894D01*
X002686552Y003378465D01*
X002698616Y003382654D01*
X002710807Y003386460D01*
X002723112Y003389878D01*
X002735519Y003392904D01*
X002748015Y003395536D01*
X002760589Y003397771D01*
X002773228Y003399606D01*
X002781524Y003401374D01*
X002790932Y003402692D01*
X002800430Y003402465D01*
X002809765Y003400698D01*
X002818688Y003397439D01*
X002826965Y003392773D01*
X002834373Y003386825D01*
X002840717Y003379753D01*
X002845828Y003371745D01*
X002849571Y003363013D01*
X002851845Y003353788D01*
X002852592Y003344317D01*
X002851790Y003334850D01*
X002849461Y003325640D01*
X002845668Y003316930D01*
X002837042Y003312362D01*
X002824289Y003311416D01*
X002811580Y003309999D01*
X002798931Y003308114D01*
X002786361Y003305764D01*
X002773887Y003302951D01*
X002761524Y003299679D01*
X002749291Y003295954D01*
X002737203Y003291779D01*
X002725279Y003287161D01*
X002713532Y003282106D01*
X002701980Y003276621D01*
X002690639Y003270713D01*
X002679523Y003264390D01*
X002668649Y003257662D01*
X002658030Y003250536D01*
X002647681Y003243024D01*
X002637617Y003235135D01*
X002627851Y003226879D01*
X002618396Y003218269D01*
X002609266Y003209315D01*
X002600472Y003200030D01*
X002592027Y003190428D01*
X002583942Y003180520D01*
X002576229Y003170320D01*
X002568897Y003159842D01*
X002566471Y003157374D01*
X002557225Y003156140D01*
X004085838Y003167939D02*
X004085838Y003167939D01*
X004076250Y003169189D01*
X004076250Y003169189D01*
X004071229Y003175956D01*
X004062575Y003185228D01*
X004053634Y003194223D01*
X004044415Y003202933D01*
X004034927Y003211349D01*
X004025180Y003219463D01*
X004015182Y003227266D01*
X004004944Y003234752D01*
X003994477Y003241913D01*
X003983789Y003248741D01*
X003972892Y003255230D01*
X003961797Y003261373D01*
X003950514Y003267166D01*
X003939055Y003272600D01*
X003927430Y003277673D01*
X003915653Y003282377D01*
X003903733Y003286709D01*
X003891683Y003290665D01*
X003879514Y003294240D01*
X003867240Y003297431D01*
X003854871Y003300235D01*
X003842420Y003302649D01*
X003829900Y003304671D01*
X003817323Y003306299D01*
X003815017Y003306633D01*
X003809475Y003314291D01*
X003805244Y003322745D01*
X003802437Y003331771D01*
X003801128Y003341134D01*
X003801351Y003350584D01*
X003803101Y003359874D01*
X003806331Y003368758D01*
X003810957Y003377003D01*
X003816855Y003384390D01*
X003823871Y003390725D01*
X003831820Y003395841D01*
X003840493Y003399603D01*
X003849659Y003401913D01*
X003859079Y003402708D01*
X003868503Y003401968D01*
X003872018Y003401374D01*
X003884681Y003399806D01*
X003897288Y003397838D01*
X003909826Y003395474D01*
X003922284Y003392714D01*
X003934648Y003389563D01*
X003946906Y003386022D01*
X003959047Y003382096D01*
X003971057Y003377788D01*
X003982926Y003373103D01*
X003994640Y003368046D01*
X004006189Y003362621D01*
X004017560Y003356834D01*
X004028743Y003350691D01*
X004039727Y003344197D01*
X004050500Y003337360D01*
X004061052Y003330186D01*
X004071372Y003322683D01*
X004081449Y003314857D01*
X004091275Y003306716D01*
X004100838Y003298270D01*
X004110130Y003289526D01*
X004119141Y003280492D01*
X004127862Y003271178D01*
X004133377Y003264007D01*
X004138963Y003256115D01*
X004143173Y003247411D01*
X004145892Y003238133D01*
X004147045Y003228533D01*
X004146602Y003218874D01*
X004144574Y003209421D01*
X004141016Y003200430D01*
X004136026Y003192149D01*
X004129741Y003184802D01*
X004122331Y003178591D01*
X004114000Y003173685D01*
X004104974Y003170218D01*
X004095501Y003168285D01*
X004085838Y003167939D01*
X002009703Y003772993D02*
X002009703Y003772993D01*
X002019027Y003772742D01*
X002028192Y003771012D01*
X002036966Y003767848D01*
X002045126Y003763330D01*
X002052464Y003757573D01*
X002058794Y003750723D01*
X002063955Y003742954D01*
X002067816Y003734463D01*
X002070279Y003725467D01*
X002071281Y003716194D01*
X002070796Y003706879D01*
X002068838Y003697760D01*
X002065455Y003689068D01*
X002060734Y003681024D01*
X002055024Y003675198D01*
X002046818Y003665413D01*
X002038305Y003655894D01*
X002029495Y003646648D01*
X002020396Y003637686D01*
X002011018Y003629018D01*
X002001371Y003620650D01*
X001991463Y003612592D01*
X001981305Y003604852D01*
X001970906Y003597438D01*
X001960279Y003590357D01*
X001949432Y003583616D01*
X001938377Y003577222D01*
X001927125Y003571182D01*
X001915687Y003565500D01*
X001904076Y003560184D01*
X001892301Y003555238D01*
X001880376Y003550668D01*
X001868312Y003546478D01*
X001856122Y003542673D01*
X001843816Y003539255D01*
X001831409Y003536229D01*
X001818913Y003533597D01*
X001806339Y003531362D01*
X001793700Y003529527D01*
X001785404Y003527759D01*
X001775996Y003526441D01*
X001766498Y003526668D01*
X001757163Y003528435D01*
X001748240Y003531694D01*
X001739963Y003536360D01*
X001732555Y003542308D01*
X001726211Y003549380D01*
X001721100Y003557388D01*
X001717358Y003566120D01*
X001715083Y003575345D01*
X001714336Y003584816D01*
X001715138Y003594283D01*
X001717467Y003603493D01*
X001721261Y003612203D01*
X001729886Y003616771D01*
X001742639Y003617717D01*
X001755348Y003619134D01*
X001767997Y003621019D01*
X001780567Y003623369D01*
X001793041Y003626182D01*
X001805404Y003629454D01*
X001817637Y003633179D01*
X001829725Y003637354D01*
X001841649Y003641972D01*
X001853396Y003647027D01*
X001864948Y003652512D01*
X001876289Y003658420D01*
X001887405Y003664743D01*
X001898279Y003671471D01*
X001908898Y003678596D01*
X001919247Y003686109D01*
X001929311Y003693998D01*
X001939077Y003702254D01*
X001948532Y003710864D01*
X001957662Y003719818D01*
X001966456Y003729103D01*
X001974901Y003738705D01*
X001982986Y003748613D01*
X001990700Y003758813D01*
X001998031Y003769291D01*
X002000457Y003771759D01*
X002009703Y003772993D01*
X000481090Y003761194D02*
X000481090Y003761194D01*
X000490678Y003759944D01*
X000490678Y003759944D01*
X000495699Y003753177D01*
X000504354Y003743905D01*
X000513294Y003734910D01*
X000522513Y003726200D01*
X000532001Y003717784D01*
X000541748Y003709670D01*
X000551746Y003701866D01*
X000561984Y003694381D01*
X000572452Y003687220D01*
X000583139Y003680391D01*
X000594036Y003673903D01*
X000605131Y003667759D01*
X000616414Y003661967D01*
X000627873Y003656533D01*
X000639498Y003651460D01*
X000651275Y003646756D01*
X000663195Y003642424D01*
X000675245Y003638468D01*
X000687414Y003634893D01*
X000699688Y003631702D01*
X000712057Y003628898D01*
X000724508Y003626484D01*
X000737028Y003624461D01*
X000749606Y003622834D01*
X000751911Y003622499D01*
X000757454Y003614842D01*
X000761685Y003606388D01*
X000764491Y003597361D01*
X000765800Y003587999D01*
X000765577Y003578549D01*
X000763827Y003569259D01*
X000760597Y003560375D01*
X000755972Y003552130D01*
X000750073Y003544743D01*
X000743057Y003538408D01*
X000735108Y003533292D01*
X000726436Y003529530D01*
X000717269Y003527220D01*
X000707849Y003526425D01*
X000698425Y003527165D01*
X000694910Y003527759D01*
X000682247Y003529327D01*
X000669640Y003531294D01*
X000657102Y003533659D01*
X000644644Y003536419D01*
X000632280Y003539570D01*
X000620022Y003543111D01*
X000607881Y003547037D01*
X000595871Y003551345D01*
X000584003Y003556030D01*
X000572288Y003561087D01*
X000560740Y003566512D01*
X000549368Y003572299D01*
X000538185Y003578442D01*
X000527201Y003584935D01*
X000516428Y003591772D01*
X000505876Y003598946D01*
X000495556Y003606450D01*
X000485479Y003614276D01*
X000475653Y003622416D01*
X000466090Y003630863D01*
X000456798Y003639607D01*
X000447787Y003648641D01*
X000439066Y003657955D01*
X000433551Y003665126D01*
X000427965Y003673018D01*
X000423755Y003681722D01*
X000421036Y003691000D01*
X000419883Y003700600D01*
X000420326Y003710258D01*
X000422354Y003719712D01*
X000425912Y003728702D01*
X000430902Y003736984D01*
X000437187Y003744331D01*
X000444597Y003750542D01*
X000452928Y003755448D01*
X000461954Y003758915D01*
X000471428Y003760848D01*
X000481090Y003761194D01*
X002009703Y002710001D02*
X002009703Y002710001D01*
X002019027Y002709750D01*
X002028192Y002708020D01*
X002036966Y002704856D01*
X002045126Y002700338D01*
X002052464Y002694581D01*
X002058794Y002687731D01*
X002063955Y002679962D01*
X002067816Y002671471D01*
X002070279Y002662475D01*
X002071281Y002653202D01*
X002070796Y002643887D01*
X002068838Y002634768D01*
X002065455Y002626076D01*
X002060734Y002618032D01*
X002055024Y002612206D01*
X002046818Y002602421D01*
X002038305Y002592901D01*
X002029495Y002583656D01*
X002020396Y002574694D01*
X002011018Y002566026D01*
X002001371Y002557658D01*
X001991463Y002549600D01*
X001981305Y002541860D01*
X001970906Y002534446D01*
X001960279Y002527365D01*
X001949432Y002520624D01*
X001938377Y002514230D01*
X001927125Y002508189D01*
X001915687Y002502508D01*
X001904076Y002497192D01*
X001892301Y002492246D01*
X001880376Y002487676D01*
X001868312Y002483486D01*
X001856122Y002479681D01*
X001843816Y002476263D01*
X001831409Y002473237D01*
X001818913Y002470605D01*
X001806339Y002468370D01*
X001793700Y002466535D01*
X001785404Y002464767D01*
X001775996Y002463448D01*
X001766498Y002463676D01*
X001757163Y002465443D01*
X001748240Y002468702D01*
X001739963Y002473368D01*
X001732555Y002479316D01*
X001726211Y002486388D01*
X001721100Y002494396D01*
X001717358Y002503128D01*
X001715083Y002512353D01*
X001714336Y002521823D01*
X001715138Y002531291D01*
X001717467Y002540501D01*
X001721261Y002549211D01*
X001729886Y002553779D01*
X001742639Y002554725D01*
X001755348Y002556142D01*
X001767997Y002558027D01*
X001780567Y002560377D01*
X001793041Y002563190D01*
X001805404Y002566461D01*
X001817637Y002570187D01*
X001829725Y002574362D01*
X001841649Y002578980D01*
X001853396Y002584035D01*
X001864948Y002589520D01*
X001876289Y002595428D01*
X001887405Y002601750D01*
X001898279Y002608479D01*
X001908898Y002615604D01*
X001919247Y002623117D01*
X001929311Y002631006D01*
X001939077Y002639262D01*
X001948532Y002647872D01*
X001957662Y002656826D01*
X001966456Y002666111D01*
X001974901Y002675713D01*
X001982986Y002685621D01*
X001990700Y002695821D01*
X001998031Y002706299D01*
X002000457Y002708767D01*
X002009703Y002710001D01*
X000481090Y002698202D02*
X000481090Y002698202D01*
X000490678Y002696951D01*
X000490678Y002696952D01*
X000495699Y002690185D01*
X000504354Y002680913D01*
X000513294Y002671918D01*
X000522513Y002663208D01*
X000532001Y002654792D01*
X000541748Y002646678D01*
X000551746Y002638874D01*
X000561984Y002631388D01*
X000572452Y002624228D01*
X000583139Y002617399D01*
X000594036Y002610910D01*
X000605131Y002604767D01*
X000616414Y002598975D01*
X000627873Y002593540D01*
X000639498Y002588468D01*
X000651275Y002583764D01*
X000663195Y002579431D01*
X000675245Y002575476D01*
X000687414Y002571901D01*
X000699688Y002568709D01*
X000712057Y002565905D01*
X000724508Y002563491D01*
X000737028Y002561469D01*
X000749606Y002559842D01*
X000751911Y002559507D01*
X000757454Y002551850D01*
X000761685Y002543396D01*
X000764491Y002534369D01*
X000765800Y002525007D01*
X000765577Y002515557D01*
X000763827Y002506267D01*
X000760597Y002497383D01*
X000755972Y002489138D01*
X000750073Y002481751D01*
X000743057Y002475416D01*
X000735108Y002470300D01*
X000726436Y002466538D01*
X000717269Y002464228D01*
X000707849Y002463433D01*
X000698425Y002464173D01*
X000694910Y002464766D01*
X000682247Y002466335D01*
X000669640Y002468302D01*
X000657102Y002470667D01*
X000644644Y002473427D01*
X000632280Y002476578D01*
X000620022Y002480119D01*
X000607881Y002484045D01*
X000595871Y002488353D01*
X000584003Y002493038D01*
X000572288Y002498095D01*
X000560740Y002503520D01*
X000549368Y002509306D01*
X000538185Y002515450D01*
X000527201Y002521943D01*
X000516428Y002528780D01*
X000505876Y002535954D01*
X000495556Y002543458D01*
X000485479Y002551284D01*
X000475653Y002559424D01*
X000466090Y002567871D01*
X000456798Y002576615D01*
X000447787Y002585649D01*
X000439066Y002594963D01*
X000433551Y002602134D01*
X000427965Y002610026D01*
X000423755Y002618729D01*
X000421036Y002628008D01*
X000419883Y002637608D01*
X000420326Y002647266D01*
X000422354Y002656720D01*
X000425912Y002665710D01*
X000430902Y002673992D01*
X000437187Y002681339D01*
X000444597Y002687550D01*
X000452928Y002692456D01*
X000461954Y002695923D01*
X000471428Y002697856D01*
X000481090Y002698202D01*
X002557225Y002093148D02*
X002557225Y002093148D01*
X002547902Y002093399D01*
X002538736Y002095129D01*
X002529962Y002098292D01*
X002521802Y002102811D01*
X002514464Y002108568D01*
X002508134Y002115418D01*
X002502973Y002123187D01*
X002499112Y002131678D01*
X002496649Y002140674D01*
X002495647Y002149947D01*
X002496132Y002159261D01*
X002498090Y002168381D01*
X002501473Y002177072D01*
X002506194Y002185116D01*
X002511904Y002190942D01*
X002520110Y002200727D01*
X002528624Y002210247D01*
X002537433Y002219492D01*
X002546532Y002228454D01*
X002555910Y002237123D01*
X002565557Y002245491D01*
X002575465Y002253548D01*
X002585624Y002261288D01*
X002596022Y002268703D01*
X002606649Y002275784D01*
X002617496Y002282525D01*
X002628551Y002288919D01*
X002639803Y002294959D01*
X002651241Y002300640D01*
X002662853Y002305957D01*
X002674627Y002310902D01*
X002686552Y002315472D01*
X002698616Y002319662D01*
X002710807Y002323468D01*
X002723112Y002326886D01*
X002735519Y002329912D01*
X002748015Y002332544D01*
X002760589Y002334779D01*
X002773228Y002336614D01*
X002781524Y002338382D01*
X002790932Y002339700D01*
X002800430Y002339473D01*
X002809765Y002337706D01*
X002818688Y002334446D01*
X002826965Y002329780D01*
X002834373Y002323833D01*
X002840717Y002316761D01*
X002845828Y002308753D01*
X002849571Y002300020D01*
X002851845Y002290796D01*
X002852592Y002281325D01*
X002851790Y002271858D01*
X002849461Y002262648D01*
X002845668Y002253938D01*
X002837042Y002249370D01*
X002824289Y002248424D01*
X002811580Y002247007D01*
X002798931Y002245122D01*
X002786361Y002242771D01*
X002773887Y002239958D01*
X002761524Y002236687D01*
X002749291Y002232962D01*
X002737203Y002228787D01*
X002725279Y002224169D01*
X002713532Y002219114D01*
X002701980Y002213629D01*
X002690639Y002207721D01*
X002679523Y002201398D01*
X002668649Y002194670D01*
X002658030Y002187544D01*
X002647681Y002180032D01*
X002637617Y002172142D01*
X002627851Y002163887D01*
X002618396Y002155276D01*
X002609266Y002146323D01*
X002600472Y002137038D01*
X002592027Y002127435D01*
X002583942Y002117527D01*
X002576229Y002107327D01*
X002568897Y002096850D01*
X002566471Y002094382D01*
X002557225Y002093148D01*
X004085838Y002104947D02*
X004085838Y002104947D01*
X004076250Y002106197D01*
X004076250Y002106197D01*
X004071229Y002112964D01*
X004062575Y002122236D01*
X004053634Y002131231D01*
X004044415Y002139941D01*
X004034927Y002148357D01*
X004025180Y002156471D01*
X004015182Y002164274D01*
X004004944Y002171760D01*
X003994477Y002178921D01*
X003983789Y002185749D01*
X003972892Y002192238D01*
X003961797Y002198381D01*
X003950514Y002204174D01*
X003939055Y002209608D01*
X003927430Y002214681D01*
X003915653Y002219385D01*
X003903733Y002223717D01*
X003891683Y002227673D01*
X003879514Y002231248D01*
X003867240Y002234439D01*
X003854871Y002237243D01*
X003842420Y002239657D01*
X003829900Y002241679D01*
X003817323Y002243307D01*
X003815017Y002243641D01*
X003809475Y002251299D01*
X003805244Y002259753D01*
X003802437Y002268779D01*
X003801128Y002278142D01*
X003801351Y002287592D01*
X003803101Y002296882D01*
X003806331Y002305766D01*
X003810957Y002314010D01*
X003816855Y002321397D01*
X003823871Y002327733D01*
X003831820Y002332849D01*
X003840493Y002336611D01*
X003849659Y002338920D01*
X003859079Y002339716D01*
X003868503Y002338976D01*
X003872018Y002338382D01*
X003884681Y002336814D01*
X003897288Y002334846D01*
X003909826Y002332481D01*
X003922284Y002329722D01*
X003934648Y002326570D01*
X003946906Y002323029D01*
X003959047Y002319104D01*
X003971057Y002314796D01*
X003982926Y002310111D01*
X003994640Y002305054D01*
X004006189Y002299629D01*
X004017560Y002293842D01*
X004028743Y002287699D01*
X004039727Y002281205D01*
X004050500Y002274368D01*
X004061052Y002267194D01*
X004071372Y002259690D01*
X004081449Y002251865D01*
X004091275Y002243724D01*
X004100838Y002235278D01*
X004110130Y002226533D01*
X004119141Y002217500D01*
X004127862Y002208186D01*
X004133377Y002201015D01*
X004138963Y002193123D01*
X004143173Y002184419D01*
X004145892Y002175140D01*
X004147045Y002165541D01*
X004146602Y002155882D01*
X004144574Y002146429D01*
X004141016Y002137438D01*
X004136026Y002129157D01*
X004129741Y002121810D01*
X004122331Y002115599D01*
X004114000Y002110693D01*
X004104974Y002107226D01*
X004095501Y002105293D01*
X004085838Y002104947D01*
X002009703Y001647009D02*
X002009703Y001647009D01*
X002019027Y001646757D01*
X002028192Y001645028D01*
X002036966Y001641864D01*
X002045126Y001637346D01*
X002052464Y001631589D01*
X002058794Y001624739D01*
X002063955Y001616969D01*
X002067816Y001608479D01*
X002070279Y001599483D01*
X002071281Y001590210D01*
X002070796Y001580895D01*
X002068838Y001571776D01*
X002065455Y001563084D01*
X002060734Y001555040D01*
X002055024Y001549214D01*
X002046818Y001539429D01*
X002038305Y001529909D01*
X002029495Y001520664D01*
X002020396Y001511702D01*
X002011018Y001503033D01*
X002001371Y001494666D01*
X001991463Y001486608D01*
X001981305Y001478868D01*
X001970906Y001471454D01*
X001960279Y001464373D01*
X001949432Y001457632D01*
X001938377Y001451238D01*
X001927125Y001445197D01*
X001915687Y001439516D01*
X001904076Y001434200D01*
X001892301Y001429254D01*
X001880376Y001424684D01*
X001868312Y001420494D01*
X001856122Y001416689D01*
X001843816Y001413271D01*
X001831409Y001410244D01*
X001818913Y001407613D01*
X001806339Y001405378D01*
X001793700Y001403543D01*
X001785404Y001401775D01*
X001775996Y001400456D01*
X001766498Y001400684D01*
X001757163Y001402451D01*
X001748240Y001405710D01*
X001739963Y001410376D01*
X001732555Y001416324D01*
X001726211Y001423396D01*
X001721100Y001431404D01*
X001717358Y001440136D01*
X001715083Y001449360D01*
X001714336Y001458831D01*
X001715138Y001468298D01*
X001717467Y001477509D01*
X001721261Y001486219D01*
X001729886Y001490786D01*
X001742639Y001491733D01*
X001755348Y001493150D01*
X001767997Y001495035D01*
X001780567Y001497385D01*
X001793041Y001500198D01*
X001805404Y001503469D01*
X001817637Y001507195D01*
X001829725Y001511370D01*
X001841649Y001515988D01*
X001853396Y001521042D01*
X001864948Y001526528D01*
X001876289Y001532436D01*
X001887405Y001538758D01*
X001898279Y001545487D01*
X001908898Y001552612D01*
X001919247Y001560125D01*
X001929311Y001568014D01*
X001939077Y001576270D01*
X001948532Y001584880D01*
X001957662Y001593834D01*
X001966456Y001603119D01*
X001974901Y001612721D01*
X001982986Y001622629D01*
X001990700Y001632829D01*
X001998031Y001643307D01*
X002000457Y001645775D01*
X002009703Y001647009D01*
X000481090Y001635209D02*
X000481090Y001635209D01*
X000490678Y001633959D01*
X000490678Y001633960D01*
X000495699Y001627193D01*
X000504354Y001617921D01*
X000513294Y001608926D01*
X000522513Y001600216D01*
X000532001Y001591799D01*
X000541748Y001583686D01*
X000551746Y001575882D01*
X000561984Y001568396D01*
X000572452Y001561236D01*
X000583139Y001554407D01*
X000594036Y001547918D01*
X000605131Y001541775D01*
X000616414Y001535983D01*
X000627873Y001530548D01*
X000639498Y001525476D01*
X000651275Y001520772D01*
X000663195Y001516439D01*
X000675245Y001512484D01*
X000687414Y001508908D01*
X000699688Y001505717D01*
X000712057Y001502913D01*
X000724508Y001500499D01*
X000737028Y001498477D01*
X000749606Y001496849D01*
X000751911Y001496515D01*
X000757454Y001488858D01*
X000761685Y001480404D01*
X000764491Y001471377D01*
X000765800Y001462015D01*
X000765577Y001452564D01*
X000763827Y001443275D01*
X000760597Y001434391D01*
X000755972Y001426146D01*
X000750073Y001418759D01*
X000743057Y001412424D01*
X000735108Y001407308D01*
X000726436Y001403546D01*
X000717269Y001401236D01*
X000707849Y001400441D01*
X000698425Y001401180D01*
X000694910Y001401774D01*
X000682247Y001403343D01*
X000669640Y001405310D01*
X000657102Y001407675D01*
X000644644Y001410435D01*
X000632280Y001413586D01*
X000620022Y001417127D01*
X000607881Y001421053D01*
X000595871Y001425361D01*
X000584003Y001430046D01*
X000572288Y001435103D01*
X000560740Y001440527D01*
X000549368Y001446314D01*
X000538185Y001452458D01*
X000527201Y001458951D01*
X000516428Y001465788D01*
X000505876Y001472962D01*
X000495556Y001480466D01*
X000485479Y001488292D01*
X000475653Y001496432D01*
X000466090Y001504879D01*
X000456798Y001513623D01*
X000447787Y001522657D01*
X000439066Y001531971D01*
X000433551Y001539142D01*
X000427965Y001547033D01*
X000423755Y001555737D01*
X000421036Y001565016D01*
X000419883Y001574616D01*
X000420326Y001584274D01*
X000422354Y001593728D01*
X000425912Y001602718D01*
X000430902Y001611000D01*
X000437187Y001618347D01*
X000444597Y001624558D01*
X000452928Y001629464D01*
X000461954Y001632931D01*
X000471428Y001634863D01*
X000481090Y001635209D01*
X002557225Y001030156D02*
X002557225Y001030156D01*
X002547902Y001030407D01*
X002538736Y001032136D01*
X002529962Y001035300D01*
X002521802Y001039818D01*
X002514464Y001045576D01*
X002508134Y001052426D01*
X002502973Y001060195D01*
X002499112Y001068685D01*
X002496649Y001077682D01*
X002495647Y001086955D01*
X002496132Y001096269D01*
X002498090Y001105389D01*
X002501473Y001114080D01*
X002506194Y001122124D01*
X002511904Y001127950D01*
X002520110Y001137735D01*
X002528624Y001147255D01*
X002537433Y001156500D01*
X002546532Y001165462D01*
X002555910Y001174131D01*
X002565557Y001182499D01*
X002575465Y001190556D01*
X002585624Y001198296D01*
X002596022Y001205711D01*
X002606649Y001212791D01*
X002617496Y001219533D01*
X002628551Y001225927D01*
X002639803Y001231967D01*
X002651241Y001237648D01*
X002662853Y001242965D01*
X002674627Y001247910D01*
X002686552Y001252480D01*
X002698616Y001256670D01*
X002710807Y001260476D01*
X002723112Y001263894D01*
X002735519Y001266920D01*
X002748015Y001269552D01*
X002760589Y001271787D01*
X002773228Y001273621D01*
X002781524Y001275390D01*
X002790932Y001276708D01*
X002800430Y001276481D01*
X002809765Y001274714D01*
X002818688Y001271454D01*
X002826965Y001266788D01*
X002834373Y001260841D01*
X002840717Y001253769D01*
X002845828Y001245760D01*
X002849571Y001237028D01*
X002851845Y001227804D01*
X002852592Y001218333D01*
X002851790Y001208866D01*
X002849461Y001199655D01*
X002845668Y001190946D01*
X002837042Y001186378D01*
X002824289Y001185431D01*
X002811580Y001184015D01*
X002798931Y001182130D01*
X002786361Y001179779D01*
X002773887Y001176966D01*
X002761524Y001173695D01*
X002749291Y001169970D01*
X002737203Y001165795D01*
X002725279Y001161177D01*
X002713532Y001156122D01*
X002701980Y001150637D01*
X002690639Y001144729D01*
X002679523Y001138406D01*
X002668649Y001131678D01*
X002658030Y001124552D01*
X002647681Y001117040D01*
X002637617Y001109150D01*
X002627851Y001100895D01*
X002618396Y001092284D01*
X002609266Y001083331D01*
X002600472Y001074046D01*
X002592027Y001064443D01*
X002583942Y001054535D01*
X002576229Y001044335D01*
X002568897Y001033858D01*
X002566471Y001031389D01*
X002557225Y001030156D01*
X004085838Y001041955D02*
X004085838Y001041955D01*
X004076250Y001043205D01*
X004076250Y001043205D01*
X004071229Y001049972D01*
X004062575Y001059244D01*
X004053634Y001068239D01*
X004044415Y001076949D01*
X004034927Y001085365D01*
X004025180Y001093479D01*
X004015182Y001101282D01*
X004004944Y001108768D01*
X003994477Y001115929D01*
X003983789Y001122757D01*
X003972892Y001129246D01*
X003961797Y001135389D01*
X003950514Y001141182D01*
X003939055Y001146616D01*
X003927430Y001151688D01*
X003915653Y001156393D01*
X003903733Y001160725D01*
X003891683Y001164681D01*
X003879514Y001168256D01*
X003867240Y001171447D01*
X003854871Y001174251D01*
X003842420Y001176665D01*
X003829900Y001178687D01*
X003817323Y001180315D01*
X003815017Y001180649D01*
X003809475Y001188307D01*
X003805244Y001196760D01*
X003802437Y001205787D01*
X003801128Y001215149D01*
X003801351Y001224600D01*
X003803101Y001233890D01*
X003806331Y001242774D01*
X003810957Y001251018D01*
X003816855Y001258405D01*
X003823871Y001264740D01*
X003831820Y001269857D01*
X003840493Y001273619D01*
X003849659Y001275928D01*
X003859079Y001276723D01*
X003868503Y001275984D01*
X003872018Y001275390D01*
X003884681Y001273822D01*
X003897288Y001271854D01*
X003909826Y001269489D01*
X003922284Y001266730D01*
X003934648Y001263578D01*
X003946906Y001260037D01*
X003959047Y001256111D01*
X003971057Y001251804D01*
X003982926Y001247119D01*
X003994640Y001242062D01*
X004006189Y001236637D01*
X004017560Y001230850D01*
X004028743Y001224707D01*
X004039727Y001218213D01*
X004050500Y001211376D01*
X004061052Y001204202D01*
X004071372Y001196698D01*
X004081449Y001188872D01*
X004091275Y001180732D01*
X004100838Y001172286D01*
X004110130Y001163541D01*
X004119141Y001154507D01*
X004127862Y001145194D01*
X004133377Y001138023D01*
X004138963Y001130131D01*
X004143173Y001121427D01*
X004145892Y001112148D01*
X004147045Y001102549D01*
X004146602Y001092890D01*
X004144574Y001083437D01*
X004141016Y001074446D01*
X004136026Y001066164D01*
X004129741Y001058818D01*
X004122331Y001052607D01*
X004114000Y001047700D01*
X004104974Y001044234D01*
X004095501Y001042301D01*
X004085838Y001041955D01*
X002009703Y000584016D02*
X002009703Y000584016D01*
X002019027Y000583765D01*
X002028192Y000582036D01*
X002036966Y000578872D01*
X002045126Y000574354D01*
X002052464Y000568597D01*
X002058794Y000561746D01*
X002063955Y000553977D01*
X002067816Y000545487D01*
X002070279Y000536491D01*
X002071281Y000527218D01*
X002070796Y000517903D01*
X002068838Y000508784D01*
X002065455Y000500092D01*
X002060734Y000492048D01*
X002055024Y000486222D01*
X002046818Y000476437D01*
X002038305Y000466917D01*
X002029495Y000457672D01*
X002020396Y000448710D01*
X002011018Y000440041D01*
X002001371Y000431674D01*
X001991463Y000423616D01*
X001981305Y000415876D01*
X001970906Y000408462D01*
X001960279Y000401381D01*
X001949432Y000394640D01*
X001938377Y000388246D01*
X001927125Y000382205D01*
X001915687Y000376524D01*
X001904076Y000371208D01*
X001892301Y000366262D01*
X001880376Y000361692D01*
X001868312Y000357502D01*
X001856122Y000353696D01*
X001843816Y000350279D01*
X001831409Y000347252D01*
X001818913Y000344620D01*
X001806339Y000342386D01*
X001793700Y000340551D01*
X001785404Y000338782D01*
X001775996Y000337464D01*
X001766498Y000337692D01*
X001757163Y000339459D01*
X001748240Y000342718D01*
X001739963Y000347384D01*
X001732555Y000353331D01*
X001726211Y000360403D01*
X001721100Y000368412D01*
X001717358Y000377144D01*
X001715083Y000386368D01*
X001714336Y000395839D01*
X001715138Y000405306D01*
X001717467Y000414517D01*
X001721261Y000423227D01*
X001729886Y000427794D01*
X001742639Y000428741D01*
X001755348Y000430157D01*
X001767997Y000432043D01*
X001780567Y000434393D01*
X001793041Y000437206D01*
X001805404Y000440477D01*
X001817637Y000444203D01*
X001829725Y000448378D01*
X001841649Y000452996D01*
X001853396Y000458050D01*
X001864948Y000463536D01*
X001876289Y000469444D01*
X001887405Y000475766D01*
X001898279Y000482495D01*
X001908898Y000489620D01*
X001919247Y000497133D01*
X001929311Y000505022D01*
X001939077Y000513278D01*
X001948532Y000521888D01*
X001957662Y000530842D01*
X001966456Y000540126D01*
X001974901Y000549729D01*
X001982986Y000559637D01*
X001990700Y000569837D01*
X001998031Y000580314D01*
X002000457Y000582783D01*
X002009703Y000584016D01*
X000481090Y000572217D02*
X000481090Y000572217D01*
X000490678Y000570967D01*
X000490678Y000570967D01*
X000495699Y000564200D01*
X000504354Y000554929D01*
X000513294Y000545933D01*
X000522513Y000537224D01*
X000532001Y000528807D01*
X000541748Y000520694D01*
X000551746Y000512890D01*
X000561984Y000505404D01*
X000572452Y000498244D01*
X000583139Y000491415D01*
X000594036Y000484926D01*
X000605131Y000478783D01*
X000616414Y000472991D01*
X000627873Y000467556D01*
X000639498Y000462484D01*
X000651275Y000457779D01*
X000663195Y000453447D01*
X000675245Y000449492D01*
X000687414Y000445916D01*
X000699688Y000442725D01*
X000712057Y000439921D01*
X000724508Y000437507D01*
X000737028Y000435485D01*
X000749606Y000433857D01*
X000751911Y000433523D01*
X000757454Y000425865D01*
X000761685Y000417412D01*
X000764491Y000408385D01*
X000765800Y000399023D01*
X000765577Y000389572D01*
X000763827Y000380282D01*
X000760597Y000371398D01*
X000755972Y000363154D01*
X000750073Y000355767D01*
X000743057Y000349432D01*
X000735108Y000344316D01*
X000726436Y000340553D01*
X000717269Y000338244D01*
X000707849Y000337449D01*
X000698425Y000338188D01*
X000694910Y000338782D01*
X000682247Y000340351D01*
X000669640Y000342318D01*
X000657102Y000344683D01*
X000644644Y000347442D01*
X000632280Y000350594D01*
X000620022Y000354135D01*
X000607881Y000358061D01*
X000595871Y000362368D01*
X000584003Y000367054D01*
X000572288Y000372111D01*
X000560740Y000377535D01*
X000549368Y000383322D01*
X000538185Y000389466D01*
X000527201Y000395959D01*
X000516428Y000402796D01*
X000505876Y000409970D01*
X000495556Y000417474D01*
X000485479Y000425300D01*
X000475653Y000433440D01*
X000466090Y000441887D01*
X000456798Y000450631D01*
X000447787Y000459665D01*
X000439066Y000468979D01*
X000433551Y000476149D01*
X000427965Y000484041D01*
X000423755Y000492745D01*
X000421036Y000502024D01*
X000419883Y000511623D01*
X000420326Y000521282D01*
X000422354Y000530736D01*
X000425912Y000539726D01*
X000430902Y000548008D01*
X000437187Y000555355D01*
X000444597Y000561566D01*
X000452928Y000566472D01*
X000461954Y000569938D01*
X000471428Y000571871D01*
X000481090Y000572217D01*
X000196849Y003024740D02*
X000196849Y003024740D01*
X000196849Y003865022D01*
X000196895Y003866928D01*
X000197034Y003868829D01*
X000197264Y003870721D01*
X000197585Y003872600D01*
X000197997Y003874461D01*
X000198499Y003876300D01*
X000199089Y003878112D01*
X000199766Y003879894D01*
X000200528Y003881641D01*
X000201375Y003883349D01*
X000202303Y003885014D01*
X000203310Y003886632D01*
X000204394Y003888200D01*
X000205553Y003889713D01*
X000206784Y003891168D01*
X000208084Y003892562D01*
X000209450Y003893892D01*
X000210879Y003895153D01*
X000212367Y003896344D01*
X000213911Y003897462D01*
X000264441Y003932211D01*
X000268090Y003934438D01*
X000271960Y003936257D01*
X000276004Y003937646D01*
X000280174Y003938588D01*
X000284423Y003939072D01*
X000288698Y003939092D01*
X000292951Y003938649D01*
X000297131Y003937747D01*
X000301188Y003936398D01*
X000305074Y003934616D01*
X000308745Y003932423D01*
X000312156Y003929845D01*
X000315268Y003926913D01*
X000318043Y003923660D01*
X000320449Y003920125D01*
X000322458Y003916351D01*
X000324045Y003912381D01*
X000325193Y003908262D01*
X000325887Y003904043D01*
X000326119Y003899774D01*
X000326127Y003787411D01*
X000308490Y003787411D01*
X000313131Y003775735D01*
X000318071Y003764183D01*
X000323306Y003752760D01*
X000328832Y003741477D01*
X000334645Y003730338D01*
X000340741Y003719352D01*
X000347118Y003708526D01*
X000353770Y003697867D01*
X000360693Y003687382D01*
X000367882Y003677078D01*
X000375334Y003666962D01*
X000383043Y003657040D01*
X000391002Y003647320D01*
X000399210Y003637806D01*
X000407658Y003628506D01*
X000416341Y003619425D01*
X000425255Y003610571D01*
X000434393Y003601947D01*
X000443749Y003593561D01*
X000453316Y003585417D01*
X000463090Y003577521D01*
X000473062Y003569879D01*
X000483228Y003562495D01*
X000493579Y003555374D01*
X000504110Y003548520D01*
X000514813Y003541939D01*
X000525680Y003535635D01*
X000536706Y003529611D01*
X000547884Y003523871D01*
X000559204Y003518421D01*
X000570661Y003513262D01*
X000582245Y003508399D01*
X000593951Y003503834D01*
X000605770Y003499571D01*
X000617695Y003495612D01*
X000629717Y003491961D01*
X000641828Y003488619D01*
X000654022Y003485588D01*
X000666288Y003482872D01*
X000678621Y003480470D01*
X000691011Y003478386D01*
X000703451Y003476620D01*
X000715932Y003475173D01*
X000728445Y003474047D01*
X000740984Y003473242D01*
X000753539Y003472759D01*
X000766102Y003472598D01*
X000936102Y003472597D01*
X000936102Y003702598D01*
X001183556Y003702598D01*
X001186705Y003702472D01*
X001189835Y003702094D01*
X001192924Y003701467D01*
X001195953Y003700595D01*
X001198903Y003699483D01*
X001201754Y003698139D01*
X001204489Y003696572D01*
X001207089Y003694790D01*
X001209539Y003692806D01*
X001211822Y003690633D01*
X001213923Y003688284D01*
X001215831Y003685774D01*
X001217531Y003683120D01*
X001219013Y003680338D01*
X001220269Y003677447D01*
X001221288Y003674464D01*
X001222066Y003671409D01*
X001222597Y003668302D01*
X001222878Y003665163D01*
X001222907Y003662011D01*
X001215661Y003427695D01*
X001215451Y003424672D01*
X001215008Y003421673D01*
X001214337Y003418718D01*
X001213440Y003415823D01*
X001212323Y003413005D01*
X001210993Y003410282D01*
X001209457Y003407669D01*
X001207725Y003405182D01*
X001205806Y003402836D01*
X001203713Y003400644D01*
X001201457Y003398620D01*
X001199052Y003396775D01*
X001196513Y003395121D01*
X001193853Y003393667D01*
X001191090Y003392422D01*
X001188239Y003391393D01*
X001185318Y003390586D01*
X001182343Y003390007D01*
X001179332Y003389658D01*
X001176303Y003389542D01*
X000766102Y003389606D01*
X000753530Y003389445D01*
X000740966Y003388961D01*
X000728419Y003388155D01*
X000715897Y003387027D01*
X000703407Y003385578D01*
X000690960Y003383810D01*
X000678560Y003381722D01*
X000666220Y003379318D01*
X000653944Y003376597D01*
X000641743Y003373562D01*
X000629623Y003370216D01*
X000617594Y003366559D01*
X000605662Y003362595D01*
X000593836Y003358326D01*
X000582123Y003353755D01*
X000570532Y003348885D01*
X000559068Y003343720D01*
X000547742Y003338261D01*
X000536559Y003332515D01*
X000525527Y003326482D01*
X000514654Y003320170D01*
X000503946Y003313580D01*
X000493411Y003306717D01*
X000483056Y003299586D01*
X000472887Y003292193D01*
X000462910Y003284540D01*
X000453134Y003276635D01*
X000443563Y003268480D01*
X000434205Y003260084D01*
X000425066Y003251450D01*
X000416151Y003242584D01*
X000407466Y003233492D01*
X000399017Y003224180D01*
X000390811Y003214655D01*
X000382851Y003204922D01*
X000375143Y003194989D01*
X000367693Y003184861D01*
X000360505Y003174545D01*
X000353585Y003164048D01*
X000346936Y003153377D01*
X000340563Y003142538D01*
X000334470Y003131540D01*
X000328661Y003120389D01*
X000323140Y003109093D01*
X000317912Y003097659D01*
X000312978Y003086094D01*
X000308342Y003074407D01*
X000326102Y003074409D01*
X000326108Y002990002D01*
X000325876Y002985732D01*
X000325183Y002981513D01*
X000324036Y002977394D01*
X000322448Y002973423D01*
X000320440Y002969648D01*
X000318034Y002966113D01*
X000315259Y002962860D01*
X000312148Y002959927D01*
X000308737Y002957349D01*
X000305066Y002955155D01*
X000301179Y002953373D01*
X000297122Y002952023D01*
X000292942Y002951121D01*
X000288689Y002950678D01*
X000284413Y002950698D01*
X000280164Y002951182D01*
X000275993Y002952124D01*
X000271949Y002953512D01*
X000268079Y002955332D01*
X000264430Y002957560D01*
X000213911Y002992301D01*
X000212367Y002993418D01*
X000210879Y002994610D01*
X000209450Y002995871D01*
X000208084Y002997201D01*
X000206784Y002998595D01*
X000205553Y003000050D01*
X000204394Y003001563D01*
X000203310Y003003131D01*
X000202302Y003004749D01*
X000201375Y003006414D01*
X000200528Y003008122D01*
X000199766Y003009869D01*
X000199089Y003011651D01*
X000198499Y003013463D01*
X000197997Y003015302D01*
X000197585Y003017163D01*
X000197264Y003019042D01*
X000197034Y003020934D01*
X000196895Y003022835D01*
X000196849Y003024740D01*
X000196849Y001961748D02*
X000196849Y001961748D01*
X000196849Y002802030D01*
X000196895Y002803936D01*
X000197034Y002805837D01*
X000197264Y002807729D01*
X000197585Y002809608D01*
X000197997Y002811469D01*
X000198499Y002813308D01*
X000199089Y002815120D01*
X000199766Y002816902D01*
X000200528Y002818649D01*
X000201375Y002820357D01*
X000202303Y002822022D01*
X000203310Y002823640D01*
X000204394Y002825207D01*
X000205553Y002826721D01*
X000206784Y002828176D01*
X000208084Y002829570D01*
X000209450Y002830899D01*
X000210879Y002832161D01*
X000212367Y002833352D01*
X000213911Y002834470D01*
X000264441Y002869218D01*
X000268090Y002871446D01*
X000271960Y002873265D01*
X000276004Y002874654D01*
X000280174Y002875596D01*
X000284423Y002876080D01*
X000288698Y002876100D01*
X000292951Y002875657D01*
X000297131Y002874755D01*
X000301188Y002873405D01*
X000305074Y002871624D01*
X000308745Y002869431D01*
X000312156Y002866853D01*
X000315268Y002863921D01*
X000318043Y002860668D01*
X000320449Y002857133D01*
X000322458Y002853359D01*
X000324045Y002849389D01*
X000325193Y002845270D01*
X000325887Y002841051D01*
X000326119Y002836781D01*
X000326127Y002724418D01*
X000308490Y002724418D01*
X000313131Y002712743D01*
X000318071Y002701191D01*
X000323306Y002689768D01*
X000328832Y002678485D01*
X000334645Y002667346D01*
X000340741Y002656360D01*
X000347118Y002645534D01*
X000353770Y002634875D01*
X000360693Y002624390D01*
X000367882Y002614086D01*
X000375334Y002603970D01*
X000383043Y002594048D01*
X000391002Y002584327D01*
X000399210Y002574814D01*
X000407658Y002565514D01*
X000416341Y002556433D01*
X000425255Y002547578D01*
X000434393Y002538955D01*
X000443749Y002530569D01*
X000453316Y002522425D01*
X000463090Y002514529D01*
X000473062Y002506887D01*
X000483228Y002499503D01*
X000493579Y002492382D01*
X000504110Y002485528D01*
X000514813Y002478947D01*
X000525680Y002472642D01*
X000536706Y002466619D01*
X000547884Y002460879D01*
X000559204Y002455429D01*
X000570661Y002450270D01*
X000582245Y002445407D01*
X000593951Y002440842D01*
X000605770Y002436579D01*
X000617695Y002432620D01*
X000629717Y002428969D01*
X000641828Y002425627D01*
X000654022Y002422596D01*
X000666288Y002419879D01*
X000678621Y002417478D01*
X000691011Y002415394D01*
X000703451Y002413628D01*
X000715932Y002412181D01*
X000728445Y002411055D01*
X000740984Y002410250D01*
X000753539Y002409767D01*
X000766102Y002409606D01*
X000936102Y002409605D01*
X000936102Y002639606D01*
X001183556Y002639606D01*
X001186705Y002639480D01*
X001189835Y002639102D01*
X001192924Y002638475D01*
X001195953Y002637603D01*
X001198903Y002636491D01*
X001201754Y002635147D01*
X001204489Y002633580D01*
X001207089Y002631798D01*
X001209539Y002629814D01*
X001211822Y002627641D01*
X001213923Y002625292D01*
X001215831Y002622782D01*
X001217531Y002620128D01*
X001219013Y002617346D01*
X001220269Y002614455D01*
X001221288Y002611472D01*
X001222066Y002608417D01*
X001222597Y002605310D01*
X001222878Y002602171D01*
X001222907Y002599019D01*
X001215661Y002364703D01*
X001215451Y002361679D01*
X001215008Y002358681D01*
X001214337Y002355726D01*
X001213440Y002352831D01*
X001212323Y002350013D01*
X001210993Y002347290D01*
X001209457Y002344677D01*
X001207725Y002342190D01*
X001205806Y002339844D01*
X001203713Y002337652D01*
X001201457Y002335628D01*
X001199052Y002333783D01*
X001196513Y002332129D01*
X001193853Y002330675D01*
X001191090Y002329430D01*
X001188239Y002328401D01*
X001185318Y002327594D01*
X001182343Y002327015D01*
X001179332Y002326666D01*
X001176303Y002326550D01*
X000766102Y002326614D01*
X000753530Y002326452D01*
X000740966Y002325969D01*
X000728419Y002325163D01*
X000715897Y002324034D01*
X000703407Y002322586D01*
X000690960Y002320817D01*
X000678560Y002318730D01*
X000666220Y002316325D01*
X000653944Y002313605D01*
X000641743Y002310570D01*
X000629623Y002307224D01*
X000617594Y002303567D01*
X000605662Y002299603D01*
X000593836Y002295334D01*
X000582123Y002290763D01*
X000570532Y002285893D01*
X000559068Y002280727D01*
X000547742Y002275269D01*
X000536559Y002269522D01*
X000525527Y002263490D01*
X000514654Y002257177D01*
X000503946Y002250587D01*
X000493411Y002243725D01*
X000483056Y002236594D01*
X000472887Y002229201D01*
X000462910Y002221548D01*
X000453134Y002213642D01*
X000443563Y002205488D01*
X000434205Y002197092D01*
X000425066Y002188457D01*
X000416151Y002179592D01*
X000407466Y002170500D01*
X000399017Y002161188D01*
X000390811Y002151663D01*
X000382851Y002141930D01*
X000375143Y002131997D01*
X000367693Y002121868D01*
X000360505Y002111553D01*
X000353585Y002101055D01*
X000346936Y002090385D01*
X000340563Y002079546D01*
X000334470Y002068548D01*
X000328661Y002057397D01*
X000323140Y002046101D01*
X000317912Y002034667D01*
X000312978Y002023102D01*
X000308342Y002011415D01*
X000326102Y002011417D01*
X000326108Y001927010D01*
X000325876Y001922740D01*
X000325183Y001918521D01*
X000324036Y001914402D01*
X000322448Y001910431D01*
X000320440Y001906656D01*
X000318034Y001903121D01*
X000315259Y001899868D01*
X000312148Y001896935D01*
X000308737Y001894357D01*
X000305066Y001892163D01*
X000301179Y001890381D01*
X000297122Y001889031D01*
X000292942Y001888129D01*
X000288689Y001887686D01*
X000284413Y001887706D01*
X000280164Y001888190D01*
X000275993Y001889132D01*
X000271949Y001890520D01*
X000268079Y001892339D01*
X000264430Y001894567D01*
X000213911Y001929309D01*
X000212367Y001930426D01*
X000210879Y001931617D01*
X000209450Y001932879D01*
X000208084Y001934209D01*
X000206784Y001935603D01*
X000205553Y001937058D01*
X000204394Y001938571D01*
X000203310Y001940139D01*
X000202302Y001941757D01*
X000201375Y001943422D01*
X000200528Y001945130D01*
X000199766Y001946877D01*
X000199089Y001948658D01*
X000198499Y001950471D01*
X000197997Y001952310D01*
X000197585Y001954171D01*
X000197264Y001956050D01*
X000197034Y001957942D01*
X000196895Y001959843D01*
X000196849Y001961748D01*
X000196849Y000898756D02*
X000196849Y000898756D01*
X000196849Y001739038D01*
X000196895Y001740944D01*
X000197034Y001742845D01*
X000197264Y001744737D01*
X000197585Y001746616D01*
X000197997Y001748477D01*
X000198499Y001750316D01*
X000199089Y001752128D01*
X000199766Y001753910D01*
X000200528Y001755657D01*
X000201375Y001757365D01*
X000202303Y001759030D01*
X000203310Y001760648D01*
X000204394Y001762215D01*
X000205553Y001763728D01*
X000206784Y001765184D01*
X000208084Y001766578D01*
X000209450Y001767907D01*
X000210879Y001769169D01*
X000212367Y001770360D01*
X000213911Y001771478D01*
X000264441Y001806226D01*
X000268090Y001808454D01*
X000271960Y001810273D01*
X000276004Y001811662D01*
X000280174Y001812604D01*
X000284423Y001813088D01*
X000288698Y001813108D01*
X000292951Y001812665D01*
X000297131Y001811763D01*
X000301188Y001810413D01*
X000305074Y001808632D01*
X000308745Y001806439D01*
X000312156Y001803861D01*
X000315268Y001800928D01*
X000318043Y001797676D01*
X000320449Y001794141D01*
X000322458Y001790367D01*
X000324045Y001786397D01*
X000325193Y001782278D01*
X000325887Y001778059D01*
X000326119Y001773789D01*
X000326127Y001661426D01*
X000308490Y001661426D01*
X000313131Y001649751D01*
X000318071Y001638198D01*
X000323306Y001626776D01*
X000328832Y001615493D01*
X000334645Y001604354D01*
X000340741Y001593368D01*
X000347118Y001582542D01*
X000353770Y001571883D01*
X000360693Y001561398D01*
X000367882Y001551094D01*
X000375334Y001540978D01*
X000383043Y001531056D01*
X000391002Y001521335D01*
X000399210Y001511822D01*
X000407658Y001502522D01*
X000416341Y001493441D01*
X000425255Y001484586D01*
X000434393Y001475963D01*
X000443749Y001467577D01*
X000453316Y001459433D01*
X000463090Y001451537D01*
X000473062Y001443895D01*
X000483228Y001436511D01*
X000493579Y001429390D01*
X000504110Y001422536D01*
X000514813Y001415955D01*
X000525680Y001409650D01*
X000536706Y001403627D01*
X000547884Y001397887D01*
X000559204Y001392436D01*
X000570661Y001387278D01*
X000582245Y001382415D01*
X000593951Y001377850D01*
X000605770Y001373587D01*
X000617695Y001369628D01*
X000629717Y001365977D01*
X000641828Y001362635D01*
X000654022Y001359604D01*
X000666288Y001356887D01*
X000678621Y001354486D01*
X000691011Y001352402D01*
X000703451Y001350635D01*
X000715932Y001349189D01*
X000728445Y001348062D01*
X000740984Y001347258D01*
X000753539Y001346775D01*
X000766102Y001346614D01*
X000936102Y001346613D01*
X000936102Y001576614D01*
X001183556Y001576614D01*
X001186705Y001576487D01*
X001189835Y001576110D01*
X001192924Y001575483D01*
X001195953Y001574611D01*
X001198903Y001573499D01*
X001201754Y001572155D01*
X001204489Y001570587D01*
X001207089Y001568806D01*
X001209539Y001566822D01*
X001211822Y001564649D01*
X001213923Y001562300D01*
X001215831Y001559790D01*
X001217531Y001557136D01*
X001219013Y001554354D01*
X001220269Y001551462D01*
X001221288Y001548480D01*
X001222066Y001545425D01*
X001222597Y001542318D01*
X001222878Y001539179D01*
X001222907Y001536027D01*
X001215661Y001301711D01*
X001215451Y001298687D01*
X001215008Y001295689D01*
X001214337Y001292733D01*
X001213440Y001289838D01*
X001212323Y001287021D01*
X001210993Y001284298D01*
X001209457Y001281685D01*
X001207725Y001279198D01*
X001205806Y001276852D01*
X001203713Y001274660D01*
X001201457Y001272636D01*
X001199052Y001270791D01*
X001196513Y001269137D01*
X001193853Y001267683D01*
X001191090Y001266438D01*
X001188239Y001265409D01*
X001185318Y001264602D01*
X001182343Y001264023D01*
X001179332Y001263674D01*
X001176303Y001263558D01*
X000766102Y001263622D01*
X000753530Y001263460D01*
X000740966Y001262976D01*
X000728419Y001262170D01*
X000715897Y001261042D01*
X000703407Y001259594D01*
X000690960Y001257825D01*
X000678560Y001255738D01*
X000666220Y001253333D01*
X000653944Y001250613D01*
X000641743Y001247578D01*
X000629623Y001244231D01*
X000617594Y001240575D01*
X000605662Y001236611D01*
X000593836Y001232342D01*
X000582123Y001227771D01*
X000570532Y001222901D01*
X000559068Y001217735D01*
X000547742Y001212277D01*
X000536559Y001206530D01*
X000525527Y001200498D01*
X000514654Y001194185D01*
X000503946Y001187595D01*
X000493411Y001180733D01*
X000483056Y001173602D01*
X000472887Y001166209D01*
X000462910Y001158556D01*
X000453134Y001150650D01*
X000443563Y001142496D01*
X000434205Y001134099D01*
X000425066Y001125465D01*
X000416151Y001116600D01*
X000407466Y001107508D01*
X000399017Y001098196D01*
X000390811Y001088671D01*
X000382851Y001078938D01*
X000375143Y001069005D01*
X000367693Y001058876D01*
X000360505Y001048561D01*
X000353585Y001038063D01*
X000346936Y001027392D01*
X000340563Y001016554D01*
X000334470Y001005556D01*
X000328661Y000994405D01*
X000323140Y000983109D01*
X000317912Y000971675D01*
X000312978Y000960110D01*
X000308342Y000948423D01*
X000326102Y000948425D01*
X000326108Y000864018D01*
X000325876Y000859748D01*
X000325183Y000855529D01*
X000324036Y000851410D01*
X000322448Y000847439D01*
X000320440Y000843664D01*
X000318034Y000840129D01*
X000315259Y000836876D01*
X000312148Y000833943D01*
X000308737Y000831364D01*
X000305066Y000829171D01*
X000301179Y000827389D01*
X000297122Y000826039D01*
X000292942Y000825137D01*
X000288689Y000824693D01*
X000284413Y000824714D01*
X000280164Y000825198D01*
X000275993Y000826140D01*
X000271949Y000827528D01*
X000268079Y000829347D01*
X000264430Y000831575D01*
X000213911Y000866316D01*
X000212367Y000867434D01*
X000210879Y000868625D01*
X000209450Y000869887D01*
X000208084Y000871217D01*
X000206784Y000872611D01*
X000205553Y000874066D01*
X000204394Y000875579D01*
X000203310Y000877147D01*
X000202302Y000878765D01*
X000201375Y000880430D01*
X000200528Y000882138D01*
X000199766Y000883885D01*
X000199089Y000885666D01*
X000198499Y000887479D01*
X000197997Y000889318D01*
X000197585Y000891179D01*
X000197264Y000893057D01*
X000197034Y000894950D01*
X000196895Y000896851D01*
X000196849Y000898756D01*
X004409447Y001801728D02*
X004409447Y001801728D01*
X004409447Y000954176D01*
X004409345Y000951336D01*
X004409037Y000948510D01*
X004408527Y000945714D01*
X004407816Y000942961D01*
X004406908Y000940268D01*
X004405809Y000937646D01*
X004404523Y000935111D01*
X004403058Y000932676D01*
X004401420Y000930352D01*
X004399620Y000928153D01*
X004397665Y000926089D01*
X004395566Y000924172D01*
X004393335Y000922411D01*
X004390982Y000920815D01*
X004388521Y000919394D01*
X004385963Y000918154D01*
X004383323Y000917101D01*
X004380613Y000916242D01*
X004377848Y000915581D01*
X004375043Y000915121D01*
X004285143Y000903689D01*
X004281814Y000903409D01*
X004278474Y000903411D01*
X004275147Y000903697D01*
X004271855Y000904264D01*
X004268624Y000905108D01*
X004265475Y000906222D01*
X004262432Y000907600D01*
X004259517Y000909230D01*
X004256751Y000911102D01*
X004254153Y000913201D01*
X004251743Y000915513D01*
X004249537Y000918021D01*
X004247552Y000920707D01*
X004245801Y000923551D01*
X004244298Y000926534D01*
X004243053Y000929633D01*
X004242076Y000932827D01*
X004241372Y000936092D01*
X004240948Y000939405D01*
X004240806Y000942742D01*
X004240801Y001015738D01*
X004258439Y001015738D01*
X004253797Y001027414D01*
X004248857Y001038966D01*
X004243622Y001050388D01*
X004238096Y001061672D01*
X004232284Y001072810D01*
X004226187Y001083796D01*
X004219810Y001094622D01*
X004213158Y001105281D01*
X004206235Y001115766D01*
X004199046Y001126070D01*
X004191594Y001136187D01*
X004183886Y001146108D01*
X004175926Y001155829D01*
X004167718Y001165343D01*
X004159270Y001174643D01*
X004150587Y001183723D01*
X004141673Y001192578D01*
X004132536Y001201201D01*
X004123180Y001209588D01*
X004113612Y001217731D01*
X004103838Y001225627D01*
X004093866Y001233269D01*
X004083700Y001240653D01*
X004073349Y001247775D01*
X004062818Y001254628D01*
X004052115Y001261209D01*
X004041248Y001267514D01*
X004030222Y001273538D01*
X004019044Y001279277D01*
X004007724Y001284728D01*
X003996267Y001289887D01*
X003984683Y001294750D01*
X003972977Y001299315D01*
X003961158Y001303577D01*
X003949234Y001307536D01*
X003937212Y001311188D01*
X003925100Y001314530D01*
X003912906Y001317560D01*
X003900640Y001320277D01*
X003888307Y001322678D01*
X003875917Y001324763D01*
X003863477Y001326529D01*
X003850996Y001327976D01*
X003838483Y001329102D01*
X003825944Y001329907D01*
X003813390Y001330390D01*
X003800826Y001330551D01*
X003630827Y001330551D01*
X003630827Y001100551D01*
X003422742Y001100551D01*
X003419593Y001100677D01*
X003416463Y001101055D01*
X003413374Y001101682D01*
X003410345Y001102554D01*
X003407395Y001103665D01*
X003404544Y001105009D01*
X003401809Y001106577D01*
X003399209Y001108359D01*
X003396759Y001110343D01*
X003394476Y001112516D01*
X003392374Y001114865D01*
X003390467Y001117375D01*
X003388767Y001120029D01*
X003387284Y001122811D01*
X003386029Y001125703D01*
X003385010Y001128686D01*
X003384232Y001131740D01*
X003383701Y001134847D01*
X003383420Y001137987D01*
X003383391Y001141139D01*
X003390645Y001375449D01*
X003390855Y001378472D01*
X003391298Y001381470D01*
X003391969Y001384426D01*
X003392866Y001387321D01*
X003393983Y001390138D01*
X003395314Y001392861D01*
X003396849Y001395474D01*
X003398582Y001397961D01*
X003400500Y001400307D01*
X003402594Y001402499D01*
X003404849Y001404523D01*
X003407254Y001406368D01*
X003409794Y001408022D01*
X003412453Y001409476D01*
X003415216Y001410721D01*
X003418067Y001411750D01*
X003420988Y001412556D01*
X003423963Y001413135D01*
X003426974Y001413484D01*
X003430002Y001413600D01*
X003800826Y001413543D01*
X003813399Y001413704D01*
X003825962Y001414188D01*
X003838509Y001414994D01*
X003851031Y001416122D01*
X003863521Y001417570D01*
X003875969Y001419339D01*
X003888368Y001421426D01*
X003900708Y001423831D01*
X003912984Y001426552D01*
X003925185Y001429586D01*
X003937305Y001432933D01*
X003949334Y001436590D01*
X003961266Y001440554D01*
X003973093Y001444823D01*
X003984805Y001449394D01*
X003996397Y001454263D01*
X004007860Y001459429D01*
X004019186Y001464887D01*
X004030369Y001470634D01*
X004041401Y001476666D01*
X004052274Y001482979D01*
X004062982Y001489569D01*
X004073517Y001496431D01*
X004083873Y001503562D01*
X004094041Y001510956D01*
X004104018Y001518608D01*
X004113794Y001526514D01*
X004123365Y001534668D01*
X004132723Y001543065D01*
X004141863Y001551699D01*
X004150778Y001560565D01*
X004159462Y001569657D01*
X004167911Y001578968D01*
X004176117Y001588494D01*
X004184077Y001598226D01*
X004191785Y001608160D01*
X004199235Y001618288D01*
X004206423Y001628604D01*
X004213343Y001639101D01*
X004219992Y001649772D01*
X004226365Y001660610D01*
X004232458Y001671609D01*
X004238267Y001682759D01*
X004243788Y001694055D01*
X004249017Y001705490D01*
X004253950Y001717054D01*
X004258586Y001728741D01*
X004240826Y001728740D01*
X004240820Y001813146D01*
X004240961Y001816483D01*
X004241385Y001819797D01*
X004242088Y001823062D01*
X004243066Y001826256D01*
X004244310Y001829355D01*
X004245813Y001832338D01*
X004247563Y001835183D01*
X004249548Y001837869D01*
X004251754Y001840377D01*
X004254164Y001842690D01*
X004256761Y001844789D01*
X004259527Y001846661D01*
X004262442Y001848292D01*
X004265485Y001849670D01*
X004268633Y001850785D01*
X004271865Y001851629D01*
X004275157Y001852196D01*
X004278484Y001852482D01*
X004281824Y001852485D01*
X004285153Y001852205D01*
X004375040Y001840784D01*
X004377845Y001840324D01*
X004380610Y001839663D01*
X004383319Y001838804D01*
X004385960Y001837752D01*
X004388518Y001836512D01*
X004390980Y001835091D01*
X004393333Y001833495D01*
X004395565Y001831734D01*
X004397663Y001829817D01*
X004399618Y001827753D01*
X004401419Y001825554D01*
X004403057Y001823230D01*
X004404522Y001820794D01*
X004405808Y001818259D01*
X004406908Y001815638D01*
X004407816Y001812944D01*
X004408527Y001810191D01*
X004409037Y001807395D01*
X004409344Y001804569D01*
X004409447Y001801728D01*
X004409447Y002864720D02*
X004409447Y002864720D01*
X004409447Y001977799D01*
X004409344Y001974958D01*
X004409037Y001972132D01*
X004408527Y001969335D01*
X004407816Y001966583D01*
X004406908Y001963889D01*
X004405809Y001961268D01*
X004404523Y001958733D01*
X004403057Y001956297D01*
X004401420Y001953974D01*
X004399619Y001951774D01*
X004397664Y001949710D01*
X004395566Y001947793D01*
X004393334Y001946032D01*
X004390982Y001944437D01*
X004388520Y001943015D01*
X004385962Y001941775D01*
X004383321Y001940723D01*
X004380612Y001939864D01*
X004377847Y001939203D01*
X004375042Y001938743D01*
X004285144Y001927314D01*
X004281816Y001927034D01*
X004278476Y001927037D01*
X004275148Y001927323D01*
X004271857Y001927890D01*
X004268625Y001928733D01*
X004265477Y001929848D01*
X004262435Y001931226D01*
X004259520Y001932856D01*
X004256753Y001934728D01*
X004254156Y001936827D01*
X004251745Y001939139D01*
X004249540Y001941647D01*
X004247555Y001944333D01*
X004245804Y001947177D01*
X004244301Y001950160D01*
X004243056Y001953259D01*
X004242079Y001956453D01*
X004241375Y001959717D01*
X004240951Y001963030D01*
X004240809Y001966367D01*
X004240801Y002078730D01*
X004258439Y002078730D01*
X004253797Y002090406D01*
X004248857Y002101958D01*
X004243622Y002113380D01*
X004238096Y002124664D01*
X004232284Y002135803D01*
X004226187Y002146789D01*
X004219810Y002157615D01*
X004213158Y002168273D01*
X004206235Y002178758D01*
X004199046Y002189063D01*
X004191594Y002199179D01*
X004183886Y002209100D01*
X004175926Y002218821D01*
X004167718Y002228335D01*
X004159270Y002237635D01*
X004150587Y002246716D01*
X004141673Y002255570D01*
X004132536Y002264194D01*
X004123180Y002272580D01*
X004113612Y002280723D01*
X004103838Y002288619D01*
X004093866Y002296262D01*
X004083700Y002303646D01*
X004073349Y002310767D01*
X004062818Y002317620D01*
X004052115Y002324201D01*
X004041248Y002330506D01*
X004030222Y002336530D01*
X004019044Y002342269D01*
X004007724Y002347720D01*
X003996267Y002352879D01*
X003984683Y002357742D01*
X003972977Y002362307D01*
X003961158Y002366569D01*
X003949234Y002370528D01*
X003937212Y002374180D01*
X003925100Y002377522D01*
X003912906Y002380552D01*
X003900640Y002383269D01*
X003888307Y002385671D01*
X003875917Y002387755D01*
X003863477Y002389521D01*
X003850996Y002390968D01*
X003838483Y002392094D01*
X003825944Y002392899D01*
X003813390Y002393382D01*
X003800826Y002393543D01*
X003630827Y002393543D01*
X003630827Y002163543D01*
X003383372Y002163543D01*
X003380223Y002163669D01*
X003377093Y002164047D01*
X003374004Y002164674D01*
X003370975Y002165546D01*
X003368025Y002166657D01*
X003365174Y002168001D01*
X003362440Y002169569D01*
X003359839Y002171351D01*
X003357390Y002173334D01*
X003355106Y002175508D01*
X003353005Y002177857D01*
X003351098Y002180367D01*
X003349397Y002183021D01*
X003347915Y002185803D01*
X003346660Y002188694D01*
X003345640Y002191677D01*
X003344862Y002194731D01*
X003344331Y002197838D01*
X003344050Y002200978D01*
X003344021Y002204130D01*
X003351267Y002438446D01*
X003351477Y002441469D01*
X003351920Y002444468D01*
X003352591Y002447423D01*
X003353488Y002450318D01*
X003354605Y002453136D01*
X003355935Y002455859D01*
X003357471Y002458472D01*
X003359204Y002460959D01*
X003361122Y002463305D01*
X003363215Y002465497D01*
X003365471Y002467521D01*
X003367876Y002469366D01*
X003370416Y002471020D01*
X003373075Y002472474D01*
X003375838Y002473719D01*
X003378689Y002474748D01*
X003381610Y002475554D01*
X003384585Y002476134D01*
X003387596Y002476483D01*
X003390625Y002476599D01*
X003800826Y002476535D01*
X003813399Y002476696D01*
X003825962Y002477180D01*
X003838509Y002477986D01*
X003851031Y002479114D01*
X003863521Y002480563D01*
X003875969Y002482331D01*
X003888368Y002484418D01*
X003900708Y002486823D01*
X003912984Y002489544D01*
X003925185Y002492579D01*
X003937305Y002495925D01*
X003949334Y002499582D01*
X003961266Y002503546D01*
X003973093Y002507815D01*
X003984805Y002512386D01*
X003996397Y002517255D01*
X004007860Y002522421D01*
X004019186Y002527880D01*
X004030369Y002533626D01*
X004041401Y002539658D01*
X004052274Y002545971D01*
X004062982Y002552561D01*
X004073517Y002559423D01*
X004083873Y002566554D01*
X004094041Y002573948D01*
X004104018Y002581600D01*
X004113794Y002589506D01*
X004123365Y002597660D01*
X004132723Y002606057D01*
X004141863Y002614691D01*
X004150778Y002623557D01*
X004159462Y002632649D01*
X004167911Y002641961D01*
X004176117Y002651486D01*
X004184077Y002661219D01*
X004191785Y002671152D01*
X004199235Y002681280D01*
X004206423Y002691596D01*
X004213343Y002702093D01*
X004219992Y002712764D01*
X004226365Y002723602D01*
X004232458Y002734601D01*
X004238267Y002745752D01*
X004243788Y002757048D01*
X004249017Y002768482D01*
X004253950Y002780046D01*
X004258586Y002791733D01*
X004240826Y002791732D01*
X004240820Y002876139D01*
X004240961Y002879476D01*
X004241385Y002882789D01*
X004242088Y002886054D01*
X004243066Y002889248D01*
X004244310Y002892347D01*
X004245813Y002895330D01*
X004247563Y002898175D01*
X004249548Y002900861D01*
X004251754Y002903369D01*
X004254164Y002905682D01*
X004256761Y002907781D01*
X004259527Y002909653D01*
X004262442Y002911284D01*
X004265485Y002912662D01*
X004268633Y002913777D01*
X004271865Y002914621D01*
X004275157Y002915188D01*
X004278484Y002915474D01*
X004281824Y002915478D01*
X004285153Y002915197D01*
X004375040Y002903776D01*
X004377845Y002903316D01*
X004380610Y002902655D01*
X004383319Y002901796D01*
X004385960Y002900744D01*
X004388518Y002899504D01*
X004390980Y002898083D01*
X004393333Y002896487D01*
X004395565Y002894727D01*
X004397663Y002892809D01*
X004399618Y002890745D01*
X004401419Y002888546D01*
X004403057Y002886222D01*
X004404522Y002883786D01*
X004405808Y002881251D01*
X004406908Y002878630D01*
X004407816Y002875936D01*
X004408527Y002873184D01*
X004409037Y002870387D01*
X004409344Y002867561D01*
X004409447Y002864720D01*
X004409447Y003927712D02*
X004409447Y003927712D01*
X004409447Y003040791D01*
X004409344Y003037950D01*
X004409037Y003035124D01*
X004408527Y003032328D01*
X004407816Y003029575D01*
X004406908Y003026882D01*
X004405809Y003024260D01*
X004404523Y003021725D01*
X004403057Y003019289D01*
X004401420Y003016966D01*
X004399619Y003014766D01*
X004397664Y003012703D01*
X004395566Y003010785D01*
X004393334Y003009024D01*
X004390982Y003007429D01*
X004388520Y003006008D01*
X004385962Y003004768D01*
X004383321Y003003715D01*
X004380612Y003002856D01*
X004377847Y003002195D01*
X004375042Y003001735D01*
X004285144Y002990306D01*
X004281816Y002990026D01*
X004278476Y002990029D01*
X004275148Y002990315D01*
X004271857Y002990882D01*
X004268625Y002991725D01*
X004265477Y002992840D01*
X004262435Y002994218D01*
X004259520Y002995848D01*
X004256753Y002997720D01*
X004254156Y002999819D01*
X004251745Y003002131D01*
X004249540Y003004639D01*
X004247555Y003007325D01*
X004245804Y003010169D01*
X004244301Y003013152D01*
X004243056Y003016251D01*
X004242079Y003019445D01*
X004241375Y003022710D01*
X004240951Y003026022D01*
X004240809Y003029359D01*
X004240801Y003141722D01*
X004258439Y003141722D01*
X004253797Y003153398D01*
X004248857Y003164950D01*
X004243622Y003176372D01*
X004238096Y003187656D01*
X004232284Y003198795D01*
X004226187Y003209781D01*
X004219810Y003220607D01*
X004213158Y003231266D01*
X004206235Y003241751D01*
X004199046Y003252055D01*
X004191594Y003262171D01*
X004183886Y003272092D01*
X004175926Y003281813D01*
X004167718Y003291327D01*
X004159270Y003300627D01*
X004150587Y003309708D01*
X004141673Y003318562D01*
X004132536Y003327186D01*
X004123180Y003335572D01*
X004113612Y003343716D01*
X004103838Y003351611D01*
X004093866Y003359254D01*
X004083700Y003366638D01*
X004073349Y003373759D01*
X004062818Y003380612D01*
X004052115Y003387194D01*
X004041248Y003393498D01*
X004030222Y003399522D01*
X004019044Y003405261D01*
X004007724Y003410712D01*
X003996267Y003415871D01*
X003984683Y003420734D01*
X003972977Y003425299D01*
X003961158Y003429562D01*
X003949234Y003433521D01*
X003937212Y003437172D01*
X003925100Y003440514D01*
X003912906Y003443544D01*
X003900640Y003446261D01*
X003888307Y003448663D01*
X003875917Y003450747D01*
X003863477Y003452513D01*
X003850996Y003453960D01*
X003838483Y003455086D01*
X003825944Y003455891D01*
X003813390Y003456374D01*
X003800826Y003456535D01*
X003630827Y003456535D01*
X003630827Y003226535D01*
X003383372Y003226535D01*
X003380223Y003226661D01*
X003377093Y003227039D01*
X003374004Y003227666D01*
X003370975Y003228538D01*
X003368025Y003229649D01*
X003365174Y003230993D01*
X003362440Y003232561D01*
X003359839Y003234343D01*
X003357390Y003236326D01*
X003355106Y003238500D01*
X003353005Y003240849D01*
X003351098Y003243359D01*
X003349397Y003246013D01*
X003347915Y003248795D01*
X003346660Y003251686D01*
X003345640Y003254669D01*
X003344862Y003257723D01*
X003344331Y003260830D01*
X003344050Y003263970D01*
X003344021Y003267122D01*
X003351267Y003501438D01*
X003351477Y003504461D01*
X003351920Y003507460D01*
X003352591Y003510415D01*
X003353488Y003513310D01*
X003354605Y003516128D01*
X003355935Y003518851D01*
X003357471Y003521464D01*
X003359204Y003523951D01*
X003361122Y003526297D01*
X003363215Y003528489D01*
X003365471Y003530513D01*
X003367876Y003532358D01*
X003370416Y003534012D01*
X003373075Y003535466D01*
X003375838Y003536711D01*
X003378689Y003537740D01*
X003381610Y003538546D01*
X003384585Y003539126D01*
X003387596Y003539475D01*
X003390625Y003539591D01*
X003800826Y003539527D01*
X003813399Y003539688D01*
X003825962Y003540172D01*
X003838509Y003540978D01*
X003851031Y003542106D01*
X003863521Y003543555D01*
X003875969Y003545323D01*
X003888368Y003547411D01*
X003900708Y003549815D01*
X003912984Y003552536D01*
X003925185Y003555571D01*
X003937305Y003558917D01*
X003949334Y003562574D01*
X003961266Y003566538D01*
X003973093Y003570807D01*
X003984805Y003575378D01*
X003996397Y003580248D01*
X004007860Y003585413D01*
X004019186Y003590872D01*
X004030369Y003596618D01*
X004041401Y003602650D01*
X004052274Y003608963D01*
X004062982Y003615553D01*
X004073517Y003622416D01*
X004083873Y003629546D01*
X004094041Y003636940D01*
X004104018Y003644593D01*
X004113794Y003652498D01*
X004123365Y003660652D01*
X004132723Y003669049D01*
X004141863Y003677683D01*
X004150778Y003686549D01*
X004159462Y003695641D01*
X004167911Y003704953D01*
X004176117Y003714478D01*
X004184077Y003724211D01*
X004191785Y003734144D01*
X004199235Y003744272D01*
X004206423Y003754588D01*
X004213343Y003765085D01*
X004219992Y003775756D01*
X004226365Y003786594D01*
X004232458Y003797593D01*
X004238267Y003808744D01*
X004243788Y003820040D01*
X004249017Y003831474D01*
X004253950Y003843038D01*
X004258586Y003854726D01*
X004240826Y003854724D01*
X004240820Y003939131D01*
X004240961Y003942468D01*
X004241385Y003945781D01*
X004242088Y003949046D01*
X004243066Y003952240D01*
X004244310Y003955339D01*
X004245813Y003958322D01*
X004247563Y003961167D01*
X004249548Y003963853D01*
X004251754Y003966362D01*
X004254164Y003968674D01*
X004256761Y003970774D01*
X004259527Y003972646D01*
X004262442Y003974276D01*
X004265485Y003975654D01*
X004268633Y003976769D01*
X004271865Y003977613D01*
X004275157Y003978180D01*
X004278484Y003978467D01*
X004281824Y003978470D01*
X004285153Y003978190D01*
X004375040Y003966768D01*
X004377845Y003966308D01*
X004380610Y003965647D01*
X004383319Y003964788D01*
X004385960Y003963736D01*
X004388518Y003962496D01*
X004390980Y003961075D01*
X004393333Y003959480D01*
X004395565Y003957719D01*
X004397663Y003955801D01*
X004399618Y003953738D01*
X004401419Y003951538D01*
X004403057Y003949214D01*
X004404522Y003946779D01*
X004405808Y003944243D01*
X004406908Y003941622D01*
X004407816Y003938928D01*
X004408527Y003936176D01*
X004409037Y003933379D01*
X004409344Y003930553D01*
X004409447Y003927712D01*
X000196849Y004566928D02*
X000196849Y004566928D01*
X000197836Y004575689D01*
X000200748Y004584010D01*
X000205438Y004591474D01*
X000211672Y004597708D01*
X000219137Y004602400D01*
X000227458Y004605311D01*
X000236219Y004606298D01*
X001171808Y004606298D01*
X001174980Y004606170D01*
X001178131Y004605787D01*
X001181242Y004605151D01*
X001184291Y004604267D01*
X001187258Y004603140D01*
X001190126Y004601777D01*
X001192874Y004600188D01*
X001195485Y004598382D01*
X001197943Y004596372D01*
X001200230Y004594171D01*
X001202333Y004591792D01*
X001204237Y004589252D01*
X001205930Y004586567D01*
X001207401Y004583753D01*
X001208641Y004580831D01*
X001209642Y004577818D01*
X001210396Y004574734D01*
X001210900Y004571600D01*
X001211149Y004568435D01*
X001211142Y004565260D01*
X001207960Y004490237D01*
X001207718Y004487239D01*
X001207248Y004484267D01*
X001206552Y004481341D01*
X001205634Y004478476D01*
X001204501Y004475689D01*
X001203158Y004472997D01*
X001201614Y004470416D01*
X001199876Y004467960D01*
X001197957Y004465644D01*
X001195866Y004463481D01*
X001193616Y004461484D01*
X001191220Y004459664D01*
X001188693Y004458033D01*
X001186048Y004456600D01*
X001183301Y004455373D01*
X001180469Y004454359D01*
X001177568Y004453564D01*
X001174614Y004452993D01*
X001171626Y004452650D01*
X001168620Y004452535D01*
X000766102Y004452598D01*
X000753530Y004452437D01*
X000740966Y004451953D01*
X000728419Y004451147D01*
X000715897Y004450019D01*
X000703407Y004448570D01*
X000690960Y004446802D01*
X000678560Y004444714D01*
X000666220Y004442310D01*
X000653944Y004439589D01*
X000641743Y004436554D01*
X000629623Y004433208D01*
X000617594Y004429551D01*
X000605662Y004425587D01*
X000593836Y004421318D01*
X000582123Y004416747D01*
X000570532Y004411877D01*
X000559068Y004406712D01*
X000547742Y004401253D01*
X000536559Y004395507D01*
X000525527Y004389475D01*
X000514654Y004383162D01*
X000503946Y004376572D01*
X000493411Y004369709D01*
X000483056Y004362579D01*
X000472887Y004355185D01*
X000462910Y004347532D01*
X000453134Y004339627D01*
X000443563Y004331473D01*
X000434205Y004323076D01*
X000425066Y004314442D01*
X000416151Y004305576D01*
X000407466Y004296484D01*
X000399017Y004287172D01*
X000390811Y004277647D01*
X000382851Y004267914D01*
X000375143Y004257981D01*
X000367693Y004247853D01*
X000360505Y004237537D01*
X000353585Y004227040D01*
X000346936Y004216369D01*
X000340563Y004205531D01*
X000334470Y004194532D01*
X000328661Y004183381D01*
X000323140Y004172085D01*
X000317912Y004160651D01*
X000312978Y004149087D01*
X000308342Y004137399D01*
X000326102Y004137401D01*
X000326108Y004052994D01*
X000325876Y004048725D01*
X000325183Y004044505D01*
X000324036Y004040386D01*
X000322448Y004036415D01*
X000320440Y004032640D01*
X000318034Y004029105D01*
X000315259Y004025852D01*
X000312148Y004022919D01*
X000308737Y004020341D01*
X000305066Y004018148D01*
X000301179Y004016365D01*
X000297122Y004015015D01*
X000292942Y004014113D01*
X000288689Y004013670D01*
X000284413Y004013690D01*
X000280164Y004014174D01*
X000275993Y004015116D01*
X000271949Y004016505D01*
X000268079Y004018324D01*
X000264430Y004020552D01*
X000213911Y004055293D01*
X000212367Y004056411D01*
X000210879Y004057602D01*
X000209450Y004058863D01*
X000208084Y004060193D01*
X000206784Y004061587D01*
X000205553Y004063042D01*
X000204394Y004064555D01*
X000203310Y004066123D01*
X000202302Y004067741D01*
X000201375Y004069406D01*
X000200528Y004071114D01*
X000199766Y004072861D01*
X000199089Y004074643D01*
X000198499Y004076455D01*
X000197997Y004078294D01*
X000197585Y004080155D01*
X000197264Y004082034D01*
X000197034Y004083926D01*
X000196895Y004085827D01*
X000196849Y004087733D01*
X000196849Y004566928D01*
X004240801Y004204714D02*
X004240801Y004204714D01*
X004258439Y004204714D01*
X004253797Y004216390D01*
X004248857Y004227942D01*
X004243622Y004239364D01*
X004238096Y004250648D01*
X004232284Y004261787D01*
X004226187Y004272773D01*
X004219810Y004283599D01*
X004213158Y004294258D01*
X004206235Y004304743D01*
X004199046Y004315047D01*
X004191594Y004325163D01*
X004183886Y004335085D01*
X004175926Y004344805D01*
X004167718Y004354319D01*
X004159270Y004363619D01*
X004150587Y004372700D01*
X004141673Y004381554D01*
X004132536Y004390178D01*
X004123180Y004398564D01*
X004113612Y004406708D01*
X004103838Y004414604D01*
X004093866Y004422246D01*
X004083700Y004429630D01*
X004073349Y004436751D01*
X004062818Y004443605D01*
X004052115Y004450186D01*
X004041248Y004456490D01*
X004030222Y004462514D01*
X004019044Y004468254D01*
X004007724Y004473704D01*
X003996267Y004478863D01*
X003984683Y004483726D01*
X003972977Y004488291D01*
X003961158Y004492554D01*
X003949234Y004496513D01*
X003937212Y004500164D01*
X003925100Y004503506D01*
X003912906Y004506537D01*
X003900640Y004509253D01*
X003888307Y004511655D01*
X003875917Y004513739D01*
X003863477Y004515505D01*
X003850996Y004516952D01*
X003838483Y004518078D01*
X003825944Y004518883D01*
X003813390Y004519366D01*
X003800826Y004519527D01*
X003630827Y004519528D01*
X003630827Y004289527D01*
X003422742Y004289527D01*
X003419633Y004289650D01*
X003416543Y004290018D01*
X003413492Y004290629D01*
X003410499Y004291479D01*
X003407582Y004292563D01*
X003404760Y004293874D01*
X003402051Y004295403D01*
X003399470Y004297142D01*
X003397035Y004299079D01*
X003394760Y004301202D01*
X003392661Y004303499D01*
X003390749Y004305954D01*
X003389037Y004308552D01*
X003387535Y004311277D01*
X003386254Y004314113D01*
X003385200Y004317040D01*
X003384381Y004320042D01*
X003383802Y004323099D01*
X003383465Y004326193D01*
X003383374Y004329303D01*
X003385829Y004567334D01*
X003385980Y004570402D01*
X003386370Y004573448D01*
X003386996Y004576454D01*
X003387855Y004579403D01*
X003388941Y004582275D01*
X003390248Y004585055D01*
X003391767Y004587724D01*
X003393489Y004590266D01*
X003395405Y004592667D01*
X003397502Y004594910D01*
X003399767Y004596984D01*
X003402187Y004598875D01*
X003404747Y004600571D01*
X003407432Y004602062D01*
X003410224Y004603340D01*
X003413108Y004604397D01*
X003416065Y004605225D01*
X003419078Y004605820D01*
X003422128Y004606179D01*
X003425197Y004606298D01*
X004370077Y004606298D01*
X004378839Y004605311D01*
X004387159Y004602400D01*
X004394624Y004597708D01*
X004400858Y004591474D01*
X004405548Y004584010D01*
X004408460Y004575689D01*
X004409447Y004566928D01*
X004409447Y004103783D01*
X004409344Y004100942D01*
X004409037Y004098116D01*
X004408527Y004095320D01*
X004407816Y004092567D01*
X004406908Y004089874D01*
X004405809Y004087252D01*
X004404523Y004084717D01*
X004403057Y004082282D01*
X004401420Y004079958D01*
X004399619Y004077758D01*
X004397664Y004075695D01*
X004395566Y004073777D01*
X004393334Y004072016D01*
X004390982Y004070421D01*
X004388520Y004069000D01*
X004385962Y004067760D01*
X004383321Y004066707D01*
X004380612Y004065848D01*
X004377847Y004065187D01*
X004375042Y004064727D01*
X004285144Y004053299D01*
X004281816Y004053018D01*
X004278476Y004053021D01*
X004275148Y004053307D01*
X004271857Y004053874D01*
X004268625Y004054718D01*
X004265477Y004055832D01*
X004262435Y004057210D01*
X004259520Y004058840D01*
X004256753Y004060712D01*
X004254156Y004062811D01*
X004251745Y004065123D01*
X004249540Y004067631D01*
X004247555Y004070317D01*
X004245804Y004073161D01*
X004244301Y004076144D01*
X004243056Y004079243D01*
X004242079Y004082437D01*
X004241375Y004085702D01*
X004240951Y004089015D01*
X004240809Y004092351D01*
X004240801Y004204714D01*
X003437684Y000350607D02*
X003437684Y000350607D01*
X003800826Y000350551D01*
X003813399Y000350712D01*
X003825962Y000351196D01*
X003838509Y000352002D01*
X003851031Y000353130D01*
X003863521Y000354578D01*
X003875969Y000356347D01*
X003888368Y000358434D01*
X003900708Y000360839D01*
X003912984Y000363560D01*
X003925185Y000366594D01*
X003937305Y000369941D01*
X003949334Y000373597D01*
X003961266Y000377562D01*
X003973093Y000381831D01*
X003984805Y000386402D01*
X003996397Y000391271D01*
X004007860Y000396437D01*
X004019186Y000401895D01*
X004030369Y000407642D01*
X004041401Y000413674D01*
X004052274Y000419987D01*
X004062982Y000426577D01*
X004073517Y000433439D01*
X004083873Y000440570D01*
X004094041Y000447964D01*
X004104018Y000455616D01*
X004113794Y000463522D01*
X004123365Y000471676D01*
X004132723Y000480073D01*
X004141863Y000488707D01*
X004150778Y000497573D01*
X004159462Y000506665D01*
X004167911Y000515976D01*
X004176117Y000525501D01*
X004184077Y000535234D01*
X004191785Y000545167D01*
X004199235Y000555296D01*
X004206423Y000565612D01*
X004213343Y000576109D01*
X004219992Y000586780D01*
X004226365Y000597618D01*
X004232458Y000608616D01*
X004238267Y000619767D01*
X004243788Y000631063D01*
X004249017Y000642498D01*
X004253950Y000654062D01*
X004258586Y000665749D01*
X004240826Y000665748D01*
X004240817Y000789528D01*
X004240959Y000792865D01*
X004241382Y000796178D01*
X004242086Y000799443D01*
X004243063Y000802637D01*
X004244307Y000805737D01*
X004245810Y000808720D01*
X004247560Y000811564D01*
X004249545Y000814251D01*
X004251751Y000816759D01*
X004254161Y000819071D01*
X004256759Y000821171D01*
X004259525Y000823043D01*
X004262440Y000824674D01*
X004265483Y000826052D01*
X004268631Y000827166D01*
X004271863Y000828011D01*
X004275155Y000828578D01*
X004278483Y000828864D01*
X004281823Y000828867D01*
X004285151Y000828586D01*
X004375041Y000817162D01*
X004377846Y000816702D01*
X004380611Y000816041D01*
X004383320Y000815182D01*
X004385961Y000814130D01*
X004388519Y000812889D01*
X004390981Y000811468D01*
X004393334Y000809873D01*
X004395565Y000808112D01*
X004397664Y000806195D01*
X004399619Y000804131D01*
X004401420Y000801931D01*
X004403057Y000799608D01*
X004404523Y000797172D01*
X004405809Y000794637D01*
X004406908Y000792015D01*
X004407816Y000789322D01*
X004408527Y000786569D01*
X004409037Y000783773D01*
X004409344Y000780947D01*
X004409447Y000778106D01*
X004409447Y000236219D01*
X004408460Y000227458D01*
X004405548Y000219137D01*
X004400858Y000211672D01*
X004394624Y000205438D01*
X004387159Y000200748D01*
X004378839Y000197836D01*
X004370077Y000196849D01*
X003434490Y000196849D01*
X003431317Y000196977D01*
X003428166Y000197360D01*
X003425055Y000197996D01*
X003422006Y000198881D01*
X003419038Y000200008D01*
X003416171Y000201371D01*
X003413422Y000202960D01*
X003410811Y000204766D01*
X003408353Y000206776D01*
X003406066Y000208978D01*
X003403963Y000211357D01*
X003402059Y000213897D01*
X003400366Y000216583D01*
X003398895Y000219396D01*
X003397655Y000222319D01*
X003396655Y000225332D01*
X003395901Y000228416D01*
X003395397Y000231551D01*
X003395148Y000234716D01*
X003395155Y000237891D01*
X003398343Y000312909D01*
X003398585Y000315907D01*
X003399056Y000318878D01*
X003399752Y000321804D01*
X003400670Y000324669D01*
X003401803Y000327456D01*
X003403146Y000330147D01*
X003404691Y000332728D01*
X003406428Y000335184D01*
X003408348Y000337500D01*
X003410438Y000339663D01*
X003412688Y000341660D01*
X003415084Y000343479D01*
X003417611Y000345110D01*
X003420256Y000346543D01*
X003423003Y000347770D01*
X003425835Y000348784D01*
X003428736Y000349578D01*
X003431689Y000350149D01*
X003434678Y000350493D01*
X003437684Y000350607D01*
X000326127Y000598434D02*
X000326127Y000598434D01*
X000308490Y000598434D01*
X000313131Y000586759D01*
X000318071Y000575206D01*
X000323306Y000563784D01*
X000328832Y000552500D01*
X000334645Y000541362D01*
X000340741Y000530376D01*
X000347118Y000519550D01*
X000353770Y000508891D01*
X000360693Y000498406D01*
X000367882Y000488102D01*
X000375334Y000477986D01*
X000383043Y000468064D01*
X000391002Y000458343D01*
X000399210Y000448830D01*
X000407658Y000439530D01*
X000416341Y000430449D01*
X000425255Y000421594D01*
X000434393Y000412971D01*
X000443749Y000404584D01*
X000453316Y000396441D01*
X000463090Y000388545D01*
X000473062Y000380903D01*
X000483228Y000373519D01*
X000493579Y000366398D01*
X000504110Y000359544D01*
X000514813Y000352963D01*
X000525680Y000346658D01*
X000536706Y000340635D01*
X000547884Y000334895D01*
X000559204Y000329444D01*
X000570661Y000324286D01*
X000582245Y000319422D01*
X000593951Y000314858D01*
X000605770Y000310595D01*
X000617695Y000306636D01*
X000629717Y000302985D01*
X000641828Y000299642D01*
X000654022Y000296612D01*
X000666288Y000293895D01*
X000678621Y000291494D01*
X000691011Y000289409D01*
X000703451Y000287643D01*
X000715932Y000286197D01*
X000728445Y000285070D01*
X000740984Y000284266D01*
X000753539Y000283783D01*
X000766102Y000283622D01*
X000936102Y000283621D01*
X000936102Y000513621D01*
X001144186Y000513621D01*
X001147295Y000513498D01*
X001150385Y000513130D01*
X001153436Y000512519D01*
X001156429Y000511669D01*
X001159346Y000510586D01*
X001162168Y000509275D01*
X001164877Y000507745D01*
X001167458Y000506007D01*
X001169893Y000504070D01*
X001172168Y000501946D01*
X001174267Y000499650D01*
X001176179Y000497195D01*
X001177891Y000494597D01*
X001179393Y000491872D01*
X001180674Y000489036D01*
X001181728Y000486108D01*
X001182547Y000483106D01*
X001183127Y000480049D01*
X001183463Y000476956D01*
X001183554Y000473846D01*
X001181101Y000235814D01*
X001180949Y000232746D01*
X001180559Y000229700D01*
X001179933Y000226693D01*
X001179074Y000223745D01*
X001177989Y000220872D01*
X001176682Y000218093D01*
X001175163Y000215424D01*
X001173440Y000212882D01*
X001171525Y000210481D01*
X001169428Y000208237D01*
X001167163Y000206164D01*
X001164743Y000204273D01*
X001162182Y000202577D01*
X001159498Y000201085D01*
X001156705Y000199807D01*
X001153822Y000198751D01*
X001150864Y000197923D01*
X001147852Y000197327D01*
X001144802Y000196969D01*
X001141733Y000196849D01*
X000236219Y000196849D01*
X000227458Y000197836D01*
X000219137Y000200748D01*
X000211672Y000205438D01*
X000205438Y000211672D01*
X000200748Y000219137D01*
X000197836Y000227458D01*
X000196849Y000236219D01*
X000196849Y000676046D01*
X000196895Y000677951D01*
X000197034Y000679853D01*
X000197264Y000681745D01*
X000197585Y000683623D01*
X000197997Y000685484D01*
X000198499Y000687323D01*
X000199089Y000689136D01*
X000199766Y000690918D01*
X000200528Y000692665D01*
X000201375Y000694373D01*
X000202303Y000696038D01*
X000203310Y000697656D01*
X000204394Y000699223D01*
X000205553Y000700736D01*
X000206784Y000702192D01*
X000208084Y000703586D01*
X000209450Y000704915D01*
X000210879Y000706177D01*
X000212367Y000707368D01*
X000213911Y000708486D01*
X000264441Y000743234D01*
X000268090Y000745462D01*
X000271960Y000747281D01*
X000276004Y000748670D01*
X000280174Y000749612D01*
X000284423Y000750096D01*
X000288698Y000750116D01*
X000292951Y000749673D01*
X000297131Y000748771D01*
X000301188Y000747421D01*
X000305074Y000745639D01*
X000308745Y000743447D01*
X000312156Y000740869D01*
X000315268Y000737936D01*
X000318043Y000734684D01*
X000320449Y000731149D01*
X000322458Y000727375D01*
X000324045Y000723404D01*
X000325193Y000719286D01*
X000325887Y000715067D01*
X000326119Y000710797D01*
X000326127Y000598434D01*
X002394046Y002789288D02*
X002394046Y002789288D01*
X002395351Y002785256D01*
X002396214Y002781107D01*
X002396627Y002776889D01*
X002396584Y002772651D01*
X002396086Y002768443D01*
X002395138Y002764312D01*
X002393752Y002760307D01*
X002391943Y002756474D01*
X002389733Y002752858D01*
X002387147Y002749500D01*
X002384215Y002746440D01*
X002380970Y002743713D01*
X002377452Y002741350D01*
X002373700Y002739380D01*
X002369758Y002737824D01*
X002365671Y002736700D01*
X002361488Y002736023D01*
X002357256Y002735799D01*
X002353024Y002736031D01*
X002348842Y002736717D01*
X002227864Y002763313D01*
X002224922Y002764080D01*
X002222048Y002765071D01*
X002219259Y002766282D01*
X002216572Y002767704D01*
X002214003Y002769329D01*
X002211567Y002771147D01*
X002209278Y002773149D01*
X002207150Y002775320D01*
X002205197Y002777650D01*
X002203429Y002780123D01*
X002201857Y002782726D01*
X002200491Y002785441D01*
X002199338Y002788255D01*
X002198406Y002791148D01*
X002197699Y002794106D01*
X002197224Y002797108D01*
X002196981Y002800139D01*
X002196973Y002803179D01*
X002197199Y002806211D01*
X002197659Y002809216D01*
X002198382Y002812969D01*
X002200422Y002825211D01*
X002202151Y002837500D01*
X002203567Y002849829D01*
X002204672Y002862191D01*
X002205463Y002874576D01*
X002205940Y002886977D01*
X002206102Y002899387D01*
X002205951Y002911796D01*
X002205485Y002924198D01*
X002204705Y002936584D01*
X002203612Y002948946D01*
X002202206Y002961277D01*
X002200488Y002973568D01*
X002198460Y002985811D01*
X002196122Y002998000D01*
X002193476Y003010125D01*
X002190524Y003022179D01*
X002187267Y003034155D01*
X002183709Y003046044D01*
X002179850Y003057840D01*
X002175694Y003069534D01*
X002171243Y003081118D01*
X002166500Y003092587D01*
X002161469Y003103931D01*
X002156151Y003115145D01*
X002150551Y003126221D01*
X002144673Y003137150D01*
X002138519Y003147928D01*
X002132095Y003158546D01*
X002125403Y003168998D01*
X002118450Y003179278D01*
X002111238Y003189378D01*
X002103772Y003199291D01*
X002096059Y003209014D01*
X002088101Y003218537D01*
X002079904Y003227856D01*
X002071474Y003236964D01*
X002062817Y003245856D01*
X002053936Y003254526D01*
X002044840Y003262967D01*
X002035532Y003271176D01*
X002026019Y003279147D01*
X002016308Y003286874D01*
X002006404Y003294353D01*
X001996313Y003301578D01*
X001986044Y003308546D01*
X001975600Y003315251D01*
X001964990Y003321689D01*
X001954221Y003327857D01*
X001943299Y003333750D01*
X001932231Y003339365D01*
X001921025Y003344698D01*
X001909687Y003349744D01*
X001898225Y003354503D01*
X001886646Y003358969D01*
X001874958Y003363141D01*
X001863168Y003367016D01*
X001851283Y003370590D01*
X001839312Y003373863D01*
X001827261Y003376830D01*
X001815140Y003379493D01*
X001802955Y003381847D01*
X001790714Y003383892D01*
X001778425Y003385626D01*
X001766096Y003387049D01*
X001753735Y003388159D01*
X001741351Y003388955D01*
X001728949Y003389437D01*
X001716540Y003389606D01*
X001704130Y003389460D01*
X001422073Y003389504D01*
X001419045Y003389621D01*
X001416034Y003389971D01*
X001413060Y003390551D01*
X001410139Y003391358D01*
X001407289Y003392388D01*
X001404526Y003393633D01*
X001401867Y003395088D01*
X001399328Y003396743D01*
X001396924Y003398588D01*
X001394669Y003400612D01*
X001392577Y003402804D01*
X001390659Y003405151D01*
X001388927Y003407638D01*
X001387392Y003410251D01*
X001386062Y003412974D01*
X001384946Y003415791D01*
X001384050Y003418686D01*
X001383379Y003421642D01*
X001382937Y003424640D01*
X001382728Y003427663D01*
X001375517Y003662017D01*
X001375546Y003665169D01*
X001375827Y003668308D01*
X001376359Y003671415D01*
X001377137Y003674469D01*
X001378157Y003677451D01*
X001379413Y003680342D01*
X001380895Y003683123D01*
X001382596Y003685777D01*
X001384503Y003688286D01*
X001386605Y003690635D01*
X001388888Y003692808D01*
X001391337Y003694792D01*
X001393937Y003696573D01*
X001396672Y003698140D01*
X001399523Y003699484D01*
X001402472Y003700595D01*
X001405501Y003701467D01*
X001408590Y003702094D01*
X001411719Y003702472D01*
X001414868Y003702598D01*
X001636102Y003702598D01*
X001636102Y003472597D01*
X001716102Y003472597D01*
X001728512Y003472755D01*
X001740913Y003473226D01*
X001753299Y003474011D01*
X001765661Y003475110D01*
X001777991Y003476521D01*
X001790280Y003478245D01*
X001802524Y003480279D01*
X001814710Y003482622D01*
X001826835Y003485274D01*
X001838888Y003488231D01*
X001850862Y003491493D01*
X001862750Y003495057D01*
X001874543Y003498920D01*
X001886235Y003503082D01*
X001897818Y003507538D01*
X001909285Y003512286D01*
X001920627Y003517323D01*
X001931838Y003522645D01*
X001942911Y003528250D01*
X001953838Y003534133D01*
X001964613Y003540292D01*
X001975229Y003546721D01*
X001985678Y003553417D01*
X001995954Y003560375D01*
X002006051Y003567591D01*
X002015961Y003575061D01*
X002025680Y003582780D01*
X002035199Y003590742D01*
X002044515Y003598942D01*
X002053619Y003607376D01*
X002062507Y003616038D01*
X002071173Y003624922D01*
X002079611Y003634023D01*
X002087816Y003643334D01*
X002095782Y003652850D01*
X002103505Y003662565D01*
X002110979Y003672472D01*
X002118199Y003682566D01*
X002125163Y003692839D01*
X002130778Y003701594D01*
X002131597Y003702819D01*
X002132461Y003704013D01*
X002133369Y003705174D01*
X002134320Y003706300D01*
X002135312Y003707389D01*
X002136345Y003708441D01*
X002137416Y003709453D01*
X002138524Y003710424D01*
X002139668Y003711354D01*
X002140846Y003712239D01*
X002142056Y003713080D01*
X002143297Y003713876D01*
X002144566Y003714624D01*
X002145863Y003715324D01*
X002147185Y003715975D01*
X002148530Y003716576D01*
X002149897Y003717127D01*
X002151284Y003717626D01*
X002152688Y003718073D01*
X002154109Y003718466D01*
X002396188Y003780740D01*
X002398595Y003781279D01*
X002401030Y003781667D01*
X002403486Y003781901D01*
X002405951Y003781981D01*
X002408416Y003781907D01*
X002410872Y003781678D01*
X002413308Y003781296D01*
X002415716Y003780762D01*
X002418086Y003780079D01*
X002420408Y003779248D01*
X002422674Y003778274D01*
X002424875Y003777160D01*
X002427001Y003775910D01*
X002429045Y003774529D01*
X002430998Y003773023D01*
X002432853Y003771398D01*
X002434603Y003769660D01*
X002436241Y003767816D01*
X002437759Y003765873D01*
X002439154Y003763838D01*
X002441525Y003760135D01*
X002448478Y003749855D01*
X002455690Y003739755D01*
X002463156Y003729841D01*
X002470870Y003720119D01*
X002478827Y003710596D01*
X002487024Y003701277D01*
X002495454Y003692169D01*
X002504111Y003683277D01*
X002512992Y003674607D01*
X002522088Y003666166D01*
X002531396Y003657957D01*
X002540909Y003649986D01*
X002550620Y003642259D01*
X002560524Y003634780D01*
X002570615Y003627555D01*
X002580885Y003620587D01*
X002591328Y003613882D01*
X002601938Y003607444D01*
X002612707Y003601276D01*
X002623629Y003595383D01*
X002634697Y003589768D01*
X002645903Y003584435D01*
X002657241Y003579389D01*
X002668703Y003574630D01*
X002680282Y003570164D01*
X002691970Y003565992D01*
X002703761Y003562117D01*
X002715645Y003558543D01*
X002727616Y003555270D01*
X002739667Y003552302D01*
X002751788Y003549640D01*
X002763974Y003547286D01*
X002776215Y003545241D01*
X002788503Y003543507D01*
X002800832Y003542084D01*
X002813193Y003540974D01*
X002825578Y003540178D01*
X002837979Y003539696D01*
X002850388Y003539527D01*
X002862798Y003539673D01*
X003144855Y003539629D01*
X003147884Y003539512D01*
X003150894Y003539162D01*
X003153868Y003538582D01*
X003156789Y003537775D01*
X003159640Y003536745D01*
X003162402Y003535500D01*
X003165061Y003534045D01*
X003167600Y003532390D01*
X003170004Y003530545D01*
X003172259Y003528521D01*
X003174351Y003526329D01*
X003176269Y003523982D01*
X003178001Y003521495D01*
X003179536Y003518882D01*
X003180866Y003516159D01*
X003181982Y003513341D01*
X003182878Y003510447D01*
X003183549Y003507491D01*
X003183991Y003504493D01*
X003184201Y003501470D01*
X003191411Y003267116D01*
X003191382Y003263964D01*
X003191101Y003260825D01*
X003190569Y003257718D01*
X003189791Y003254664D01*
X003188771Y003251682D01*
X003187515Y003248791D01*
X003186033Y003246009D01*
X003184332Y003243356D01*
X003182425Y003240846D01*
X003180323Y003238498D01*
X003178040Y003236325D01*
X003175591Y003234341D01*
X003172991Y003232560D01*
X003170256Y003230993D01*
X003167405Y003229649D01*
X003164456Y003228537D01*
X003161427Y003227666D01*
X003158338Y003227039D01*
X003155209Y003226661D01*
X003152060Y003226535D01*
X002930826Y003226535D01*
X002930826Y003456535D01*
X002850826Y003456535D01*
X002838417Y003456378D01*
X002826015Y003455906D01*
X002813629Y003455122D01*
X002801267Y003454023D01*
X002788938Y003452611D01*
X002776648Y003450888D01*
X002764405Y003448854D01*
X002752218Y003446511D01*
X002740094Y003443859D01*
X002728040Y003440902D01*
X002716066Y003437640D01*
X002704179Y003434076D01*
X002692385Y003430213D01*
X002680693Y003426051D01*
X002669110Y003421595D01*
X002657644Y003416847D01*
X002646301Y003411810D01*
X002635090Y003406488D01*
X002624017Y003400883D01*
X002613090Y003395000D01*
X002602315Y003388841D01*
X002591699Y003382412D01*
X002581250Y003375716D01*
X002570974Y003368758D01*
X002560878Y003361541D01*
X002550967Y003354071D01*
X002541248Y003346353D01*
X002531729Y003338391D01*
X002522413Y003330191D01*
X002513309Y003321756D01*
X002504421Y003313095D01*
X002495755Y003304211D01*
X002487318Y003295110D01*
X002479112Y003285799D01*
X002471146Y003276283D01*
X002463423Y003266568D01*
X002455949Y003256661D01*
X002448729Y003246567D01*
X002441766Y003236294D01*
X002435065Y003225847D01*
X002428631Y003215235D01*
X002422468Y003204463D01*
X002416580Y003193538D01*
X002410970Y003182468D01*
X002405643Y003171259D01*
X002400601Y003159919D01*
X002395847Y003148454D01*
X002391386Y003136874D01*
X002387220Y003125184D01*
X002383351Y003113392D01*
X002379781Y003101505D01*
X002376514Y003089532D01*
X002373552Y003077481D01*
X002370895Y003065358D01*
X002368546Y003053172D01*
X002366506Y003040930D01*
X002364777Y003028641D01*
X002363361Y003016311D01*
X002362256Y003003950D01*
X002361466Y002991565D01*
X002360988Y002979164D01*
X002360826Y002966754D01*
X002360978Y002954344D01*
X002361443Y002941943D01*
X002362223Y002929557D01*
X002363316Y002917194D01*
X002364722Y002904864D01*
X002366440Y002892573D01*
X002368468Y002880329D01*
X002370807Y002868141D01*
X002373452Y002856016D01*
X002376404Y002843962D01*
X002379661Y002831986D01*
X002383220Y002820097D01*
X002387078Y002808301D01*
X002391234Y002796607D01*
X002394046Y002789288D01*
X002394046Y001726296D02*
X002394046Y001726296D01*
X002395351Y001722264D01*
X002396214Y001718115D01*
X002396627Y001713897D01*
X002396584Y001709659D01*
X002396086Y001705450D01*
X002395138Y001701320D01*
X002393752Y001697315D01*
X002391943Y001693482D01*
X002389733Y001689866D01*
X002387147Y001686508D01*
X002384215Y001683448D01*
X002380970Y001680721D01*
X002377452Y001678358D01*
X002373700Y001676388D01*
X002369758Y001674831D01*
X002365671Y001673708D01*
X002361488Y001673031D01*
X002357256Y001672807D01*
X002353024Y001673039D01*
X002348842Y001673725D01*
X002227864Y001700321D01*
X002224922Y001701087D01*
X002222048Y001702079D01*
X002219259Y001703290D01*
X002216572Y001704712D01*
X002214003Y001706337D01*
X002211567Y001708155D01*
X002209278Y001710157D01*
X002207150Y001712328D01*
X002205197Y001714658D01*
X002203429Y001717131D01*
X002201857Y001719733D01*
X002200491Y001722449D01*
X002199338Y001725263D01*
X002198406Y001728156D01*
X002197699Y001731113D01*
X002197224Y001734116D01*
X002196981Y001737147D01*
X002196973Y001740187D01*
X002197199Y001743219D01*
X002197659Y001746224D01*
X002198382Y001749977D01*
X002200422Y001762218D01*
X002202151Y001774508D01*
X002203567Y001786837D01*
X002204672Y001799198D01*
X002205463Y001811584D01*
X002205940Y001823985D01*
X002206102Y001836394D01*
X002205951Y001848804D01*
X002205485Y001861206D01*
X002204705Y001873592D01*
X002203612Y001885954D01*
X002202206Y001898284D01*
X002200488Y001910576D01*
X002198460Y001922819D01*
X002196122Y001935008D01*
X002193476Y001947133D01*
X002190524Y001959187D01*
X002187267Y001971163D01*
X002183709Y001983052D01*
X002179850Y001994848D01*
X002175694Y002006541D01*
X002171243Y002018126D01*
X002166500Y002029595D01*
X002161469Y002040939D01*
X002156151Y002052153D01*
X002150551Y002063228D01*
X002144673Y002074158D01*
X002138519Y002084936D01*
X002132095Y002095554D01*
X002125403Y002106006D01*
X002118450Y002116286D01*
X002111238Y002126386D01*
X002103772Y002136299D01*
X002096059Y002146021D01*
X002088101Y002155545D01*
X002079904Y002164864D01*
X002071474Y002173972D01*
X002062817Y002182864D01*
X002053936Y002191533D01*
X002044840Y002199975D01*
X002035532Y002208184D01*
X002026019Y002216154D01*
X002016308Y002223882D01*
X002006404Y002231360D01*
X001996313Y002238586D01*
X001986044Y002245553D01*
X001975600Y002252259D01*
X001964990Y002258697D01*
X001954221Y002264865D01*
X001943299Y002270758D01*
X001932231Y002276373D01*
X001921025Y002281705D01*
X001909687Y002286752D01*
X001898225Y002291510D01*
X001886646Y002295977D01*
X001874958Y002300149D01*
X001863168Y002304023D01*
X001851283Y002307598D01*
X001839312Y002310870D01*
X001827261Y002313838D01*
X001815140Y002316501D01*
X001802955Y002318855D01*
X001790714Y002320900D01*
X001778425Y002322634D01*
X001766096Y002324057D01*
X001753735Y002325167D01*
X001741351Y002325963D01*
X001728949Y002326445D01*
X001716540Y002326614D01*
X001704130Y002326468D01*
X001422073Y002326512D01*
X001419045Y002326629D01*
X001416034Y002326978D01*
X001413060Y002327559D01*
X001410139Y002328366D01*
X001407289Y002329395D01*
X001404526Y002330641D01*
X001401867Y002332096D01*
X001399328Y002333750D01*
X001396924Y002335596D01*
X001394669Y002337620D01*
X001392577Y002339812D01*
X001390659Y002342159D01*
X001388927Y002344646D01*
X001387392Y002347259D01*
X001386062Y002349982D01*
X001384946Y002352799D01*
X001384050Y002355694D01*
X001383379Y002358650D01*
X001382937Y002361648D01*
X001382728Y002364671D01*
X001375517Y002599025D01*
X001375546Y002602177D01*
X001375827Y002605316D01*
X001376359Y002608422D01*
X001377137Y002611477D01*
X001378157Y002614459D01*
X001379413Y002617350D01*
X001380895Y002620131D01*
X001382596Y002622785D01*
X001384503Y002625294D01*
X001386605Y002627643D01*
X001388888Y002629816D01*
X001391337Y002631800D01*
X001393937Y002633581D01*
X001396672Y002635148D01*
X001399523Y002636492D01*
X001402472Y002637603D01*
X001405501Y002638475D01*
X001408590Y002639102D01*
X001411719Y002639480D01*
X001414868Y002639606D01*
X001636102Y002639606D01*
X001636102Y002409605D01*
X001716102Y002409605D01*
X001728512Y002409762D01*
X001740913Y002410234D01*
X001753299Y002411019D01*
X001765661Y002412118D01*
X001777991Y002413529D01*
X001790280Y002415253D01*
X001802524Y002417287D01*
X001814710Y002419630D01*
X001826835Y002422282D01*
X001838888Y002425239D01*
X001850862Y002428501D01*
X001862750Y002432065D01*
X001874543Y002435928D01*
X001886235Y002440090D01*
X001897818Y002444546D01*
X001909285Y002449294D01*
X001920627Y002454331D01*
X001931838Y002459653D01*
X001942911Y002465258D01*
X001953838Y002471141D01*
X001964613Y002477300D01*
X001975229Y002483729D01*
X001985678Y002490425D01*
X001995954Y002497383D01*
X002006051Y002504599D01*
X002015961Y002512069D01*
X002025680Y002519788D01*
X002035199Y002527749D01*
X002044515Y002535950D01*
X002053619Y002544384D01*
X002062507Y002553045D01*
X002071173Y002561930D01*
X002079611Y002571031D01*
X002087816Y002580342D01*
X002095782Y002589858D01*
X002103505Y002599573D01*
X002110979Y002609480D01*
X002118199Y002619574D01*
X002125163Y002629847D01*
X002130778Y002638602D01*
X002131597Y002639827D01*
X002132461Y002641021D01*
X002133369Y002642182D01*
X002134320Y002643308D01*
X002135312Y002644397D01*
X002136345Y002645449D01*
X002137416Y002646461D01*
X002138524Y002647432D01*
X002139668Y002648361D01*
X002140846Y002649247D01*
X002142056Y002650088D01*
X002143297Y002650884D01*
X002144566Y002651632D01*
X002145863Y002652332D01*
X002147185Y002652983D01*
X002148530Y002653584D01*
X002149897Y002654135D01*
X002151284Y002654634D01*
X002152688Y002655080D01*
X002154109Y002655474D01*
X002396188Y002717747D01*
X002398595Y002718287D01*
X002401030Y002718674D01*
X002403486Y002718909D01*
X002405951Y002718989D01*
X002408416Y002718914D01*
X002410872Y002718686D01*
X002413308Y002718304D01*
X002415716Y002717770D01*
X002418086Y002717087D01*
X002420408Y002716256D01*
X002422674Y002715282D01*
X002424875Y002714168D01*
X002427001Y002712918D01*
X002429045Y002711537D01*
X002430998Y002710031D01*
X002432853Y002708406D01*
X002434603Y002706668D01*
X002436241Y002704824D01*
X002437759Y002702881D01*
X002439154Y002700846D01*
X002441525Y002697142D01*
X002448478Y002686863D01*
X002455690Y002676763D01*
X002463156Y002666849D01*
X002470870Y002657127D01*
X002478827Y002647604D01*
X002487024Y002638285D01*
X002495454Y002629177D01*
X002504111Y002620285D01*
X002512992Y002611615D01*
X002522088Y002603174D01*
X002531396Y002594964D01*
X002540909Y002586994D01*
X002550620Y002579267D01*
X002560524Y002571788D01*
X002570615Y002564563D01*
X002580885Y002557595D01*
X002591328Y002550890D01*
X002601938Y002544452D01*
X002612707Y002538283D01*
X002623629Y002532390D01*
X002634697Y002526776D01*
X002645903Y002521443D01*
X002657241Y002516396D01*
X002668703Y002511638D01*
X002680282Y002507171D01*
X002691970Y002503000D01*
X002703761Y002499125D01*
X002715645Y002495551D01*
X002727616Y002492278D01*
X002739667Y002489310D01*
X002751788Y002486648D01*
X002763974Y002484293D01*
X002776215Y002482249D01*
X002788503Y002480515D01*
X002800832Y002479092D01*
X002813193Y002477982D01*
X002825578Y002477186D01*
X002837979Y002476703D01*
X002850388Y002476535D01*
X002862798Y002476681D01*
X003144855Y002476637D01*
X003147884Y002476520D01*
X003150894Y002476170D01*
X003153868Y002475590D01*
X003156789Y002474783D01*
X003159640Y002473753D01*
X003162402Y002472507D01*
X003165061Y002471053D01*
X003167600Y002469398D01*
X003170004Y002467553D01*
X003172259Y002465528D01*
X003174351Y002463336D01*
X003176269Y002460990D01*
X003178001Y002458503D01*
X003179536Y002455890D01*
X003180866Y002453167D01*
X003181982Y002450349D01*
X003182878Y002447454D01*
X003183549Y002444499D01*
X003183991Y002441501D01*
X003184201Y002438478D01*
X003191411Y002204124D01*
X003191382Y002200972D01*
X003191101Y002197833D01*
X003190569Y002194726D01*
X003189791Y002191672D01*
X003188771Y002188690D01*
X003187515Y002185799D01*
X003186033Y002183017D01*
X003184332Y002180364D01*
X003182425Y002177854D01*
X003180323Y002175506D01*
X003178040Y002173332D01*
X003175591Y002171349D01*
X003172991Y002169568D01*
X003170256Y002168000D01*
X003167405Y002166657D01*
X003164456Y002165545D01*
X003161427Y002164674D01*
X003158338Y002164047D01*
X003155209Y002163669D01*
X003152060Y002163543D01*
X002930826Y002163543D01*
X002930826Y002393543D01*
X002850826Y002393543D01*
X002838417Y002393386D01*
X002826015Y002392914D01*
X002813629Y002392129D01*
X002801267Y002391031D01*
X002788938Y002389619D01*
X002776648Y002387896D01*
X002764405Y002385862D01*
X002752218Y002383518D01*
X002740094Y002380867D01*
X002728040Y002377910D01*
X002716066Y002374648D01*
X002704179Y002371084D01*
X002692385Y002367220D01*
X002680693Y002363059D01*
X002669110Y002358603D01*
X002657644Y002353855D01*
X002646301Y002348818D01*
X002635090Y002343496D01*
X002624017Y002337891D01*
X002613090Y002332007D01*
X002602315Y002325849D01*
X002591699Y002319420D01*
X002581250Y002312724D01*
X002570974Y002305766D01*
X002560878Y002298549D01*
X002550967Y002291079D01*
X002541248Y002283361D01*
X002531729Y002275399D01*
X002522413Y002267198D01*
X002513309Y002258764D01*
X002504421Y002250103D01*
X002495755Y002241219D01*
X002487318Y002232118D01*
X002479112Y002222806D01*
X002471146Y002213290D01*
X002463423Y002203576D01*
X002455949Y002193668D01*
X002448729Y002183575D01*
X002441766Y002173302D01*
X002435065Y002162855D01*
X002428631Y002152243D01*
X002422468Y002141471D01*
X002416580Y002130546D01*
X002410970Y002119476D01*
X002405643Y002108267D01*
X002400601Y002096927D01*
X002395847Y002085462D01*
X002391386Y002073882D01*
X002387220Y002062192D01*
X002383351Y002050400D01*
X002379781Y002038513D01*
X002376514Y002026540D01*
X002373552Y002014489D01*
X002370895Y002002366D01*
X002368546Y001990180D01*
X002366506Y001977938D01*
X002364777Y001965649D01*
X002363361Y001953319D01*
X002362256Y001940958D01*
X002361466Y001928573D01*
X002360988Y001916171D01*
X002360826Y001903762D01*
X002360978Y001891352D01*
X002361443Y001878951D01*
X002362223Y001866565D01*
X002363316Y001854202D01*
X002364722Y001841872D01*
X002366440Y001829581D01*
X002368468Y001817337D01*
X002370807Y001805149D01*
X002373452Y001793023D01*
X002376404Y001780970D01*
X002379661Y001768994D01*
X002383220Y001757105D01*
X002387078Y001745309D01*
X002391234Y001733615D01*
X002394046Y001726296D01*
X002394046Y000663304D02*
X002394046Y000663304D01*
X002395351Y000659272D01*
X002396214Y000655123D01*
X002396627Y000650905D01*
X002396584Y000646667D01*
X002396086Y000642458D01*
X002395138Y000638328D01*
X002393752Y000634323D01*
X002391943Y000630490D01*
X002389733Y000626874D01*
X002387147Y000623516D01*
X002384215Y000620456D01*
X002380970Y000617729D01*
X002377452Y000615366D01*
X002373700Y000613395D01*
X002369758Y000611839D01*
X002365671Y000610716D01*
X002361488Y000610039D01*
X002357256Y000609815D01*
X002353024Y000610047D01*
X002348842Y000610733D01*
X002227864Y000637328D01*
X002224922Y000638095D01*
X002222048Y000639087D01*
X002219259Y000640297D01*
X002216572Y000641719D01*
X002214003Y000643345D01*
X002211567Y000645163D01*
X002209278Y000647164D01*
X002207150Y000649336D01*
X002205197Y000651666D01*
X002203429Y000654139D01*
X002201857Y000656741D01*
X002200491Y000659457D01*
X002199338Y000662270D01*
X002198406Y000665164D01*
X002197699Y000668121D01*
X002197224Y000671124D01*
X002196981Y000674155D01*
X002196973Y000677195D01*
X002197199Y000680227D01*
X002197659Y000683232D01*
X002198382Y000686984D01*
X002200422Y000699226D01*
X002202151Y000711516D01*
X002203567Y000723845D01*
X002204672Y000736206D01*
X002205463Y000748591D01*
X002205940Y000760993D01*
X002206102Y000773402D01*
X002205951Y000785812D01*
X002205485Y000798214D01*
X002204705Y000810600D01*
X002203612Y000822962D01*
X002202206Y000835292D01*
X002200488Y000847584D01*
X002198460Y000859827D01*
X002196122Y000872016D01*
X002193476Y000884141D01*
X002190524Y000896195D01*
X002187267Y000908171D01*
X002183709Y000920060D01*
X002179850Y000931856D01*
X002175694Y000943549D01*
X002171243Y000955134D01*
X002166500Y000966603D01*
X002161469Y000977947D01*
X002156151Y000989161D01*
X002150551Y001000236D01*
X002144673Y001011166D01*
X002138519Y001021944D01*
X002132095Y001032562D01*
X002125403Y001043014D01*
X002118450Y001053294D01*
X002111238Y001063394D01*
X002103772Y001073307D01*
X002096059Y001083029D01*
X002088101Y001092553D01*
X002079904Y001101872D01*
X002071474Y001110980D01*
X002062817Y001119871D01*
X002053936Y001128541D01*
X002044840Y001136983D01*
X002035532Y001145192D01*
X002026019Y001153162D01*
X002016308Y001160890D01*
X002006404Y001168368D01*
X001996313Y001175594D01*
X001986044Y001182561D01*
X001975600Y001189267D01*
X001964990Y001195705D01*
X001954221Y001201873D01*
X001943299Y001207766D01*
X001932231Y001213381D01*
X001921025Y001218713D01*
X001909687Y001223760D01*
X001898225Y001228518D01*
X001886646Y001232985D01*
X001874958Y001237157D01*
X001863168Y001241031D01*
X001851283Y001244606D01*
X001839312Y001247878D01*
X001827261Y001250846D01*
X001815140Y001253508D01*
X001802955Y001255863D01*
X001790714Y001257908D01*
X001778425Y001259642D01*
X001766096Y001261065D01*
X001753735Y001262174D01*
X001741351Y001262971D01*
X001728949Y001263453D01*
X001716540Y001263622D01*
X001704130Y001263476D01*
X001422073Y001263519D01*
X001419045Y001263637D01*
X001416034Y001263986D01*
X001413060Y001264566D01*
X001410139Y001265374D01*
X001407289Y001266403D01*
X001404526Y001267649D01*
X001401867Y001269104D01*
X001399328Y001270758D01*
X001396924Y001272603D01*
X001394669Y001274628D01*
X001392577Y001276820D01*
X001390659Y001279167D01*
X001388927Y001281654D01*
X001387392Y001284266D01*
X001386062Y001286990D01*
X001384946Y001289807D01*
X001384050Y001292702D01*
X001383379Y001295657D01*
X001382937Y001298656D01*
X001382728Y001301679D01*
X001375517Y001536033D01*
X001375546Y001539184D01*
X001375827Y001542324D01*
X001376359Y001545430D01*
X001377137Y001548485D01*
X001378157Y001551467D01*
X001379413Y001554358D01*
X001380895Y001557139D01*
X001382596Y001559793D01*
X001384503Y001562302D01*
X001386605Y001564651D01*
X001388888Y001566824D01*
X001391337Y001568807D01*
X001393937Y001570589D01*
X001396672Y001572156D01*
X001399523Y001573500D01*
X001402472Y001574611D01*
X001405501Y001575483D01*
X001408590Y001576110D01*
X001411719Y001576487D01*
X001414868Y001576614D01*
X001636102Y001576614D01*
X001636102Y001346613D01*
X001716102Y001346613D01*
X001728512Y001346770D01*
X001740913Y001347242D01*
X001753299Y001348027D01*
X001765661Y001349126D01*
X001777991Y001350537D01*
X001790280Y001352260D01*
X001802524Y001354295D01*
X001814710Y001356638D01*
X001826835Y001359289D01*
X001838888Y001362247D01*
X001850862Y001365509D01*
X001862750Y001369072D01*
X001874543Y001372936D01*
X001886235Y001377097D01*
X001897818Y001381554D01*
X001909285Y001386302D01*
X001920627Y001391339D01*
X001931838Y001396661D01*
X001942911Y001402266D01*
X001953838Y001408149D01*
X001964613Y001414308D01*
X001975229Y001420737D01*
X001985678Y001427432D01*
X001995954Y001434391D01*
X002006051Y001441607D01*
X002015961Y001449077D01*
X002025680Y001456795D01*
X002035199Y001464757D01*
X002044515Y001472958D01*
X002053619Y001481392D01*
X002062507Y001490053D01*
X002071173Y001498938D01*
X002079611Y001508039D01*
X002087816Y001517350D01*
X002095782Y001526866D01*
X002103505Y001536581D01*
X002110979Y001546488D01*
X002118199Y001556582D01*
X002125163Y001566855D01*
X002130778Y001575610D01*
X002131597Y001576835D01*
X002132461Y001578029D01*
X002133369Y001579190D01*
X002134320Y001580315D01*
X002135312Y001581405D01*
X002136345Y001582456D01*
X002137416Y001583469D01*
X002138524Y001584440D01*
X002139668Y001585369D01*
X002140846Y001586255D01*
X002142056Y001587096D01*
X002143297Y001587891D01*
X002144566Y001588640D01*
X002145863Y001589340D01*
X002147185Y001589991D01*
X002148530Y001590592D01*
X002149897Y001591143D01*
X002151284Y001591642D01*
X002152688Y001592088D01*
X002154109Y001592482D01*
X002396188Y001654755D01*
X002398595Y001655295D01*
X002401030Y001655682D01*
X002403486Y001655917D01*
X002405951Y001655997D01*
X002408416Y001655922D01*
X002410872Y001655694D01*
X002413308Y001655312D01*
X002415716Y001654778D01*
X002418086Y001654095D01*
X002420408Y001653264D01*
X002422674Y001652290D01*
X002424875Y001651175D01*
X002427001Y001649926D01*
X002429045Y001648545D01*
X002430998Y001647039D01*
X002432853Y001645414D01*
X002434603Y001643676D01*
X002436241Y001641832D01*
X002437759Y001639888D01*
X002439154Y001637854D01*
X002441525Y001634150D01*
X002448478Y001623871D01*
X002455690Y001613771D01*
X002463156Y001603857D01*
X002470870Y001594135D01*
X002478827Y001584612D01*
X002487024Y001575293D01*
X002495454Y001566184D01*
X002504111Y001557293D01*
X002512992Y001548623D01*
X002522088Y001540181D01*
X002531396Y001531972D01*
X002540909Y001524002D01*
X002550620Y001516275D01*
X002560524Y001508796D01*
X002570615Y001501571D01*
X002580885Y001494603D01*
X002591328Y001487898D01*
X002601938Y001481459D01*
X002612707Y001475291D01*
X002623629Y001469398D01*
X002634697Y001463784D01*
X002645903Y001458451D01*
X002657241Y001453404D01*
X002668703Y001448646D01*
X002680282Y001444179D01*
X002691970Y001440008D01*
X002703761Y001436133D01*
X002715645Y001432559D01*
X002727616Y001429286D01*
X002739667Y001426318D01*
X002751788Y001423656D01*
X002763974Y001421301D01*
X002776215Y001419257D01*
X002788503Y001417522D01*
X002800832Y001416100D01*
X002813193Y001414990D01*
X002825578Y001414194D01*
X002837979Y001413711D01*
X002850388Y001413543D01*
X002862798Y001413689D01*
X003184218Y001413639D01*
X003187246Y001413522D01*
X003190256Y001413172D01*
X003193230Y001412592D01*
X003196151Y001411785D01*
X003199002Y001410755D01*
X003201764Y001409509D01*
X003204423Y001408055D01*
X003206962Y001406400D01*
X003209366Y001404555D01*
X003211621Y001402531D01*
X003213713Y001400339D01*
X003215631Y001397992D01*
X003217363Y001395505D01*
X003218898Y001392893D01*
X003220228Y001390169D01*
X003221344Y001387352D01*
X003222240Y001384457D01*
X003222911Y001381502D01*
X003223353Y001378504D01*
X003223563Y001375481D01*
X003230781Y001141133D01*
X003230752Y001137981D01*
X003230471Y001134842D01*
X003229940Y001131735D01*
X003229161Y001128681D01*
X003228141Y001125699D01*
X003226886Y001122807D01*
X003225403Y001120026D01*
X003223703Y001117372D01*
X003221796Y001114863D01*
X003219694Y001112514D01*
X003217411Y001110341D01*
X003214962Y001108357D01*
X003212361Y001106576D01*
X003209627Y001105008D01*
X003206776Y001103665D01*
X003203826Y001102553D01*
X003200797Y001101681D01*
X003197708Y001101055D01*
X003194579Y001100677D01*
X003191430Y001100551D01*
X002930826Y001100551D01*
X002930826Y001330551D01*
X002850826Y001330551D01*
X002838417Y001330394D01*
X002826015Y001329922D01*
X002813629Y001329137D01*
X002801267Y001328039D01*
X002788938Y001326627D01*
X002776648Y001324904D01*
X002764405Y001322870D01*
X002752218Y001320526D01*
X002740094Y001317875D01*
X002728040Y001314918D01*
X002716066Y001311656D01*
X002704179Y001308092D01*
X002692385Y001304228D01*
X002680693Y001300067D01*
X002669110Y001295611D01*
X002657644Y001290862D01*
X002646301Y001285826D01*
X002635090Y001280504D01*
X002624017Y001274899D01*
X002613090Y001269015D01*
X002602315Y001262857D01*
X002591699Y001256428D01*
X002581250Y001249732D01*
X002570974Y001242774D01*
X002560878Y001235557D01*
X002550967Y001228087D01*
X002541248Y001220369D01*
X002531729Y001212407D01*
X002522413Y001204206D01*
X002513309Y001195772D01*
X002504421Y001187111D01*
X002495755Y001178227D01*
X002487318Y001169126D01*
X002479112Y001159814D01*
X002471146Y001150298D01*
X002463423Y001140583D01*
X002455949Y001130676D01*
X002448729Y001120582D01*
X002441766Y001110309D01*
X002435065Y001099863D01*
X002428631Y001089251D01*
X002422468Y001078479D01*
X002416580Y001067554D01*
X002410970Y001056484D01*
X002405643Y001045275D01*
X002400601Y001033934D01*
X002395847Y001022470D01*
X002391386Y001010890D01*
X002387220Y000999199D01*
X002383351Y000987407D01*
X002379781Y000975521D01*
X002376514Y000963548D01*
X002373552Y000951497D01*
X002370895Y000939374D01*
X002368546Y000927188D01*
X002366506Y000914946D01*
X002364777Y000902657D01*
X002363361Y000890327D01*
X002362256Y000877966D01*
X002361466Y000865581D01*
X002360988Y000853179D01*
X002360826Y000840770D01*
X002360978Y000828360D01*
X002361443Y000815958D01*
X002362223Y000803573D01*
X002363316Y000791210D01*
X002364722Y000778880D01*
X002366440Y000766588D01*
X002368468Y000754345D01*
X002370807Y000742157D01*
X002373452Y000730031D01*
X002376404Y000717977D01*
X002379661Y000706001D01*
X002383220Y000694113D01*
X002387078Y000682317D01*
X002391234Y000670623D01*
X002394046Y000663304D01*
X001377951Y000196849D02*
X001377951Y000196849D01*
X001374882Y000196969D01*
X001371832Y000197327D01*
X001368820Y000197923D01*
X001365862Y000198751D01*
X001362979Y000199807D01*
X001360186Y000201085D01*
X001357502Y000202577D01*
X001354942Y000204273D01*
X001352521Y000206164D01*
X001350256Y000208237D01*
X001348159Y000210481D01*
X001346244Y000212882D01*
X001344521Y000215424D01*
X001343002Y000218093D01*
X001341696Y000220872D01*
X001340610Y000223745D01*
X001339751Y000226693D01*
X001339125Y000229700D01*
X001338735Y000232746D01*
X001338583Y000235814D01*
X001336130Y000473846D01*
X001336221Y000476956D01*
X001336557Y000480049D01*
X001337137Y000483106D01*
X001337956Y000486108D01*
X001339010Y000489036D01*
X001340291Y000491872D01*
X001341793Y000494597D01*
X001343505Y000497195D01*
X001345417Y000499650D01*
X001347516Y000501946D01*
X001349791Y000504070D01*
X001352226Y000506007D01*
X001354807Y000507745D01*
X001357516Y000509275D01*
X001360338Y000510586D01*
X001363255Y000511669D01*
X001366248Y000512519D01*
X001369299Y000513130D01*
X001372389Y000513498D01*
X001375498Y000513621D01*
X001636102Y000513621D01*
X001636102Y000283621D01*
X001716102Y000283621D01*
X001728512Y000283778D01*
X001740913Y000284250D01*
X001753299Y000285035D01*
X001765661Y000286134D01*
X001777991Y000287545D01*
X001790280Y000289268D01*
X001802524Y000291302D01*
X001814710Y000293646D01*
X001826835Y000296297D01*
X001838888Y000299255D01*
X001850862Y000302516D01*
X001862750Y000306080D01*
X001874543Y000309944D01*
X001886235Y000314105D01*
X001897818Y000318562D01*
X001909285Y000323310D01*
X001920627Y000328346D01*
X001931838Y000333669D01*
X001942911Y000339274D01*
X001953838Y000345157D01*
X001964613Y000351315D01*
X001975229Y000357745D01*
X001985678Y000364440D01*
X001995954Y000371399D01*
X002006051Y000378615D01*
X002015961Y000386085D01*
X002025680Y000393803D01*
X002035199Y000401765D01*
X002044515Y000409966D01*
X002053619Y000418400D01*
X002062507Y000427061D01*
X002071173Y000435946D01*
X002079611Y000445046D01*
X002087816Y000454358D01*
X002095782Y000463874D01*
X002103505Y000473589D01*
X002110979Y000483496D01*
X002118199Y000493590D01*
X002125163Y000503863D01*
X002130778Y000512618D01*
X002131597Y000513843D01*
X002132461Y000515037D01*
X002133369Y000516197D01*
X002134320Y000517323D01*
X002135312Y000518413D01*
X002136345Y000519464D01*
X002137416Y000520477D01*
X002138524Y000521448D01*
X002139668Y000522377D01*
X002140846Y000523263D01*
X002142056Y000524104D01*
X002143297Y000524899D01*
X002144566Y000525648D01*
X002145863Y000526348D01*
X002147185Y000526999D01*
X002148530Y000527600D01*
X002149897Y000528151D01*
X002151284Y000528649D01*
X002152688Y000529096D01*
X002154109Y000529490D01*
X002396188Y000591763D01*
X002398595Y000592303D01*
X002401030Y000592690D01*
X002403486Y000592924D01*
X002405951Y000593005D01*
X002408416Y000592930D01*
X002410872Y000592702D01*
X002413308Y000592320D01*
X002415716Y000591786D01*
X002418086Y000591102D01*
X002420408Y000590272D01*
X002422674Y000589298D01*
X002424875Y000588183D01*
X002427001Y000586933D01*
X002429045Y000585553D01*
X002430998Y000584047D01*
X002432853Y000582422D01*
X002434603Y000580684D01*
X002436241Y000578839D01*
X002437759Y000576896D01*
X002439154Y000574862D01*
X002441525Y000571158D01*
X002448478Y000560879D01*
X002455690Y000550779D01*
X002463156Y000540865D01*
X002470870Y000531143D01*
X002478827Y000521620D01*
X002487024Y000512301D01*
X002495454Y000503192D01*
X002504111Y000494301D01*
X002512992Y000485631D01*
X002522088Y000477189D01*
X002531396Y000468980D01*
X002540909Y000461010D01*
X002550620Y000453283D01*
X002560524Y000445804D01*
X002570615Y000438579D01*
X002580885Y000431611D01*
X002591328Y000424906D01*
X002601938Y000418467D01*
X002612707Y000412299D01*
X002623629Y000406406D01*
X002634697Y000400792D01*
X002645903Y000395459D01*
X002657241Y000390412D01*
X002668703Y000385654D01*
X002680282Y000381187D01*
X002691970Y000377016D01*
X002703761Y000373141D01*
X002715645Y000369566D01*
X002727616Y000366294D01*
X002739667Y000363326D01*
X002751788Y000360664D01*
X002763974Y000358309D01*
X002776215Y000356265D01*
X002788503Y000354530D01*
X002800832Y000353108D01*
X002813193Y000351998D01*
X002825578Y000351202D01*
X002837979Y000350719D01*
X002850388Y000350551D01*
X002862798Y000350697D01*
X003255252Y000350636D01*
X003258258Y000350520D01*
X003261246Y000350176D01*
X003264199Y000349604D01*
X003267099Y000348809D01*
X003269931Y000347794D01*
X003272677Y000346567D01*
X003275321Y000345133D01*
X003277848Y000343501D01*
X003280243Y000341682D01*
X003282492Y000339685D01*
X003284582Y000337522D01*
X003286501Y000335206D01*
X003288237Y000332750D01*
X003289781Y000330168D01*
X003291123Y000327477D01*
X003292256Y000324690D01*
X003293173Y000321826D01*
X003293869Y000318899D01*
X003294339Y000315929D01*
X003294581Y000312931D01*
X003297758Y000237884D01*
X003297764Y000234710D01*
X003297514Y000231545D01*
X003297011Y000228411D01*
X003296256Y000225327D01*
X003295256Y000222314D01*
X003294016Y000219392D01*
X003292544Y000216579D01*
X003290851Y000213894D01*
X003288947Y000211354D01*
X003286844Y000208975D01*
X003284557Y000206774D01*
X003282100Y000204764D01*
X003279488Y000202959D01*
X003276740Y000201370D01*
X003273873Y000200007D01*
X003270905Y000198880D01*
X003267856Y000197996D01*
X003264746Y000197360D01*
X003261595Y000196977D01*
X003258423Y000196849D01*
X001377951Y000196849D01*
X003188975Y004606298D02*
X003188975Y004606298D01*
X003192044Y004606179D01*
X003195094Y004605820D01*
X003198107Y004605225D01*
X003201064Y004604397D01*
X003203948Y004603340D01*
X003206741Y004602062D01*
X003209425Y004600571D01*
X003211985Y004598875D01*
X003214405Y004596984D01*
X003216670Y004594910D01*
X003218767Y004592667D01*
X003220683Y004590266D01*
X003222405Y004587724D01*
X003223925Y004585055D01*
X003225231Y004582275D01*
X003226317Y004579403D01*
X003227176Y004576454D01*
X003227802Y004573448D01*
X003228192Y004570402D01*
X003228343Y004567334D01*
X003230798Y004329303D01*
X003230707Y004326193D01*
X003230371Y004323099D01*
X003229791Y004320042D01*
X003228972Y004317040D01*
X003227918Y004314113D01*
X003226637Y004311277D01*
X003225135Y004308552D01*
X003223423Y004305954D01*
X003221512Y004303499D01*
X003219412Y004301202D01*
X003217137Y004299079D01*
X003214702Y004297142D01*
X003212122Y004295403D01*
X003209412Y004293874D01*
X003206590Y004292563D01*
X003203673Y004291479D01*
X003200680Y004290629D01*
X003197629Y004290018D01*
X003194539Y004289650D01*
X003191430Y004289527D01*
X002930826Y004289527D01*
X002930826Y004519528D01*
X002850826Y004519528D01*
X002838417Y004519370D01*
X002826015Y004518899D01*
X002813629Y004518114D01*
X002801267Y004517015D01*
X002788938Y004515604D01*
X002776648Y004513880D01*
X002764405Y004511846D01*
X002752218Y004509503D01*
X002740094Y004506851D01*
X002728040Y004503894D01*
X002716066Y004500632D01*
X002704179Y004497068D01*
X002692385Y004493205D01*
X002680693Y004489043D01*
X002669110Y004484587D01*
X002657644Y004479839D01*
X002646301Y004474802D01*
X002635090Y004469480D01*
X002624017Y004463875D01*
X002613090Y004457992D01*
X002602315Y004451833D01*
X002591699Y004445404D01*
X002581250Y004438708D01*
X002570974Y004431750D01*
X002560878Y004424533D01*
X002550967Y004417064D01*
X002541248Y004409345D01*
X002531729Y004401383D01*
X002522413Y004393183D01*
X002513309Y004384749D01*
X002504421Y004376087D01*
X002495755Y004367203D01*
X002487318Y004358102D01*
X002479112Y004348791D01*
X002471146Y004339275D01*
X002463423Y004329560D01*
X002455949Y004319653D01*
X002448729Y004309559D01*
X002441766Y004299286D01*
X002435065Y004288840D01*
X002428631Y004278227D01*
X002422468Y004267455D01*
X002416580Y004256530D01*
X002410970Y004245460D01*
X002405643Y004234251D01*
X002400601Y004222911D01*
X002395847Y004211447D01*
X002391386Y004199866D01*
X002387220Y004188176D01*
X002383351Y004176384D01*
X002379781Y004164498D01*
X002376514Y004152525D01*
X002373552Y004140473D01*
X002370895Y004128350D01*
X002368546Y004116164D01*
X002366506Y004103922D01*
X002364777Y004091633D01*
X002363361Y004079303D01*
X002362256Y004066942D01*
X002361466Y004054557D01*
X002360988Y004042156D01*
X002360826Y004029746D01*
X002360978Y004017336D01*
X002361443Y004004935D01*
X002362223Y003992549D01*
X002363316Y003980186D01*
X002364722Y003967856D01*
X002366440Y003955565D01*
X002368468Y003943321D01*
X002370807Y003931133D01*
X002373452Y003919008D01*
X002376404Y003906954D01*
X002379661Y003894978D01*
X002383220Y003883089D01*
X002387078Y003871293D01*
X002391234Y003859599D01*
X002394046Y003852281D01*
X002395351Y003848248D01*
X002396214Y003844099D01*
X002396627Y003839881D01*
X002396584Y003835643D01*
X002396086Y003831435D01*
X002395138Y003827304D01*
X002393752Y003823299D01*
X002391943Y003819466D01*
X002389733Y003815850D01*
X002387147Y003812493D01*
X002384215Y003809432D01*
X002380970Y003806705D01*
X002377452Y003804343D01*
X002373700Y003802372D01*
X002369758Y003800816D01*
X002365671Y003799692D01*
X002361488Y003799015D01*
X002357256Y003798791D01*
X002353024Y003799023D01*
X002348842Y003799709D01*
X002227864Y003826305D01*
X002224922Y003827072D01*
X002222048Y003828063D01*
X002219259Y003829274D01*
X002216572Y003830696D01*
X002214003Y003832321D01*
X002211567Y003834140D01*
X002209278Y003836141D01*
X002207150Y003838313D01*
X002205197Y003840642D01*
X002203429Y003843115D01*
X002201857Y003845718D01*
X002200491Y003848434D01*
X002199338Y003851247D01*
X002198406Y003854141D01*
X002197699Y003857098D01*
X002197224Y003860100D01*
X002196981Y003863131D01*
X002196973Y003866171D01*
X002197199Y003869203D01*
X002197659Y003872208D01*
X002198382Y003875961D01*
X002200422Y003888203D01*
X002202151Y003900492D01*
X002203567Y003912822D01*
X002204672Y003925183D01*
X002205463Y003937568D01*
X002205940Y003949969D01*
X002206102Y003962379D01*
X002205951Y003974788D01*
X002205485Y003987190D01*
X002204705Y003999576D01*
X002203612Y004011939D01*
X002202206Y004024269D01*
X002200488Y004036560D01*
X002198460Y004048804D01*
X002196122Y004060992D01*
X002193476Y004073117D01*
X002190524Y004085171D01*
X002187267Y004097147D01*
X002183709Y004109036D01*
X002179850Y004120832D01*
X002175694Y004132526D01*
X002171243Y004144111D01*
X002166500Y004155579D01*
X002161469Y004166923D01*
X002156151Y004178137D01*
X002150551Y004189213D01*
X002144673Y004200142D01*
X002138519Y004210920D01*
X002132095Y004221538D01*
X002125403Y004231990D01*
X002118450Y004242270D01*
X002111238Y004252370D01*
X002103772Y004262284D01*
X002096059Y004272006D01*
X002088101Y004281529D01*
X002079904Y004290848D01*
X002071474Y004299956D01*
X002062817Y004308848D01*
X002053936Y004317518D01*
X002044840Y004325959D01*
X002035532Y004334168D01*
X002026019Y004342139D01*
X002016308Y004349866D01*
X002006404Y004357345D01*
X001996313Y004364570D01*
X001986044Y004371538D01*
X001975600Y004378243D01*
X001964990Y004384681D01*
X001954221Y004390849D01*
X001943299Y004396742D01*
X001932231Y004402357D01*
X001921025Y004407690D01*
X001909687Y004412736D01*
X001898225Y004417495D01*
X001886646Y004421961D01*
X001874958Y004426133D01*
X001863168Y004430008D01*
X001851283Y004433582D01*
X001839312Y004436855D01*
X001827261Y004439823D01*
X001815140Y004442485D01*
X001802955Y004444839D01*
X001790714Y004446884D01*
X001778425Y004448618D01*
X001766096Y004450041D01*
X001753735Y004451151D01*
X001741351Y004451947D01*
X001728949Y004452429D01*
X001716540Y004452598D01*
X001704130Y004452452D01*
X001351041Y004452507D01*
X001348035Y004452622D01*
X001345047Y004452967D01*
X001342094Y004453538D01*
X001339193Y004454334D01*
X001336362Y004455348D01*
X001333616Y004456576D01*
X001330971Y004458010D01*
X001328444Y004459642D01*
X001326049Y004461462D01*
X001323800Y004463459D01*
X001321710Y004465622D01*
X001319791Y004467938D01*
X001318055Y004470395D01*
X001316511Y004472976D01*
X001315169Y004475668D01*
X001314036Y004478455D01*
X001313119Y004481319D01*
X001312424Y004484246D01*
X001311954Y004487217D01*
X001311712Y004490215D01*
X001308541Y004565266D01*
X001308535Y004568441D01*
X001308785Y004571605D01*
X001309289Y004574740D01*
X001310044Y004577823D01*
X001311044Y004580835D01*
X001312285Y004583758D01*
X001313756Y004586570D01*
X001315449Y004589255D01*
X001317354Y004591795D01*
X001319456Y004594173D01*
X001321743Y004596374D01*
X001324201Y004598384D01*
X001326812Y004600189D01*
X001329560Y004601778D01*
X001332427Y004603140D01*
X001335395Y004604267D01*
X001338443Y004605152D01*
X001341553Y004605787D01*
X001344705Y004606170D01*
X001347876Y004606298D01*
X003188975Y004606298D01*
M02*