%MOIN*%
%OFA0B0*%
%FSLAX36Y36*%
%IPPOS*%
%LPD*%
%ADD10C,0.03937007874015748*%
%ADD11C,0.0078740157480314977*%
D10*
X000118110Y004488188D03*
X000118110Y000118110D03*
X004488188Y000118110D03*
D11*
X002170154Y004526643D02*
X002153951Y004526643D01*
X002153951Y004532446D01*
X002192932Y004532446D01*
X002192932Y004526643D01*
X002176662Y004526643D01*
X002176662Y004483267D01*
X002170154Y004483267D01*
X002170154Y004526643D01*
X002194509Y004518894D02*
X002200749Y004518894D01*
X002206418Y004498330D01*
X002208531Y004490681D01*
X002208697Y004491354D01*
X002209060Y004492803D01*
X002209620Y004495027D01*
X002210376Y004498028D01*
X002216046Y004518894D01*
X002222252Y004518894D01*
X002227586Y004498229D01*
X002229364Y004491419D01*
X002231410Y004498296D01*
X002237516Y004518894D01*
X002243386Y004518894D01*
X002232249Y004483267D01*
X002225976Y004483267D01*
X002220306Y004504603D01*
X002218931Y004510675D01*
X002211718Y004483267D01*
X002205412Y004483267D01*
X002194509Y004518894D01*
X002248485Y004532446D02*
X002254524Y004532446D01*
X002254524Y004525502D01*
X002248485Y004525502D01*
X002248485Y004532446D01*
X002248485Y004518894D02*
X002254524Y004518894D01*
X002254524Y004483267D01*
X002248485Y004483267D01*
X002248485Y004518894D01*
X002268479Y004479443D02*
X002269175Y004477095D01*
X002270525Y004475484D01*
X002273184Y004474226D01*
X002276664Y004473807D01*
X002280379Y004474226D01*
X002283139Y004475484D01*
X002285051Y004477497D01*
X002286225Y004480181D01*
X002286569Y004483041D01*
X002286661Y004487930D01*
X002282216Y004484433D01*
X002276798Y004483267D01*
X002273333Y004483598D01*
X002270282Y004484592D01*
X002267647Y004486249D01*
X002265426Y004488568D01*
X002262407Y004494396D01*
X002261401Y004501282D01*
X002261862Y004506184D01*
X002263246Y004510691D01*
X002265506Y004514512D01*
X002268596Y004517350D01*
X002272408Y004519112D01*
X002276832Y004519699D01*
X002282585Y004518424D01*
X002287231Y004514600D01*
X002287231Y004518894D01*
X002292800Y004518894D01*
X002292800Y004488098D01*
X002292377Y004480990D01*
X002291106Y004476306D01*
X002288917Y004473199D01*
X002285739Y004470821D01*
X002281642Y004469312D01*
X002276698Y004468809D01*
X002270936Y004469526D01*
X002266399Y004471677D01*
X002263489Y004475271D01*
X002262608Y004480315D01*
X002268479Y004479443D01*
X002268303Y004495654D02*
X002270391Y004491486D01*
X002273528Y004489071D01*
X002277369Y004488266D01*
X002281193Y004489067D01*
X002284346Y004491469D01*
X002286460Y004495583D01*
X002287164Y004501516D01*
X002286439Y004507253D01*
X002284262Y004511379D01*
X002281063Y004513870D01*
X002277268Y004514700D01*
X002273544Y004513883D01*
X002270425Y004511429D01*
X002268311Y004507366D01*
X002267607Y004501718D01*
X002268303Y004495654D01*
X002318664Y004504100D02*
X002337215Y004504100D01*
X002337215Y004498028D01*
X002318664Y004498028D01*
X002318664Y004504100D01*
X002377035Y004483334D02*
X002372473Y004482798D01*
X002369554Y004483058D01*
X002367374Y004483838D01*
X002364824Y004486572D01*
X002364271Y004489201D01*
X002364086Y004493700D01*
X002364086Y004514197D01*
X002359658Y004514197D01*
X002359658Y004518894D01*
X002364086Y004518894D01*
X002364086Y004527716D01*
X002370091Y004531339D01*
X002370091Y004518894D01*
X002376163Y004518894D01*
X002376163Y004514197D01*
X002370091Y004514197D01*
X002370091Y004493365D01*
X002370171Y004491243D01*
X002370410Y004490044D01*
X002371450Y004488869D01*
X002373513Y004488433D01*
X002376163Y004488668D01*
X002377035Y004483334D01*
X002380163Y004505708D02*
X002381195Y004509693D01*
X002382914Y004513038D01*
X002385321Y004515740D01*
X002390420Y004518709D01*
X002396526Y004519699D01*
X002403201Y004518495D01*
X002408535Y004514885D01*
X002412032Y004509152D01*
X002413198Y004501584D01*
X002412682Y004495440D01*
X002411135Y004490765D01*
X002408602Y004487263D01*
X002405130Y004484643D01*
X002401008Y004483007D01*
X002396526Y004482462D01*
X002389762Y004483661D01*
X002384432Y004487259D01*
X002380973Y004493113D01*
X002379819Y004501080D01*
X002380163Y004505708D01*
X002386772Y004495097D02*
X002389011Y004490832D01*
X002392383Y004488278D01*
X002396526Y004487427D01*
X002400643Y004488282D01*
X002404006Y004490849D01*
X002406246Y004495168D01*
X002406992Y004501282D01*
X002406241Y004507089D01*
X002403990Y004511295D01*
X002400622Y004513849D01*
X002396526Y004514700D01*
X002392383Y004513853D01*
X002389011Y004511312D01*
X002386772Y004507060D01*
X002386026Y004501080D01*
X002386772Y004495097D01*
X002420276Y004518894D02*
X002425778Y004518894D01*
X002425778Y004514264D01*
X002427850Y004516642D01*
X002430173Y004518340D01*
X002432881Y004519359D01*
X002436110Y004519699D01*
X002440404Y004519112D01*
X002444161Y004517350D01*
X002447223Y004514520D01*
X002449428Y004510725D01*
X002450762Y004506242D01*
X002451206Y004501349D01*
X002450716Y004496153D01*
X002449244Y004491503D01*
X002446837Y004487637D01*
X002443541Y004484794D01*
X002439704Y004483045D01*
X002435674Y004482462D01*
X002430256Y004483737D01*
X002426315Y004486957D01*
X002426315Y004469614D01*
X002420276Y004469614D01*
X002420276Y004518894D01*
X002426441Y004494899D02*
X002428529Y004490715D01*
X002431607Y004488249D01*
X002435272Y004487427D01*
X002439008Y004488278D01*
X002442165Y004490832D01*
X002444317Y004495172D01*
X002445034Y004501382D01*
X002444333Y004507337D01*
X002442233Y004511580D01*
X002439159Y004514122D01*
X002435540Y004514969D01*
X002431904Y004514067D01*
X002428713Y004511362D01*
X002426487Y004506938D01*
X002425744Y004500879D01*
X002426441Y004494899D01*
M02*