%MOIN*%
%OFA0B0*%
%FSLAX36Y36*%
%IPPOS*%
%LPD*%
%ADD10C,0*%
D10*
X000000000Y000039370D02*
X000000987Y000030609D01*
X000003898Y000022288D01*
X000008589Y000014823D01*
X000014823Y000008589D01*
X000022288Y000003898D01*
X000030609Y000000987D01*
X000039370Y000000000D01*
X004566929Y000000000D01*
X004575689Y000000987D01*
X004584011Y000003898D01*
X004591475Y000008589D01*
X004597709Y000014823D01*
X004602400Y000022288D01*
X004605312Y000030609D01*
X004606299Y000039370D01*
X004606299Y004566929D01*
X004605312Y004575689D01*
X004602400Y004584011D01*
X004597709Y004591475D01*
X004591475Y004597709D01*
X004584011Y004602400D01*
X004575689Y004605312D01*
X004566929Y004606299D01*
X000039370Y004606299D01*
X000030609Y004605312D01*
X000022288Y004602400D01*
X000014823Y004597709D01*
X000008589Y004591475D01*
X000003898Y004584011D01*
X000000987Y004575689D01*
X000000000Y004566929D01*
X000000000Y000039370D01*
X000196850Y000236220D02*
X000197837Y000227459D01*
X000200749Y000219138D01*
X000205439Y000211673D01*
X000211673Y000205439D01*
X000219138Y000200749D01*
X000227459Y000197837D01*
X000236220Y000196850D01*
X004370078Y000196850D01*
X004378839Y000197837D01*
X004387160Y000200749D01*
X004394625Y000205439D01*
X004400859Y000211673D01*
X004405549Y000219138D01*
X004408461Y000227459D01*
X004409448Y000236220D01*
X004409448Y004370078D01*
X004408461Y004378839D01*
X004405549Y004387160D01*
X004400859Y004394625D01*
X004394625Y004400859D01*
X004387160Y004405549D01*
X004378839Y004408461D01*
X004370078Y004409448D01*
X000236220Y004409448D01*
X000227459Y004408461D01*
X000219138Y004405549D01*
X000211673Y004400859D01*
X000205439Y004394625D01*
X000200749Y004387160D01*
X000197837Y004378839D01*
X000196850Y004370078D01*
X000196850Y000236220D01*
M02*