%MOIN*%
%OFA0B0*%
%FSLAX36Y36*%
%IPPOS*%
%LPD*%
%ADD10C,0.0078740157480314977*%
D10*
X002170154Y004723493D02*
X002153951Y004723493D01*
X002153951Y004729297D01*
X002192932Y004729297D01*
X002192932Y004723493D01*
X002176662Y004723493D01*
X002176662Y004680118D01*
X002170154Y004680118D01*
X002170154Y004723493D01*
X002194509Y004715744D02*
X002200749Y004715744D01*
X002206418Y004695180D01*
X002208531Y004687531D01*
X002208697Y004688204D01*
X002209060Y004689653D01*
X002209620Y004691878D01*
X002210376Y004694878D01*
X002216046Y004715744D01*
X002222252Y004715744D01*
X002227586Y004695079D01*
X002229364Y004688269D01*
X002231410Y004695146D01*
X002237516Y004715744D01*
X002243386Y004715744D01*
X002232249Y004680118D01*
X002225976Y004680118D01*
X002220306Y004701453D01*
X002218931Y004707525D01*
X002211718Y004680118D01*
X002205412Y004680118D01*
X002194509Y004715744D01*
X002248485Y004729297D02*
X002254524Y004729297D01*
X002254524Y004722353D01*
X002248485Y004722353D01*
X002248485Y004729297D01*
X002248485Y004715744D02*
X002254524Y004715744D01*
X002254524Y004680118D01*
X002248485Y004680118D01*
X002248485Y004715744D01*
X002268479Y004676293D02*
X002269175Y004673945D01*
X002270525Y004672335D01*
X002273184Y004671077D01*
X002276664Y004670658D01*
X002280379Y004671077D01*
X002283139Y004672335D01*
X002285051Y004674348D01*
X002286225Y004677031D01*
X002286569Y004679891D01*
X002286661Y004684781D01*
X002282216Y004681283D01*
X002276798Y004680118D01*
X002273333Y004680449D01*
X002270282Y004681443D01*
X002267647Y004683099D01*
X002265426Y004685418D01*
X002262407Y004691247D01*
X002261401Y004698132D01*
X002261862Y004703034D01*
X002263246Y004707542D01*
X002265506Y004711362D01*
X002268596Y004714201D01*
X002272408Y004715962D01*
X002276832Y004716549D01*
X002282585Y004715274D01*
X002287231Y004711450D01*
X002287231Y004715744D01*
X002292800Y004715744D01*
X002292800Y004684948D01*
X002292377Y004677841D01*
X002291106Y004673157D01*
X002288917Y004670049D01*
X002285739Y004667672D01*
X002281642Y004666162D01*
X002276698Y004665659D01*
X002270936Y004666376D01*
X002266399Y004668527D01*
X002263489Y004672121D01*
X002262608Y004677166D01*
X002268479Y004676293D01*
X002268303Y004692505D02*
X002270391Y004688336D01*
X002273528Y004685921D01*
X002277369Y004685116D01*
X002281193Y004685917D01*
X002284346Y004688320D01*
X002286460Y004692433D01*
X002287164Y004698367D01*
X002286439Y004704103D01*
X002284262Y004708230D01*
X002281063Y004710720D01*
X002277268Y004711551D01*
X002273544Y004710733D01*
X002270425Y004708280D01*
X002268311Y004704217D01*
X002267607Y004698568D01*
X002268303Y004692505D01*
X002318664Y004700950D02*
X002337215Y004700950D01*
X002337215Y004694878D01*
X002318664Y004694878D01*
X002318664Y004700950D01*
X002377035Y004680185D02*
X002372473Y004679648D01*
X002369554Y004679908D01*
X002367374Y004680688D01*
X002364824Y004683422D01*
X002364271Y004686051D01*
X002364086Y004690551D01*
X002364086Y004711047D01*
X002359658Y004711047D01*
X002359658Y004715744D01*
X002364086Y004715744D01*
X002364086Y004724567D01*
X002370091Y004728190D01*
X002370091Y004715744D01*
X002376163Y004715744D01*
X002376163Y004711047D01*
X002370091Y004711047D01*
X002370091Y004690215D01*
X002370171Y004688093D01*
X002370410Y004686894D01*
X002371450Y004685720D01*
X002373513Y004685284D01*
X002376163Y004685519D01*
X002377035Y004680185D01*
X002380163Y004702558D02*
X002381195Y004706544D01*
X002382914Y004709888D01*
X002385321Y004712591D01*
X002390420Y004715559D01*
X002396526Y004716549D01*
X002403201Y004715346D01*
X002408535Y004711735D01*
X002412032Y004706003D01*
X002413198Y004698434D01*
X002412682Y004692291D01*
X002411135Y004687615D01*
X002408602Y004684114D01*
X002405130Y004681493D01*
X002401008Y004679858D01*
X002396526Y004679312D01*
X002389762Y004680512D01*
X002384432Y004684110D01*
X002380973Y004689963D01*
X002379819Y004697931D01*
X002380163Y004702558D01*
X002386772Y004691947D02*
X002389011Y004687682D01*
X002392383Y004685129D01*
X002396526Y004684277D01*
X002400643Y004685133D01*
X002404006Y004687699D01*
X002406246Y004692018D01*
X002406992Y004698132D01*
X002406241Y004703940D01*
X002403990Y004708146D01*
X002400622Y004710699D01*
X002396526Y004711551D01*
X002392383Y004710704D01*
X002389011Y004708162D01*
X002386772Y004703910D01*
X002386026Y004697931D01*
X002386772Y004691947D01*
X002420276Y004715744D02*
X002425778Y004715744D01*
X002425778Y004711115D01*
X002427850Y004713492D01*
X002430173Y004715190D01*
X002432881Y004716209D01*
X002436110Y004716549D01*
X002440404Y004715962D01*
X002444161Y004714201D01*
X002447223Y004711370D01*
X002449428Y004707575D01*
X002450762Y004703093D01*
X002451206Y004698199D01*
X002450716Y004693004D01*
X002449244Y004688353D01*
X002446837Y004684487D01*
X002443541Y004681644D01*
X002439704Y004679895D01*
X002435674Y004679312D01*
X002430256Y004680587D01*
X002426315Y004683808D01*
X002426315Y004666464D01*
X002420276Y004666464D01*
X002420276Y004715744D01*
X002426441Y004691750D02*
X002428529Y004687565D01*
X002431607Y004685099D01*
X002435272Y004684277D01*
X002439008Y004685129D01*
X002442165Y004687682D01*
X002444317Y004692022D01*
X002445034Y004698233D01*
X002444333Y004704187D01*
X002442233Y004708431D01*
X002439159Y004710972D01*
X002435540Y004711819D01*
X002431904Y004710917D01*
X002428713Y004708213D01*
X002426487Y004703789D01*
X002425744Y004697729D01*
X002426441Y004691750D01*
M02*