%MOIN*%
%OFA0B0*%
%FSLAX36Y36*%
%IPPOS*%
%LPD*%
%ADD10C,0.03937007874015748*%
%ADD11C,0.0078740157480314977*%
D10*
X000118110Y004685039D03*
X000118110Y000118110D03*
X004488188Y000118110D03*
D11*
X002493408Y004723493D02*
X002509611Y004723493D01*
X002509611Y004729297D01*
X002470630Y004729297D01*
X002470630Y004723493D01*
X002486900Y004723493D01*
X002486900Y004680118D01*
X002493408Y004680118D01*
X002493408Y004723493D01*
X002469053Y004715744D02*
X002462813Y004715744D01*
X002457144Y004695180D01*
X002455031Y004687531D01*
X002454865Y004688204D01*
X002454502Y004689653D01*
X002453942Y004691878D01*
X002453185Y004694878D01*
X002447516Y004715744D01*
X002441310Y004715744D01*
X002435976Y004695079D01*
X002434198Y004688269D01*
X002432152Y004695146D01*
X002426046Y004715744D01*
X002420176Y004715744D01*
X002431313Y004680118D01*
X002437586Y004680118D01*
X002443256Y004701453D01*
X002444631Y004707525D01*
X002451844Y004680118D01*
X002458150Y004680118D01*
X002469053Y004715744D01*
X002415077Y004729297D02*
X002409038Y004729297D01*
X002409038Y004722353D01*
X002415077Y004722353D01*
X002415077Y004729297D01*
X002415077Y004715744D02*
X002409038Y004715744D01*
X002409038Y004680118D01*
X002415077Y004680118D01*
X002415077Y004715744D01*
X002395083Y004676293D02*
X002394387Y004673945D01*
X002393037Y004672335D01*
X002390378Y004671077D01*
X002386898Y004670658D01*
X002383182Y004671077D01*
X002380423Y004672335D01*
X002378511Y004674348D01*
X002377337Y004677031D01*
X002376993Y004679891D01*
X002376901Y004684781D01*
X002381346Y004681283D01*
X002386764Y004680118D01*
X002390229Y004680449D01*
X002393280Y004681443D01*
X002395915Y004683099D01*
X002398136Y004685418D01*
X002401155Y004691247D01*
X002402161Y004698132D01*
X002401700Y004703034D01*
X002400316Y004707542D01*
X002398056Y004711362D01*
X002394966Y004714201D01*
X002391154Y004715962D01*
X002386730Y004716549D01*
X002380977Y004715274D01*
X002376331Y004711450D01*
X002376331Y004715744D01*
X002370762Y004715744D01*
X002370762Y004684948D01*
X002371185Y004677841D01*
X002372456Y004673157D01*
X002374645Y004670049D01*
X002377823Y004667672D01*
X002381920Y004666162D01*
X002386864Y004665659D01*
X002392626Y004666376D01*
X002397163Y004668527D01*
X002400073Y004672121D01*
X002400954Y004677166D01*
X002395083Y004676293D01*
X002395259Y004692505D02*
X002393171Y004688336D01*
X002390034Y004685921D01*
X002386193Y004685116D01*
X002382369Y004685917D01*
X002379216Y004688320D01*
X002377102Y004692433D01*
X002376398Y004698367D01*
X002377123Y004704103D01*
X002379299Y004708230D01*
X002382499Y004710720D01*
X002386294Y004711551D01*
X002390018Y004710733D01*
X002393137Y004708280D01*
X002395251Y004704217D01*
X002395955Y004698568D01*
X002395259Y004692505D01*
X002344898Y004700950D02*
X002326346Y004700950D01*
X002326346Y004694878D01*
X002344898Y004694878D01*
X002344898Y004700950D01*
X002300616Y004680118D02*
X002300616Y004729297D01*
X002294578Y004729297D01*
X002294578Y004711752D01*
X002290225Y004715350D01*
X002284816Y004716549D01*
X002281616Y004716218D01*
X002278593Y004715224D01*
X002273762Y004711500D01*
X002270794Y004705714D01*
X002269720Y004698468D01*
X002270852Y004690349D01*
X002274249Y004684311D01*
X002279231Y004680562D01*
X002285118Y004679312D01*
X002288101Y004679642D01*
X002290745Y004680629D01*
X002293050Y004682275D01*
X002295014Y004684579D01*
X002295014Y004680118D01*
X002300616Y004680118D01*
X002294645Y004692681D02*
X002293337Y004688940D01*
X002289982Y004685443D01*
X002285621Y004684277D01*
X002281931Y004685137D01*
X002278778Y004687716D01*
X002276614Y004691997D01*
X002275893Y004697964D01*
X002276585Y004704028D01*
X002278660Y004708263D01*
X002281717Y004710754D01*
X002285353Y004711584D01*
X002289043Y004710725D01*
X002292196Y004708146D01*
X002294360Y004703940D01*
X002295081Y004698199D01*
X002294645Y004692681D01*
X002264277Y004702558D02*
X002263246Y004706544D01*
X002261526Y004709888D01*
X002259119Y004712591D01*
X002254020Y004715559D01*
X002247915Y004716549D01*
X002241239Y004715346D01*
X002235905Y004711735D01*
X002232408Y004706003D01*
X002231242Y004698434D01*
X002231758Y004692291D01*
X002233305Y004687615D01*
X002235838Y004684114D01*
X002239310Y004681493D01*
X002243432Y004679858D01*
X002247915Y004679312D01*
X002254679Y004680512D01*
X002260008Y004684110D01*
X002263468Y004689963D01*
X002264621Y004697931D01*
X002264277Y004702558D01*
X002257669Y004691947D02*
X002255429Y004687682D01*
X002252058Y004685129D01*
X002247915Y004684277D01*
X002243797Y004685133D01*
X002240434Y004687699D01*
X002238195Y004692018D01*
X002237448Y004698132D01*
X002238199Y004703940D01*
X002240451Y004708146D01*
X002243818Y004710699D01*
X002247915Y004711551D01*
X002252058Y004710704D01*
X002255429Y004708162D01*
X002257669Y004703910D01*
X002258415Y004697931D01*
X002257669Y004691947D01*
X002210108Y004680185D02*
X002214670Y004679648D01*
X002217589Y004679908D01*
X002219769Y004680688D01*
X002222319Y004683422D01*
X002222873Y004686051D01*
X002223057Y004690551D01*
X002223057Y004711047D01*
X002227485Y004711047D01*
X002227485Y004715744D01*
X002223057Y004715744D01*
X002223057Y004724567D01*
X002217052Y004728190D01*
X002217052Y004715744D01*
X002210980Y004715744D01*
X002210980Y004711047D01*
X002217052Y004711047D01*
X002217052Y004690215D01*
X002216973Y004688093D01*
X002216734Y004686894D01*
X002215694Y004685720D01*
X002213630Y004685284D01*
X002210980Y004685519D01*
X002210108Y004680185D01*
X002191020Y004680185D02*
X002195583Y004679648D01*
X002198501Y004679908D01*
X002200682Y004680688D01*
X002203231Y004683422D01*
X002203785Y004686051D01*
X002203969Y004690551D01*
X002203969Y004711047D01*
X002208397Y004711047D01*
X002208397Y004715744D01*
X002203969Y004715744D01*
X002203969Y004724567D01*
X002197964Y004728190D01*
X002197964Y004715744D01*
X002191892Y004715744D01*
X002191892Y004711047D01*
X002197964Y004711047D01*
X002197964Y004690215D01*
X002197885Y004688093D01*
X002197646Y004686894D01*
X002196606Y004685720D01*
X002194543Y004685284D01*
X002191892Y004685519D01*
X002191020Y004680185D01*
X002187892Y004702558D02*
X002186860Y004706544D01*
X002185141Y004709888D01*
X002182734Y004712591D01*
X002177635Y004715559D01*
X002171530Y004716549D01*
X002164854Y004715346D01*
X002159520Y004711735D01*
X002156023Y004706003D01*
X002154857Y004698434D01*
X002155373Y004692291D01*
X002156920Y004687615D01*
X002159453Y004684114D01*
X002162925Y004681493D01*
X002167047Y004679858D01*
X002171530Y004679312D01*
X002178294Y004680512D01*
X002183623Y004684110D01*
X002187083Y004689963D01*
X002188236Y004697931D01*
X002187892Y004702558D01*
X002181283Y004691947D02*
X002179044Y004687682D01*
X002175673Y004685129D01*
X002171530Y004684277D01*
X002167412Y004685133D01*
X002164049Y004687699D01*
X002161810Y004692018D01*
X002161063Y004698132D01*
X002161814Y004703940D01*
X002164066Y004708146D01*
X002167433Y004710699D01*
X002171530Y004711551D01*
X002175673Y004710704D01*
X002179044Y004708162D01*
X002181283Y004703910D01*
X002182030Y004697931D01*
X002181283Y004691947D01*
X002147779Y004715744D02*
X002142378Y004715744D01*
X002142378Y004710745D01*
X002137916Y004714956D01*
X002134939Y004716151D01*
X002131576Y004716549D01*
X002127974Y004716138D01*
X002125085Y004714905D01*
X002122925Y004712934D01*
X002121512Y004710309D01*
X002119239Y004713039D01*
X002116648Y004714989D01*
X002113738Y004716159D01*
X002110509Y004716549D01*
X002105821Y004715815D01*
X002102357Y004713614D01*
X002100218Y004709886D01*
X002099506Y004704573D01*
X002099506Y004680118D01*
X002105510Y004680118D01*
X002105510Y004702560D01*
X002105657Y004705676D01*
X002106097Y004707777D01*
X002108228Y004710343D01*
X002111851Y004711316D01*
X002115289Y004710691D01*
X002118090Y004708817D01*
X002119952Y004705567D01*
X002120573Y004700816D01*
X002120573Y004680118D01*
X002126611Y004680118D01*
X002126611Y004703265D01*
X002126980Y004706787D01*
X002128087Y004709303D01*
X002130033Y004710813D01*
X002132918Y004711316D01*
X002135371Y004710980D01*
X002137631Y004709974D01*
X002140768Y004706049D01*
X002141497Y004702896D01*
X002141741Y004698602D01*
X002141741Y004680118D01*
X002147779Y004680118D01*
X002147779Y004715744D01*
M02*