%TF.GenerationSoftware,KiCad,Pcbnew,(5.1.10)-1*%
%TF.CreationDate,2021-07-16T00:37:00-05:00*%
%TF.ProjectId,temp sensor,74656d70-2073-4656-9e73-6f722e6b6963,0.2*%
%TF.SameCoordinates,Original*%
%TF.FileFunction,Paste,Top*%
%TF.FilePolarity,Positive*%
%FSLAX46Y46*%
G04 Gerber Fmt 4.6, Leading zero omitted, Abs format (unit mm)*
G04 Created by KiCad (PCBNEW (5.1.10)-1) date 2021-07-16 00:37:00*
%MOMM*%
%LPD*%
G01*
G04 APERTURE LIST*
%ADD10R,0.600000X1.750000*%
%ADD11R,1.060000X0.650000*%
%ADD12R,0.400000X0.650000*%
%ADD13R,1.000000X1.000000*%
%ADD14R,0.630000X0.660000*%
%ADD15R,0.800000X0.400000*%
%ADD16R,1.200000X3.700000*%
%ADD17R,0.350000X0.500000*%
%ADD18R,1.450000X1.450000*%
%ADD19R,0.700000X0.700000*%
%ADD20R,0.400000X0.800000*%
%ADD21R,1.450000X0.300000*%
%ADD22R,1.450000X0.600000*%
G04 APERTURE END LIST*
%TO.C,R10*%
G36*
G01*
X153023120Y-91864860D02*
X153023120Y-91314860D01*
G75*
G02*
X153223120Y-91114860I200000J0D01*
G01*
X153623120Y-91114860D01*
G75*
G02*
X153823120Y-91314860I0J-200000D01*
G01*
X153823120Y-91864860D01*
G75*
G02*
X153623120Y-92064860I-200000J0D01*
G01*
X153223120Y-92064860D01*
G75*
G02*
X153023120Y-91864860I0J200000D01*
G01*
G37*
G36*
G01*
X151373120Y-91864860D02*
X151373120Y-91314860D01*
G75*
G02*
X151573120Y-91114860I200000J0D01*
G01*
X151973120Y-91114860D01*
G75*
G02*
X152173120Y-91314860I0J-200000D01*
G01*
X152173120Y-91864860D01*
G75*
G02*
X151973120Y-92064860I-200000J0D01*
G01*
X151573120Y-92064860D01*
G75*
G02*
X151373120Y-91864860I0J200000D01*
G01*
G37*
%TD*%
%TO.C,SW1*%
G36*
G01*
X122487952Y-99518123D02*
X122848785Y-99103033D01*
G75*
G02*
X123236746Y-99075904I207545J-180416D01*
G01*
X123878249Y-99633554D01*
G75*
G02*
X123905378Y-100021515I-180416J-207545D01*
G01*
X123544545Y-100436605D01*
G75*
G02*
X123156584Y-100463734I-207545J180416D01*
G01*
X122515081Y-99906084D01*
G75*
G02*
X122487952Y-99518123I180416J207545D01*
G01*
G37*
G36*
G01*
X123644679Y-100854905D02*
X124136723Y-100288873D01*
G75*
G02*
X124383607Y-100271609I132074J-114810D01*
G01*
X124647755Y-100501229D01*
G75*
G02*
X124665019Y-100748113I-114810J-132074D01*
G01*
X124172975Y-101314145D01*
G75*
G02*
X123926091Y-101331409I-132074J114810D01*
G01*
X123661943Y-101101789D01*
G75*
G02*
X123644679Y-100854905I114810J132074D01*
G01*
G37*
G36*
G01*
X121531493Y-99017939D02*
X122023537Y-98451907D01*
G75*
G02*
X122270421Y-98434643I132074J-114810D01*
G01*
X122534569Y-98664263D01*
G75*
G02*
X122551833Y-98911147I-114810J-132074D01*
G01*
X122059789Y-99477179D01*
G75*
G02*
X121812905Y-99494443I-132074J114810D01*
G01*
X121548757Y-99264823D01*
G75*
G02*
X121531493Y-99017939I114810J132074D01*
G01*
G37*
%TD*%
D10*
%TO.C,J3*%
X144675000Y-101550000D03*
X142675000Y-101550000D03*
X140675000Y-101550000D03*
X138675000Y-101550000D03*
X143675000Y-103300000D03*
X141675000Y-103300000D03*
X139675000Y-103300000D03*
%TD*%
%TO.C,R6*%
G36*
G01*
X147675000Y-100300000D02*
X147675000Y-99750000D01*
G75*
G02*
X147875000Y-99550000I200000J0D01*
G01*
X148275000Y-99550000D01*
G75*
G02*
X148475000Y-99750000I0J-200000D01*
G01*
X148475000Y-100300000D01*
G75*
G02*
X148275000Y-100500000I-200000J0D01*
G01*
X147875000Y-100500000D01*
G75*
G02*
X147675000Y-100300000I0J200000D01*
G01*
G37*
G36*
G01*
X146025000Y-100300000D02*
X146025000Y-99750000D01*
G75*
G02*
X146225000Y-99550000I200000J0D01*
G01*
X146625000Y-99550000D01*
G75*
G02*
X146825000Y-99750000I0J-200000D01*
G01*
X146825000Y-100300000D01*
G75*
G02*
X146625000Y-100500000I-200000J0D01*
G01*
X146225000Y-100500000D01*
G75*
G02*
X146025000Y-100300000I0J200000D01*
G01*
G37*
%TD*%
%TO.C,C5*%
G36*
G01*
X124875000Y-87725000D02*
X125375000Y-87725000D01*
G75*
G02*
X125600000Y-87950000I0J-225000D01*
G01*
X125600000Y-88400000D01*
G75*
G02*
X125375000Y-88625000I-225000J0D01*
G01*
X124875000Y-88625000D01*
G75*
G02*
X124650000Y-88400000I0J225000D01*
G01*
X124650000Y-87950000D01*
G75*
G02*
X124875000Y-87725000I225000J0D01*
G01*
G37*
G36*
G01*
X124875000Y-86175000D02*
X125375000Y-86175000D01*
G75*
G02*
X125600000Y-86400000I0J-225000D01*
G01*
X125600000Y-86850000D01*
G75*
G02*
X125375000Y-87075000I-225000J0D01*
G01*
X124875000Y-87075000D01*
G75*
G02*
X124650000Y-86850000I0J225000D01*
G01*
X124650000Y-86400000D01*
G75*
G02*
X124875000Y-86175000I225000J0D01*
G01*
G37*
%TD*%
%TO.C,R15*%
G36*
G01*
X119950000Y-91325000D02*
X120500000Y-91325000D01*
G75*
G02*
X120700000Y-91525000I0J-200000D01*
G01*
X120700000Y-91925000D01*
G75*
G02*
X120500000Y-92125000I-200000J0D01*
G01*
X119950000Y-92125000D01*
G75*
G02*
X119750000Y-91925000I0J200000D01*
G01*
X119750000Y-91525000D01*
G75*
G02*
X119950000Y-91325000I200000J0D01*
G01*
G37*
G36*
G01*
X119950000Y-89675000D02*
X120500000Y-89675000D01*
G75*
G02*
X120700000Y-89875000I0J-200000D01*
G01*
X120700000Y-90275000D01*
G75*
G02*
X120500000Y-90475000I-200000J0D01*
G01*
X119950000Y-90475000D01*
G75*
G02*
X119750000Y-90275000I0J200000D01*
G01*
X119750000Y-89875000D01*
G75*
G02*
X119950000Y-89675000I200000J0D01*
G01*
G37*
%TD*%
%TO.C,R16*%
G36*
G01*
X127237000Y-87018000D02*
X126687000Y-87018000D01*
G75*
G02*
X126487000Y-86818000I0J200000D01*
G01*
X126487000Y-86418000D01*
G75*
G02*
X126687000Y-86218000I200000J0D01*
G01*
X127237000Y-86218000D01*
G75*
G02*
X127437000Y-86418000I0J-200000D01*
G01*
X127437000Y-86818000D01*
G75*
G02*
X127237000Y-87018000I-200000J0D01*
G01*
G37*
G36*
G01*
X127237000Y-88668000D02*
X126687000Y-88668000D01*
G75*
G02*
X126487000Y-88468000I0J200000D01*
G01*
X126487000Y-88068000D01*
G75*
G02*
X126687000Y-87868000I200000J0D01*
G01*
X127237000Y-87868000D01*
G75*
G02*
X127437000Y-88068000I0J-200000D01*
G01*
X127437000Y-88468000D01*
G75*
G02*
X127237000Y-88668000I-200000J0D01*
G01*
G37*
%TD*%
%TO.C,C4*%
G36*
G01*
X132200000Y-95750000D02*
X131700000Y-95750000D01*
G75*
G02*
X131475000Y-95525000I0J225000D01*
G01*
X131475000Y-95075000D01*
G75*
G02*
X131700000Y-94850000I225000J0D01*
G01*
X132200000Y-94850000D01*
G75*
G02*
X132425000Y-95075000I0J-225000D01*
G01*
X132425000Y-95525000D01*
G75*
G02*
X132200000Y-95750000I-225000J0D01*
G01*
G37*
G36*
G01*
X132200000Y-97300000D02*
X131700000Y-97300000D01*
G75*
G02*
X131475000Y-97075000I0J225000D01*
G01*
X131475000Y-96625000D01*
G75*
G02*
X131700000Y-96400000I225000J0D01*
G01*
X132200000Y-96400000D01*
G75*
G02*
X132425000Y-96625000I0J-225000D01*
G01*
X132425000Y-97075000D01*
G75*
G02*
X132200000Y-97300000I-225000J0D01*
G01*
G37*
%TD*%
%TO.C,R13*%
G36*
G01*
X149061620Y-95289960D02*
X149061620Y-95839960D01*
G75*
G02*
X148861620Y-96039960I-200000J0D01*
G01*
X148461620Y-96039960D01*
G75*
G02*
X148261620Y-95839960I0J200000D01*
G01*
X148261620Y-95289960D01*
G75*
G02*
X148461620Y-95089960I200000J0D01*
G01*
X148861620Y-95089960D01*
G75*
G02*
X149061620Y-95289960I0J-200000D01*
G01*
G37*
G36*
G01*
X150711620Y-95289960D02*
X150711620Y-95839960D01*
G75*
G02*
X150511620Y-96039960I-200000J0D01*
G01*
X150111620Y-96039960D01*
G75*
G02*
X149911620Y-95839960I0J200000D01*
G01*
X149911620Y-95289960D01*
G75*
G02*
X150111620Y-95089960I200000J0D01*
G01*
X150511620Y-95089960D01*
G75*
G02*
X150711620Y-95289960I0J-200000D01*
G01*
G37*
%TD*%
%TO.C,R3*%
G36*
G01*
X120500000Y-93475000D02*
X119950000Y-93475000D01*
G75*
G02*
X119750000Y-93275000I0J200000D01*
G01*
X119750000Y-92875000D01*
G75*
G02*
X119950000Y-92675000I200000J0D01*
G01*
X120500000Y-92675000D01*
G75*
G02*
X120700000Y-92875000I0J-200000D01*
G01*
X120700000Y-93275000D01*
G75*
G02*
X120500000Y-93475000I-200000J0D01*
G01*
G37*
G36*
G01*
X120500000Y-95125000D02*
X119950000Y-95125000D01*
G75*
G02*
X119750000Y-94925000I0J200000D01*
G01*
X119750000Y-94525000D01*
G75*
G02*
X119950000Y-94325000I200000J0D01*
G01*
X120500000Y-94325000D01*
G75*
G02*
X120700000Y-94525000I0J-200000D01*
G01*
X120700000Y-94925000D01*
G75*
G02*
X120500000Y-95125000I-200000J0D01*
G01*
G37*
%TD*%
%TO.C,R2*%
G36*
G01*
X149007760Y-90407220D02*
X148457760Y-90407220D01*
G75*
G02*
X148257760Y-90207220I0J200000D01*
G01*
X148257760Y-89807220D01*
G75*
G02*
X148457760Y-89607220I200000J0D01*
G01*
X149007760Y-89607220D01*
G75*
G02*
X149207760Y-89807220I0J-200000D01*
G01*
X149207760Y-90207220D01*
G75*
G02*
X149007760Y-90407220I-200000J0D01*
G01*
G37*
G36*
G01*
X149007760Y-92057220D02*
X148457760Y-92057220D01*
G75*
G02*
X148257760Y-91857220I0J200000D01*
G01*
X148257760Y-91457220D01*
G75*
G02*
X148457760Y-91257220I200000J0D01*
G01*
X149007760Y-91257220D01*
G75*
G02*
X149207760Y-91457220I0J-200000D01*
G01*
X149207760Y-91857220D01*
G75*
G02*
X149007760Y-92057220I-200000J0D01*
G01*
G37*
%TD*%
%TO.C,R11*%
G36*
G01*
X152066440Y-96397400D02*
X152066440Y-96947400D01*
G75*
G02*
X151866440Y-97147400I-200000J0D01*
G01*
X151466440Y-97147400D01*
G75*
G02*
X151266440Y-96947400I0J200000D01*
G01*
X151266440Y-96397400D01*
G75*
G02*
X151466440Y-96197400I200000J0D01*
G01*
X151866440Y-96197400D01*
G75*
G02*
X152066440Y-96397400I0J-200000D01*
G01*
G37*
G36*
G01*
X153716440Y-96397400D02*
X153716440Y-96947400D01*
G75*
G02*
X153516440Y-97147400I-200000J0D01*
G01*
X153116440Y-97147400D01*
G75*
G02*
X152916440Y-96947400I0J200000D01*
G01*
X152916440Y-96397400D01*
G75*
G02*
X153116440Y-96197400I200000J0D01*
G01*
X153516440Y-96197400D01*
G75*
G02*
X153716440Y-96397400I0J-200000D01*
G01*
G37*
%TD*%
%TO.C,R4*%
G36*
G01*
X136650000Y-100625000D02*
X137200000Y-100625000D01*
G75*
G02*
X137400000Y-100825000I0J-200000D01*
G01*
X137400000Y-101225000D01*
G75*
G02*
X137200000Y-101425000I-200000J0D01*
G01*
X136650000Y-101425000D01*
G75*
G02*
X136450000Y-101225000I0J200000D01*
G01*
X136450000Y-100825000D01*
G75*
G02*
X136650000Y-100625000I200000J0D01*
G01*
G37*
G36*
G01*
X136650000Y-98975000D02*
X137200000Y-98975000D01*
G75*
G02*
X137400000Y-99175000I0J-200000D01*
G01*
X137400000Y-99575000D01*
G75*
G02*
X137200000Y-99775000I-200000J0D01*
G01*
X136650000Y-99775000D01*
G75*
G02*
X136450000Y-99575000I0J200000D01*
G01*
X136450000Y-99175000D01*
G75*
G02*
X136650000Y-98975000I200000J0D01*
G01*
G37*
%TD*%
%TO.C,R7*%
G36*
G01*
X130750000Y-93525000D02*
X130750000Y-94075000D01*
G75*
G02*
X130550000Y-94275000I-200000J0D01*
G01*
X130150000Y-94275000D01*
G75*
G02*
X129950000Y-94075000I0J200000D01*
G01*
X129950000Y-93525000D01*
G75*
G02*
X130150000Y-93325000I200000J0D01*
G01*
X130550000Y-93325000D01*
G75*
G02*
X130750000Y-93525000I0J-200000D01*
G01*
G37*
G36*
G01*
X132400000Y-93525000D02*
X132400000Y-94075000D01*
G75*
G02*
X132200000Y-94275000I-200000J0D01*
G01*
X131800000Y-94275000D01*
G75*
G02*
X131600000Y-94075000I0J200000D01*
G01*
X131600000Y-93525000D01*
G75*
G02*
X131800000Y-93325000I200000J0D01*
G01*
X132200000Y-93325000D01*
G75*
G02*
X132400000Y-93525000I0J-200000D01*
G01*
G37*
%TD*%
D11*
%TO.C,U2*%
X158326000Y-100789700D03*
X158326000Y-102689700D03*
X156126000Y-102689700D03*
X156126000Y-101739700D03*
X156126000Y-100789700D03*
%TD*%
%TO.C,C3*%
G36*
G01*
X121975000Y-90950000D02*
X122925000Y-90950000D01*
G75*
G02*
X123175000Y-91200000I0J-250000D01*
G01*
X123175000Y-91700000D01*
G75*
G02*
X122925000Y-91950000I-250000J0D01*
G01*
X121975000Y-91950000D01*
G75*
G02*
X121725000Y-91700000I0J250000D01*
G01*
X121725000Y-91200000D01*
G75*
G02*
X121975000Y-90950000I250000J0D01*
G01*
G37*
G36*
G01*
X121975000Y-89050000D02*
X122925000Y-89050000D01*
G75*
G02*
X123175000Y-89300000I0J-250000D01*
G01*
X123175000Y-89800000D01*
G75*
G02*
X122925000Y-90050000I-250000J0D01*
G01*
X121975000Y-90050000D01*
G75*
G02*
X121725000Y-89800000I0J250000D01*
G01*
X121725000Y-89300000D01*
G75*
G02*
X121975000Y-89050000I250000J0D01*
G01*
G37*
%TD*%
D12*
%TO.C,Q1*%
X134025000Y-99300000D03*
X135325000Y-99300000D03*
X134675000Y-101200000D03*
X134675000Y-99300000D03*
X135325000Y-101200000D03*
X134025000Y-101200000D03*
%TD*%
D13*
%TO.C,D1*%
X131725000Y-86775000D03*
X131725000Y-89275000D03*
%TD*%
%TO.C,U4*%
G36*
G01*
X124395000Y-91709000D02*
X125065000Y-91709000D01*
G75*
G02*
X125215000Y-91859000I0J-150000D01*
G01*
X125215000Y-92159000D01*
G75*
G02*
X125065000Y-92309000I-150000J0D01*
G01*
X124395000Y-92309000D01*
G75*
G02*
X124245000Y-92159000I0J150000D01*
G01*
X124245000Y-91859000D01*
G75*
G02*
X124395000Y-91709000I150000J0D01*
G01*
G37*
G36*
G01*
X125595000Y-91709000D02*
X126265000Y-91709000D01*
G75*
G02*
X126415000Y-91859000I0J-150000D01*
G01*
X126415000Y-92159000D01*
G75*
G02*
X126265000Y-92309000I-150000J0D01*
G01*
X125595000Y-92309000D01*
G75*
G02*
X125445000Y-92159000I0J150000D01*
G01*
X125445000Y-91859000D01*
G75*
G02*
X125595000Y-91709000I150000J0D01*
G01*
G37*
G36*
G01*
X124395000Y-90959000D02*
X125065000Y-90959000D01*
G75*
G02*
X125215000Y-91109000I0J-150000D01*
G01*
X125215000Y-91409000D01*
G75*
G02*
X125065000Y-91559000I-150000J0D01*
G01*
X124395000Y-91559000D01*
G75*
G02*
X124245000Y-91409000I0J150000D01*
G01*
X124245000Y-91109000D01*
G75*
G02*
X124395000Y-90959000I150000J0D01*
G01*
G37*
G36*
G01*
X125595000Y-90959000D02*
X126265000Y-90959000D01*
G75*
G02*
X126415000Y-91109000I0J-150000D01*
G01*
X126415000Y-91409000D01*
G75*
G02*
X126265000Y-91559000I-150000J0D01*
G01*
X125595000Y-91559000D01*
G75*
G02*
X125445000Y-91409000I0J150000D01*
G01*
X125445000Y-91109000D01*
G75*
G02*
X125595000Y-90959000I150000J0D01*
G01*
G37*
G36*
G01*
X126230000Y-92684000D02*
X126430000Y-92684000D01*
G75*
G02*
X126530000Y-92784000I0J-100000D01*
G01*
X126530000Y-93384000D01*
G75*
G02*
X126430000Y-93484000I-100000J0D01*
G01*
X126230000Y-93484000D01*
G75*
G02*
X126130000Y-93384000I0J100000D01*
G01*
X126130000Y-92784000D01*
G75*
G02*
X126230000Y-92684000I100000J0D01*
G01*
G37*
G36*
G01*
X125230000Y-92684000D02*
X125430000Y-92684000D01*
G75*
G02*
X125530000Y-92784000I0J-100000D01*
G01*
X125530000Y-93384000D01*
G75*
G02*
X125430000Y-93484000I-100000J0D01*
G01*
X125230000Y-93484000D01*
G75*
G02*
X125130000Y-93384000I0J100000D01*
G01*
X125130000Y-92784000D01*
G75*
G02*
X125230000Y-92684000I100000J0D01*
G01*
G37*
G36*
G01*
X124230000Y-92684000D02*
X124430000Y-92684000D01*
G75*
G02*
X124530000Y-92784000I0J-100000D01*
G01*
X124530000Y-93384000D01*
G75*
G02*
X124430000Y-93484000I-100000J0D01*
G01*
X124230000Y-93484000D01*
G75*
G02*
X124130000Y-93384000I0J100000D01*
G01*
X124130000Y-92784000D01*
G75*
G02*
X124230000Y-92684000I100000J0D01*
G01*
G37*
G36*
G01*
X124230000Y-89784000D02*
X124430000Y-89784000D01*
G75*
G02*
X124530000Y-89884000I0J-100000D01*
G01*
X124530000Y-90484000D01*
G75*
G02*
X124430000Y-90584000I-100000J0D01*
G01*
X124230000Y-90584000D01*
G75*
G02*
X124130000Y-90484000I0J100000D01*
G01*
X124130000Y-89884000D01*
G75*
G02*
X124230000Y-89784000I100000J0D01*
G01*
G37*
G36*
G01*
X125230000Y-89784000D02*
X125430000Y-89784000D01*
G75*
G02*
X125530000Y-89884000I0J-100000D01*
G01*
X125530000Y-90484000D01*
G75*
G02*
X125430000Y-90584000I-100000J0D01*
G01*
X125230000Y-90584000D01*
G75*
G02*
X125130000Y-90484000I0J100000D01*
G01*
X125130000Y-89884000D01*
G75*
G02*
X125230000Y-89784000I100000J0D01*
G01*
G37*
G36*
G01*
X126230000Y-89784000D02*
X126430000Y-89784000D01*
G75*
G02*
X126530000Y-89884000I0J-100000D01*
G01*
X126530000Y-90484000D01*
G75*
G02*
X126430000Y-90584000I-100000J0D01*
G01*
X126230000Y-90584000D01*
G75*
G02*
X126130000Y-90484000I0J100000D01*
G01*
X126130000Y-89884000D01*
G75*
G02*
X126230000Y-89784000I100000J0D01*
G01*
G37*
%TD*%
D14*
%TO.C,D2*%
X117900000Y-94670000D03*
D15*
X118485000Y-93860000D03*
X118485000Y-93180000D03*
X118485000Y-92120000D03*
X118485000Y-91440000D03*
D14*
X117900000Y-90630000D03*
%TD*%
%TO.C,R12*%
G36*
G01*
X149069240Y-93524660D02*
X149069240Y-94074660D01*
G75*
G02*
X148869240Y-94274660I-200000J0D01*
G01*
X148469240Y-94274660D01*
G75*
G02*
X148269240Y-94074660I0J200000D01*
G01*
X148269240Y-93524660D01*
G75*
G02*
X148469240Y-93324660I200000J0D01*
G01*
X148869240Y-93324660D01*
G75*
G02*
X149069240Y-93524660I0J-200000D01*
G01*
G37*
G36*
G01*
X150719240Y-93524660D02*
X150719240Y-94074660D01*
G75*
G02*
X150519240Y-94274660I-200000J0D01*
G01*
X150119240Y-94274660D01*
G75*
G02*
X149919240Y-94074660I0J200000D01*
G01*
X149919240Y-93524660D01*
G75*
G02*
X150119240Y-93324660I200000J0D01*
G01*
X150519240Y-93324660D01*
G75*
G02*
X150719240Y-93524660I0J-200000D01*
G01*
G37*
%TD*%
%TO.C,C9*%
G36*
G01*
X149278320Y-102065240D02*
X150228320Y-102065240D01*
G75*
G02*
X150478320Y-102315240I0J-250000D01*
G01*
X150478320Y-102815240D01*
G75*
G02*
X150228320Y-103065240I-250000J0D01*
G01*
X149278320Y-103065240D01*
G75*
G02*
X149028320Y-102815240I0J250000D01*
G01*
X149028320Y-102315240D01*
G75*
G02*
X149278320Y-102065240I250000J0D01*
G01*
G37*
G36*
G01*
X149278320Y-100165240D02*
X150228320Y-100165240D01*
G75*
G02*
X150478320Y-100415240I0J-250000D01*
G01*
X150478320Y-100915240D01*
G75*
G02*
X150228320Y-101165240I-250000J0D01*
G01*
X149278320Y-101165240D01*
G75*
G02*
X149028320Y-100915240I0J250000D01*
G01*
X149028320Y-100415240D01*
G75*
G02*
X149278320Y-100165240I250000J0D01*
G01*
G37*
%TD*%
%TO.C,R1*%
G36*
G01*
X151532760Y-90357220D02*
X151532760Y-89807220D01*
G75*
G02*
X151732760Y-89607220I200000J0D01*
G01*
X152132760Y-89607220D01*
G75*
G02*
X152332760Y-89807220I0J-200000D01*
G01*
X152332760Y-90357220D01*
G75*
G02*
X152132760Y-90557220I-200000J0D01*
G01*
X151732760Y-90557220D01*
G75*
G02*
X151532760Y-90357220I0J200000D01*
G01*
G37*
G36*
G01*
X149882760Y-90357220D02*
X149882760Y-89807220D01*
G75*
G02*
X150082760Y-89607220I200000J0D01*
G01*
X150482760Y-89607220D01*
G75*
G02*
X150682760Y-89807220I0J-200000D01*
G01*
X150682760Y-90357220D01*
G75*
G02*
X150482760Y-90557220I-200000J0D01*
G01*
X150082760Y-90557220D01*
G75*
G02*
X149882760Y-90357220I0J200000D01*
G01*
G37*
%TD*%
%TO.C,R9*%
G36*
G01*
X146800000Y-102950000D02*
X146800000Y-103500000D01*
G75*
G02*
X146600000Y-103700000I-200000J0D01*
G01*
X146200000Y-103700000D01*
G75*
G02*
X146000000Y-103500000I0J200000D01*
G01*
X146000000Y-102950000D01*
G75*
G02*
X146200000Y-102750000I200000J0D01*
G01*
X146600000Y-102750000D01*
G75*
G02*
X146800000Y-102950000I0J-200000D01*
G01*
G37*
G36*
G01*
X148450000Y-102950000D02*
X148450000Y-103500000D01*
G75*
G02*
X148250000Y-103700000I-200000J0D01*
G01*
X147850000Y-103700000D01*
G75*
G02*
X147650000Y-103500000I0J200000D01*
G01*
X147650000Y-102950000D01*
G75*
G02*
X147850000Y-102750000I200000J0D01*
G01*
X148250000Y-102750000D01*
G75*
G02*
X148450000Y-102950000I0J-200000D01*
G01*
G37*
%TD*%
%TO.C,C1*%
G36*
G01*
X125452060Y-95971240D02*
X125952060Y-95971240D01*
G75*
G02*
X126177060Y-96196240I0J-225000D01*
G01*
X126177060Y-96646240D01*
G75*
G02*
X125952060Y-96871240I-225000J0D01*
G01*
X125452060Y-96871240D01*
G75*
G02*
X125227060Y-96646240I0J225000D01*
G01*
X125227060Y-96196240D01*
G75*
G02*
X125452060Y-95971240I225000J0D01*
G01*
G37*
G36*
G01*
X125452060Y-94421240D02*
X125952060Y-94421240D01*
G75*
G02*
X126177060Y-94646240I0J-225000D01*
G01*
X126177060Y-95096240D01*
G75*
G02*
X125952060Y-95321240I-225000J0D01*
G01*
X125452060Y-95321240D01*
G75*
G02*
X125227060Y-95096240I0J225000D01*
G01*
X125227060Y-94646240D01*
G75*
G02*
X125452060Y-94421240I225000J0D01*
G01*
G37*
%TD*%
%TO.C,R17*%
G36*
G01*
X128761000Y-87018000D02*
X128211000Y-87018000D01*
G75*
G02*
X128011000Y-86818000I0J200000D01*
G01*
X128011000Y-86418000D01*
G75*
G02*
X128211000Y-86218000I200000J0D01*
G01*
X128761000Y-86218000D01*
G75*
G02*
X128961000Y-86418000I0J-200000D01*
G01*
X128961000Y-86818000D01*
G75*
G02*
X128761000Y-87018000I-200000J0D01*
G01*
G37*
G36*
G01*
X128761000Y-88668000D02*
X128211000Y-88668000D01*
G75*
G02*
X128011000Y-88468000I0J200000D01*
G01*
X128011000Y-88068000D01*
G75*
G02*
X128211000Y-87868000I200000J0D01*
G01*
X128761000Y-87868000D01*
G75*
G02*
X128961000Y-88068000I0J-200000D01*
G01*
X128961000Y-88468000D01*
G75*
G02*
X128761000Y-88668000I-200000J0D01*
G01*
G37*
%TD*%
%TO.C,R14*%
G36*
G01*
X120525000Y-95900000D02*
X120525000Y-96450000D01*
G75*
G02*
X120325000Y-96650000I-200000J0D01*
G01*
X119925000Y-96650000D01*
G75*
G02*
X119725000Y-96450000I0J200000D01*
G01*
X119725000Y-95900000D01*
G75*
G02*
X119925000Y-95700000I200000J0D01*
G01*
X120325000Y-95700000D01*
G75*
G02*
X120525000Y-95900000I0J-200000D01*
G01*
G37*
G36*
G01*
X122175000Y-95900000D02*
X122175000Y-96450000D01*
G75*
G02*
X121975000Y-96650000I-200000J0D01*
G01*
X121575000Y-96650000D01*
G75*
G02*
X121375000Y-96450000I0J200000D01*
G01*
X121375000Y-95900000D01*
G75*
G02*
X121575000Y-95700000I200000J0D01*
G01*
X121975000Y-95700000D01*
G75*
G02*
X122175000Y-95900000I0J-200000D01*
G01*
G37*
%TD*%
%TO.C,C8*%
G36*
G01*
X159657200Y-99423240D02*
X159657200Y-98473240D01*
G75*
G02*
X159907200Y-98223240I250000J0D01*
G01*
X160407200Y-98223240D01*
G75*
G02*
X160657200Y-98473240I0J-250000D01*
G01*
X160657200Y-99423240D01*
G75*
G02*
X160407200Y-99673240I-250000J0D01*
G01*
X159907200Y-99673240D01*
G75*
G02*
X159657200Y-99423240I0J250000D01*
G01*
G37*
G36*
G01*
X157757200Y-99423240D02*
X157757200Y-98473240D01*
G75*
G02*
X158007200Y-98223240I250000J0D01*
G01*
X158507200Y-98223240D01*
G75*
G02*
X158757200Y-98473240I0J-250000D01*
G01*
X158757200Y-99423240D01*
G75*
G02*
X158507200Y-99673240I-250000J0D01*
G01*
X158007200Y-99673240D01*
G75*
G02*
X157757200Y-99423240I0J250000D01*
G01*
G37*
%TD*%
%TO.C,R8*%
G36*
G01*
X147650000Y-101950000D02*
X147650000Y-101400000D01*
G75*
G02*
X147850000Y-101200000I200000J0D01*
G01*
X148250000Y-101200000D01*
G75*
G02*
X148450000Y-101400000I0J-200000D01*
G01*
X148450000Y-101950000D01*
G75*
G02*
X148250000Y-102150000I-200000J0D01*
G01*
X147850000Y-102150000D01*
G75*
G02*
X147650000Y-101950000I0J200000D01*
G01*
G37*
G36*
G01*
X146000000Y-101950000D02*
X146000000Y-101400000D01*
G75*
G02*
X146200000Y-101200000I200000J0D01*
G01*
X146600000Y-101200000D01*
G75*
G02*
X146800000Y-101400000I0J-200000D01*
G01*
X146800000Y-101950000D01*
G75*
G02*
X146600000Y-102150000I-200000J0D01*
G01*
X146200000Y-102150000D01*
G75*
G02*
X146000000Y-101950000I0J200000D01*
G01*
G37*
%TD*%
D16*
%TO.C,L2*%
X151633000Y-101921000D03*
X154433000Y-101921000D03*
%TD*%
%TO.C,C2*%
G36*
G01*
X143950000Y-99150000D02*
X143950000Y-99650000D01*
G75*
G02*
X143725000Y-99875000I-225000J0D01*
G01*
X143275000Y-99875000D01*
G75*
G02*
X143050000Y-99650000I0J225000D01*
G01*
X143050000Y-99150000D01*
G75*
G02*
X143275000Y-98925000I225000J0D01*
G01*
X143725000Y-98925000D01*
G75*
G02*
X143950000Y-99150000I0J-225000D01*
G01*
G37*
G36*
G01*
X145500000Y-99150000D02*
X145500000Y-99650000D01*
G75*
G02*
X145275000Y-99875000I-225000J0D01*
G01*
X144825000Y-99875000D01*
G75*
G02*
X144600000Y-99650000I0J225000D01*
G01*
X144600000Y-99150000D01*
G75*
G02*
X144825000Y-98925000I225000J0D01*
G01*
X145275000Y-98925000D01*
G75*
G02*
X145500000Y-99150000I0J-225000D01*
G01*
G37*
%TD*%
%TO.C,R5*%
G36*
G01*
X132750000Y-99775000D02*
X132200000Y-99775000D01*
G75*
G02*
X132000000Y-99575000I0J200000D01*
G01*
X132000000Y-99175000D01*
G75*
G02*
X132200000Y-98975000I200000J0D01*
G01*
X132750000Y-98975000D01*
G75*
G02*
X132950000Y-99175000I0J-200000D01*
G01*
X132950000Y-99575000D01*
G75*
G02*
X132750000Y-99775000I-200000J0D01*
G01*
G37*
G36*
G01*
X132750000Y-101425000D02*
X132200000Y-101425000D01*
G75*
G02*
X132000000Y-101225000I0J200000D01*
G01*
X132000000Y-100825000D01*
G75*
G02*
X132200000Y-100625000I200000J0D01*
G01*
X132750000Y-100625000D01*
G75*
G02*
X132950000Y-100825000I0J-200000D01*
G01*
X132950000Y-101225000D01*
G75*
G02*
X132750000Y-101425000I-200000J0D01*
G01*
G37*
%TD*%
D17*
%TO.C,U3*%
X129607000Y-92532000D03*
X128957000Y-92532000D03*
X128307000Y-92532000D03*
X127657000Y-92532000D03*
X127657000Y-90482000D03*
X128307000Y-90482000D03*
X128957000Y-90482000D03*
X129607000Y-90482000D03*
%TD*%
%TO.C,L1*%
G36*
G01*
X129743750Y-88050000D02*
X130256250Y-88050000D01*
G75*
G02*
X130475000Y-88268750I0J-218750D01*
G01*
X130475000Y-88706250D01*
G75*
G02*
X130256250Y-88925000I-218750J0D01*
G01*
X129743750Y-88925000D01*
G75*
G02*
X129525000Y-88706250I0J218750D01*
G01*
X129525000Y-88268750D01*
G75*
G02*
X129743750Y-88050000I218750J0D01*
G01*
G37*
G36*
G01*
X129743750Y-86475000D02*
X130256250Y-86475000D01*
G75*
G02*
X130475000Y-86693750I0J-218750D01*
G01*
X130475000Y-87131250D01*
G75*
G02*
X130256250Y-87350000I-218750J0D01*
G01*
X129743750Y-87350000D01*
G75*
G02*
X129525000Y-87131250I0J218750D01*
G01*
X129525000Y-86693750D01*
G75*
G02*
X129743750Y-86475000I218750J0D01*
G01*
G37*
%TD*%
D11*
%TO.C,U5*%
X154013080Y-94140020D03*
X154013080Y-93190020D03*
X154013080Y-95090020D03*
X151813080Y-95090020D03*
X151813080Y-94140020D03*
X151813080Y-93190020D03*
%TD*%
%TO.C,U1*%
G36*
G01*
X132001000Y-91757000D02*
X130851000Y-91757000D01*
G75*
G02*
X130726000Y-91632000I0J125000D01*
G01*
X130726000Y-91382000D01*
G75*
G02*
X130851000Y-91257000I125000J0D01*
G01*
X132001000Y-91257000D01*
G75*
G02*
X132126000Y-91382000I0J-125000D01*
G01*
X132126000Y-91632000D01*
G75*
G02*
X132001000Y-91757000I-125000J0D01*
G01*
G37*
G36*
G01*
X130838500Y-90207000D02*
X131013500Y-90207000D01*
G75*
G02*
X131101000Y-90294500I0J-87500D01*
G01*
X131101000Y-90669500D01*
G75*
G02*
X131013500Y-90757000I-87500J0D01*
G01*
X130838500Y-90757000D01*
G75*
G02*
X130751000Y-90669500I0J87500D01*
G01*
X130751000Y-90294500D01*
G75*
G02*
X130838500Y-90207000I87500J0D01*
G01*
G37*
G36*
G01*
X131838500Y-90207000D02*
X132013500Y-90207000D01*
G75*
G02*
X132101000Y-90294500I0J-87500D01*
G01*
X132101000Y-90669500D01*
G75*
G02*
X132013500Y-90757000I-87500J0D01*
G01*
X131838500Y-90757000D01*
G75*
G02*
X131751000Y-90669500I0J87500D01*
G01*
X131751000Y-90294500D01*
G75*
G02*
X131838500Y-90207000I87500J0D01*
G01*
G37*
G36*
G01*
X132013500Y-92807000D02*
X131838500Y-92807000D01*
G75*
G02*
X131751000Y-92719500I0J87500D01*
G01*
X131751000Y-92344500D01*
G75*
G02*
X131838500Y-92257000I87500J0D01*
G01*
X132013500Y-92257000D01*
G75*
G02*
X132101000Y-92344500I0J-87500D01*
G01*
X132101000Y-92719500D01*
G75*
G02*
X132013500Y-92807000I-87500J0D01*
G01*
G37*
G36*
G01*
X131013500Y-92807000D02*
X130838500Y-92807000D01*
G75*
G02*
X130751000Y-92719500I0J87500D01*
G01*
X130751000Y-92344500D01*
G75*
G02*
X130838500Y-92257000I87500J0D01*
G01*
X131013500Y-92257000D01*
G75*
G02*
X131101000Y-92344500I0J-87500D01*
G01*
X131101000Y-92719500D01*
G75*
G02*
X131013500Y-92807000I-87500J0D01*
G01*
G37*
%TD*%
%TO.C,SW2*%
G36*
G01*
X127965070Y-102256350D02*
X128022561Y-101709363D01*
G75*
G02*
X128324800Y-101464614I273494J-28745D01*
G01*
X129170143Y-101553463D01*
G75*
G02*
X129414892Y-101855702I-28745J-273494D01*
G01*
X129357401Y-102402689D01*
G75*
G02*
X129055162Y-102647438I-273494J28745D01*
G01*
X128209819Y-102558589D01*
G75*
G02*
X127965070Y-102256350I28745J273494D01*
G01*
G37*
G36*
G01*
X129679352Y-102687905D02*
X129757749Y-101942014D01*
G75*
G02*
X129950082Y-101786265I174041J-18292D01*
G01*
X130298165Y-101822850D01*
G75*
G02*
X130453914Y-102015183I-18292J-174041D01*
G01*
X130375517Y-102761074D01*
G75*
G02*
X130183184Y-102916823I-174041J18292D01*
G01*
X129835101Y-102880238D01*
G75*
G02*
X129679352Y-102687905I18292J174041D01*
G01*
G37*
G36*
G01*
X126894690Y-102395225D02*
X126973087Y-101649334D01*
G75*
G02*
X127165420Y-101493585I174041J-18292D01*
G01*
X127513503Y-101530170D01*
G75*
G02*
X127669252Y-101722503I-18292J-174041D01*
G01*
X127590855Y-102468394D01*
G75*
G02*
X127398522Y-102624143I-174041J18292D01*
G01*
X127050439Y-102587558D01*
G75*
G02*
X126894690Y-102395225I18292J174041D01*
G01*
G37*
%TD*%
D18*
%TO.C,IC1*%
X140333000Y-90073000D03*
X142308000Y-90073000D03*
X142308000Y-92048000D03*
X142308000Y-94023000D03*
X140333000Y-94023000D03*
X138358000Y-94023000D03*
X138358000Y-92048000D03*
X138358000Y-90073000D03*
D19*
X134383000Y-87098000D03*
X134383000Y-96998000D03*
X146283000Y-96998000D03*
X146283000Y-87098000D03*
D18*
X140333000Y-92048000D03*
D20*
X135533000Y-87148000D03*
X136333000Y-87148000D03*
X137133000Y-87148000D03*
X137933000Y-87148000D03*
X138733000Y-87148000D03*
X139533000Y-87148000D03*
X140333000Y-87148000D03*
X141133000Y-87148000D03*
X141933000Y-87148000D03*
X142733000Y-87148000D03*
X143533000Y-87148000D03*
X144333000Y-87148000D03*
X145133000Y-87148000D03*
D15*
X146233000Y-88048000D03*
X146233000Y-88848000D03*
X146233000Y-89648000D03*
X146233000Y-90448000D03*
X146233000Y-91248000D03*
X146233000Y-92048000D03*
X146233000Y-92848000D03*
X146233000Y-93648000D03*
X146233000Y-94448000D03*
X146233000Y-95248000D03*
X146233000Y-96048000D03*
D20*
X145133000Y-96948000D03*
X144333000Y-96948000D03*
X143533000Y-96948000D03*
X142733000Y-96948000D03*
X141933000Y-96948000D03*
X141133000Y-96948000D03*
X140333000Y-96948000D03*
X139533000Y-96948000D03*
X138733000Y-96948000D03*
X137933000Y-96948000D03*
X137133000Y-96948000D03*
X136333000Y-96948000D03*
X135533000Y-96948000D03*
D15*
X134433000Y-96048000D03*
X134433000Y-95248000D03*
X134433000Y-94448000D03*
X134433000Y-93648000D03*
X134433000Y-92848000D03*
X134433000Y-92048000D03*
X134433000Y-91248000D03*
X134433000Y-90448000D03*
X134433000Y-89648000D03*
X134433000Y-88848000D03*
X134433000Y-88048000D03*
%TD*%
%TO.C,C6*%
G36*
G01*
X158293520Y-86333520D02*
X158293520Y-86833520D01*
G75*
G02*
X158068520Y-87058520I-225000J0D01*
G01*
X157618520Y-87058520D01*
G75*
G02*
X157393520Y-86833520I0J225000D01*
G01*
X157393520Y-86333520D01*
G75*
G02*
X157618520Y-86108520I225000J0D01*
G01*
X158068520Y-86108520D01*
G75*
G02*
X158293520Y-86333520I0J-225000D01*
G01*
G37*
G36*
G01*
X156743520Y-86333520D02*
X156743520Y-86833520D01*
G75*
G02*
X156518520Y-87058520I-225000J0D01*
G01*
X156068520Y-87058520D01*
G75*
G02*
X155843520Y-86833520I0J225000D01*
G01*
X155843520Y-86333520D01*
G75*
G02*
X156068520Y-86108520I225000J0D01*
G01*
X156518520Y-86108520D01*
G75*
G02*
X156743520Y-86333520I0J-225000D01*
G01*
G37*
%TD*%
D21*
%TO.C,J1*%
X157051960Y-92893960D03*
X157051960Y-90893960D03*
X157051960Y-91393960D03*
X157051960Y-91893960D03*
X157051960Y-92393960D03*
X157051960Y-93393960D03*
X157051960Y-93893960D03*
X157051960Y-94393960D03*
D22*
X157051960Y-89393960D03*
X157051960Y-90193960D03*
X157051960Y-95093960D03*
X157051960Y-95893960D03*
X157051960Y-95893960D03*
X157051960Y-95093960D03*
X157051960Y-90193960D03*
X157051960Y-89393960D03*
%TD*%
%TO.C,R18*%
G36*
G01*
X154563400Y-87752740D02*
X155113400Y-87752740D01*
G75*
G02*
X155313400Y-87952740I0J-200000D01*
G01*
X155313400Y-88352740D01*
G75*
G02*
X155113400Y-88552740I-200000J0D01*
G01*
X154563400Y-88552740D01*
G75*
G02*
X154363400Y-88352740I0J200000D01*
G01*
X154363400Y-87952740D01*
G75*
G02*
X154563400Y-87752740I200000J0D01*
G01*
G37*
G36*
G01*
X154563400Y-86102740D02*
X155113400Y-86102740D01*
G75*
G02*
X155313400Y-86302740I0J-200000D01*
G01*
X155313400Y-86702740D01*
G75*
G02*
X155113400Y-86902740I-200000J0D01*
G01*
X154563400Y-86902740D01*
G75*
G02*
X154363400Y-86702740I0J200000D01*
G01*
X154363400Y-86302740D01*
G75*
G02*
X154563400Y-86102740I200000J0D01*
G01*
G37*
%TD*%
%TO.C,R19*%
G36*
G01*
X152919980Y-90353560D02*
X152919980Y-89803560D01*
G75*
G02*
X153119980Y-89603560I200000J0D01*
G01*
X153519980Y-89603560D01*
G75*
G02*
X153719980Y-89803560I0J-200000D01*
G01*
X153719980Y-90353560D01*
G75*
G02*
X153519980Y-90553560I-200000J0D01*
G01*
X153119980Y-90553560D01*
G75*
G02*
X152919980Y-90353560I0J200000D01*
G01*
G37*
G36*
G01*
X154569980Y-90353560D02*
X154569980Y-89803560D01*
G75*
G02*
X154769980Y-89603560I200000J0D01*
G01*
X155169980Y-89603560D01*
G75*
G02*
X155369980Y-89803560I0J-200000D01*
G01*
X155369980Y-90353560D01*
G75*
G02*
X155169980Y-90553560I-200000J0D01*
G01*
X154769980Y-90553560D01*
G75*
G02*
X154569980Y-90353560I0J200000D01*
G01*
G37*
%TD*%
%TO.C,R20*%
G36*
G01*
X153901860Y-97885840D02*
X153901860Y-98435840D01*
G75*
G02*
X153701860Y-98635840I-200000J0D01*
G01*
X153301860Y-98635840D01*
G75*
G02*
X153101860Y-98435840I0J200000D01*
G01*
X153101860Y-97885840D01*
G75*
G02*
X153301860Y-97685840I200000J0D01*
G01*
X153701860Y-97685840D01*
G75*
G02*
X153901860Y-97885840I0J-200000D01*
G01*
G37*
G36*
G01*
X152251860Y-97885840D02*
X152251860Y-98435840D01*
G75*
G02*
X152051860Y-98635840I-200000J0D01*
G01*
X151651860Y-98635840D01*
G75*
G02*
X151451860Y-98435840I0J200000D01*
G01*
X151451860Y-97885840D01*
G75*
G02*
X151651860Y-97685840I200000J0D01*
G01*
X152051860Y-97685840D01*
G75*
G02*
X152251860Y-97885840I0J-200000D01*
G01*
G37*
%TD*%
%TO.C,F1*%
G36*
G01*
X157203860Y-98521810D02*
X157203860Y-99034310D01*
G75*
G02*
X156985110Y-99253060I-218750J0D01*
G01*
X156547610Y-99253060D01*
G75*
G02*
X156328860Y-99034310I0J218750D01*
G01*
X156328860Y-98521810D01*
G75*
G02*
X156547610Y-98303060I218750J0D01*
G01*
X156985110Y-98303060D01*
G75*
G02*
X157203860Y-98521810I0J-218750D01*
G01*
G37*
G36*
G01*
X155628860Y-98521810D02*
X155628860Y-99034310D01*
G75*
G02*
X155410110Y-99253060I-218750J0D01*
G01*
X154972610Y-99253060D01*
G75*
G02*
X154753860Y-99034310I0J218750D01*
G01*
X154753860Y-98521810D01*
G75*
G02*
X154972610Y-98303060I218750J0D01*
G01*
X155410110Y-98303060D01*
G75*
G02*
X155628860Y-98521810I0J-218750D01*
G01*
G37*
%TD*%
%TO.C,JP1*%
G36*
G01*
X126801160Y-96081260D02*
X126801160Y-95531260D01*
G75*
G02*
X127001160Y-95331260I200000J0D01*
G01*
X127401160Y-95331260D01*
G75*
G02*
X127601160Y-95531260I0J-200000D01*
G01*
X127601160Y-96081260D01*
G75*
G02*
X127401160Y-96281260I-200000J0D01*
G01*
X127001160Y-96281260D01*
G75*
G02*
X126801160Y-96081260I0J200000D01*
G01*
G37*
G36*
G01*
X128451160Y-96081260D02*
X128451160Y-95531260D01*
G75*
G02*
X128651160Y-95331260I200000J0D01*
G01*
X129051160Y-95331260D01*
G75*
G02*
X129251160Y-95531260I0J-200000D01*
G01*
X129251160Y-96081260D01*
G75*
G02*
X129051160Y-96281260I-200000J0D01*
G01*
X128651160Y-96281260D01*
G75*
G02*
X128451160Y-96081260I0J200000D01*
G01*
G37*
G36*
G01*
X130101160Y-96081260D02*
X130101160Y-95531260D01*
G75*
G02*
X130301160Y-95331260I200000J0D01*
G01*
X130701160Y-95331260D01*
G75*
G02*
X130901160Y-95531260I0J-200000D01*
G01*
X130901160Y-96081260D01*
G75*
G02*
X130701160Y-96281260I-200000J0D01*
G01*
X130301160Y-96281260D01*
G75*
G02*
X130101160Y-96081260I0J200000D01*
G01*
G37*
%TD*%
M02*
