<?xml version="1.0" standalone="no"?>
 <!DOCTYPE svg PUBLIC "-//W3C//DTD SVG 1.1//EN" 
 "http://www.w3.org/Graphics/SVG/1.1/DTD/svg11.dtd"> 
<svg
  xmlns:svg="http://www.w3.org/2000/svg"
  xmlns="http://www.w3.org/2000/svg"
  xmlns:xlink="http://www.w3.org/1999/xlink"
  version="1.1"
  width="29.700220cm" height="21.000720cm" viewBox="0 0 116930 82680">
<title>SVG Picture created as temp sensor-PTH-drl_map.svg date 2021/07/14 09:57:29 </title>
  <desc>Picture generated by PCBNEW </desc>
<g style="fill:#000000; fill-opacity:1;stroke:#000000; stroke-opacity:1;
stroke-linecap:round; stroke-linejoin:round;"
 transform="translate(0 0) scale(1 1)">
</g>
<g style="fill:#000000; fill-opacity:0.0; 
stroke:#000000; stroke-width:-0.000393701; stroke-opacity:1; 
stroke-linecap:round; stroke-linejoin:round;">
</g>
<g style="fill:#000000; fill-opacity:0.0; 
stroke:#000000; stroke-width:59.0551; stroke-opacity:1; 
stroke-linecap:round; stroke-linejoin:round;">
<path d="M47534.3 33619.8 A585.029 585.029 0.0 0 0 48105.6 34567.9" />
<path d="M50826.9 33075.8 A583.012 583.012 0.0 0 0 50256.2 32128" />
</g>
<g style="fill:#000000; fill-opacity:0.0; 
stroke:#000000; stroke-width:19.685; stroke-opacity:1; 
stroke-linecap:round; stroke-linejoin:round;">
<path d="M50256.2 32128 A4039.03 4039.03 0.0 0 0 47535.3 33620.6" />
<path d="M50826.9 33075.8 A4037.4 4037.4 0.0 0 0 48105.6 34567.9" />
<path d="M63311.7 34567.9 A4037.4 4037.4 0.0 0 0 60590.4 33075.8" />
<path d="M63882 33620.6 A4039.03 4039.03 0.0 0 0 61161.1 32128" />
</g>
<g style="fill:#000000; fill-opacity:0.0; 
stroke:#000000; stroke-width:59.0551; stroke-opacity:1; 
stroke-linecap:round; stroke-linejoin:round;">
<path d="M63311.7 34567.9 A585.029 585.029 0.0 0 0 63883 33619.8" />
<path d="M61161.1 32128 A583.012 583.012 0.0 0 0 60590.4 33075.8" />
</g>
<g style="fill:#000000; fill-opacity:0.0; 
stroke:#000000; stroke-width:19.685; stroke-opacity:1; 
stroke-linecap:round; stroke-linejoin:round;">
<path d="M60449.2 41376.4 A4900 4900 0.0 0 0 65026.8 38224.4" />
<path d="M58749 33876
L51749 33876
" />
<path d="M51749 33876
L51749 31576
" />
<path d="M65025 34724
L64848 34724
" />
<path d="M64849 38224
L64848 34724
" />
<path d="M65025.3 34724.5 A4900 4900 0.0 0 0 60449.2 31576.4" />
<path d="M60449 41376
L51068 41374
" />
<path d="M58749 31576
L58749 33876
" />
<path d="M51749 31576
L50949 31576
" />
<path d="M60449 31576
L58749 31576
" />
<path d="M64849 38224
L65026 38224
" />
<path d="M50949.2 31576.4 A4900 4900 0.0 1 0 51068.9 41374.9" />
</g>
<g style="fill:#000000; fill-opacity:0.0; 
stroke:#000000; stroke-width:78.7402; stroke-opacity:1; 
stroke-linecap:round; stroke-linejoin:round;">
<path d="M46673 38081
L46830 38238
" />
<path d="M46830 38081
L46673 38238
" />
<path d="M46801 34357
L46958 34514
" />
<path d="M46958 34357
L46801 34514
" />
<path d="M46920 35701
L47077 35858
" />
<path d="M47077 35701
L46920 35858
" />
<path d="M47034 38695
L47191 38852
" />
<path d="M47191 38695
L47034 38852
" />
<path d="M48287 37312
L48445 37470
" />
<path d="M48445 37312
L48287 37470
" />
<path d="M48435 38113
L48592 38271
" />
<path d="M48592 38113
L48435 38271
" />
<path d="M48463 36377
L48621 36535
" />
<path d="M48621 36377
L48463 36535
" />
<path d="M48779 34970
L48937 35127
" />
<path d="M48937 34970
L48779 35127
" />
<path d="M49242 40364
L49399 40521
" />
<path d="M49399 40364
L49242 40521
" />
<path d="M49424 39912
L49581 40069
" />
<path d="M49581 39912
L49424 40069
" />
<path d="M49951 36662
L50108 36820
" />
<path d="M50108 36662
L49951 36820
" />
<path d="M50108 35157
L50265 35314
" />
<path d="M50265 35157
L50108 35314
" />
<path d="M50209 36960
L50366 37117
" />
<path d="M50366 36960
L50209 37117
" />
<path d="M50209 37308
L50366 37466
" />
<path d="M50366 37308
L50209 37466
" />
<path d="M50539 35103
L50697 35261
" />
<path d="M50697 35103
L50539 35261
" />
<path d="M50657 35932
L50814 36090
" />
<path d="M50814 35932
L50657 36090
" />
<path d="M50947 37077
L51104 37234
" />
<path d="M51104 37077
L50947 37234
" />
<path d="M50954 35196
L51112 35354
" />
<path d="M51112 35196
L50954 35354
" />
<path d="M51113 35947
L51271 36105
" />
<path d="M51271 35947
L51113 36105
" />
<path d="M51557 39878
L51714 40035
" />
<path d="M51714 39878
L51557 40035
" />
<path d="M51653 38582
L51811 38740
" />
<path d="M51811 38582
L51653 38740
" />
<path d="M51656 34555
L51813 34712
" />
<path d="M51813 34555
L51656 34712
" />
<path d="M51750 40837
L51907 40994
" />
<path d="M51907 40837
L51750 40994
" />
<path d="M52060 36424
L52217 36581
" />
<path d="M52217 36424
L52060 36581
" />
<path d="M52163 35570
L52321 35727
" />
<path d="M52321 35570
L52163 35727
" />
<path d="M52318 36746
L52475 36903
" />
<path d="M52475 36746
L52318 36903
" />
<path d="M52331 36070
L52488 36227
" />
<path d="M52488 36070
L52331 36227
" />
<path d="M52334 34211
L52492 34369
" />
<path d="M52492 34211
L52334 34369
" />
<path d="M53223 36805
L53380 36962
" />
<path d="M53380 36805
L53223 36962
" />
<path d="M53253 38454
L53411 38612
" />
<path d="M53411 38454
L53253 38612
" />
<path d="M53474 39409
L53631 39566
" />
<path d="M53631 39409
L53474 39566
" />
<path d="M53517 34900
L53674 35058
" />
<path d="M53674 34900
L53517 35058
" />
<path d="M53697 38481
L53855 38639
" />
<path d="M53855 38481
L53697 38639
" />
<path d="M53720 35397
L53877 35555
" />
<path d="M53877 35397
L53720 35555
" />
<path d="M53720 36147
L53877 36305
" />
<path d="M53877 36147
L53720 36305
" />
<path d="M53920 34597
L54077 34755
" />
<path d="M54077 34597
L53920 34755
" />
<path d="M54197 38555
L54355 38713
" />
<path d="M54355 38555
L54197 38713
" />
<path d="M54370 34697
L54527 34855
" />
<path d="M54527 34697
L54370 34855
" />
<path d="M54370 35747
L54527 35905
" />
<path d="M54527 35747
L54370 35905
" />
<path d="M54370 36547
L54527 36705
" />
<path d="M54527 36547
L54370 36705
" />
<path d="M54770 34647
L54927 34805
" />
<path d="M54927 34647
L54770 34805
" />
<path d="M54770 35347
L54927 35505
" />
<path d="M54927 35347
L54770 35505
" />
<path d="M54770 36147
L54927 36305
" />
<path d="M54927 36147
L54770 36305
" />
<path d="M54770 36947
L54927 37105
" />
<path d="M54927 36947
L54770 37105
" />
<path d="M54906 38720
L55063 38877
" />
<path d="M55063 38720
L54906 38877
" />
<path d="M55170 34697
L55327 34855
" />
<path d="M55327 34697
L55170 34855
" />
<path d="M55170 35747
L55327 35905
" />
<path d="M55327 35747
L55170 35905
" />
<path d="M55170 36547
L55327 36705
" />
<path d="M55327 36547
L55170 36705
" />
<path d="M55570 34647
L55727 34805
" />
<path d="M55727 34647
L55570 34805
" />
<path d="M55570 35347
L55727 35505
" />
<path d="M55727 35347
L55570 35505
" />
<path d="M55570 36147
L55727 36305
" />
<path d="M55727 36147
L55570 36305
" />
<path d="M55570 36947
L55727 37105
" />
<path d="M55727 36947
L55570 37105
" />
<path d="M55777 38651
L55934 38809
" />
<path d="M55934 38651
L55777 38809
" />
<path d="M55920 35747
L56077 35905
" />
<path d="M56077 35747
L55920 35905
" />
<path d="M55920 36547
L56077 36705
" />
<path d="M56077 36547
L55920 36705
" />
<path d="M55920 37597
L56077 37755
" />
<path d="M56077 37597
L55920 37755
" />
<path d="M55970 34697
L56127 34855
" />
<path d="M56127 34697
L55970 34855
" />
<path d="M56112 40669
L56269 40826
" />
<path d="M56269 40669
L56112 40826
" />
<path d="M56420 34647
L56577 34805
" />
<path d="M56577 34647
L56420 34805
" />
<path d="M56446 38425
L56604 38582
" />
<path d="M56604 38425
L56446 38582
" />
<path d="M56476 39596
L56633 39753
" />
<path d="M56633 39596
L56476 39753
" />
<path d="M56620 35397
L56777 35555
" />
<path d="M56777 35397
L56620 35555
" />
<path d="M56620 36147
L56777 36305
" />
<path d="M56777 36147
L56620 36305
" />
<path d="M56620 36947
L56777 37105
" />
<path d="M56777 36947
L56620 37105
" />
<path d="M56820 34847
L56977 35005
" />
<path d="M56977 34847
L56820 35005
" />
<path d="M56870 37497
L57027 37655
" />
<path d="M57027 37497
L56870 37655
" />
<path d="M56929 40639
L57086 40797
" />
<path d="M57086 40639
L56929 40797
" />
<path d="M56970 35797
L57127 35955
" />
<path d="M57127 35797
L56970 35955
" />
<path d="M57020 36597
L57177 36755
" />
<path d="M57177 36597
L57020 36755
" />
<path d="M57214 39379
L57372 39537
" />
<path d="M57372 39379
L57214 39537
" />
<path d="M57480 38582
L57637 38740
" />
<path d="M57637 38582
L57480 38740
" />
<path d="M57830 40281
L57987 40438
" />
<path d="M57987 40281
L57830 40438
" />
<path d="M57982 35449
L58139 35606
" />
<path d="M58139 35449
L57982 35606
" />
<path d="M58160 38191
L58317 38348
" />
<path d="M58317 38191
L58160 38348
" />
<path d="M58191 34199
L58348 34356
" />
<path d="M58348 34199
L58191 34356
" />
<path d="M58631 39389
L58789 39547
" />
<path d="M58789 39389
L58631 39547
" />
<path d="M58631 39055
L58789 39212
" />
<path d="M58789 39055
L58631 39212
" />
<path d="M58665 40677
L58822 40834
" />
<path d="M58822 40677
L58665 40834
" />
<path d="M59041 40682
L59198 40839
" />
<path d="M59198 40682
L59041 40839
" />
<path d="M59373 38358
L59530 38515
" />
<path d="M59530 38358
L59373 38515
" />
<path d="M60089 36984
L60246 37141
" />
<path d="M60246 36984
L60089 37141
" />
<path d="M60147 34982
L60304 35139
" />
<path d="M60304 34982
L60147 35139
" />
<path d="M60170 40677
L60327 40834
" />
<path d="M60327 40677
L60170 40834
" />
<path d="M60170 40047
L60327 40205
" />
<path d="M60327 40047
L60170 40205
" />
<path d="M60184 39047
L60341 39204
" />
<path d="M60341 39047
L60184 39204
" />
<path d="M60575 34298
L60732 34455
" />
<path d="M60732 34298
L60575 34455
" />
<path d="M60730 37898
L60887 38055
" />
<path d="M60887 37898
L60730 38055
" />
<path d="M61008 36898
L61165 37055
" />
<path d="M61165 36898
L61008 37055
" />
<path d="M61233 40720
L61390 40877
" />
<path d="M61390 40720
L61233 40877
" />
<path d="M61308 36489
L61466 36646
" />
<path d="M61466 36489
L61308 36646
" />
<path d="M61329 35425
L61487 35583
" />
<path d="M61487 35425
L61329 35583
" />
<path d="M61346 34694
L61503 34852
" />
<path d="M61503 34694
L61346 34852
" />
<path d="M61548 38361
L61705 38518
" />
<path d="M61705 38361
L61548 38518
" />
<path d="M61820 40146
L61978 40303
" />
<path d="M61978 40146
L61820 40303
" />
<path d="M61822 39808
L61980 39965
" />
<path d="M61980 39808
L61822 39965
" />
<path d="M62204 36268
L62362 36425
" />
<path d="M62362 36268
L62204 36425
" />
<path d="M62252 39942
L62410 40100
" />
<path d="M62410 39942
L62252 40100
" />
<path d="M62340 36914
L62498 37072
" />
<path d="M62498 36914
L62340 37072
" />
<path d="M62546 35638
L62703 35795
" />
<path d="M62703 35638
L62546 35795
" />
<path d="M62820 40275
L62977 40432
" />
<path d="M62977 40275
L62820 40432
" />
<path d="M63040 38162
L63197 38319
" />
<path d="M63197 38162
L63040 38319
" />
<path d="M63469 39621
L63626 39778
" />
<path d="M63626 39621
L63469 39778
" />
<path d="M64077 38925
L64234 39082
" />
<path d="M64234 38925
L64077 39082
" />
<path d="M64443 38374
L64600 38531
" />
<path d="M64600 38374
L64443 38531
" />
<circle cx="47572.9" cy="39253.8" r="118.11" /> 
<circle cx="48657.4" cy="40196.5" r="118.11" /> 
<circle cx="49889" cy="40691.7" r="118.11" /> 
<circle cx="51318.2" cy="40842" r="118.11" /> 
<circle cx="62191.7" cy="34773.2" r="118.11" /> 
<path d="M61975 34851
L62408 34851
" />
<path d="M61975 34694
L62408 34694
" />
<path d="M62408.3 34852 A78.7402 78.7402 0.0 0 0 62408.3 34694.5" />
<path d="M61975.2 34694.5 A78.7402 78.7402 0.0 0 0 61975.2 34852" />
<circle cx="62191.7" cy="38174.8" r="118.11" /> 
<path d="M61975 38253
L62408 38253
" />
<path d="M61975 38096
L62408 38096
" />
<path d="M62408.3 38253.5 A78.7402 78.7402 0.0 0 0 62408.3 38096" />
<path d="M61975.2 38096 A78.7402 78.7402 0.0 0 0 61975.2 38253.5" />
<circle cx="63837.4" cy="34773.2" r="118.11" /> 
<path d="M63719 34851
L63955 34851
" />
<path d="M63719 34694
L63955 34694
" />
<path d="M63955.5 34852 A78.7402 78.7402 0.0 0 0 63955.5 34694.5" />
<path d="M63719.3 34694.5 A78.7402 78.7402 0.0 0 0 63719.3 34852" />
<circle cx="63837.4" cy="38174.8" r="118.11" /> 
<path d="M63719 38253
L63955 38253
" />
<path d="M63719 38096
L63955 38096
" />
<path d="M63955.5 38253.5 A78.7402 78.7402 0.0 0 0 63955.5 38096" />
<path d="M63719.3 38096 A78.7402 78.7402 0.0 0 0 63719.3 38253.5" />
<circle cx="64276.6" cy="35098.4" r="118.11" /> 
<path d="M64138 35177
L64414 35177
" />
<path d="M64138 35019
L64414 35019
" />
<path d="M64414.4 35177.2 A78.7402 78.7402 0.0 0 0 64414.4 35019.7" />
<path d="M64138.8 35019.7 A78.7402 78.7402 0.0 0 0 64138.8 35177.2" />
<circle cx="64276.6" cy="37854.3" r="118.11" /> 
<path d="M64414 37775
L64138 37775
" />
<path d="M64414 37933
L64138 37933
" />
<path d="M64138.8 37775.6 A78.7402 78.7402 0.0 0 0 64138.8 37933.1" />
<path d="M64414.4 37933.1 A78.7402 78.7402 0.0 0 0 64414.4 37775.6" />
<path d="M62400 35208
L62400 35464
" />
<path d="M62272 35336
L62528 35336
" />
<path d="M62400 37483
L62400 37739
" />
<path d="M62272 37611
L62528 37611
" />
<path style="fill:#000000; fill-opacity:0.0; 
stroke:#000000; stroke-width:78.7402; stroke-opacity:1; 
stroke-linecap:round; stroke-linejoin:round;fill:none"
d="M 63331.9,35610.4
63331.9,35373.8
63095.3,35373.8
63095.3,35610.4
Z" /> 
<path style="fill:#000000; fill-opacity:0.0; 
stroke:#000000; stroke-width:78.7402; stroke-opacity:1; 
stroke-linecap:round; stroke-linejoin:round;fill:none"
d="M 63331.9,37578.9
63331.9,37342.3
63095.3,37342.3
63095.3,37578.9
Z" /> 
<path style="fill:#000000; fill-opacity:0.0; 
stroke:#000000; stroke-width:78.7402; stroke-opacity:1; 
stroke-linecap:round; stroke-linejoin:round;fill:none"
d="M 49934,39159.9
50130.9,38963
49934,38766.1
49737.1,38963
Z" /> 
<path style="fill:#000000; fill-opacity:0.0; 
stroke:#000000; stroke-width:78.7402; stroke-opacity:1; 
stroke-linecap:round; stroke-linejoin:round;fill:none"
d="M 50934,39159.9
51130.9,38963
50934,38766.1
50737.1,38963
Z" /> 
<path style="fill:#000000; fill-opacity:0.0; 
stroke:#000000; stroke-width:78.7402; stroke-opacity:1; 
stroke-linecap:round; stroke-linejoin:round;fill:none"
d="M 52474.4,41003.9
52671.3,40807.1
52474.4,40610.2
52277.6,40807.1
Z" /> 
<path style="fill:#000000; fill-opacity:0.0; 
stroke:#000000; stroke-width:78.7402; stroke-opacity:1; 
stroke-linecap:round; stroke-linejoin:round;fill:none"
d="M 53474.4,41003.9
53671.3,40807.1
53474.4,40610.2
53277.6,40807.1
Z" /> 
<path style="fill:#000000; fill-opacity:0.0; 
stroke:#000000; stroke-width:78.7402; stroke-opacity:1; 
stroke-linecap:round; stroke-linejoin:round;fill:none"
d="M 58957,34648.9
59153.9,34452
58957,34255.1
58760.1,34452
Z" /> 
<path style="fill:#000000; fill-opacity:0.0; 
stroke:#000000; stroke-width:78.7402; stroke-opacity:1; 
stroke-linecap:round; stroke-linejoin:round;fill:none"
d="M 59957,34648.9
60153.9,34452
59957,34255.1
59760.1,34452
Z" /> 
</g>
<g style="fill:#000000; fill-opacity:0.0; 
stroke:#000000; stroke-width:118.11; stroke-opacity:1; 
stroke-linecap:round; stroke-linejoin:round;">
<text x="46826.8" y="43276"
textLength="8702.36" font-size="1574.8" lengthAdjust="spacingAndGlyphs"
text-anchor="start" opacity="0">Drill Map:</text>
<path d="M47167 43219
L47167 42038
L47448 42038
L47616 42094
L47729 42207
L47785 42319
L47841 42544
L47841 42713
L47785 42938
L47729 43051
L47616 43163
L47448 43219
L47167 43219
" />
<path d="M48348 43219
L48348 42432
" />
<path d="M48348 42657
L48404 42544
L48460 42488
L48573 42432
L48685 42432
" />
<path d="M49079 43219
L49079 42432
" />
<path d="M49079 42038
L49023 42094
L49079 42151
L49135 42094
L49079 42038
L49079 42151
" />
<path d="M49810 43219
L49697 43163
L49641 43051
L49641 42038
" />
<path d="M50429 43219
L50316 43163
L50260 43051
L50260 42038
" />
<path d="M51778 43219
L51778 42038
L52172 42882
L52566 42038
L52566 43219
" />
<path d="M53634 43219
L53634 42601
L53578 42488
L53466 42432
L53241 42432
L53128 42488
" />
<path d="M53634 43163
L53522 43219
L53241 43219
L53128 43163
L53072 43051
L53072 42938
L53128 42826
L53241 42769
L53522 42769
L53634 42713
" />
<path d="M54197 42432
L54197 43613
" />
<path d="M54197 42488
L54309 42432
L54534 42432
L54647 42488
L54703 42544
L54759 42657
L54759 42994
L54703 43107
L54647 43163
L54534 43219
L54309 43219
L54197 43163
" />
<path d="M55266 43107
L55322 43163
L55266 43219
L55209 43163
L55266 43107
L55266 43219
" />
<path d="M55266 42488
L55322 42544
L55266 42601
L55209 42544
L55266 42488
L55266 42601
" />
<path d="M45881 45087
L46039 45244
" />
<path d="M46039 45087
L45881 45244
" />
<text x="46826.8" y="45756.3"
textLength="29926.9" font-size="1574.8" lengthAdjust="spacingAndGlyphs"
text-anchor="start" opacity="0">0.400mm / 0.0157" (104 holes)</text>
<path d="M47392 44518
L47504 44518
L47616 44575
L47673 44631
L47729 44743
L47785 44968
L47785 45250
L47729 45475
L47673 45587
L47616 45643
L47504 45700
L47392 45700
L47279 45643
L47223 45587
L47167 45475
L47110 45250
L47110 44968
L47167 44743
L47223 44631
L47279 44575
L47392 44518
" />
<path d="M48291 45587
L48348 45643
L48291 45700
L48235 45643
L48291 45587
L48291 45700
" />
<path d="M49360 44912
L49360 45700
" />
<path d="M49079 44462
L48798 45306
L49529 45306
" />
<path d="M50204 44518
L50316 44518
L50429 44575
L50485 44631
L50541 44743
L50597 44968
L50597 45250
L50541 45475
L50485 45587
L50429 45643
L50316 45700
L50204 45700
L50091 45643
L50035 45587
L49979 45475
L49922 45250
L49922 44968
L49979 44743
L50035 44631
L50091 44575
L50204 44518
" />
<path d="M51329 44518
L51441 44518
L51553 44575
L51610 44631
L51666 44743
L51722 44968
L51722 45250
L51666 45475
L51610 45587
L51553 45643
L51441 45700
L51329 45700
L51216 45643
L51160 45587
L51104 45475
L51047 45250
L51047 44968
L51104 44743
L51160 44631
L51216 44575
L51329 44518
" />
<path d="M52228 45700
L52228 44912
" />
<path d="M52228 45025
L52285 44968
L52397 44912
L52566 44912
L52678 44968
L52735 45081
L52735 45700
" />
<path d="M52735 45081
L52791 44968
L52903 44912
L53072 44912
L53185 44968
L53241 45081
L53241 45700
" />
<path d="M53803 45700
L53803 44912
" />
<path d="M53803 45025
L53859 44968
L53972 44912
L54141 44912
L54253 44968
L54309 45081
L54309 45700
" />
<path d="M54309 45081
L54366 44968
L54478 44912
L54647 44912
L54759 44968
L54816 45081
L54816 45700
" />
<path d="M57122 44462
L56109 45981
" />
<path d="M58640 44518
L58753 44518
L58865 44575
L58921 44631
L58978 44743
L59034 44968
L59034 45250
L58978 45475
L58921 45587
L58865 45643
L58753 45700
L58640 45700
L58528 45643
L58471 45587
L58415 45475
L58359 45250
L58359 44968
L58415 44743
L58471 44631
L58528 44575
L58640 44518
" />
<path d="M59540 45587
L59596 45643
L59540 45700
L59484 45643
L59540 45587
L59540 45700
" />
<path d="M60327 44518
L60440 44518
L60552 44575
L60609 44631
L60665 44743
L60721 44968
L60721 45250
L60665 45475
L60609 45587
L60552 45643
L60440 45700
L60327 45700
L60215 45643
L60159 45587
L60102 45475
L60046 45250
L60046 44968
L60102 44743
L60159 44631
L60215 44575
L60327 44518
" />
<path d="M61846 45700
L61171 45700
" />
<path d="M61508 45700
L61508 44518
L61396 44687
L61284 44800
L61171 44856
" />
<path d="M62915 44518
L62352 44518
L62296 45081
L62352 45025
L62465 44968
L62746 44968
L62858 45025
L62915 45081
L62971 45193
L62971 45475
L62915 45587
L62858 45643
L62746 45700
L62465 45700
L62352 45643
L62296 45587
" />
<path d="M63365 44518
L64152 44518
L63646 45700
" />
<path d="M64546 44518
L64546 44743
" />
<path d="M64996 44518
L64996 44743
" />
<path d="M66739 46150
L66683 46093
L66570 45925
L66514 45812
L66458 45643
L66402 45362
L66402 45137
L66458 44856
L66514 44687
L66570 44575
L66683 44406
L66739 44350
" />
<path d="M67808 45700
L67133 45700
" />
<path d="M67470 45700
L67470 44518
L67358 44687
L67245 44800
L67133 44856
" />
<path d="M68539 44518
L68651 44518
L68764 44575
L68820 44631
L68876 44743
L68933 44968
L68933 45250
L68876 45475
L68820 45587
L68764 45643
L68651 45700
L68539 45700
L68426 45643
L68370 45587
L68314 45475
L68258 45250
L68258 44968
L68314 44743
L68370 44631
L68426 44575
L68539 44518
" />
<path d="M69945 44912
L69945 45700
" />
<path d="M69664 44462
L69383 45306
L70114 45306
" />
<path d="M71464 45700
L71464 44518
" />
<path d="M71970 45700
L71970 45081
L71913 44968
L71801 44912
L71632 44912
L71520 44968
L71464 45025
" />
<path d="M72701 45700
L72588 45643
L72532 45587
L72476 45475
L72476 45137
L72532 45025
L72588 44968
L72701 44912
L72870 44912
L72982 44968
L73038 45025
L73095 45137
L73095 45475
L73038 45587
L72982 45643
L72870 45700
L72701 45700
" />
<path d="M73769 45700
L73657 45643
L73601 45531
L73601 44518
" />
<path d="M74669 45643
L74557 45700
L74332 45700
L74219 45643
L74163 45531
L74163 45081
L74219 44968
L74332 44912
L74557 44912
L74669 44968
L74726 45081
L74726 45193
L74163 45306
" />
<path d="M75176 45643
L75288 45700
L75513 45700
L75625 45643
L75682 45531
L75682 45475
L75625 45362
L75513 45306
L75344 45306
L75232 45250
L75176 45137
L75176 45081
L75232 44968
L75344 44912
L75513 44912
L75625 44968
" />
<path d="M76075 46150
L76132 46093
L76244 45925
L76300 45812
L76357 45643
L76413 45362
L76413 45137
L76357 44856
L76300 44687
L76244 44575
L76132 44406
L76075 44350
" />
<circle cx="45921.3" cy="46724.8" r="118.11" /> 
<text x="46826.8" y="47315.4"
textLength="37238.5" font-size="1574.8" lengthAdjust="spacingAndGlyphs"
text-anchor="start" opacity="0">0.600mm / 0.0236" (4 holes + 6 slots)</text>
<path d="M47392 46078
L47504 46078
L47616 46134
L47673 46190
L47729 46302
L47785 46527
L47785 46809
L47729 47034
L47673 47146
L47616 47202
L47504 47259
L47392 47259
L47279 47202
L47223 47146
L47167 47034
L47110 46809
L47110 46527
L47167 46302
L47223 46190
L47279 46134
L47392 46078
" />
<path d="M48291 47146
L48348 47202
L48291 47259
L48235 47202
L48291 47146
L48291 47259
" />
<path d="M49360 46078
L49135 46078
L49023 46134
L48966 46190
L48854 46359
L48798 46584
L48798 47034
L48854 47146
L48910 47202
L49023 47259
L49248 47259
L49360 47202
L49416 47146
L49473 47034
L49473 46752
L49416 46640
L49360 46584
L49248 46527
L49023 46527
L48910 46584
L48854 46640
L48798 46752
" />
<path d="M50204 46078
L50316 46078
L50429 46134
L50485 46190
L50541 46302
L50597 46527
L50597 46809
L50541 47034
L50485 47146
L50429 47202
L50316 47259
L50204 47259
L50091 47202
L50035 47146
L49979 47034
L49922 46809
L49922 46527
L49979 46302
L50035 46190
L50091 46134
L50204 46078
" />
<path d="M51329 46078
L51441 46078
L51553 46134
L51610 46190
L51666 46302
L51722 46527
L51722 46809
L51666 47034
L51610 47146
L51553 47202
L51441 47259
L51329 47259
L51216 47202
L51160 47146
L51104 47034
L51047 46809
L51047 46527
L51104 46302
L51160 46190
L51216 46134
L51329 46078
" />
<path d="M52228 47259
L52228 46471
" />
<path d="M52228 46584
L52285 46527
L52397 46471
L52566 46471
L52678 46527
L52735 46640
L52735 47259
" />
<path d="M52735 46640
L52791 46527
L52903 46471
L53072 46471
L53185 46527
L53241 46640
L53241 47259
" />
<path d="M53803 47259
L53803 46471
" />
<path d="M53803 46584
L53859 46527
L53972 46471
L54141 46471
L54253 46527
L54309 46640
L54309 47259
" />
<path d="M54309 46640
L54366 46527
L54478 46471
L54647 46471
L54759 46527
L54816 46640
L54816 47259
" />
<path d="M57122 46021
L56109 47540
" />
<path d="M58640 46078
L58753 46078
L58865 46134
L58921 46190
L58978 46302
L59034 46527
L59034 46809
L58978 47034
L58921 47146
L58865 47202
L58753 47259
L58640 47259
L58528 47202
L58471 47146
L58415 47034
L58359 46809
L58359 46527
L58415 46302
L58471 46190
L58528 46134
L58640 46078
" />
<path d="M59540 47146
L59596 47202
L59540 47259
L59484 47202
L59540 47146
L59540 47259
" />
<path d="M60327 46078
L60440 46078
L60552 46134
L60609 46190
L60665 46302
L60721 46527
L60721 46809
L60665 47034
L60609 47146
L60552 47202
L60440 47259
L60327 47259
L60215 47202
L60159 47146
L60102 47034
L60046 46809
L60046 46527
L60102 46302
L60159 46190
L60215 46134
L60327 46078
" />
<path d="M61171 46190
L61227 46134
L61340 46078
L61621 46078
L61733 46134
L61790 46190
L61846 46302
L61846 46415
L61790 46584
L61115 47259
L61846 47259
" />
<path d="M62240 46078
L62971 46078
L62577 46527
L62746 46527
L62858 46584
L62915 46640
L62971 46752
L62971 47034
L62915 47146
L62858 47202
L62746 47259
L62408 47259
L62296 47202
L62240 47146
" />
<path d="M63983 46078
L63758 46078
L63646 46134
L63589 46190
L63477 46359
L63421 46584
L63421 47034
L63477 47146
L63533 47202
L63646 47259
L63871 47259
L63983 47202
L64039 47146
L64096 47034
L64096 46752
L64039 46640
L63983 46584
L63871 46527
L63646 46527
L63533 46584
L63477 46640
L63421 46752
" />
<path d="M64546 46078
L64546 46302
" />
<path d="M64996 46078
L64996 46302
" />
<path d="M66739 47709
L66683 47652
L66570 47484
L66514 47371
L66458 47202
L66402 46921
L66402 46696
L66458 46415
L66514 46246
L66570 46134
L66683 45965
L66739 45909
" />
<path d="M67695 46471
L67695 47259
" />
<path d="M67414 46021
L67133 46865
L67864 46865
" />
<path d="M69214 47259
L69214 46078
" />
<path d="M69720 47259
L69720 46640
L69664 46527
L69551 46471
L69383 46471
L69270 46527
L69214 46584
" />
<path d="M70451 47259
L70339 47202
L70282 47146
L70226 47034
L70226 46696
L70282 46584
L70339 46527
L70451 46471
L70620 46471
L70732 46527
L70789 46584
L70845 46696
L70845 47034
L70789 47146
L70732 47202
L70620 47259
L70451 47259
" />
<path d="M71520 47259
L71407 47202
L71351 47090
L71351 46078
" />
<path d="M72420 47202
L72307 47259
L72082 47259
L71970 47202
L71913 47090
L71913 46640
L71970 46527
L72082 46471
L72307 46471
L72420 46527
L72476 46640
L72476 46752
L71913 46865
" />
<path d="M72926 47202
L73038 47259
L73263 47259
L73376 47202
L73432 47090
L73432 47034
L73376 46921
L73263 46865
L73095 46865
L72982 46809
L72926 46696
L72926 46640
L72982 46527
L73095 46471
L73263 46471
L73376 46527
" />
<path d="M74838 46809
L75738 46809
" />
<path d="M75288 47259
L75288 46359
" />
<path d="M77706 46078
L77482 46078
L77369 46134
L77313 46190
L77200 46359
L77144 46584
L77144 47034
L77200 47146
L77257 47202
L77369 47259
L77594 47259
L77706 47202
L77763 47146
L77819 47034
L77819 46752
L77763 46640
L77706 46584
L77594 46527
L77369 46527
L77257 46584
L77200 46640
L77144 46752
" />
<path d="M79169 47202
L79281 47259
L79506 47259
L79619 47202
L79675 47090
L79675 47034
L79619 46921
L79506 46865
L79338 46865
L79225 46809
L79169 46696
L79169 46640
L79225 46527
L79338 46471
L79506 46471
L79619 46527
" />
<path d="M80350 47259
L80237 47202
L80181 47090
L80181 46078
" />
<path d="M80969 47259
L80856 47202
L80800 47146
L80744 47034
L80744 46696
L80800 46584
L80856 46527
L80969 46471
L81137 46471
L81250 46527
L81306 46584
L81362 46696
L81362 47034
L81306 47146
L81250 47202
L81137 47259
L80969 47259
" />
<path d="M81700 46471
L82150 46471
" />
<path d="M81868 46078
L81868 47090
L81925 47202
L82037 47259
L82150 47259
" />
<path d="M82487 47202
L82600 47259
L82825 47259
L82937 47202
L82993 47090
L82993 47034
L82937 46921
L82825 46865
L82656 46865
L82543 46809
L82487 46696
L82487 46640
L82543 46527
L82656 46471
L82825 46471
L82937 46527
" />
<path d="M83387 47709
L83443 47652
L83556 47484
L83612 47371
L83668 47202
L83724 46921
L83724 46696
L83668 46415
L83612 46246
L83556 46134
L83443 45965
L83387 45909
" />
<path d="M45911 48155
L45911 48411
" />
<path d="M45783 48283
L46039 48283
" />
<text x="46826.8" y="48874.4"
textLength="27677.2" font-size="1574.8" lengthAdjust="spacingAndGlyphs"
text-anchor="start" opacity="0">0.650mm / 0.0256" (2 holes)</text>
<path d="M47392 47637
L47504 47637
L47616 47693
L47673 47749
L47729 47862
L47785 48087
L47785 48368
L47729 48593
L47673 48705
L47616 48761
L47504 48818
L47392 48818
L47279 48761
L47223 48705
L47167 48593
L47110 48368
L47110 48087
L47167 47862
L47223 47749
L47279 47693
L47392 47637
" />
<path d="M48291 48705
L48348 48761
L48291 48818
L48235 48761
L48291 48705
L48291 48818
" />
<path d="M49360 47637
L49135 47637
L49023 47693
L48966 47749
L48854 47918
L48798 48143
L48798 48593
L48854 48705
L48910 48761
L49023 48818
L49248 48818
L49360 48761
L49416 48705
L49473 48593
L49473 48311
L49416 48199
L49360 48143
L49248 48087
L49023 48087
L48910 48143
L48854 48199
L48798 48311
" />
<path d="M50541 47637
L49979 47637
L49922 48199
L49979 48143
L50091 48087
L50372 48087
L50485 48143
L50541 48199
L50597 48311
L50597 48593
L50541 48705
L50485 48761
L50372 48818
L50091 48818
L49979 48761
L49922 48705
" />
<path d="M51329 47637
L51441 47637
L51553 47693
L51610 47749
L51666 47862
L51722 48087
L51722 48368
L51666 48593
L51610 48705
L51553 48761
L51441 48818
L51329 48818
L51216 48761
L51160 48705
L51104 48593
L51047 48368
L51047 48087
L51104 47862
L51160 47749
L51216 47693
L51329 47637
" />
<path d="M52228 48818
L52228 48030
" />
<path d="M52228 48143
L52285 48087
L52397 48030
L52566 48030
L52678 48087
L52735 48199
L52735 48818
" />
<path d="M52735 48199
L52791 48087
L52903 48030
L53072 48030
L53185 48087
L53241 48199
L53241 48818
" />
<path d="M53803 48818
L53803 48030
" />
<path d="M53803 48143
L53859 48087
L53972 48030
L54141 48030
L54253 48087
L54309 48199
L54309 48818
" />
<path d="M54309 48199
L54366 48087
L54478 48030
L54647 48030
L54759 48087
L54816 48199
L54816 48818
" />
<path d="M57122 47580
L56109 49099
" />
<path d="M58640 47637
L58753 47637
L58865 47693
L58921 47749
L58978 47862
L59034 48087
L59034 48368
L58978 48593
L58921 48705
L58865 48761
L58753 48818
L58640 48818
L58528 48761
L58471 48705
L58415 48593
L58359 48368
L58359 48087
L58415 47862
L58471 47749
L58528 47693
L58640 47637
" />
<path d="M59540 48705
L59596 48761
L59540 48818
L59484 48761
L59540 48705
L59540 48818
" />
<path d="M60327 47637
L60440 47637
L60552 47693
L60609 47749
L60665 47862
L60721 48087
L60721 48368
L60665 48593
L60609 48705
L60552 48761
L60440 48818
L60327 48818
L60215 48761
L60159 48705
L60102 48593
L60046 48368
L60046 48087
L60102 47862
L60159 47749
L60215 47693
L60327 47637
" />
<path d="M61171 47749
L61227 47693
L61340 47637
L61621 47637
L61733 47693
L61790 47749
L61846 47862
L61846 47974
L61790 48143
L61115 48818
L61846 48818
" />
<path d="M62915 47637
L62352 47637
L62296 48199
L62352 48143
L62465 48087
L62746 48087
L62858 48143
L62915 48199
L62971 48311
L62971 48593
L62915 48705
L62858 48761
L62746 48818
L62465 48818
L62352 48761
L62296 48705
" />
<path d="M63983 47637
L63758 47637
L63646 47693
L63589 47749
L63477 47918
L63421 48143
L63421 48593
L63477 48705
L63533 48761
L63646 48818
L63871 48818
L63983 48761
L64039 48705
L64096 48593
L64096 48311
L64039 48199
L63983 48143
L63871 48087
L63646 48087
L63533 48143
L63477 48199
L63421 48311
" />
<path d="M64546 47637
L64546 47862
" />
<path d="M64996 47637
L64996 47862
" />
<path d="M66739 49268
L66683 49211
L66570 49043
L66514 48930
L66458 48761
L66402 48480
L66402 48255
L66458 47974
L66514 47805
L66570 47693
L66683 47524
L66739 47468
" />
<path d="M67133 47749
L67189 47693
L67302 47637
L67583 47637
L67695 47693
L67751 47749
L67808 47862
L67808 47974
L67751 48143
L67077 48818
L67808 48818
" />
<path d="M69214 48818
L69214 47637
" />
<path d="M69720 48818
L69720 48199
L69664 48087
L69551 48030
L69383 48030
L69270 48087
L69214 48143
" />
<path d="M70451 48818
L70339 48761
L70282 48705
L70226 48593
L70226 48255
L70282 48143
L70339 48087
L70451 48030
L70620 48030
L70732 48087
L70789 48143
L70845 48255
L70845 48593
L70789 48705
L70732 48761
L70620 48818
L70451 48818
" />
<path d="M71520 48818
L71407 48761
L71351 48649
L71351 47637
" />
<path d="M72420 48761
L72307 48818
L72082 48818
L71970 48761
L71913 48649
L71913 48199
L71970 48087
L72082 48030
L72307 48030
L72420 48087
L72476 48199
L72476 48311
L71913 48424
" />
<path d="M72926 48761
L73038 48818
L73263 48818
L73376 48761
L73432 48649
L73432 48593
L73376 48480
L73263 48424
L73095 48424
L72982 48368
L72926 48255
L72926 48199
L72982 48087
L73095 48030
L73263 48030
L73376 48087
" />
<path d="M73826 49268
L73882 49211
L73994 49043
L74051 48930
L74107 48761
L74163 48480
L74163 48255
L74107 47974
L74051 47805
L73994 47693
L73882 47524
L73826 47468
" />
<path style="fill:#000000; fill-opacity:0.0; 
stroke:#000000; stroke-width:118.11; stroke-opacity:1; 
stroke-linecap:round; stroke-linejoin:round;fill:none"
d="M 45990.4,49961.2
45990.4,49724.6
45753.7,49724.6
45753.7,49961.2
Z" /> 
<text x="46826.8" y="50433.5"
textLength="27677.2" font-size="1574.8" lengthAdjust="spacingAndGlyphs"
text-anchor="start" opacity="0">0.850mm / 0.0335" (2 holes)</text>
<path d="M47392 49196
L47504 49196
L47616 49252
L47673 49308
L47729 49421
L47785 49646
L47785 49927
L47729 50152
L47673 50264
L47616 50320
L47504 50377
L47392 50377
L47279 50320
L47223 50264
L47167 50152
L47110 49927
L47110 49646
L47167 49421
L47223 49308
L47279 49252
L47392 49196
" />
<path d="M48291 50264
L48348 50320
L48291 50377
L48235 50320
L48291 50264
L48291 50377
" />
<path d="M49023 49702
L48910 49646
L48854 49589
L48798 49477
L48798 49421
L48854 49308
L48910 49252
L49023 49196
L49248 49196
L49360 49252
L49416 49308
L49473 49421
L49473 49477
L49416 49589
L49360 49646
L49248 49702
L49023 49702
L48910 49758
L48854 49814
L48798 49927
L48798 50152
L48854 50264
L48910 50320
L49023 50377
L49248 50377
L49360 50320
L49416 50264
L49473 50152
L49473 49927
L49416 49814
L49360 49758
L49248 49702
" />
<path d="M50541 49196
L49979 49196
L49922 49758
L49979 49702
L50091 49646
L50372 49646
L50485 49702
L50541 49758
L50597 49871
L50597 50152
L50541 50264
L50485 50320
L50372 50377
L50091 50377
L49979 50320
L49922 50264
" />
<path d="M51329 49196
L51441 49196
L51553 49252
L51610 49308
L51666 49421
L51722 49646
L51722 49927
L51666 50152
L51610 50264
L51553 50320
L51441 50377
L51329 50377
L51216 50320
L51160 50264
L51104 50152
L51047 49927
L51047 49646
L51104 49421
L51160 49308
L51216 49252
L51329 49196
" />
<path d="M52228 50377
L52228 49589
" />
<path d="M52228 49702
L52285 49646
L52397 49589
L52566 49589
L52678 49646
L52735 49758
L52735 50377
" />
<path d="M52735 49758
L52791 49646
L52903 49589
L53072 49589
L53185 49646
L53241 49758
L53241 50377
" />
<path d="M53803 50377
L53803 49589
" />
<path d="M53803 49702
L53859 49646
L53972 49589
L54141 49589
L54253 49646
L54309 49758
L54309 50377
" />
<path d="M54309 49758
L54366 49646
L54478 49589
L54647 49589
L54759 49646
L54816 49758
L54816 50377
" />
<path d="M57122 49139
L56109 50658
" />
<path d="M58640 49196
L58753 49196
L58865 49252
L58921 49308
L58978 49421
L59034 49646
L59034 49927
L58978 50152
L58921 50264
L58865 50320
L58753 50377
L58640 50377
L58528 50320
L58471 50264
L58415 50152
L58359 49927
L58359 49646
L58415 49421
L58471 49308
L58528 49252
L58640 49196
" />
<path d="M59540 50264
L59596 50320
L59540 50377
L59484 50320
L59540 50264
L59540 50377
" />
<path d="M60327 49196
L60440 49196
L60552 49252
L60609 49308
L60665 49421
L60721 49646
L60721 49927
L60665 50152
L60609 50264
L60552 50320
L60440 50377
L60327 50377
L60215 50320
L60159 50264
L60102 50152
L60046 49927
L60046 49646
L60102 49421
L60159 49308
L60215 49252
L60327 49196
" />
<path d="M61115 49196
L61846 49196
L61452 49646
L61621 49646
L61733 49702
L61790 49758
L61846 49871
L61846 50152
L61790 50264
L61733 50320
L61621 50377
L61284 50377
L61171 50320
L61115 50264
" />
<path d="M62240 49196
L62971 49196
L62577 49646
L62746 49646
L62858 49702
L62915 49758
L62971 49871
L62971 50152
L62915 50264
L62858 50320
L62746 50377
L62408 50377
L62296 50320
L62240 50264
" />
<path d="M64039 49196
L63477 49196
L63421 49758
L63477 49702
L63589 49646
L63871 49646
L63983 49702
L64039 49758
L64096 49871
L64096 50152
L64039 50264
L63983 50320
L63871 50377
L63589 50377
L63477 50320
L63421 50264
" />
<path d="M64546 49196
L64546 49421
" />
<path d="M64996 49196
L64996 49421
" />
<path d="M66739 50827
L66683 50770
L66570 50602
L66514 50489
L66458 50320
L66402 50039
L66402 49814
L66458 49533
L66514 49364
L66570 49252
L66683 49083
L66739 49027
" />
<path d="M67133 49308
L67189 49252
L67302 49196
L67583 49196
L67695 49252
L67751 49308
L67808 49421
L67808 49533
L67751 49702
L67077 50377
L67808 50377
" />
<path d="M69214 50377
L69214 49196
" />
<path d="M69720 50377
L69720 49758
L69664 49646
L69551 49589
L69383 49589
L69270 49646
L69214 49702
" />
<path d="M70451 50377
L70339 50320
L70282 50264
L70226 50152
L70226 49814
L70282 49702
L70339 49646
L70451 49589
L70620 49589
L70732 49646
L70789 49702
L70845 49814
L70845 50152
L70789 50264
L70732 50320
L70620 50377
L70451 50377
" />
<path d="M71520 50377
L71407 50320
L71351 50208
L71351 49196
" />
<path d="M72420 50320
L72307 50377
L72082 50377
L71970 50320
L71913 50208
L71913 49758
L71970 49646
L72082 49589
L72307 49589
L72420 49646
L72476 49758
L72476 49871
L71913 49983
" />
<path d="M72926 50320
L73038 50377
L73263 50377
L73376 50320
L73432 50208
L73432 50152
L73376 50039
L73263 49983
L73095 49983
L72982 49927
L72926 49814
L72926 49758
L72982 49646
L73095 49589
L73263 49589
L73376 49646
" />
<path d="M73826 50827
L73882 50770
L73994 50602
L74051 50489
L74107 50320
L74163 50039
L74163 49814
L74107 49533
L74051 49364
L73994 49252
L73882 49083
L73826 49027
" />
<path style="fill:#000000; fill-opacity:0.0; 
stroke:#000000; stroke-width:118.11; stroke-opacity:1; 
stroke-linecap:round; stroke-linejoin:round;fill:none"
d="M 45842.5,51598.8
46039.4,51402
45842.5,51205.1
45645.7,51402
Z" /> 
<text x="46826.8" y="51992.5"
textLength="27677.2" font-size="1574.8" lengthAdjust="spacingAndGlyphs"
text-anchor="start" opacity="0">1.000mm / 0.0394" (6 holes)</text>
<path d="M47785 51936
L47110 51936
" />
<path d="M47448 51936
L47448 50755
L47335 50923
L47223 51036
L47110 51092
" />
<path d="M48291 51823
L48348 51880
L48291 51936
L48235 51880
L48291 51823
L48291 51936
" />
<path d="M49079 50755
L49191 50755
L49304 50811
L49360 50867
L49416 50980
L49473 51205
L49473 51486
L49416 51711
L49360 51823
L49304 51880
L49191 51936
L49079 51936
L48966 51880
L48910 51823
L48854 51711
L48798 51486
L48798 51205
L48854 50980
L48910 50867
L48966 50811
L49079 50755
" />
<path d="M50204 50755
L50316 50755
L50429 50811
L50485 50867
L50541 50980
L50597 51205
L50597 51486
L50541 51711
L50485 51823
L50429 51880
L50316 51936
L50204 51936
L50091 51880
L50035 51823
L49979 51711
L49922 51486
L49922 51205
L49979 50980
L50035 50867
L50091 50811
L50204 50755
" />
<path d="M51329 50755
L51441 50755
L51553 50811
L51610 50867
L51666 50980
L51722 51205
L51722 51486
L51666 51711
L51610 51823
L51553 51880
L51441 51936
L51329 51936
L51216 51880
L51160 51823
L51104 51711
L51047 51486
L51047 51205
L51104 50980
L51160 50867
L51216 50811
L51329 50755
" />
<path d="M52228 51936
L52228 51148
" />
<path d="M52228 51261
L52285 51205
L52397 51148
L52566 51148
L52678 51205
L52735 51317
L52735 51936
" />
<path d="M52735 51317
L52791 51205
L52903 51148
L53072 51148
L53185 51205
L53241 51317
L53241 51936
" />
<path d="M53803 51936
L53803 51148
" />
<path d="M53803 51261
L53859 51205
L53972 51148
L54141 51148
L54253 51205
L54309 51317
L54309 51936
" />
<path d="M54309 51317
L54366 51205
L54478 51148
L54647 51148
L54759 51205
L54816 51317
L54816 51936
" />
<path d="M57122 50698
L56109 52217
" />
<path d="M58640 50755
L58753 50755
L58865 50811
L58921 50867
L58978 50980
L59034 51205
L59034 51486
L58978 51711
L58921 51823
L58865 51880
L58753 51936
L58640 51936
L58528 51880
L58471 51823
L58415 51711
L58359 51486
L58359 51205
L58415 50980
L58471 50867
L58528 50811
L58640 50755
" />
<path d="M59540 51823
L59596 51880
L59540 51936
L59484 51880
L59540 51823
L59540 51936
" />
<path d="M60327 50755
L60440 50755
L60552 50811
L60609 50867
L60665 50980
L60721 51205
L60721 51486
L60665 51711
L60609 51823
L60552 51880
L60440 51936
L60327 51936
L60215 51880
L60159 51823
L60102 51711
L60046 51486
L60046 51205
L60102 50980
L60159 50867
L60215 50811
L60327 50755
" />
<path d="M61115 50755
L61846 50755
L61452 51205
L61621 51205
L61733 51261
L61790 51317
L61846 51430
L61846 51711
L61790 51823
L61733 51880
L61621 51936
L61284 51936
L61171 51880
L61115 51823
" />
<path d="M62408 51936
L62633 51936
L62746 51880
L62802 51823
L62915 51655
L62971 51430
L62971 50980
L62915 50867
L62858 50811
L62746 50755
L62521 50755
L62408 50811
L62352 50867
L62296 50980
L62296 51261
L62352 51373
L62408 51430
L62521 51486
L62746 51486
L62858 51430
L62915 51373
L62971 51261
" />
<path d="M63983 51148
L63983 51936
" />
<path d="M63702 50698
L63421 51542
L64152 51542
" />
<path d="M64546 50755
L64546 50980
" />
<path d="M64996 50755
L64996 50980
" />
<path d="M66739 52386
L66683 52329
L66570 52161
L66514 52048
L66458 51880
L66402 51598
L66402 51373
L66458 51092
L66514 50923
L66570 50811
L66683 50642
L66739 50586
" />
<path d="M67695 50755
L67470 50755
L67358 50811
L67302 50867
L67189 51036
L67133 51261
L67133 51711
L67189 51823
L67245 51880
L67358 51936
L67583 51936
L67695 51880
L67751 51823
L67808 51711
L67808 51430
L67751 51317
L67695 51261
L67583 51205
L67358 51205
L67245 51261
L67189 51317
L67133 51430
" />
<path d="M69214 51936
L69214 50755
" />
<path d="M69720 51936
L69720 51317
L69664 51205
L69551 51148
L69383 51148
L69270 51205
L69214 51261
" />
<path d="M70451 51936
L70339 51880
L70282 51823
L70226 51711
L70226 51373
L70282 51261
L70339 51205
L70451 51148
L70620 51148
L70732 51205
L70789 51261
L70845 51373
L70845 51711
L70789 51823
L70732 51880
L70620 51936
L70451 51936
" />
<path d="M71520 51936
L71407 51880
L71351 51767
L71351 50755
" />
<path d="M72420 51880
L72307 51936
L72082 51936
L71970 51880
L71913 51767
L71913 51317
L71970 51205
L72082 51148
L72307 51148
L72420 51205
L72476 51317
L72476 51430
L71913 51542
" />
<path d="M72926 51880
L73038 51936
L73263 51936
L73376 51880
L73432 51767
L73432 51711
L73376 51598
L73263 51542
L73095 51542
L72982 51486
L72926 51373
L72926 51317
L72982 51205
L73095 51148
L73263 51148
L73376 51205
" />
<path d="M73826 52386
L73882 52329
L73994 52161
L74051 52048
L74107 51880
L74163 51598
L74163 51373
L74107 51092
L74051 50923
L73994 50811
L73882 50642
L73826 50586
" />
</g> 
</svg>
