%TF.GenerationSoftware,KiCad,Pcbnew,(6.0.0)*%
%TF.CreationDate,2022-03-23T01:13:25-05:00*%
%TF.ProjectId,temp sensor,74656d70-2073-4656-9e73-6f722e6b6963,0.3*%
%TF.SameCoordinates,Original*%
%TF.FileFunction,Component,L1,Top*%
%TF.FilePolarity,Positive*%
%FSLAX46Y46*%
G04 Gerber Fmt 4.6, Leading zero omitted, Abs format (unit mm)*
G04 Created by KiCad (PCBNEW (6.0.0)) date 2022-03-23 01:13:25*
%MOMM*%
%LPD*%
G01*
G04 APERTURE LIST*
%TA.AperFunction,ComponentMain*%
%ADD10C,0.300000*%
%TD*%
%TA.AperFunction,ComponentOutline,Courtyard*%
%ADD11C,0.100000*%
%TD*%
%TA.AperFunction,ComponentPin*%
%ADD12P,0.360000X4X0.000000*%
%TD*%
%TA.AperFunction,ComponentPin*%
%ADD13C,0.000000*%
%TD*%
G04 APERTURE END LIST*
D10*
%TO.C,"U5"*%
%TO.CFtp,"SOT-23-6"*%
%TO.CVal,"SN65220"*%
%TO.CLbN,"Package_TO_SOT_SMD"*%
%TO.CMnt,SMD*%
%TO.CRot,0*%
X152913080Y-94140020D03*
D11*
X154963079Y-95840019D02*
X150863081Y-95840019D01*
X150863081Y-92440021D01*
X154963079Y-92440021D01*
X154963079Y-95840019D01*
D12*
%TO.P,"U5","1"*%
X151775580Y-93190020D03*
D13*
%TO.P,"U5","2","GND"*%
X151775580Y-94140020D03*
%TO.P,"U5","3"*%
X151775580Y-95090020D03*
%TO.P,"U5","4","B"*%
X154050580Y-95090020D03*
%TO.P,"U5","5","GND"*%
X154050580Y-94140020D03*
%TO.P,"U5","6","A"*%
X154050580Y-93190020D03*
%TD*%
D10*
%TO.C,"U3"*%
%TO.CFtp,"Bosch_LGA-8_2.5x2.5mm_P0.65mm_ClockwisePinNumbering"*%
%TO.CVal,"BME280"*%
%TO.CLbN,"Package_LGA"*%
%TO.CMnt,SMD*%
%TO.CRot,0*%
X128632000Y-91630000D03*
D11*
X130041999Y-93169999D02*
X127222001Y-93169999D01*
X127222001Y-90090001D01*
X130041999Y-90090001D01*
X130041999Y-93169999D01*
D12*
%TO.P,"U3","1","GND"*%
X127657000Y-90605000D03*
D13*
%TO.P,"U3","2","CSB"*%
X128307000Y-90605000D03*
%TO.P,"U3","3","SDI"*%
X128957000Y-90605000D03*
%TO.P,"U3","4","SCK"*%
X129607000Y-90605000D03*
%TO.P,"U3","5","SDO"*%
X129607000Y-92655000D03*
%TO.P,"U3","6","VDDIO"*%
X128957000Y-92655000D03*
%TO.P,"U3","7","GND"*%
X128307000Y-92655000D03*
%TO.P,"U3","8","VDD"*%
X127657000Y-92655000D03*
%TD*%
D10*
%TO.C,"C2"*%
%TO.CFtp,"C_0402_1005Metric"*%
%TO.CVal,"0.1u"*%
%TO.CLbN,"Capacitor_SMD"*%
%TO.CMnt,SMD*%
%TO.CRot,-90*%
X144668000Y-102390000D03*
D11*
X145127999Y-103299999D02*
X144208001Y-103299999D01*
X144208001Y-101480001D01*
X145127999Y-101480001D01*
X145127999Y-103299999D01*
D12*
%TO.P,"C2","1"*%
X144668000Y-101910000D03*
D13*
%TO.P,"C2","2"*%
X144668000Y-102870000D03*
%TD*%
D10*
%TO.C,"L2"*%
%TO.CFtp,"L_Taiyo-Yuden_MD-4040"*%
%TO.CVal,"2.2uH"*%
%TO.CLbN,"Inductor_SMD"*%
%TO.CMnt,SMD*%
%TO.CRot,180*%
X153033000Y-101921000D03*
D11*
X155282999Y-104170999D02*
X150783001Y-104170999D01*
X150783001Y-99671001D01*
X155282999Y-99671001D01*
X155282999Y-104170999D01*
D12*
%TO.P,"L2","1"*%
X154433000Y-101921000D03*
D13*
%TO.P,"L2","2"*%
X151633000Y-101921000D03*
%TD*%
D10*
%TO.C,"R8"*%
%TO.CFtp,"R_0402_1005Metric"*%
%TO.CVal,"680k"*%
%TO.CLbN,"Resistor_SMD"*%
%TO.CMnt,SMD*%
%TO.CRot,0*%
X147478000Y-101110000D03*
D11*
X148407999Y-101579999D02*
X146548001Y-101579999D01*
X146548001Y-100640001D01*
X148407999Y-100640001D01*
X148407999Y-101579999D01*
D12*
%TO.P,"R8","1"*%
X146968000Y-101110000D03*
D13*
%TO.P,"R8","2"*%
X147988000Y-101110000D03*
%TD*%
D10*
%TO.C,"R1"*%
%TO.CFtp,"R_0402_1005Metric"*%
%TO.CVal,"499R"*%
%TO.CLbN,"Resistor_SMD"*%
%TO.CMnt,SMD*%
%TO.CRot,0*%
X151107760Y-90082220D03*
D11*
X152037759Y-90552219D02*
X150177761Y-90552219D01*
X150177761Y-89612221D01*
X152037759Y-89612221D01*
X152037759Y-90552219D01*
D12*
%TO.P,"R1","1"*%
X150597760Y-90082220D03*
D13*
%TO.P,"R1","2"*%
X151617760Y-90082220D03*
%TD*%
D10*
%TO.C,"R3"*%
%TO.CFtp,"R_0402_1005Metric"*%
%TO.CVal,"200"*%
%TO.CLbN,"Resistor_SMD"*%
%TO.CMnt,SMD*%
%TO.CRot,180*%
X120248000Y-94970000D03*
D11*
X121177999Y-95439999D02*
X119318001Y-95439999D01*
X119318001Y-94500001D01*
X121177999Y-94500001D01*
X121177999Y-95439999D01*
D12*
%TO.P,"R3","1"*%
X120758000Y-94970000D03*
D13*
%TO.P,"R3","2"*%
X119738000Y-94970000D03*
%TD*%
D10*
%TO.C,"R15"*%
%TO.CFtp,"R_0402_1005Metric"*%
%TO.CVal,"100"*%
%TO.CLbN,"Resistor_SMD"*%
%TO.CMnt,SMD*%
%TO.CRot,90*%
X118978000Y-88790000D03*
D11*
X119447999Y-89719999D02*
X118508001Y-89719999D01*
X118508001Y-87860001D01*
X119447999Y-87860001D01*
X119447999Y-89719999D01*
D12*
%TO.P,"R15","1"*%
X118978000Y-89300000D03*
D13*
%TO.P,"R15","2"*%
X118978000Y-88280000D03*
%TD*%
D10*
%TO.C,"R13"*%
%TO.CFtp,"R_0402_1005Metric"*%
%TO.CVal,"27"*%
%TO.CLbN,"Resistor_SMD"*%
%TO.CMnt,SMD*%
%TO.CRot,180*%
X149498000Y-95180000D03*
D11*
X150427999Y-95649999D02*
X148568001Y-95649999D01*
X148568001Y-94710001D01*
X150427999Y-94710001D01*
X150427999Y-95649999D01*
D12*
%TO.P,"R13","1"*%
X150008000Y-95180000D03*
D13*
%TO.P,"R13","2"*%
X148988000Y-95180000D03*
%TD*%
D10*
%TO.C,"U2"*%
%TO.CFtp,"SOT-23-5"*%
%TO.CVal,"TLV62569DBV"*%
%TO.CLbN,"Package_TO_SOT_SMD"*%
%TO.CMnt,SMD*%
%TO.CRot,0*%
X157358000Y-101630000D03*
D11*
X159407999Y-103329999D02*
X155308001Y-103329999D01*
X155308001Y-99930001D01*
X159407999Y-99930001D01*
X159407999Y-103329999D01*
D12*
%TO.P,"U2","1","EN"*%
X156220500Y-100680000D03*
D13*
%TO.P,"U2","2","GND"*%
X156220500Y-101630000D03*
%TO.P,"U2","3","SW"*%
X156220500Y-102580000D03*
%TO.P,"U2","4","VIN"*%
X158495500Y-102580000D03*
%TO.P,"U2","5","FB"*%
X158495500Y-100680000D03*
%TD*%
D10*
%TO.C,"U1"*%
%TO.CFtp,"Sensirion_DFN-4-1EP_2x2mm_P1mm_EP0.7x1.6mm"*%
%TO.CVal,"SHTC3"*%
%TO.CLbN,"Sensor_Humidity"*%
%TO.CMnt,SMD*%
%TO.CRot,90*%
X131408000Y-91640000D03*
D11*
X132657999Y-93089999D02*
X130158001Y-93089999D01*
X130158001Y-90190001D01*
X132657999Y-90190001D01*
X132657999Y-93089999D01*
D12*
%TO.P,"U1","1","VDD"*%
X130908000Y-92565000D03*
D13*
%TO.P,"U1","2","SCL"*%
X131908000Y-92565000D03*
%TO.P,"U1","3","SDA"*%
X131908000Y-90715000D03*
%TO.P,"U1","4","VSS"*%
X130908000Y-90715000D03*
%TO.P,"U1","5","GND"*%
X131408000Y-91640000D03*
%TD*%
D10*
%TO.C,"C8"*%
%TO.CFtp,"C_0805_2012Metric"*%
%TO.CVal,"4.7u"*%
%TO.CLbN,"Capacitor_SMD"*%
%TO.CMnt,SMD*%
%TO.CRot,0*%
X159207200Y-98948240D03*
D11*
X160907199Y-99928239D02*
X157507201Y-99928239D01*
X157507201Y-97968241D01*
X160907199Y-97968241D01*
X160907199Y-99928239D01*
D12*
%TO.P,"C8","1"*%
X158257200Y-98948240D03*
D13*
%TO.P,"C8","2"*%
X160157200Y-98948240D03*
%TD*%
D10*
%TO.C,"R11"*%
%TO.CFtp,"R_0402_1005Metric"*%
%TO.CVal,"15K"*%
%TO.CLbN,"Resistor_SMD"*%
%TO.CMnt,SMD*%
%TO.CRot,180*%
X152491440Y-96672400D03*
D11*
X153421439Y-97142399D02*
X151561441Y-97142399D01*
X151561441Y-96202401D01*
X153421439Y-96202401D01*
X153421439Y-97142399D01*
D12*
%TO.P,"R11","1"*%
X153001440Y-96672400D03*
D13*
%TO.P,"R11","2"*%
X151981440Y-96672400D03*
%TD*%
D10*
%TO.C,"R14"*%
%TO.CFtp,"R_0402_1005Metric"*%
%TO.CVal,"100"*%
%TO.CLbN,"Resistor_SMD"*%
%TO.CMnt,SMD*%
%TO.CRot,0*%
X120268000Y-96360000D03*
D11*
X121197999Y-96829999D02*
X119338001Y-96829999D01*
X119338001Y-95890001D01*
X121197999Y-95890001D01*
X121197999Y-96829999D01*
D12*
%TO.P,"R14","1"*%
X119758000Y-96360000D03*
D13*
%TO.P,"R14","2"*%
X120778000Y-96360000D03*
%TD*%
D10*
%TO.C,"R12"*%
%TO.CFtp,"R_0402_1005Metric"*%
%TO.CVal,"27"*%
%TO.CLbN,"Resistor_SMD"*%
%TO.CMnt,SMD*%
%TO.CRot,180*%
X149494240Y-93799660D03*
D11*
X150424239Y-94269659D02*
X148564241Y-94269659D01*
X148564241Y-93329661D01*
X150424239Y-93329661D01*
X150424239Y-94269659D01*
D12*
%TO.P,"R12","1"*%
X150004240Y-93799660D03*
D13*
%TO.P,"R12","2"*%
X148984240Y-93799660D03*
%TD*%
D10*
%TO.C,"R17"*%
%TO.CFtp,"R_0402_1005Metric"*%
%TO.CVal,"10K"*%
%TO.CLbN,"Resistor_SMD"*%
%TO.CMnt,SMD*%
%TO.CRot,180*%
X128908000Y-87870000D03*
D11*
X129837999Y-88339999D02*
X127978001Y-88339999D01*
X127978001Y-87400001D01*
X129837999Y-87400001D01*
X129837999Y-88339999D01*
D12*
%TO.P,"R17","1"*%
X129418000Y-87870000D03*
D13*
%TO.P,"R17","2"*%
X128398000Y-87870000D03*
%TD*%
D10*
%TO.C,"R2"*%
%TO.CFtp,"R_0402_1005Metric"*%
%TO.CVal,"499R"*%
%TO.CLbN,"Resistor_SMD"*%
%TO.CMnt,SMD*%
%TO.CRot,0*%
X149168000Y-90980000D03*
D11*
X150097999Y-91449999D02*
X148238001Y-91449999D01*
X148238001Y-90510001D01*
X150097999Y-90510001D01*
X150097999Y-91449999D01*
D12*
%TO.P,"R2","1"*%
X148658000Y-90980000D03*
D13*
%TO.P,"R2","2"*%
X149678000Y-90980000D03*
%TD*%
D10*
%TO.C,"C4"*%
%TO.CFtp,"C_0402_1005Metric"*%
%TO.CVal,"0.1u"*%
%TO.CLbN,"Capacitor_SMD"*%
%TO.CMnt,SMD*%
%TO.CRot,0*%
X124248000Y-97100000D03*
D11*
X125157999Y-97559999D02*
X123338001Y-97559999D01*
X123338001Y-96640001D01*
X125157999Y-96640001D01*
X125157999Y-97559999D01*
D12*
%TO.P,"C4","1"*%
X123768000Y-97100000D03*
D13*
%TO.P,"C4","2"*%
X124728000Y-97100000D03*
%TD*%
D10*
%TO.C,"J1"*%
%TO.CFtp,"USB_C_Receptacle_HRO_TYPE-C-31-M-12"*%
%TO.CVal,"USB_C_Receptacle_USB2.0"*%
%TO.CLbN,"Connector_USB"*%
%TO.CMnt,SMD*%
%TO.CRot,90*%
X161096960Y-92643960D03*
D11*
X165246959Y-97963959D02*
X155826961Y-97963959D01*
X155826961Y-87323961D01*
X165246959Y-87323961D01*
X165246959Y-97963959D01*
D12*
%TO.P,"J1","A1","GND"*%
X157051960Y-95893960D03*
D13*
%TO.P,"J1",*%
X158496960Y-89753960D03*
X158496960Y-95533960D03*
%TO.P,"J1","A4","VBUS"*%
X157051960Y-95093960D03*
%TO.P,"J1","A5","CC1"*%
X157051960Y-93893960D03*
%TO.P,"J1","A6","D+"*%
X157051960Y-92893960D03*
%TO.P,"J1","A7","D-"*%
X157051960Y-92393960D03*
%TO.P,"J1","A8","SBU1"*%
X157051960Y-91393960D03*
%TO.P,"J1","A9","VBUS"*%
X157051960Y-90193960D03*
%TO.P,"J1","A12","GND"*%
X157051960Y-89393960D03*
%TO.P,"J1","B1","GND"*%
X157051960Y-89393960D03*
%TO.P,"J1","B4","VBUS"*%
X157051960Y-90193960D03*
%TO.P,"J1","B5","CC2"*%
X157051960Y-90893960D03*
%TO.P,"J1","B6","D+"*%
X157051960Y-91893960D03*
%TO.P,"J1","B7","D-"*%
X157051960Y-93393960D03*
%TO.P,"J1","B8","SBU2"*%
X157051960Y-94393960D03*
%TO.P,"J1","B9","VBUS"*%
X157051960Y-95093960D03*
%TO.P,"J1","B12","GND"*%
X157051960Y-95893960D03*
%TO.P,"J1","S1","SHIELD"*%
X157966960Y-88323960D03*
X157966960Y-96963960D03*
X162146960Y-96963960D03*
X162146960Y-88323960D03*
%TD*%
D10*
%TO.C,"R5"*%
%TO.CFtp,"R_0402_1005Metric"*%
%TO.CVal,"10K"*%
%TO.CLbN,"Resistor_SMD"*%
%TO.CMnt,SMD*%
%TO.CRot,90*%
X125878000Y-99110000D03*
D11*
X126347999Y-100039999D02*
X125408001Y-100039999D01*
X125408001Y-98180001D01*
X126347999Y-98180001D01*
X126347999Y-100039999D01*
D12*
%TO.P,"R5","1"*%
X125878000Y-99620000D03*
D13*
%TO.P,"R5","2"*%
X125878000Y-98600000D03*
%TD*%
D10*
%TO.C,"R7"*%
%TO.CFtp,"R_0402_1005Metric"*%
%TO.CVal,"10K"*%
%TO.CLbN,"Resistor_SMD"*%
%TO.CMnt,SMD*%
%TO.CRot,180*%
X131238000Y-94100000D03*
D11*
X132167999Y-94569999D02*
X130308001Y-94569999D01*
X130308001Y-93630001D01*
X132167999Y-93630001D01*
X132167999Y-94569999D01*
D12*
%TO.P,"R7","1"*%
X131748000Y-94100000D03*
D13*
%TO.P,"R7","2"*%
X130728000Y-94100000D03*
%TD*%
D10*
%TO.C,"R19"*%
%TO.CFtp,"R_0402_1005Metric"*%
%TO.CVal,"5.1k"*%
%TO.CLbN,"Resistor_SMD"*%
%TO.CMnt,SMD*%
%TO.CRot,0*%
X154418000Y-90330000D03*
D11*
X155347999Y-90799999D02*
X153488001Y-90799999D01*
X153488001Y-89860001D01*
X155347999Y-89860001D01*
X155347999Y-90799999D01*
D12*
%TO.P,"R19","1"*%
X153908000Y-90330000D03*
D13*
%TO.P,"R19","2"*%
X154928000Y-90330000D03*
%TD*%
D10*
%TO.C,"C6"*%
%TO.CFtp,"C_0402_1005Metric"*%
%TO.CVal,"0.01u"*%
%TO.CLbN,"Capacitor_SMD"*%
%TO.CMnt,SMD*%
%TO.CRot,180*%
X149498000Y-98483840D03*
D11*
X150407999Y-98943839D02*
X148588001Y-98943839D01*
X148588001Y-98023841D01*
X150407999Y-98023841D01*
X150407999Y-98943839D01*
D12*
%TO.P,"C6","1"*%
X149978000Y-98483840D03*
D13*
%TO.P,"C6","2"*%
X149018000Y-98483840D03*
%TD*%
D10*
%TO.C,"SW2"*%
%TO.CFtp,"SW_Push_1P1T-MP_NO_Horizontal_TL6340"*%
%TO.CVal,"SW_Push_Right_Angle"*%
%TO.CLbN,"Twig"*%
%TO.CMnt,SMD*%
%TO.CRot,-6*%
X128575000Y-103150000D03*
D11*
X131620504Y-101247922D02*
X131165805Y-105574092D01*
X125536813Y-104982461D01*
X125991512Y-100656291D01*
X131620504Y-101247922D01*
D12*
%TO.P,"SW2","1","1"*%
X130066633Y-102351544D03*
D13*
%TO.P,"SW2",*%
X128689981Y-102056026D03*
%TO.P,"SW2","2","2"*%
X127281971Y-102058864D03*
%TO.P,"SW2","MP"*%
X126718186Y-103357044D03*
X130348191Y-103738573D03*
%TD*%
D10*
%TO.C,"R4"*%
%TO.CFtp,"R_0402_1005Metric"*%
%TO.CVal,"10K"*%
%TO.CLbN,"Resistor_SMD"*%
%TO.CMnt,SMD*%
%TO.CRot,-90*%
X130178000Y-98600000D03*
D11*
X130647999Y-99529999D02*
X129708001Y-99529999D01*
X129708001Y-97670001D01*
X130647999Y-97670001D01*
X130647999Y-99529999D01*
D12*
%TO.P,"R4","1"*%
X130178000Y-98090000D03*
D13*
%TO.P,"R4","2"*%
X130178000Y-99110000D03*
%TD*%
D10*
%TO.C,"C5"*%
%TO.CFtp,"C_0402_1005Metric"*%
%TO.CVal,"0.1u"*%
%TO.CLbN,"Capacitor_SMD"*%
%TO.CMnt,SMD*%
%TO.CRot,90*%
X131848000Y-87660000D03*
D11*
X132307999Y-88569999D02*
X131388001Y-88569999D01*
X131388001Y-86750001D01*
X132307999Y-86750001D01*
X132307999Y-88569999D01*
D12*
%TO.P,"C5","1"*%
X131848000Y-88140000D03*
D13*
%TO.P,"C5","2"*%
X131848000Y-87180000D03*
%TD*%
D10*
%TO.C,"R9"*%
%TO.CFtp,"R_0402_1005Metric"*%
%TO.CVal,"150K"*%
%TO.CLbN,"Resistor_SMD"*%
%TO.CMnt,SMD*%
%TO.CRot,180*%
X147318000Y-103400000D03*
D11*
X148247999Y-103869999D02*
X146388001Y-103869999D01*
X146388001Y-102930001D01*
X148247999Y-102930001D01*
X148247999Y-103869999D01*
D12*
%TO.P,"R9","1"*%
X147828000Y-103400000D03*
D13*
%TO.P,"R9","2"*%
X146808000Y-103400000D03*
%TD*%
D10*
%TO.C,"Q1"*%
%TO.CFtp,"SOT-363_SC-70-6"*%
%TO.CVal,"BC847BDW1"*%
%TO.CLbN,"Package_TO_SOT_SMD"*%
%TO.CMnt,SMD*%
%TO.CRot,90*%
X128248000Y-98650000D03*
D11*
X129647999Y-100249999D02*
X126848001Y-100249999D01*
X126848001Y-97050001D01*
X129647999Y-97050001D01*
X129647999Y-100249999D01*
D12*
%TO.P,"Q1","1","E1"*%
X127598000Y-99600000D03*
D13*
%TO.P,"Q1","2","B1"*%
X128248000Y-99600000D03*
%TO.P,"Q1","3","C2"*%
X128898000Y-99600000D03*
%TO.P,"Q1","4","E2"*%
X128898000Y-97700000D03*
%TO.P,"Q1","5","B2"*%
X128248000Y-97700000D03*
%TO.P,"Q1","6","C1"*%
X127598000Y-97700000D03*
%TD*%
D10*
%TO.C,"D2"*%
%TO.CFtp,"LED_Cree-PLCC6_4.7x1.5mm"*%
%TO.CVal,"QLS6A"*%
%TO.CLbN,"LED_SMD"*%
%TO.CMnt,SMD*%
%TO.CRot,-90*%
X118230000Y-92630000D03*
D11*
X119229999Y-95229999D02*
X117230001Y-95229999D01*
X117230001Y-90030001D01*
X119229999Y-90030001D01*
X119229999Y-95229999D01*
D12*
%TO.P,"D2","1","AB"*%
X117895000Y-90610000D03*
D13*
%TO.P,"D2","2","KB"*%
X118480000Y-91420000D03*
%TO.P,"D2","3","AR"*%
X118480000Y-92100000D03*
%TO.P,"D2","4","KR"*%
X118480000Y-93160000D03*
%TO.P,"D2","5","AG"*%
X118480000Y-93840000D03*
%TO.P,"D2","6","KR"*%
X117895000Y-94650000D03*
%TD*%
D10*
%TO.C,"C1"*%
%TO.CFtp,"C_0402_1005Metric"*%
%TO.CVal,"0.1u"*%
%TO.CLbN,"Capacitor_SMD"*%
%TO.CMnt,SMD*%
%TO.CRot,180*%
X120448000Y-88590000D03*
D11*
X121357999Y-89049999D02*
X119538001Y-89049999D01*
X119538001Y-88130001D01*
X121357999Y-88130001D01*
X121357999Y-89049999D01*
D12*
%TO.P,"C1","1"*%
X120928000Y-88590000D03*
D13*
%TO.P,"C1","2"*%
X119968000Y-88590000D03*
%TD*%
D10*
%TO.C,"R16"*%
%TO.CFtp,"R_0402_1005Metric"*%
%TO.CVal,"10K"*%
%TO.CLbN,"Resistor_SMD"*%
%TO.CMnt,SMD*%
%TO.CRot,180*%
X126958000Y-87910000D03*
D11*
X127887999Y-88379999D02*
X126028001Y-88379999D01*
X126028001Y-87440001D01*
X127887999Y-87440001D01*
X127887999Y-88379999D01*
D12*
%TO.P,"R16","1"*%
X127468000Y-87910000D03*
D13*
%TO.P,"R16","2"*%
X126448000Y-87910000D03*
%TD*%
D10*
%TO.C,"R6"*%
%TO.CFtp,"R_0402_1005Metric"*%
%TO.CVal,"NP"*%
%TO.CLbN,"Resistor_SMD"*%
%TO.CMnt,SMD*%
%TO.CRot,90*%
X145938000Y-101120000D03*
D11*
X146407999Y-102049999D02*
X145468001Y-102049999D01*
X145468001Y-100190001D01*
X146407999Y-100190001D01*
X146407999Y-102049999D01*
D12*
%TO.P,"R6","1"*%
X145938000Y-101630000D03*
D13*
%TO.P,"R6","2"*%
X145938000Y-100610000D03*
%TD*%
D10*
%TO.C,"SW1"*%
%TO.CFtp,"SW_Push_1P1T-MP_NO_Horizontal_TL6340"*%
%TO.CVal,"SW_Push_Right_Angle"*%
%TO.CLbN,"Twig"*%
%TO.CMnt,SMD*%
%TO.CRot,-41*%
X122475000Y-100600000D03*
D11*
X123206862Y-104071724D02*
X118935207Y-100358430D01*
X121789061Y-97075446D01*
X126060717Y-100788739D01*
X123206862Y-104071724D01*
D12*
%TO.P,"SW1","1","1"*%
X124154849Y-100801509D03*
D13*
%TO.P,"SW1",*%
X123196665Y-99769819D03*
%TO.P,"SW1","2","2"*%
X122041663Y-98964543D03*
%TO.P,"SW1","MP"*%
X120835231Y-99704576D03*
X123589921Y-102099192D03*
%TD*%
D10*
%TO.C,"R10"*%
%TO.CFtp,"R_0402_1005Metric"*%
%TO.CVal,"15K"*%
%TO.CLbN,"Resistor_SMD"*%
%TO.CMnt,SMD*%
%TO.CRot,0*%
X152478000Y-91570000D03*
D11*
X153407999Y-92039999D02*
X151548001Y-92039999D01*
X151548001Y-91100001D01*
X153407999Y-91100001D01*
X153407999Y-92039999D01*
D12*
%TO.P,"R10","1"*%
X151968000Y-91570000D03*
D13*
%TO.P,"R10","2"*%
X152988000Y-91570000D03*
%TD*%
D10*
%TO.C,"R20"*%
%TO.CFtp,"R_0402_1005Metric"*%
%TO.CVal,"5.1k"*%
%TO.CLbN,"Resistor_SMD"*%
%TO.CMnt,SMD*%
%TO.CRot,180*%
X152676860Y-98160840D03*
D11*
X153606859Y-98630839D02*
X151746861Y-98630839D01*
X151746861Y-97690841D01*
X153606859Y-97690841D01*
X153606859Y-98630839D01*
D12*
%TO.P,"R20","1"*%
X153186860Y-98160840D03*
D13*
%TO.P,"R20","2"*%
X152166860Y-98160840D03*
%TD*%
D10*
%TO.C,"IC1"*%
%TO.CFtp,"ESP32C3MINI1"*%
%TO.CVal,"ESP32-C3-MINI-1"*%
%TO.CLbN,"Twig"*%
%TO.CMnt,SMD*%
%TO.CRot,0*%
X140330000Y-88940000D03*
D11*
X147929999Y-98239999D02*
X132730001Y-98239999D01*
X132730001Y-79640001D01*
X147929999Y-79640001D01*
X147929999Y-98239999D01*
D12*
%TO.P,"IC1","1","GND_1"*%
X134430000Y-87640000D03*
D13*
%TO.P,"IC1","2","GND_2"*%
X134430000Y-88440000D03*
%TO.P,"IC1","3","3V3"*%
X134430000Y-89240000D03*
%TO.P,"IC1","4","NC_1"*%
X134430000Y-90040000D03*
%TO.P,"IC1","5","IO2"*%
X134430000Y-90840000D03*
%TO.P,"IC1","6","IO3"*%
X134430000Y-91640000D03*
%TO.P,"IC1","7","NC_2"*%
X134430000Y-92440000D03*
%TO.P,"IC1","8","EN"*%
X134430000Y-93240000D03*
%TO.P,"IC1","9","NC_3"*%
X134430000Y-94040000D03*
%TO.P,"IC1","10","NC_4"*%
X134430000Y-94840000D03*
%TO.P,"IC1","11","GND_3"*%
X134430000Y-95640000D03*
%TO.P,"IC1","12","IO0"*%
X135530000Y-96540000D03*
%TO.P,"IC1","13","IO1"*%
X136330000Y-96540000D03*
%TO.P,"IC1","14","GND_4"*%
X137130000Y-96540000D03*
%TO.P,"IC1","15","NC_5"*%
X137930000Y-96540000D03*
%TO.P,"IC1","16","IO10"*%
X138730000Y-96540000D03*
%TO.P,"IC1","17","NC_6"*%
X139530000Y-96540000D03*
%TO.P,"IC1","18","IO4"*%
X140330000Y-96540000D03*
%TO.P,"IC1","19","IO5"*%
X141130000Y-96540000D03*
%TO.P,"IC1","20","IO6"*%
X141930000Y-96540000D03*
%TO.P,"IC1","21","IO7"*%
X142730000Y-96540000D03*
%TO.P,"IC1","22","IO8"*%
X143530000Y-96540000D03*
%TO.P,"IC1","23","IO9"*%
X144330000Y-96540000D03*
%TO.P,"IC1","24","NC_7"*%
X145130000Y-96540000D03*
%TO.P,"IC1","25","NC_8"*%
X146230000Y-95640000D03*
%TO.P,"IC1","26","IO18"*%
X146230000Y-94840000D03*
%TO.P,"IC1","27","IO19"*%
X146230000Y-94040000D03*
%TO.P,"IC1","28","NC_9"*%
X146230000Y-93240000D03*
%TO.P,"IC1","29","NC_10"*%
X146230000Y-92440000D03*
%TO.P,"IC1","30","RXD0"*%
X146230000Y-91640000D03*
%TO.P,"IC1","31","TXD0"*%
X146230000Y-90840000D03*
%TO.P,"IC1","32","NC_11"*%
X146230000Y-90040000D03*
%TO.P,"IC1","33","NC_12"*%
X146230000Y-89240000D03*
%TO.P,"IC1","34","NC_13"*%
X146230000Y-88440000D03*
%TO.P,"IC1","35","NC_14"*%
X146230000Y-87640000D03*
%TO.P,"IC1","36","GND_5"*%
X145130000Y-86740000D03*
%TO.P,"IC1","37","GND_6"*%
X144330000Y-86740000D03*
%TO.P,"IC1","38","GND_7"*%
X143530000Y-86740000D03*
%TO.P,"IC1","39","GND_8"*%
X142730000Y-86740000D03*
%TO.P,"IC1","40","GND_9"*%
X141930000Y-86740000D03*
%TO.P,"IC1","41","GND_10"*%
X141130000Y-86740000D03*
%TO.P,"IC1","42","GND_11"*%
X140330000Y-86740000D03*
%TO.P,"IC1","43","GND_12"*%
X139530000Y-86740000D03*
%TO.P,"IC1","44","GND_13"*%
X138730000Y-86740000D03*
%TO.P,"IC1","45","GND_14"*%
X137930000Y-86740000D03*
%TO.P,"IC1","46","GND_15"*%
X137130000Y-86740000D03*
%TO.P,"IC1","47","GND_16"*%
X136330000Y-86740000D03*
%TO.P,"IC1","48","GND_17"*%
X135530000Y-86740000D03*
%TO.P,"IC1","49","GND_18"*%
X140330000Y-91640000D03*
%TO.P,"IC1","50","GND_19"*%
X146280000Y-86690000D03*
%TO.P,"IC1","51","GND_20"*%
X146280000Y-96590000D03*
%TO.P,"IC1","52","GND_21"*%
X134380000Y-96590000D03*
%TO.P,"IC1","53","GND_22"*%
X134380000Y-86690000D03*
%TO.P,"IC1","54","GND_23"*%
X138355000Y-89665000D03*
%TO.P,"IC1","55","GND_24"*%
X138355000Y-91640000D03*
%TO.P,"IC1","56","GND_25"*%
X138355000Y-93615000D03*
%TO.P,"IC1","57","GND_26"*%
X140330000Y-93615000D03*
%TO.P,"IC1","58","GND_27"*%
X142305000Y-93615000D03*
%TO.P,"IC1","59","GND_28"*%
X142305000Y-91640000D03*
%TO.P,"IC1","60","GND_29"*%
X142305000Y-89665000D03*
%TO.P,"IC1","61","GND_30"*%
X140330000Y-89665000D03*
%TD*%
D10*
%TO.C,"LOGO1"*%
%TO.CFtp,"FabDrawing-2Layer-Metric"*%
%TO.CVal,"Logo_Open_Hardware_Small"*%
%TO.CLbN,"Twig"*%
%TO.CMnt,TH*%
%TO.CRot,0*%
X53550000Y-19330000D03*
%TD*%
%TO.C,"R21"*%
%TO.CFtp,"R_0402_1005Metric"*%
%TO.CVal,"10K"*%
%TO.CLbN,"Resistor_SMD"*%
%TO.CMnt,SMD*%
%TO.CRot,180*%
X143538000Y-98950000D03*
D11*
X144467999Y-99419999D02*
X142608001Y-99419999D01*
X142608001Y-98480001D01*
X144467999Y-98480001D01*
X144467999Y-99419999D01*
D12*
%TO.P,"R21","1"*%
X144048000Y-98950000D03*
D13*
%TO.P,"R21","2"*%
X143028000Y-98950000D03*
%TD*%
D10*
%TO.C,"C3"*%
%TO.CFtp,"C_1206_3216Metric_Pad1.42x1.75mm_HandSolder"*%
%TO.CVal,"10u"*%
%TO.CLbN,"Capacitor_SMD"*%
%TO.CMnt,SMD*%
%TO.CRot,180*%
X121978000Y-86760000D03*
D11*
X124427999Y-87879999D02*
X119528001Y-87879999D01*
X119528001Y-85640001D01*
X124427999Y-85640001D01*
X124427999Y-87879999D01*
D12*
%TO.P,"C3","1"*%
X123465500Y-86760000D03*
D13*
%TO.P,"C3","2"*%
X120490500Y-86760000D03*
%TD*%
D10*
%TO.C,"C9"*%
%TO.CFtp,"C_1206_3216Metric_Pad1.42x1.75mm_HandSolder"*%
%TO.CVal,"10u"*%
%TO.CLbN,"Capacitor_SMD"*%
%TO.CMnt,SMD*%
%TO.CRot,-90*%
X149598000Y-101700000D03*
D11*
X150717999Y-104149999D02*
X148478001Y-104149999D01*
X148478001Y-99250001D01*
X150717999Y-99250001D01*
X150717999Y-104149999D01*
D12*
%TO.P,"C9","1"*%
X149598000Y-100212500D03*
D13*
%TO.P,"C9","2"*%
X149598000Y-103187500D03*
%TD*%
D10*
%TO.C,"C10"*%
%TO.CFtp,"C_0402_1005Metric"*%
%TO.CVal,"0.1u"*%
%TO.CLbN,"Capacitor_SMD"*%
%TO.CMnt,SMD*%
%TO.CRot,180*%
X122728000Y-89860000D03*
D11*
X123637999Y-90319999D02*
X121818001Y-90319999D01*
X121818001Y-89400001D01*
X123637999Y-89400001D01*
X123637999Y-90319999D01*
D12*
%TO.P,"C10","1"*%
X123208000Y-89860000D03*
D13*
%TO.P,"C10","2"*%
X122248000Y-89860000D03*
%TD*%
D10*
%TO.C,"U6"*%
%TO.CFtp,"PSON80P310X200X110-8N"*%
%TO.CVal,"AS7341-DLGT"*%
%TO.CLbN,"Twig"*%
%TO.CMnt,TH*%
%TO.CRot,90*%
X125358000Y-91630000D03*
D11*
X127157999Y-92879999D02*
X123558001Y-92879999D01*
X123558001Y-90380001D01*
X127157999Y-90380001D01*
X127157999Y-92879999D01*
D12*
%TO.P,"U6","1","VDD"*%
X124158000Y-92270000D03*
D13*
%TO.P,"U6","2","SCL"*%
X124958000Y-92270000D03*
%TO.P,"U6","3","GND"*%
X125758000Y-92270000D03*
%TO.P,"U6","4","LDR"*%
X126558000Y-92270000D03*
%TO.P,"U6","5","PGND"*%
X126558000Y-90990000D03*
%TO.P,"U6","6","GPIO"*%
X125758000Y-90990000D03*
%TO.P,"U6","7","INT"*%
X124958000Y-90990000D03*
%TO.P,"U6","8","SDA"*%
X124158000Y-90990000D03*
%TD*%
D10*
%TO.C,"C7"*%
%TO.CFtp,"C_0603_1608Metric"*%
%TO.CVal,"1u"*%
%TO.CLbN,"Capacitor_SMD"*%
%TO.CMnt,SMD*%
%TO.CRot,0*%
X124498000Y-88650000D03*
D11*
X125977999Y-89379999D02*
X123018001Y-89379999D01*
X123018001Y-87920001D01*
X125977999Y-87920001D01*
X125977999Y-89379999D01*
D12*
%TO.P,"C7","1"*%
X123723000Y-88650000D03*
D13*
%TO.P,"C7","2"*%
X125273000Y-88650000D03*
%TD*%
D10*
%TO.C,"SYM1"*%
%TO.CFtp,"Sensor Keepout block"*%
%TO.CVal,"SYM_Arrow_Normal"*%
%TO.CLbN,"Twig"*%
%TO.CMnt,Other*%
%TO.CRot,0*%
X132578000Y-92720000D03*
%TD*%
%TO.C,"U4"*%
%TO.CFtp,"SOT-353_SC-70-5"*%
%TO.CVal,"MIC5365-3.3YC5"*%
%TO.CLbN,"Package_TO_SOT_SMD"*%
%TO.CMnt,SMD*%
%TO.CRot,0*%
X121898000Y-91730000D03*
D11*
X123497999Y-93129999D02*
X120298001Y-93129999D01*
X120298001Y-90330001D01*
X123497999Y-90330001D01*
X123497999Y-93129999D01*
D12*
%TO.P,"U4","1","VIN"*%
X120948000Y-91080000D03*
D13*
%TO.P,"U4","2","GND"*%
X120948000Y-91730000D03*
%TO.P,"U4","3","EN"*%
X120948000Y-92380000D03*
%TO.P,"U4","4","NC"*%
X122848000Y-92380000D03*
%TO.P,"U4","5","VOUT"*%
X122848000Y-91080000D03*
%TD*%
M02*
