G04 #@! TF.GenerationSoftware,KiCad,Pcbnew,(5.1.10)-1*
G04 #@! TF.CreationDate,2021-07-19T19:08:23-05:00*
G04 #@! TF.ProjectId,temp sensor,74656d70-2073-4656-9e73-6f722e6b6963,0.2*
G04 #@! TF.SameCoordinates,Original*
G04 #@! TF.FileFunction,Soldermask,Bot*
G04 #@! TF.FilePolarity,Negative*
%FSLAX45Y45*%
G04 Gerber Fmt 4.5, Leading zero omitted, Abs format (unit mm)*
G04 Created by KiCad (PCBNEW (5.1.10)-1) date 2021-07-19 19:08:23*
%MOMM*%
%LPD*%
G01*
G04 APERTURE LIST*
%ADD10C,0.100000*%
%ADD11O,1.700000X1.700000*%
%ADD12R,1.700000X1.700000*%
%ADD13R,1.900000X1.500000*%
%ADD14C,1.450000*%
%ADD15R,1.350000X0.400000*%
%ADD16O,1.900000X1.200000*%
%ADD17R,1.900000X1.200000*%
%ADD18O,1.600000X1.000000*%
%ADD19C,0.650000*%
%ADD20O,2.100000X1.000000*%
G04 APERTURE END LIST*
D10*
G04 #@! TO.C,SW1*
G36*
X12073917Y-9909106D02*
G01*
X12104105Y-9935349D01*
X12103608Y-9935920D01*
X12105052Y-9936745D01*
X12108253Y-9939018D01*
X12111215Y-9941593D01*
X12113911Y-9944447D01*
X12116314Y-9947550D01*
X12118402Y-9950875D01*
X12120153Y-9954388D01*
X12121552Y-9958056D01*
X12122584Y-9961843D01*
X12123241Y-9965713D01*
X12123514Y-9969629D01*
X12123403Y-9973552D01*
X12122908Y-9977447D01*
X12122033Y-9981273D01*
X12120788Y-9984996D01*
X12119183Y-9988578D01*
X12117235Y-9991986D01*
X12114963Y-9995187D01*
X12112387Y-9998150D01*
X12109534Y-10000846D01*
X12106430Y-10003249D01*
X12103106Y-10005336D01*
X12099593Y-10007088D01*
X12095925Y-10008486D01*
X12092138Y-10009519D01*
X12090643Y-10009772D01*
X12118064Y-10033609D01*
X12075421Y-10082665D01*
X11988629Y-10007219D01*
X12073917Y-9909106D01*
G37*
G36*
X12291648Y-10184503D02*
G01*
X12319069Y-10208340D01*
X12319112Y-10206824D01*
X12319607Y-10202930D01*
X12320482Y-10199104D01*
X12321728Y-10195381D01*
X12323332Y-10191798D01*
X12325280Y-10188390D01*
X12327552Y-10185190D01*
X12330128Y-10182227D01*
X12332981Y-10179531D01*
X12336085Y-10177128D01*
X12339409Y-10175041D01*
X12342922Y-10173289D01*
X12346590Y-10171891D01*
X12350377Y-10170858D01*
X12354247Y-10170202D01*
X12358163Y-10169928D01*
X12362087Y-10170039D01*
X12365981Y-10170535D01*
X12369808Y-10171409D01*
X12373530Y-10172655D01*
X12377113Y-10174259D01*
X12380521Y-10176207D01*
X12383722Y-10178480D01*
X12386684Y-10181055D01*
X12389380Y-10183908D01*
X12390398Y-10185223D01*
X12390895Y-10184651D01*
X12421083Y-10210894D01*
X12335795Y-10309006D01*
X12249004Y-10233559D01*
X12291648Y-10184503D01*
G37*
G04 #@! TD*
D11*
G04 #@! TO.C,J2*
X12683236Y-9896602D03*
D12*
X12937236Y-9896602D03*
G04 #@! TD*
D13*
G04 #@! TO.C,J4*
X16326250Y-9365000D03*
D14*
X16056250Y-9015000D03*
D15*
X16056250Y-9200000D03*
X16056250Y-9135000D03*
X16056250Y-9395000D03*
X16056250Y-9330000D03*
X16056250Y-9265000D03*
D14*
X16056250Y-9515000D03*
D13*
X16326250Y-9165000D03*
D16*
X16326250Y-8915000D03*
X16326250Y-9615000D03*
D17*
X16326250Y-9555000D03*
X16326250Y-8975000D03*
G04 #@! TD*
D11*
G04 #@! TO.C,J5*
X14975078Y-8750808D03*
D12*
X15229078Y-8750808D03*
G04 #@! TD*
D11*
G04 #@! TO.C,J6*
X13328500Y-10365000D03*
D12*
X13582500Y-10365000D03*
G04 #@! TD*
D10*
G04 #@! TO.C,SW2*
G36*
X12628760Y-10290958D02*
G01*
X12668541Y-10295140D01*
X12668462Y-10295893D01*
X12670117Y-10295741D01*
X12674043Y-10295766D01*
X12677947Y-10296177D01*
X12681791Y-10296968D01*
X12685540Y-10298132D01*
X12689157Y-10299658D01*
X12692607Y-10301531D01*
X12695856Y-10303733D01*
X12698874Y-10306243D01*
X12701632Y-10309037D01*
X12704102Y-10312087D01*
X12706262Y-10315365D01*
X12708089Y-10318839D01*
X12709568Y-10322476D01*
X12710683Y-10326239D01*
X12711423Y-10330094D01*
X12711782Y-10334003D01*
X12711757Y-10337929D01*
X12711346Y-10341832D01*
X12710555Y-10345677D01*
X12709391Y-10349426D01*
X12707865Y-10353043D01*
X12705992Y-10356493D01*
X12703790Y-10359742D01*
X12701280Y-10362760D01*
X12700201Y-10363825D01*
X12736336Y-10367623D01*
X12729541Y-10432267D01*
X12615171Y-10420246D01*
X12628760Y-10290958D01*
G37*
G36*
X12965076Y-10391665D02*
G01*
X13001210Y-10395463D01*
X13000376Y-10394196D01*
X12998548Y-10390723D01*
X12997070Y-10387086D01*
X12995955Y-10383322D01*
X12995214Y-10379467D01*
X12994855Y-10375559D01*
X12994881Y-10371633D01*
X12995291Y-10367729D01*
X12996082Y-10363884D01*
X12997246Y-10360136D01*
X12998772Y-10356519D01*
X13000645Y-10353069D01*
X13002847Y-10349820D01*
X13005357Y-10346802D01*
X13008151Y-10344044D01*
X13011202Y-10341574D01*
X13014480Y-10339414D01*
X13017954Y-10337587D01*
X13021590Y-10336108D01*
X13025354Y-10334993D01*
X13029209Y-10334253D01*
X13033118Y-10333894D01*
X13037043Y-10333919D01*
X13040947Y-10334330D01*
X13044792Y-10335121D01*
X13046380Y-10335614D01*
X13046459Y-10334860D01*
X13086240Y-10339042D01*
X13072651Y-10468329D01*
X12958281Y-10456309D01*
X12965076Y-10391665D01*
G37*
G04 #@! TD*
D18*
G04 #@! TO.C,J1*
X16214696Y-8832396D03*
D19*
X15849696Y-8975396D03*
D18*
X16214696Y-9696396D03*
D19*
X15849696Y-9553396D03*
D20*
X15796696Y-9696396D03*
X15796696Y-8832396D03*
G04 #@! TD*
M02*
