G04 #@! TF.GenerationSoftware,KiCad,Pcbnew,(5.1.10)-1*
G04 #@! TF.CreationDate,2021-07-14T09:56:37-05:00*
G04 #@! TF.ProjectId,temp sensor,74656d70-2073-4656-9e73-6f722e6b6963,0.2*
G04 #@! TF.SameCoordinates,Original*
G04 #@! TF.FileFunction,Profile,NP*
%FSLAX45Y45*%
G04 Gerber Fmt 4.5, Leading zero omitted, Abs format (unit mm)*
G04 Created by KiCad (PCBNEW (5.1.10)-1) date 2021-07-14 09:56:37*
%MOMM*%
%LPD*%
G01*
G04 APERTURE LIST*
G04 #@! TA.AperFunction,Profile*
%ADD10C,0.150000*%
G04 #@! TD*
G04 #@! TA.AperFunction,Profile*
%ADD11C,0.050000*%
G04 #@! TD*
G04 APERTURE END LIST*
D10*
X12073722Y-8539419D02*
G75*
G03*
X12218823Y-8780259I113778J-95581D01*
G01*
X12910037Y-8401253D02*
G75*
G03*
X12765072Y-8160509I-112537J96253D01*
G01*
D11*
X12073967Y-8539626D02*
G75*
G02*
X12765072Y-8160509I801104J-640884D01*
G01*
X12218823Y-8780259D02*
G75*
G02*
X12910037Y-8401253I800781J-640625D01*
G01*
X16081177Y-8780259D02*
G75*
G03*
X15389963Y-8401253I-800781J-640625D01*
G01*
X16226033Y-8539626D02*
G75*
G03*
X15534928Y-8160509I-801104J-640884D01*
G01*
D10*
X16226278Y-8539419D02*
G75*
G02*
X16081177Y-8780259I-113778J-95581D01*
G01*
X15389963Y-8401253D02*
G75*
G02*
X15534928Y-8160509I112537J96253D01*
G01*
D11*
X16516811Y-9708996D02*
G75*
G02*
X15354100Y-10509600I-1162711J443996D01*
G01*
X14922300Y-8604600D02*
X13144300Y-8604600D01*
X13144300Y-8604600D02*
X13144300Y-8020400D01*
X16516436Y-8820024D02*
X16471636Y-8820024D01*
X16471700Y-9709000D02*
X16471636Y-8820024D01*
X16516436Y-8820024D02*
G75*
G03*
X15354100Y-8020400I-1162336J-444976D01*
G01*
X15354100Y-10509600D02*
X12971508Y-10509229D01*
X14922300Y-8020400D02*
X14922300Y-8604600D01*
X13144300Y-8020400D02*
X12941100Y-8020400D01*
X15354100Y-8020400D02*
X14922300Y-8020400D01*
X16471700Y-9709000D02*
X16516811Y-9708996D01*
X12971508Y-10509229D02*
G75*
G02*
X12941100Y-8020400I-30408J1244229D01*
G01*
M02*
