G04 #@! TF.GenerationSoftware,KiCad,Pcbnew,(5.1.10)-1*
G04 #@! TF.CreationDate,2021-05-15T21:05:10-05:00*
G04 #@! TF.ProjectId,temp sensor,74656d70-2073-4656-9e73-6f722e6b6963,rev?*
G04 #@! TF.SameCoordinates,Original*
G04 #@! TF.FileFunction,Copper,L2,Bot*
G04 #@! TF.FilePolarity,Positive*
%FSLAX45Y45*%
G04 Gerber Fmt 4.5, Leading zero omitted, Abs format (unit mm)*
G04 Created by KiCad (PCBNEW (5.1.10)-1) date 2021-05-15 21:05:10*
%MOMM*%
%LPD*%
G01*
G04 APERTURE LIST*
G04 #@! TA.AperFunction,ComponentPad*
%ADD10R,1.700000X1.700000*%
G04 #@! TD*
G04 #@! TA.AperFunction,ComponentPad*
%ADD11O,1.700000X1.700000*%
G04 #@! TD*
G04 #@! TA.AperFunction,ComponentPad*
%ADD12C,1.450000*%
G04 #@! TD*
G04 #@! TA.AperFunction,ComponentPad*
%ADD13O,1.900000X1.200000*%
G04 #@! TD*
G04 #@! TA.AperFunction,ViaPad*
%ADD14C,0.800000*%
G04 #@! TD*
G04 #@! TA.AperFunction,Conductor*
%ADD15C,0.600000*%
G04 #@! TD*
G04 #@! TA.AperFunction,Conductor*
%ADD16C,0.250000*%
G04 #@! TD*
G04 #@! TA.AperFunction,Conductor*
%ADD17C,0.100000*%
G04 #@! TD*
G04 APERTURE END LIST*
D10*
G04 #@! TO.P,J2,1*
G04 #@! TO.N,+3V3*
X8521700Y-4572000D03*
D11*
G04 #@! TO.P,J2,2*
G04 #@! TO.N,/TDX0*
X8775700Y-4572000D03*
G04 #@! TO.P,J2,3*
G04 #@! TO.N,/RTX0*
X9029700Y-4572000D03*
G04 #@! TO.P,J2,4*
G04 #@! TO.N,GND*
X9283700Y-4572000D03*
G04 #@! TD*
D10*
G04 #@! TO.P,J3,1*
G04 #@! TO.N,/TMS*
X7010400Y-6070600D03*
D11*
G04 #@! TO.P,J3,2*
G04 #@! TO.N,/TDI*
X7264400Y-6070600D03*
G04 #@! TO.P,J3,3*
G04 #@! TO.N,/TCK*
X7518400Y-6070600D03*
G04 #@! TO.P,J3,4*
G04 #@! TO.N,/TDO*
X7772400Y-6070600D03*
G04 #@! TO.P,J3,5*
G04 #@! TO.N,GND*
X8026400Y-6070600D03*
G04 #@! TD*
D12*
G04 #@! TO.P,J4,6*
G04 #@! TO.N,GND*
X9693750Y-5330000D03*
X9693750Y-4830000D03*
D13*
X9963750Y-5430000D03*
X9963750Y-4730000D03*
G04 #@! TD*
D14*
G04 #@! TO.N,GND*
X5638800Y-4483100D03*
X6870700Y-4612100D03*
X5778500Y-5880100D03*
X6311900Y-6172200D03*
X6527800Y-6197600D03*
X6781800Y-6197600D03*
X5829300Y-4483100D03*
X9359900Y-5956300D03*
X8597900Y-5232400D03*
X8839200Y-5245100D03*
X9364344Y-5884647D03*
X6159500Y-4699000D03*
X6273800Y-4699000D03*
X6019800Y-5041900D03*
X5549900Y-5511800D03*
X6540500Y-5435600D03*
X6718300Y-5219700D03*
X7086600Y-5892800D03*
X8661400Y-6146800D03*
X9575800Y-6096000D03*
X9829800Y-5854700D03*
X8382000Y-4686300D03*
X9499600Y-4978400D03*
X9283700Y-4978400D03*
X9271000Y-5346700D03*
X9436100Y-5232400D03*
X8991600Y-5511800D03*
X8597900Y-5524500D03*
X8382000Y-5384800D03*
X6975300Y-4619800D03*
X8813800Y-4851400D03*
X8953500Y-4749800D03*
X7302500Y-4826000D03*
X7467600Y-4648200D03*
X7670800Y-4648200D03*
X7874000Y-4648200D03*
X7302500Y-5016500D03*
X7302500Y-5219700D03*
X8039100Y-5219700D03*
X8039100Y-5016500D03*
X8039100Y-4826000D03*
X8089900Y-4686300D03*
X8102600Y-5359400D03*
X7250900Y-4699800D03*
X7569200Y-5016500D03*
X7569200Y-4813300D03*
X7569200Y-5219700D03*
X7772400Y-5016500D03*
X7772400Y-4813300D03*
X7772400Y-5219700D03*
X7861300Y-5118100D03*
X7861300Y-4914900D03*
X7670800Y-4914900D03*
X7467600Y-4914900D03*
X7467600Y-5118100D03*
X7670800Y-5118100D03*
X8128000Y-4927600D03*
X8140700Y-5130800D03*
X7353300Y-4622800D03*
X7569200Y-4635500D03*
X7772400Y-4635500D03*
X7988300Y-4635500D03*
X7200900Y-5257800D03*
X6883245Y-5835345D03*
X7861300Y-5384800D03*
X8864600Y-5664200D03*
X9245600Y-6121400D03*
X7200746Y-5842603D03*
X7350800Y-5395001D03*
X6692899Y-4965701D03*
X8636000Y-4711700D03*
G04 #@! TO.N,+3V3*
X8445500Y-5994400D03*
X8445500Y-5918200D03*
X6540500Y-5181600D03*
X6527800Y-5270500D03*
G04 #@! TO.N,/io0*
X5791200Y-4800600D03*
X7148154Y-5652601D03*
G04 #@! TO.N,/io1*
X5787378Y-4937683D03*
X7247762Y-5661460D03*
G04 #@! TO.N,/Boot_Option*
X8077340Y-5638660D03*
X6870700Y-5447200D03*
G04 #@! TO.N,/EN*
X6197600Y-5626100D03*
X6502400Y-5629799D03*
G04 #@! TO.N,/SDA*
X6959600Y-4869800D03*
X6565900Y-4749800D03*
X6374934Y-4801066D03*
G04 #@! TO.N,/SCL*
X6662103Y-4786348D03*
X6349859Y-5218599D03*
X6959597Y-5067300D03*
G04 #@! TO.N,/io10*
X5790734Y-5270966D03*
X7510800Y-5659100D03*
G04 #@! TO.N,Net-(R8-Pad1)*
X9652000Y-5867401D03*
X8216900Y-6248400D03*
G04 #@! TD*
D15*
G04 #@! TO.N,+3V3*
X8405500Y-5954400D02*
X8445500Y-5994400D01*
X8483601Y-5956299D02*
X8445500Y-5994400D01*
X8369300Y-5918200D02*
X8337550Y-5886450D01*
X8445500Y-5918200D02*
X8369300Y-5918200D01*
X8337550Y-5886450D02*
X8405500Y-5954400D01*
X8445500Y-5892803D02*
X8483601Y-5854701D01*
X8445500Y-5918200D02*
X8445500Y-5892803D01*
X8483601Y-5854701D02*
X8483601Y-5956299D01*
X6653700Y-5294800D02*
X6580500Y-5221600D01*
X6653700Y-5373200D02*
X6653700Y-5294800D01*
X6580500Y-5221600D02*
X6540500Y-5181600D01*
X6653700Y-5373200D02*
X6551000Y-5270500D01*
X6551000Y-5270500D02*
X6527800Y-5270500D01*
X8483601Y-5854701D02*
X8483601Y-4698999D01*
X8521700Y-4660900D02*
X8483601Y-4698999D01*
X8521700Y-4572000D02*
X8521700Y-4660900D01*
X8197850Y-5886450D02*
X8337550Y-5886450D01*
X6843100Y-5562600D02*
X7874000Y-5562600D01*
X6653700Y-5373200D02*
X6843100Y-5562600D01*
X7874000Y-5562600D02*
X8197850Y-5886450D01*
D16*
G04 #@! TO.N,/io0*
X6844711Y-5652601D02*
X7148154Y-5652601D01*
X5872359Y-4881759D02*
X5872359Y-5135618D01*
X6249039Y-5512298D02*
X6704408Y-5512298D01*
X6704408Y-5512298D02*
X6844711Y-5652601D01*
X5791200Y-4800600D02*
X5872359Y-4881759D01*
X5872359Y-5135618D02*
X6249039Y-5512298D01*
G04 #@! TO.N,/io1*
X5787378Y-5114278D02*
X6230399Y-5557299D01*
X7100654Y-5712401D02*
X7113354Y-5725101D01*
X7113354Y-5725101D02*
X7184121Y-5725101D01*
X7184121Y-5725101D02*
X7247762Y-5661460D01*
X6840870Y-5712401D02*
X7100654Y-5712401D01*
X6230399Y-5557299D02*
X6685768Y-5557299D01*
X5787378Y-4937683D02*
X5787378Y-5114278D01*
X6685768Y-5557299D02*
X6840870Y-5712401D01*
G04 #@! TO.N,/Boot_Option*
X6922600Y-5499100D02*
X6870700Y-5447200D01*
X8077340Y-5638660D02*
X7937779Y-5499100D01*
X7937779Y-5499100D02*
X6922600Y-5499100D01*
G04 #@! TO.N,/EN*
X6197600Y-5626100D02*
X6498701Y-5626100D01*
X6498701Y-5626100D02*
X6502400Y-5629799D01*
G04 #@! TO.N,/SDA*
X6601852Y-4713848D02*
X6565900Y-4749800D01*
X6959600Y-4869800D02*
X6803648Y-4713848D01*
X6803648Y-4713848D02*
X6601852Y-4713848D01*
X6565900Y-4749800D02*
X6426200Y-4749800D01*
X6426200Y-4749800D02*
X6374934Y-4801066D01*
G04 #@! TO.N,/SCL*
X6662103Y-4786348D02*
X6349859Y-5098593D01*
X6349859Y-5098593D02*
X6349859Y-5218599D01*
X6943055Y-5067300D02*
X6959597Y-5067300D01*
X6662103Y-4786348D02*
X6943055Y-5067300D01*
G04 #@! TO.N,/io10*
X7094714Y-5770102D02*
X7399798Y-5770102D01*
X7082014Y-5757402D02*
X7094714Y-5770102D01*
X5790734Y-5327534D02*
X6220602Y-5757402D01*
X6220602Y-5757402D02*
X7082014Y-5757402D01*
X7399798Y-5770102D02*
X7510800Y-5659100D01*
X5790734Y-5270966D02*
X5790734Y-5327534D01*
G04 #@! TO.N,Net-(R8-Pad1)*
X9537701Y-5981700D02*
X9537700Y-5981700D01*
X9652000Y-5867401D02*
X9537701Y-5981700D01*
X9182100Y-6248400D02*
X8216900Y-6248400D01*
X9537700Y-5981700D02*
X9309100Y-6210300D01*
X9309100Y-6210300D02*
X9220200Y-6210300D01*
X9220200Y-6210300D02*
X9182100Y-6248400D01*
G04 #@! TD*
D17*
G04 #@! TO.N,GND*
X6734987Y-4428912D02*
X6737703Y-4437865D01*
X6739609Y-4441430D01*
X6742114Y-4446117D01*
X6748050Y-4453350D01*
X6755283Y-4459286D01*
X6763535Y-4463697D01*
X6772488Y-4466413D01*
X6781800Y-4467330D01*
X6784133Y-4467100D01*
X8396312Y-4467100D01*
X8394924Y-4469696D01*
X8392351Y-4478179D01*
X8391482Y-4487000D01*
X8391482Y-4657000D01*
X8392351Y-4665822D01*
X8394924Y-4674304D01*
X8399103Y-4682122D01*
X8404726Y-4688974D01*
X8408890Y-4692390D01*
X8408239Y-4698999D01*
X8408602Y-4702682D01*
X8408601Y-5823635D01*
X8395072Y-5837165D01*
X8394665Y-5837499D01*
X8393188Y-5836022D01*
X8390840Y-5833160D01*
X8379419Y-5823788D01*
X8366390Y-5816824D01*
X8352253Y-5812535D01*
X8341233Y-5811450D01*
X8341233Y-5811450D01*
X8337550Y-5811087D01*
X8333867Y-5811450D01*
X8228916Y-5811450D01*
X8125905Y-5708439D01*
X8131524Y-5704684D01*
X8143363Y-5692845D01*
X8152666Y-5678923D01*
X8159073Y-5663454D01*
X8162340Y-5647032D01*
X8162340Y-5630288D01*
X8159073Y-5613867D01*
X8152666Y-5598398D01*
X8143363Y-5584476D01*
X8131524Y-5572637D01*
X8117602Y-5563334D01*
X8102133Y-5556927D01*
X8085711Y-5553660D01*
X8073657Y-5553660D01*
X7980436Y-5460439D01*
X7978635Y-5458245D01*
X7969879Y-5451059D01*
X7959890Y-5445720D01*
X7949051Y-5442432D01*
X7940604Y-5441600D01*
X7940604Y-5441600D01*
X7937779Y-5441322D01*
X7934955Y-5441600D01*
X6955700Y-5441600D01*
X6955700Y-5438828D01*
X6952433Y-5422406D01*
X6946026Y-5406937D01*
X6936724Y-5393016D01*
X6924884Y-5381176D01*
X6910963Y-5371874D01*
X6895494Y-5365467D01*
X6879072Y-5362200D01*
X6862328Y-5362200D01*
X6845906Y-5365467D01*
X6830437Y-5371874D01*
X6816516Y-5381176D01*
X6804676Y-5393016D01*
X6795374Y-5406937D01*
X6794826Y-5408260D01*
X6728700Y-5342134D01*
X6728700Y-5298483D01*
X6729063Y-5294800D01*
X6728700Y-5291117D01*
X6728700Y-5291117D01*
X6727615Y-5280097D01*
X6723326Y-5265960D01*
X6716362Y-5252931D01*
X6713017Y-5248855D01*
X6709337Y-5244372D01*
X6709337Y-5244371D01*
X6706989Y-5241511D01*
X6704128Y-5239163D01*
X6630928Y-5165962D01*
X6622348Y-5157382D01*
X6622233Y-5156806D01*
X6615826Y-5141337D01*
X6606524Y-5127416D01*
X6594684Y-5115576D01*
X6580762Y-5106274D01*
X6565293Y-5099867D01*
X6548872Y-5096600D01*
X6532128Y-5096600D01*
X6515706Y-5099867D01*
X6500237Y-5106274D01*
X6486315Y-5115576D01*
X6474476Y-5127416D01*
X6465174Y-5141337D01*
X6458766Y-5156806D01*
X6455500Y-5173228D01*
X6455500Y-5189972D01*
X6458766Y-5206394D01*
X6462554Y-5215538D01*
X6461776Y-5216316D01*
X6452474Y-5230237D01*
X6446066Y-5245706D01*
X6442800Y-5262128D01*
X6442800Y-5278872D01*
X6446066Y-5295294D01*
X6452474Y-5310763D01*
X6461776Y-5324684D01*
X6473616Y-5336524D01*
X6487537Y-5345826D01*
X6503006Y-5352234D01*
X6519428Y-5355500D01*
X6529934Y-5355500D01*
X6598063Y-5423629D01*
X6600410Y-5426490D01*
X6603271Y-5428838D01*
X6603271Y-5428838D01*
X6603272Y-5428838D01*
X6629232Y-5454798D01*
X6272856Y-5454798D01*
X6028285Y-5210227D01*
X6264859Y-5210227D01*
X6264859Y-5226971D01*
X6268126Y-5243393D01*
X6274533Y-5258862D01*
X6283835Y-5272783D01*
X6295675Y-5284623D01*
X6309596Y-5293925D01*
X6325065Y-5300333D01*
X6341487Y-5303599D01*
X6358231Y-5303599D01*
X6374653Y-5300333D01*
X6390122Y-5293925D01*
X6404043Y-5284623D01*
X6415883Y-5272783D01*
X6425185Y-5258862D01*
X6431593Y-5243393D01*
X6434859Y-5226971D01*
X6434859Y-5210227D01*
X6431593Y-5193805D01*
X6425185Y-5178336D01*
X6415883Y-5164415D01*
X6407359Y-5155891D01*
X6407359Y-5122410D01*
X6658421Y-4871348D01*
X6665786Y-4871348D01*
X6875711Y-5081273D01*
X6877863Y-5092094D01*
X6884271Y-5107563D01*
X6893573Y-5121484D01*
X6905412Y-5133324D01*
X6919334Y-5142626D01*
X6934803Y-5149034D01*
X6951225Y-5152300D01*
X6967969Y-5152300D01*
X6984390Y-5149034D01*
X6999859Y-5142626D01*
X7013781Y-5133324D01*
X7025621Y-5121484D01*
X7034923Y-5107563D01*
X7041330Y-5092094D01*
X7044597Y-5075672D01*
X7044597Y-5058928D01*
X7041330Y-5042506D01*
X7034923Y-5027037D01*
X7025621Y-5013116D01*
X7013781Y-5001276D01*
X6999859Y-4991974D01*
X6984390Y-4985567D01*
X6967969Y-4982300D01*
X6951225Y-4982300D01*
X6941339Y-4984266D01*
X6747103Y-4790031D01*
X6747103Y-4777976D01*
X6745785Y-4771348D01*
X6779831Y-4771348D01*
X6874600Y-4866117D01*
X6874600Y-4878172D01*
X6877866Y-4894594D01*
X6884274Y-4910063D01*
X6893576Y-4923984D01*
X6905416Y-4935824D01*
X6919337Y-4945126D01*
X6934806Y-4951534D01*
X6951228Y-4954800D01*
X6967972Y-4954800D01*
X6984394Y-4951534D01*
X6999863Y-4945126D01*
X7013784Y-4935824D01*
X7025624Y-4923984D01*
X7034926Y-4910063D01*
X7041333Y-4894594D01*
X7044600Y-4878172D01*
X7044600Y-4861428D01*
X7041333Y-4845006D01*
X7034926Y-4829537D01*
X7025624Y-4815616D01*
X7013784Y-4803776D01*
X6999863Y-4794474D01*
X6984394Y-4788067D01*
X6967972Y-4784800D01*
X6955917Y-4784800D01*
X6846305Y-4675187D01*
X6844503Y-4672993D01*
X6835748Y-4665807D01*
X6825759Y-4660468D01*
X6814920Y-4657180D01*
X6806473Y-4656348D01*
X6806472Y-4656348D01*
X6803648Y-4656070D01*
X6800824Y-4656348D01*
X6604676Y-4656348D01*
X6601852Y-4656070D01*
X6599028Y-4656348D01*
X6599027Y-4656348D01*
X6590580Y-4657180D01*
X6579741Y-4660468D01*
X6571637Y-4664800D01*
X6557528Y-4664800D01*
X6541106Y-4668067D01*
X6525637Y-4674474D01*
X6511716Y-4683776D01*
X6503192Y-4692300D01*
X6429024Y-4692300D01*
X6426200Y-4692022D01*
X6423376Y-4692300D01*
X6423375Y-4692300D01*
X6414928Y-4693132D01*
X6404089Y-4696420D01*
X6394100Y-4701759D01*
X6385345Y-4708945D01*
X6383544Y-4711139D01*
X6378617Y-4716066D01*
X6366562Y-4716066D01*
X6350140Y-4719333D01*
X6334671Y-4725740D01*
X6320750Y-4735042D01*
X6308910Y-4746882D01*
X6299608Y-4760803D01*
X6293200Y-4776272D01*
X6289934Y-4792694D01*
X6289934Y-4809438D01*
X6293200Y-4825860D01*
X6299608Y-4841329D01*
X6308910Y-4855250D01*
X6320750Y-4867090D01*
X6334671Y-4876392D01*
X6350140Y-4882800D01*
X6366562Y-4886066D01*
X6383306Y-4886066D01*
X6399728Y-4882800D01*
X6415197Y-4876392D01*
X6429118Y-4867090D01*
X6440958Y-4855250D01*
X6450260Y-4841329D01*
X6456667Y-4825860D01*
X6459934Y-4809438D01*
X6459934Y-4807300D01*
X6503192Y-4807300D01*
X6511716Y-4815824D01*
X6525637Y-4825126D01*
X6537213Y-4829921D01*
X6311198Y-5055936D01*
X6309004Y-5057737D01*
X6304288Y-5063484D01*
X6301818Y-5066493D01*
X6298114Y-5073422D01*
X6296479Y-5076482D01*
X6293191Y-5087321D01*
X6292714Y-5092167D01*
X6292081Y-5098593D01*
X6292359Y-5101417D01*
X6292359Y-5155891D01*
X6283835Y-5164415D01*
X6274533Y-5178336D01*
X6268126Y-5193805D01*
X6264859Y-5210227D01*
X6028285Y-5210227D01*
X5929859Y-5111801D01*
X5929859Y-4884583D01*
X5930137Y-4881759D01*
X5929859Y-4878935D01*
X5929027Y-4870487D01*
X5925739Y-4859648D01*
X5923762Y-4855949D01*
X5920400Y-4849659D01*
X5915015Y-4843098D01*
X5913214Y-4840904D01*
X5911020Y-4839103D01*
X5876200Y-4804283D01*
X5876200Y-4792228D01*
X5872933Y-4775806D01*
X5866526Y-4760337D01*
X5857224Y-4746416D01*
X5845384Y-4734576D01*
X5831463Y-4725274D01*
X5815994Y-4718867D01*
X5799572Y-4715600D01*
X5782828Y-4715600D01*
X5766406Y-4718867D01*
X5750937Y-4725274D01*
X5737016Y-4734576D01*
X5725176Y-4746416D01*
X5715874Y-4760337D01*
X5709466Y-4775806D01*
X5706200Y-4792228D01*
X5706200Y-4808972D01*
X5709466Y-4825394D01*
X5715874Y-4840863D01*
X5725176Y-4854784D01*
X5737016Y-4866624D01*
X5738872Y-4867864D01*
X5733193Y-4871659D01*
X5721354Y-4883498D01*
X5712052Y-4897420D01*
X5705644Y-4912889D01*
X5702378Y-4929311D01*
X5702378Y-4946054D01*
X5705644Y-4962476D01*
X5712052Y-4977945D01*
X5721354Y-4991867D01*
X5729878Y-5000391D01*
X5729878Y-5111452D01*
X5729599Y-5114278D01*
X5730309Y-5121484D01*
X5730710Y-5125550D01*
X5731547Y-5128311D01*
X5733997Y-5136388D01*
X5739337Y-5146377D01*
X5743922Y-5151964D01*
X5746522Y-5155133D01*
X5748716Y-5156934D01*
X5778514Y-5186731D01*
X5765940Y-5189232D01*
X5750471Y-5195640D01*
X5736549Y-5204942D01*
X5724710Y-5216781D01*
X5715408Y-5230703D01*
X5709000Y-5246172D01*
X5705734Y-5262594D01*
X5705734Y-5279338D01*
X5709000Y-5295759D01*
X5715408Y-5311228D01*
X5724710Y-5325150D01*
X5733596Y-5334036D01*
X5734066Y-5338806D01*
X5737354Y-5349645D01*
X5738731Y-5352222D01*
X5742693Y-5359634D01*
X5745594Y-5363169D01*
X5749878Y-5368390D01*
X5752073Y-5370190D01*
X6177946Y-5796063D01*
X6179746Y-5798258D01*
X6183548Y-5801377D01*
X6188502Y-5805443D01*
X6196418Y-5809674D01*
X6198491Y-5810782D01*
X6209330Y-5814070D01*
X6217777Y-5814902D01*
X6217777Y-5814902D01*
X6220602Y-5815180D01*
X6223426Y-5814902D01*
X7058665Y-5814902D01*
X7062614Y-5818143D01*
X7072603Y-5823482D01*
X7083442Y-5826770D01*
X7091890Y-5827602D01*
X7091890Y-5827602D01*
X7094714Y-5827880D01*
X7097538Y-5827602D01*
X7396973Y-5827602D01*
X7399798Y-5827880D01*
X7402622Y-5827602D01*
X7402622Y-5827602D01*
X7411070Y-5826770D01*
X7421908Y-5823482D01*
X7431897Y-5818143D01*
X7440653Y-5810958D01*
X7442454Y-5808763D01*
X7507117Y-5744100D01*
X7519172Y-5744100D01*
X7535594Y-5740833D01*
X7551063Y-5734426D01*
X7564984Y-5725124D01*
X7576824Y-5713284D01*
X7586126Y-5699363D01*
X7592533Y-5683894D01*
X7595800Y-5667472D01*
X7595800Y-5650728D01*
X7593189Y-5637600D01*
X7842934Y-5637600D01*
X8142213Y-5936879D01*
X8144560Y-5939739D01*
X8147421Y-5942087D01*
X8147422Y-5942088D01*
X8152301Y-5946092D01*
X8155981Y-5949112D01*
X8169010Y-5956076D01*
X8183147Y-5960365D01*
X8194166Y-5961450D01*
X8194167Y-5961450D01*
X8197850Y-5961813D01*
X8201533Y-5961450D01*
X8306484Y-5961450D01*
X8313662Y-5968628D01*
X8316010Y-5971489D01*
X8318872Y-5973838D01*
X8355072Y-6010038D01*
X8355072Y-6010038D01*
X8363652Y-6018618D01*
X8363766Y-6019194D01*
X8370174Y-6034663D01*
X8379476Y-6048584D01*
X8391316Y-6060424D01*
X8405237Y-6069726D01*
X8420706Y-6076133D01*
X8437128Y-6079400D01*
X8453872Y-6079400D01*
X8470294Y-6076133D01*
X8485763Y-6069726D01*
X8499684Y-6060424D01*
X8511524Y-6048584D01*
X8520826Y-6034663D01*
X8527234Y-6019194D01*
X8527348Y-6018618D01*
X8534029Y-6011936D01*
X8536891Y-6009588D01*
X8546263Y-5998168D01*
X8553228Y-5985139D01*
X8556656Y-5973838D01*
X8557516Y-5971001D01*
X8557754Y-5968588D01*
X8558601Y-5959982D01*
X8558601Y-5959981D01*
X8558964Y-5956299D01*
X8558601Y-5952616D01*
X8558601Y-5858384D01*
X8558964Y-5854701D01*
X8558601Y-5851019D01*
X8558601Y-5458761D01*
X9843047Y-5458761D01*
X9845252Y-5467752D01*
X9854221Y-5483316D01*
X9866055Y-5496831D01*
X9880297Y-5507778D01*
X9896402Y-5515737D01*
X9913750Y-5520400D01*
X9948750Y-5520400D01*
X9948750Y-5445000D01*
X9847320Y-5445000D01*
X9843047Y-5458761D01*
X8558601Y-5458761D01*
X8558601Y-5407510D01*
X9637453Y-5407510D01*
X9645752Y-5421583D01*
X9664542Y-5429187D01*
X9684453Y-5432979D01*
X9704722Y-5432814D01*
X9724569Y-5428698D01*
X9741748Y-5421583D01*
X9750047Y-5407510D01*
X9743776Y-5401239D01*
X9843047Y-5401239D01*
X9847320Y-5415000D01*
X9948750Y-5415000D01*
X9948750Y-5339600D01*
X9913750Y-5339600D01*
X9896402Y-5344263D01*
X9880297Y-5352222D01*
X9866055Y-5363169D01*
X9854221Y-5376684D01*
X9845252Y-5392248D01*
X9843047Y-5401239D01*
X9743776Y-5401239D01*
X9693750Y-5351213D01*
X9637453Y-5407510D01*
X8558601Y-5407510D01*
X8558601Y-5320703D01*
X9590771Y-5320703D01*
X9590936Y-5340972D01*
X9595052Y-5360819D01*
X9602168Y-5377998D01*
X9616240Y-5386297D01*
X9672537Y-5330000D01*
X9714963Y-5330000D01*
X9771260Y-5386297D01*
X9785333Y-5377998D01*
X9792937Y-5359209D01*
X9796729Y-5339297D01*
X9796564Y-5319028D01*
X9792448Y-5299181D01*
X9785333Y-5282002D01*
X9771260Y-5273703D01*
X9714963Y-5330000D01*
X9672537Y-5330000D01*
X9616240Y-5273703D01*
X9602168Y-5282002D01*
X9594563Y-5300792D01*
X9590771Y-5320703D01*
X8558601Y-5320703D01*
X8558601Y-5252490D01*
X9637453Y-5252490D01*
X9693750Y-5308787D01*
X9750047Y-5252490D01*
X9741748Y-5238418D01*
X9722959Y-5230813D01*
X9703047Y-5227021D01*
X9682778Y-5227186D01*
X9662931Y-5231302D01*
X9645752Y-5238418D01*
X9637453Y-5252490D01*
X8558601Y-5252490D01*
X8558601Y-4907510D01*
X9637453Y-4907510D01*
X9645752Y-4921583D01*
X9664542Y-4929187D01*
X9684453Y-4932979D01*
X9704722Y-4932814D01*
X9724569Y-4928698D01*
X9741748Y-4921583D01*
X9750047Y-4907510D01*
X9693750Y-4851213D01*
X9637453Y-4907510D01*
X8558601Y-4907510D01*
X8558601Y-4820703D01*
X9590771Y-4820703D01*
X9590936Y-4840972D01*
X9595052Y-4860819D01*
X9602168Y-4877998D01*
X9616240Y-4886297D01*
X9672537Y-4830000D01*
X9714963Y-4830000D01*
X9771260Y-4886297D01*
X9785333Y-4877998D01*
X9792937Y-4859209D01*
X9796729Y-4839297D01*
X9796564Y-4819028D01*
X9792448Y-4799181D01*
X9785333Y-4782002D01*
X9771260Y-4773703D01*
X9714963Y-4830000D01*
X9672537Y-4830000D01*
X9616240Y-4773703D01*
X9602168Y-4782002D01*
X9594563Y-4800792D01*
X9590771Y-4820703D01*
X8558601Y-4820703D01*
X8558601Y-4752490D01*
X9637453Y-4752490D01*
X9693750Y-4808787D01*
X9743776Y-4758761D01*
X9843047Y-4758761D01*
X9845252Y-4767752D01*
X9854221Y-4783316D01*
X9866055Y-4796831D01*
X9880297Y-4807778D01*
X9896402Y-4815737D01*
X9913750Y-4820400D01*
X9948750Y-4820400D01*
X9948750Y-4745000D01*
X9847320Y-4745000D01*
X9843047Y-4758761D01*
X9743776Y-4758761D01*
X9750047Y-4752490D01*
X9741748Y-4738418D01*
X9722959Y-4730813D01*
X9703047Y-4727021D01*
X9682778Y-4727186D01*
X9662931Y-4731302D01*
X9645752Y-4738418D01*
X9637453Y-4752490D01*
X8558601Y-4752490D01*
X8558601Y-4730065D01*
X8572128Y-4716538D01*
X8574990Y-4714190D01*
X8584362Y-4702769D01*
X8584657Y-4702218D01*
X8606700Y-4702218D01*
X8615522Y-4701349D01*
X8624004Y-4698776D01*
X8631822Y-4694597D01*
X8638674Y-4688974D01*
X8644297Y-4682122D01*
X8648476Y-4674304D01*
X8651049Y-4665822D01*
X8651918Y-4657000D01*
X8651918Y-4612870D01*
X8660496Y-4633578D01*
X8674722Y-4654870D01*
X8692830Y-4672978D01*
X8714122Y-4687205D01*
X8737780Y-4697004D01*
X8762896Y-4702000D01*
X8788504Y-4702000D01*
X8813620Y-4697004D01*
X8837278Y-4687205D01*
X8858570Y-4672978D01*
X8876678Y-4654870D01*
X8890905Y-4633578D01*
X8900704Y-4609920D01*
X8902700Y-4599886D01*
X8904696Y-4609920D01*
X8914496Y-4633578D01*
X8928722Y-4654870D01*
X8946830Y-4672978D01*
X8968122Y-4687205D01*
X8991780Y-4697004D01*
X9016896Y-4702000D01*
X9042504Y-4702000D01*
X9046330Y-4701239D01*
X9843047Y-4701239D01*
X9847320Y-4715000D01*
X9948750Y-4715000D01*
X9948750Y-4639600D01*
X9913750Y-4639600D01*
X9896402Y-4644263D01*
X9880297Y-4652222D01*
X9866055Y-4663169D01*
X9854221Y-4676684D01*
X9845252Y-4692248D01*
X9843047Y-4701239D01*
X9046330Y-4701239D01*
X9067620Y-4697004D01*
X9091278Y-4687205D01*
X9112570Y-4672978D01*
X9130678Y-4654870D01*
X9144905Y-4633578D01*
X9154704Y-4609920D01*
X9155739Y-4604715D01*
X9173034Y-4604715D01*
X9181542Y-4625676D01*
X9193977Y-4644575D01*
X9209860Y-4660684D01*
X9228580Y-4673386D01*
X9249418Y-4682191D01*
X9250985Y-4682666D01*
X9268700Y-4678751D01*
X9268700Y-4587000D01*
X9298700Y-4587000D01*
X9298700Y-4678751D01*
X9316415Y-4682666D01*
X9317982Y-4682191D01*
X9338820Y-4673386D01*
X9357541Y-4660684D01*
X9373423Y-4644575D01*
X9385858Y-4625676D01*
X9394367Y-4604715D01*
X9390522Y-4587000D01*
X9298700Y-4587000D01*
X9268700Y-4587000D01*
X9176878Y-4587000D01*
X9173034Y-4604715D01*
X9155739Y-4604715D01*
X9159700Y-4584804D01*
X9159700Y-4559196D01*
X9155740Y-4539285D01*
X9173034Y-4539285D01*
X9176878Y-4557000D01*
X9268700Y-4557000D01*
X9268700Y-4465249D01*
X9298700Y-4465249D01*
X9298700Y-4557000D01*
X9390522Y-4557000D01*
X9394367Y-4539285D01*
X9385858Y-4518324D01*
X9373423Y-4499425D01*
X9357541Y-4483316D01*
X9338820Y-4470614D01*
X9317982Y-4461809D01*
X9316415Y-4461334D01*
X9298700Y-4465249D01*
X9268700Y-4465249D01*
X9250985Y-4461334D01*
X9249418Y-4461809D01*
X9228580Y-4470614D01*
X9209860Y-4483316D01*
X9193977Y-4499425D01*
X9181542Y-4518324D01*
X9173034Y-4539285D01*
X9155740Y-4539285D01*
X9154704Y-4534080D01*
X9144905Y-4510422D01*
X9130678Y-4489130D01*
X9112570Y-4471022D01*
X9091278Y-4456796D01*
X9067620Y-4446996D01*
X9042504Y-4442000D01*
X9016896Y-4442000D01*
X8991780Y-4446996D01*
X8968122Y-4456796D01*
X8946830Y-4471022D01*
X8928722Y-4489130D01*
X8914496Y-4510422D01*
X8904696Y-4534080D01*
X8902700Y-4544114D01*
X8900704Y-4534080D01*
X8890905Y-4510422D01*
X8876678Y-4489130D01*
X8858570Y-4471022D01*
X8837278Y-4456796D01*
X8813620Y-4446996D01*
X8788504Y-4442000D01*
X8762896Y-4442000D01*
X8737780Y-4446996D01*
X8714122Y-4456796D01*
X8692830Y-4471022D01*
X8674722Y-4489130D01*
X8660496Y-4510422D01*
X8651918Y-4531131D01*
X8651918Y-4487000D01*
X8651049Y-4478179D01*
X8648476Y-4469696D01*
X8644297Y-4461878D01*
X8638674Y-4455026D01*
X8631822Y-4449403D01*
X8624004Y-4445224D01*
X8615522Y-4442651D01*
X8606700Y-4441782D01*
X8601803Y-4441782D01*
X8603897Y-4437865D01*
X8606613Y-4428912D01*
X8607037Y-4424600D01*
X9991449Y-4424600D01*
X10012230Y-4454557D01*
X10076710Y-4574559D01*
X10085154Y-4594490D01*
X10082740Y-4595776D01*
X10082713Y-4595798D01*
X10082683Y-4595814D01*
X10079079Y-4598772D01*
X10075498Y-4601702D01*
X10075477Y-4601728D01*
X10075450Y-4601750D01*
X10072495Y-4605351D01*
X10069552Y-4608926D01*
X10069536Y-4608956D01*
X10069514Y-4608983D01*
X10067322Y-4613083D01*
X10065130Y-4617172D01*
X10065120Y-4617205D01*
X10065104Y-4617235D01*
X10063760Y-4621665D01*
X10062401Y-4626122D01*
X10062397Y-4626156D01*
X10062387Y-4626188D01*
X10061935Y-4630780D01*
X10061470Y-4635432D01*
X10061700Y-4637800D01*
X10061700Y-4663460D01*
X10061446Y-4663169D01*
X10047203Y-4652222D01*
X10031098Y-4644263D01*
X10013750Y-4639600D01*
X9978750Y-4639600D01*
X9978750Y-4715000D01*
X9980750Y-4715000D01*
X9980750Y-4745000D01*
X9978750Y-4745000D01*
X9978750Y-4820400D01*
X10013750Y-4820400D01*
X10031098Y-4815737D01*
X10047203Y-4807778D01*
X10061446Y-4796831D01*
X10061700Y-4796541D01*
X10061700Y-5363459D01*
X10061446Y-5363169D01*
X10047203Y-5352222D01*
X10031098Y-5344263D01*
X10013750Y-5339600D01*
X9978750Y-5339600D01*
X9978750Y-5415000D01*
X9980750Y-5415000D01*
X9980750Y-5445000D01*
X9978750Y-5445000D01*
X9978750Y-5520400D01*
X10013750Y-5520400D01*
X10031098Y-5515737D01*
X10047203Y-5507778D01*
X10061446Y-5496831D01*
X10061700Y-5496541D01*
X10061700Y-5522084D01*
X10061471Y-5524334D01*
X10061700Y-5526750D01*
X10061700Y-5526833D01*
X10061921Y-5529081D01*
X10062355Y-5533648D01*
X10062379Y-5533728D01*
X10062387Y-5533812D01*
X10063725Y-5538222D01*
X10065040Y-5542612D01*
X10065079Y-5542685D01*
X10065103Y-5542765D01*
X10067277Y-5546833D01*
X10069422Y-5550879D01*
X10069475Y-5550943D01*
X10069514Y-5551017D01*
X10072443Y-5554586D01*
X10075333Y-5558132D01*
X10075397Y-5558185D01*
X10075450Y-5558250D01*
X10079016Y-5561176D01*
X10082545Y-5564093D01*
X10082618Y-5564133D01*
X10082683Y-5564186D01*
X10083937Y-5564857D01*
X10054023Y-5631473D01*
X9984765Y-5748198D01*
X9902739Y-5856332D01*
X9808999Y-5954485D01*
X9704749Y-6041397D01*
X9591332Y-6115947D01*
X9470204Y-6177180D01*
X9396100Y-6204617D01*
X9576357Y-6024361D01*
X9578556Y-6022555D01*
X9580358Y-6020361D01*
X9648317Y-5952401D01*
X9660372Y-5952401D01*
X9676794Y-5949134D01*
X9692263Y-5942727D01*
X9706184Y-5933425D01*
X9718024Y-5921585D01*
X9727326Y-5907664D01*
X9733734Y-5892195D01*
X9737000Y-5875773D01*
X9737000Y-5859029D01*
X9733734Y-5842607D01*
X9727326Y-5827138D01*
X9718024Y-5813217D01*
X9706184Y-5801377D01*
X9692263Y-5792075D01*
X9676794Y-5785667D01*
X9660372Y-5782401D01*
X9643628Y-5782401D01*
X9627206Y-5785667D01*
X9611737Y-5792075D01*
X9597816Y-5801377D01*
X9585976Y-5813217D01*
X9576674Y-5827138D01*
X9570267Y-5842607D01*
X9567000Y-5859029D01*
X9567000Y-5871084D01*
X9499045Y-5939039D01*
X9496845Y-5940845D01*
X9495044Y-5943039D01*
X9285283Y-6152800D01*
X9223024Y-6152800D01*
X9220200Y-6152522D01*
X9217376Y-6152800D01*
X9217375Y-6152800D01*
X9208928Y-6153632D01*
X9198799Y-6156705D01*
X9198089Y-6156920D01*
X9188100Y-6162259D01*
X9186710Y-6163400D01*
X9179345Y-6169445D01*
X9177543Y-6171639D01*
X9158283Y-6190900D01*
X8279608Y-6190900D01*
X8271084Y-6182376D01*
X8257163Y-6173074D01*
X8241694Y-6166666D01*
X8225272Y-6163400D01*
X8208528Y-6163400D01*
X8192106Y-6166666D01*
X8176637Y-6173074D01*
X8162716Y-6182376D01*
X8150876Y-6194216D01*
X8141574Y-6208137D01*
X8135166Y-6223606D01*
X8131900Y-6240028D01*
X8131900Y-6256772D01*
X8135166Y-6273194D01*
X8136732Y-6276974D01*
X6609013Y-6276748D01*
X6471440Y-6272217D01*
X6337167Y-6252423D01*
X6205997Y-6217555D01*
X6079617Y-6168063D01*
X5959652Y-6104582D01*
X5847645Y-6027929D01*
X5798755Y-5985600D01*
X6880182Y-5985600D01*
X6880182Y-6155600D01*
X6881051Y-6164421D01*
X6883624Y-6172904D01*
X6887803Y-6180722D01*
X6893426Y-6187574D01*
X6900278Y-6193197D01*
X6908096Y-6197376D01*
X6916578Y-6199949D01*
X6925400Y-6200818D01*
X7095400Y-6200818D01*
X7104221Y-6199949D01*
X7112704Y-6197376D01*
X7120522Y-6193197D01*
X7127374Y-6187574D01*
X7132997Y-6180722D01*
X7137176Y-6172904D01*
X7139749Y-6164421D01*
X7140618Y-6155600D01*
X7140618Y-6111469D01*
X7149195Y-6132178D01*
X7163422Y-6153470D01*
X7181530Y-6171578D01*
X7202822Y-6185804D01*
X7226480Y-6195604D01*
X7251596Y-6200600D01*
X7277204Y-6200600D01*
X7302320Y-6195604D01*
X7325978Y-6185804D01*
X7347270Y-6171578D01*
X7365378Y-6153470D01*
X7379604Y-6132178D01*
X7389404Y-6108520D01*
X7391400Y-6098486D01*
X7393396Y-6108520D01*
X7403195Y-6132178D01*
X7417422Y-6153470D01*
X7435530Y-6171578D01*
X7456822Y-6185804D01*
X7480480Y-6195604D01*
X7505596Y-6200600D01*
X7531204Y-6200600D01*
X7556320Y-6195604D01*
X7579978Y-6185804D01*
X7601270Y-6171578D01*
X7619378Y-6153470D01*
X7633604Y-6132178D01*
X7643404Y-6108520D01*
X7645400Y-6098486D01*
X7647396Y-6108520D01*
X7657195Y-6132178D01*
X7671422Y-6153470D01*
X7689530Y-6171578D01*
X7710822Y-6185804D01*
X7734480Y-6195604D01*
X7759596Y-6200600D01*
X7785204Y-6200600D01*
X7810320Y-6195604D01*
X7833978Y-6185804D01*
X7855270Y-6171578D01*
X7873378Y-6153470D01*
X7887604Y-6132178D01*
X7897404Y-6108520D01*
X7898439Y-6103315D01*
X7915733Y-6103315D01*
X7924242Y-6124276D01*
X7936677Y-6143175D01*
X7952559Y-6159284D01*
X7971280Y-6171986D01*
X7992118Y-6180791D01*
X7993685Y-6181266D01*
X8011400Y-6177351D01*
X8011400Y-6085600D01*
X8041400Y-6085600D01*
X8041400Y-6177351D01*
X8059115Y-6181266D01*
X8060682Y-6180791D01*
X8081520Y-6171986D01*
X8100240Y-6159284D01*
X8116123Y-6143175D01*
X8128558Y-6124276D01*
X8137066Y-6103315D01*
X8133222Y-6085600D01*
X8041400Y-6085600D01*
X8011400Y-6085600D01*
X7919578Y-6085600D01*
X7915733Y-6103315D01*
X7898439Y-6103315D01*
X7902400Y-6083404D01*
X7902400Y-6057796D01*
X7898439Y-6037885D01*
X7915733Y-6037885D01*
X7919578Y-6055600D01*
X8011400Y-6055600D01*
X8011400Y-5963849D01*
X8041400Y-5963849D01*
X8041400Y-6055600D01*
X8133222Y-6055600D01*
X8137066Y-6037885D01*
X8128558Y-6016924D01*
X8116123Y-5998025D01*
X8100240Y-5981916D01*
X8081520Y-5969214D01*
X8060682Y-5960409D01*
X8059115Y-5959934D01*
X8041400Y-5963849D01*
X8011400Y-5963849D01*
X7993685Y-5959934D01*
X7992118Y-5960409D01*
X7971280Y-5969214D01*
X7952559Y-5981916D01*
X7936677Y-5998025D01*
X7924242Y-6016924D01*
X7915733Y-6037885D01*
X7898439Y-6037885D01*
X7897404Y-6032680D01*
X7887604Y-6009022D01*
X7873378Y-5987730D01*
X7855270Y-5969622D01*
X7833978Y-5955395D01*
X7810320Y-5945596D01*
X7785204Y-5940600D01*
X7759596Y-5940600D01*
X7734480Y-5945596D01*
X7710822Y-5955395D01*
X7689530Y-5969622D01*
X7671422Y-5987730D01*
X7657195Y-6009022D01*
X7647396Y-6032680D01*
X7645400Y-6042714D01*
X7643404Y-6032680D01*
X7633604Y-6009022D01*
X7619378Y-5987730D01*
X7601270Y-5969622D01*
X7579978Y-5955395D01*
X7556320Y-5945596D01*
X7531204Y-5940600D01*
X7505596Y-5940600D01*
X7480480Y-5945596D01*
X7456822Y-5955395D01*
X7435530Y-5969622D01*
X7417422Y-5987730D01*
X7403195Y-6009022D01*
X7393396Y-6032680D01*
X7391400Y-6042714D01*
X7389404Y-6032680D01*
X7379604Y-6009022D01*
X7365378Y-5987730D01*
X7347270Y-5969622D01*
X7325978Y-5955395D01*
X7302320Y-5945596D01*
X7277204Y-5940600D01*
X7251596Y-5940600D01*
X7226480Y-5945596D01*
X7202822Y-5955395D01*
X7181530Y-5969622D01*
X7163422Y-5987730D01*
X7149195Y-6009022D01*
X7140618Y-6029730D01*
X7140618Y-5985600D01*
X7139749Y-5976778D01*
X7137176Y-5968296D01*
X7132997Y-5960478D01*
X7127374Y-5953626D01*
X7120522Y-5948003D01*
X7112704Y-5943824D01*
X7104221Y-5941251D01*
X7095400Y-5940382D01*
X6925400Y-5940382D01*
X6916578Y-5941251D01*
X6908096Y-5943824D01*
X6900278Y-5948003D01*
X6893426Y-5953626D01*
X6887803Y-5960478D01*
X6883624Y-5968296D01*
X6881051Y-5976778D01*
X6880182Y-5985600D01*
X5798755Y-5985600D01*
X5745035Y-5939089D01*
X5653142Y-5839205D01*
X5573146Y-5729560D01*
X5506077Y-5611564D01*
X5452797Y-5486734D01*
X5413990Y-5356675D01*
X5390156Y-5223058D01*
X5381601Y-5087604D01*
X5388435Y-4952050D01*
X5410570Y-4818142D01*
X5447721Y-4687600D01*
X5499411Y-4562104D01*
X5564976Y-4443265D01*
X5578234Y-4424600D01*
X6734563Y-4424600D01*
X6734987Y-4428912D01*
G04 #@! TA.AperFunction,Conductor*
G36*
X6734987Y-4428912D02*
G01*
X6737703Y-4437865D01*
X6739609Y-4441430D01*
X6742114Y-4446117D01*
X6748050Y-4453350D01*
X6755283Y-4459286D01*
X6763535Y-4463697D01*
X6772488Y-4466413D01*
X6781800Y-4467330D01*
X6784133Y-4467100D01*
X8396312Y-4467100D01*
X8394924Y-4469696D01*
X8392351Y-4478179D01*
X8391482Y-4487000D01*
X8391482Y-4657000D01*
X8392351Y-4665822D01*
X8394924Y-4674304D01*
X8399103Y-4682122D01*
X8404726Y-4688974D01*
X8408890Y-4692390D01*
X8408239Y-4698999D01*
X8408602Y-4702682D01*
X8408601Y-5823635D01*
X8395072Y-5837165D01*
X8394665Y-5837499D01*
X8393188Y-5836022D01*
X8390840Y-5833160D01*
X8379419Y-5823788D01*
X8366390Y-5816824D01*
X8352253Y-5812535D01*
X8341233Y-5811450D01*
X8341233Y-5811450D01*
X8337550Y-5811087D01*
X8333867Y-5811450D01*
X8228916Y-5811450D01*
X8125905Y-5708439D01*
X8131524Y-5704684D01*
X8143363Y-5692845D01*
X8152666Y-5678923D01*
X8159073Y-5663454D01*
X8162340Y-5647032D01*
X8162340Y-5630288D01*
X8159073Y-5613867D01*
X8152666Y-5598398D01*
X8143363Y-5584476D01*
X8131524Y-5572637D01*
X8117602Y-5563334D01*
X8102133Y-5556927D01*
X8085711Y-5553660D01*
X8073657Y-5553660D01*
X7980436Y-5460439D01*
X7978635Y-5458245D01*
X7969879Y-5451059D01*
X7959890Y-5445720D01*
X7949051Y-5442432D01*
X7940604Y-5441600D01*
X7940604Y-5441600D01*
X7937779Y-5441322D01*
X7934955Y-5441600D01*
X6955700Y-5441600D01*
X6955700Y-5438828D01*
X6952433Y-5422406D01*
X6946026Y-5406937D01*
X6936724Y-5393016D01*
X6924884Y-5381176D01*
X6910963Y-5371874D01*
X6895494Y-5365467D01*
X6879072Y-5362200D01*
X6862328Y-5362200D01*
X6845906Y-5365467D01*
X6830437Y-5371874D01*
X6816516Y-5381176D01*
X6804676Y-5393016D01*
X6795374Y-5406937D01*
X6794826Y-5408260D01*
X6728700Y-5342134D01*
X6728700Y-5298483D01*
X6729063Y-5294800D01*
X6728700Y-5291117D01*
X6728700Y-5291117D01*
X6727615Y-5280097D01*
X6723326Y-5265960D01*
X6716362Y-5252931D01*
X6713017Y-5248855D01*
X6709337Y-5244372D01*
X6709337Y-5244371D01*
X6706989Y-5241511D01*
X6704128Y-5239163D01*
X6630928Y-5165962D01*
X6622348Y-5157382D01*
X6622233Y-5156806D01*
X6615826Y-5141337D01*
X6606524Y-5127416D01*
X6594684Y-5115576D01*
X6580762Y-5106274D01*
X6565293Y-5099867D01*
X6548872Y-5096600D01*
X6532128Y-5096600D01*
X6515706Y-5099867D01*
X6500237Y-5106274D01*
X6486315Y-5115576D01*
X6474476Y-5127416D01*
X6465174Y-5141337D01*
X6458766Y-5156806D01*
X6455500Y-5173228D01*
X6455500Y-5189972D01*
X6458766Y-5206394D01*
X6462554Y-5215538D01*
X6461776Y-5216316D01*
X6452474Y-5230237D01*
X6446066Y-5245706D01*
X6442800Y-5262128D01*
X6442800Y-5278872D01*
X6446066Y-5295294D01*
X6452474Y-5310763D01*
X6461776Y-5324684D01*
X6473616Y-5336524D01*
X6487537Y-5345826D01*
X6503006Y-5352234D01*
X6519428Y-5355500D01*
X6529934Y-5355500D01*
X6598063Y-5423629D01*
X6600410Y-5426490D01*
X6603271Y-5428838D01*
X6603271Y-5428838D01*
X6603272Y-5428838D01*
X6629232Y-5454798D01*
X6272856Y-5454798D01*
X6028285Y-5210227D01*
X6264859Y-5210227D01*
X6264859Y-5226971D01*
X6268126Y-5243393D01*
X6274533Y-5258862D01*
X6283835Y-5272783D01*
X6295675Y-5284623D01*
X6309596Y-5293925D01*
X6325065Y-5300333D01*
X6341487Y-5303599D01*
X6358231Y-5303599D01*
X6374653Y-5300333D01*
X6390122Y-5293925D01*
X6404043Y-5284623D01*
X6415883Y-5272783D01*
X6425185Y-5258862D01*
X6431593Y-5243393D01*
X6434859Y-5226971D01*
X6434859Y-5210227D01*
X6431593Y-5193805D01*
X6425185Y-5178336D01*
X6415883Y-5164415D01*
X6407359Y-5155891D01*
X6407359Y-5122410D01*
X6658421Y-4871348D01*
X6665786Y-4871348D01*
X6875711Y-5081273D01*
X6877863Y-5092094D01*
X6884271Y-5107563D01*
X6893573Y-5121484D01*
X6905412Y-5133324D01*
X6919334Y-5142626D01*
X6934803Y-5149034D01*
X6951225Y-5152300D01*
X6967969Y-5152300D01*
X6984390Y-5149034D01*
X6999859Y-5142626D01*
X7013781Y-5133324D01*
X7025621Y-5121484D01*
X7034923Y-5107563D01*
X7041330Y-5092094D01*
X7044597Y-5075672D01*
X7044597Y-5058928D01*
X7041330Y-5042506D01*
X7034923Y-5027037D01*
X7025621Y-5013116D01*
X7013781Y-5001276D01*
X6999859Y-4991974D01*
X6984390Y-4985567D01*
X6967969Y-4982300D01*
X6951225Y-4982300D01*
X6941339Y-4984266D01*
X6747103Y-4790031D01*
X6747103Y-4777976D01*
X6745785Y-4771348D01*
X6779831Y-4771348D01*
X6874600Y-4866117D01*
X6874600Y-4878172D01*
X6877866Y-4894594D01*
X6884274Y-4910063D01*
X6893576Y-4923984D01*
X6905416Y-4935824D01*
X6919337Y-4945126D01*
X6934806Y-4951534D01*
X6951228Y-4954800D01*
X6967972Y-4954800D01*
X6984394Y-4951534D01*
X6999863Y-4945126D01*
X7013784Y-4935824D01*
X7025624Y-4923984D01*
X7034926Y-4910063D01*
X7041333Y-4894594D01*
X7044600Y-4878172D01*
X7044600Y-4861428D01*
X7041333Y-4845006D01*
X7034926Y-4829537D01*
X7025624Y-4815616D01*
X7013784Y-4803776D01*
X6999863Y-4794474D01*
X6984394Y-4788067D01*
X6967972Y-4784800D01*
X6955917Y-4784800D01*
X6846305Y-4675187D01*
X6844503Y-4672993D01*
X6835748Y-4665807D01*
X6825759Y-4660468D01*
X6814920Y-4657180D01*
X6806473Y-4656348D01*
X6806472Y-4656348D01*
X6803648Y-4656070D01*
X6800824Y-4656348D01*
X6604676Y-4656348D01*
X6601852Y-4656070D01*
X6599028Y-4656348D01*
X6599027Y-4656348D01*
X6590580Y-4657180D01*
X6579741Y-4660468D01*
X6571637Y-4664800D01*
X6557528Y-4664800D01*
X6541106Y-4668067D01*
X6525637Y-4674474D01*
X6511716Y-4683776D01*
X6503192Y-4692300D01*
X6429024Y-4692300D01*
X6426200Y-4692022D01*
X6423376Y-4692300D01*
X6423375Y-4692300D01*
X6414928Y-4693132D01*
X6404089Y-4696420D01*
X6394100Y-4701759D01*
X6385345Y-4708945D01*
X6383544Y-4711139D01*
X6378617Y-4716066D01*
X6366562Y-4716066D01*
X6350140Y-4719333D01*
X6334671Y-4725740D01*
X6320750Y-4735042D01*
X6308910Y-4746882D01*
X6299608Y-4760803D01*
X6293200Y-4776272D01*
X6289934Y-4792694D01*
X6289934Y-4809438D01*
X6293200Y-4825860D01*
X6299608Y-4841329D01*
X6308910Y-4855250D01*
X6320750Y-4867090D01*
X6334671Y-4876392D01*
X6350140Y-4882800D01*
X6366562Y-4886066D01*
X6383306Y-4886066D01*
X6399728Y-4882800D01*
X6415197Y-4876392D01*
X6429118Y-4867090D01*
X6440958Y-4855250D01*
X6450260Y-4841329D01*
X6456667Y-4825860D01*
X6459934Y-4809438D01*
X6459934Y-4807300D01*
X6503192Y-4807300D01*
X6511716Y-4815824D01*
X6525637Y-4825126D01*
X6537213Y-4829921D01*
X6311198Y-5055936D01*
X6309004Y-5057737D01*
X6304288Y-5063484D01*
X6301818Y-5066493D01*
X6298114Y-5073422D01*
X6296479Y-5076482D01*
X6293191Y-5087321D01*
X6292714Y-5092167D01*
X6292081Y-5098593D01*
X6292359Y-5101417D01*
X6292359Y-5155891D01*
X6283835Y-5164415D01*
X6274533Y-5178336D01*
X6268126Y-5193805D01*
X6264859Y-5210227D01*
X6028285Y-5210227D01*
X5929859Y-5111801D01*
X5929859Y-4884583D01*
X5930137Y-4881759D01*
X5929859Y-4878935D01*
X5929027Y-4870487D01*
X5925739Y-4859648D01*
X5923762Y-4855949D01*
X5920400Y-4849659D01*
X5915015Y-4843098D01*
X5913214Y-4840904D01*
X5911020Y-4839103D01*
X5876200Y-4804283D01*
X5876200Y-4792228D01*
X5872933Y-4775806D01*
X5866526Y-4760337D01*
X5857224Y-4746416D01*
X5845384Y-4734576D01*
X5831463Y-4725274D01*
X5815994Y-4718867D01*
X5799572Y-4715600D01*
X5782828Y-4715600D01*
X5766406Y-4718867D01*
X5750937Y-4725274D01*
X5737016Y-4734576D01*
X5725176Y-4746416D01*
X5715874Y-4760337D01*
X5709466Y-4775806D01*
X5706200Y-4792228D01*
X5706200Y-4808972D01*
X5709466Y-4825394D01*
X5715874Y-4840863D01*
X5725176Y-4854784D01*
X5737016Y-4866624D01*
X5738872Y-4867864D01*
X5733193Y-4871659D01*
X5721354Y-4883498D01*
X5712052Y-4897420D01*
X5705644Y-4912889D01*
X5702378Y-4929311D01*
X5702378Y-4946054D01*
X5705644Y-4962476D01*
X5712052Y-4977945D01*
X5721354Y-4991867D01*
X5729878Y-5000391D01*
X5729878Y-5111452D01*
X5729599Y-5114278D01*
X5730309Y-5121484D01*
X5730710Y-5125550D01*
X5731547Y-5128311D01*
X5733997Y-5136388D01*
X5739337Y-5146377D01*
X5743922Y-5151964D01*
X5746522Y-5155133D01*
X5748716Y-5156934D01*
X5778514Y-5186731D01*
X5765940Y-5189232D01*
X5750471Y-5195640D01*
X5736549Y-5204942D01*
X5724710Y-5216781D01*
X5715408Y-5230703D01*
X5709000Y-5246172D01*
X5705734Y-5262594D01*
X5705734Y-5279338D01*
X5709000Y-5295759D01*
X5715408Y-5311228D01*
X5724710Y-5325150D01*
X5733596Y-5334036D01*
X5734066Y-5338806D01*
X5737354Y-5349645D01*
X5738731Y-5352222D01*
X5742693Y-5359634D01*
X5745594Y-5363169D01*
X5749878Y-5368390D01*
X5752073Y-5370190D01*
X6177946Y-5796063D01*
X6179746Y-5798258D01*
X6183548Y-5801377D01*
X6188502Y-5805443D01*
X6196418Y-5809674D01*
X6198491Y-5810782D01*
X6209330Y-5814070D01*
X6217777Y-5814902D01*
X6217777Y-5814902D01*
X6220602Y-5815180D01*
X6223426Y-5814902D01*
X7058665Y-5814902D01*
X7062614Y-5818143D01*
X7072603Y-5823482D01*
X7083442Y-5826770D01*
X7091890Y-5827602D01*
X7091890Y-5827602D01*
X7094714Y-5827880D01*
X7097538Y-5827602D01*
X7396973Y-5827602D01*
X7399798Y-5827880D01*
X7402622Y-5827602D01*
X7402622Y-5827602D01*
X7411070Y-5826770D01*
X7421908Y-5823482D01*
X7431897Y-5818143D01*
X7440653Y-5810958D01*
X7442454Y-5808763D01*
X7507117Y-5744100D01*
X7519172Y-5744100D01*
X7535594Y-5740833D01*
X7551063Y-5734426D01*
X7564984Y-5725124D01*
X7576824Y-5713284D01*
X7586126Y-5699363D01*
X7592533Y-5683894D01*
X7595800Y-5667472D01*
X7595800Y-5650728D01*
X7593189Y-5637600D01*
X7842934Y-5637600D01*
X8142213Y-5936879D01*
X8144560Y-5939739D01*
X8147421Y-5942087D01*
X8147422Y-5942088D01*
X8152301Y-5946092D01*
X8155981Y-5949112D01*
X8169010Y-5956076D01*
X8183147Y-5960365D01*
X8194166Y-5961450D01*
X8194167Y-5961450D01*
X8197850Y-5961813D01*
X8201533Y-5961450D01*
X8306484Y-5961450D01*
X8313662Y-5968628D01*
X8316010Y-5971489D01*
X8318872Y-5973838D01*
X8355072Y-6010038D01*
X8355072Y-6010038D01*
X8363652Y-6018618D01*
X8363766Y-6019194D01*
X8370174Y-6034663D01*
X8379476Y-6048584D01*
X8391316Y-6060424D01*
X8405237Y-6069726D01*
X8420706Y-6076133D01*
X8437128Y-6079400D01*
X8453872Y-6079400D01*
X8470294Y-6076133D01*
X8485763Y-6069726D01*
X8499684Y-6060424D01*
X8511524Y-6048584D01*
X8520826Y-6034663D01*
X8527234Y-6019194D01*
X8527348Y-6018618D01*
X8534029Y-6011936D01*
X8536891Y-6009588D01*
X8546263Y-5998168D01*
X8553228Y-5985139D01*
X8556656Y-5973838D01*
X8557516Y-5971001D01*
X8557754Y-5968588D01*
X8558601Y-5959982D01*
X8558601Y-5959981D01*
X8558964Y-5956299D01*
X8558601Y-5952616D01*
X8558601Y-5858384D01*
X8558964Y-5854701D01*
X8558601Y-5851019D01*
X8558601Y-5458761D01*
X9843047Y-5458761D01*
X9845252Y-5467752D01*
X9854221Y-5483316D01*
X9866055Y-5496831D01*
X9880297Y-5507778D01*
X9896402Y-5515737D01*
X9913750Y-5520400D01*
X9948750Y-5520400D01*
X9948750Y-5445000D01*
X9847320Y-5445000D01*
X9843047Y-5458761D01*
X8558601Y-5458761D01*
X8558601Y-5407510D01*
X9637453Y-5407510D01*
X9645752Y-5421583D01*
X9664542Y-5429187D01*
X9684453Y-5432979D01*
X9704722Y-5432814D01*
X9724569Y-5428698D01*
X9741748Y-5421583D01*
X9750047Y-5407510D01*
X9743776Y-5401239D01*
X9843047Y-5401239D01*
X9847320Y-5415000D01*
X9948750Y-5415000D01*
X9948750Y-5339600D01*
X9913750Y-5339600D01*
X9896402Y-5344263D01*
X9880297Y-5352222D01*
X9866055Y-5363169D01*
X9854221Y-5376684D01*
X9845252Y-5392248D01*
X9843047Y-5401239D01*
X9743776Y-5401239D01*
X9693750Y-5351213D01*
X9637453Y-5407510D01*
X8558601Y-5407510D01*
X8558601Y-5320703D01*
X9590771Y-5320703D01*
X9590936Y-5340972D01*
X9595052Y-5360819D01*
X9602168Y-5377998D01*
X9616240Y-5386297D01*
X9672537Y-5330000D01*
X9714963Y-5330000D01*
X9771260Y-5386297D01*
X9785333Y-5377998D01*
X9792937Y-5359209D01*
X9796729Y-5339297D01*
X9796564Y-5319028D01*
X9792448Y-5299181D01*
X9785333Y-5282002D01*
X9771260Y-5273703D01*
X9714963Y-5330000D01*
X9672537Y-5330000D01*
X9616240Y-5273703D01*
X9602168Y-5282002D01*
X9594563Y-5300792D01*
X9590771Y-5320703D01*
X8558601Y-5320703D01*
X8558601Y-5252490D01*
X9637453Y-5252490D01*
X9693750Y-5308787D01*
X9750047Y-5252490D01*
X9741748Y-5238418D01*
X9722959Y-5230813D01*
X9703047Y-5227021D01*
X9682778Y-5227186D01*
X9662931Y-5231302D01*
X9645752Y-5238418D01*
X9637453Y-5252490D01*
X8558601Y-5252490D01*
X8558601Y-4907510D01*
X9637453Y-4907510D01*
X9645752Y-4921583D01*
X9664542Y-4929187D01*
X9684453Y-4932979D01*
X9704722Y-4932814D01*
X9724569Y-4928698D01*
X9741748Y-4921583D01*
X9750047Y-4907510D01*
X9693750Y-4851213D01*
X9637453Y-4907510D01*
X8558601Y-4907510D01*
X8558601Y-4820703D01*
X9590771Y-4820703D01*
X9590936Y-4840972D01*
X9595052Y-4860819D01*
X9602168Y-4877998D01*
X9616240Y-4886297D01*
X9672537Y-4830000D01*
X9714963Y-4830000D01*
X9771260Y-4886297D01*
X9785333Y-4877998D01*
X9792937Y-4859209D01*
X9796729Y-4839297D01*
X9796564Y-4819028D01*
X9792448Y-4799181D01*
X9785333Y-4782002D01*
X9771260Y-4773703D01*
X9714963Y-4830000D01*
X9672537Y-4830000D01*
X9616240Y-4773703D01*
X9602168Y-4782002D01*
X9594563Y-4800792D01*
X9590771Y-4820703D01*
X8558601Y-4820703D01*
X8558601Y-4752490D01*
X9637453Y-4752490D01*
X9693750Y-4808787D01*
X9743776Y-4758761D01*
X9843047Y-4758761D01*
X9845252Y-4767752D01*
X9854221Y-4783316D01*
X9866055Y-4796831D01*
X9880297Y-4807778D01*
X9896402Y-4815737D01*
X9913750Y-4820400D01*
X9948750Y-4820400D01*
X9948750Y-4745000D01*
X9847320Y-4745000D01*
X9843047Y-4758761D01*
X9743776Y-4758761D01*
X9750047Y-4752490D01*
X9741748Y-4738418D01*
X9722959Y-4730813D01*
X9703047Y-4727021D01*
X9682778Y-4727186D01*
X9662931Y-4731302D01*
X9645752Y-4738418D01*
X9637453Y-4752490D01*
X8558601Y-4752490D01*
X8558601Y-4730065D01*
X8572128Y-4716538D01*
X8574990Y-4714190D01*
X8584362Y-4702769D01*
X8584657Y-4702218D01*
X8606700Y-4702218D01*
X8615522Y-4701349D01*
X8624004Y-4698776D01*
X8631822Y-4694597D01*
X8638674Y-4688974D01*
X8644297Y-4682122D01*
X8648476Y-4674304D01*
X8651049Y-4665822D01*
X8651918Y-4657000D01*
X8651918Y-4612870D01*
X8660496Y-4633578D01*
X8674722Y-4654870D01*
X8692830Y-4672978D01*
X8714122Y-4687205D01*
X8737780Y-4697004D01*
X8762896Y-4702000D01*
X8788504Y-4702000D01*
X8813620Y-4697004D01*
X8837278Y-4687205D01*
X8858570Y-4672978D01*
X8876678Y-4654870D01*
X8890905Y-4633578D01*
X8900704Y-4609920D01*
X8902700Y-4599886D01*
X8904696Y-4609920D01*
X8914496Y-4633578D01*
X8928722Y-4654870D01*
X8946830Y-4672978D01*
X8968122Y-4687205D01*
X8991780Y-4697004D01*
X9016896Y-4702000D01*
X9042504Y-4702000D01*
X9046330Y-4701239D01*
X9843047Y-4701239D01*
X9847320Y-4715000D01*
X9948750Y-4715000D01*
X9948750Y-4639600D01*
X9913750Y-4639600D01*
X9896402Y-4644263D01*
X9880297Y-4652222D01*
X9866055Y-4663169D01*
X9854221Y-4676684D01*
X9845252Y-4692248D01*
X9843047Y-4701239D01*
X9046330Y-4701239D01*
X9067620Y-4697004D01*
X9091278Y-4687205D01*
X9112570Y-4672978D01*
X9130678Y-4654870D01*
X9144905Y-4633578D01*
X9154704Y-4609920D01*
X9155739Y-4604715D01*
X9173034Y-4604715D01*
X9181542Y-4625676D01*
X9193977Y-4644575D01*
X9209860Y-4660684D01*
X9228580Y-4673386D01*
X9249418Y-4682191D01*
X9250985Y-4682666D01*
X9268700Y-4678751D01*
X9268700Y-4587000D01*
X9298700Y-4587000D01*
X9298700Y-4678751D01*
X9316415Y-4682666D01*
X9317982Y-4682191D01*
X9338820Y-4673386D01*
X9357541Y-4660684D01*
X9373423Y-4644575D01*
X9385858Y-4625676D01*
X9394367Y-4604715D01*
X9390522Y-4587000D01*
X9298700Y-4587000D01*
X9268700Y-4587000D01*
X9176878Y-4587000D01*
X9173034Y-4604715D01*
X9155739Y-4604715D01*
X9159700Y-4584804D01*
X9159700Y-4559196D01*
X9155740Y-4539285D01*
X9173034Y-4539285D01*
X9176878Y-4557000D01*
X9268700Y-4557000D01*
X9268700Y-4465249D01*
X9298700Y-4465249D01*
X9298700Y-4557000D01*
X9390522Y-4557000D01*
X9394367Y-4539285D01*
X9385858Y-4518324D01*
X9373423Y-4499425D01*
X9357541Y-4483316D01*
X9338820Y-4470614D01*
X9317982Y-4461809D01*
X9316415Y-4461334D01*
X9298700Y-4465249D01*
X9268700Y-4465249D01*
X9250985Y-4461334D01*
X9249418Y-4461809D01*
X9228580Y-4470614D01*
X9209860Y-4483316D01*
X9193977Y-4499425D01*
X9181542Y-4518324D01*
X9173034Y-4539285D01*
X9155740Y-4539285D01*
X9154704Y-4534080D01*
X9144905Y-4510422D01*
X9130678Y-4489130D01*
X9112570Y-4471022D01*
X9091278Y-4456796D01*
X9067620Y-4446996D01*
X9042504Y-4442000D01*
X9016896Y-4442000D01*
X8991780Y-4446996D01*
X8968122Y-4456796D01*
X8946830Y-4471022D01*
X8928722Y-4489130D01*
X8914496Y-4510422D01*
X8904696Y-4534080D01*
X8902700Y-4544114D01*
X8900704Y-4534080D01*
X8890905Y-4510422D01*
X8876678Y-4489130D01*
X8858570Y-4471022D01*
X8837278Y-4456796D01*
X8813620Y-4446996D01*
X8788504Y-4442000D01*
X8762896Y-4442000D01*
X8737780Y-4446996D01*
X8714122Y-4456796D01*
X8692830Y-4471022D01*
X8674722Y-4489130D01*
X8660496Y-4510422D01*
X8651918Y-4531131D01*
X8651918Y-4487000D01*
X8651049Y-4478179D01*
X8648476Y-4469696D01*
X8644297Y-4461878D01*
X8638674Y-4455026D01*
X8631822Y-4449403D01*
X8624004Y-4445224D01*
X8615522Y-4442651D01*
X8606700Y-4441782D01*
X8601803Y-4441782D01*
X8603897Y-4437865D01*
X8606613Y-4428912D01*
X8607037Y-4424600D01*
X9991449Y-4424600D01*
X10012230Y-4454557D01*
X10076710Y-4574559D01*
X10085154Y-4594490D01*
X10082740Y-4595776D01*
X10082713Y-4595798D01*
X10082683Y-4595814D01*
X10079079Y-4598772D01*
X10075498Y-4601702D01*
X10075477Y-4601728D01*
X10075450Y-4601750D01*
X10072495Y-4605351D01*
X10069552Y-4608926D01*
X10069536Y-4608956D01*
X10069514Y-4608983D01*
X10067322Y-4613083D01*
X10065130Y-4617172D01*
X10065120Y-4617205D01*
X10065104Y-4617235D01*
X10063760Y-4621665D01*
X10062401Y-4626122D01*
X10062397Y-4626156D01*
X10062387Y-4626188D01*
X10061935Y-4630780D01*
X10061470Y-4635432D01*
X10061700Y-4637800D01*
X10061700Y-4663460D01*
X10061446Y-4663169D01*
X10047203Y-4652222D01*
X10031098Y-4644263D01*
X10013750Y-4639600D01*
X9978750Y-4639600D01*
X9978750Y-4715000D01*
X9980750Y-4715000D01*
X9980750Y-4745000D01*
X9978750Y-4745000D01*
X9978750Y-4820400D01*
X10013750Y-4820400D01*
X10031098Y-4815737D01*
X10047203Y-4807778D01*
X10061446Y-4796831D01*
X10061700Y-4796541D01*
X10061700Y-5363459D01*
X10061446Y-5363169D01*
X10047203Y-5352222D01*
X10031098Y-5344263D01*
X10013750Y-5339600D01*
X9978750Y-5339600D01*
X9978750Y-5415000D01*
X9980750Y-5415000D01*
X9980750Y-5445000D01*
X9978750Y-5445000D01*
X9978750Y-5520400D01*
X10013750Y-5520400D01*
X10031098Y-5515737D01*
X10047203Y-5507778D01*
X10061446Y-5496831D01*
X10061700Y-5496541D01*
X10061700Y-5522084D01*
X10061471Y-5524334D01*
X10061700Y-5526750D01*
X10061700Y-5526833D01*
X10061921Y-5529081D01*
X10062355Y-5533648D01*
X10062379Y-5533728D01*
X10062387Y-5533812D01*
X10063725Y-5538222D01*
X10065040Y-5542612D01*
X10065079Y-5542685D01*
X10065103Y-5542765D01*
X10067277Y-5546833D01*
X10069422Y-5550879D01*
X10069475Y-5550943D01*
X10069514Y-5551017D01*
X10072443Y-5554586D01*
X10075333Y-5558132D01*
X10075397Y-5558185D01*
X10075450Y-5558250D01*
X10079016Y-5561176D01*
X10082545Y-5564093D01*
X10082618Y-5564133D01*
X10082683Y-5564186D01*
X10083937Y-5564857D01*
X10054023Y-5631473D01*
X9984765Y-5748198D01*
X9902739Y-5856332D01*
X9808999Y-5954485D01*
X9704749Y-6041397D01*
X9591332Y-6115947D01*
X9470204Y-6177180D01*
X9396100Y-6204617D01*
X9576357Y-6024361D01*
X9578556Y-6022555D01*
X9580358Y-6020361D01*
X9648317Y-5952401D01*
X9660372Y-5952401D01*
X9676794Y-5949134D01*
X9692263Y-5942727D01*
X9706184Y-5933425D01*
X9718024Y-5921585D01*
X9727326Y-5907664D01*
X9733734Y-5892195D01*
X9737000Y-5875773D01*
X9737000Y-5859029D01*
X9733734Y-5842607D01*
X9727326Y-5827138D01*
X9718024Y-5813217D01*
X9706184Y-5801377D01*
X9692263Y-5792075D01*
X9676794Y-5785667D01*
X9660372Y-5782401D01*
X9643628Y-5782401D01*
X9627206Y-5785667D01*
X9611737Y-5792075D01*
X9597816Y-5801377D01*
X9585976Y-5813217D01*
X9576674Y-5827138D01*
X9570267Y-5842607D01*
X9567000Y-5859029D01*
X9567000Y-5871084D01*
X9499045Y-5939039D01*
X9496845Y-5940845D01*
X9495044Y-5943039D01*
X9285283Y-6152800D01*
X9223024Y-6152800D01*
X9220200Y-6152522D01*
X9217376Y-6152800D01*
X9217375Y-6152800D01*
X9208928Y-6153632D01*
X9198799Y-6156705D01*
X9198089Y-6156920D01*
X9188100Y-6162259D01*
X9186710Y-6163400D01*
X9179345Y-6169445D01*
X9177543Y-6171639D01*
X9158283Y-6190900D01*
X8279608Y-6190900D01*
X8271084Y-6182376D01*
X8257163Y-6173074D01*
X8241694Y-6166666D01*
X8225272Y-6163400D01*
X8208528Y-6163400D01*
X8192106Y-6166666D01*
X8176637Y-6173074D01*
X8162716Y-6182376D01*
X8150876Y-6194216D01*
X8141574Y-6208137D01*
X8135166Y-6223606D01*
X8131900Y-6240028D01*
X8131900Y-6256772D01*
X8135166Y-6273194D01*
X8136732Y-6276974D01*
X6609013Y-6276748D01*
X6471440Y-6272217D01*
X6337167Y-6252423D01*
X6205997Y-6217555D01*
X6079617Y-6168063D01*
X5959652Y-6104582D01*
X5847645Y-6027929D01*
X5798755Y-5985600D01*
X6880182Y-5985600D01*
X6880182Y-6155600D01*
X6881051Y-6164421D01*
X6883624Y-6172904D01*
X6887803Y-6180722D01*
X6893426Y-6187574D01*
X6900278Y-6193197D01*
X6908096Y-6197376D01*
X6916578Y-6199949D01*
X6925400Y-6200818D01*
X7095400Y-6200818D01*
X7104221Y-6199949D01*
X7112704Y-6197376D01*
X7120522Y-6193197D01*
X7127374Y-6187574D01*
X7132997Y-6180722D01*
X7137176Y-6172904D01*
X7139749Y-6164421D01*
X7140618Y-6155600D01*
X7140618Y-6111469D01*
X7149195Y-6132178D01*
X7163422Y-6153470D01*
X7181530Y-6171578D01*
X7202822Y-6185804D01*
X7226480Y-6195604D01*
X7251596Y-6200600D01*
X7277204Y-6200600D01*
X7302320Y-6195604D01*
X7325978Y-6185804D01*
X7347270Y-6171578D01*
X7365378Y-6153470D01*
X7379604Y-6132178D01*
X7389404Y-6108520D01*
X7391400Y-6098486D01*
X7393396Y-6108520D01*
X7403195Y-6132178D01*
X7417422Y-6153470D01*
X7435530Y-6171578D01*
X7456822Y-6185804D01*
X7480480Y-6195604D01*
X7505596Y-6200600D01*
X7531204Y-6200600D01*
X7556320Y-6195604D01*
X7579978Y-6185804D01*
X7601270Y-6171578D01*
X7619378Y-6153470D01*
X7633604Y-6132178D01*
X7643404Y-6108520D01*
X7645400Y-6098486D01*
X7647396Y-6108520D01*
X7657195Y-6132178D01*
X7671422Y-6153470D01*
X7689530Y-6171578D01*
X7710822Y-6185804D01*
X7734480Y-6195604D01*
X7759596Y-6200600D01*
X7785204Y-6200600D01*
X7810320Y-6195604D01*
X7833978Y-6185804D01*
X7855270Y-6171578D01*
X7873378Y-6153470D01*
X7887604Y-6132178D01*
X7897404Y-6108520D01*
X7898439Y-6103315D01*
X7915733Y-6103315D01*
X7924242Y-6124276D01*
X7936677Y-6143175D01*
X7952559Y-6159284D01*
X7971280Y-6171986D01*
X7992118Y-6180791D01*
X7993685Y-6181266D01*
X8011400Y-6177351D01*
X8011400Y-6085600D01*
X8041400Y-6085600D01*
X8041400Y-6177351D01*
X8059115Y-6181266D01*
X8060682Y-6180791D01*
X8081520Y-6171986D01*
X8100240Y-6159284D01*
X8116123Y-6143175D01*
X8128558Y-6124276D01*
X8137066Y-6103315D01*
X8133222Y-6085600D01*
X8041400Y-6085600D01*
X8011400Y-6085600D01*
X7919578Y-6085600D01*
X7915733Y-6103315D01*
X7898439Y-6103315D01*
X7902400Y-6083404D01*
X7902400Y-6057796D01*
X7898439Y-6037885D01*
X7915733Y-6037885D01*
X7919578Y-6055600D01*
X8011400Y-6055600D01*
X8011400Y-5963849D01*
X8041400Y-5963849D01*
X8041400Y-6055600D01*
X8133222Y-6055600D01*
X8137066Y-6037885D01*
X8128558Y-6016924D01*
X8116123Y-5998025D01*
X8100240Y-5981916D01*
X8081520Y-5969214D01*
X8060682Y-5960409D01*
X8059115Y-5959934D01*
X8041400Y-5963849D01*
X8011400Y-5963849D01*
X7993685Y-5959934D01*
X7992118Y-5960409D01*
X7971280Y-5969214D01*
X7952559Y-5981916D01*
X7936677Y-5998025D01*
X7924242Y-6016924D01*
X7915733Y-6037885D01*
X7898439Y-6037885D01*
X7897404Y-6032680D01*
X7887604Y-6009022D01*
X7873378Y-5987730D01*
X7855270Y-5969622D01*
X7833978Y-5955395D01*
X7810320Y-5945596D01*
X7785204Y-5940600D01*
X7759596Y-5940600D01*
X7734480Y-5945596D01*
X7710822Y-5955395D01*
X7689530Y-5969622D01*
X7671422Y-5987730D01*
X7657195Y-6009022D01*
X7647396Y-6032680D01*
X7645400Y-6042714D01*
X7643404Y-6032680D01*
X7633604Y-6009022D01*
X7619378Y-5987730D01*
X7601270Y-5969622D01*
X7579978Y-5955395D01*
X7556320Y-5945596D01*
X7531204Y-5940600D01*
X7505596Y-5940600D01*
X7480480Y-5945596D01*
X7456822Y-5955395D01*
X7435530Y-5969622D01*
X7417422Y-5987730D01*
X7403195Y-6009022D01*
X7393396Y-6032680D01*
X7391400Y-6042714D01*
X7389404Y-6032680D01*
X7379604Y-6009022D01*
X7365378Y-5987730D01*
X7347270Y-5969622D01*
X7325978Y-5955395D01*
X7302320Y-5945596D01*
X7277204Y-5940600D01*
X7251596Y-5940600D01*
X7226480Y-5945596D01*
X7202822Y-5955395D01*
X7181530Y-5969622D01*
X7163422Y-5987730D01*
X7149195Y-6009022D01*
X7140618Y-6029730D01*
X7140618Y-5985600D01*
X7139749Y-5976778D01*
X7137176Y-5968296D01*
X7132997Y-5960478D01*
X7127374Y-5953626D01*
X7120522Y-5948003D01*
X7112704Y-5943824D01*
X7104221Y-5941251D01*
X7095400Y-5940382D01*
X6925400Y-5940382D01*
X6916578Y-5941251D01*
X6908096Y-5943824D01*
X6900278Y-5948003D01*
X6893426Y-5953626D01*
X6887803Y-5960478D01*
X6883624Y-5968296D01*
X6881051Y-5976778D01*
X6880182Y-5985600D01*
X5798755Y-5985600D01*
X5745035Y-5939089D01*
X5653142Y-5839205D01*
X5573146Y-5729560D01*
X5506077Y-5611564D01*
X5452797Y-5486734D01*
X5413990Y-5356675D01*
X5390156Y-5223058D01*
X5381601Y-5087604D01*
X5388435Y-4952050D01*
X5410570Y-4818142D01*
X5447721Y-4687600D01*
X5499411Y-4562104D01*
X5564976Y-4443265D01*
X5578234Y-4424600D01*
X6734563Y-4424600D01*
X6734987Y-4428912D01*
G37*
G04 #@! TD.AperFunction*
G04 #@! TD*
M02*
