%FSLAX45Y45*%
G04 Gerber Fmt 4.5, Leading zero omitted, Abs format (unit mm)*
G04 Created by KiCad (PCBNEW (5.1.10)-1) date 2021-07-14 09:57:32*
%MOMM*%
%LPD*%
G01*
G04 APERTURE LIST*
%TA.AperFunction,Profile*%
%ADD10C,0.150000*%
%TD*%
%TA.AperFunction,Profile*%
%ADD11C,0.050000*%
%TD*%
%ADD12C,0.200000*%
%ADD13C,0.300000*%
G04 APERTURE END LIST*
D10*
X12073722Y-8539419D02*
G75*
G03*
X12218823Y-8780259I113778J-95581D01*
G01*
X12910037Y-8401253D02*
G75*
G03*
X12765072Y-8160509I-112537J96253D01*
G01*
D11*
X12073967Y-8539626D02*
G75*
G02*
X12765072Y-8160509I801104J-640884D01*
G01*
X12218823Y-8780259D02*
G75*
G02*
X12910037Y-8401253I800781J-640625D01*
G01*
X16081177Y-8780259D02*
G75*
G03*
X15389963Y-8401253I-800781J-640625D01*
G01*
X16226033Y-8539626D02*
G75*
G03*
X15534928Y-8160509I-801104J-640884D01*
G01*
D10*
X16226278Y-8539419D02*
G75*
G02*
X16081177Y-8780259I-113778J-95581D01*
G01*
X15389963Y-8401253D02*
G75*
G02*
X15534928Y-8160509I112537J96253D01*
G01*
D11*
X16516811Y-9708996D02*
G75*
G02*
X15354100Y-10509600I-1162711J443996D01*
G01*
X14922300Y-8604600D02*
X13144300Y-8604600D01*
X13144300Y-8604600D02*
X13144300Y-8020400D01*
X16516436Y-8820024D02*
X16471636Y-8820024D01*
X16471700Y-9709000D02*
X16471636Y-8820024D01*
X16516436Y-8820024D02*
G75*
G03*
X15354100Y-8020400I-1162336J-444976D01*
G01*
X15354100Y-10509600D02*
X12971508Y-10509229D01*
X14922300Y-8020400D02*
X14922300Y-8604600D01*
X13144300Y-8020400D02*
X12941100Y-8020400D01*
X15354100Y-8020400D02*
X14922300Y-8020400D01*
X16471700Y-9709000D02*
X16516811Y-9708996D01*
X12971508Y-10509229D02*
G75*
G02*
X12941100Y-8020400I-30408J1244229D01*
G01*
D12*
X11855008Y-9672640D02*
X11895008Y-9712640D01*
X11895008Y-9672640D02*
X11855008Y-9712640D01*
X11887520Y-8726744D02*
X11927520Y-8766744D01*
X11927520Y-8726744D02*
X11887520Y-8766744D01*
X11917746Y-9068120D02*
X11957746Y-9108120D01*
X11957746Y-9068120D02*
X11917746Y-9108120D01*
X11946702Y-9828596D02*
X11986702Y-9868596D01*
X11986702Y-9828596D02*
X11946702Y-9868596D01*
X12265110Y-9477390D02*
X12305110Y-9517390D01*
X12305110Y-9477390D02*
X12265110Y-9517390D01*
X12302497Y-9680951D02*
X12342497Y-9720951D01*
X12342497Y-9680951D02*
X12302497Y-9720951D01*
X12309800Y-9240000D02*
X12349800Y-9280000D01*
X12349800Y-9240000D02*
X12309800Y-9280000D01*
X12390000Y-8882500D02*
X12430000Y-8922500D01*
X12430000Y-8882500D02*
X12390000Y-8922500D01*
X12507500Y-10252500D02*
X12547500Y-10292500D01*
X12547500Y-10252500D02*
X12507500Y-10292500D01*
X12553762Y-10137714D02*
X12593762Y-10177714D01*
X12593762Y-10137714D02*
X12553762Y-10177714D01*
X12687682Y-9312282D02*
X12727682Y-9352282D01*
X12727682Y-9312282D02*
X12687682Y-9352282D01*
X12727510Y-8929990D02*
X12767510Y-8969990D01*
X12767510Y-8929990D02*
X12727510Y-8969990D01*
X12753150Y-9387874D02*
X12793150Y-9427874D01*
X12793150Y-9387874D02*
X12753150Y-9427874D01*
X12753153Y-9476451D02*
X12793153Y-9516451D01*
X12793153Y-9476451D02*
X12753153Y-9516451D01*
X12837125Y-8916298D02*
X12877125Y-8956298D01*
X12877125Y-8916298D02*
X12837125Y-8956298D01*
X12866950Y-9126950D02*
X12906950Y-9166950D01*
X12906950Y-9126950D02*
X12866950Y-9166950D01*
X12940604Y-9417624D02*
X12980604Y-9457624D01*
X12980604Y-9417624D02*
X12940604Y-9457624D01*
X12942499Y-8940000D02*
X12982499Y-8980000D01*
X12982499Y-8940000D02*
X12942499Y-8980000D01*
X12982899Y-9130701D02*
X13022899Y-9170701D01*
X13022899Y-9130701D02*
X12982899Y-9170701D01*
X13095544Y-10129078D02*
X13135544Y-10169078D01*
X13135544Y-10129078D02*
X13095544Y-10169078D01*
X13120000Y-9800000D02*
X13160000Y-9840000D01*
X13160000Y-9800000D02*
X13120000Y-9840000D01*
X13120700Y-8777100D02*
X13160700Y-8817100D01*
X13160700Y-8777100D02*
X13120700Y-8817100D01*
X13144566Y-10372664D02*
X13184566Y-10412664D01*
X13184566Y-10372664D02*
X13144566Y-10412664D01*
X13223311Y-9251699D02*
X13263311Y-9291699D01*
X13263311Y-9251699D02*
X13223311Y-9291699D01*
X13249600Y-9034800D02*
X13289600Y-9074800D01*
X13289600Y-9034800D02*
X13249600Y-9074800D01*
X13288838Y-9333550D02*
X13328838Y-9373550D01*
X13328838Y-9333550D02*
X13288838Y-9373550D01*
X13292140Y-9161846D02*
X13332140Y-9201846D01*
X13332140Y-9161846D02*
X13292140Y-9201846D01*
X13293000Y-8689800D02*
X13333000Y-8729800D01*
X13333000Y-8689800D02*
X13293000Y-8729800D01*
X13518708Y-9348536D02*
X13558708Y-9388536D01*
X13558708Y-9348536D02*
X13518708Y-9388536D01*
X13526412Y-9767456D02*
X13566412Y-9807456D01*
X13566412Y-9767456D02*
X13526412Y-9807456D01*
X13582500Y-10010000D02*
X13622500Y-10050000D01*
X13622500Y-10010000D02*
X13582500Y-10050000D01*
X13593400Y-8864800D02*
X13633400Y-8904800D01*
X13633400Y-8864800D02*
X13593400Y-8904800D01*
X13639273Y-9774401D02*
X13679273Y-9814401D01*
X13679273Y-9774401D02*
X13639273Y-9814401D01*
X13645000Y-8991000D02*
X13685000Y-9031000D01*
X13685000Y-8991000D02*
X13645000Y-9031000D01*
X13645000Y-9181500D02*
X13685000Y-9221500D01*
X13685000Y-9181500D02*
X13645000Y-9221500D01*
X13695800Y-8787800D02*
X13735800Y-8827800D01*
X13735800Y-8787800D02*
X13695800Y-8827800D01*
X13766189Y-9793125D02*
X13806189Y-9833125D01*
X13806189Y-9793125D02*
X13766189Y-9833125D01*
X13810100Y-8813200D02*
X13850100Y-8853200D01*
X13850100Y-8813200D02*
X13810100Y-8853200D01*
X13810100Y-9079900D02*
X13850100Y-9119900D01*
X13850100Y-9079900D02*
X13810100Y-9119900D01*
X13810100Y-9283100D02*
X13850100Y-9323100D01*
X13850100Y-9283100D02*
X13810100Y-9323100D01*
X13911700Y-8800500D02*
X13951700Y-8840500D01*
X13951700Y-8800500D02*
X13911700Y-8840500D01*
X13911700Y-8978300D02*
X13951700Y-9018300D01*
X13951700Y-8978300D02*
X13911700Y-9018300D01*
X13911700Y-9181500D02*
X13951700Y-9221500D01*
X13951700Y-9181500D02*
X13911700Y-9221500D01*
X13911700Y-9384700D02*
X13951700Y-9424700D01*
X13951700Y-9384700D02*
X13911700Y-9424700D01*
X13946190Y-9834946D02*
X13986190Y-9874946D01*
X13986190Y-9834946D02*
X13946190Y-9874946D01*
X14013300Y-8813200D02*
X14053300Y-8853200D01*
X14053300Y-8813200D02*
X14013300Y-8853200D01*
X14013300Y-9079900D02*
X14053300Y-9119900D01*
X14053300Y-9079900D02*
X14013300Y-9119900D01*
X14013300Y-9283100D02*
X14053300Y-9323100D01*
X14053300Y-9283100D02*
X14013300Y-9323100D01*
X14114900Y-8800500D02*
X14154900Y-8840500D01*
X14154900Y-8800500D02*
X14114900Y-8840500D01*
X14114900Y-8978300D02*
X14154900Y-9018300D01*
X14154900Y-8978300D02*
X14114900Y-9018300D01*
X14114900Y-9181500D02*
X14154900Y-9221500D01*
X14154900Y-9181500D02*
X14114900Y-9221500D01*
X14114900Y-9384700D02*
X14154900Y-9424700D01*
X14154900Y-9384700D02*
X14114900Y-9424700D01*
X14167484Y-9817499D02*
X14207484Y-9857499D01*
X14207484Y-9817499D02*
X14167484Y-9857499D01*
X14203800Y-9079900D02*
X14243800Y-9119900D01*
X14243800Y-9079900D02*
X14203800Y-9119900D01*
X14203800Y-9283100D02*
X14243800Y-9323100D01*
X14243800Y-9283100D02*
X14203800Y-9323100D01*
X14203800Y-9549800D02*
X14243800Y-9589800D01*
X14243800Y-9549800D02*
X14203800Y-9589800D01*
X14216500Y-8813200D02*
X14256500Y-8853200D01*
X14256500Y-8813200D02*
X14216500Y-8853200D01*
X14252500Y-10330000D02*
X14292500Y-10370000D01*
X14292500Y-10330000D02*
X14252500Y-10370000D01*
X14330800Y-8800500D02*
X14370800Y-8840500D01*
X14370800Y-8800500D02*
X14330800Y-8840500D01*
X14337500Y-9760000D02*
X14377500Y-9800000D01*
X14377500Y-9760000D02*
X14337500Y-9800000D01*
X14345000Y-10057500D02*
X14385000Y-10097500D01*
X14385000Y-10057500D02*
X14345000Y-10097500D01*
X14381600Y-8991000D02*
X14421600Y-9031000D01*
X14421600Y-8991000D02*
X14381600Y-9031000D01*
X14381600Y-9181500D02*
X14421600Y-9221500D01*
X14421600Y-9181500D02*
X14381600Y-9221500D01*
X14381600Y-9384700D02*
X14421600Y-9424700D01*
X14421600Y-9384700D02*
X14381600Y-9424700D01*
X14432400Y-8851300D02*
X14472400Y-8891300D01*
X14472400Y-8851300D02*
X14432400Y-8891300D01*
X14445100Y-9524400D02*
X14485100Y-9564400D01*
X14485100Y-9524400D02*
X14445100Y-9564400D01*
X14460000Y-10322500D02*
X14500000Y-10362500D01*
X14500000Y-10322500D02*
X14460000Y-10362500D01*
X14470500Y-9092600D02*
X14510500Y-9132600D01*
X14510500Y-9092600D02*
X14470500Y-9132600D01*
X14483200Y-9295800D02*
X14523200Y-9335800D01*
X14523200Y-9295800D02*
X14483200Y-9335800D01*
X14532500Y-10002500D02*
X14572500Y-10042500D01*
X14572500Y-10002500D02*
X14532500Y-10042500D01*
X14600000Y-9800000D02*
X14640000Y-9840000D01*
X14640000Y-9800000D02*
X14600000Y-9840000D01*
X14688886Y-10231440D02*
X14728886Y-10271440D01*
X14728886Y-10231440D02*
X14688886Y-10271440D01*
X14727494Y-9004112D02*
X14767494Y-9044112D01*
X14767494Y-9004112D02*
X14727494Y-9044112D01*
X14772706Y-9700580D02*
X14812706Y-9740580D01*
X14812706Y-9700580D02*
X14772706Y-9740580D01*
X14780580Y-8686612D02*
X14820580Y-8726612D01*
X14820580Y-8686612D02*
X14780580Y-8726612D01*
X14892500Y-10005000D02*
X14932500Y-10045000D01*
X14932500Y-10005000D02*
X14892500Y-10045000D01*
X14892500Y-9920000D02*
X14932500Y-9960000D01*
X14932500Y-9920000D02*
X14892500Y-9960000D01*
X14900934Y-10332066D02*
X14940934Y-10372066D01*
X14940934Y-10332066D02*
X14900934Y-10372066D01*
X14996480Y-10333294D02*
X15036480Y-10373294D01*
X15036480Y-10333294D02*
X14996480Y-10373294D01*
X15080808Y-9742998D02*
X15120808Y-9782998D01*
X15120808Y-9742998D02*
X15080808Y-9782998D01*
X15262674Y-9394000D02*
X15302674Y-9434000D01*
X15302674Y-9394000D02*
X15262674Y-9434000D01*
X15277404Y-8885494D02*
X15317404Y-8925494D01*
X15317404Y-8885494D02*
X15277404Y-8925494D01*
X15283246Y-10332024D02*
X15323246Y-10372024D01*
X15323246Y-10332024D02*
X15283246Y-10372024D01*
X15283300Y-10172100D02*
X15323300Y-10212100D01*
X15323300Y-10172100D02*
X15283300Y-10212100D01*
X15286802Y-9918004D02*
X15326802Y-9958004D01*
X15326802Y-9918004D02*
X15286802Y-9958004D01*
X15386116Y-8711758D02*
X15426116Y-8751758D01*
X15426116Y-8711758D02*
X15386116Y-8751758D01*
X15425486Y-9626158D02*
X15465486Y-9666158D01*
X15465486Y-9626158D02*
X15425486Y-9666158D01*
X15496098Y-9372158D02*
X15536098Y-9412158D01*
X15536098Y-9372158D02*
X15496098Y-9412158D01*
X15553248Y-10342946D02*
X15593248Y-10382946D01*
X15593248Y-10342946D02*
X15553248Y-10382946D01*
X15572429Y-9268280D02*
X15612429Y-9308280D01*
X15612429Y-9268280D02*
X15572429Y-9308280D01*
X15577790Y-8998197D02*
X15617790Y-9038197D01*
X15617790Y-8998197D02*
X15577790Y-9038197D01*
X15581900Y-8812501D02*
X15621900Y-8852501D01*
X15621900Y-8812501D02*
X15581900Y-8852501D01*
X15633258Y-9743760D02*
X15673258Y-9783760D01*
X15673258Y-9743760D02*
X15633258Y-9783760D01*
X15702418Y-10197189D02*
X15742418Y-10237189D01*
X15742418Y-10197189D02*
X15702418Y-10237189D01*
X15702966Y-10111284D02*
X15742966Y-10151284D01*
X15742966Y-10111284D02*
X15702966Y-10151284D01*
X15799999Y-9212138D02*
X15839999Y-9252138D01*
X15839999Y-9212138D02*
X15799999Y-9252138D01*
X15812253Y-10145472D02*
X15852253Y-10185472D01*
X15852253Y-10145472D02*
X15812253Y-10185472D01*
X15834553Y-9376301D02*
X15874553Y-9416301D01*
X15874553Y-9376301D02*
X15834553Y-9416301D01*
X15886750Y-9052118D02*
X15926750Y-9092118D01*
X15926750Y-9052118D02*
X15886750Y-9092118D01*
X15956346Y-10229916D02*
X15996346Y-10269916D01*
X15996346Y-10229916D02*
X15956346Y-10269916D01*
X16012226Y-9693214D02*
X16052226Y-9733214D01*
X16052226Y-9693214D02*
X16012226Y-9733214D01*
X16121192Y-10063800D02*
X16161192Y-10103800D01*
X16161192Y-10063800D02*
X16121192Y-10103800D01*
X16275624Y-9887016D02*
X16315624Y-9927016D01*
X16315624Y-9887016D02*
X16275624Y-9927016D01*
X16368588Y-9747062D02*
X16408588Y-9787062D01*
X16408588Y-9747062D02*
X16368588Y-9787062D01*
X12113523Y-9970458D02*
G75*
G03*
X12113523Y-9970458I-30000J0D01*
G01*
X12388992Y-10209919D02*
G75*
G03*
X12388992Y-10209919I-30000J0D01*
G01*
X12701819Y-10335704D02*
G75*
G03*
X12701819Y-10335704I-30000J0D01*
G01*
X13064819Y-10373857D02*
G75*
G03*
X13064819Y-10373857I-30000J0D01*
G01*
X15826696Y-8832396D02*
G75*
G03*
X15826696Y-8832396I-30000J0D01*
G01*
X15741696Y-8852396D02*
X15851696Y-8852396D01*
X15741696Y-8812396D02*
X15851696Y-8812396D01*
X15851696Y-8852396D02*
G75*
G03*
X15851696Y-8812396I0J20000D01*
G01*
X15741696Y-8812396D02*
G75*
G03*
X15741696Y-8852396I0J-20000D01*
G01*
X15826696Y-9696396D02*
G75*
G03*
X15826696Y-9696396I-30000J0D01*
G01*
X15741696Y-9716396D02*
X15851696Y-9716396D01*
X15741696Y-9676396D02*
X15851696Y-9676396D01*
X15851696Y-9716396D02*
G75*
G03*
X15851696Y-9676396I0J20000D01*
G01*
X15741696Y-9676396D02*
G75*
G03*
X15741696Y-9716396I0J-20000D01*
G01*
X16244696Y-8832396D02*
G75*
G03*
X16244696Y-8832396I-30000J0D01*
G01*
X16184696Y-8852396D02*
X16244696Y-8852396D01*
X16184696Y-8812396D02*
X16244696Y-8812396D01*
X16244696Y-8852396D02*
G75*
G03*
X16244696Y-8812396I0J20000D01*
G01*
X16184696Y-8812396D02*
G75*
G03*
X16184696Y-8852396I0J-20000D01*
G01*
X16244696Y-9696396D02*
G75*
G03*
X16244696Y-9696396I-30000J0D01*
G01*
X16184696Y-9716396D02*
X16244696Y-9716396D01*
X16184696Y-9676396D02*
X16244696Y-9676396D01*
X16244696Y-9716396D02*
G75*
G03*
X16244696Y-9676396I0J20000D01*
G01*
X16184696Y-9676396D02*
G75*
G03*
X16184696Y-9716396I0J-20000D01*
G01*
X16356250Y-8915000D02*
G75*
G03*
X16356250Y-8915000I-30000J0D01*
G01*
X16291250Y-8935000D02*
X16361250Y-8935000D01*
X16291250Y-8895000D02*
X16361250Y-8895000D01*
X16361250Y-8935000D02*
G75*
G03*
X16361250Y-8895000I0J20000D01*
G01*
X16291250Y-8895000D02*
G75*
G03*
X16291250Y-8935000I0J-20000D01*
G01*
X16356250Y-9615000D02*
G75*
G03*
X16356250Y-9615000I-30000J0D01*
G01*
X16361250Y-9595000D02*
X16291250Y-9595000D01*
X16361250Y-9635000D02*
X16291250Y-9635000D01*
X16291250Y-9595000D02*
G75*
G03*
X16291250Y-9635000I0J-20000D01*
G01*
X16361250Y-9635000D02*
G75*
G03*
X16361250Y-9595000I0J20000D01*
G01*
X15849696Y-8942896D02*
X15849696Y-9007896D01*
X15817196Y-8975396D02*
X15882196Y-8975396D01*
X15849696Y-9520896D02*
X15849696Y-9585896D01*
X15817196Y-9553396D02*
X15882196Y-9553396D01*
X16086302Y-9045052D02*
X16086302Y-8984948D01*
X16026198Y-8984948D01*
X16026198Y-9045052D01*
X16086302Y-9045052D01*
X16086302Y-9545052D02*
X16086302Y-9484948D01*
X16026198Y-9484948D01*
X16026198Y-9545052D01*
X16086302Y-9545052D01*
X12683236Y-9946602D02*
X12733236Y-9896602D01*
X12683236Y-9846602D01*
X12633236Y-9896602D01*
X12683236Y-9946602D01*
X12937236Y-9946602D02*
X12987236Y-9896602D01*
X12937236Y-9846602D01*
X12887236Y-9896602D01*
X12937236Y-9946602D01*
X13328500Y-10415000D02*
X13378500Y-10365000D01*
X13328500Y-10315000D01*
X13278500Y-10365000D01*
X13328500Y-10415000D01*
X13582500Y-10415000D02*
X13632500Y-10365000D01*
X13582500Y-10315000D01*
X13532500Y-10365000D01*
X13582500Y-10415000D01*
X14975078Y-8800808D02*
X15025078Y-8750808D01*
X14975078Y-8700808D01*
X14925078Y-8750808D01*
X14975078Y-8800808D01*
X15229078Y-8800808D02*
X15279078Y-8750808D01*
X15229078Y-8700808D01*
X15179078Y-8750808D01*
X15229078Y-8800808D01*
D13*
X11980428Y-10977814D02*
X11980428Y-10677814D01*
X12051857Y-10677814D01*
X12094714Y-10692100D01*
X12123286Y-10720672D01*
X12137571Y-10749243D01*
X12151857Y-10806386D01*
X12151857Y-10849243D01*
X12137571Y-10906386D01*
X12123286Y-10934957D01*
X12094714Y-10963529D01*
X12051857Y-10977814D01*
X11980428Y-10977814D01*
X12280428Y-10977814D02*
X12280428Y-10777814D01*
X12280428Y-10834957D02*
X12294714Y-10806386D01*
X12309000Y-10792100D01*
X12337571Y-10777814D01*
X12366143Y-10777814D01*
X12466143Y-10977814D02*
X12466143Y-10777814D01*
X12466143Y-10677814D02*
X12451857Y-10692100D01*
X12466143Y-10706386D01*
X12480428Y-10692100D01*
X12466143Y-10677814D01*
X12466143Y-10706386D01*
X12651857Y-10977814D02*
X12623286Y-10963529D01*
X12609000Y-10934957D01*
X12609000Y-10677814D01*
X12809000Y-10977814D02*
X12780428Y-10963529D01*
X12766143Y-10934957D01*
X12766143Y-10677814D01*
X13151857Y-10977814D02*
X13151857Y-10677814D01*
X13251857Y-10892100D01*
X13351857Y-10677814D01*
X13351857Y-10977814D01*
X13623286Y-10977814D02*
X13623286Y-10820672D01*
X13609000Y-10792100D01*
X13580428Y-10777814D01*
X13523286Y-10777814D01*
X13494714Y-10792100D01*
X13623286Y-10963529D02*
X13594714Y-10977814D01*
X13523286Y-10977814D01*
X13494714Y-10963529D01*
X13480428Y-10934957D01*
X13480428Y-10906386D01*
X13494714Y-10877814D01*
X13523286Y-10863529D01*
X13594714Y-10863529D01*
X13623286Y-10849243D01*
X13766143Y-10777814D02*
X13766143Y-11077814D01*
X13766143Y-10792100D02*
X13794714Y-10777814D01*
X13851857Y-10777814D01*
X13880428Y-10792100D01*
X13894714Y-10806386D01*
X13909000Y-10834957D01*
X13909000Y-10920672D01*
X13894714Y-10949243D01*
X13880428Y-10963529D01*
X13851857Y-10977814D01*
X13794714Y-10977814D01*
X13766143Y-10963529D01*
X14037571Y-10949243D02*
X14051857Y-10963529D01*
X14037571Y-10977814D01*
X14023286Y-10963529D01*
X14037571Y-10949243D01*
X14037571Y-10977814D01*
X14037571Y-10792100D02*
X14051857Y-10806386D01*
X14037571Y-10820672D01*
X14023286Y-10806386D01*
X14037571Y-10792100D01*
X14037571Y-10820672D01*
X11654000Y-11452100D02*
X11694000Y-11492100D01*
X11694000Y-11452100D02*
X11654000Y-11492100D01*
X12037571Y-11307814D02*
X12066143Y-11307814D01*
X12094714Y-11322100D01*
X12109000Y-11336386D01*
X12123286Y-11364957D01*
X12137571Y-11422100D01*
X12137571Y-11493529D01*
X12123286Y-11550671D01*
X12109000Y-11579243D01*
X12094714Y-11593529D01*
X12066143Y-11607814D01*
X12037571Y-11607814D01*
X12009000Y-11593529D01*
X11994714Y-11579243D01*
X11980428Y-11550671D01*
X11966143Y-11493529D01*
X11966143Y-11422100D01*
X11980428Y-11364957D01*
X11994714Y-11336386D01*
X12009000Y-11322100D01*
X12037571Y-11307814D01*
X12266143Y-11579243D02*
X12280428Y-11593529D01*
X12266143Y-11607814D01*
X12251857Y-11593529D01*
X12266143Y-11579243D01*
X12266143Y-11607814D01*
X12537571Y-11407814D02*
X12537571Y-11607814D01*
X12466143Y-11293529D02*
X12394714Y-11507814D01*
X12580428Y-11507814D01*
X12751857Y-11307814D02*
X12780428Y-11307814D01*
X12809000Y-11322100D01*
X12823286Y-11336386D01*
X12837571Y-11364957D01*
X12851857Y-11422100D01*
X12851857Y-11493529D01*
X12837571Y-11550671D01*
X12823286Y-11579243D01*
X12809000Y-11593529D01*
X12780428Y-11607814D01*
X12751857Y-11607814D01*
X12723286Y-11593529D01*
X12709000Y-11579243D01*
X12694714Y-11550671D01*
X12680428Y-11493529D01*
X12680428Y-11422100D01*
X12694714Y-11364957D01*
X12709000Y-11336386D01*
X12723286Y-11322100D01*
X12751857Y-11307814D01*
X13037571Y-11307814D02*
X13066143Y-11307814D01*
X13094714Y-11322100D01*
X13109000Y-11336386D01*
X13123286Y-11364957D01*
X13137571Y-11422100D01*
X13137571Y-11493529D01*
X13123286Y-11550671D01*
X13109000Y-11579243D01*
X13094714Y-11593529D01*
X13066143Y-11607814D01*
X13037571Y-11607814D01*
X13009000Y-11593529D01*
X12994714Y-11579243D01*
X12980428Y-11550671D01*
X12966143Y-11493529D01*
X12966143Y-11422100D01*
X12980428Y-11364957D01*
X12994714Y-11336386D01*
X13009000Y-11322100D01*
X13037571Y-11307814D01*
X13266143Y-11607814D02*
X13266143Y-11407814D01*
X13266143Y-11436386D02*
X13280428Y-11422100D01*
X13309000Y-11407814D01*
X13351857Y-11407814D01*
X13380428Y-11422100D01*
X13394714Y-11450671D01*
X13394714Y-11607814D01*
X13394714Y-11450671D02*
X13409000Y-11422100D01*
X13437571Y-11407814D01*
X13480428Y-11407814D01*
X13509000Y-11422100D01*
X13523286Y-11450671D01*
X13523286Y-11607814D01*
X13666143Y-11607814D02*
X13666143Y-11407814D01*
X13666143Y-11436386D02*
X13680428Y-11422100D01*
X13709000Y-11407814D01*
X13751857Y-11407814D01*
X13780428Y-11422100D01*
X13794714Y-11450671D01*
X13794714Y-11607814D01*
X13794714Y-11450671D02*
X13809000Y-11422100D01*
X13837571Y-11407814D01*
X13880428Y-11407814D01*
X13909000Y-11422100D01*
X13923286Y-11450671D01*
X13923286Y-11607814D01*
X14509000Y-11293529D02*
X14251857Y-11679243D01*
X14894714Y-11307814D02*
X14923286Y-11307814D01*
X14951857Y-11322100D01*
X14966143Y-11336386D01*
X14980428Y-11364957D01*
X14994714Y-11422100D01*
X14994714Y-11493529D01*
X14980428Y-11550671D01*
X14966143Y-11579243D01*
X14951857Y-11593529D01*
X14923286Y-11607814D01*
X14894714Y-11607814D01*
X14866143Y-11593529D01*
X14851857Y-11579243D01*
X14837571Y-11550671D01*
X14823286Y-11493529D01*
X14823286Y-11422100D01*
X14837571Y-11364957D01*
X14851857Y-11336386D01*
X14866143Y-11322100D01*
X14894714Y-11307814D01*
X15123286Y-11579243D02*
X15137571Y-11593529D01*
X15123286Y-11607814D01*
X15109000Y-11593529D01*
X15123286Y-11579243D01*
X15123286Y-11607814D01*
X15323286Y-11307814D02*
X15351857Y-11307814D01*
X15380428Y-11322100D01*
X15394714Y-11336386D01*
X15409000Y-11364957D01*
X15423286Y-11422100D01*
X15423286Y-11493529D01*
X15409000Y-11550671D01*
X15394714Y-11579243D01*
X15380428Y-11593529D01*
X15351857Y-11607814D01*
X15323286Y-11607814D01*
X15294714Y-11593529D01*
X15280428Y-11579243D01*
X15266143Y-11550671D01*
X15251857Y-11493529D01*
X15251857Y-11422100D01*
X15266143Y-11364957D01*
X15280428Y-11336386D01*
X15294714Y-11322100D01*
X15323286Y-11307814D01*
X15709000Y-11607814D02*
X15537571Y-11607814D01*
X15623286Y-11607814D02*
X15623286Y-11307814D01*
X15594714Y-11350671D01*
X15566143Y-11379243D01*
X15537571Y-11393529D01*
X15980428Y-11307814D02*
X15837571Y-11307814D01*
X15823286Y-11450671D01*
X15837571Y-11436386D01*
X15866143Y-11422100D01*
X15937571Y-11422100D01*
X15966143Y-11436386D01*
X15980428Y-11450671D01*
X15994714Y-11479243D01*
X15994714Y-11550671D01*
X15980428Y-11579243D01*
X15966143Y-11593529D01*
X15937571Y-11607814D01*
X15866143Y-11607814D01*
X15837571Y-11593529D01*
X15823286Y-11579243D01*
X16094714Y-11307814D02*
X16294714Y-11307814D01*
X16166143Y-11607814D01*
X16394714Y-11307814D02*
X16394714Y-11364957D01*
X16509000Y-11307814D02*
X16509000Y-11364957D01*
X16951857Y-11722100D02*
X16937571Y-11707814D01*
X16909000Y-11664957D01*
X16894714Y-11636386D01*
X16880428Y-11593529D01*
X16866143Y-11522100D01*
X16866143Y-11464957D01*
X16880428Y-11393529D01*
X16894714Y-11350671D01*
X16909000Y-11322100D01*
X16937571Y-11279243D01*
X16951857Y-11264957D01*
X17223286Y-11607814D02*
X17051857Y-11607814D01*
X17137571Y-11607814D02*
X17137571Y-11307814D01*
X17109000Y-11350671D01*
X17080428Y-11379243D01*
X17051857Y-11393529D01*
X17409000Y-11307814D02*
X17437571Y-11307814D01*
X17466143Y-11322100D01*
X17480428Y-11336386D01*
X17494714Y-11364957D01*
X17509000Y-11422100D01*
X17509000Y-11493529D01*
X17494714Y-11550671D01*
X17480428Y-11579243D01*
X17466143Y-11593529D01*
X17437571Y-11607814D01*
X17409000Y-11607814D01*
X17380428Y-11593529D01*
X17366143Y-11579243D01*
X17351857Y-11550671D01*
X17337571Y-11493529D01*
X17337571Y-11422100D01*
X17351857Y-11364957D01*
X17366143Y-11336386D01*
X17380428Y-11322100D01*
X17409000Y-11307814D01*
X17766143Y-11407814D02*
X17766143Y-11607814D01*
X17694714Y-11293529D02*
X17623286Y-11507814D01*
X17809000Y-11507814D01*
X18151857Y-11607814D02*
X18151857Y-11307814D01*
X18280428Y-11607814D02*
X18280428Y-11450671D01*
X18266143Y-11422100D01*
X18237571Y-11407814D01*
X18194714Y-11407814D01*
X18166143Y-11422100D01*
X18151857Y-11436386D01*
X18466143Y-11607814D02*
X18437571Y-11593529D01*
X18423286Y-11579243D01*
X18409000Y-11550671D01*
X18409000Y-11464957D01*
X18423286Y-11436386D01*
X18437571Y-11422100D01*
X18466143Y-11407814D01*
X18509000Y-11407814D01*
X18537571Y-11422100D01*
X18551857Y-11436386D01*
X18566143Y-11464957D01*
X18566143Y-11550671D01*
X18551857Y-11579243D01*
X18537571Y-11593529D01*
X18509000Y-11607814D01*
X18466143Y-11607814D01*
X18737571Y-11607814D02*
X18709000Y-11593529D01*
X18694714Y-11564957D01*
X18694714Y-11307814D01*
X18966143Y-11593529D02*
X18937571Y-11607814D01*
X18880428Y-11607814D01*
X18851857Y-11593529D01*
X18837571Y-11564957D01*
X18837571Y-11450671D01*
X18851857Y-11422100D01*
X18880428Y-11407814D01*
X18937571Y-11407814D01*
X18966143Y-11422100D01*
X18980428Y-11450671D01*
X18980428Y-11479243D01*
X18837571Y-11507814D01*
X19094714Y-11593529D02*
X19123286Y-11607814D01*
X19180428Y-11607814D01*
X19209000Y-11593529D01*
X19223286Y-11564957D01*
X19223286Y-11550671D01*
X19209000Y-11522100D01*
X19180428Y-11507814D01*
X19137571Y-11507814D01*
X19109000Y-11493529D01*
X19094714Y-11464957D01*
X19094714Y-11450671D01*
X19109000Y-11422100D01*
X19137571Y-11407814D01*
X19180428Y-11407814D01*
X19209000Y-11422100D01*
X19323286Y-11722100D02*
X19337571Y-11707814D01*
X19366143Y-11664957D01*
X19380428Y-11636386D01*
X19394714Y-11593529D01*
X19409000Y-11522100D01*
X19409000Y-11464957D01*
X19394714Y-11393529D01*
X19380428Y-11350671D01*
X19366143Y-11322100D01*
X19337571Y-11279243D01*
X19323286Y-11264957D01*
X11694000Y-11868100D02*
G75*
G03*
X11694000Y-11868100I-30000J0D01*
G01*
X12037571Y-11703814D02*
X12066143Y-11703814D01*
X12094714Y-11718100D01*
X12109000Y-11732386D01*
X12123286Y-11760957D01*
X12137571Y-11818100D01*
X12137571Y-11889529D01*
X12123286Y-11946671D01*
X12109000Y-11975243D01*
X12094714Y-11989529D01*
X12066143Y-12003814D01*
X12037571Y-12003814D01*
X12009000Y-11989529D01*
X11994714Y-11975243D01*
X11980428Y-11946671D01*
X11966143Y-11889529D01*
X11966143Y-11818100D01*
X11980428Y-11760957D01*
X11994714Y-11732386D01*
X12009000Y-11718100D01*
X12037571Y-11703814D01*
X12266143Y-11975243D02*
X12280428Y-11989529D01*
X12266143Y-12003814D01*
X12251857Y-11989529D01*
X12266143Y-11975243D01*
X12266143Y-12003814D01*
X12537571Y-11703814D02*
X12480428Y-11703814D01*
X12451857Y-11718100D01*
X12437571Y-11732386D01*
X12409000Y-11775243D01*
X12394714Y-11832386D01*
X12394714Y-11946671D01*
X12409000Y-11975243D01*
X12423286Y-11989529D01*
X12451857Y-12003814D01*
X12509000Y-12003814D01*
X12537571Y-11989529D01*
X12551857Y-11975243D01*
X12566143Y-11946671D01*
X12566143Y-11875243D01*
X12551857Y-11846671D01*
X12537571Y-11832386D01*
X12509000Y-11818100D01*
X12451857Y-11818100D01*
X12423286Y-11832386D01*
X12409000Y-11846671D01*
X12394714Y-11875243D01*
X12751857Y-11703814D02*
X12780428Y-11703814D01*
X12809000Y-11718100D01*
X12823286Y-11732386D01*
X12837571Y-11760957D01*
X12851857Y-11818100D01*
X12851857Y-11889529D01*
X12837571Y-11946671D01*
X12823286Y-11975243D01*
X12809000Y-11989529D01*
X12780428Y-12003814D01*
X12751857Y-12003814D01*
X12723286Y-11989529D01*
X12709000Y-11975243D01*
X12694714Y-11946671D01*
X12680428Y-11889529D01*
X12680428Y-11818100D01*
X12694714Y-11760957D01*
X12709000Y-11732386D01*
X12723286Y-11718100D01*
X12751857Y-11703814D01*
X13037571Y-11703814D02*
X13066143Y-11703814D01*
X13094714Y-11718100D01*
X13109000Y-11732386D01*
X13123286Y-11760957D01*
X13137571Y-11818100D01*
X13137571Y-11889529D01*
X13123286Y-11946671D01*
X13109000Y-11975243D01*
X13094714Y-11989529D01*
X13066143Y-12003814D01*
X13037571Y-12003814D01*
X13009000Y-11989529D01*
X12994714Y-11975243D01*
X12980428Y-11946671D01*
X12966143Y-11889529D01*
X12966143Y-11818100D01*
X12980428Y-11760957D01*
X12994714Y-11732386D01*
X13009000Y-11718100D01*
X13037571Y-11703814D01*
X13266143Y-12003814D02*
X13266143Y-11803814D01*
X13266143Y-11832386D02*
X13280428Y-11818100D01*
X13309000Y-11803814D01*
X13351857Y-11803814D01*
X13380428Y-11818100D01*
X13394714Y-11846671D01*
X13394714Y-12003814D01*
X13394714Y-11846671D02*
X13409000Y-11818100D01*
X13437571Y-11803814D01*
X13480428Y-11803814D01*
X13509000Y-11818100D01*
X13523286Y-11846671D01*
X13523286Y-12003814D01*
X13666143Y-12003814D02*
X13666143Y-11803814D01*
X13666143Y-11832386D02*
X13680428Y-11818100D01*
X13709000Y-11803814D01*
X13751857Y-11803814D01*
X13780428Y-11818100D01*
X13794714Y-11846671D01*
X13794714Y-12003814D01*
X13794714Y-11846671D02*
X13809000Y-11818100D01*
X13837571Y-11803814D01*
X13880428Y-11803814D01*
X13909000Y-11818100D01*
X13923286Y-11846671D01*
X13923286Y-12003814D01*
X14509000Y-11689529D02*
X14251857Y-12075243D01*
X14894714Y-11703814D02*
X14923286Y-11703814D01*
X14951857Y-11718100D01*
X14966143Y-11732386D01*
X14980428Y-11760957D01*
X14994714Y-11818100D01*
X14994714Y-11889529D01*
X14980428Y-11946671D01*
X14966143Y-11975243D01*
X14951857Y-11989529D01*
X14923286Y-12003814D01*
X14894714Y-12003814D01*
X14866143Y-11989529D01*
X14851857Y-11975243D01*
X14837571Y-11946671D01*
X14823286Y-11889529D01*
X14823286Y-11818100D01*
X14837571Y-11760957D01*
X14851857Y-11732386D01*
X14866143Y-11718100D01*
X14894714Y-11703814D01*
X15123286Y-11975243D02*
X15137571Y-11989529D01*
X15123286Y-12003814D01*
X15109000Y-11989529D01*
X15123286Y-11975243D01*
X15123286Y-12003814D01*
X15323286Y-11703814D02*
X15351857Y-11703814D01*
X15380428Y-11718100D01*
X15394714Y-11732386D01*
X15409000Y-11760957D01*
X15423286Y-11818100D01*
X15423286Y-11889529D01*
X15409000Y-11946671D01*
X15394714Y-11975243D01*
X15380428Y-11989529D01*
X15351857Y-12003814D01*
X15323286Y-12003814D01*
X15294714Y-11989529D01*
X15280428Y-11975243D01*
X15266143Y-11946671D01*
X15251857Y-11889529D01*
X15251857Y-11818100D01*
X15266143Y-11760957D01*
X15280428Y-11732386D01*
X15294714Y-11718100D01*
X15323286Y-11703814D01*
X15537571Y-11732386D02*
X15551857Y-11718100D01*
X15580428Y-11703814D01*
X15651857Y-11703814D01*
X15680428Y-11718100D01*
X15694714Y-11732386D01*
X15709000Y-11760957D01*
X15709000Y-11789529D01*
X15694714Y-11832386D01*
X15523286Y-12003814D01*
X15709000Y-12003814D01*
X15809000Y-11703814D02*
X15994714Y-11703814D01*
X15894714Y-11818100D01*
X15937571Y-11818100D01*
X15966143Y-11832386D01*
X15980428Y-11846671D01*
X15994714Y-11875243D01*
X15994714Y-11946671D01*
X15980428Y-11975243D01*
X15966143Y-11989529D01*
X15937571Y-12003814D01*
X15851857Y-12003814D01*
X15823286Y-11989529D01*
X15809000Y-11975243D01*
X16251857Y-11703814D02*
X16194714Y-11703814D01*
X16166143Y-11718100D01*
X16151857Y-11732386D01*
X16123286Y-11775243D01*
X16109000Y-11832386D01*
X16109000Y-11946671D01*
X16123286Y-11975243D01*
X16137571Y-11989529D01*
X16166143Y-12003814D01*
X16223286Y-12003814D01*
X16251857Y-11989529D01*
X16266143Y-11975243D01*
X16280428Y-11946671D01*
X16280428Y-11875243D01*
X16266143Y-11846671D01*
X16251857Y-11832386D01*
X16223286Y-11818100D01*
X16166143Y-11818100D01*
X16137571Y-11832386D01*
X16123286Y-11846671D01*
X16109000Y-11875243D01*
X16394714Y-11703814D02*
X16394714Y-11760957D01*
X16509000Y-11703814D02*
X16509000Y-11760957D01*
X16951857Y-12118100D02*
X16937571Y-12103814D01*
X16909000Y-12060957D01*
X16894714Y-12032386D01*
X16880428Y-11989529D01*
X16866143Y-11918100D01*
X16866143Y-11860957D01*
X16880428Y-11789529D01*
X16894714Y-11746671D01*
X16909000Y-11718100D01*
X16937571Y-11675243D01*
X16951857Y-11660957D01*
X17194714Y-11803814D02*
X17194714Y-12003814D01*
X17123286Y-11689529D02*
X17051857Y-11903814D01*
X17237571Y-11903814D01*
X17580428Y-12003814D02*
X17580428Y-11703814D01*
X17709000Y-12003814D02*
X17709000Y-11846671D01*
X17694714Y-11818100D01*
X17666143Y-11803814D01*
X17623286Y-11803814D01*
X17594714Y-11818100D01*
X17580428Y-11832386D01*
X17894714Y-12003814D02*
X17866143Y-11989529D01*
X17851857Y-11975243D01*
X17837571Y-11946671D01*
X17837571Y-11860957D01*
X17851857Y-11832386D01*
X17866143Y-11818100D01*
X17894714Y-11803814D01*
X17937571Y-11803814D01*
X17966143Y-11818100D01*
X17980428Y-11832386D01*
X17994714Y-11860957D01*
X17994714Y-11946671D01*
X17980428Y-11975243D01*
X17966143Y-11989529D01*
X17937571Y-12003814D01*
X17894714Y-12003814D01*
X18166143Y-12003814D02*
X18137571Y-11989529D01*
X18123286Y-11960957D01*
X18123286Y-11703814D01*
X18394714Y-11989529D02*
X18366143Y-12003814D01*
X18309000Y-12003814D01*
X18280428Y-11989529D01*
X18266143Y-11960957D01*
X18266143Y-11846671D01*
X18280428Y-11818100D01*
X18309000Y-11803814D01*
X18366143Y-11803814D01*
X18394714Y-11818100D01*
X18409000Y-11846671D01*
X18409000Y-11875243D01*
X18266143Y-11903814D01*
X18523286Y-11989529D02*
X18551857Y-12003814D01*
X18609000Y-12003814D01*
X18637571Y-11989529D01*
X18651857Y-11960957D01*
X18651857Y-11946671D01*
X18637571Y-11918100D01*
X18609000Y-11903814D01*
X18566143Y-11903814D01*
X18537571Y-11889529D01*
X18523286Y-11860957D01*
X18523286Y-11846671D01*
X18537571Y-11818100D01*
X18566143Y-11803814D01*
X18609000Y-11803814D01*
X18637571Y-11818100D01*
X19009000Y-11889529D02*
X19237571Y-11889529D01*
X19123286Y-12003814D02*
X19123286Y-11775243D01*
X19737571Y-11703814D02*
X19680428Y-11703814D01*
X19651857Y-11718100D01*
X19637571Y-11732386D01*
X19609000Y-11775243D01*
X19594714Y-11832386D01*
X19594714Y-11946671D01*
X19609000Y-11975243D01*
X19623286Y-11989529D01*
X19651857Y-12003814D01*
X19709000Y-12003814D01*
X19737571Y-11989529D01*
X19751857Y-11975243D01*
X19766143Y-11946671D01*
X19766143Y-11875243D01*
X19751857Y-11846671D01*
X19737571Y-11832386D01*
X19709000Y-11818100D01*
X19651857Y-11818100D01*
X19623286Y-11832386D01*
X19609000Y-11846671D01*
X19594714Y-11875243D01*
X20109000Y-11989529D02*
X20137571Y-12003814D01*
X20194714Y-12003814D01*
X20223286Y-11989529D01*
X20237571Y-11960957D01*
X20237571Y-11946671D01*
X20223286Y-11918100D01*
X20194714Y-11903814D01*
X20151857Y-11903814D01*
X20123286Y-11889529D01*
X20109000Y-11860957D01*
X20109000Y-11846671D01*
X20123286Y-11818100D01*
X20151857Y-11803814D01*
X20194714Y-11803814D01*
X20223286Y-11818100D01*
X20409000Y-12003814D02*
X20380428Y-11989529D01*
X20366143Y-11960957D01*
X20366143Y-11703814D01*
X20566143Y-12003814D02*
X20537571Y-11989529D01*
X20523286Y-11975243D01*
X20509000Y-11946671D01*
X20509000Y-11860957D01*
X20523286Y-11832386D01*
X20537571Y-11818100D01*
X20566143Y-11803814D01*
X20609000Y-11803814D01*
X20637571Y-11818100D01*
X20651857Y-11832386D01*
X20666143Y-11860957D01*
X20666143Y-11946671D01*
X20651857Y-11975243D01*
X20637571Y-11989529D01*
X20609000Y-12003814D01*
X20566143Y-12003814D01*
X20751857Y-11803814D02*
X20866143Y-11803814D01*
X20794714Y-11703814D02*
X20794714Y-11960957D01*
X20809000Y-11989529D01*
X20837571Y-12003814D01*
X20866143Y-12003814D01*
X20951857Y-11989529D02*
X20980428Y-12003814D01*
X21037571Y-12003814D01*
X21066143Y-11989529D01*
X21080428Y-11960957D01*
X21080428Y-11946671D01*
X21066143Y-11918100D01*
X21037571Y-11903814D01*
X20994714Y-11903814D01*
X20966143Y-11889529D01*
X20951857Y-11860957D01*
X20951857Y-11846671D01*
X20966143Y-11818100D01*
X20994714Y-11803814D01*
X21037571Y-11803814D01*
X21066143Y-11818100D01*
X21180428Y-12118100D02*
X21194714Y-12103814D01*
X21223286Y-12060957D01*
X21237571Y-12032386D01*
X21251857Y-11989529D01*
X21266143Y-11918100D01*
X21266143Y-11860957D01*
X21251857Y-11789529D01*
X21237571Y-11746671D01*
X21223286Y-11718100D01*
X21194714Y-11675243D01*
X21180428Y-11660957D01*
X11661500Y-12231600D02*
X11661500Y-12296600D01*
X11629000Y-12264100D02*
X11694000Y-12264100D01*
X12037571Y-12099814D02*
X12066143Y-12099814D01*
X12094714Y-12114100D01*
X12109000Y-12128386D01*
X12123286Y-12156957D01*
X12137571Y-12214100D01*
X12137571Y-12285529D01*
X12123286Y-12342671D01*
X12109000Y-12371243D01*
X12094714Y-12385529D01*
X12066143Y-12399814D01*
X12037571Y-12399814D01*
X12009000Y-12385529D01*
X11994714Y-12371243D01*
X11980428Y-12342671D01*
X11966143Y-12285529D01*
X11966143Y-12214100D01*
X11980428Y-12156957D01*
X11994714Y-12128386D01*
X12009000Y-12114100D01*
X12037571Y-12099814D01*
X12266143Y-12371243D02*
X12280428Y-12385529D01*
X12266143Y-12399814D01*
X12251857Y-12385529D01*
X12266143Y-12371243D01*
X12266143Y-12399814D01*
X12537571Y-12099814D02*
X12480428Y-12099814D01*
X12451857Y-12114100D01*
X12437571Y-12128386D01*
X12409000Y-12171243D01*
X12394714Y-12228386D01*
X12394714Y-12342671D01*
X12409000Y-12371243D01*
X12423286Y-12385529D01*
X12451857Y-12399814D01*
X12509000Y-12399814D01*
X12537571Y-12385529D01*
X12551857Y-12371243D01*
X12566143Y-12342671D01*
X12566143Y-12271243D01*
X12551857Y-12242671D01*
X12537571Y-12228386D01*
X12509000Y-12214100D01*
X12451857Y-12214100D01*
X12423286Y-12228386D01*
X12409000Y-12242671D01*
X12394714Y-12271243D01*
X12837571Y-12099814D02*
X12694714Y-12099814D01*
X12680428Y-12242671D01*
X12694714Y-12228386D01*
X12723286Y-12214100D01*
X12794714Y-12214100D01*
X12823286Y-12228386D01*
X12837571Y-12242671D01*
X12851857Y-12271243D01*
X12851857Y-12342671D01*
X12837571Y-12371243D01*
X12823286Y-12385529D01*
X12794714Y-12399814D01*
X12723286Y-12399814D01*
X12694714Y-12385529D01*
X12680428Y-12371243D01*
X13037571Y-12099814D02*
X13066143Y-12099814D01*
X13094714Y-12114100D01*
X13109000Y-12128386D01*
X13123286Y-12156957D01*
X13137571Y-12214100D01*
X13137571Y-12285529D01*
X13123286Y-12342671D01*
X13109000Y-12371243D01*
X13094714Y-12385529D01*
X13066143Y-12399814D01*
X13037571Y-12399814D01*
X13009000Y-12385529D01*
X12994714Y-12371243D01*
X12980428Y-12342671D01*
X12966143Y-12285529D01*
X12966143Y-12214100D01*
X12980428Y-12156957D01*
X12994714Y-12128386D01*
X13009000Y-12114100D01*
X13037571Y-12099814D01*
X13266143Y-12399814D02*
X13266143Y-12199814D01*
X13266143Y-12228386D02*
X13280428Y-12214100D01*
X13309000Y-12199814D01*
X13351857Y-12199814D01*
X13380428Y-12214100D01*
X13394714Y-12242671D01*
X13394714Y-12399814D01*
X13394714Y-12242671D02*
X13409000Y-12214100D01*
X13437571Y-12199814D01*
X13480428Y-12199814D01*
X13509000Y-12214100D01*
X13523286Y-12242671D01*
X13523286Y-12399814D01*
X13666143Y-12399814D02*
X13666143Y-12199814D01*
X13666143Y-12228386D02*
X13680428Y-12214100D01*
X13709000Y-12199814D01*
X13751857Y-12199814D01*
X13780428Y-12214100D01*
X13794714Y-12242671D01*
X13794714Y-12399814D01*
X13794714Y-12242671D02*
X13809000Y-12214100D01*
X13837571Y-12199814D01*
X13880428Y-12199814D01*
X13909000Y-12214100D01*
X13923286Y-12242671D01*
X13923286Y-12399814D01*
X14509000Y-12085529D02*
X14251857Y-12471243D01*
X14894714Y-12099814D02*
X14923286Y-12099814D01*
X14951857Y-12114100D01*
X14966143Y-12128386D01*
X14980428Y-12156957D01*
X14994714Y-12214100D01*
X14994714Y-12285529D01*
X14980428Y-12342671D01*
X14966143Y-12371243D01*
X14951857Y-12385529D01*
X14923286Y-12399814D01*
X14894714Y-12399814D01*
X14866143Y-12385529D01*
X14851857Y-12371243D01*
X14837571Y-12342671D01*
X14823286Y-12285529D01*
X14823286Y-12214100D01*
X14837571Y-12156957D01*
X14851857Y-12128386D01*
X14866143Y-12114100D01*
X14894714Y-12099814D01*
X15123286Y-12371243D02*
X15137571Y-12385529D01*
X15123286Y-12399814D01*
X15109000Y-12385529D01*
X15123286Y-12371243D01*
X15123286Y-12399814D01*
X15323286Y-12099814D02*
X15351857Y-12099814D01*
X15380428Y-12114100D01*
X15394714Y-12128386D01*
X15409000Y-12156957D01*
X15423286Y-12214100D01*
X15423286Y-12285529D01*
X15409000Y-12342671D01*
X15394714Y-12371243D01*
X15380428Y-12385529D01*
X15351857Y-12399814D01*
X15323286Y-12399814D01*
X15294714Y-12385529D01*
X15280428Y-12371243D01*
X15266143Y-12342671D01*
X15251857Y-12285529D01*
X15251857Y-12214100D01*
X15266143Y-12156957D01*
X15280428Y-12128386D01*
X15294714Y-12114100D01*
X15323286Y-12099814D01*
X15537571Y-12128386D02*
X15551857Y-12114100D01*
X15580428Y-12099814D01*
X15651857Y-12099814D01*
X15680428Y-12114100D01*
X15694714Y-12128386D01*
X15709000Y-12156957D01*
X15709000Y-12185529D01*
X15694714Y-12228386D01*
X15523286Y-12399814D01*
X15709000Y-12399814D01*
X15980428Y-12099814D02*
X15837571Y-12099814D01*
X15823286Y-12242671D01*
X15837571Y-12228386D01*
X15866143Y-12214100D01*
X15937571Y-12214100D01*
X15966143Y-12228386D01*
X15980428Y-12242671D01*
X15994714Y-12271243D01*
X15994714Y-12342671D01*
X15980428Y-12371243D01*
X15966143Y-12385529D01*
X15937571Y-12399814D01*
X15866143Y-12399814D01*
X15837571Y-12385529D01*
X15823286Y-12371243D01*
X16251857Y-12099814D02*
X16194714Y-12099814D01*
X16166143Y-12114100D01*
X16151857Y-12128386D01*
X16123286Y-12171243D01*
X16109000Y-12228386D01*
X16109000Y-12342671D01*
X16123286Y-12371243D01*
X16137571Y-12385529D01*
X16166143Y-12399814D01*
X16223286Y-12399814D01*
X16251857Y-12385529D01*
X16266143Y-12371243D01*
X16280428Y-12342671D01*
X16280428Y-12271243D01*
X16266143Y-12242671D01*
X16251857Y-12228386D01*
X16223286Y-12214100D01*
X16166143Y-12214100D01*
X16137571Y-12228386D01*
X16123286Y-12242671D01*
X16109000Y-12271243D01*
X16394714Y-12099814D02*
X16394714Y-12156957D01*
X16509000Y-12099814D02*
X16509000Y-12156957D01*
X16951857Y-12514100D02*
X16937571Y-12499814D01*
X16909000Y-12456957D01*
X16894714Y-12428386D01*
X16880428Y-12385529D01*
X16866143Y-12314100D01*
X16866143Y-12256957D01*
X16880428Y-12185529D01*
X16894714Y-12142671D01*
X16909000Y-12114100D01*
X16937571Y-12071243D01*
X16951857Y-12056957D01*
X17051857Y-12128386D02*
X17066143Y-12114100D01*
X17094714Y-12099814D01*
X17166143Y-12099814D01*
X17194714Y-12114100D01*
X17209000Y-12128386D01*
X17223286Y-12156957D01*
X17223286Y-12185529D01*
X17209000Y-12228386D01*
X17037571Y-12399814D01*
X17223286Y-12399814D01*
X17580428Y-12399814D02*
X17580428Y-12099814D01*
X17709000Y-12399814D02*
X17709000Y-12242671D01*
X17694714Y-12214100D01*
X17666143Y-12199814D01*
X17623286Y-12199814D01*
X17594714Y-12214100D01*
X17580428Y-12228386D01*
X17894714Y-12399814D02*
X17866143Y-12385529D01*
X17851857Y-12371243D01*
X17837571Y-12342671D01*
X17837571Y-12256957D01*
X17851857Y-12228386D01*
X17866143Y-12214100D01*
X17894714Y-12199814D01*
X17937571Y-12199814D01*
X17966143Y-12214100D01*
X17980428Y-12228386D01*
X17994714Y-12256957D01*
X17994714Y-12342671D01*
X17980428Y-12371243D01*
X17966143Y-12385529D01*
X17937571Y-12399814D01*
X17894714Y-12399814D01*
X18166143Y-12399814D02*
X18137571Y-12385529D01*
X18123286Y-12356957D01*
X18123286Y-12099814D01*
X18394714Y-12385529D02*
X18366143Y-12399814D01*
X18309000Y-12399814D01*
X18280428Y-12385529D01*
X18266143Y-12356957D01*
X18266143Y-12242671D01*
X18280428Y-12214100D01*
X18309000Y-12199814D01*
X18366143Y-12199814D01*
X18394714Y-12214100D01*
X18409000Y-12242671D01*
X18409000Y-12271243D01*
X18266143Y-12299814D01*
X18523286Y-12385529D02*
X18551857Y-12399814D01*
X18609000Y-12399814D01*
X18637571Y-12385529D01*
X18651857Y-12356957D01*
X18651857Y-12342671D01*
X18637571Y-12314100D01*
X18609000Y-12299814D01*
X18566143Y-12299814D01*
X18537571Y-12285529D01*
X18523286Y-12256957D01*
X18523286Y-12242671D01*
X18537571Y-12214100D01*
X18566143Y-12199814D01*
X18609000Y-12199814D01*
X18637571Y-12214100D01*
X18751857Y-12514100D02*
X18766143Y-12499814D01*
X18794714Y-12456957D01*
X18809000Y-12428386D01*
X18823286Y-12385529D01*
X18837571Y-12314100D01*
X18837571Y-12256957D01*
X18823286Y-12185529D01*
X18809000Y-12142671D01*
X18794714Y-12114100D01*
X18766143Y-12071243D01*
X18751857Y-12056957D01*
X11681552Y-12690152D02*
X11681552Y-12630048D01*
X11621448Y-12630048D01*
X11621448Y-12690152D01*
X11681552Y-12690152D01*
X12037571Y-12495814D02*
X12066143Y-12495814D01*
X12094714Y-12510100D01*
X12109000Y-12524386D01*
X12123286Y-12552957D01*
X12137571Y-12610100D01*
X12137571Y-12681529D01*
X12123286Y-12738671D01*
X12109000Y-12767243D01*
X12094714Y-12781529D01*
X12066143Y-12795814D01*
X12037571Y-12795814D01*
X12009000Y-12781529D01*
X11994714Y-12767243D01*
X11980428Y-12738671D01*
X11966143Y-12681529D01*
X11966143Y-12610100D01*
X11980428Y-12552957D01*
X11994714Y-12524386D01*
X12009000Y-12510100D01*
X12037571Y-12495814D01*
X12266143Y-12767243D02*
X12280428Y-12781529D01*
X12266143Y-12795814D01*
X12251857Y-12781529D01*
X12266143Y-12767243D01*
X12266143Y-12795814D01*
X12451857Y-12624386D02*
X12423286Y-12610100D01*
X12409000Y-12595814D01*
X12394714Y-12567243D01*
X12394714Y-12552957D01*
X12409000Y-12524386D01*
X12423286Y-12510100D01*
X12451857Y-12495814D01*
X12509000Y-12495814D01*
X12537571Y-12510100D01*
X12551857Y-12524386D01*
X12566143Y-12552957D01*
X12566143Y-12567243D01*
X12551857Y-12595814D01*
X12537571Y-12610100D01*
X12509000Y-12624386D01*
X12451857Y-12624386D01*
X12423286Y-12638671D01*
X12409000Y-12652957D01*
X12394714Y-12681529D01*
X12394714Y-12738671D01*
X12409000Y-12767243D01*
X12423286Y-12781529D01*
X12451857Y-12795814D01*
X12509000Y-12795814D01*
X12537571Y-12781529D01*
X12551857Y-12767243D01*
X12566143Y-12738671D01*
X12566143Y-12681529D01*
X12551857Y-12652957D01*
X12537571Y-12638671D01*
X12509000Y-12624386D01*
X12837571Y-12495814D02*
X12694714Y-12495814D01*
X12680428Y-12638671D01*
X12694714Y-12624386D01*
X12723286Y-12610100D01*
X12794714Y-12610100D01*
X12823286Y-12624386D01*
X12837571Y-12638671D01*
X12851857Y-12667243D01*
X12851857Y-12738671D01*
X12837571Y-12767243D01*
X12823286Y-12781529D01*
X12794714Y-12795814D01*
X12723286Y-12795814D01*
X12694714Y-12781529D01*
X12680428Y-12767243D01*
X13037571Y-12495814D02*
X13066143Y-12495814D01*
X13094714Y-12510100D01*
X13109000Y-12524386D01*
X13123286Y-12552957D01*
X13137571Y-12610100D01*
X13137571Y-12681529D01*
X13123286Y-12738671D01*
X13109000Y-12767243D01*
X13094714Y-12781529D01*
X13066143Y-12795814D01*
X13037571Y-12795814D01*
X13009000Y-12781529D01*
X12994714Y-12767243D01*
X12980428Y-12738671D01*
X12966143Y-12681529D01*
X12966143Y-12610100D01*
X12980428Y-12552957D01*
X12994714Y-12524386D01*
X13009000Y-12510100D01*
X13037571Y-12495814D01*
X13266143Y-12795814D02*
X13266143Y-12595814D01*
X13266143Y-12624386D02*
X13280428Y-12610100D01*
X13309000Y-12595814D01*
X13351857Y-12595814D01*
X13380428Y-12610100D01*
X13394714Y-12638671D01*
X13394714Y-12795814D01*
X13394714Y-12638671D02*
X13409000Y-12610100D01*
X13437571Y-12595814D01*
X13480428Y-12595814D01*
X13509000Y-12610100D01*
X13523286Y-12638671D01*
X13523286Y-12795814D01*
X13666143Y-12795814D02*
X13666143Y-12595814D01*
X13666143Y-12624386D02*
X13680428Y-12610100D01*
X13709000Y-12595814D01*
X13751857Y-12595814D01*
X13780428Y-12610100D01*
X13794714Y-12638671D01*
X13794714Y-12795814D01*
X13794714Y-12638671D02*
X13809000Y-12610100D01*
X13837571Y-12595814D01*
X13880428Y-12595814D01*
X13909000Y-12610100D01*
X13923286Y-12638671D01*
X13923286Y-12795814D01*
X14509000Y-12481529D02*
X14251857Y-12867243D01*
X14894714Y-12495814D02*
X14923286Y-12495814D01*
X14951857Y-12510100D01*
X14966143Y-12524386D01*
X14980428Y-12552957D01*
X14994714Y-12610100D01*
X14994714Y-12681529D01*
X14980428Y-12738671D01*
X14966143Y-12767243D01*
X14951857Y-12781529D01*
X14923286Y-12795814D01*
X14894714Y-12795814D01*
X14866143Y-12781529D01*
X14851857Y-12767243D01*
X14837571Y-12738671D01*
X14823286Y-12681529D01*
X14823286Y-12610100D01*
X14837571Y-12552957D01*
X14851857Y-12524386D01*
X14866143Y-12510100D01*
X14894714Y-12495814D01*
X15123286Y-12767243D02*
X15137571Y-12781529D01*
X15123286Y-12795814D01*
X15109000Y-12781529D01*
X15123286Y-12767243D01*
X15123286Y-12795814D01*
X15323286Y-12495814D02*
X15351857Y-12495814D01*
X15380428Y-12510100D01*
X15394714Y-12524386D01*
X15409000Y-12552957D01*
X15423286Y-12610100D01*
X15423286Y-12681529D01*
X15409000Y-12738671D01*
X15394714Y-12767243D01*
X15380428Y-12781529D01*
X15351857Y-12795814D01*
X15323286Y-12795814D01*
X15294714Y-12781529D01*
X15280428Y-12767243D01*
X15266143Y-12738671D01*
X15251857Y-12681529D01*
X15251857Y-12610100D01*
X15266143Y-12552957D01*
X15280428Y-12524386D01*
X15294714Y-12510100D01*
X15323286Y-12495814D01*
X15523286Y-12495814D02*
X15709000Y-12495814D01*
X15609000Y-12610100D01*
X15651857Y-12610100D01*
X15680428Y-12624386D01*
X15694714Y-12638671D01*
X15709000Y-12667243D01*
X15709000Y-12738671D01*
X15694714Y-12767243D01*
X15680428Y-12781529D01*
X15651857Y-12795814D01*
X15566143Y-12795814D01*
X15537571Y-12781529D01*
X15523286Y-12767243D01*
X15809000Y-12495814D02*
X15994714Y-12495814D01*
X15894714Y-12610100D01*
X15937571Y-12610100D01*
X15966143Y-12624386D01*
X15980428Y-12638671D01*
X15994714Y-12667243D01*
X15994714Y-12738671D01*
X15980428Y-12767243D01*
X15966143Y-12781529D01*
X15937571Y-12795814D01*
X15851857Y-12795814D01*
X15823286Y-12781529D01*
X15809000Y-12767243D01*
X16266143Y-12495814D02*
X16123286Y-12495814D01*
X16109000Y-12638671D01*
X16123286Y-12624386D01*
X16151857Y-12610100D01*
X16223286Y-12610100D01*
X16251857Y-12624386D01*
X16266143Y-12638671D01*
X16280428Y-12667243D01*
X16280428Y-12738671D01*
X16266143Y-12767243D01*
X16251857Y-12781529D01*
X16223286Y-12795814D01*
X16151857Y-12795814D01*
X16123286Y-12781529D01*
X16109000Y-12767243D01*
X16394714Y-12495814D02*
X16394714Y-12552957D01*
X16509000Y-12495814D02*
X16509000Y-12552957D01*
X16951857Y-12910100D02*
X16937571Y-12895814D01*
X16909000Y-12852957D01*
X16894714Y-12824386D01*
X16880428Y-12781529D01*
X16866143Y-12710100D01*
X16866143Y-12652957D01*
X16880428Y-12581529D01*
X16894714Y-12538671D01*
X16909000Y-12510100D01*
X16937571Y-12467243D01*
X16951857Y-12452957D01*
X17051857Y-12524386D02*
X17066143Y-12510100D01*
X17094714Y-12495814D01*
X17166143Y-12495814D01*
X17194714Y-12510100D01*
X17209000Y-12524386D01*
X17223286Y-12552957D01*
X17223286Y-12581529D01*
X17209000Y-12624386D01*
X17037571Y-12795814D01*
X17223286Y-12795814D01*
X17580428Y-12795814D02*
X17580428Y-12495814D01*
X17709000Y-12795814D02*
X17709000Y-12638671D01*
X17694714Y-12610100D01*
X17666143Y-12595814D01*
X17623286Y-12595814D01*
X17594714Y-12610100D01*
X17580428Y-12624386D01*
X17894714Y-12795814D02*
X17866143Y-12781529D01*
X17851857Y-12767243D01*
X17837571Y-12738671D01*
X17837571Y-12652957D01*
X17851857Y-12624386D01*
X17866143Y-12610100D01*
X17894714Y-12595814D01*
X17937571Y-12595814D01*
X17966143Y-12610100D01*
X17980428Y-12624386D01*
X17994714Y-12652957D01*
X17994714Y-12738671D01*
X17980428Y-12767243D01*
X17966143Y-12781529D01*
X17937571Y-12795814D01*
X17894714Y-12795814D01*
X18166143Y-12795814D02*
X18137571Y-12781529D01*
X18123286Y-12752957D01*
X18123286Y-12495814D01*
X18394714Y-12781529D02*
X18366143Y-12795814D01*
X18309000Y-12795814D01*
X18280428Y-12781529D01*
X18266143Y-12752957D01*
X18266143Y-12638671D01*
X18280428Y-12610100D01*
X18309000Y-12595814D01*
X18366143Y-12595814D01*
X18394714Y-12610100D01*
X18409000Y-12638671D01*
X18409000Y-12667243D01*
X18266143Y-12695814D01*
X18523286Y-12781529D02*
X18551857Y-12795814D01*
X18609000Y-12795814D01*
X18637571Y-12781529D01*
X18651857Y-12752957D01*
X18651857Y-12738671D01*
X18637571Y-12710100D01*
X18609000Y-12695814D01*
X18566143Y-12695814D01*
X18537571Y-12681529D01*
X18523286Y-12652957D01*
X18523286Y-12638671D01*
X18537571Y-12610100D01*
X18566143Y-12595814D01*
X18609000Y-12595814D01*
X18637571Y-12610100D01*
X18751857Y-12910100D02*
X18766143Y-12895814D01*
X18794714Y-12852957D01*
X18809000Y-12824386D01*
X18823286Y-12781529D01*
X18837571Y-12710100D01*
X18837571Y-12652957D01*
X18823286Y-12581529D01*
X18809000Y-12538671D01*
X18794714Y-12510100D01*
X18766143Y-12467243D01*
X18751857Y-12452957D01*
X11644000Y-13106100D02*
X11694000Y-13056100D01*
X11644000Y-13006100D01*
X11594000Y-13056100D01*
X11644000Y-13106100D01*
X12137571Y-13191814D02*
X11966143Y-13191814D01*
X12051857Y-13191814D02*
X12051857Y-12891814D01*
X12023286Y-12934671D01*
X11994714Y-12963243D01*
X11966143Y-12977529D01*
X12266143Y-13163243D02*
X12280428Y-13177529D01*
X12266143Y-13191814D01*
X12251857Y-13177529D01*
X12266143Y-13163243D01*
X12266143Y-13191814D01*
X12466143Y-12891814D02*
X12494714Y-12891814D01*
X12523286Y-12906100D01*
X12537571Y-12920386D01*
X12551857Y-12948957D01*
X12566143Y-13006100D01*
X12566143Y-13077529D01*
X12551857Y-13134671D01*
X12537571Y-13163243D01*
X12523286Y-13177529D01*
X12494714Y-13191814D01*
X12466143Y-13191814D01*
X12437571Y-13177529D01*
X12423286Y-13163243D01*
X12409000Y-13134671D01*
X12394714Y-13077529D01*
X12394714Y-13006100D01*
X12409000Y-12948957D01*
X12423286Y-12920386D01*
X12437571Y-12906100D01*
X12466143Y-12891814D01*
X12751857Y-12891814D02*
X12780428Y-12891814D01*
X12809000Y-12906100D01*
X12823286Y-12920386D01*
X12837571Y-12948957D01*
X12851857Y-13006100D01*
X12851857Y-13077529D01*
X12837571Y-13134671D01*
X12823286Y-13163243D01*
X12809000Y-13177529D01*
X12780428Y-13191814D01*
X12751857Y-13191814D01*
X12723286Y-13177529D01*
X12709000Y-13163243D01*
X12694714Y-13134671D01*
X12680428Y-13077529D01*
X12680428Y-13006100D01*
X12694714Y-12948957D01*
X12709000Y-12920386D01*
X12723286Y-12906100D01*
X12751857Y-12891814D01*
X13037571Y-12891814D02*
X13066143Y-12891814D01*
X13094714Y-12906100D01*
X13109000Y-12920386D01*
X13123286Y-12948957D01*
X13137571Y-13006100D01*
X13137571Y-13077529D01*
X13123286Y-13134671D01*
X13109000Y-13163243D01*
X13094714Y-13177529D01*
X13066143Y-13191814D01*
X13037571Y-13191814D01*
X13009000Y-13177529D01*
X12994714Y-13163243D01*
X12980428Y-13134671D01*
X12966143Y-13077529D01*
X12966143Y-13006100D01*
X12980428Y-12948957D01*
X12994714Y-12920386D01*
X13009000Y-12906100D01*
X13037571Y-12891814D01*
X13266143Y-13191814D02*
X13266143Y-12991814D01*
X13266143Y-13020386D02*
X13280428Y-13006100D01*
X13309000Y-12991814D01*
X13351857Y-12991814D01*
X13380428Y-13006100D01*
X13394714Y-13034671D01*
X13394714Y-13191814D01*
X13394714Y-13034671D02*
X13409000Y-13006100D01*
X13437571Y-12991814D01*
X13480428Y-12991814D01*
X13509000Y-13006100D01*
X13523286Y-13034671D01*
X13523286Y-13191814D01*
X13666143Y-13191814D02*
X13666143Y-12991814D01*
X13666143Y-13020386D02*
X13680428Y-13006100D01*
X13709000Y-12991814D01*
X13751857Y-12991814D01*
X13780428Y-13006100D01*
X13794714Y-13034671D01*
X13794714Y-13191814D01*
X13794714Y-13034671D02*
X13809000Y-13006100D01*
X13837571Y-12991814D01*
X13880428Y-12991814D01*
X13909000Y-13006100D01*
X13923286Y-13034671D01*
X13923286Y-13191814D01*
X14509000Y-12877529D02*
X14251857Y-13263243D01*
X14894714Y-12891814D02*
X14923286Y-12891814D01*
X14951857Y-12906100D01*
X14966143Y-12920386D01*
X14980428Y-12948957D01*
X14994714Y-13006100D01*
X14994714Y-13077529D01*
X14980428Y-13134671D01*
X14966143Y-13163243D01*
X14951857Y-13177529D01*
X14923286Y-13191814D01*
X14894714Y-13191814D01*
X14866143Y-13177529D01*
X14851857Y-13163243D01*
X14837571Y-13134671D01*
X14823286Y-13077529D01*
X14823286Y-13006100D01*
X14837571Y-12948957D01*
X14851857Y-12920386D01*
X14866143Y-12906100D01*
X14894714Y-12891814D01*
X15123286Y-13163243D02*
X15137571Y-13177529D01*
X15123286Y-13191814D01*
X15109000Y-13177529D01*
X15123286Y-13163243D01*
X15123286Y-13191814D01*
X15323286Y-12891814D02*
X15351857Y-12891814D01*
X15380428Y-12906100D01*
X15394714Y-12920386D01*
X15409000Y-12948957D01*
X15423286Y-13006100D01*
X15423286Y-13077529D01*
X15409000Y-13134671D01*
X15394714Y-13163243D01*
X15380428Y-13177529D01*
X15351857Y-13191814D01*
X15323286Y-13191814D01*
X15294714Y-13177529D01*
X15280428Y-13163243D01*
X15266143Y-13134671D01*
X15251857Y-13077529D01*
X15251857Y-13006100D01*
X15266143Y-12948957D01*
X15280428Y-12920386D01*
X15294714Y-12906100D01*
X15323286Y-12891814D01*
X15523286Y-12891814D02*
X15709000Y-12891814D01*
X15609000Y-13006100D01*
X15651857Y-13006100D01*
X15680428Y-13020386D01*
X15694714Y-13034671D01*
X15709000Y-13063243D01*
X15709000Y-13134671D01*
X15694714Y-13163243D01*
X15680428Y-13177529D01*
X15651857Y-13191814D01*
X15566143Y-13191814D01*
X15537571Y-13177529D01*
X15523286Y-13163243D01*
X15851857Y-13191814D02*
X15909000Y-13191814D01*
X15937571Y-13177529D01*
X15951857Y-13163243D01*
X15980428Y-13120386D01*
X15994714Y-13063243D01*
X15994714Y-12948957D01*
X15980428Y-12920386D01*
X15966143Y-12906100D01*
X15937571Y-12891814D01*
X15880428Y-12891814D01*
X15851857Y-12906100D01*
X15837571Y-12920386D01*
X15823286Y-12948957D01*
X15823286Y-13020386D01*
X15837571Y-13048957D01*
X15851857Y-13063243D01*
X15880428Y-13077529D01*
X15937571Y-13077529D01*
X15966143Y-13063243D01*
X15980428Y-13048957D01*
X15994714Y-13020386D01*
X16251857Y-12991814D02*
X16251857Y-13191814D01*
X16180428Y-12877529D02*
X16109000Y-13091814D01*
X16294714Y-13091814D01*
X16394714Y-12891814D02*
X16394714Y-12948957D01*
X16509000Y-12891814D02*
X16509000Y-12948957D01*
X16951857Y-13306100D02*
X16937571Y-13291814D01*
X16909000Y-13248957D01*
X16894714Y-13220386D01*
X16880428Y-13177529D01*
X16866143Y-13106100D01*
X16866143Y-13048957D01*
X16880428Y-12977529D01*
X16894714Y-12934671D01*
X16909000Y-12906100D01*
X16937571Y-12863243D01*
X16951857Y-12848957D01*
X17194714Y-12891814D02*
X17137571Y-12891814D01*
X17109000Y-12906100D01*
X17094714Y-12920386D01*
X17066143Y-12963243D01*
X17051857Y-13020386D01*
X17051857Y-13134671D01*
X17066143Y-13163243D01*
X17080428Y-13177529D01*
X17109000Y-13191814D01*
X17166143Y-13191814D01*
X17194714Y-13177529D01*
X17209000Y-13163243D01*
X17223286Y-13134671D01*
X17223286Y-13063243D01*
X17209000Y-13034671D01*
X17194714Y-13020386D01*
X17166143Y-13006100D01*
X17109000Y-13006100D01*
X17080428Y-13020386D01*
X17066143Y-13034671D01*
X17051857Y-13063243D01*
X17580428Y-13191814D02*
X17580428Y-12891814D01*
X17709000Y-13191814D02*
X17709000Y-13034671D01*
X17694714Y-13006100D01*
X17666143Y-12991814D01*
X17623286Y-12991814D01*
X17594714Y-13006100D01*
X17580428Y-13020386D01*
X17894714Y-13191814D02*
X17866143Y-13177529D01*
X17851857Y-13163243D01*
X17837571Y-13134671D01*
X17837571Y-13048957D01*
X17851857Y-13020386D01*
X17866143Y-13006100D01*
X17894714Y-12991814D01*
X17937571Y-12991814D01*
X17966143Y-13006100D01*
X17980428Y-13020386D01*
X17994714Y-13048957D01*
X17994714Y-13134671D01*
X17980428Y-13163243D01*
X17966143Y-13177529D01*
X17937571Y-13191814D01*
X17894714Y-13191814D01*
X18166143Y-13191814D02*
X18137571Y-13177529D01*
X18123286Y-13148957D01*
X18123286Y-12891814D01*
X18394714Y-13177529D02*
X18366143Y-13191814D01*
X18309000Y-13191814D01*
X18280428Y-13177529D01*
X18266143Y-13148957D01*
X18266143Y-13034671D01*
X18280428Y-13006100D01*
X18309000Y-12991814D01*
X18366143Y-12991814D01*
X18394714Y-13006100D01*
X18409000Y-13034671D01*
X18409000Y-13063243D01*
X18266143Y-13091814D01*
X18523286Y-13177529D02*
X18551857Y-13191814D01*
X18609000Y-13191814D01*
X18637571Y-13177529D01*
X18651857Y-13148957D01*
X18651857Y-13134671D01*
X18637571Y-13106100D01*
X18609000Y-13091814D01*
X18566143Y-13091814D01*
X18537571Y-13077529D01*
X18523286Y-13048957D01*
X18523286Y-13034671D01*
X18537571Y-13006100D01*
X18566143Y-12991814D01*
X18609000Y-12991814D01*
X18637571Y-13006100D01*
X18751857Y-13306100D02*
X18766143Y-13291814D01*
X18794714Y-13248957D01*
X18809000Y-13220386D01*
X18823286Y-13177529D01*
X18837571Y-13106100D01*
X18837571Y-13048957D01*
X18823286Y-12977529D01*
X18809000Y-12934671D01*
X18794714Y-12906100D01*
X18766143Y-12863243D01*
X18751857Y-12848957D01*
M02*
