G04 #@! TF.GenerationSoftware,KiCad,Pcbnew,(5.1.10)-1*
G04 #@! TF.CreationDate,2021-10-24T01:26:48-05:00*
G04 #@! TF.ProjectId,temp sensor,74656d70-2073-4656-9e73-6f722e6b6963,0.2*
G04 #@! TF.SameCoordinates,Original*
G04 #@! TF.FileFunction,OtherDrawing,Comment*
%FSLAX45Y45*%
G04 Gerber Fmt 4.5, Leading zero omitted, Abs format (unit mm)*
G04 Created by KiCad (PCBNEW (5.1.10)-1) date 2021-10-24 01:26:48*
%MOMM*%
%LPD*%
G01*
G04 APERTURE LIST*
%ADD10C,0.150000*%
%ADD11C,0.200000*%
%ADD12C,0.100000*%
%ADD13C,0.400000*%
%ADD14C,0.120000*%
%ADD15C,0.080000*%
%ADD16C,0.300000*%
G04 APERTURE END LIST*
D10*
X15992238Y-8648286D02*
X15992238Y-8695905D01*
X16039857Y-8700667D01*
X16035095Y-8695905D01*
X16030333Y-8686381D01*
X16030333Y-8662571D01*
X16035095Y-8653048D01*
X16039857Y-8648286D01*
X16049381Y-8643524D01*
X16073190Y-8643524D01*
X16082714Y-8648286D01*
X16087476Y-8653048D01*
X16092238Y-8662571D01*
X16092238Y-8686381D01*
X16087476Y-8695905D01*
X16082714Y-8700667D01*
X16082714Y-8600667D02*
X16087476Y-8595905D01*
X16092238Y-8600667D01*
X16087476Y-8605429D01*
X16082714Y-8600667D01*
X16092238Y-8600667D01*
X16025571Y-8510190D02*
X16092238Y-8510190D01*
X15987476Y-8534000D02*
X16058905Y-8557810D01*
X16058905Y-8495905D01*
X15992238Y-8438762D02*
X15992238Y-8429238D01*
X15997000Y-8419714D01*
X16001762Y-8414952D01*
X16011286Y-8410190D01*
X16030333Y-8405429D01*
X16054143Y-8405429D01*
X16073190Y-8410190D01*
X16082714Y-8414952D01*
X16087476Y-8419714D01*
X16092238Y-8429238D01*
X16092238Y-8438762D01*
X16087476Y-8448286D01*
X16082714Y-8453048D01*
X16073190Y-8457810D01*
X16054143Y-8462571D01*
X16030333Y-8462571D01*
X16011286Y-8457810D01*
X16001762Y-8453048D01*
X15997000Y-8448286D01*
X15992238Y-8438762D01*
X15992238Y-8343524D02*
X15992238Y-8334000D01*
X15997000Y-8324476D01*
X16001762Y-8319714D01*
X16011286Y-8314952D01*
X16030333Y-8310190D01*
X16054143Y-8310190D01*
X16073190Y-8314952D01*
X16082714Y-8319714D01*
X16087476Y-8324476D01*
X16092238Y-8334000D01*
X16092238Y-8343524D01*
X16087476Y-8353048D01*
X16082714Y-8357809D01*
X16073190Y-8362571D01*
X16054143Y-8367333D01*
X16030333Y-8367333D01*
X16011286Y-8362571D01*
X16001762Y-8357809D01*
X15997000Y-8353048D01*
X15992238Y-8343524D01*
X16092238Y-8191143D02*
X16025571Y-8191143D01*
X16035095Y-8191143D02*
X16030333Y-8186381D01*
X16025571Y-8176857D01*
X16025571Y-8162571D01*
X16030333Y-8153048D01*
X16039857Y-8148286D01*
X16092238Y-8148286D01*
X16039857Y-8148286D02*
X16030333Y-8143524D01*
X16025571Y-8134000D01*
X16025571Y-8119714D01*
X16030333Y-8110190D01*
X16039857Y-8105428D01*
X16092238Y-8105428D01*
X16092238Y-8057809D02*
X16025571Y-8057809D01*
X16035095Y-8057809D02*
X16030333Y-8053048D01*
X16025571Y-8043524D01*
X16025571Y-8029238D01*
X16030333Y-8019714D01*
X16039857Y-8014952D01*
X16092238Y-8014952D01*
X16039857Y-8014952D02*
X16030333Y-8010190D01*
X16025571Y-8000667D01*
X16025571Y-7986381D01*
X16030333Y-7976857D01*
X16039857Y-7972095D01*
X16092238Y-7972095D01*
X15917000Y-8604000D02*
X15917000Y-8064000D01*
X14693000Y-8604000D02*
X15975642Y-8604000D01*
X14693000Y-8064000D02*
X15975642Y-8064000D01*
X15917000Y-8064000D02*
X15975642Y-8176650D01*
X15917000Y-8064000D02*
X15858358Y-8176650D01*
X15917000Y-8604000D02*
X15975642Y-8491350D01*
X15917000Y-8604000D02*
X15858358Y-8491350D01*
X13676157Y-7392238D02*
X13619014Y-7392238D01*
X13647586Y-7392238D02*
X13647586Y-7292238D01*
X13638062Y-7306524D01*
X13628538Y-7316048D01*
X13619014Y-7320809D01*
X13709490Y-7292238D02*
X13776157Y-7292238D01*
X13733300Y-7392238D01*
X13814252Y-7382714D02*
X13819014Y-7387476D01*
X13814252Y-7392238D01*
X13809490Y-7387476D01*
X13814252Y-7382714D01*
X13814252Y-7392238D01*
X13852348Y-7292238D02*
X13919014Y-7292238D01*
X13876157Y-7392238D01*
X13971395Y-7335095D02*
X13961871Y-7330333D01*
X13957109Y-7325571D01*
X13952348Y-7316048D01*
X13952348Y-7311286D01*
X13957109Y-7301762D01*
X13961871Y-7297000D01*
X13971395Y-7292238D01*
X13990443Y-7292238D01*
X13999967Y-7297000D01*
X14004728Y-7301762D01*
X14009490Y-7311286D01*
X14009490Y-7316048D01*
X14004728Y-7325571D01*
X13999967Y-7330333D01*
X13990443Y-7335095D01*
X13971395Y-7335095D01*
X13961871Y-7339857D01*
X13957109Y-7344619D01*
X13952348Y-7354143D01*
X13952348Y-7373190D01*
X13957109Y-7382714D01*
X13961871Y-7387476D01*
X13971395Y-7392238D01*
X13990443Y-7392238D01*
X13999967Y-7387476D01*
X14004728Y-7382714D01*
X14009490Y-7373190D01*
X14009490Y-7354143D01*
X14004728Y-7344619D01*
X13999967Y-7339857D01*
X13990443Y-7335095D01*
X14071395Y-7292238D02*
X14080919Y-7292238D01*
X14090443Y-7297000D01*
X14095205Y-7301762D01*
X14099967Y-7311286D01*
X14104728Y-7330333D01*
X14104728Y-7354143D01*
X14099967Y-7373190D01*
X14095205Y-7382714D01*
X14090443Y-7387476D01*
X14080919Y-7392238D01*
X14071395Y-7392238D01*
X14061871Y-7387476D01*
X14057109Y-7382714D01*
X14052348Y-7373190D01*
X14047586Y-7354143D01*
X14047586Y-7330333D01*
X14052348Y-7311286D01*
X14057109Y-7301762D01*
X14061871Y-7297000D01*
X14071395Y-7292238D01*
X14223776Y-7392238D02*
X14223776Y-7325571D01*
X14223776Y-7335095D02*
X14228538Y-7330333D01*
X14238062Y-7325571D01*
X14252348Y-7325571D01*
X14261871Y-7330333D01*
X14266633Y-7339857D01*
X14266633Y-7392238D01*
X14266633Y-7339857D02*
X14271395Y-7330333D01*
X14280919Y-7325571D01*
X14295205Y-7325571D01*
X14304728Y-7330333D01*
X14309490Y-7339857D01*
X14309490Y-7392238D01*
X14357109Y-7392238D02*
X14357109Y-7325571D01*
X14357109Y-7335095D02*
X14361871Y-7330333D01*
X14371395Y-7325571D01*
X14385681Y-7325571D01*
X14395205Y-7330333D01*
X14399967Y-7339857D01*
X14399967Y-7392238D01*
X14399967Y-7339857D02*
X14404728Y-7330333D01*
X14414252Y-7325571D01*
X14428538Y-7325571D01*
X14438062Y-7330333D01*
X14442824Y-7339857D01*
X14442824Y-7392238D01*
X13144300Y-7477000D02*
X14922300Y-7477000D01*
X13144300Y-8020400D02*
X13144300Y-7418358D01*
X14922300Y-8020400D02*
X14922300Y-7418358D01*
X14922300Y-7477000D02*
X14809650Y-7535642D01*
X14922300Y-7477000D02*
X14809650Y-7418358D01*
X13144300Y-7477000D02*
X13256950Y-7535642D01*
X13144300Y-7477000D02*
X13256950Y-7418358D01*
X1954417Y-8240071D02*
X1954417Y-8306738D01*
X1930607Y-8201976D02*
X1906798Y-8273405D01*
X1968702Y-8273405D01*
X2006798Y-8297214D02*
X2011559Y-8301976D01*
X2006798Y-8306738D01*
X2002036Y-8301976D01*
X2006798Y-8297214D01*
X2006798Y-8306738D01*
X2044893Y-8344833D02*
X2049655Y-8340071D01*
X2059178Y-8325786D01*
X2063940Y-8316262D01*
X2068702Y-8301976D01*
X2073464Y-8278167D01*
X2073464Y-8259119D01*
X2068702Y-8235309D01*
X2063940Y-8221024D01*
X2059178Y-8211500D01*
X2049655Y-8197214D01*
X2044893Y-8192452D01*
X2230607Y-8254357D02*
X2244893Y-8259119D01*
X2249655Y-8263881D01*
X2254417Y-8273405D01*
X2254417Y-8287690D01*
X2249655Y-8297214D01*
X2244893Y-8301976D01*
X2235369Y-8306738D01*
X2197274Y-8306738D01*
X2197274Y-8206738D01*
X2230607Y-8206738D01*
X2240131Y-8211500D01*
X2244893Y-8216262D01*
X2249655Y-8225786D01*
X2249655Y-8235309D01*
X2244893Y-8244833D01*
X2240131Y-8249595D01*
X2230607Y-8254357D01*
X2197274Y-8254357D01*
X2311560Y-8306738D02*
X2302036Y-8301976D01*
X2297274Y-8297214D01*
X2292512Y-8287690D01*
X2292512Y-8259119D01*
X2297274Y-8249595D01*
X2302036Y-8244833D01*
X2311560Y-8240071D01*
X2325845Y-8240071D01*
X2335369Y-8244833D01*
X2340131Y-8249595D01*
X2344893Y-8259119D01*
X2344893Y-8287690D01*
X2340131Y-8297214D01*
X2335369Y-8301976D01*
X2325845Y-8306738D01*
X2311560Y-8306738D01*
X2430607Y-8306738D02*
X2430607Y-8254357D01*
X2425845Y-8244833D01*
X2416321Y-8240071D01*
X2397274Y-8240071D01*
X2387750Y-8244833D01*
X2430607Y-8301976D02*
X2421083Y-8306738D01*
X2397274Y-8306738D01*
X2387750Y-8301976D01*
X2382988Y-8292452D01*
X2382988Y-8282928D01*
X2387750Y-8273405D01*
X2397274Y-8268643D01*
X2421083Y-8268643D01*
X2430607Y-8263881D01*
X2478226Y-8306738D02*
X2478226Y-8240071D01*
X2478226Y-8259119D02*
X2482988Y-8249595D01*
X2487750Y-8244833D01*
X2497274Y-8240071D01*
X2506798Y-8240071D01*
X2582988Y-8306738D02*
X2582988Y-8206738D01*
X2582988Y-8301976D02*
X2573464Y-8306738D01*
X2554417Y-8306738D01*
X2544893Y-8301976D01*
X2540131Y-8297214D01*
X2535369Y-8287690D01*
X2535369Y-8259119D01*
X2540131Y-8249595D01*
X2544893Y-8244833D01*
X2554417Y-8240071D01*
X2573464Y-8240071D01*
X2582988Y-8244833D01*
X2692512Y-8206738D02*
X2749655Y-8206738D01*
X2721083Y-8306738D02*
X2721083Y-8206738D01*
X2782988Y-8306738D02*
X2782988Y-8206738D01*
X2825845Y-8306738D02*
X2825845Y-8254357D01*
X2821083Y-8244833D01*
X2811559Y-8240071D01*
X2797274Y-8240071D01*
X2787750Y-8244833D01*
X2782988Y-8249595D01*
X2873464Y-8306738D02*
X2873464Y-8240071D01*
X2873464Y-8206738D02*
X2868702Y-8211500D01*
X2873464Y-8216262D01*
X2878226Y-8211500D01*
X2873464Y-8206738D01*
X2873464Y-8216262D01*
X2963940Y-8301976D02*
X2954417Y-8306738D01*
X2935369Y-8306738D01*
X2925845Y-8301976D01*
X2921083Y-8297214D01*
X2916321Y-8287690D01*
X2916321Y-8259119D01*
X2921083Y-8249595D01*
X2925845Y-8244833D01*
X2935369Y-8240071D01*
X2954417Y-8240071D01*
X2963940Y-8244833D01*
X3006798Y-8306738D02*
X3006798Y-8206738D01*
X3016321Y-8268643D02*
X3044893Y-8306738D01*
X3044893Y-8240071D02*
X3006798Y-8278167D01*
X3087750Y-8240071D02*
X3087750Y-8306738D01*
X3087750Y-8249595D02*
X3092512Y-8244833D01*
X3102036Y-8240071D01*
X3116321Y-8240071D01*
X3125845Y-8244833D01*
X3130607Y-8254357D01*
X3130607Y-8306738D01*
X3216321Y-8301976D02*
X3206798Y-8306738D01*
X3187750Y-8306738D01*
X3178226Y-8301976D01*
X3173464Y-8292452D01*
X3173464Y-8254357D01*
X3178226Y-8244833D01*
X3187750Y-8240071D01*
X3206798Y-8240071D01*
X3216321Y-8244833D01*
X3221083Y-8254357D01*
X3221083Y-8263881D01*
X3173464Y-8273405D01*
X3259178Y-8301976D02*
X3268702Y-8306738D01*
X3287750Y-8306738D01*
X3297274Y-8301976D01*
X3302036Y-8292452D01*
X3302036Y-8287690D01*
X3297274Y-8278167D01*
X3287750Y-8273405D01*
X3273464Y-8273405D01*
X3263940Y-8268643D01*
X3259178Y-8259119D01*
X3259178Y-8254357D01*
X3263940Y-8244833D01*
X3273464Y-8240071D01*
X3287750Y-8240071D01*
X3297274Y-8244833D01*
X3340131Y-8301976D02*
X3349655Y-8306738D01*
X3368702Y-8306738D01*
X3378226Y-8301976D01*
X3382988Y-8292452D01*
X3382988Y-8287690D01*
X3378226Y-8278167D01*
X3368702Y-8273405D01*
X3354417Y-8273405D01*
X3344893Y-8268643D01*
X3340131Y-8259119D01*
X3340131Y-8254357D01*
X3344893Y-8244833D01*
X3354417Y-8240071D01*
X3368702Y-8240071D01*
X3378226Y-8244833D01*
X3425845Y-8297214D02*
X3430607Y-8301976D01*
X3425845Y-8306738D01*
X3421083Y-8301976D01*
X3425845Y-8297214D01*
X3425845Y-8306738D01*
X3425845Y-8244833D02*
X3430607Y-8249595D01*
X3425845Y-8254357D01*
X3421083Y-8249595D01*
X3425845Y-8244833D01*
X3425845Y-8254357D01*
X3644893Y-8206738D02*
X3654417Y-8206738D01*
X3663940Y-8211500D01*
X3668702Y-8216262D01*
X3673464Y-8225786D01*
X3678226Y-8244833D01*
X3678226Y-8268643D01*
X3673464Y-8287690D01*
X3668702Y-8297214D01*
X3663940Y-8301976D01*
X3654417Y-8306738D01*
X3644893Y-8306738D01*
X3635369Y-8301976D01*
X3630607Y-8297214D01*
X3625845Y-8287690D01*
X3621083Y-8268643D01*
X3621083Y-8244833D01*
X3625845Y-8225786D01*
X3630607Y-8216262D01*
X3635369Y-8211500D01*
X3644893Y-8206738D01*
X3721083Y-8297214D02*
X3725845Y-8301976D01*
X3721083Y-8306738D01*
X3716321Y-8301976D01*
X3721083Y-8297214D01*
X3721083Y-8306738D01*
X3787750Y-8206738D02*
X3797274Y-8206738D01*
X3806798Y-8211500D01*
X3811559Y-8216262D01*
X3816321Y-8225786D01*
X3821083Y-8244833D01*
X3821083Y-8268643D01*
X3816321Y-8287690D01*
X3811559Y-8297214D01*
X3806798Y-8301976D01*
X3797274Y-8306738D01*
X3787750Y-8306738D01*
X3778226Y-8301976D01*
X3773464Y-8297214D01*
X3768702Y-8287690D01*
X3763940Y-8268643D01*
X3763940Y-8244833D01*
X3768702Y-8225786D01*
X3773464Y-8216262D01*
X3778226Y-8211500D01*
X3787750Y-8206738D01*
X3906798Y-8206738D02*
X3887750Y-8206738D01*
X3878226Y-8211500D01*
X3873464Y-8216262D01*
X3863940Y-8230548D01*
X3859178Y-8249595D01*
X3859178Y-8287690D01*
X3863940Y-8297214D01*
X3868702Y-8301976D01*
X3878226Y-8306738D01*
X3897274Y-8306738D01*
X3906798Y-8301976D01*
X3911559Y-8297214D01*
X3916321Y-8287690D01*
X3916321Y-8263881D01*
X3911559Y-8254357D01*
X3906798Y-8249595D01*
X3897274Y-8244833D01*
X3878226Y-8244833D01*
X3868702Y-8249595D01*
X3863940Y-8254357D01*
X3859178Y-8263881D01*
X3954417Y-8216262D02*
X3959178Y-8211500D01*
X3968702Y-8206738D01*
X3992512Y-8206738D01*
X4002036Y-8211500D01*
X4006798Y-8216262D01*
X4011559Y-8225786D01*
X4011559Y-8235309D01*
X4006798Y-8249595D01*
X3949655Y-8306738D01*
X4011559Y-8306738D01*
X4054417Y-8306738D02*
X4054417Y-8240071D01*
X4054417Y-8206738D02*
X4049655Y-8211500D01*
X4054417Y-8216262D01*
X4059178Y-8211500D01*
X4054417Y-8206738D01*
X4054417Y-8216262D01*
X4102036Y-8240071D02*
X4102036Y-8306738D01*
X4102036Y-8249595D02*
X4106798Y-8244833D01*
X4116321Y-8240071D01*
X4130607Y-8240071D01*
X4140131Y-8244833D01*
X4144893Y-8254357D01*
X4144893Y-8306738D01*
X4297274Y-8344833D02*
X4292512Y-8340071D01*
X4282988Y-8325786D01*
X4278226Y-8316262D01*
X4273464Y-8301976D01*
X4268702Y-8278167D01*
X4268702Y-8259119D01*
X4273464Y-8235309D01*
X4278226Y-8221024D01*
X4282988Y-8211500D01*
X4292512Y-8197214D01*
X4297274Y-8192452D01*
X4387750Y-8306738D02*
X4330607Y-8306738D01*
X4359179Y-8306738D02*
X4359179Y-8206738D01*
X4349655Y-8221024D01*
X4340131Y-8230548D01*
X4330607Y-8235309D01*
X4430607Y-8297214D02*
X4435369Y-8301976D01*
X4430607Y-8306738D01*
X4425845Y-8301976D01*
X4430607Y-8297214D01*
X4430607Y-8306738D01*
X4525845Y-8206738D02*
X4478226Y-8206738D01*
X4473464Y-8254357D01*
X4478226Y-8249595D01*
X4487750Y-8244833D01*
X4511560Y-8244833D01*
X4521083Y-8249595D01*
X4525845Y-8254357D01*
X4530607Y-8263881D01*
X4530607Y-8287690D01*
X4525845Y-8297214D01*
X4521083Y-8301976D01*
X4511560Y-8306738D01*
X4487750Y-8306738D01*
X4478226Y-8301976D01*
X4473464Y-8297214D01*
X4563940Y-8206738D02*
X4630607Y-8206738D01*
X4587750Y-8306738D01*
X4668702Y-8306738D02*
X4668702Y-8240071D01*
X4668702Y-8249595D02*
X4673464Y-8244833D01*
X4682988Y-8240071D01*
X4697274Y-8240071D01*
X4706798Y-8244833D01*
X4711560Y-8254357D01*
X4711560Y-8306738D01*
X4711560Y-8254357D02*
X4716321Y-8244833D01*
X4725845Y-8240071D01*
X4740131Y-8240071D01*
X4749655Y-8244833D01*
X4754417Y-8254357D01*
X4754417Y-8306738D01*
X4802036Y-8306738D02*
X4802036Y-8240071D01*
X4802036Y-8249595D02*
X4806798Y-8244833D01*
X4816321Y-8240071D01*
X4830607Y-8240071D01*
X4840131Y-8244833D01*
X4844893Y-8254357D01*
X4844893Y-8306738D01*
X4844893Y-8254357D02*
X4849655Y-8244833D01*
X4859179Y-8240071D01*
X4873464Y-8240071D01*
X4882988Y-8244833D01*
X4887750Y-8254357D01*
X4887750Y-8306738D01*
X4925845Y-8344833D02*
X4930607Y-8340071D01*
X4940131Y-8325786D01*
X4944893Y-8316262D01*
X4949655Y-8301976D01*
X4954417Y-8278167D01*
X4954417Y-8259119D01*
X4949655Y-8235309D01*
X4944893Y-8221024D01*
X4940131Y-8211500D01*
X4930607Y-8197214D01*
X4925845Y-8192452D01*
X5092512Y-8306738D02*
X5082988Y-8301976D01*
X5078226Y-8297214D01*
X5073464Y-8287690D01*
X5073464Y-8259119D01*
X5078226Y-8249595D01*
X5082988Y-8244833D01*
X5092512Y-8240071D01*
X5106798Y-8240071D01*
X5116321Y-8244833D01*
X5121083Y-8249595D01*
X5125845Y-8259119D01*
X5125845Y-8287690D01*
X5121083Y-8297214D01*
X5116321Y-8301976D01*
X5106798Y-8306738D01*
X5092512Y-8306738D01*
X5168702Y-8306738D02*
X5168702Y-8240071D01*
X5168702Y-8259119D02*
X5173464Y-8249595D01*
X5178226Y-8244833D01*
X5187750Y-8240071D01*
X5197274Y-8240071D01*
X5359179Y-8306738D02*
X5302036Y-8306738D01*
X5330607Y-8306738D02*
X5330607Y-8206738D01*
X5321083Y-8221024D01*
X5311560Y-8230548D01*
X5302036Y-8235309D01*
X5402036Y-8297214D02*
X5406798Y-8301976D01*
X5402036Y-8306738D01*
X5397274Y-8301976D01*
X5402036Y-8297214D01*
X5402036Y-8306738D01*
X5492512Y-8206738D02*
X5473464Y-8206738D01*
X5463940Y-8211500D01*
X5459179Y-8216262D01*
X5449655Y-8230548D01*
X5444893Y-8249595D01*
X5444893Y-8287690D01*
X5449655Y-8297214D01*
X5454417Y-8301976D01*
X5463940Y-8306738D01*
X5482988Y-8306738D01*
X5492512Y-8301976D01*
X5497274Y-8297214D01*
X5502036Y-8287690D01*
X5502036Y-8263881D01*
X5497274Y-8254357D01*
X5492512Y-8249595D01*
X5482988Y-8244833D01*
X5463940Y-8244833D01*
X5454417Y-8249595D01*
X5449655Y-8254357D01*
X5444893Y-8263881D01*
X5544893Y-8306738D02*
X5544893Y-8240071D01*
X5544893Y-8249595D02*
X5549655Y-8244833D01*
X5559179Y-8240071D01*
X5573464Y-8240071D01*
X5582988Y-8244833D01*
X5587750Y-8254357D01*
X5587750Y-8306738D01*
X5587750Y-8254357D02*
X5592512Y-8244833D01*
X5602036Y-8240071D01*
X5616321Y-8240071D01*
X5625845Y-8244833D01*
X5630607Y-8254357D01*
X5630607Y-8306738D01*
X5678226Y-8306738D02*
X5678226Y-8240071D01*
X5678226Y-8249595D02*
X5682988Y-8244833D01*
X5692512Y-8240071D01*
X5706798Y-8240071D01*
X5716321Y-8244833D01*
X5721083Y-8254357D01*
X5721083Y-8306738D01*
X5721083Y-8254357D02*
X5725845Y-8244833D01*
X5735369Y-8240071D01*
X5749655Y-8240071D01*
X5759178Y-8244833D01*
X5763940Y-8254357D01*
X5763940Y-8306738D01*
X1959178Y-8371738D02*
X1911559Y-8371738D01*
X1906798Y-8419357D01*
X1911559Y-8414595D01*
X1921083Y-8409833D01*
X1944893Y-8409833D01*
X1954417Y-8414595D01*
X1959178Y-8419357D01*
X1963940Y-8428881D01*
X1963940Y-8452690D01*
X1959178Y-8462214D01*
X1954417Y-8466976D01*
X1944893Y-8471738D01*
X1921083Y-8471738D01*
X1911559Y-8466976D01*
X1906798Y-8462214D01*
X2006798Y-8462214D02*
X2011559Y-8466976D01*
X2006798Y-8471738D01*
X2002036Y-8466976D01*
X2006798Y-8462214D01*
X2006798Y-8471738D01*
X2044893Y-8509833D02*
X2049655Y-8505071D01*
X2059178Y-8490786D01*
X2063940Y-8481262D01*
X2068702Y-8466976D01*
X2073464Y-8443167D01*
X2073464Y-8424119D01*
X2068702Y-8400310D01*
X2063940Y-8386024D01*
X2059178Y-8376500D01*
X2049655Y-8362214D01*
X2044893Y-8357452D01*
X2197274Y-8471738D02*
X2197274Y-8371738D01*
X2230607Y-8443167D01*
X2263940Y-8371738D01*
X2263940Y-8471738D01*
X2354417Y-8471738D02*
X2354417Y-8419357D01*
X2349655Y-8409833D01*
X2340131Y-8405071D01*
X2321083Y-8405071D01*
X2311560Y-8409833D01*
X2354417Y-8466976D02*
X2344893Y-8471738D01*
X2321083Y-8471738D01*
X2311560Y-8466976D01*
X2306798Y-8457452D01*
X2306798Y-8447929D01*
X2311560Y-8438405D01*
X2321083Y-8433643D01*
X2344893Y-8433643D01*
X2354417Y-8428881D01*
X2387750Y-8405071D02*
X2425845Y-8405071D01*
X2402036Y-8371738D02*
X2402036Y-8457452D01*
X2406798Y-8466976D01*
X2416321Y-8471738D01*
X2425845Y-8471738D01*
X2497274Y-8466976D02*
X2487750Y-8471738D01*
X2468702Y-8471738D01*
X2459179Y-8466976D01*
X2454417Y-8457452D01*
X2454417Y-8419357D01*
X2459179Y-8409833D01*
X2468702Y-8405071D01*
X2487750Y-8405071D01*
X2497274Y-8409833D01*
X2502036Y-8419357D01*
X2502036Y-8428881D01*
X2454417Y-8438405D01*
X2544893Y-8471738D02*
X2544893Y-8405071D01*
X2544893Y-8424119D02*
X2549655Y-8414595D01*
X2554417Y-8409833D01*
X2563940Y-8405071D01*
X2573464Y-8405071D01*
X2606798Y-8471738D02*
X2606798Y-8405071D01*
X2606798Y-8371738D02*
X2602036Y-8376500D01*
X2606798Y-8381262D01*
X2611560Y-8376500D01*
X2606798Y-8371738D01*
X2606798Y-8381262D01*
X2697274Y-8471738D02*
X2697274Y-8419357D01*
X2692512Y-8409833D01*
X2682988Y-8405071D01*
X2663940Y-8405071D01*
X2654417Y-8409833D01*
X2697274Y-8466976D02*
X2687750Y-8471738D01*
X2663940Y-8471738D01*
X2654417Y-8466976D01*
X2649655Y-8457452D01*
X2649655Y-8447929D01*
X2654417Y-8438405D01*
X2663940Y-8433643D01*
X2687750Y-8433643D01*
X2697274Y-8428881D01*
X2759179Y-8471738D02*
X2749655Y-8466976D01*
X2744893Y-8457452D01*
X2744893Y-8371738D01*
X2797274Y-8462214D02*
X2802036Y-8466976D01*
X2797274Y-8471738D01*
X2792512Y-8466976D01*
X2797274Y-8462214D01*
X2797274Y-8471738D01*
X2797274Y-8409833D02*
X2802036Y-8414595D01*
X2797274Y-8419357D01*
X2792512Y-8414595D01*
X2797274Y-8409833D01*
X2797274Y-8419357D01*
X2954417Y-8419357D02*
X2921083Y-8419357D01*
X2921083Y-8471738D02*
X2921083Y-8371738D01*
X2968702Y-8371738D01*
X3063940Y-8471738D02*
X3030607Y-8424119D01*
X3006798Y-8471738D02*
X3006798Y-8371738D01*
X3044893Y-8371738D01*
X3054417Y-8376500D01*
X3059178Y-8381262D01*
X3063940Y-8390786D01*
X3063940Y-8405071D01*
X3059178Y-8414595D01*
X3054417Y-8419357D01*
X3044893Y-8424119D01*
X3006798Y-8424119D01*
X3106798Y-8433643D02*
X3182988Y-8433643D01*
X3273464Y-8405071D02*
X3273464Y-8471738D01*
X3249655Y-8366976D02*
X3225845Y-8438405D01*
X3287750Y-8438405D01*
X1954417Y-8536738D02*
X1935369Y-8536738D01*
X1925845Y-8541500D01*
X1921083Y-8546262D01*
X1911559Y-8560548D01*
X1906798Y-8579595D01*
X1906798Y-8617690D01*
X1911559Y-8627214D01*
X1916321Y-8631976D01*
X1925845Y-8636738D01*
X1944893Y-8636738D01*
X1954417Y-8631976D01*
X1959178Y-8627214D01*
X1963940Y-8617690D01*
X1963940Y-8593881D01*
X1959178Y-8584357D01*
X1954417Y-8579595D01*
X1944893Y-8574833D01*
X1925845Y-8574833D01*
X1916321Y-8579595D01*
X1911559Y-8584357D01*
X1906798Y-8593881D01*
X2006798Y-8627214D02*
X2011559Y-8631976D01*
X2006798Y-8636738D01*
X2002036Y-8631976D01*
X2006798Y-8627214D01*
X2006798Y-8636738D01*
X2044893Y-8674833D02*
X2049655Y-8670071D01*
X2059178Y-8655786D01*
X2063940Y-8646262D01*
X2068702Y-8631976D01*
X2073464Y-8608167D01*
X2073464Y-8589119D01*
X2068702Y-8565310D01*
X2063940Y-8551024D01*
X2059178Y-8541500D01*
X2049655Y-8527214D01*
X2044893Y-8522452D01*
X2197274Y-8636738D02*
X2197274Y-8536738D01*
X2235369Y-8536738D01*
X2244893Y-8541500D01*
X2249655Y-8546262D01*
X2254417Y-8555786D01*
X2254417Y-8570071D01*
X2249655Y-8579595D01*
X2244893Y-8584357D01*
X2235369Y-8589119D01*
X2197274Y-8589119D01*
X2354417Y-8627214D02*
X2349655Y-8631976D01*
X2335369Y-8636738D01*
X2325845Y-8636738D01*
X2311560Y-8631976D01*
X2302036Y-8622452D01*
X2297274Y-8612929D01*
X2292512Y-8593881D01*
X2292512Y-8579595D01*
X2297274Y-8560548D01*
X2302036Y-8551024D01*
X2311560Y-8541500D01*
X2325845Y-8536738D01*
X2335369Y-8536738D01*
X2349655Y-8541500D01*
X2354417Y-8546262D01*
X2430607Y-8584357D02*
X2444893Y-8589119D01*
X2449655Y-8593881D01*
X2454417Y-8603405D01*
X2454417Y-8617690D01*
X2449655Y-8627214D01*
X2444893Y-8631976D01*
X2435369Y-8636738D01*
X2397274Y-8636738D01*
X2397274Y-8536738D01*
X2430607Y-8536738D01*
X2440131Y-8541500D01*
X2444893Y-8546262D01*
X2449655Y-8555786D01*
X2449655Y-8565310D01*
X2444893Y-8574833D01*
X2440131Y-8579595D01*
X2430607Y-8584357D01*
X2397274Y-8584357D01*
X2630607Y-8627214D02*
X2625845Y-8631976D01*
X2611560Y-8636738D01*
X2602036Y-8636738D01*
X2587750Y-8631976D01*
X2578226Y-8622452D01*
X2573464Y-8612929D01*
X2568702Y-8593881D01*
X2568702Y-8579595D01*
X2573464Y-8560548D01*
X2578226Y-8551024D01*
X2587750Y-8541500D01*
X2602036Y-8536738D01*
X2611560Y-8536738D01*
X2625845Y-8541500D01*
X2630607Y-8546262D01*
X2687750Y-8636738D02*
X2678226Y-8631976D01*
X2673464Y-8627214D01*
X2668702Y-8617690D01*
X2668702Y-8589119D01*
X2673464Y-8579595D01*
X2678226Y-8574833D01*
X2687750Y-8570071D01*
X2702036Y-8570071D01*
X2711560Y-8574833D01*
X2716321Y-8579595D01*
X2721083Y-8589119D01*
X2721083Y-8617690D01*
X2716321Y-8627214D01*
X2711560Y-8631976D01*
X2702036Y-8636738D01*
X2687750Y-8636738D01*
X2778226Y-8636738D02*
X2768702Y-8631976D01*
X2763940Y-8622452D01*
X2763940Y-8536738D01*
X2830607Y-8636738D02*
X2821083Y-8631976D01*
X2816321Y-8627214D01*
X2811559Y-8617690D01*
X2811559Y-8589119D01*
X2816321Y-8579595D01*
X2821083Y-8574833D01*
X2830607Y-8570071D01*
X2844893Y-8570071D01*
X2854417Y-8574833D01*
X2859178Y-8579595D01*
X2863940Y-8589119D01*
X2863940Y-8617690D01*
X2859178Y-8627214D01*
X2854417Y-8631976D01*
X2844893Y-8636738D01*
X2830607Y-8636738D01*
X2906798Y-8636738D02*
X2906798Y-8570071D01*
X2906798Y-8589119D02*
X2911559Y-8579595D01*
X2916321Y-8574833D01*
X2925845Y-8570071D01*
X2935369Y-8570071D01*
X2968702Y-8627214D02*
X2973464Y-8631976D01*
X2968702Y-8636738D01*
X2963940Y-8631976D01*
X2968702Y-8627214D01*
X2968702Y-8636738D01*
X2968702Y-8574833D02*
X2973464Y-8579595D01*
X2968702Y-8584357D01*
X2963940Y-8579595D01*
X2968702Y-8574833D01*
X2968702Y-8584357D01*
X3144893Y-8541500D02*
X3135369Y-8536738D01*
X3121083Y-8536738D01*
X3106798Y-8541500D01*
X3097274Y-8551024D01*
X3092512Y-8560548D01*
X3087750Y-8579595D01*
X3087750Y-8593881D01*
X3092512Y-8612929D01*
X3097274Y-8622452D01*
X3106798Y-8631976D01*
X3121083Y-8636738D01*
X3130607Y-8636738D01*
X3144893Y-8631976D01*
X3149655Y-8627214D01*
X3149655Y-8593881D01*
X3130607Y-8593881D01*
X3192512Y-8636738D02*
X3192512Y-8570071D01*
X3192512Y-8589119D02*
X3197274Y-8579595D01*
X3202036Y-8574833D01*
X3211559Y-8570071D01*
X3221083Y-8570071D01*
X3292512Y-8631976D02*
X3282988Y-8636738D01*
X3263940Y-8636738D01*
X3254417Y-8631976D01*
X3249655Y-8622452D01*
X3249655Y-8584357D01*
X3254417Y-8574833D01*
X3263940Y-8570071D01*
X3282988Y-8570071D01*
X3292512Y-8574833D01*
X3297274Y-8584357D01*
X3297274Y-8593881D01*
X3249655Y-8603405D01*
X3378226Y-8631976D02*
X3368702Y-8636738D01*
X3349655Y-8636738D01*
X3340131Y-8631976D01*
X3335369Y-8622452D01*
X3335369Y-8584357D01*
X3340131Y-8574833D01*
X3349655Y-8570071D01*
X3368702Y-8570071D01*
X3378226Y-8574833D01*
X3382988Y-8584357D01*
X3382988Y-8593881D01*
X3335369Y-8603405D01*
X3425845Y-8570071D02*
X3425845Y-8636738D01*
X3425845Y-8579595D02*
X3430607Y-8574833D01*
X3440131Y-8570071D01*
X3454417Y-8570071D01*
X3463940Y-8574833D01*
X3468702Y-8584357D01*
X3468702Y-8636738D01*
X1902036Y-8701738D02*
X1968702Y-8701738D01*
X1925845Y-8801738D01*
X2006798Y-8792214D02*
X2011559Y-8796976D01*
X2006798Y-8801738D01*
X2002036Y-8796976D01*
X2006798Y-8792214D01*
X2006798Y-8801738D01*
X2044893Y-8839833D02*
X2049655Y-8835071D01*
X2059178Y-8820786D01*
X2063940Y-8811262D01*
X2068702Y-8796976D01*
X2073464Y-8773167D01*
X2073464Y-8754119D01*
X2068702Y-8730310D01*
X2063940Y-8716024D01*
X2059178Y-8706500D01*
X2049655Y-8692214D01*
X2044893Y-8687452D01*
X2192512Y-8796976D02*
X2206798Y-8801738D01*
X2230607Y-8801738D01*
X2240131Y-8796976D01*
X2244893Y-8792214D01*
X2249655Y-8782690D01*
X2249655Y-8773167D01*
X2244893Y-8763643D01*
X2240131Y-8758881D01*
X2230607Y-8754119D01*
X2211560Y-8749357D01*
X2202036Y-8744595D01*
X2197274Y-8739833D01*
X2192512Y-8730310D01*
X2192512Y-8720786D01*
X2197274Y-8711262D01*
X2202036Y-8706500D01*
X2211560Y-8701738D01*
X2235369Y-8701738D01*
X2249655Y-8706500D01*
X2292512Y-8801738D02*
X2292512Y-8735071D01*
X2292512Y-8701738D02*
X2287750Y-8706500D01*
X2292512Y-8711262D01*
X2297274Y-8706500D01*
X2292512Y-8701738D01*
X2292512Y-8711262D01*
X2354417Y-8801738D02*
X2344893Y-8796976D01*
X2340131Y-8787452D01*
X2340131Y-8701738D01*
X2392512Y-8801738D02*
X2392512Y-8701738D01*
X2402036Y-8763643D02*
X2430607Y-8801738D01*
X2430607Y-8735071D02*
X2392512Y-8773167D01*
X2468702Y-8796976D02*
X2482988Y-8801738D01*
X2506798Y-8801738D01*
X2516321Y-8796976D01*
X2521083Y-8792214D01*
X2525845Y-8782690D01*
X2525845Y-8773167D01*
X2521083Y-8763643D01*
X2516321Y-8758881D01*
X2506798Y-8754119D01*
X2487750Y-8749357D01*
X2478226Y-8744595D01*
X2473464Y-8739833D01*
X2468702Y-8730310D01*
X2468702Y-8720786D01*
X2473464Y-8711262D01*
X2478226Y-8706500D01*
X2487750Y-8701738D01*
X2511560Y-8701738D01*
X2525845Y-8706500D01*
X2611560Y-8796976D02*
X2602036Y-8801738D01*
X2582988Y-8801738D01*
X2573464Y-8796976D01*
X2568702Y-8792214D01*
X2563940Y-8782690D01*
X2563940Y-8754119D01*
X2568702Y-8744595D01*
X2573464Y-8739833D01*
X2582988Y-8735071D01*
X2602036Y-8735071D01*
X2611560Y-8739833D01*
X2654417Y-8801738D02*
X2654417Y-8735071D01*
X2654417Y-8754119D02*
X2659179Y-8744595D01*
X2663940Y-8739833D01*
X2673464Y-8735071D01*
X2682988Y-8735071D01*
X2754417Y-8796976D02*
X2744893Y-8801738D01*
X2725845Y-8801738D01*
X2716321Y-8796976D01*
X2711560Y-8787452D01*
X2711560Y-8749357D01*
X2716321Y-8739833D01*
X2725845Y-8735071D01*
X2744893Y-8735071D01*
X2754417Y-8739833D01*
X2759179Y-8749357D01*
X2759179Y-8758881D01*
X2711560Y-8768405D01*
X2840131Y-8796976D02*
X2830607Y-8801738D01*
X2811559Y-8801738D01*
X2802036Y-8796976D01*
X2797274Y-8787452D01*
X2797274Y-8749357D01*
X2802036Y-8739833D01*
X2811559Y-8735071D01*
X2830607Y-8735071D01*
X2840131Y-8739833D01*
X2844893Y-8749357D01*
X2844893Y-8758881D01*
X2797274Y-8768405D01*
X2887750Y-8735071D02*
X2887750Y-8801738D01*
X2887750Y-8744595D02*
X2892512Y-8739833D01*
X2902036Y-8735071D01*
X2916321Y-8735071D01*
X2925845Y-8739833D01*
X2930607Y-8749357D01*
X2930607Y-8801738D01*
X2978226Y-8792214D02*
X2982988Y-8796976D01*
X2978226Y-8801738D01*
X2973464Y-8796976D01*
X2978226Y-8792214D01*
X2978226Y-8801738D01*
X2978226Y-8739833D02*
X2982988Y-8744595D01*
X2978226Y-8749357D01*
X2973464Y-8744595D01*
X2978226Y-8739833D01*
X2978226Y-8749357D01*
X3092512Y-8701738D02*
X3116321Y-8801738D01*
X3135369Y-8730310D01*
X3154417Y-8801738D01*
X3178226Y-8701738D01*
X3216321Y-8801738D02*
X3216321Y-8701738D01*
X3259178Y-8801738D02*
X3259178Y-8749357D01*
X3254417Y-8739833D01*
X3244893Y-8735071D01*
X3230607Y-8735071D01*
X3221083Y-8739833D01*
X3216321Y-8744595D01*
X3306798Y-8801738D02*
X3306798Y-8735071D01*
X3306798Y-8701738D02*
X3302036Y-8706500D01*
X3306798Y-8711262D01*
X3311559Y-8706500D01*
X3306798Y-8701738D01*
X3306798Y-8711262D01*
X3340131Y-8735071D02*
X3378226Y-8735071D01*
X3354417Y-8701738D02*
X3354417Y-8787452D01*
X3359178Y-8796976D01*
X3368702Y-8801738D01*
X3378226Y-8801738D01*
X3449655Y-8796976D02*
X3440131Y-8801738D01*
X3421083Y-8801738D01*
X3411559Y-8796976D01*
X3406798Y-8787452D01*
X3406798Y-8749357D01*
X3411559Y-8739833D01*
X3421083Y-8735071D01*
X3440131Y-8735071D01*
X3449655Y-8739833D01*
X3454417Y-8749357D01*
X3454417Y-8758881D01*
X3406798Y-8768405D01*
X1925845Y-8909595D02*
X1916321Y-8904833D01*
X1911559Y-8900071D01*
X1906798Y-8890548D01*
X1906798Y-8885786D01*
X1911559Y-8876262D01*
X1916321Y-8871500D01*
X1925845Y-8866738D01*
X1944893Y-8866738D01*
X1954417Y-8871500D01*
X1959178Y-8876262D01*
X1963940Y-8885786D01*
X1963940Y-8890548D01*
X1959178Y-8900071D01*
X1954417Y-8904833D01*
X1944893Y-8909595D01*
X1925845Y-8909595D01*
X1916321Y-8914357D01*
X1911559Y-8919119D01*
X1906798Y-8928643D01*
X1906798Y-8947690D01*
X1911559Y-8957214D01*
X1916321Y-8961976D01*
X1925845Y-8966738D01*
X1944893Y-8966738D01*
X1954417Y-8961976D01*
X1959178Y-8957214D01*
X1963940Y-8947690D01*
X1963940Y-8928643D01*
X1959178Y-8919119D01*
X1954417Y-8914357D01*
X1944893Y-8909595D01*
X2006798Y-8957214D02*
X2011559Y-8961976D01*
X2006798Y-8966738D01*
X2002036Y-8961976D01*
X2006798Y-8957214D01*
X2006798Y-8966738D01*
X2044893Y-9004833D02*
X2049655Y-9000071D01*
X2059178Y-8985786D01*
X2063940Y-8976262D01*
X2068702Y-8961976D01*
X2073464Y-8938167D01*
X2073464Y-8919119D01*
X2068702Y-8895310D01*
X2063940Y-8881024D01*
X2059178Y-8871500D01*
X2049655Y-8857214D01*
X2044893Y-8852452D01*
X2192512Y-8961976D02*
X2206798Y-8966738D01*
X2230607Y-8966738D01*
X2240131Y-8961976D01*
X2244893Y-8957214D01*
X2249655Y-8947690D01*
X2249655Y-8938167D01*
X2244893Y-8928643D01*
X2240131Y-8923881D01*
X2230607Y-8919119D01*
X2211560Y-8914357D01*
X2202036Y-8909595D01*
X2197274Y-8904833D01*
X2192512Y-8895310D01*
X2192512Y-8885786D01*
X2197274Y-8876262D01*
X2202036Y-8871500D01*
X2211560Y-8866738D01*
X2235369Y-8866738D01*
X2249655Y-8871500D01*
X2335369Y-8900071D02*
X2335369Y-8966738D01*
X2292512Y-8900071D02*
X2292512Y-8952452D01*
X2297274Y-8961976D01*
X2306798Y-8966738D01*
X2321083Y-8966738D01*
X2330607Y-8961976D01*
X2335369Y-8957214D01*
X2382988Y-8966738D02*
X2382988Y-8900071D01*
X2382988Y-8919119D02*
X2387750Y-8909595D01*
X2392512Y-8904833D01*
X2402036Y-8900071D01*
X2411560Y-8900071D01*
X2430607Y-8900071D02*
X2468702Y-8900071D01*
X2444893Y-8966738D02*
X2444893Y-8881024D01*
X2449655Y-8871500D01*
X2459179Y-8866738D01*
X2468702Y-8866738D01*
X2544893Y-8966738D02*
X2544893Y-8914357D01*
X2540131Y-8904833D01*
X2530607Y-8900071D01*
X2511560Y-8900071D01*
X2502036Y-8904833D01*
X2544893Y-8961976D02*
X2535369Y-8966738D01*
X2511560Y-8966738D01*
X2502036Y-8961976D01*
X2497274Y-8952452D01*
X2497274Y-8942929D01*
X2502036Y-8933405D01*
X2511560Y-8928643D01*
X2535369Y-8928643D01*
X2544893Y-8923881D01*
X2635369Y-8961976D02*
X2625845Y-8966738D01*
X2606798Y-8966738D01*
X2597274Y-8961976D01*
X2592512Y-8957214D01*
X2587750Y-8947690D01*
X2587750Y-8919119D01*
X2592512Y-8909595D01*
X2597274Y-8904833D01*
X2606798Y-8900071D01*
X2625845Y-8900071D01*
X2635369Y-8904833D01*
X2716321Y-8961976D02*
X2706798Y-8966738D01*
X2687750Y-8966738D01*
X2678226Y-8961976D01*
X2673464Y-8952452D01*
X2673464Y-8914357D01*
X2678226Y-8904833D01*
X2687750Y-8900071D01*
X2706798Y-8900071D01*
X2716321Y-8904833D01*
X2721083Y-8914357D01*
X2721083Y-8923881D01*
X2673464Y-8933405D01*
X2873464Y-8914357D02*
X2840131Y-8914357D01*
X2840131Y-8966738D02*
X2840131Y-8866738D01*
X2887750Y-8866738D01*
X2925845Y-8966738D02*
X2925845Y-8900071D01*
X2925845Y-8866738D02*
X2921083Y-8871500D01*
X2925845Y-8876262D01*
X2930607Y-8871500D01*
X2925845Y-8866738D01*
X2925845Y-8876262D01*
X2973464Y-8900071D02*
X2973464Y-8966738D01*
X2973464Y-8909595D02*
X2978226Y-8904833D01*
X2987750Y-8900071D01*
X3002036Y-8900071D01*
X3011559Y-8904833D01*
X3016321Y-8914357D01*
X3016321Y-8966738D01*
X3063940Y-8966738D02*
X3063940Y-8900071D01*
X3063940Y-8866738D02*
X3059178Y-8871500D01*
X3063940Y-8876262D01*
X3068702Y-8871500D01*
X3063940Y-8866738D01*
X3063940Y-8876262D01*
X3106798Y-8961976D02*
X3116321Y-8966738D01*
X3135369Y-8966738D01*
X3144893Y-8961976D01*
X3149655Y-8952452D01*
X3149655Y-8947690D01*
X3144893Y-8938167D01*
X3135369Y-8933405D01*
X3121083Y-8933405D01*
X3111559Y-8928643D01*
X3106798Y-8919119D01*
X3106798Y-8914357D01*
X3111559Y-8904833D01*
X3121083Y-8900071D01*
X3135369Y-8900071D01*
X3144893Y-8904833D01*
X3192512Y-8966738D02*
X3192512Y-8866738D01*
X3235369Y-8966738D02*
X3235369Y-8914357D01*
X3230607Y-8904833D01*
X3221083Y-8900071D01*
X3206798Y-8900071D01*
X3197274Y-8904833D01*
X3192512Y-8909595D01*
X3282988Y-8957214D02*
X3287750Y-8961976D01*
X3282988Y-8966738D01*
X3278226Y-8961976D01*
X3282988Y-8957214D01*
X3282988Y-8966738D01*
X3282988Y-8904833D02*
X3287750Y-8909595D01*
X3282988Y-8914357D01*
X3278226Y-8909595D01*
X3282988Y-8904833D01*
X3282988Y-8914357D01*
X3406798Y-8966738D02*
X3406798Y-8866738D01*
X3406798Y-8914357D02*
X3463940Y-8914357D01*
X3463940Y-8966738D02*
X3463940Y-8866738D01*
X3506798Y-8938167D02*
X3554417Y-8938167D01*
X3497274Y-8966738D02*
X3530607Y-8866738D01*
X3563940Y-8966738D01*
X3592512Y-8961976D02*
X3606798Y-8966738D01*
X3630607Y-8966738D01*
X3640131Y-8961976D01*
X3644893Y-8957214D01*
X3649655Y-8947690D01*
X3649655Y-8938167D01*
X3644893Y-8928643D01*
X3640131Y-8923881D01*
X3630607Y-8919119D01*
X3611559Y-8914357D01*
X3602036Y-8909595D01*
X3597274Y-8904833D01*
X3592512Y-8895310D01*
X3592512Y-8885786D01*
X3597274Y-8876262D01*
X3602036Y-8871500D01*
X3611559Y-8866738D01*
X3635369Y-8866738D01*
X3649655Y-8871500D01*
X3740131Y-8966738D02*
X3692512Y-8966738D01*
X3692512Y-8866738D01*
X3849655Y-8928643D02*
X3925845Y-8928643D01*
X4106798Y-8966738D02*
X4073464Y-8919119D01*
X4049655Y-8966738D02*
X4049655Y-8866738D01*
X4087750Y-8866738D01*
X4097274Y-8871500D01*
X4102036Y-8876262D01*
X4106798Y-8885786D01*
X4106798Y-8900071D01*
X4102036Y-8909595D01*
X4097274Y-8914357D01*
X4087750Y-8919119D01*
X4049655Y-8919119D01*
X4163940Y-8966738D02*
X4154417Y-8961976D01*
X4149655Y-8957214D01*
X4144893Y-8947690D01*
X4144893Y-8919119D01*
X4149655Y-8909595D01*
X4154417Y-8904833D01*
X4163940Y-8900071D01*
X4178226Y-8900071D01*
X4187750Y-8904833D01*
X4192512Y-8909595D01*
X4197274Y-8919119D01*
X4197274Y-8947690D01*
X4192512Y-8957214D01*
X4187750Y-8961976D01*
X4178226Y-8966738D01*
X4163940Y-8966738D01*
X4240131Y-8966738D02*
X4240131Y-8866738D01*
X4240131Y-8914357D02*
X4297274Y-8914357D01*
X4297274Y-8966738D02*
X4297274Y-8866738D01*
X4340131Y-8961976D02*
X4354417Y-8966738D01*
X4378226Y-8966738D01*
X4387750Y-8961976D01*
X4392512Y-8957214D01*
X4397274Y-8947690D01*
X4397274Y-8938167D01*
X4392512Y-8928643D01*
X4387750Y-8923881D01*
X4378226Y-8919119D01*
X4359179Y-8914357D01*
X4349655Y-8909595D01*
X4344893Y-8904833D01*
X4340131Y-8895310D01*
X4340131Y-8885786D01*
X4344893Y-8876262D01*
X4349655Y-8871500D01*
X4359179Y-8866738D01*
X4382988Y-8866738D01*
X4397274Y-8871500D01*
X1916321Y-9131738D02*
X1935369Y-9131738D01*
X1944893Y-9126976D01*
X1949655Y-9122214D01*
X1959178Y-9107929D01*
X1963940Y-9088881D01*
X1963940Y-9050786D01*
X1959178Y-9041262D01*
X1954417Y-9036500D01*
X1944893Y-9031738D01*
X1925845Y-9031738D01*
X1916321Y-9036500D01*
X1911559Y-9041262D01*
X1906798Y-9050786D01*
X1906798Y-9074595D01*
X1911559Y-9084119D01*
X1916321Y-9088881D01*
X1925845Y-9093643D01*
X1944893Y-9093643D01*
X1954417Y-9088881D01*
X1959178Y-9084119D01*
X1963940Y-9074595D01*
X2006798Y-9122214D02*
X2011559Y-9126976D01*
X2006798Y-9131738D01*
X2002036Y-9126976D01*
X2006798Y-9122214D01*
X2006798Y-9131738D01*
X2044893Y-9169833D02*
X2049655Y-9165071D01*
X2059178Y-9150786D01*
X2063940Y-9141262D01*
X2068702Y-9126976D01*
X2073464Y-9103167D01*
X2073464Y-9084119D01*
X2068702Y-9060310D01*
X2063940Y-9046024D01*
X2059178Y-9036500D01*
X2049655Y-9022214D01*
X2044893Y-9017452D01*
X2254417Y-9122214D02*
X2249655Y-9126976D01*
X2235369Y-9131738D01*
X2225845Y-9131738D01*
X2211560Y-9126976D01*
X2202036Y-9117452D01*
X2197274Y-9107929D01*
X2192512Y-9088881D01*
X2192512Y-9074595D01*
X2197274Y-9055548D01*
X2202036Y-9046024D01*
X2211560Y-9036500D01*
X2225845Y-9031738D01*
X2235369Y-9031738D01*
X2249655Y-9036500D01*
X2254417Y-9041262D01*
X2311560Y-9131738D02*
X2302036Y-9126976D01*
X2297274Y-9122214D01*
X2292512Y-9112690D01*
X2292512Y-9084119D01*
X2297274Y-9074595D01*
X2302036Y-9069833D01*
X2311560Y-9065071D01*
X2325845Y-9065071D01*
X2335369Y-9069833D01*
X2340131Y-9074595D01*
X2344893Y-9084119D01*
X2344893Y-9112690D01*
X2340131Y-9122214D01*
X2335369Y-9126976D01*
X2325845Y-9131738D01*
X2311560Y-9131738D01*
X2387750Y-9065071D02*
X2387750Y-9165071D01*
X2387750Y-9069833D02*
X2397274Y-9065071D01*
X2416321Y-9065071D01*
X2425845Y-9069833D01*
X2430607Y-9074595D01*
X2435369Y-9084119D01*
X2435369Y-9112690D01*
X2430607Y-9122214D01*
X2425845Y-9126976D01*
X2416321Y-9131738D01*
X2397274Y-9131738D01*
X2387750Y-9126976D01*
X2478226Y-9065071D02*
X2478226Y-9165071D01*
X2478226Y-9069833D02*
X2487750Y-9065071D01*
X2506798Y-9065071D01*
X2516321Y-9069833D01*
X2521083Y-9074595D01*
X2525845Y-9084119D01*
X2525845Y-9112690D01*
X2521083Y-9122214D01*
X2516321Y-9126976D01*
X2506798Y-9131738D01*
X2487750Y-9131738D01*
X2478226Y-9126976D01*
X2606798Y-9126976D02*
X2597274Y-9131738D01*
X2578226Y-9131738D01*
X2568702Y-9126976D01*
X2563940Y-9117452D01*
X2563940Y-9079357D01*
X2568702Y-9069833D01*
X2578226Y-9065071D01*
X2597274Y-9065071D01*
X2606798Y-9069833D01*
X2611560Y-9079357D01*
X2611560Y-9088881D01*
X2563940Y-9098405D01*
X2654417Y-9131738D02*
X2654417Y-9065071D01*
X2654417Y-9084119D02*
X2659179Y-9074595D01*
X2663940Y-9069833D01*
X2673464Y-9065071D01*
X2682988Y-9065071D01*
X2782988Y-9031738D02*
X2806798Y-9131738D01*
X2825845Y-9060310D01*
X2844893Y-9131738D01*
X2868702Y-9031738D01*
X2944893Y-9126976D02*
X2935369Y-9131738D01*
X2916321Y-9131738D01*
X2906798Y-9126976D01*
X2902036Y-9117452D01*
X2902036Y-9079357D01*
X2906798Y-9069833D01*
X2916321Y-9065071D01*
X2935369Y-9065071D01*
X2944893Y-9069833D01*
X2949655Y-9079357D01*
X2949655Y-9088881D01*
X2902036Y-9098405D01*
X2992512Y-9131738D02*
X2992512Y-9065071D01*
X2992512Y-9031738D02*
X2987750Y-9036500D01*
X2992512Y-9041262D01*
X2997274Y-9036500D01*
X2992512Y-9031738D01*
X2992512Y-9041262D01*
X3082988Y-9065071D02*
X3082988Y-9146024D01*
X3078226Y-9155548D01*
X3073464Y-9160310D01*
X3063940Y-9165071D01*
X3049655Y-9165071D01*
X3040131Y-9160310D01*
X3082988Y-9126976D02*
X3073464Y-9131738D01*
X3054417Y-9131738D01*
X3044893Y-9126976D01*
X3040131Y-9122214D01*
X3035369Y-9112690D01*
X3035369Y-9084119D01*
X3040131Y-9074595D01*
X3044893Y-9069833D01*
X3054417Y-9065071D01*
X3073464Y-9065071D01*
X3082988Y-9069833D01*
X3130607Y-9131738D02*
X3130607Y-9031738D01*
X3173464Y-9131738D02*
X3173464Y-9079357D01*
X3168702Y-9069833D01*
X3159178Y-9065071D01*
X3144893Y-9065071D01*
X3135369Y-9069833D01*
X3130607Y-9074595D01*
X3206798Y-9065071D02*
X3244893Y-9065071D01*
X3221083Y-9031738D02*
X3221083Y-9117452D01*
X3225845Y-9126976D01*
X3235369Y-9131738D01*
X3244893Y-9131738D01*
X3278226Y-9122214D02*
X3282988Y-9126976D01*
X3278226Y-9131738D01*
X3273464Y-9126976D01*
X3278226Y-9122214D01*
X3278226Y-9131738D01*
X3278226Y-9069833D02*
X3282988Y-9074595D01*
X3278226Y-9079357D01*
X3273464Y-9074595D01*
X3278226Y-9069833D01*
X3278226Y-9079357D01*
X3454417Y-9131738D02*
X3397274Y-9131738D01*
X3425845Y-9131738D02*
X3425845Y-9031738D01*
X3416321Y-9046024D01*
X3406798Y-9055548D01*
X3397274Y-9060310D01*
X3587750Y-9131738D02*
X3578226Y-9126976D01*
X3573464Y-9122214D01*
X3568702Y-9112690D01*
X3568702Y-9084119D01*
X3573464Y-9074595D01*
X3578226Y-9069833D01*
X3587750Y-9065071D01*
X3602036Y-9065071D01*
X3611559Y-9069833D01*
X3616321Y-9074595D01*
X3621083Y-9084119D01*
X3621083Y-9112690D01*
X3616321Y-9122214D01*
X3611559Y-9126976D01*
X3602036Y-9131738D01*
X3587750Y-9131738D01*
X3654417Y-9065071D02*
X3706798Y-9065071D01*
X3654417Y-9131738D01*
X3706798Y-9131738D01*
X13743833Y-11571571D02*
X13743833Y-11638238D01*
X13720024Y-11533476D02*
X13696214Y-11604905D01*
X13758119Y-11604905D01*
X13810500Y-11581095D02*
X13800976Y-11576333D01*
X13796214Y-11571571D01*
X13791452Y-11562048D01*
X13791452Y-11557286D01*
X13796214Y-11547762D01*
X13800976Y-11543000D01*
X13810500Y-11538238D01*
X13829548Y-11538238D01*
X13839071Y-11543000D01*
X13843833Y-11547762D01*
X13848595Y-11557286D01*
X13848595Y-11562048D01*
X13843833Y-11571571D01*
X13839071Y-11576333D01*
X13829548Y-11581095D01*
X13810500Y-11581095D01*
X13800976Y-11585857D01*
X13796214Y-11590619D01*
X13791452Y-11600143D01*
X13791452Y-11619190D01*
X13796214Y-11628714D01*
X13800976Y-11633476D01*
X13810500Y-11638238D01*
X13829548Y-11638238D01*
X13839071Y-11633476D01*
X13843833Y-11628714D01*
X13848595Y-11619190D01*
X13848595Y-11600143D01*
X13843833Y-11590619D01*
X13839071Y-11585857D01*
X13829548Y-11581095D01*
X13891452Y-11628714D02*
X13896214Y-11633476D01*
X13891452Y-11638238D01*
X13886690Y-11633476D01*
X13891452Y-11628714D01*
X13891452Y-11638238D01*
X13934309Y-11547762D02*
X13939071Y-11543000D01*
X13948595Y-11538238D01*
X13972405Y-11538238D01*
X13981928Y-11543000D01*
X13986690Y-11547762D01*
X13991452Y-11557286D01*
X13991452Y-11566809D01*
X13986690Y-11581095D01*
X13929548Y-11638238D01*
X13991452Y-11638238D01*
X14039071Y-11638238D02*
X14058119Y-11638238D01*
X14067643Y-11633476D01*
X14072405Y-11628714D01*
X14081928Y-11614428D01*
X14086690Y-11595381D01*
X14086690Y-11557286D01*
X14081928Y-11547762D01*
X14077167Y-11543000D01*
X14067643Y-11538238D01*
X14048595Y-11538238D01*
X14039071Y-11543000D01*
X14034309Y-11547762D01*
X14029548Y-11557286D01*
X14029548Y-11581095D01*
X14034309Y-11590619D01*
X14039071Y-11595381D01*
X14048595Y-11600143D01*
X14067643Y-11600143D01*
X14077167Y-11595381D01*
X14081928Y-11590619D01*
X14086690Y-11581095D01*
X14148595Y-11538238D02*
X14158119Y-11538238D01*
X14167643Y-11543000D01*
X14172405Y-11547762D01*
X14177167Y-11557286D01*
X14181928Y-11576333D01*
X14181928Y-11600143D01*
X14177167Y-11619190D01*
X14172405Y-11628714D01*
X14167643Y-11633476D01*
X14158119Y-11638238D01*
X14148595Y-11638238D01*
X14139071Y-11633476D01*
X14134309Y-11628714D01*
X14129548Y-11619190D01*
X14124786Y-11600143D01*
X14124786Y-11576333D01*
X14129548Y-11557286D01*
X14134309Y-11547762D01*
X14139071Y-11543000D01*
X14148595Y-11538238D01*
X14300976Y-11638238D02*
X14300976Y-11571571D01*
X14300976Y-11581095D02*
X14305738Y-11576333D01*
X14315262Y-11571571D01*
X14329548Y-11571571D01*
X14339071Y-11576333D01*
X14343833Y-11585857D01*
X14343833Y-11638238D01*
X14343833Y-11585857D02*
X14348595Y-11576333D01*
X14358119Y-11571571D01*
X14372405Y-11571571D01*
X14381928Y-11576333D01*
X14386690Y-11585857D01*
X14386690Y-11638238D01*
X14434309Y-11638238D02*
X14434309Y-11571571D01*
X14434309Y-11581095D02*
X14439071Y-11576333D01*
X14448595Y-11571571D01*
X14462881Y-11571571D01*
X14472405Y-11576333D01*
X14477167Y-11585857D01*
X14477167Y-11638238D01*
X14477167Y-11585857D02*
X14481928Y-11576333D01*
X14491452Y-11571571D01*
X14505738Y-11571571D01*
X14515262Y-11576333D01*
X14520024Y-11585857D01*
X14520024Y-11638238D01*
X11696000Y-11463000D02*
X16525000Y-11463000D01*
X11696000Y-9251000D02*
X11696000Y-11521642D01*
X16525000Y-9251000D02*
X16525000Y-11521642D01*
X16525000Y-11463000D02*
X16412350Y-11521642D01*
X16525000Y-11463000D02*
X16412350Y-11404358D01*
X11696000Y-11463000D02*
X11808650Y-11521642D01*
X11696000Y-11463000D02*
X11808650Y-11404358D01*
X17556238Y-8850414D02*
X17561000Y-8855176D01*
X17565762Y-8864700D01*
X17565762Y-8888510D01*
X17561000Y-8898033D01*
X17556238Y-8902795D01*
X17546714Y-8907557D01*
X17537190Y-8907557D01*
X17522905Y-8902795D01*
X17465762Y-8845652D01*
X17465762Y-8907557D01*
X17532429Y-8993271D02*
X17465762Y-8993271D01*
X17570524Y-8969462D02*
X17499095Y-8945652D01*
X17499095Y-9007557D01*
X17475286Y-9045652D02*
X17470524Y-9050414D01*
X17465762Y-9045652D01*
X17470524Y-9040890D01*
X17475286Y-9045652D01*
X17465762Y-9045652D01*
X17522905Y-9107557D02*
X17527667Y-9098033D01*
X17532429Y-9093271D01*
X17541952Y-9088510D01*
X17546714Y-9088510D01*
X17556238Y-9093271D01*
X17561000Y-9098033D01*
X17565762Y-9107557D01*
X17565762Y-9126605D01*
X17561000Y-9136129D01*
X17556238Y-9140890D01*
X17546714Y-9145652D01*
X17541952Y-9145652D01*
X17532429Y-9140890D01*
X17527667Y-9136129D01*
X17522905Y-9126605D01*
X17522905Y-9107557D01*
X17518143Y-9098033D01*
X17513381Y-9093271D01*
X17503857Y-9088510D01*
X17484810Y-9088510D01*
X17475286Y-9093271D01*
X17470524Y-9098033D01*
X17465762Y-9107557D01*
X17465762Y-9126605D01*
X17470524Y-9136129D01*
X17475286Y-9140890D01*
X17484810Y-9145652D01*
X17503857Y-9145652D01*
X17513381Y-9140890D01*
X17518143Y-9136129D01*
X17522905Y-9126605D01*
X17522905Y-9202795D02*
X17527667Y-9193271D01*
X17532429Y-9188510D01*
X17541952Y-9183748D01*
X17546714Y-9183748D01*
X17556238Y-9188510D01*
X17561000Y-9193271D01*
X17565762Y-9202795D01*
X17565762Y-9221843D01*
X17561000Y-9231367D01*
X17556238Y-9236129D01*
X17546714Y-9240890D01*
X17541952Y-9240890D01*
X17532429Y-9236129D01*
X17527667Y-9231367D01*
X17522905Y-9221843D01*
X17522905Y-9202795D01*
X17518143Y-9193271D01*
X17513381Y-9188510D01*
X17503857Y-9183748D01*
X17484810Y-9183748D01*
X17475286Y-9188510D01*
X17470524Y-9193271D01*
X17465762Y-9202795D01*
X17465762Y-9221843D01*
X17470524Y-9231367D01*
X17475286Y-9236129D01*
X17484810Y-9240890D01*
X17503857Y-9240890D01*
X17513381Y-9236129D01*
X17518143Y-9231367D01*
X17522905Y-9221843D01*
X17565762Y-9326605D02*
X17565762Y-9307557D01*
X17561000Y-9298033D01*
X17556238Y-9293271D01*
X17541952Y-9283748D01*
X17522905Y-9278986D01*
X17484810Y-9278986D01*
X17475286Y-9283748D01*
X17470524Y-9288510D01*
X17465762Y-9298033D01*
X17465762Y-9317081D01*
X17470524Y-9326605D01*
X17475286Y-9331367D01*
X17484810Y-9336129D01*
X17508619Y-9336129D01*
X17518143Y-9331367D01*
X17522905Y-9326605D01*
X17527667Y-9317081D01*
X17527667Y-9298033D01*
X17522905Y-9288510D01*
X17518143Y-9283748D01*
X17508619Y-9278986D01*
X17465762Y-9455176D02*
X17532429Y-9455176D01*
X17522905Y-9455176D02*
X17527667Y-9459938D01*
X17532429Y-9469462D01*
X17532429Y-9483748D01*
X17527667Y-9493271D01*
X17518143Y-9498033D01*
X17465762Y-9498033D01*
X17518143Y-9498033D02*
X17527667Y-9502795D01*
X17532429Y-9512319D01*
X17532429Y-9526605D01*
X17527667Y-9536129D01*
X17518143Y-9540890D01*
X17465762Y-9540890D01*
X17465762Y-9588510D02*
X17532429Y-9588510D01*
X17522905Y-9588510D02*
X17527667Y-9593271D01*
X17532429Y-9602795D01*
X17532429Y-9617081D01*
X17527667Y-9626605D01*
X17518143Y-9631367D01*
X17465762Y-9631367D01*
X17518143Y-9631367D02*
X17527667Y-9636129D01*
X17532429Y-9645652D01*
X17532429Y-9659938D01*
X17527667Y-9669462D01*
X17518143Y-9674224D01*
X17465762Y-9674224D01*
X17381000Y-8020400D02*
X17381000Y-10509000D01*
X14922300Y-8020400D02*
X17439642Y-8020400D01*
X14922300Y-10509000D02*
X17439642Y-10509000D01*
X17381000Y-10509000D02*
X17322358Y-10396350D01*
X17381000Y-10509000D02*
X17439642Y-10396350D01*
X17381000Y-8020400D02*
X17322358Y-8133050D01*
X17381000Y-8020400D02*
X17439642Y-8133050D01*
D11*
G04 #@! TO.C,IC1*
X14693000Y-8604000D02*
X13373000Y-8604000D01*
D12*
G04 #@! TO.C,SW1*
X12197324Y-10193934D02*
X12313786Y-10136172D01*
X12159588Y-10161131D02*
X12276051Y-10103369D01*
X12121853Y-10128328D02*
X12238315Y-10070566D01*
X12084117Y-10095525D02*
X12200580Y-10037763D01*
X12313786Y-10136172D02*
X12162844Y-10004960D01*
X12235059Y-10226737D02*
X12313786Y-10136172D01*
X12084117Y-10095525D02*
X12235059Y-10226737D01*
X12162844Y-10004960D02*
X12084117Y-10095525D01*
G04 #@! TO.C,SW2*
X12893219Y-10453492D02*
X12955489Y-10339376D01*
X12843493Y-10448266D02*
X12905763Y-10334150D01*
X12793767Y-10443040D02*
X12856037Y-10328923D01*
X12744041Y-10437813D02*
X12806310Y-10323697D01*
X12955489Y-10339376D02*
X12756584Y-10318471D01*
X12942945Y-10458719D02*
X12955489Y-10339376D01*
X12744041Y-10437813D02*
X12942945Y-10458719D01*
X12756584Y-10318471D02*
X12744041Y-10437813D01*
D13*
G04 #@! TO.C,LOGO1*
X18355000Y-1433000D02*
X14355000Y-1433000D01*
X18355000Y-1933000D02*
X18355000Y-1433000D01*
X14355000Y-1933000D02*
X18355000Y-1933000D01*
X14355000Y-1433000D02*
X12355000Y-1433000D01*
X14355000Y-1933000D02*
X14355000Y-1433000D01*
X12355000Y-1933000D02*
X14355000Y-1933000D01*
X12355000Y-1933000D02*
X10355000Y-1933000D01*
X12355000Y-1433000D02*
X12355000Y-1933000D01*
X10355000Y-1433000D02*
X12355000Y-1433000D01*
X10355000Y-1433000D02*
X8355000Y-1433000D01*
X10355000Y-1933000D02*
X10355000Y-1433000D01*
X8355000Y-1933000D02*
X10355000Y-1933000D01*
X8355000Y-1933000D02*
X5355000Y-1933000D01*
X8355000Y-1433000D02*
X8355000Y-1933000D01*
X5355000Y-1433000D02*
X8355000Y-1433000D01*
X5355000Y-1933000D02*
X5355000Y-1433000D01*
D14*
X3896000Y-6140000D02*
X3696000Y-6140000D01*
X2696000Y-6140000D02*
X2496000Y-6140000D01*
X2296000Y-6140000D02*
X2096000Y-6140000D01*
X4296000Y-6140000D02*
X4096000Y-6140000D01*
X3496000Y-6140000D02*
X3296000Y-6140000D01*
X5096000Y-6140000D02*
X4896000Y-6140000D01*
X4696000Y-6140000D02*
X4496000Y-6140000D01*
X3096000Y-6140000D02*
X2896000Y-6140000D01*
X1896000Y-6140000D02*
X1696000Y-6140000D01*
D13*
X4296000Y-5640000D02*
X5096000Y-5640000D01*
X2996000Y-5640000D02*
X4096000Y-5640000D01*
X1696000Y-5640000D02*
X2796000Y-5640000D01*
X4326000Y-2640000D02*
X5126000Y-2640000D01*
X3026000Y-2640000D02*
X4126000Y-2640000D01*
X1726000Y-2640000D02*
X2826000Y-2640000D01*
D12*
G36*
X4527000Y-3152000D02*
G01*
X4127000Y-3152000D01*
X4127000Y-3052000D01*
X4527000Y-3052000D01*
X4527000Y-3152000D01*
G37*
X4527000Y-3152000D02*
X4127000Y-3152000D01*
X4127000Y-3052000D01*
X4527000Y-3052000D01*
X4527000Y-3152000D01*
G36*
X5127000Y-3152000D02*
G01*
X4727000Y-3152000D01*
X4727000Y-3052000D01*
X5127000Y-3052000D01*
X5127000Y-3152000D01*
G37*
X5127000Y-3152000D02*
X4727000Y-3152000D01*
X4727000Y-3052000D01*
X5127000Y-3052000D01*
X5127000Y-3152000D01*
G36*
X2727000Y-3152000D02*
G01*
X2327000Y-3152000D01*
X2327000Y-3052000D01*
X2727000Y-3052000D01*
X2727000Y-3152000D01*
G37*
X2727000Y-3152000D02*
X2327000Y-3152000D01*
X2327000Y-3052000D01*
X2727000Y-3052000D01*
X2727000Y-3152000D01*
G36*
X3927000Y-3152000D02*
G01*
X3527000Y-3152000D01*
X3527000Y-3052000D01*
X3927000Y-3052000D01*
X3927000Y-3152000D01*
G37*
X3927000Y-3152000D02*
X3527000Y-3152000D01*
X3527000Y-3052000D01*
X3927000Y-3052000D01*
X3927000Y-3152000D01*
G36*
X3327000Y-3152000D02*
G01*
X2927000Y-3152000D01*
X2927000Y-3052000D01*
X3327000Y-3052000D01*
X3327000Y-3152000D01*
G37*
X3327000Y-3152000D02*
X2927000Y-3152000D01*
X2927000Y-3052000D01*
X3327000Y-3052000D01*
X3327000Y-3152000D01*
G36*
X2127000Y-3152000D02*
G01*
X1727000Y-3152000D01*
X1727000Y-3052000D01*
X2127000Y-3052000D01*
X2127000Y-3152000D01*
G37*
X2127000Y-3152000D02*
X1727000Y-3152000D01*
X1727000Y-3052000D01*
X2127000Y-3052000D01*
X2127000Y-3152000D01*
G36*
X5127000Y-5152000D02*
G01*
X4727000Y-5152000D01*
X4727000Y-5052000D01*
X5127000Y-5052000D01*
X5127000Y-5152000D01*
G37*
X5127000Y-5152000D02*
X4727000Y-5152000D01*
X4727000Y-5052000D01*
X5127000Y-5052000D01*
X5127000Y-5152000D01*
G36*
X4527000Y-5152000D02*
G01*
X4127000Y-5152000D01*
X4127000Y-5052000D01*
X4527000Y-5052000D01*
X4527000Y-5152000D01*
G37*
X4527000Y-5152000D02*
X4127000Y-5152000D01*
X4127000Y-5052000D01*
X4527000Y-5052000D01*
X4527000Y-5152000D01*
G36*
X3927000Y-5152000D02*
G01*
X3527000Y-5152000D01*
X3527000Y-5052000D01*
X3927000Y-5052000D01*
X3927000Y-5152000D01*
G37*
X3927000Y-5152000D02*
X3527000Y-5152000D01*
X3527000Y-5052000D01*
X3927000Y-5052000D01*
X3927000Y-5152000D01*
G36*
X3327000Y-5152000D02*
G01*
X2927000Y-5152000D01*
X2927000Y-5052000D01*
X3327000Y-5052000D01*
X3327000Y-5152000D01*
G37*
X3327000Y-5152000D02*
X2927000Y-5152000D01*
X2927000Y-5052000D01*
X3327000Y-5052000D01*
X3327000Y-5152000D01*
G36*
X2727000Y-5152000D02*
G01*
X2327000Y-5152000D01*
X2327000Y-5052000D01*
X2727000Y-5052000D01*
X2727000Y-5152000D01*
G37*
X2727000Y-5152000D02*
X2327000Y-5152000D01*
X2327000Y-5052000D01*
X2727000Y-5052000D01*
X2727000Y-5152000D01*
G36*
X2127000Y-5152000D02*
G01*
X1727000Y-5152000D01*
X1727000Y-5052000D01*
X2127000Y-5052000D01*
X2127000Y-5152000D01*
G37*
X2127000Y-5152000D02*
X1727000Y-5152000D01*
X1727000Y-5052000D01*
X2127000Y-5052000D01*
X2127000Y-5152000D01*
G36*
X5177000Y-4852000D02*
G01*
X1677000Y-4852000D01*
X1677000Y-3352000D01*
X5177000Y-3352000D01*
X5177000Y-4852000D01*
G37*
X5177000Y-4852000D02*
X1677000Y-4852000D01*
X1677000Y-3352000D01*
X5177000Y-3352000D01*
X5177000Y-4852000D01*
D14*
X18355000Y-6432000D02*
X18355000Y-5932000D01*
X14355000Y-6432000D02*
X18355000Y-6432000D01*
X14355000Y-6432000D02*
X14355000Y-5932000D01*
X12355000Y-6432000D02*
X14355000Y-6432000D01*
X12355000Y-6432000D02*
X12355000Y-5932000D01*
X10355000Y-6432000D02*
X12355000Y-6432000D01*
X10355000Y-6432000D02*
X10355000Y-5932000D01*
X8355000Y-6432000D02*
X10355000Y-6432000D01*
X8355000Y-6432000D02*
X8355000Y-5932000D01*
X5355000Y-6432000D02*
X8355000Y-6432000D01*
X5355000Y-5932000D02*
X5355000Y-6432000D01*
X14355000Y-5932000D02*
X18355000Y-5932000D01*
X12355000Y-5932000D02*
X14355000Y-5932000D01*
X12355000Y-5932000D02*
X12355000Y-5432000D01*
X10355000Y-5932000D02*
X12355000Y-5932000D01*
X10355000Y-5932000D02*
X10355000Y-5432000D01*
X8355000Y-5932000D02*
X10355000Y-5932000D01*
X8355000Y-5932000D02*
X8355000Y-5432000D01*
X5355000Y-5932000D02*
X8355000Y-5932000D01*
X10355000Y-5432000D02*
X8355000Y-5432000D01*
X12355000Y-5432000D02*
X10355000Y-5432000D01*
X14355000Y-6432000D02*
X12355000Y-6432000D01*
X14355000Y-6432000D02*
X18355000Y-6432000D01*
X18355000Y-5932000D02*
X18355000Y-6432000D01*
X14355000Y-5932000D02*
X14355000Y-6432000D01*
X12355000Y-4932000D02*
X12355000Y-5432000D01*
X10355000Y-4932000D02*
X10355000Y-5432000D01*
X8355000Y-5432000D02*
X8355000Y-4932000D01*
X5355000Y-6432000D02*
X8355000Y-6432000D01*
X5355000Y-5932000D02*
X5355000Y-6432000D01*
X18355000Y-2433000D02*
X18355000Y-2933000D01*
X14355000Y-3433000D02*
X18355000Y-3433000D01*
X12355000Y-2933000D02*
X14355000Y-2933000D01*
X10355000Y-2933000D02*
X12355000Y-2933000D01*
X8355000Y-2933000D02*
X10355000Y-2933000D01*
X5355000Y-2933000D02*
X8355000Y-2933000D01*
X14355000Y-2433000D02*
X14355000Y-2933000D01*
X12355000Y-2433000D02*
X12355000Y-2933000D01*
X10355000Y-2433000D02*
X10355000Y-2933000D01*
X8355000Y-2433000D02*
X8355000Y-2933000D01*
X5355000Y-2433000D02*
X5355000Y-2933000D01*
X18355000Y-5932000D02*
X18355000Y-5432000D01*
X14355000Y-5932000D02*
X18355000Y-5932000D01*
X14355000Y-5932000D02*
X14355000Y-5432000D01*
X12355000Y-5932000D02*
X14355000Y-5932000D01*
X12355000Y-5932000D02*
X12355000Y-5432000D01*
X10355000Y-4932000D02*
X12355000Y-4932000D01*
X10355000Y-5432000D02*
X10355000Y-5932000D01*
X8355000Y-4932000D02*
X10355000Y-4932000D01*
X5355000Y-5432000D02*
X5355000Y-5932000D01*
X5355000Y-5932000D02*
X8355000Y-5932000D01*
X8355000Y-5932000D02*
X8355000Y-5432000D01*
X18355000Y-5432000D02*
X18355000Y-4932000D01*
X14355000Y-5432000D02*
X18355000Y-5432000D01*
X14355000Y-4932000D02*
X14355000Y-5432000D01*
X12355000Y-5432000D02*
X14355000Y-5432000D01*
X12355000Y-5432000D02*
X12355000Y-4932000D01*
X10355000Y-5432000D02*
X12355000Y-5432000D01*
X10355000Y-5432000D02*
X10355000Y-4932000D01*
X8355000Y-5432000D02*
X10355000Y-5432000D01*
X8355000Y-4932000D02*
X8355000Y-5432000D01*
X5355000Y-4932000D02*
X5355000Y-5432000D01*
X5355000Y-5432000D02*
X8355000Y-5432000D01*
X14355000Y-4932000D02*
X18355000Y-4932000D01*
X18355000Y-4932000D02*
X18355000Y-4432000D01*
X14355000Y-4932000D02*
X14355000Y-4432000D01*
X12355000Y-4932000D02*
X14355000Y-4932000D01*
X12355000Y-4932000D02*
X12355000Y-4432000D01*
X10355000Y-4932000D02*
X12355000Y-4932000D01*
X10355000Y-4432000D02*
X10355000Y-4932000D01*
X8355000Y-4932000D02*
X10355000Y-4932000D01*
X8355000Y-4932000D02*
X8355000Y-4432000D01*
X5355000Y-4932000D02*
X8355000Y-4932000D01*
X5355000Y-4432000D02*
X5355000Y-4932000D01*
X18355000Y-3932000D02*
X18355000Y-4432000D01*
X14355000Y-4432000D02*
X14355000Y-3932000D01*
X12355000Y-4432000D02*
X12355000Y-3932000D01*
X10355000Y-4432000D02*
X10355000Y-3932000D01*
X8355000Y-4432000D02*
X8355000Y-3932000D01*
X5355000Y-3932000D02*
X5355000Y-4432000D01*
X8355000Y-3932000D02*
X8355000Y-3432000D01*
X10355000Y-3932000D02*
X10355000Y-3432000D01*
X12355000Y-3932000D02*
X12355000Y-3432000D01*
X14355000Y-3932000D02*
X14355000Y-3432000D01*
X18355000Y-3432000D02*
X18355000Y-3932000D01*
X14355000Y-3433000D02*
X14355000Y-2933000D01*
X12355000Y-3433000D02*
X14355000Y-3433000D01*
X12355000Y-3433000D02*
X12355000Y-2933000D01*
X10355000Y-3433000D02*
X12355000Y-3433000D01*
X10355000Y-3433000D02*
X10355000Y-2933000D01*
X8355000Y-3433000D02*
X10355000Y-3433000D01*
X8355000Y-2933000D02*
X8355000Y-3433000D01*
X5355000Y-3433000D02*
X8355000Y-3433000D01*
X5355000Y-3432000D02*
X5355000Y-3932000D01*
X5355000Y-2933000D02*
X5355000Y-3433000D01*
X5355000Y-2933000D02*
X5355000Y-3433000D01*
X8355000Y-2933000D02*
X8355000Y-3433000D01*
X10355000Y-2933000D02*
X10355000Y-3433000D01*
X12355000Y-2933000D02*
X12355000Y-3433000D01*
X14355000Y-2933000D02*
X14355000Y-3433000D01*
X18355000Y-2933000D02*
X18355000Y-3433000D01*
X14355000Y-2933000D02*
X18355000Y-2933000D01*
X18355000Y-2933000D02*
X18355000Y-3433000D01*
X14355000Y-2933000D02*
X18355000Y-2933000D01*
X14355000Y-2933000D02*
X14355000Y-3433000D01*
X12355000Y-2933000D02*
X14355000Y-2933000D01*
X10355000Y-2933000D02*
X10355000Y-3433000D01*
X12355000Y-2933000D02*
X12355000Y-3433000D01*
X5355000Y-2933000D02*
X5355000Y-3433000D01*
X8355000Y-2933000D02*
X8355000Y-3433000D01*
X5355000Y-2933000D02*
X8355000Y-2933000D01*
X8355000Y-2933000D02*
X10355000Y-2933000D01*
X12355000Y-2933000D02*
X10355000Y-2933000D01*
X14355000Y-2933000D02*
X18355000Y-2933000D01*
X12355000Y-3433000D02*
X14355000Y-3433000D01*
X10355000Y-3433000D02*
X12355000Y-3433000D01*
X10355000Y-3433000D02*
X8355000Y-3433000D01*
X5355000Y-3433000D02*
X8355000Y-3433000D01*
X14355000Y-2933000D02*
X18355000Y-2933000D01*
X14355000Y-2433000D02*
X18355000Y-2433000D01*
X12355000Y-2433000D02*
X14355000Y-2433000D01*
X10355000Y-2433000D02*
X12355000Y-2433000D01*
X10355000Y-2433000D02*
X8355000Y-2433000D01*
X5355000Y-2433000D02*
X8355000Y-2433000D01*
X18355000Y-1933000D02*
X18355000Y-2433000D01*
X14355000Y-1933000D02*
X18355000Y-1933000D01*
X14355000Y-1933000D02*
X14355000Y-2433000D01*
X12355000Y-1933000D02*
X14355000Y-1933000D01*
X10355000Y-1933000D02*
X10355000Y-2433000D01*
X12355000Y-1933000D02*
X12355000Y-2433000D01*
X5355000Y-1933000D02*
X5355000Y-2433000D01*
X8355000Y-1933000D02*
X8355000Y-2433000D01*
X5355000Y-1933000D02*
X8355000Y-1933000D01*
X8355000Y-1933000D02*
X10355000Y-1933000D01*
X12355000Y-1933000D02*
X10355000Y-1933000D01*
X12355000Y-1933000D02*
X10355000Y-1933000D01*
X8355000Y-1933000D02*
X10355000Y-1933000D01*
X5355000Y-1933000D02*
X8355000Y-1933000D01*
X8355000Y-1933000D02*
X8355000Y-2433000D01*
X5355000Y-1933000D02*
X5355000Y-2433000D01*
X12355000Y-1933000D02*
X12355000Y-2433000D01*
X10355000Y-1933000D02*
X10355000Y-2433000D01*
X12355000Y-1933000D02*
X14355000Y-1933000D01*
X14355000Y-1933000D02*
X14355000Y-2433000D01*
X14355000Y-1933000D02*
X18355000Y-1933000D01*
X18355000Y-1933000D02*
X18355000Y-2433000D01*
X5355000Y-2433000D02*
X8355000Y-2433000D01*
X10355000Y-2433000D02*
X8355000Y-2433000D01*
X10355000Y-2433000D02*
X12355000Y-2433000D01*
X12355000Y-2433000D02*
X14355000Y-2433000D01*
X14355000Y-2433000D02*
X18355000Y-2433000D01*
X14355000Y-2433000D02*
X18355000Y-2433000D01*
X12355000Y-2433000D02*
X14355000Y-2433000D01*
X10355000Y-2433000D02*
X12355000Y-2433000D01*
X10355000Y-2433000D02*
X8355000Y-2433000D01*
X5355000Y-2433000D02*
X8355000Y-2433000D01*
X18355000Y-1933000D02*
X18355000Y-2433000D01*
X14355000Y-1933000D02*
X18355000Y-1933000D01*
X14355000Y-1933000D02*
X14355000Y-2433000D01*
X12355000Y-1933000D02*
X14355000Y-1933000D01*
X10355000Y-1933000D02*
X10355000Y-2433000D01*
X12355000Y-1933000D02*
X12355000Y-2433000D01*
X5355000Y-1933000D02*
X5355000Y-2433000D01*
X8355000Y-1933000D02*
X8355000Y-2433000D01*
X5355000Y-1933000D02*
X8355000Y-1933000D01*
X8355000Y-1933000D02*
X10355000Y-1933000D01*
X12355000Y-1933000D02*
X10355000Y-1933000D01*
X5126000Y-2140000D02*
X4926000Y-2140000D01*
X4726000Y-2140000D02*
X4526000Y-2140000D01*
X4326000Y-2140000D02*
X4126000Y-2140000D01*
X3926000Y-2140000D02*
X3726000Y-2140000D01*
X3526000Y-2140000D02*
X3326000Y-2140000D01*
X3126000Y-2140000D02*
X2926000Y-2140000D01*
X2726000Y-2140000D02*
X2526000Y-2140000D01*
X2326000Y-2140000D02*
X2126000Y-2140000D01*
X1926000Y-2140000D02*
X1726000Y-2140000D01*
G04 #@! TD*
G04 #@! TO.C,J4*
D15*
X16437619Y-9434429D02*
X16387619Y-9434429D01*
X16387619Y-9415381D01*
X16390000Y-9410619D01*
X16392381Y-9408238D01*
X16397143Y-9405857D01*
X16404286Y-9405857D01*
X16409048Y-9408238D01*
X16411428Y-9410619D01*
X16413809Y-9415381D01*
X16413809Y-9434429D01*
X16432857Y-9355857D02*
X16435238Y-9358238D01*
X16437619Y-9365381D01*
X16437619Y-9370143D01*
X16435238Y-9377286D01*
X16430476Y-9382048D01*
X16425714Y-9384429D01*
X16416190Y-9386810D01*
X16409048Y-9386810D01*
X16399524Y-9384429D01*
X16394762Y-9382048D01*
X16390000Y-9377286D01*
X16387619Y-9370143D01*
X16387619Y-9365381D01*
X16390000Y-9358238D01*
X16392381Y-9355857D01*
X16411428Y-9317762D02*
X16413809Y-9310619D01*
X16416190Y-9308238D01*
X16420952Y-9305857D01*
X16428095Y-9305857D01*
X16432857Y-9308238D01*
X16435238Y-9310619D01*
X16437619Y-9315381D01*
X16437619Y-9334429D01*
X16387619Y-9334429D01*
X16387619Y-9317762D01*
X16390000Y-9313000D01*
X16392381Y-9310619D01*
X16397143Y-9308238D01*
X16401905Y-9308238D01*
X16406667Y-9310619D01*
X16409048Y-9313000D01*
X16411428Y-9317762D01*
X16411428Y-9334429D01*
X16411428Y-9246333D02*
X16411428Y-9229667D01*
X16437619Y-9222524D02*
X16437619Y-9246333D01*
X16387619Y-9246333D01*
X16387619Y-9222524D01*
X16437619Y-9179667D02*
X16387619Y-9179667D01*
X16435238Y-9179667D02*
X16437619Y-9184429D01*
X16437619Y-9193952D01*
X16435238Y-9198714D01*
X16432857Y-9201095D01*
X16428095Y-9203476D01*
X16413809Y-9203476D01*
X16409048Y-9201095D01*
X16406667Y-9198714D01*
X16404286Y-9193952D01*
X16404286Y-9184429D01*
X16406667Y-9179667D01*
X16404286Y-9134429D02*
X16444762Y-9134429D01*
X16449524Y-9136810D01*
X16451905Y-9139190D01*
X16454286Y-9143952D01*
X16454286Y-9151095D01*
X16451905Y-9155857D01*
X16435238Y-9134429D02*
X16437619Y-9139190D01*
X16437619Y-9148714D01*
X16435238Y-9153476D01*
X16432857Y-9155857D01*
X16428095Y-9158238D01*
X16413809Y-9158238D01*
X16409048Y-9155857D01*
X16406667Y-9153476D01*
X16404286Y-9148714D01*
X16404286Y-9139190D01*
X16406667Y-9134429D01*
X16435238Y-9091571D02*
X16437619Y-9096333D01*
X16437619Y-9105857D01*
X16435238Y-9110619D01*
X16430476Y-9113000D01*
X16411428Y-9113000D01*
X16406667Y-9110619D01*
X16404286Y-9105857D01*
X16404286Y-9096333D01*
X16406667Y-9091571D01*
X16411428Y-9089190D01*
X16416190Y-9089190D01*
X16420952Y-9113000D01*
G04 #@! TO.C,LOGO1*
D10*
X13250238Y-2628238D02*
X13312143Y-2628238D01*
X13278809Y-2666333D01*
X13293095Y-2666333D01*
X13302619Y-2671095D01*
X13307381Y-2675857D01*
X13312143Y-2685381D01*
X13312143Y-2709190D01*
X13307381Y-2718714D01*
X13302619Y-2723476D01*
X13293095Y-2728238D01*
X13264524Y-2728238D01*
X13255000Y-2723476D01*
X13250238Y-2718714D01*
X13355000Y-2718714D02*
X13359762Y-2723476D01*
X13355000Y-2728238D01*
X13350238Y-2723476D01*
X13355000Y-2718714D01*
X13355000Y-2728238D01*
X13416905Y-2671095D02*
X13407381Y-2666333D01*
X13402619Y-2661571D01*
X13397857Y-2652048D01*
X13397857Y-2647286D01*
X13402619Y-2637762D01*
X13407381Y-2633000D01*
X13416905Y-2628238D01*
X13435952Y-2628238D01*
X13445476Y-2633000D01*
X13450238Y-2637762D01*
X13455000Y-2647286D01*
X13455000Y-2652048D01*
X13450238Y-2661571D01*
X13445476Y-2666333D01*
X13435952Y-2671095D01*
X13416905Y-2671095D01*
X13407381Y-2675857D01*
X13402619Y-2680619D01*
X13397857Y-2690143D01*
X13397857Y-2709190D01*
X13402619Y-2718714D01*
X13407381Y-2723476D01*
X13416905Y-2728238D01*
X13435952Y-2728238D01*
X13445476Y-2723476D01*
X13450238Y-2718714D01*
X13455000Y-2709190D01*
X13455000Y-2690143D01*
X13450238Y-2680619D01*
X13445476Y-2675857D01*
X13435952Y-2671095D01*
X13250238Y-5627238D02*
X13312143Y-5627238D01*
X13278809Y-5665333D01*
X13293095Y-5665333D01*
X13302619Y-5670095D01*
X13307381Y-5674857D01*
X13312143Y-5684381D01*
X13312143Y-5708190D01*
X13307381Y-5717714D01*
X13302619Y-5722476D01*
X13293095Y-5727238D01*
X13264524Y-5727238D01*
X13255000Y-5722476D01*
X13250238Y-5717714D01*
X13355000Y-5717714D02*
X13359762Y-5722476D01*
X13355000Y-5727238D01*
X13350238Y-5722476D01*
X13355000Y-5717714D01*
X13355000Y-5727238D01*
X13416905Y-5670095D02*
X13407381Y-5665333D01*
X13402619Y-5660571D01*
X13397857Y-5651048D01*
X13397857Y-5646286D01*
X13402619Y-5636762D01*
X13407381Y-5632000D01*
X13416905Y-5627238D01*
X13435952Y-5627238D01*
X13445476Y-5632000D01*
X13450238Y-5636762D01*
X13455000Y-5646286D01*
X13455000Y-5651048D01*
X13450238Y-5660571D01*
X13445476Y-5665333D01*
X13435952Y-5670095D01*
X13416905Y-5670095D01*
X13407381Y-5674857D01*
X13402619Y-5679619D01*
X13397857Y-5689143D01*
X13397857Y-5708190D01*
X13402619Y-5717714D01*
X13407381Y-5722476D01*
X13416905Y-5727238D01*
X13435952Y-5727238D01*
X13445476Y-5722476D01*
X13450238Y-5717714D01*
X13455000Y-5708190D01*
X13455000Y-5689143D01*
X13450238Y-5679619D01*
X13445476Y-5674857D01*
X13435952Y-5670095D01*
X1891036Y-7975238D02*
X1952940Y-7975238D01*
X1919607Y-8013333D01*
X1933893Y-8013333D01*
X1943417Y-8018095D01*
X1948178Y-8022857D01*
X1952940Y-8032381D01*
X1952940Y-8056190D01*
X1948178Y-8065714D01*
X1943417Y-8070476D01*
X1933893Y-8075238D01*
X1905321Y-8075238D01*
X1895798Y-8070476D01*
X1891036Y-8065714D01*
X1995798Y-8065714D02*
X2000559Y-8070476D01*
X1995798Y-8075238D01*
X1991036Y-8070476D01*
X1995798Y-8065714D01*
X1995798Y-8075238D01*
X2033893Y-8113333D02*
X2038655Y-8108571D01*
X2048178Y-8094286D01*
X2052940Y-8084762D01*
X2057702Y-8070476D01*
X2062464Y-8046667D01*
X2062464Y-8027619D01*
X2057702Y-8003809D01*
X2052940Y-7989524D01*
X2048178Y-7980000D01*
X2038655Y-7965714D01*
X2033893Y-7960952D01*
X2171988Y-7975238D02*
X2205321Y-8075238D01*
X2238655Y-7975238D01*
X2310083Y-8070476D02*
X2300560Y-8075238D01*
X2281512Y-8075238D01*
X2271988Y-8070476D01*
X2267226Y-8060952D01*
X2267226Y-8022857D01*
X2271988Y-8013333D01*
X2281512Y-8008571D01*
X2300560Y-8008571D01*
X2310083Y-8013333D01*
X2314845Y-8022857D01*
X2314845Y-8032381D01*
X2267226Y-8041905D01*
X2357702Y-8008571D02*
X2357702Y-8075238D01*
X2357702Y-8018095D02*
X2362464Y-8013333D01*
X2371988Y-8008571D01*
X2386274Y-8008571D01*
X2395798Y-8013333D01*
X2400560Y-8022857D01*
X2400560Y-8075238D01*
X2491036Y-8075238D02*
X2491036Y-7975238D01*
X2491036Y-8070476D02*
X2481512Y-8075238D01*
X2462464Y-8075238D01*
X2452940Y-8070476D01*
X2448179Y-8065714D01*
X2443417Y-8056190D01*
X2443417Y-8027619D01*
X2448179Y-8018095D01*
X2452940Y-8013333D01*
X2462464Y-8008571D01*
X2481512Y-8008571D01*
X2491036Y-8013333D01*
X2552940Y-8075238D02*
X2543417Y-8070476D01*
X2538655Y-8065714D01*
X2533893Y-8056190D01*
X2533893Y-8027619D01*
X2538655Y-8018095D01*
X2543417Y-8013333D01*
X2552940Y-8008571D01*
X2567226Y-8008571D01*
X2576750Y-8013333D01*
X2581512Y-8018095D01*
X2586274Y-8027619D01*
X2586274Y-8056190D01*
X2581512Y-8065714D01*
X2576750Y-8070476D01*
X2567226Y-8075238D01*
X2552940Y-8075238D01*
X2629131Y-8075238D02*
X2629131Y-8008571D01*
X2629131Y-8027619D02*
X2633893Y-8018095D01*
X2638655Y-8013333D01*
X2648179Y-8008571D01*
X2657702Y-8008571D01*
X2752940Y-8008571D02*
X2791036Y-8008571D01*
X2767226Y-7975238D02*
X2767226Y-8060952D01*
X2771988Y-8070476D01*
X2781512Y-8075238D01*
X2791036Y-8075238D01*
X2838655Y-8075238D02*
X2829131Y-8070476D01*
X2824369Y-8065714D01*
X2819607Y-8056190D01*
X2819607Y-8027619D01*
X2824369Y-8018095D01*
X2829131Y-8013333D01*
X2838655Y-8008571D01*
X2852940Y-8008571D01*
X2862464Y-8013333D01*
X2867226Y-8018095D01*
X2871988Y-8027619D01*
X2871988Y-8056190D01*
X2867226Y-8065714D01*
X2862464Y-8070476D01*
X2852940Y-8075238D01*
X2838655Y-8075238D01*
X2991036Y-8008571D02*
X2991036Y-8108571D01*
X2991036Y-8013333D02*
X3000559Y-8008571D01*
X3019607Y-8008571D01*
X3029131Y-8013333D01*
X3033893Y-8018095D01*
X3038655Y-8027619D01*
X3038655Y-8056190D01*
X3033893Y-8065714D01*
X3029131Y-8070476D01*
X3019607Y-8075238D01*
X3000559Y-8075238D01*
X2991036Y-8070476D01*
X3095798Y-8075238D02*
X3086274Y-8070476D01*
X3081512Y-8060952D01*
X3081512Y-7975238D01*
X3176750Y-8075238D02*
X3176750Y-8022857D01*
X3171988Y-8013333D01*
X3162464Y-8008571D01*
X3143417Y-8008571D01*
X3133893Y-8013333D01*
X3176750Y-8070476D02*
X3167226Y-8075238D01*
X3143417Y-8075238D01*
X3133893Y-8070476D01*
X3129131Y-8060952D01*
X3129131Y-8051428D01*
X3133893Y-8041905D01*
X3143417Y-8037143D01*
X3167226Y-8037143D01*
X3176750Y-8032381D01*
X3210083Y-8008571D02*
X3248178Y-8008571D01*
X3224369Y-7975238D02*
X3224369Y-8060952D01*
X3229131Y-8070476D01*
X3238655Y-8075238D01*
X3248178Y-8075238D01*
X3319607Y-8070476D02*
X3310083Y-8075238D01*
X3291036Y-8075238D01*
X3281512Y-8070476D01*
X3276750Y-8060952D01*
X3276750Y-8022857D01*
X3281512Y-8013333D01*
X3291036Y-8008571D01*
X3310083Y-8008571D01*
X3319607Y-8013333D01*
X3324369Y-8022857D01*
X3324369Y-8032381D01*
X3276750Y-8041905D01*
X3443417Y-8075238D02*
X3443417Y-7975238D01*
X3486274Y-8075238D02*
X3486274Y-8022857D01*
X3481512Y-8013333D01*
X3471988Y-8008571D01*
X3457702Y-8008571D01*
X3448178Y-8013333D01*
X3443417Y-8018095D01*
X3548178Y-8075238D02*
X3538655Y-8070476D01*
X3533893Y-8065714D01*
X3529131Y-8056190D01*
X3529131Y-8027619D01*
X3533893Y-8018095D01*
X3538655Y-8013333D01*
X3548178Y-8008571D01*
X3562464Y-8008571D01*
X3571988Y-8013333D01*
X3576750Y-8018095D01*
X3581512Y-8027619D01*
X3581512Y-8056190D01*
X3576750Y-8065714D01*
X3571988Y-8070476D01*
X3562464Y-8075238D01*
X3548178Y-8075238D01*
X3638655Y-8075238D02*
X3629131Y-8070476D01*
X3624369Y-8060952D01*
X3624369Y-7975238D01*
X3714845Y-8070476D02*
X3705321Y-8075238D01*
X3686274Y-8075238D01*
X3676750Y-8070476D01*
X3671988Y-8060952D01*
X3671988Y-8022857D01*
X3676750Y-8013333D01*
X3686274Y-8008571D01*
X3705321Y-8008571D01*
X3714845Y-8013333D01*
X3719607Y-8022857D01*
X3719607Y-8032381D01*
X3671988Y-8041905D01*
X3757702Y-8070476D02*
X3767226Y-8075238D01*
X3786274Y-8075238D01*
X3795798Y-8070476D01*
X3800559Y-8060952D01*
X3800559Y-8056190D01*
X3795798Y-8046667D01*
X3786274Y-8041905D01*
X3771988Y-8041905D01*
X3762464Y-8037143D01*
X3757702Y-8027619D01*
X3757702Y-8022857D01*
X3762464Y-8013333D01*
X3771988Y-8008571D01*
X3786274Y-8008571D01*
X3795798Y-8013333D01*
X3962464Y-8075238D02*
X3962464Y-8022857D01*
X3957702Y-8013333D01*
X3948178Y-8008571D01*
X3929131Y-8008571D01*
X3919607Y-8013333D01*
X3962464Y-8070476D02*
X3952940Y-8075238D01*
X3929131Y-8075238D01*
X3919607Y-8070476D01*
X3914845Y-8060952D01*
X3914845Y-8051428D01*
X3919607Y-8041905D01*
X3929131Y-8037143D01*
X3952940Y-8037143D01*
X3962464Y-8032381D01*
X4010083Y-8008571D02*
X4010083Y-8075238D01*
X4010083Y-8018095D02*
X4014845Y-8013333D01*
X4024369Y-8008571D01*
X4038655Y-8008571D01*
X4048178Y-8013333D01*
X4052940Y-8022857D01*
X4052940Y-8075238D01*
X4143417Y-8075238D02*
X4143417Y-7975238D01*
X4143417Y-8070476D02*
X4133893Y-8075238D01*
X4114845Y-8075238D01*
X4105321Y-8070476D01*
X4100559Y-8065714D01*
X4095798Y-8056190D01*
X4095798Y-8027619D01*
X4100559Y-8018095D01*
X4105321Y-8013333D01*
X4114845Y-8008571D01*
X4133893Y-8008571D01*
X4143417Y-8013333D01*
X4305321Y-8070476D02*
X4295798Y-8075238D01*
X4276750Y-8075238D01*
X4267226Y-8070476D01*
X4262464Y-8060952D01*
X4262464Y-8022857D01*
X4267226Y-8013333D01*
X4276750Y-8008571D01*
X4295798Y-8008571D01*
X4305321Y-8013333D01*
X4310083Y-8022857D01*
X4310083Y-8032381D01*
X4262464Y-8041905D01*
X4343417Y-8075238D02*
X4395798Y-8008571D01*
X4343417Y-8008571D02*
X4395798Y-8075238D01*
X4433893Y-8008571D02*
X4433893Y-8108571D01*
X4433893Y-8013333D02*
X4443417Y-8008571D01*
X4462464Y-8008571D01*
X4471988Y-8013333D01*
X4476750Y-8018095D01*
X4481512Y-8027619D01*
X4481512Y-8056190D01*
X4476750Y-8065714D01*
X4471988Y-8070476D01*
X4462464Y-8075238D01*
X4443417Y-8075238D01*
X4433893Y-8070476D01*
X4538655Y-8075238D02*
X4529131Y-8070476D01*
X4524369Y-8065714D01*
X4519607Y-8056190D01*
X4519607Y-8027619D01*
X4524369Y-8018095D01*
X4529131Y-8013333D01*
X4538655Y-8008571D01*
X4552940Y-8008571D01*
X4562464Y-8013333D01*
X4567226Y-8018095D01*
X4571988Y-8027619D01*
X4571988Y-8056190D01*
X4567226Y-8065714D01*
X4562464Y-8070476D01*
X4552940Y-8075238D01*
X4538655Y-8075238D01*
X4610083Y-8070476D02*
X4619607Y-8075238D01*
X4638655Y-8075238D01*
X4648179Y-8070476D01*
X4652940Y-8060952D01*
X4652940Y-8056190D01*
X4648179Y-8046667D01*
X4638655Y-8041905D01*
X4624369Y-8041905D01*
X4614845Y-8037143D01*
X4610083Y-8027619D01*
X4610083Y-8022857D01*
X4614845Y-8013333D01*
X4624369Y-8008571D01*
X4638655Y-8008571D01*
X4648179Y-8013333D01*
X4733893Y-8070476D02*
X4724369Y-8075238D01*
X4705321Y-8075238D01*
X4695798Y-8070476D01*
X4691036Y-8060952D01*
X4691036Y-8022857D01*
X4695798Y-8013333D01*
X4705321Y-8008571D01*
X4724369Y-8008571D01*
X4733893Y-8013333D01*
X4738655Y-8022857D01*
X4738655Y-8032381D01*
X4691036Y-8041905D01*
X4824369Y-8075238D02*
X4824369Y-7975238D01*
X4824369Y-8070476D02*
X4814845Y-8075238D01*
X4795798Y-8075238D01*
X4786274Y-8070476D01*
X4781512Y-8065714D01*
X4776750Y-8056190D01*
X4776750Y-8027619D01*
X4781512Y-8018095D01*
X4786274Y-8013333D01*
X4795798Y-8008571D01*
X4814845Y-8008571D01*
X4824369Y-8013333D01*
X4991036Y-8070476D02*
X4981512Y-8075238D01*
X4962464Y-8075238D01*
X4952940Y-8070476D01*
X4948179Y-8065714D01*
X4943417Y-8056190D01*
X4943417Y-8027619D01*
X4948179Y-8018095D01*
X4952940Y-8013333D01*
X4962464Y-8008571D01*
X4981512Y-8008571D01*
X4991036Y-8013333D01*
X5048179Y-8075238D02*
X5038655Y-8070476D01*
X5033893Y-8065714D01*
X5029131Y-8056190D01*
X5029131Y-8027619D01*
X5033893Y-8018095D01*
X5038655Y-8013333D01*
X5048179Y-8008571D01*
X5062464Y-8008571D01*
X5071988Y-8013333D01*
X5076750Y-8018095D01*
X5081512Y-8027619D01*
X5081512Y-8056190D01*
X5076750Y-8065714D01*
X5071988Y-8070476D01*
X5062464Y-8075238D01*
X5048179Y-8075238D01*
X5124369Y-8008571D02*
X5124369Y-8108571D01*
X5124369Y-8013333D02*
X5133893Y-8008571D01*
X5152940Y-8008571D01*
X5162464Y-8013333D01*
X5167226Y-8018095D01*
X5171988Y-8027619D01*
X5171988Y-8056190D01*
X5167226Y-8065714D01*
X5162464Y-8070476D01*
X5152940Y-8075238D01*
X5133893Y-8075238D01*
X5124369Y-8070476D01*
X5214845Y-8008571D02*
X5214845Y-8108571D01*
X5214845Y-8013333D02*
X5224369Y-8008571D01*
X5243417Y-8008571D01*
X5252940Y-8013333D01*
X5257702Y-8018095D01*
X5262464Y-8027619D01*
X5262464Y-8056190D01*
X5257702Y-8065714D01*
X5252940Y-8070476D01*
X5243417Y-8075238D01*
X5224369Y-8075238D01*
X5214845Y-8070476D01*
X5343417Y-8070476D02*
X5333893Y-8075238D01*
X5314845Y-8075238D01*
X5305321Y-8070476D01*
X5300560Y-8060952D01*
X5300560Y-8022857D01*
X5305321Y-8013333D01*
X5314845Y-8008571D01*
X5333893Y-8008571D01*
X5343417Y-8013333D01*
X5348179Y-8022857D01*
X5348179Y-8032381D01*
X5300560Y-8041905D01*
X5391036Y-8075238D02*
X5391036Y-8008571D01*
X5391036Y-8027619D02*
X5395798Y-8018095D01*
X5400560Y-8013333D01*
X5410083Y-8008571D01*
X5419607Y-8008571D01*
X5529131Y-8008571D02*
X5529131Y-8108571D01*
X5529131Y-8013333D02*
X5538655Y-8008571D01*
X5557702Y-8008571D01*
X5567226Y-8013333D01*
X5571988Y-8018095D01*
X5576750Y-8027619D01*
X5576750Y-8056190D01*
X5571988Y-8065714D01*
X5567226Y-8070476D01*
X5557702Y-8075238D01*
X5538655Y-8075238D01*
X5529131Y-8070476D01*
X5662464Y-8075238D02*
X5662464Y-8022857D01*
X5657702Y-8013333D01*
X5648178Y-8008571D01*
X5629131Y-8008571D01*
X5619607Y-8013333D01*
X5662464Y-8070476D02*
X5652940Y-8075238D01*
X5629131Y-8075238D01*
X5619607Y-8070476D01*
X5614845Y-8060952D01*
X5614845Y-8051428D01*
X5619607Y-8041905D01*
X5629131Y-8037143D01*
X5652940Y-8037143D01*
X5662464Y-8032381D01*
X5752940Y-8075238D02*
X5752940Y-7975238D01*
X5752940Y-8070476D02*
X5743417Y-8075238D01*
X5724369Y-8075238D01*
X5714845Y-8070476D01*
X5710083Y-8065714D01*
X5705321Y-8056190D01*
X5705321Y-8027619D01*
X5710083Y-8018095D01*
X5714845Y-8013333D01*
X5724369Y-8008571D01*
X5743417Y-8008571D01*
X5752940Y-8013333D01*
X5795798Y-8070476D02*
X5805321Y-8075238D01*
X5824369Y-8075238D01*
X5833893Y-8070476D01*
X5838655Y-8060952D01*
X5838655Y-8056190D01*
X5833893Y-8046667D01*
X5824369Y-8041905D01*
X5810083Y-8041905D01*
X5800559Y-8037143D01*
X5795798Y-8027619D01*
X5795798Y-8022857D01*
X5800559Y-8013333D01*
X5810083Y-8008571D01*
X5824369Y-8008571D01*
X5833893Y-8013333D01*
X1895798Y-7734762D02*
X1900559Y-7730000D01*
X1910083Y-7725238D01*
X1933893Y-7725238D01*
X1943417Y-7730000D01*
X1948178Y-7734762D01*
X1952940Y-7744286D01*
X1952940Y-7753809D01*
X1948178Y-7768095D01*
X1891036Y-7825238D01*
X1952940Y-7825238D01*
X1995798Y-7815714D02*
X2000559Y-7820476D01*
X1995798Y-7825238D01*
X1991036Y-7820476D01*
X1995798Y-7815714D01*
X1995798Y-7825238D01*
X2033893Y-7863333D02*
X2038655Y-7858571D01*
X2048178Y-7844286D01*
X2052940Y-7834762D01*
X2057702Y-7820476D01*
X2062464Y-7796667D01*
X2062464Y-7777619D01*
X2057702Y-7753809D01*
X2052940Y-7739524D01*
X2048178Y-7730000D01*
X2038655Y-7715714D01*
X2033893Y-7710952D01*
X2219607Y-7772857D02*
X2233893Y-7777619D01*
X2238655Y-7782381D01*
X2243417Y-7791905D01*
X2243417Y-7806190D01*
X2238655Y-7815714D01*
X2233893Y-7820476D01*
X2224369Y-7825238D01*
X2186274Y-7825238D01*
X2186274Y-7725238D01*
X2219607Y-7725238D01*
X2229131Y-7730000D01*
X2233893Y-7734762D01*
X2238655Y-7744286D01*
X2238655Y-7753809D01*
X2233893Y-7763333D01*
X2229131Y-7768095D01*
X2219607Y-7772857D01*
X2186274Y-7772857D01*
X2300560Y-7825238D02*
X2291036Y-7820476D01*
X2286274Y-7815714D01*
X2281512Y-7806190D01*
X2281512Y-7777619D01*
X2286274Y-7768095D01*
X2291036Y-7763333D01*
X2300560Y-7758571D01*
X2314845Y-7758571D01*
X2324369Y-7763333D01*
X2329131Y-7768095D01*
X2333893Y-7777619D01*
X2333893Y-7806190D01*
X2329131Y-7815714D01*
X2324369Y-7820476D01*
X2314845Y-7825238D01*
X2300560Y-7825238D01*
X2419607Y-7825238D02*
X2419607Y-7772857D01*
X2414845Y-7763333D01*
X2405321Y-7758571D01*
X2386274Y-7758571D01*
X2376750Y-7763333D01*
X2419607Y-7820476D02*
X2410083Y-7825238D01*
X2386274Y-7825238D01*
X2376750Y-7820476D01*
X2371988Y-7810952D01*
X2371988Y-7801428D01*
X2376750Y-7791905D01*
X2386274Y-7787143D01*
X2410083Y-7787143D01*
X2419607Y-7782381D01*
X2467226Y-7825238D02*
X2467226Y-7758571D01*
X2467226Y-7777619D02*
X2471988Y-7768095D01*
X2476750Y-7763333D01*
X2486274Y-7758571D01*
X2495798Y-7758571D01*
X2571988Y-7825238D02*
X2571988Y-7725238D01*
X2571988Y-7820476D02*
X2562464Y-7825238D01*
X2543417Y-7825238D01*
X2533893Y-7820476D01*
X2529131Y-7815714D01*
X2524369Y-7806190D01*
X2524369Y-7777619D01*
X2529131Y-7768095D01*
X2533893Y-7763333D01*
X2543417Y-7758571D01*
X2562464Y-7758571D01*
X2571988Y-7763333D01*
X2710083Y-7825238D02*
X2700560Y-7820476D01*
X2695798Y-7815714D01*
X2691036Y-7806190D01*
X2691036Y-7777619D01*
X2695798Y-7768095D01*
X2700560Y-7763333D01*
X2710083Y-7758571D01*
X2724369Y-7758571D01*
X2733893Y-7763333D01*
X2738655Y-7768095D01*
X2743417Y-7777619D01*
X2743417Y-7806190D01*
X2738655Y-7815714D01*
X2733893Y-7820476D01*
X2724369Y-7825238D01*
X2710083Y-7825238D01*
X2829131Y-7758571D02*
X2829131Y-7825238D01*
X2786274Y-7758571D02*
X2786274Y-7810952D01*
X2791036Y-7820476D01*
X2800559Y-7825238D01*
X2814845Y-7825238D01*
X2824369Y-7820476D01*
X2829131Y-7815714D01*
X2862464Y-7758571D02*
X2900559Y-7758571D01*
X2876750Y-7725238D02*
X2876750Y-7810952D01*
X2881512Y-7820476D01*
X2891036Y-7825238D01*
X2900559Y-7825238D01*
X2948178Y-7825238D02*
X2938655Y-7820476D01*
X2933893Y-7810952D01*
X2933893Y-7725238D01*
X2986274Y-7825238D02*
X2986274Y-7758571D01*
X2986274Y-7725238D02*
X2981512Y-7730000D01*
X2986274Y-7734762D01*
X2991036Y-7730000D01*
X2986274Y-7725238D01*
X2986274Y-7734762D01*
X3033893Y-7758571D02*
X3033893Y-7825238D01*
X3033893Y-7768095D02*
X3038655Y-7763333D01*
X3048178Y-7758571D01*
X3062464Y-7758571D01*
X3071988Y-7763333D01*
X3076750Y-7772857D01*
X3076750Y-7825238D01*
X3162464Y-7820476D02*
X3152940Y-7825238D01*
X3133893Y-7825238D01*
X3124369Y-7820476D01*
X3119607Y-7810952D01*
X3119607Y-7772857D01*
X3124369Y-7763333D01*
X3133893Y-7758571D01*
X3152940Y-7758571D01*
X3162464Y-7763333D01*
X3167226Y-7772857D01*
X3167226Y-7782381D01*
X3119607Y-7791905D01*
X3286274Y-7825238D02*
X3286274Y-7758571D01*
X3286274Y-7725238D02*
X3281512Y-7730000D01*
X3286274Y-7734762D01*
X3291036Y-7730000D01*
X3286274Y-7725238D01*
X3286274Y-7734762D01*
X3333893Y-7758571D02*
X3333893Y-7825238D01*
X3333893Y-7768095D02*
X3338655Y-7763333D01*
X3348178Y-7758571D01*
X3362464Y-7758571D01*
X3371988Y-7763333D01*
X3376750Y-7772857D01*
X3376750Y-7825238D01*
X3467226Y-7825238D02*
X3467226Y-7725238D01*
X3467226Y-7820476D02*
X3457702Y-7825238D01*
X3438655Y-7825238D01*
X3429131Y-7820476D01*
X3424369Y-7815714D01*
X3419607Y-7806190D01*
X3419607Y-7777619D01*
X3424369Y-7768095D01*
X3429131Y-7763333D01*
X3438655Y-7758571D01*
X3457702Y-7758571D01*
X3467226Y-7763333D01*
X3514845Y-7825238D02*
X3514845Y-7758571D01*
X3514845Y-7725238D02*
X3510083Y-7730000D01*
X3514845Y-7734762D01*
X3519607Y-7730000D01*
X3514845Y-7725238D01*
X3514845Y-7734762D01*
X3605321Y-7820476D02*
X3595798Y-7825238D01*
X3576750Y-7825238D01*
X3567226Y-7820476D01*
X3562464Y-7815714D01*
X3557702Y-7806190D01*
X3557702Y-7777619D01*
X3562464Y-7768095D01*
X3567226Y-7763333D01*
X3576750Y-7758571D01*
X3595798Y-7758571D01*
X3605321Y-7763333D01*
X3691036Y-7825238D02*
X3691036Y-7772857D01*
X3686274Y-7763333D01*
X3676750Y-7758571D01*
X3657702Y-7758571D01*
X3648178Y-7763333D01*
X3691036Y-7820476D02*
X3681512Y-7825238D01*
X3657702Y-7825238D01*
X3648178Y-7820476D01*
X3643417Y-7810952D01*
X3643417Y-7801428D01*
X3648178Y-7791905D01*
X3657702Y-7787143D01*
X3681512Y-7787143D01*
X3691036Y-7782381D01*
X3724369Y-7758571D02*
X3762464Y-7758571D01*
X3738655Y-7725238D02*
X3738655Y-7810952D01*
X3743417Y-7820476D01*
X3752940Y-7825238D01*
X3762464Y-7825238D01*
X3833893Y-7820476D02*
X3824369Y-7825238D01*
X3805321Y-7825238D01*
X3795798Y-7820476D01*
X3791036Y-7810952D01*
X3791036Y-7772857D01*
X3795798Y-7763333D01*
X3805321Y-7758571D01*
X3824369Y-7758571D01*
X3833893Y-7763333D01*
X3838655Y-7772857D01*
X3838655Y-7782381D01*
X3791036Y-7791905D01*
X3924369Y-7825238D02*
X3924369Y-7725238D01*
X3924369Y-7820476D02*
X3914845Y-7825238D01*
X3895798Y-7825238D01*
X3886274Y-7820476D01*
X3881512Y-7815714D01*
X3876750Y-7806190D01*
X3876750Y-7777619D01*
X3881512Y-7768095D01*
X3886274Y-7763333D01*
X3895798Y-7758571D01*
X3914845Y-7758571D01*
X3924369Y-7763333D01*
X4048178Y-7825238D02*
X4048178Y-7758571D01*
X4048178Y-7725238D02*
X4043417Y-7730000D01*
X4048178Y-7734762D01*
X4052940Y-7730000D01*
X4048178Y-7725238D01*
X4048178Y-7734762D01*
X4095798Y-7758571D02*
X4095798Y-7825238D01*
X4095798Y-7768095D02*
X4100559Y-7763333D01*
X4110083Y-7758571D01*
X4124369Y-7758571D01*
X4133893Y-7763333D01*
X4138655Y-7772857D01*
X4138655Y-7825238D01*
X4257702Y-7820476D02*
X4267226Y-7825238D01*
X4286274Y-7825238D01*
X4295798Y-7820476D01*
X4300560Y-7810952D01*
X4300560Y-7806190D01*
X4295798Y-7796667D01*
X4286274Y-7791905D01*
X4271988Y-7791905D01*
X4262464Y-7787143D01*
X4257702Y-7777619D01*
X4257702Y-7772857D01*
X4262464Y-7763333D01*
X4271988Y-7758571D01*
X4286274Y-7758571D01*
X4295798Y-7763333D01*
X4381512Y-7820476D02*
X4371988Y-7825238D01*
X4352940Y-7825238D01*
X4343417Y-7820476D01*
X4338655Y-7810952D01*
X4338655Y-7772857D01*
X4343417Y-7763333D01*
X4352940Y-7758571D01*
X4371988Y-7758571D01*
X4381512Y-7763333D01*
X4386274Y-7772857D01*
X4386274Y-7782381D01*
X4338655Y-7791905D01*
X4429131Y-7758571D02*
X4429131Y-7858571D01*
X4429131Y-7763333D02*
X4438655Y-7758571D01*
X4457702Y-7758571D01*
X4467226Y-7763333D01*
X4471988Y-7768095D01*
X4476750Y-7777619D01*
X4476750Y-7806190D01*
X4471988Y-7815714D01*
X4467226Y-7820476D01*
X4457702Y-7825238D01*
X4438655Y-7825238D01*
X4429131Y-7820476D01*
X4562464Y-7825238D02*
X4562464Y-7772857D01*
X4557702Y-7763333D01*
X4548179Y-7758571D01*
X4529131Y-7758571D01*
X4519607Y-7763333D01*
X4562464Y-7820476D02*
X4552940Y-7825238D01*
X4529131Y-7825238D01*
X4519607Y-7820476D01*
X4514845Y-7810952D01*
X4514845Y-7801428D01*
X4519607Y-7791905D01*
X4529131Y-7787143D01*
X4552940Y-7787143D01*
X4562464Y-7782381D01*
X4610083Y-7825238D02*
X4610083Y-7758571D01*
X4610083Y-7777619D02*
X4614845Y-7768095D01*
X4619607Y-7763333D01*
X4629131Y-7758571D01*
X4638655Y-7758571D01*
X4714845Y-7825238D02*
X4714845Y-7772857D01*
X4710083Y-7763333D01*
X4700560Y-7758571D01*
X4681512Y-7758571D01*
X4671988Y-7763333D01*
X4714845Y-7820476D02*
X4705321Y-7825238D01*
X4681512Y-7825238D01*
X4671988Y-7820476D01*
X4667226Y-7810952D01*
X4667226Y-7801428D01*
X4671988Y-7791905D01*
X4681512Y-7787143D01*
X4705321Y-7787143D01*
X4714845Y-7782381D01*
X4748179Y-7758571D02*
X4786274Y-7758571D01*
X4762464Y-7725238D02*
X4762464Y-7810952D01*
X4767226Y-7820476D01*
X4776750Y-7825238D01*
X4786274Y-7825238D01*
X4857702Y-7820476D02*
X4848179Y-7825238D01*
X4829131Y-7825238D01*
X4819607Y-7820476D01*
X4814845Y-7810952D01*
X4814845Y-7772857D01*
X4819607Y-7763333D01*
X4829131Y-7758571D01*
X4848179Y-7758571D01*
X4857702Y-7763333D01*
X4862464Y-7772857D01*
X4862464Y-7782381D01*
X4814845Y-7791905D01*
X4981512Y-7772857D02*
X5014845Y-7772857D01*
X5029131Y-7825238D02*
X4981512Y-7825238D01*
X4981512Y-7725238D01*
X5029131Y-7725238D01*
X5114845Y-7825238D02*
X5114845Y-7725238D01*
X5114845Y-7820476D02*
X5105321Y-7825238D01*
X5086274Y-7825238D01*
X5076750Y-7820476D01*
X5071988Y-7815714D01*
X5067226Y-7806190D01*
X5067226Y-7777619D01*
X5071988Y-7768095D01*
X5076750Y-7763333D01*
X5086274Y-7758571D01*
X5105321Y-7758571D01*
X5114845Y-7763333D01*
X5205321Y-7758571D02*
X5205321Y-7839524D01*
X5200560Y-7849048D01*
X5195798Y-7853809D01*
X5186274Y-7858571D01*
X5171988Y-7858571D01*
X5162464Y-7853809D01*
X5205321Y-7820476D02*
X5195798Y-7825238D01*
X5176750Y-7825238D01*
X5167226Y-7820476D01*
X5162464Y-7815714D01*
X5157702Y-7806190D01*
X5157702Y-7777619D01*
X5162464Y-7768095D01*
X5167226Y-7763333D01*
X5176750Y-7758571D01*
X5195798Y-7758571D01*
X5205321Y-7763333D01*
X5291036Y-7820476D02*
X5281512Y-7825238D01*
X5262464Y-7825238D01*
X5252940Y-7820476D01*
X5248179Y-7810952D01*
X5248179Y-7772857D01*
X5252940Y-7763333D01*
X5262464Y-7758571D01*
X5281512Y-7758571D01*
X5291036Y-7763333D01*
X5295798Y-7772857D01*
X5295798Y-7782381D01*
X5248179Y-7791905D01*
X5338655Y-7815714D02*
X5343417Y-7820476D01*
X5338655Y-7825238D01*
X5333893Y-7820476D01*
X5338655Y-7815714D01*
X5338655Y-7825238D01*
X5443417Y-7815714D02*
X5438655Y-7820476D01*
X5424369Y-7825238D01*
X5414845Y-7825238D01*
X5400560Y-7820476D01*
X5391036Y-7810952D01*
X5386274Y-7801428D01*
X5381512Y-7782381D01*
X5381512Y-7768095D01*
X5386274Y-7749048D01*
X5391036Y-7739524D01*
X5400560Y-7730000D01*
X5414845Y-7725238D01*
X5424369Y-7725238D01*
X5438655Y-7730000D01*
X5443417Y-7734762D01*
X5529131Y-7758571D02*
X5529131Y-7825238D01*
X5486274Y-7758571D02*
X5486274Y-7810952D01*
X5491036Y-7820476D01*
X5500560Y-7825238D01*
X5514845Y-7825238D01*
X5524369Y-7820476D01*
X5529131Y-7815714D01*
X5562464Y-7758571D02*
X5600559Y-7758571D01*
X5576750Y-7725238D02*
X5576750Y-7810952D01*
X5581512Y-7820476D01*
X5591036Y-7825238D01*
X5600559Y-7825238D01*
X5629131Y-7820476D02*
X5638655Y-7825238D01*
X5657702Y-7825238D01*
X5667226Y-7820476D01*
X5671988Y-7810952D01*
X5671988Y-7806190D01*
X5667226Y-7796667D01*
X5657702Y-7791905D01*
X5643417Y-7791905D01*
X5633893Y-7787143D01*
X5629131Y-7777619D01*
X5629131Y-7772857D01*
X5633893Y-7763333D01*
X5643417Y-7758571D01*
X5657702Y-7758571D01*
X5667226Y-7763333D01*
X5776750Y-7758571D02*
X5814845Y-7758571D01*
X5791036Y-7825238D02*
X5791036Y-7739524D01*
X5795798Y-7730000D01*
X5805321Y-7725238D01*
X5814845Y-7725238D01*
X5848178Y-7825238D02*
X5848178Y-7758571D01*
X5848178Y-7725238D02*
X5843417Y-7730000D01*
X5848178Y-7734762D01*
X5852940Y-7730000D01*
X5848178Y-7725238D01*
X5848178Y-7734762D01*
X5910083Y-7825238D02*
X5900559Y-7820476D01*
X5895798Y-7810952D01*
X5895798Y-7725238D01*
X5986274Y-7820476D02*
X5976750Y-7825238D01*
X5957702Y-7825238D01*
X5948178Y-7820476D01*
X5943417Y-7810952D01*
X5943417Y-7772857D01*
X5948178Y-7763333D01*
X5957702Y-7758571D01*
X5976750Y-7758571D01*
X5986274Y-7763333D01*
X5991036Y-7772857D01*
X5991036Y-7782381D01*
X5943417Y-7791905D01*
X6038655Y-7820476D02*
X6038655Y-7825238D01*
X6033893Y-7834762D01*
X6029131Y-7839524D01*
X6157702Y-7825238D02*
X6157702Y-7758571D01*
X6157702Y-7725238D02*
X6152940Y-7730000D01*
X6157702Y-7734762D01*
X6162464Y-7730000D01*
X6157702Y-7725238D01*
X6157702Y-7734762D01*
X6205321Y-7758571D02*
X6205321Y-7825238D01*
X6205321Y-7768095D02*
X6210083Y-7763333D01*
X6219607Y-7758571D01*
X6233893Y-7758571D01*
X6243417Y-7763333D01*
X6248178Y-7772857D01*
X6248178Y-7825238D01*
X6338655Y-7820476D02*
X6329131Y-7825238D01*
X6310083Y-7825238D01*
X6300559Y-7820476D01*
X6295798Y-7815714D01*
X6291036Y-7806190D01*
X6291036Y-7777619D01*
X6295798Y-7768095D01*
X6300559Y-7763333D01*
X6310083Y-7758571D01*
X6329131Y-7758571D01*
X6338655Y-7763333D01*
X6395798Y-7825238D02*
X6386274Y-7820476D01*
X6381512Y-7810952D01*
X6381512Y-7725238D01*
X6476750Y-7758571D02*
X6476750Y-7825238D01*
X6433893Y-7758571D02*
X6433893Y-7810952D01*
X6438655Y-7820476D01*
X6448178Y-7825238D01*
X6462464Y-7825238D01*
X6471988Y-7820476D01*
X6476750Y-7815714D01*
X6567226Y-7825238D02*
X6567226Y-7725238D01*
X6567226Y-7820476D02*
X6557702Y-7825238D01*
X6538655Y-7825238D01*
X6529131Y-7820476D01*
X6524369Y-7815714D01*
X6519607Y-7806190D01*
X6519607Y-7777619D01*
X6524369Y-7768095D01*
X6529131Y-7763333D01*
X6538655Y-7758571D01*
X6557702Y-7758571D01*
X6567226Y-7763333D01*
X6652940Y-7820476D02*
X6643417Y-7825238D01*
X6624369Y-7825238D01*
X6614845Y-7820476D01*
X6610083Y-7810952D01*
X6610083Y-7772857D01*
X6614845Y-7763333D01*
X6624369Y-7758571D01*
X6643417Y-7758571D01*
X6652940Y-7763333D01*
X6657702Y-7772857D01*
X6657702Y-7782381D01*
X6610083Y-7791905D01*
X6743417Y-7825238D02*
X6743417Y-7725238D01*
X6743417Y-7820476D02*
X6733893Y-7825238D01*
X6714845Y-7825238D01*
X6705321Y-7820476D01*
X6700559Y-7815714D01*
X6695798Y-7806190D01*
X6695798Y-7777619D01*
X6700559Y-7768095D01*
X6705321Y-7763333D01*
X6714845Y-7758571D01*
X6733893Y-7758571D01*
X6743417Y-7763333D01*
X6857702Y-7758571D02*
X6876750Y-7825238D01*
X6895798Y-7777619D01*
X6914845Y-7825238D01*
X6933893Y-7758571D01*
X6971988Y-7825238D02*
X6971988Y-7758571D01*
X6971988Y-7725238D02*
X6967226Y-7730000D01*
X6971988Y-7734762D01*
X6976750Y-7730000D01*
X6971988Y-7725238D01*
X6971988Y-7734762D01*
X7005321Y-7758571D02*
X7043417Y-7758571D01*
X7019607Y-7725238D02*
X7019607Y-7810952D01*
X7024369Y-7820476D01*
X7033893Y-7825238D01*
X7043417Y-7825238D01*
X7076750Y-7825238D02*
X7076750Y-7725238D01*
X7119607Y-7825238D02*
X7119607Y-7772857D01*
X7114845Y-7763333D01*
X7105321Y-7758571D01*
X7091036Y-7758571D01*
X7081512Y-7763333D01*
X7076750Y-7768095D01*
X7229131Y-7758571D02*
X7267226Y-7758571D01*
X7243417Y-7725238D02*
X7243417Y-7810952D01*
X7248178Y-7820476D01*
X7257702Y-7825238D01*
X7267226Y-7825238D01*
X7300559Y-7825238D02*
X7300559Y-7725238D01*
X7343417Y-7825238D02*
X7343417Y-7772857D01*
X7338655Y-7763333D01*
X7329131Y-7758571D01*
X7314845Y-7758571D01*
X7305321Y-7763333D01*
X7300559Y-7768095D01*
X7429131Y-7820476D02*
X7419607Y-7825238D01*
X7400559Y-7825238D01*
X7391036Y-7820476D01*
X7386274Y-7810952D01*
X7386274Y-7772857D01*
X7391036Y-7763333D01*
X7400559Y-7758571D01*
X7419607Y-7758571D01*
X7429131Y-7763333D01*
X7433893Y-7772857D01*
X7433893Y-7782381D01*
X7386274Y-7791905D01*
X7595798Y-7758571D02*
X7595798Y-7839524D01*
X7591036Y-7849048D01*
X7586274Y-7853809D01*
X7576750Y-7858571D01*
X7562464Y-7858571D01*
X7552940Y-7853809D01*
X7595798Y-7820476D02*
X7586274Y-7825238D01*
X7567226Y-7825238D01*
X7557702Y-7820476D01*
X7552940Y-7815714D01*
X7548178Y-7806190D01*
X7548178Y-7777619D01*
X7552940Y-7768095D01*
X7557702Y-7763333D01*
X7567226Y-7758571D01*
X7586274Y-7758571D01*
X7595798Y-7763333D01*
X7681512Y-7820476D02*
X7671988Y-7825238D01*
X7652940Y-7825238D01*
X7643417Y-7820476D01*
X7638655Y-7810952D01*
X7638655Y-7772857D01*
X7643417Y-7763333D01*
X7652940Y-7758571D01*
X7671988Y-7758571D01*
X7681512Y-7763333D01*
X7686274Y-7772857D01*
X7686274Y-7782381D01*
X7638655Y-7791905D01*
X7729131Y-7825238D02*
X7729131Y-7758571D01*
X7729131Y-7777619D02*
X7733893Y-7768095D01*
X7738655Y-7763333D01*
X7748178Y-7758571D01*
X7757702Y-7758571D01*
X7791036Y-7825238D02*
X7791036Y-7725238D01*
X7791036Y-7763333D02*
X7800559Y-7758571D01*
X7819607Y-7758571D01*
X7829131Y-7763333D01*
X7833893Y-7768095D01*
X7838655Y-7777619D01*
X7838655Y-7806190D01*
X7833893Y-7815714D01*
X7829131Y-7820476D01*
X7819607Y-7825238D01*
X7800559Y-7825238D01*
X7791036Y-7820476D01*
X7919607Y-7820476D02*
X7910083Y-7825238D01*
X7891036Y-7825238D01*
X7881512Y-7820476D01*
X7876750Y-7810952D01*
X7876750Y-7772857D01*
X7881512Y-7763333D01*
X7891036Y-7758571D01*
X7910083Y-7758571D01*
X7919607Y-7763333D01*
X7924369Y-7772857D01*
X7924369Y-7782381D01*
X7876750Y-7791905D01*
X7967226Y-7825238D02*
X7967226Y-7758571D01*
X7967226Y-7777619D02*
X7971988Y-7768095D01*
X7976750Y-7763333D01*
X7986274Y-7758571D01*
X7995798Y-7758571D01*
X8105321Y-7758571D02*
X8105321Y-7858571D01*
X8105321Y-7763333D02*
X8114845Y-7758571D01*
X8133893Y-7758571D01*
X8143417Y-7763333D01*
X8148178Y-7768095D01*
X8152940Y-7777619D01*
X8152940Y-7806190D01*
X8148178Y-7815714D01*
X8143417Y-7820476D01*
X8133893Y-7825238D01*
X8114845Y-7825238D01*
X8105321Y-7820476D01*
X8238655Y-7825238D02*
X8238655Y-7772857D01*
X8233893Y-7763333D01*
X8224369Y-7758571D01*
X8205321Y-7758571D01*
X8195798Y-7763333D01*
X8238655Y-7820476D02*
X8229131Y-7825238D01*
X8205321Y-7825238D01*
X8195798Y-7820476D01*
X8191036Y-7810952D01*
X8191036Y-7801428D01*
X8195798Y-7791905D01*
X8205321Y-7787143D01*
X8229131Y-7787143D01*
X8238655Y-7782381D01*
X8329131Y-7820476D02*
X8319607Y-7825238D01*
X8300559Y-7825238D01*
X8291036Y-7820476D01*
X8286274Y-7815714D01*
X8281512Y-7806190D01*
X8281512Y-7777619D01*
X8286274Y-7768095D01*
X8291036Y-7763333D01*
X8300559Y-7758571D01*
X8319607Y-7758571D01*
X8329131Y-7763333D01*
X8371988Y-7825238D02*
X8371988Y-7725238D01*
X8381512Y-7787143D02*
X8410083Y-7825238D01*
X8410083Y-7758571D02*
X8371988Y-7796667D01*
X8495798Y-7825238D02*
X8495798Y-7772857D01*
X8491036Y-7763333D01*
X8481512Y-7758571D01*
X8462464Y-7758571D01*
X8452940Y-7763333D01*
X8495798Y-7820476D02*
X8486274Y-7825238D01*
X8462464Y-7825238D01*
X8452940Y-7820476D01*
X8448179Y-7810952D01*
X8448179Y-7801428D01*
X8452940Y-7791905D01*
X8462464Y-7787143D01*
X8486274Y-7787143D01*
X8495798Y-7782381D01*
X8586274Y-7758571D02*
X8586274Y-7839524D01*
X8581512Y-7849048D01*
X8576750Y-7853809D01*
X8567226Y-7858571D01*
X8552940Y-7858571D01*
X8543417Y-7853809D01*
X8586274Y-7820476D02*
X8576750Y-7825238D01*
X8557702Y-7825238D01*
X8548179Y-7820476D01*
X8543417Y-7815714D01*
X8538655Y-7806190D01*
X8538655Y-7777619D01*
X8543417Y-7768095D01*
X8548179Y-7763333D01*
X8557702Y-7758571D01*
X8576750Y-7758571D01*
X8586274Y-7763333D01*
X8671988Y-7820476D02*
X8662464Y-7825238D01*
X8643417Y-7825238D01*
X8633893Y-7820476D01*
X8629131Y-7810952D01*
X8629131Y-7772857D01*
X8633893Y-7763333D01*
X8643417Y-7758571D01*
X8662464Y-7758571D01*
X8671988Y-7763333D01*
X8676750Y-7772857D01*
X8676750Y-7782381D01*
X8629131Y-7791905D01*
X8719607Y-7815714D02*
X8724369Y-7820476D01*
X8719607Y-7825238D01*
X8714845Y-7820476D01*
X8719607Y-7815714D01*
X8719607Y-7825238D01*
X8829131Y-7725238D02*
X8886274Y-7725238D01*
X8857702Y-7825238D02*
X8857702Y-7725238D01*
X8919607Y-7825238D02*
X8919607Y-7725238D01*
X8962464Y-7825238D02*
X8962464Y-7772857D01*
X8957702Y-7763333D01*
X8948179Y-7758571D01*
X8933893Y-7758571D01*
X8924369Y-7763333D01*
X8919607Y-7768095D01*
X9052940Y-7825238D02*
X9052940Y-7772857D01*
X9048179Y-7763333D01*
X9038655Y-7758571D01*
X9019607Y-7758571D01*
X9010083Y-7763333D01*
X9052940Y-7820476D02*
X9043417Y-7825238D01*
X9019607Y-7825238D01*
X9010083Y-7820476D01*
X9005321Y-7810952D01*
X9005321Y-7801428D01*
X9010083Y-7791905D01*
X9019607Y-7787143D01*
X9043417Y-7787143D01*
X9052940Y-7782381D01*
X9086274Y-7758571D02*
X9124369Y-7758571D01*
X9100560Y-7725238D02*
X9100560Y-7810952D01*
X9105321Y-7820476D01*
X9114845Y-7825238D01*
X9124369Y-7825238D01*
X9219607Y-7758571D02*
X9257702Y-7758571D01*
X9233893Y-7825238D02*
X9233893Y-7739524D01*
X9238655Y-7730000D01*
X9248179Y-7725238D01*
X9257702Y-7725238D01*
X9291036Y-7825238D02*
X9291036Y-7758571D01*
X9291036Y-7725238D02*
X9286274Y-7730000D01*
X9291036Y-7734762D01*
X9295798Y-7730000D01*
X9291036Y-7725238D01*
X9291036Y-7734762D01*
X9352940Y-7825238D02*
X9343417Y-7820476D01*
X9338655Y-7810952D01*
X9338655Y-7725238D01*
X9429131Y-7820476D02*
X9419607Y-7825238D01*
X9400560Y-7825238D01*
X9391036Y-7820476D01*
X9386274Y-7810952D01*
X9386274Y-7772857D01*
X9391036Y-7763333D01*
X9400560Y-7758571D01*
X9419607Y-7758571D01*
X9429131Y-7763333D01*
X9433893Y-7772857D01*
X9433893Y-7782381D01*
X9386274Y-7791905D01*
X9538655Y-7758571D02*
X9576750Y-7758571D01*
X9552940Y-7725238D02*
X9552940Y-7810952D01*
X9557702Y-7820476D01*
X9567226Y-7825238D01*
X9576750Y-7825238D01*
X9652940Y-7825238D02*
X9652940Y-7772857D01*
X9648179Y-7763333D01*
X9638655Y-7758571D01*
X9619607Y-7758571D01*
X9610083Y-7763333D01*
X9652940Y-7820476D02*
X9643417Y-7825238D01*
X9619607Y-7825238D01*
X9610083Y-7820476D01*
X9605321Y-7810952D01*
X9605321Y-7801428D01*
X9610083Y-7791905D01*
X9619607Y-7787143D01*
X9643417Y-7787143D01*
X9652940Y-7782381D01*
X9700560Y-7825238D02*
X9700560Y-7725238D01*
X9710083Y-7787143D02*
X9738655Y-7825238D01*
X9738655Y-7758571D02*
X9700560Y-7796667D01*
X9819607Y-7820476D02*
X9810083Y-7825238D01*
X9791036Y-7825238D01*
X9781512Y-7820476D01*
X9776750Y-7810952D01*
X9776750Y-7772857D01*
X9781512Y-7763333D01*
X9791036Y-7758571D01*
X9810083Y-7758571D01*
X9819607Y-7763333D01*
X9824369Y-7772857D01*
X9824369Y-7782381D01*
X9776750Y-7791905D01*
X9862464Y-7820476D02*
X9871988Y-7825238D01*
X9891036Y-7825238D01*
X9900560Y-7820476D01*
X9905321Y-7810952D01*
X9905321Y-7806190D01*
X9900560Y-7796667D01*
X9891036Y-7791905D01*
X9876750Y-7791905D01*
X9867226Y-7787143D01*
X9862464Y-7777619D01*
X9862464Y-7772857D01*
X9867226Y-7763333D01*
X9876750Y-7758571D01*
X9891036Y-7758571D01*
X9900560Y-7763333D01*
X10024369Y-7758571D02*
X10024369Y-7858571D01*
X10024369Y-7763333D02*
X10033893Y-7758571D01*
X10052940Y-7758571D01*
X10062464Y-7763333D01*
X10067226Y-7768095D01*
X10071988Y-7777619D01*
X10071988Y-7806190D01*
X10067226Y-7815714D01*
X10062464Y-7820476D01*
X10052940Y-7825238D01*
X10033893Y-7825238D01*
X10024369Y-7820476D01*
X10114845Y-7825238D02*
X10114845Y-7758571D01*
X10114845Y-7777619D02*
X10119607Y-7768095D01*
X10124369Y-7763333D01*
X10133893Y-7758571D01*
X10143417Y-7758571D01*
X10214845Y-7820476D02*
X10205321Y-7825238D01*
X10186274Y-7825238D01*
X10176750Y-7820476D01*
X10171988Y-7810952D01*
X10171988Y-7772857D01*
X10176750Y-7763333D01*
X10186274Y-7758571D01*
X10205321Y-7758571D01*
X10214845Y-7763333D01*
X10219607Y-7772857D01*
X10219607Y-7782381D01*
X10171988Y-7791905D01*
X10305321Y-7820476D02*
X10295798Y-7825238D01*
X10276750Y-7825238D01*
X10267226Y-7820476D01*
X10262464Y-7815714D01*
X10257702Y-7806190D01*
X10257702Y-7777619D01*
X10262464Y-7768095D01*
X10267226Y-7763333D01*
X10276750Y-7758571D01*
X10295798Y-7758571D01*
X10305321Y-7763333D01*
X10386274Y-7820476D02*
X10376750Y-7825238D01*
X10357702Y-7825238D01*
X10348179Y-7820476D01*
X10343417Y-7810952D01*
X10343417Y-7772857D01*
X10348179Y-7763333D01*
X10357702Y-7758571D01*
X10376750Y-7758571D01*
X10386274Y-7763333D01*
X10391036Y-7772857D01*
X10391036Y-7782381D01*
X10343417Y-7791905D01*
X10476750Y-7825238D02*
X10476750Y-7725238D01*
X10476750Y-7820476D02*
X10467226Y-7825238D01*
X10448179Y-7825238D01*
X10438655Y-7820476D01*
X10433893Y-7815714D01*
X10429131Y-7806190D01*
X10429131Y-7777619D01*
X10433893Y-7768095D01*
X10438655Y-7763333D01*
X10448179Y-7758571D01*
X10467226Y-7758571D01*
X10476750Y-7763333D01*
X10562464Y-7820476D02*
X10552940Y-7825238D01*
X10533893Y-7825238D01*
X10524369Y-7820476D01*
X10519607Y-7810952D01*
X10519607Y-7772857D01*
X10524369Y-7763333D01*
X10533893Y-7758571D01*
X10552940Y-7758571D01*
X10562464Y-7763333D01*
X10567226Y-7772857D01*
X10567226Y-7782381D01*
X10519607Y-7791905D01*
X10610083Y-7758571D02*
X10610083Y-7825238D01*
X10610083Y-7768095D02*
X10614845Y-7763333D01*
X10624369Y-7758571D01*
X10638655Y-7758571D01*
X10648179Y-7763333D01*
X10652940Y-7772857D01*
X10652940Y-7825238D01*
X10743417Y-7820476D02*
X10733893Y-7825238D01*
X10714845Y-7825238D01*
X10705321Y-7820476D01*
X10700560Y-7815714D01*
X10695798Y-7806190D01*
X10695798Y-7777619D01*
X10700560Y-7768095D01*
X10705321Y-7763333D01*
X10714845Y-7758571D01*
X10733893Y-7758571D01*
X10743417Y-7763333D01*
X10824369Y-7820476D02*
X10814845Y-7825238D01*
X10795798Y-7825238D01*
X10786274Y-7820476D01*
X10781512Y-7810952D01*
X10781512Y-7772857D01*
X10786274Y-7763333D01*
X10795798Y-7758571D01*
X10814845Y-7758571D01*
X10824369Y-7763333D01*
X10829131Y-7772857D01*
X10829131Y-7782381D01*
X10781512Y-7791905D01*
X10962464Y-7825238D02*
X10952940Y-7820476D01*
X10948179Y-7815714D01*
X10943417Y-7806190D01*
X10943417Y-7777619D01*
X10948179Y-7768095D01*
X10952940Y-7763333D01*
X10962464Y-7758571D01*
X10976750Y-7758571D01*
X10986274Y-7763333D01*
X10991036Y-7768095D01*
X10995798Y-7777619D01*
X10995798Y-7806190D01*
X10991036Y-7815714D01*
X10986274Y-7820476D01*
X10976750Y-7825238D01*
X10962464Y-7825238D01*
X11029131Y-7758571D02*
X11052940Y-7825238D01*
X11076750Y-7758571D01*
X11152940Y-7820476D02*
X11143417Y-7825238D01*
X11124369Y-7825238D01*
X11114845Y-7820476D01*
X11110083Y-7810952D01*
X11110083Y-7772857D01*
X11114845Y-7763333D01*
X11124369Y-7758571D01*
X11143417Y-7758571D01*
X11152940Y-7763333D01*
X11157702Y-7772857D01*
X11157702Y-7782381D01*
X11110083Y-7791905D01*
X11200559Y-7825238D02*
X11200559Y-7758571D01*
X11200559Y-7777619D02*
X11205321Y-7768095D01*
X11210083Y-7763333D01*
X11219607Y-7758571D01*
X11229131Y-7758571D01*
X11324369Y-7758571D02*
X11362464Y-7758571D01*
X11338655Y-7725238D02*
X11338655Y-7810952D01*
X11343417Y-7820476D01*
X11352940Y-7825238D01*
X11362464Y-7825238D01*
X11395798Y-7825238D02*
X11395798Y-7725238D01*
X11438655Y-7825238D02*
X11438655Y-7772857D01*
X11433893Y-7763333D01*
X11424369Y-7758571D01*
X11410083Y-7758571D01*
X11400559Y-7763333D01*
X11395798Y-7768095D01*
X11486274Y-7825238D02*
X11486274Y-7758571D01*
X11486274Y-7725238D02*
X11481512Y-7730000D01*
X11486274Y-7734762D01*
X11491036Y-7730000D01*
X11486274Y-7725238D01*
X11486274Y-7734762D01*
X11529131Y-7820476D02*
X11538655Y-7825238D01*
X11557702Y-7825238D01*
X11567226Y-7820476D01*
X11571988Y-7810952D01*
X11571988Y-7806190D01*
X11567226Y-7796667D01*
X11557702Y-7791905D01*
X11543417Y-7791905D01*
X11533893Y-7787143D01*
X11529131Y-7777619D01*
X11529131Y-7772857D01*
X11533893Y-7763333D01*
X11543417Y-7758571D01*
X11557702Y-7758571D01*
X11567226Y-7763333D01*
X11733893Y-7825238D02*
X11733893Y-7725238D01*
X11733893Y-7820476D02*
X11724369Y-7825238D01*
X11705321Y-7825238D01*
X11695798Y-7820476D01*
X11691036Y-7815714D01*
X11686274Y-7806190D01*
X11686274Y-7777619D01*
X11691036Y-7768095D01*
X11695798Y-7763333D01*
X11705321Y-7758571D01*
X11724369Y-7758571D01*
X11733893Y-7763333D01*
X11781512Y-7825238D02*
X11781512Y-7758571D01*
X11781512Y-7777619D02*
X11786274Y-7768095D01*
X11791036Y-7763333D01*
X11800559Y-7758571D01*
X11810083Y-7758571D01*
X11886274Y-7825238D02*
X11886274Y-7772857D01*
X11881512Y-7763333D01*
X11871988Y-7758571D01*
X11852940Y-7758571D01*
X11843417Y-7763333D01*
X11886274Y-7820476D02*
X11876750Y-7825238D01*
X11852940Y-7825238D01*
X11843417Y-7820476D01*
X11838655Y-7810952D01*
X11838655Y-7801428D01*
X11843417Y-7791905D01*
X11852940Y-7787143D01*
X11876750Y-7787143D01*
X11886274Y-7782381D01*
X11924369Y-7758571D02*
X11943417Y-7825238D01*
X11962464Y-7777619D01*
X11981512Y-7825238D01*
X12000559Y-7758571D01*
X12038655Y-7825238D02*
X12038655Y-7758571D01*
X12038655Y-7725238D02*
X12033893Y-7730000D01*
X12038655Y-7734762D01*
X12043417Y-7730000D01*
X12038655Y-7725238D01*
X12038655Y-7734762D01*
X12086274Y-7758571D02*
X12086274Y-7825238D01*
X12086274Y-7768095D02*
X12091036Y-7763333D01*
X12100559Y-7758571D01*
X12114845Y-7758571D01*
X12124369Y-7763333D01*
X12129131Y-7772857D01*
X12129131Y-7825238D01*
X12219607Y-7758571D02*
X12219607Y-7839524D01*
X12214845Y-7849048D01*
X12210083Y-7853809D01*
X12200559Y-7858571D01*
X12186274Y-7858571D01*
X12176750Y-7853809D01*
X12219607Y-7820476D02*
X12210083Y-7825238D01*
X12191036Y-7825238D01*
X12181512Y-7820476D01*
X12176750Y-7815714D01*
X12171988Y-7806190D01*
X12171988Y-7777619D01*
X12176750Y-7768095D01*
X12181512Y-7763333D01*
X12191036Y-7758571D01*
X12210083Y-7758571D01*
X12219607Y-7763333D01*
X12267226Y-7815714D02*
X12271988Y-7820476D01*
X12267226Y-7825238D01*
X12262464Y-7820476D01*
X12267226Y-7815714D01*
X12267226Y-7825238D01*
X1952940Y-7575238D02*
X1895798Y-7575238D01*
X1924369Y-7575238D02*
X1924369Y-7475238D01*
X1914845Y-7489524D01*
X1905321Y-7499048D01*
X1895798Y-7503809D01*
X1995798Y-7565714D02*
X2000559Y-7570476D01*
X1995798Y-7575238D01*
X1991036Y-7570476D01*
X1995798Y-7565714D01*
X1995798Y-7575238D01*
X2033893Y-7613333D02*
X2038655Y-7608571D01*
X2048178Y-7594286D01*
X2052940Y-7584762D01*
X2057702Y-7570476D01*
X2062464Y-7546667D01*
X2062464Y-7527619D01*
X2057702Y-7503809D01*
X2052940Y-7489524D01*
X2048178Y-7480000D01*
X2038655Y-7465714D01*
X2033893Y-7460952D01*
X2186274Y-7575238D02*
X2186274Y-7475238D01*
X2186274Y-7522857D02*
X2243417Y-7522857D01*
X2243417Y-7575238D02*
X2243417Y-7475238D01*
X2305321Y-7575238D02*
X2295798Y-7570476D01*
X2291036Y-7565714D01*
X2286274Y-7556190D01*
X2286274Y-7527619D01*
X2291036Y-7518095D01*
X2295798Y-7513333D01*
X2305321Y-7508571D01*
X2319607Y-7508571D01*
X2329131Y-7513333D01*
X2333893Y-7518095D01*
X2338655Y-7527619D01*
X2338655Y-7556190D01*
X2333893Y-7565714D01*
X2329131Y-7570476D01*
X2319607Y-7575238D01*
X2305321Y-7575238D01*
X2395798Y-7575238D02*
X2386274Y-7570476D01*
X2381512Y-7560952D01*
X2381512Y-7475238D01*
X2471988Y-7570476D02*
X2462464Y-7575238D01*
X2443417Y-7575238D01*
X2433893Y-7570476D01*
X2429131Y-7560952D01*
X2429131Y-7522857D01*
X2433893Y-7513333D01*
X2443417Y-7508571D01*
X2462464Y-7508571D01*
X2471988Y-7513333D01*
X2476750Y-7522857D01*
X2476750Y-7532381D01*
X2429131Y-7541905D01*
X2610083Y-7575238D02*
X2600560Y-7570476D01*
X2595798Y-7560952D01*
X2595798Y-7475238D01*
X2662464Y-7575238D02*
X2652940Y-7570476D01*
X2648179Y-7565714D01*
X2643417Y-7556190D01*
X2643417Y-7527619D01*
X2648179Y-7518095D01*
X2652940Y-7513333D01*
X2662464Y-7508571D01*
X2676750Y-7508571D01*
X2686274Y-7513333D01*
X2691036Y-7518095D01*
X2695798Y-7527619D01*
X2695798Y-7556190D01*
X2691036Y-7565714D01*
X2686274Y-7570476D01*
X2676750Y-7575238D01*
X2662464Y-7575238D01*
X2781512Y-7570476D02*
X2771988Y-7575238D01*
X2752940Y-7575238D01*
X2743417Y-7570476D01*
X2738655Y-7565714D01*
X2733893Y-7556190D01*
X2733893Y-7527619D01*
X2738655Y-7518095D01*
X2743417Y-7513333D01*
X2752940Y-7508571D01*
X2771988Y-7508571D01*
X2781512Y-7513333D01*
X2867226Y-7575238D02*
X2867226Y-7522857D01*
X2862464Y-7513333D01*
X2852940Y-7508571D01*
X2833893Y-7508571D01*
X2824369Y-7513333D01*
X2867226Y-7570476D02*
X2857702Y-7575238D01*
X2833893Y-7575238D01*
X2824369Y-7570476D01*
X2819607Y-7560952D01*
X2819607Y-7551428D01*
X2824369Y-7541905D01*
X2833893Y-7537143D01*
X2857702Y-7537143D01*
X2867226Y-7532381D01*
X2900559Y-7508571D02*
X2938655Y-7508571D01*
X2914845Y-7475238D02*
X2914845Y-7560952D01*
X2919607Y-7570476D01*
X2929131Y-7575238D01*
X2938655Y-7575238D01*
X2971988Y-7575238D02*
X2971988Y-7508571D01*
X2971988Y-7475238D02*
X2967226Y-7480000D01*
X2971988Y-7484762D01*
X2976750Y-7480000D01*
X2971988Y-7475238D01*
X2971988Y-7484762D01*
X3033893Y-7575238D02*
X3024369Y-7570476D01*
X3019607Y-7565714D01*
X3014845Y-7556190D01*
X3014845Y-7527619D01*
X3019607Y-7518095D01*
X3024369Y-7513333D01*
X3033893Y-7508571D01*
X3048178Y-7508571D01*
X3057702Y-7513333D01*
X3062464Y-7518095D01*
X3067226Y-7527619D01*
X3067226Y-7556190D01*
X3062464Y-7565714D01*
X3057702Y-7570476D01*
X3048178Y-7575238D01*
X3033893Y-7575238D01*
X3110083Y-7508571D02*
X3110083Y-7575238D01*
X3110083Y-7518095D02*
X3114845Y-7513333D01*
X3124369Y-7508571D01*
X3138655Y-7508571D01*
X3148178Y-7513333D01*
X3152940Y-7522857D01*
X3152940Y-7575238D01*
X3195798Y-7570476D02*
X3205321Y-7575238D01*
X3224369Y-7575238D01*
X3233893Y-7570476D01*
X3238655Y-7560952D01*
X3238655Y-7556190D01*
X3233893Y-7546667D01*
X3224369Y-7541905D01*
X3210083Y-7541905D01*
X3200559Y-7537143D01*
X3195798Y-7527619D01*
X3195798Y-7522857D01*
X3200559Y-7513333D01*
X3210083Y-7508571D01*
X3224369Y-7508571D01*
X3233893Y-7513333D01*
X3400559Y-7575238D02*
X3400559Y-7522857D01*
X3395798Y-7513333D01*
X3386274Y-7508571D01*
X3367226Y-7508571D01*
X3357702Y-7513333D01*
X3400559Y-7570476D02*
X3391036Y-7575238D01*
X3367226Y-7575238D01*
X3357702Y-7570476D01*
X3352940Y-7560952D01*
X3352940Y-7551428D01*
X3357702Y-7541905D01*
X3367226Y-7537143D01*
X3391036Y-7537143D01*
X3400559Y-7532381D01*
X3448178Y-7575238D02*
X3448178Y-7508571D01*
X3448178Y-7527619D02*
X3452940Y-7518095D01*
X3457702Y-7513333D01*
X3467226Y-7508571D01*
X3476750Y-7508571D01*
X3548178Y-7570476D02*
X3538655Y-7575238D01*
X3519607Y-7575238D01*
X3510083Y-7570476D01*
X3505321Y-7560952D01*
X3505321Y-7522857D01*
X3510083Y-7513333D01*
X3519607Y-7508571D01*
X3538655Y-7508571D01*
X3548178Y-7513333D01*
X3552940Y-7522857D01*
X3552940Y-7532381D01*
X3505321Y-7541905D01*
X3671988Y-7575238D02*
X3671988Y-7508571D01*
X3671988Y-7475238D02*
X3667226Y-7480000D01*
X3671988Y-7484762D01*
X3676750Y-7480000D01*
X3671988Y-7475238D01*
X3671988Y-7484762D01*
X3719607Y-7508571D02*
X3719607Y-7575238D01*
X3719607Y-7518095D02*
X3724369Y-7513333D01*
X3733893Y-7508571D01*
X3748178Y-7508571D01*
X3757702Y-7513333D01*
X3762464Y-7522857D01*
X3762464Y-7575238D01*
X3852940Y-7575238D02*
X3852940Y-7475238D01*
X3852940Y-7570476D02*
X3843417Y-7575238D01*
X3824369Y-7575238D01*
X3814845Y-7570476D01*
X3810083Y-7565714D01*
X3805321Y-7556190D01*
X3805321Y-7527619D01*
X3810083Y-7518095D01*
X3814845Y-7513333D01*
X3824369Y-7508571D01*
X3843417Y-7508571D01*
X3852940Y-7513333D01*
X3900559Y-7575238D02*
X3900559Y-7508571D01*
X3900559Y-7475238D02*
X3895798Y-7480000D01*
X3900559Y-7484762D01*
X3905321Y-7480000D01*
X3900559Y-7475238D01*
X3900559Y-7484762D01*
X3991036Y-7570476D02*
X3981512Y-7575238D01*
X3962464Y-7575238D01*
X3952940Y-7570476D01*
X3948178Y-7565714D01*
X3943417Y-7556190D01*
X3943417Y-7527619D01*
X3948178Y-7518095D01*
X3952940Y-7513333D01*
X3962464Y-7508571D01*
X3981512Y-7508571D01*
X3991036Y-7513333D01*
X4076750Y-7575238D02*
X4076750Y-7522857D01*
X4071988Y-7513333D01*
X4062464Y-7508571D01*
X4043417Y-7508571D01*
X4033893Y-7513333D01*
X4076750Y-7570476D02*
X4067226Y-7575238D01*
X4043417Y-7575238D01*
X4033893Y-7570476D01*
X4029131Y-7560952D01*
X4029131Y-7551428D01*
X4033893Y-7541905D01*
X4043417Y-7537143D01*
X4067226Y-7537143D01*
X4076750Y-7532381D01*
X4110083Y-7508571D02*
X4148178Y-7508571D01*
X4124369Y-7475238D02*
X4124369Y-7560952D01*
X4129131Y-7570476D01*
X4138655Y-7575238D01*
X4148178Y-7575238D01*
X4219607Y-7570476D02*
X4210083Y-7575238D01*
X4191036Y-7575238D01*
X4181512Y-7570476D01*
X4176750Y-7560952D01*
X4176750Y-7522857D01*
X4181512Y-7513333D01*
X4191036Y-7508571D01*
X4210083Y-7508571D01*
X4219607Y-7513333D01*
X4224369Y-7522857D01*
X4224369Y-7532381D01*
X4176750Y-7541905D01*
X4310083Y-7575238D02*
X4310083Y-7475238D01*
X4310083Y-7570476D02*
X4300560Y-7575238D01*
X4281512Y-7575238D01*
X4271988Y-7570476D01*
X4267226Y-7565714D01*
X4262464Y-7556190D01*
X4262464Y-7527619D01*
X4267226Y-7518095D01*
X4271988Y-7513333D01*
X4281512Y-7508571D01*
X4300560Y-7508571D01*
X4310083Y-7513333D01*
X4433893Y-7575238D02*
X4433893Y-7508571D01*
X4433893Y-7475238D02*
X4429131Y-7480000D01*
X4433893Y-7484762D01*
X4438655Y-7480000D01*
X4433893Y-7475238D01*
X4433893Y-7484762D01*
X4481512Y-7508571D02*
X4481512Y-7575238D01*
X4481512Y-7518095D02*
X4486274Y-7513333D01*
X4495798Y-7508571D01*
X4510083Y-7508571D01*
X4519607Y-7513333D01*
X4524369Y-7522857D01*
X4524369Y-7575238D01*
X4643417Y-7570476D02*
X4652940Y-7575238D01*
X4671988Y-7575238D01*
X4681512Y-7570476D01*
X4686274Y-7560952D01*
X4686274Y-7556190D01*
X4681512Y-7546667D01*
X4671988Y-7541905D01*
X4657702Y-7541905D01*
X4648179Y-7537143D01*
X4643417Y-7527619D01*
X4643417Y-7522857D01*
X4648179Y-7513333D01*
X4657702Y-7508571D01*
X4671988Y-7508571D01*
X4681512Y-7513333D01*
X4767226Y-7570476D02*
X4757702Y-7575238D01*
X4738655Y-7575238D01*
X4729131Y-7570476D01*
X4724369Y-7560952D01*
X4724369Y-7522857D01*
X4729131Y-7513333D01*
X4738655Y-7508571D01*
X4757702Y-7508571D01*
X4767226Y-7513333D01*
X4771988Y-7522857D01*
X4771988Y-7532381D01*
X4724369Y-7541905D01*
X4814845Y-7508571D02*
X4814845Y-7608571D01*
X4814845Y-7513333D02*
X4824369Y-7508571D01*
X4843417Y-7508571D01*
X4852940Y-7513333D01*
X4857702Y-7518095D01*
X4862464Y-7527619D01*
X4862464Y-7556190D01*
X4857702Y-7565714D01*
X4852940Y-7570476D01*
X4843417Y-7575238D01*
X4824369Y-7575238D01*
X4814845Y-7570476D01*
X4948179Y-7575238D02*
X4948179Y-7522857D01*
X4943417Y-7513333D01*
X4933893Y-7508571D01*
X4914845Y-7508571D01*
X4905321Y-7513333D01*
X4948179Y-7570476D02*
X4938655Y-7575238D01*
X4914845Y-7575238D01*
X4905321Y-7570476D01*
X4900560Y-7560952D01*
X4900560Y-7551428D01*
X4905321Y-7541905D01*
X4914845Y-7537143D01*
X4938655Y-7537143D01*
X4948179Y-7532381D01*
X4995798Y-7575238D02*
X4995798Y-7508571D01*
X4995798Y-7527619D02*
X5000560Y-7518095D01*
X5005321Y-7513333D01*
X5014845Y-7508571D01*
X5024369Y-7508571D01*
X5100560Y-7575238D02*
X5100560Y-7522857D01*
X5095798Y-7513333D01*
X5086274Y-7508571D01*
X5067226Y-7508571D01*
X5057702Y-7513333D01*
X5100560Y-7570476D02*
X5091036Y-7575238D01*
X5067226Y-7575238D01*
X5057702Y-7570476D01*
X5052940Y-7560952D01*
X5052940Y-7551428D01*
X5057702Y-7541905D01*
X5067226Y-7537143D01*
X5091036Y-7537143D01*
X5100560Y-7532381D01*
X5133893Y-7508571D02*
X5171988Y-7508571D01*
X5148179Y-7475238D02*
X5148179Y-7560952D01*
X5152940Y-7570476D01*
X5162464Y-7575238D01*
X5171988Y-7575238D01*
X5243417Y-7570476D02*
X5233893Y-7575238D01*
X5214845Y-7575238D01*
X5205321Y-7570476D01*
X5200560Y-7560952D01*
X5200560Y-7522857D01*
X5205321Y-7513333D01*
X5214845Y-7508571D01*
X5233893Y-7508571D01*
X5243417Y-7513333D01*
X5248179Y-7522857D01*
X5248179Y-7532381D01*
X5200560Y-7541905D01*
X5367226Y-7565714D02*
X5371988Y-7570476D01*
X5367226Y-7575238D01*
X5362464Y-7570476D01*
X5367226Y-7565714D01*
X5367226Y-7575238D01*
X5457702Y-7575238D02*
X5457702Y-7475238D01*
X5457702Y-7570476D02*
X5448179Y-7575238D01*
X5429131Y-7575238D01*
X5419607Y-7570476D01*
X5414845Y-7565714D01*
X5410083Y-7556190D01*
X5410083Y-7527619D01*
X5414845Y-7518095D01*
X5419607Y-7513333D01*
X5429131Y-7508571D01*
X5448179Y-7508571D01*
X5457702Y-7513333D01*
X5505321Y-7575238D02*
X5505321Y-7508571D01*
X5505321Y-7527619D02*
X5510083Y-7518095D01*
X5514845Y-7513333D01*
X5524369Y-7508571D01*
X5533893Y-7508571D01*
X5581512Y-7575238D02*
X5571988Y-7570476D01*
X5567226Y-7560952D01*
X5567226Y-7475238D01*
X5681512Y-7508571D02*
X5719607Y-7508571D01*
X5695798Y-7575238D02*
X5695798Y-7489524D01*
X5700559Y-7480000D01*
X5710083Y-7475238D01*
X5719607Y-7475238D01*
X5752940Y-7575238D02*
X5752940Y-7508571D01*
X5752940Y-7475238D02*
X5748178Y-7480000D01*
X5752940Y-7484762D01*
X5757702Y-7480000D01*
X5752940Y-7475238D01*
X5752940Y-7484762D01*
X5814845Y-7575238D02*
X5805321Y-7570476D01*
X5800559Y-7560952D01*
X5800559Y-7475238D01*
X5891036Y-7570476D02*
X5881512Y-7575238D01*
X5862464Y-7575238D01*
X5852940Y-7570476D01*
X5848178Y-7560952D01*
X5848178Y-7522857D01*
X5852940Y-7513333D01*
X5862464Y-7508571D01*
X5881512Y-7508571D01*
X5891036Y-7513333D01*
X5895798Y-7522857D01*
X5895798Y-7532381D01*
X5848178Y-7541905D01*
X5943417Y-7570476D02*
X5943417Y-7575238D01*
X5938655Y-7584762D01*
X5933893Y-7589524D01*
X6062464Y-7575238D02*
X6062464Y-7508571D01*
X6062464Y-7475238D02*
X6057702Y-7480000D01*
X6062464Y-7484762D01*
X6067226Y-7480000D01*
X6062464Y-7475238D01*
X6062464Y-7484762D01*
X6110083Y-7508571D02*
X6110083Y-7575238D01*
X6110083Y-7518095D02*
X6114845Y-7513333D01*
X6124369Y-7508571D01*
X6138655Y-7508571D01*
X6148178Y-7513333D01*
X6152940Y-7522857D01*
X6152940Y-7575238D01*
X6243417Y-7570476D02*
X6233893Y-7575238D01*
X6214845Y-7575238D01*
X6205321Y-7570476D01*
X6200559Y-7565714D01*
X6195798Y-7556190D01*
X6195798Y-7527619D01*
X6200559Y-7518095D01*
X6205321Y-7513333D01*
X6214845Y-7508571D01*
X6233893Y-7508571D01*
X6243417Y-7513333D01*
X6300559Y-7575238D02*
X6291036Y-7570476D01*
X6286274Y-7560952D01*
X6286274Y-7475238D01*
X6381512Y-7508571D02*
X6381512Y-7575238D01*
X6338655Y-7508571D02*
X6338655Y-7560952D01*
X6343417Y-7570476D01*
X6352940Y-7575238D01*
X6367226Y-7575238D01*
X6376750Y-7570476D01*
X6381512Y-7565714D01*
X6471988Y-7575238D02*
X6471988Y-7475238D01*
X6471988Y-7570476D02*
X6462464Y-7575238D01*
X6443417Y-7575238D01*
X6433893Y-7570476D01*
X6429131Y-7565714D01*
X6424369Y-7556190D01*
X6424369Y-7527619D01*
X6429131Y-7518095D01*
X6433893Y-7513333D01*
X6443417Y-7508571D01*
X6462464Y-7508571D01*
X6471988Y-7513333D01*
X6557702Y-7570476D02*
X6548178Y-7575238D01*
X6529131Y-7575238D01*
X6519607Y-7570476D01*
X6514845Y-7560952D01*
X6514845Y-7522857D01*
X6519607Y-7513333D01*
X6529131Y-7508571D01*
X6548178Y-7508571D01*
X6557702Y-7513333D01*
X6562464Y-7522857D01*
X6562464Y-7532381D01*
X6514845Y-7541905D01*
X6648178Y-7575238D02*
X6648178Y-7475238D01*
X6648178Y-7570476D02*
X6638655Y-7575238D01*
X6619607Y-7575238D01*
X6610083Y-7570476D01*
X6605321Y-7565714D01*
X6600559Y-7556190D01*
X6600559Y-7527619D01*
X6605321Y-7518095D01*
X6610083Y-7513333D01*
X6619607Y-7508571D01*
X6638655Y-7508571D01*
X6648178Y-7513333D01*
X6762464Y-7508571D02*
X6781512Y-7575238D01*
X6800559Y-7527619D01*
X6819607Y-7575238D01*
X6838655Y-7508571D01*
X6876750Y-7575238D02*
X6876750Y-7508571D01*
X6876750Y-7475238D02*
X6871988Y-7480000D01*
X6876750Y-7484762D01*
X6881512Y-7480000D01*
X6876750Y-7475238D01*
X6876750Y-7484762D01*
X6910083Y-7508571D02*
X6948178Y-7508571D01*
X6924369Y-7475238D02*
X6924369Y-7560952D01*
X6929131Y-7570476D01*
X6938655Y-7575238D01*
X6948178Y-7575238D01*
X6981512Y-7575238D02*
X6981512Y-7475238D01*
X7024369Y-7575238D02*
X7024369Y-7522857D01*
X7019607Y-7513333D01*
X7010083Y-7508571D01*
X6995798Y-7508571D01*
X6986274Y-7513333D01*
X6981512Y-7518095D01*
X7133893Y-7508571D02*
X7171988Y-7508571D01*
X7148178Y-7475238D02*
X7148178Y-7560952D01*
X7152940Y-7570476D01*
X7162464Y-7575238D01*
X7171988Y-7575238D01*
X7205321Y-7575238D02*
X7205321Y-7475238D01*
X7248178Y-7575238D02*
X7248178Y-7522857D01*
X7243417Y-7513333D01*
X7233893Y-7508571D01*
X7219607Y-7508571D01*
X7210083Y-7513333D01*
X7205321Y-7518095D01*
X7333893Y-7570476D02*
X7324369Y-7575238D01*
X7305321Y-7575238D01*
X7295798Y-7570476D01*
X7291036Y-7560952D01*
X7291036Y-7522857D01*
X7295798Y-7513333D01*
X7305321Y-7508571D01*
X7324369Y-7508571D01*
X7333893Y-7513333D01*
X7338655Y-7522857D01*
X7338655Y-7532381D01*
X7291036Y-7541905D01*
X7500559Y-7508571D02*
X7500559Y-7589524D01*
X7495798Y-7599048D01*
X7491036Y-7603809D01*
X7481512Y-7608571D01*
X7467226Y-7608571D01*
X7457702Y-7603809D01*
X7500559Y-7570476D02*
X7491036Y-7575238D01*
X7471988Y-7575238D01*
X7462464Y-7570476D01*
X7457702Y-7565714D01*
X7452940Y-7556190D01*
X7452940Y-7527619D01*
X7457702Y-7518095D01*
X7462464Y-7513333D01*
X7471988Y-7508571D01*
X7491036Y-7508571D01*
X7500559Y-7513333D01*
X7586274Y-7570476D02*
X7576750Y-7575238D01*
X7557702Y-7575238D01*
X7548178Y-7570476D01*
X7543417Y-7560952D01*
X7543417Y-7522857D01*
X7548178Y-7513333D01*
X7557702Y-7508571D01*
X7576750Y-7508571D01*
X7586274Y-7513333D01*
X7591036Y-7522857D01*
X7591036Y-7532381D01*
X7543417Y-7541905D01*
X7633893Y-7575238D02*
X7633893Y-7508571D01*
X7633893Y-7527619D02*
X7638655Y-7518095D01*
X7643417Y-7513333D01*
X7652940Y-7508571D01*
X7662464Y-7508571D01*
X7695798Y-7575238D02*
X7695798Y-7475238D01*
X7695798Y-7513333D02*
X7705321Y-7508571D01*
X7724369Y-7508571D01*
X7733893Y-7513333D01*
X7738655Y-7518095D01*
X7743417Y-7527619D01*
X7743417Y-7556190D01*
X7738655Y-7565714D01*
X7733893Y-7570476D01*
X7724369Y-7575238D01*
X7705321Y-7575238D01*
X7695798Y-7570476D01*
X7824369Y-7570476D02*
X7814845Y-7575238D01*
X7795798Y-7575238D01*
X7786274Y-7570476D01*
X7781512Y-7560952D01*
X7781512Y-7522857D01*
X7786274Y-7513333D01*
X7795798Y-7508571D01*
X7814845Y-7508571D01*
X7824369Y-7513333D01*
X7829131Y-7522857D01*
X7829131Y-7532381D01*
X7781512Y-7541905D01*
X7871988Y-7575238D02*
X7871988Y-7508571D01*
X7871988Y-7527619D02*
X7876750Y-7518095D01*
X7881512Y-7513333D01*
X7891036Y-7508571D01*
X7900559Y-7508571D01*
X8010083Y-7508571D02*
X8010083Y-7608571D01*
X8010083Y-7513333D02*
X8019607Y-7508571D01*
X8038655Y-7508571D01*
X8048178Y-7513333D01*
X8052940Y-7518095D01*
X8057702Y-7527619D01*
X8057702Y-7556190D01*
X8052940Y-7565714D01*
X8048178Y-7570476D01*
X8038655Y-7575238D01*
X8019607Y-7575238D01*
X8010083Y-7570476D01*
X8143417Y-7575238D02*
X8143417Y-7522857D01*
X8138655Y-7513333D01*
X8129131Y-7508571D01*
X8110083Y-7508571D01*
X8100559Y-7513333D01*
X8143417Y-7570476D02*
X8133893Y-7575238D01*
X8110083Y-7575238D01*
X8100559Y-7570476D01*
X8095798Y-7560952D01*
X8095798Y-7551428D01*
X8100559Y-7541905D01*
X8110083Y-7537143D01*
X8133893Y-7537143D01*
X8143417Y-7532381D01*
X8233893Y-7570476D02*
X8224369Y-7575238D01*
X8205321Y-7575238D01*
X8195798Y-7570476D01*
X8191036Y-7565714D01*
X8186274Y-7556190D01*
X8186274Y-7527619D01*
X8191036Y-7518095D01*
X8195798Y-7513333D01*
X8205321Y-7508571D01*
X8224369Y-7508571D01*
X8233893Y-7513333D01*
X8276750Y-7575238D02*
X8276750Y-7475238D01*
X8286274Y-7537143D02*
X8314845Y-7575238D01*
X8314845Y-7508571D02*
X8276750Y-7546667D01*
X8400560Y-7575238D02*
X8400560Y-7522857D01*
X8395798Y-7513333D01*
X8386274Y-7508571D01*
X8367226Y-7508571D01*
X8357702Y-7513333D01*
X8400560Y-7570476D02*
X8391036Y-7575238D01*
X8367226Y-7575238D01*
X8357702Y-7570476D01*
X8352940Y-7560952D01*
X8352940Y-7551428D01*
X8357702Y-7541905D01*
X8367226Y-7537143D01*
X8391036Y-7537143D01*
X8400560Y-7532381D01*
X8491036Y-7508571D02*
X8491036Y-7589524D01*
X8486274Y-7599048D01*
X8481512Y-7603809D01*
X8471988Y-7608571D01*
X8457702Y-7608571D01*
X8448179Y-7603809D01*
X8491036Y-7570476D02*
X8481512Y-7575238D01*
X8462464Y-7575238D01*
X8452940Y-7570476D01*
X8448179Y-7565714D01*
X8443417Y-7556190D01*
X8443417Y-7527619D01*
X8448179Y-7518095D01*
X8452940Y-7513333D01*
X8462464Y-7508571D01*
X8481512Y-7508571D01*
X8491036Y-7513333D01*
X8576750Y-7570476D02*
X8567226Y-7575238D01*
X8548179Y-7575238D01*
X8538655Y-7570476D01*
X8533893Y-7560952D01*
X8533893Y-7522857D01*
X8538655Y-7513333D01*
X8548179Y-7508571D01*
X8567226Y-7508571D01*
X8576750Y-7513333D01*
X8581512Y-7522857D01*
X8581512Y-7532381D01*
X8533893Y-7541905D01*
X8624369Y-7565714D02*
X8629131Y-7570476D01*
X8624369Y-7575238D01*
X8619607Y-7570476D01*
X8624369Y-7565714D01*
X8624369Y-7575238D01*
X8733893Y-7475238D02*
X8791036Y-7475238D01*
X8762464Y-7575238D02*
X8762464Y-7475238D01*
X8824369Y-7575238D02*
X8824369Y-7475238D01*
X8867226Y-7575238D02*
X8867226Y-7522857D01*
X8862464Y-7513333D01*
X8852940Y-7508571D01*
X8838655Y-7508571D01*
X8829131Y-7513333D01*
X8824369Y-7518095D01*
X8957702Y-7575238D02*
X8957702Y-7522857D01*
X8952940Y-7513333D01*
X8943417Y-7508571D01*
X8924369Y-7508571D01*
X8914845Y-7513333D01*
X8957702Y-7570476D02*
X8948179Y-7575238D01*
X8924369Y-7575238D01*
X8914845Y-7570476D01*
X8910083Y-7560952D01*
X8910083Y-7551428D01*
X8914845Y-7541905D01*
X8924369Y-7537143D01*
X8948179Y-7537143D01*
X8957702Y-7532381D01*
X8991036Y-7508571D02*
X9029131Y-7508571D01*
X9005321Y-7475238D02*
X9005321Y-7560952D01*
X9010083Y-7570476D01*
X9019607Y-7575238D01*
X9029131Y-7575238D01*
X9124369Y-7508571D02*
X9162464Y-7508571D01*
X9138655Y-7575238D02*
X9138655Y-7489524D01*
X9143417Y-7480000D01*
X9152940Y-7475238D01*
X9162464Y-7475238D01*
X9195798Y-7575238D02*
X9195798Y-7508571D01*
X9195798Y-7475238D02*
X9191036Y-7480000D01*
X9195798Y-7484762D01*
X9200560Y-7480000D01*
X9195798Y-7475238D01*
X9195798Y-7484762D01*
X9257702Y-7575238D02*
X9248179Y-7570476D01*
X9243417Y-7560952D01*
X9243417Y-7475238D01*
X9333893Y-7570476D02*
X9324369Y-7575238D01*
X9305321Y-7575238D01*
X9295798Y-7570476D01*
X9291036Y-7560952D01*
X9291036Y-7522857D01*
X9295798Y-7513333D01*
X9305321Y-7508571D01*
X9324369Y-7508571D01*
X9333893Y-7513333D01*
X9338655Y-7522857D01*
X9338655Y-7532381D01*
X9291036Y-7541905D01*
X9443417Y-7508571D02*
X9481512Y-7508571D01*
X9457702Y-7475238D02*
X9457702Y-7560952D01*
X9462464Y-7570476D01*
X9471988Y-7575238D01*
X9481512Y-7575238D01*
X9557702Y-7575238D02*
X9557702Y-7522857D01*
X9552940Y-7513333D01*
X9543417Y-7508571D01*
X9524369Y-7508571D01*
X9514845Y-7513333D01*
X9557702Y-7570476D02*
X9548179Y-7575238D01*
X9524369Y-7575238D01*
X9514845Y-7570476D01*
X9510083Y-7560952D01*
X9510083Y-7551428D01*
X9514845Y-7541905D01*
X9524369Y-7537143D01*
X9548179Y-7537143D01*
X9557702Y-7532381D01*
X9605321Y-7575238D02*
X9605321Y-7475238D01*
X9614845Y-7537143D02*
X9643417Y-7575238D01*
X9643417Y-7508571D02*
X9605321Y-7546667D01*
X9724369Y-7570476D02*
X9714845Y-7575238D01*
X9695798Y-7575238D01*
X9686274Y-7570476D01*
X9681512Y-7560952D01*
X9681512Y-7522857D01*
X9686274Y-7513333D01*
X9695798Y-7508571D01*
X9714845Y-7508571D01*
X9724369Y-7513333D01*
X9729131Y-7522857D01*
X9729131Y-7532381D01*
X9681512Y-7541905D01*
X9767226Y-7570476D02*
X9776750Y-7575238D01*
X9795798Y-7575238D01*
X9805321Y-7570476D01*
X9810083Y-7560952D01*
X9810083Y-7556190D01*
X9805321Y-7546667D01*
X9795798Y-7541905D01*
X9781512Y-7541905D01*
X9771988Y-7537143D01*
X9767226Y-7527619D01*
X9767226Y-7522857D01*
X9771988Y-7513333D01*
X9781512Y-7508571D01*
X9795798Y-7508571D01*
X9805321Y-7513333D01*
X9929131Y-7508571D02*
X9929131Y-7608571D01*
X9929131Y-7513333D02*
X9938655Y-7508571D01*
X9957702Y-7508571D01*
X9967226Y-7513333D01*
X9971988Y-7518095D01*
X9976750Y-7527619D01*
X9976750Y-7556190D01*
X9971988Y-7565714D01*
X9967226Y-7570476D01*
X9957702Y-7575238D01*
X9938655Y-7575238D01*
X9929131Y-7570476D01*
X10019607Y-7575238D02*
X10019607Y-7508571D01*
X10019607Y-7527619D02*
X10024369Y-7518095D01*
X10029131Y-7513333D01*
X10038655Y-7508571D01*
X10048179Y-7508571D01*
X10119607Y-7570476D02*
X10110083Y-7575238D01*
X10091036Y-7575238D01*
X10081512Y-7570476D01*
X10076750Y-7560952D01*
X10076750Y-7522857D01*
X10081512Y-7513333D01*
X10091036Y-7508571D01*
X10110083Y-7508571D01*
X10119607Y-7513333D01*
X10124369Y-7522857D01*
X10124369Y-7532381D01*
X10076750Y-7541905D01*
X10210083Y-7570476D02*
X10200560Y-7575238D01*
X10181512Y-7575238D01*
X10171988Y-7570476D01*
X10167226Y-7565714D01*
X10162464Y-7556190D01*
X10162464Y-7527619D01*
X10167226Y-7518095D01*
X10171988Y-7513333D01*
X10181512Y-7508571D01*
X10200560Y-7508571D01*
X10210083Y-7513333D01*
X10291036Y-7570476D02*
X10281512Y-7575238D01*
X10262464Y-7575238D01*
X10252940Y-7570476D01*
X10248179Y-7560952D01*
X10248179Y-7522857D01*
X10252940Y-7513333D01*
X10262464Y-7508571D01*
X10281512Y-7508571D01*
X10291036Y-7513333D01*
X10295798Y-7522857D01*
X10295798Y-7532381D01*
X10248179Y-7541905D01*
X10381512Y-7575238D02*
X10381512Y-7475238D01*
X10381512Y-7570476D02*
X10371988Y-7575238D01*
X10352940Y-7575238D01*
X10343417Y-7570476D01*
X10338655Y-7565714D01*
X10333893Y-7556190D01*
X10333893Y-7527619D01*
X10338655Y-7518095D01*
X10343417Y-7513333D01*
X10352940Y-7508571D01*
X10371988Y-7508571D01*
X10381512Y-7513333D01*
X10467226Y-7570476D02*
X10457702Y-7575238D01*
X10438655Y-7575238D01*
X10429131Y-7570476D01*
X10424369Y-7560952D01*
X10424369Y-7522857D01*
X10429131Y-7513333D01*
X10438655Y-7508571D01*
X10457702Y-7508571D01*
X10467226Y-7513333D01*
X10471988Y-7522857D01*
X10471988Y-7532381D01*
X10424369Y-7541905D01*
X10514845Y-7508571D02*
X10514845Y-7575238D01*
X10514845Y-7518095D02*
X10519607Y-7513333D01*
X10529131Y-7508571D01*
X10543417Y-7508571D01*
X10552940Y-7513333D01*
X10557702Y-7522857D01*
X10557702Y-7575238D01*
X10648179Y-7570476D02*
X10638655Y-7575238D01*
X10619607Y-7575238D01*
X10610083Y-7570476D01*
X10605321Y-7565714D01*
X10600560Y-7556190D01*
X10600560Y-7527619D01*
X10605321Y-7518095D01*
X10610083Y-7513333D01*
X10619607Y-7508571D01*
X10638655Y-7508571D01*
X10648179Y-7513333D01*
X10729131Y-7570476D02*
X10719607Y-7575238D01*
X10700560Y-7575238D01*
X10691036Y-7570476D01*
X10686274Y-7560952D01*
X10686274Y-7522857D01*
X10691036Y-7513333D01*
X10700560Y-7508571D01*
X10719607Y-7508571D01*
X10729131Y-7513333D01*
X10733893Y-7522857D01*
X10733893Y-7532381D01*
X10686274Y-7541905D01*
X10867226Y-7575238D02*
X10857702Y-7570476D01*
X10852940Y-7565714D01*
X10848179Y-7556190D01*
X10848179Y-7527619D01*
X10852940Y-7518095D01*
X10857702Y-7513333D01*
X10867226Y-7508571D01*
X10881512Y-7508571D01*
X10891036Y-7513333D01*
X10895798Y-7518095D01*
X10900560Y-7527619D01*
X10900560Y-7556190D01*
X10895798Y-7565714D01*
X10891036Y-7570476D01*
X10881512Y-7575238D01*
X10867226Y-7575238D01*
X10933893Y-7508571D02*
X10957702Y-7575238D01*
X10981512Y-7508571D01*
X11057702Y-7570476D02*
X11048179Y-7575238D01*
X11029131Y-7575238D01*
X11019607Y-7570476D01*
X11014845Y-7560952D01*
X11014845Y-7522857D01*
X11019607Y-7513333D01*
X11029131Y-7508571D01*
X11048179Y-7508571D01*
X11057702Y-7513333D01*
X11062464Y-7522857D01*
X11062464Y-7532381D01*
X11014845Y-7541905D01*
X11105321Y-7575238D02*
X11105321Y-7508571D01*
X11105321Y-7527619D02*
X11110083Y-7518095D01*
X11114845Y-7513333D01*
X11124369Y-7508571D01*
X11133893Y-7508571D01*
X11229131Y-7508571D02*
X11267226Y-7508571D01*
X11243417Y-7475238D02*
X11243417Y-7560952D01*
X11248178Y-7570476D01*
X11257702Y-7575238D01*
X11267226Y-7575238D01*
X11300559Y-7575238D02*
X11300559Y-7475238D01*
X11343417Y-7575238D02*
X11343417Y-7522857D01*
X11338655Y-7513333D01*
X11329131Y-7508571D01*
X11314845Y-7508571D01*
X11305321Y-7513333D01*
X11300559Y-7518095D01*
X11391036Y-7575238D02*
X11391036Y-7508571D01*
X11391036Y-7475238D02*
X11386274Y-7480000D01*
X11391036Y-7484762D01*
X11395798Y-7480000D01*
X11391036Y-7475238D01*
X11391036Y-7484762D01*
X11433893Y-7570476D02*
X11443417Y-7575238D01*
X11462464Y-7575238D01*
X11471988Y-7570476D01*
X11476750Y-7560952D01*
X11476750Y-7556190D01*
X11471988Y-7546667D01*
X11462464Y-7541905D01*
X11448178Y-7541905D01*
X11438655Y-7537143D01*
X11433893Y-7527619D01*
X11433893Y-7522857D01*
X11438655Y-7513333D01*
X11448178Y-7508571D01*
X11462464Y-7508571D01*
X11471988Y-7513333D01*
X11638655Y-7575238D02*
X11638655Y-7475238D01*
X11638655Y-7570476D02*
X11629131Y-7575238D01*
X11610083Y-7575238D01*
X11600559Y-7570476D01*
X11595798Y-7565714D01*
X11591036Y-7556190D01*
X11591036Y-7527619D01*
X11595798Y-7518095D01*
X11600559Y-7513333D01*
X11610083Y-7508571D01*
X11629131Y-7508571D01*
X11638655Y-7513333D01*
X11686274Y-7575238D02*
X11686274Y-7508571D01*
X11686274Y-7527619D02*
X11691036Y-7518095D01*
X11695798Y-7513333D01*
X11705321Y-7508571D01*
X11714845Y-7508571D01*
X11791036Y-7575238D02*
X11791036Y-7522857D01*
X11786274Y-7513333D01*
X11776750Y-7508571D01*
X11757702Y-7508571D01*
X11748178Y-7513333D01*
X11791036Y-7570476D02*
X11781512Y-7575238D01*
X11757702Y-7575238D01*
X11748178Y-7570476D01*
X11743417Y-7560952D01*
X11743417Y-7551428D01*
X11748178Y-7541905D01*
X11757702Y-7537143D01*
X11781512Y-7537143D01*
X11791036Y-7532381D01*
X11829131Y-7508571D02*
X11848178Y-7575238D01*
X11867226Y-7527619D01*
X11886274Y-7575238D01*
X11905321Y-7508571D01*
X11943417Y-7575238D02*
X11943417Y-7508571D01*
X11943417Y-7475238D02*
X11938655Y-7480000D01*
X11943417Y-7484762D01*
X11948178Y-7480000D01*
X11943417Y-7475238D01*
X11943417Y-7484762D01*
X11991036Y-7508571D02*
X11991036Y-7575238D01*
X11991036Y-7518095D02*
X11995798Y-7513333D01*
X12005321Y-7508571D01*
X12019607Y-7508571D01*
X12029131Y-7513333D01*
X12033893Y-7522857D01*
X12033893Y-7575238D01*
X12124369Y-7508571D02*
X12124369Y-7589524D01*
X12119607Y-7599048D01*
X12114845Y-7603809D01*
X12105321Y-7608571D01*
X12091036Y-7608571D01*
X12081512Y-7603809D01*
X12124369Y-7570476D02*
X12114845Y-7575238D01*
X12095798Y-7575238D01*
X12086274Y-7570476D01*
X12081512Y-7565714D01*
X12076750Y-7556190D01*
X12076750Y-7527619D01*
X12081512Y-7518095D01*
X12086274Y-7513333D01*
X12095798Y-7508571D01*
X12114845Y-7508571D01*
X12124369Y-7513333D01*
X12171988Y-7565714D02*
X12176750Y-7570476D01*
X12171988Y-7575238D01*
X12167226Y-7570476D01*
X12171988Y-7565714D01*
X12171988Y-7575238D01*
X1650559Y-7075238D02*
X1650559Y-6975238D01*
X1707702Y-7075238D01*
X1707702Y-6975238D01*
X1769607Y-7075238D02*
X1760083Y-7070476D01*
X1755321Y-7065714D01*
X1750559Y-7056190D01*
X1750559Y-7027619D01*
X1755321Y-7018095D01*
X1760083Y-7013333D01*
X1769607Y-7008571D01*
X1783893Y-7008571D01*
X1793417Y-7013333D01*
X1798178Y-7018095D01*
X1802940Y-7027619D01*
X1802940Y-7056190D01*
X1798178Y-7065714D01*
X1793417Y-7070476D01*
X1783893Y-7075238D01*
X1769607Y-7075238D01*
X1831512Y-7008571D02*
X1869607Y-7008571D01*
X1845798Y-6975238D02*
X1845798Y-7060952D01*
X1850559Y-7070476D01*
X1860083Y-7075238D01*
X1869607Y-7075238D01*
X1941036Y-7070476D02*
X1931512Y-7075238D01*
X1912464Y-7075238D01*
X1902940Y-7070476D01*
X1898178Y-7060952D01*
X1898178Y-7022857D01*
X1902940Y-7013333D01*
X1912464Y-7008571D01*
X1931512Y-7008571D01*
X1941036Y-7013333D01*
X1945798Y-7022857D01*
X1945798Y-7032381D01*
X1898178Y-7041905D01*
X1983893Y-7070476D02*
X1993417Y-7075238D01*
X2012464Y-7075238D01*
X2021988Y-7070476D01*
X2026750Y-7060952D01*
X2026750Y-7056190D01*
X2021988Y-7046667D01*
X2012464Y-7041905D01*
X1998178Y-7041905D01*
X1988655Y-7037143D01*
X1983893Y-7027619D01*
X1983893Y-7022857D01*
X1988655Y-7013333D01*
X1998178Y-7008571D01*
X2012464Y-7008571D01*
X2021988Y-7013333D01*
X2069607Y-7065714D02*
X2074369Y-7070476D01*
X2069607Y-7075238D01*
X2064845Y-7070476D01*
X2069607Y-7065714D01*
X2069607Y-7075238D01*
X2069607Y-7013333D02*
X2074369Y-7018095D01*
X2069607Y-7022857D01*
X2064845Y-7018095D01*
X2069607Y-7013333D01*
X2069607Y-7022857D01*
D16*
X16113571Y-1741809D02*
X16113571Y-1611809D01*
X16187857Y-1741809D01*
X16187857Y-1611809D01*
X16268333Y-1741809D02*
X16255952Y-1735619D01*
X16249762Y-1729428D01*
X16243571Y-1717048D01*
X16243571Y-1679905D01*
X16249762Y-1667524D01*
X16255952Y-1661333D01*
X16268333Y-1655143D01*
X16286905Y-1655143D01*
X16299286Y-1661333D01*
X16305476Y-1667524D01*
X16311667Y-1679905D01*
X16311667Y-1717048D01*
X16305476Y-1729428D01*
X16299286Y-1735619D01*
X16286905Y-1741809D01*
X16268333Y-1741809D01*
X16348809Y-1655143D02*
X16398333Y-1655143D01*
X16367381Y-1611809D02*
X16367381Y-1723238D01*
X16373571Y-1735619D01*
X16385952Y-1741809D01*
X16398333Y-1741809D01*
X16491190Y-1735619D02*
X16478809Y-1741809D01*
X16454048Y-1741809D01*
X16441667Y-1735619D01*
X16435476Y-1723238D01*
X16435476Y-1673714D01*
X16441667Y-1661333D01*
X16454048Y-1655143D01*
X16478809Y-1655143D01*
X16491190Y-1661333D01*
X16497381Y-1673714D01*
X16497381Y-1686095D01*
X16435476Y-1698476D01*
X16546905Y-1735619D02*
X16559286Y-1741809D01*
X16584048Y-1741809D01*
X16596428Y-1735619D01*
X16602619Y-1723238D01*
X16602619Y-1717048D01*
X16596428Y-1704667D01*
X16584048Y-1698476D01*
X16565476Y-1698476D01*
X16553095Y-1692286D01*
X16546905Y-1679905D01*
X16546905Y-1673714D01*
X16553095Y-1661333D01*
X16565476Y-1655143D01*
X16584048Y-1655143D01*
X16596428Y-1661333D01*
X12448095Y-1741809D02*
X12448095Y-1611809D01*
X12479048Y-1611809D01*
X12497619Y-1618000D01*
X12510000Y-1630381D01*
X12516190Y-1642762D01*
X12522381Y-1667524D01*
X12522381Y-1686095D01*
X12516190Y-1710857D01*
X12510000Y-1723238D01*
X12497619Y-1735619D01*
X12479048Y-1741809D01*
X12448095Y-1741809D01*
X12578095Y-1741809D02*
X12578095Y-1655143D01*
X12578095Y-1611809D02*
X12571905Y-1618000D01*
X12578095Y-1624190D01*
X12584286Y-1618000D01*
X12578095Y-1611809D01*
X12578095Y-1624190D01*
X12689524Y-1735619D02*
X12677143Y-1741809D01*
X12652381Y-1741809D01*
X12640000Y-1735619D01*
X12633809Y-1723238D01*
X12633809Y-1673714D01*
X12640000Y-1661333D01*
X12652381Y-1655143D01*
X12677143Y-1655143D01*
X12689524Y-1661333D01*
X12695714Y-1673714D01*
X12695714Y-1686095D01*
X12633809Y-1698476D01*
X12770000Y-1741809D02*
X12757619Y-1735619D01*
X12751428Y-1723238D01*
X12751428Y-1611809D01*
X12869048Y-1735619D02*
X12856667Y-1741809D01*
X12831905Y-1741809D01*
X12819524Y-1735619D01*
X12813333Y-1723238D01*
X12813333Y-1673714D01*
X12819524Y-1661333D01*
X12831905Y-1655143D01*
X12856667Y-1655143D01*
X12869048Y-1661333D01*
X12875238Y-1673714D01*
X12875238Y-1686095D01*
X12813333Y-1698476D01*
X12986667Y-1735619D02*
X12974286Y-1741809D01*
X12949524Y-1741809D01*
X12937143Y-1735619D01*
X12930952Y-1729428D01*
X12924762Y-1717048D01*
X12924762Y-1679905D01*
X12930952Y-1667524D01*
X12937143Y-1661333D01*
X12949524Y-1655143D01*
X12974286Y-1655143D01*
X12986667Y-1661333D01*
X13023809Y-1655143D02*
X13073333Y-1655143D01*
X13042381Y-1611809D02*
X13042381Y-1723238D01*
X13048571Y-1735619D01*
X13060952Y-1741809D01*
X13073333Y-1741809D01*
X13116667Y-1741809D02*
X13116667Y-1655143D01*
X13116667Y-1679905D02*
X13122857Y-1667524D01*
X13129048Y-1661333D01*
X13141428Y-1655143D01*
X13153809Y-1655143D01*
X13197143Y-1741809D02*
X13197143Y-1655143D01*
X13197143Y-1611809D02*
X13190952Y-1618000D01*
X13197143Y-1624190D01*
X13203333Y-1618000D01*
X13197143Y-1611809D01*
X13197143Y-1624190D01*
X13314762Y-1735619D02*
X13302381Y-1741809D01*
X13277619Y-1741809D01*
X13265238Y-1735619D01*
X13259048Y-1729428D01*
X13252857Y-1717048D01*
X13252857Y-1679905D01*
X13259048Y-1667524D01*
X13265238Y-1661333D01*
X13277619Y-1655143D01*
X13302381Y-1655143D01*
X13314762Y-1661333D01*
X13543809Y-1729428D02*
X13537619Y-1735619D01*
X13519048Y-1741809D01*
X13506667Y-1741809D01*
X13488095Y-1735619D01*
X13475714Y-1723238D01*
X13469524Y-1710857D01*
X13463333Y-1686095D01*
X13463333Y-1667524D01*
X13469524Y-1642762D01*
X13475714Y-1630381D01*
X13488095Y-1618000D01*
X13506667Y-1611809D01*
X13519048Y-1611809D01*
X13537619Y-1618000D01*
X13543809Y-1624190D01*
X13618095Y-1741809D02*
X13605714Y-1735619D01*
X13599524Y-1729428D01*
X13593333Y-1717048D01*
X13593333Y-1679905D01*
X13599524Y-1667524D01*
X13605714Y-1661333D01*
X13618095Y-1655143D01*
X13636667Y-1655143D01*
X13649048Y-1661333D01*
X13655238Y-1667524D01*
X13661428Y-1679905D01*
X13661428Y-1717048D01*
X13655238Y-1729428D01*
X13649048Y-1735619D01*
X13636667Y-1741809D01*
X13618095Y-1741809D01*
X13717143Y-1655143D02*
X13717143Y-1741809D01*
X13717143Y-1667524D02*
X13723333Y-1661333D01*
X13735714Y-1655143D01*
X13754286Y-1655143D01*
X13766667Y-1661333D01*
X13772857Y-1673714D01*
X13772857Y-1741809D01*
X13828571Y-1735619D02*
X13840952Y-1741809D01*
X13865714Y-1741809D01*
X13878095Y-1735619D01*
X13884286Y-1723238D01*
X13884286Y-1717048D01*
X13878095Y-1704667D01*
X13865714Y-1698476D01*
X13847143Y-1698476D01*
X13834762Y-1692286D01*
X13828571Y-1679905D01*
X13828571Y-1673714D01*
X13834762Y-1661333D01*
X13847143Y-1655143D01*
X13865714Y-1655143D01*
X13878095Y-1661333D01*
X13921428Y-1655143D02*
X13970952Y-1655143D01*
X13940000Y-1611809D02*
X13940000Y-1723238D01*
X13946190Y-1735619D01*
X13958571Y-1741809D01*
X13970952Y-1741809D01*
X14070000Y-1741809D02*
X14070000Y-1673714D01*
X14063809Y-1661333D01*
X14051428Y-1655143D01*
X14026667Y-1655143D01*
X14014286Y-1661333D01*
X14070000Y-1735619D02*
X14057619Y-1741809D01*
X14026667Y-1741809D01*
X14014286Y-1735619D01*
X14008095Y-1723238D01*
X14008095Y-1710857D01*
X14014286Y-1698476D01*
X14026667Y-1692286D01*
X14057619Y-1692286D01*
X14070000Y-1686095D01*
X14131905Y-1655143D02*
X14131905Y-1741809D01*
X14131905Y-1667524D02*
X14138095Y-1661333D01*
X14150476Y-1655143D01*
X14169048Y-1655143D01*
X14181428Y-1661333D01*
X14187619Y-1673714D01*
X14187619Y-1741809D01*
X14230952Y-1655143D02*
X14280476Y-1655143D01*
X14249524Y-1611809D02*
X14249524Y-1723238D01*
X14255714Y-1735619D01*
X14268095Y-1741809D01*
X14280476Y-1741809D01*
X10590476Y-1611809D02*
X10664762Y-1611809D01*
X10627619Y-1741809D02*
X10627619Y-1611809D01*
X10708095Y-1741809D02*
X10708095Y-1611809D01*
X10763810Y-1741809D02*
X10763810Y-1673714D01*
X10757619Y-1661333D01*
X10745238Y-1655143D01*
X10726667Y-1655143D01*
X10714286Y-1661333D01*
X10708095Y-1667524D01*
X10825714Y-1741809D02*
X10825714Y-1655143D01*
X10825714Y-1611809D02*
X10819524Y-1618000D01*
X10825714Y-1624190D01*
X10831905Y-1618000D01*
X10825714Y-1611809D01*
X10825714Y-1624190D01*
X10943333Y-1735619D02*
X10930952Y-1741809D01*
X10906190Y-1741809D01*
X10893810Y-1735619D01*
X10887619Y-1729428D01*
X10881429Y-1717048D01*
X10881429Y-1679905D01*
X10887619Y-1667524D01*
X10893810Y-1661333D01*
X10906190Y-1655143D01*
X10930952Y-1655143D01*
X10943333Y-1661333D01*
X10999048Y-1741809D02*
X10999048Y-1611809D01*
X11011429Y-1692286D02*
X11048571Y-1741809D01*
X11048571Y-1655143D02*
X10999048Y-1704667D01*
X11104286Y-1655143D02*
X11104286Y-1741809D01*
X11104286Y-1667524D02*
X11110476Y-1661333D01*
X11122857Y-1655143D01*
X11141429Y-1655143D01*
X11153810Y-1661333D01*
X11160000Y-1673714D01*
X11160000Y-1741809D01*
X11271428Y-1735619D02*
X11259048Y-1741809D01*
X11234286Y-1741809D01*
X11221905Y-1735619D01*
X11215714Y-1723238D01*
X11215714Y-1673714D01*
X11221905Y-1661333D01*
X11234286Y-1655143D01*
X11259048Y-1655143D01*
X11271428Y-1661333D01*
X11277619Y-1673714D01*
X11277619Y-1686095D01*
X11215714Y-1698476D01*
X11327143Y-1735619D02*
X11339524Y-1741809D01*
X11364286Y-1741809D01*
X11376667Y-1735619D01*
X11382857Y-1723238D01*
X11382857Y-1717048D01*
X11376667Y-1704667D01*
X11364286Y-1698476D01*
X11345714Y-1698476D01*
X11333333Y-1692286D01*
X11327143Y-1679905D01*
X11327143Y-1673714D01*
X11333333Y-1661333D01*
X11345714Y-1655143D01*
X11364286Y-1655143D01*
X11376667Y-1661333D01*
X11432381Y-1735619D02*
X11444762Y-1741809D01*
X11469524Y-1741809D01*
X11481905Y-1735619D01*
X11488095Y-1723238D01*
X11488095Y-1717048D01*
X11481905Y-1704667D01*
X11469524Y-1698476D01*
X11450952Y-1698476D01*
X11438571Y-1692286D01*
X11432381Y-1679905D01*
X11432381Y-1673714D01*
X11438571Y-1661333D01*
X11450952Y-1655143D01*
X11469524Y-1655143D01*
X11481905Y-1661333D01*
X11680000Y-1791333D02*
X11673809Y-1785143D01*
X11661428Y-1766571D01*
X11655238Y-1754190D01*
X11649048Y-1735619D01*
X11642857Y-1704667D01*
X11642857Y-1679905D01*
X11649048Y-1648952D01*
X11655238Y-1630381D01*
X11661428Y-1618000D01*
X11673809Y-1599428D01*
X11680000Y-1593238D01*
X11729524Y-1741809D02*
X11729524Y-1655143D01*
X11729524Y-1667524D02*
X11735714Y-1661333D01*
X11748095Y-1655143D01*
X11766667Y-1655143D01*
X11779048Y-1661333D01*
X11785238Y-1673714D01*
X11785238Y-1741809D01*
X11785238Y-1673714D02*
X11791428Y-1661333D01*
X11803809Y-1655143D01*
X11822381Y-1655143D01*
X11834762Y-1661333D01*
X11840952Y-1673714D01*
X11840952Y-1741809D01*
X11902857Y-1741809D02*
X11902857Y-1655143D01*
X11902857Y-1667524D02*
X11909048Y-1661333D01*
X11921428Y-1655143D01*
X11940000Y-1655143D01*
X11952381Y-1661333D01*
X11958571Y-1673714D01*
X11958571Y-1741809D01*
X11958571Y-1673714D02*
X11964762Y-1661333D01*
X11977143Y-1655143D01*
X11995714Y-1655143D01*
X12008095Y-1661333D01*
X12014286Y-1673714D01*
X12014286Y-1741809D01*
X12063809Y-1791333D02*
X12070000Y-1785143D01*
X12082381Y-1766571D01*
X12088571Y-1754190D01*
X12094762Y-1735619D01*
X12100952Y-1704667D01*
X12100952Y-1679905D01*
X12094762Y-1648952D01*
X12088571Y-1630381D01*
X12082381Y-1618000D01*
X12070000Y-1599428D01*
X12063809Y-1593238D01*
X8559524Y-1741809D02*
X8497619Y-1741809D01*
X8497619Y-1611809D01*
X8658571Y-1741809D02*
X8658571Y-1673714D01*
X8652381Y-1661333D01*
X8640000Y-1655143D01*
X8615238Y-1655143D01*
X8602857Y-1661333D01*
X8658571Y-1735619D02*
X8646190Y-1741809D01*
X8615238Y-1741809D01*
X8602857Y-1735619D01*
X8596667Y-1723238D01*
X8596667Y-1710857D01*
X8602857Y-1698476D01*
X8615238Y-1692286D01*
X8646190Y-1692286D01*
X8658571Y-1686095D01*
X8708095Y-1655143D02*
X8739048Y-1741809D01*
X8770000Y-1655143D02*
X8739048Y-1741809D01*
X8726667Y-1772762D01*
X8720476Y-1778952D01*
X8708095Y-1785143D01*
X8869048Y-1735619D02*
X8856667Y-1741809D01*
X8831905Y-1741809D01*
X8819524Y-1735619D01*
X8813333Y-1723238D01*
X8813333Y-1673714D01*
X8819524Y-1661333D01*
X8831905Y-1655143D01*
X8856667Y-1655143D01*
X8869048Y-1661333D01*
X8875238Y-1673714D01*
X8875238Y-1686095D01*
X8813333Y-1698476D01*
X8930952Y-1741809D02*
X8930952Y-1655143D01*
X8930952Y-1679905D02*
X8937143Y-1667524D01*
X8943333Y-1661333D01*
X8955714Y-1655143D01*
X8968095Y-1655143D01*
X9147619Y-1791333D02*
X9141429Y-1785143D01*
X9129048Y-1766571D01*
X9122857Y-1754190D01*
X9116667Y-1735619D01*
X9110476Y-1704667D01*
X9110476Y-1679905D01*
X9116667Y-1648952D01*
X9122857Y-1630381D01*
X9129048Y-1618000D01*
X9141429Y-1599428D01*
X9147619Y-1593238D01*
X9240476Y-1673714D02*
X9197143Y-1673714D01*
X9197143Y-1741809D02*
X9197143Y-1611809D01*
X9259048Y-1611809D01*
X9308571Y-1741809D02*
X9308571Y-1655143D01*
X9308571Y-1611809D02*
X9302381Y-1618000D01*
X9308571Y-1624190D01*
X9314762Y-1618000D01*
X9308571Y-1611809D01*
X9308571Y-1624190D01*
X9389048Y-1741809D02*
X9376667Y-1735619D01*
X9370476Y-1723238D01*
X9370476Y-1611809D01*
X9488095Y-1735619D02*
X9475714Y-1741809D01*
X9450952Y-1741809D01*
X9438571Y-1735619D01*
X9432381Y-1723238D01*
X9432381Y-1673714D01*
X9438571Y-1661333D01*
X9450952Y-1655143D01*
X9475714Y-1655143D01*
X9488095Y-1661333D01*
X9494286Y-1673714D01*
X9494286Y-1686095D01*
X9432381Y-1698476D01*
X9537619Y-1791333D02*
X9543810Y-1785143D01*
X9556190Y-1766571D01*
X9562381Y-1754190D01*
X9568571Y-1735619D01*
X9574762Y-1704667D01*
X9574762Y-1679905D01*
X9568571Y-1648952D01*
X9562381Y-1630381D01*
X9556190Y-1618000D01*
X9543810Y-1599428D01*
X9537619Y-1593238D01*
X9735714Y-1741809D02*
X9735714Y-1611809D01*
X9810000Y-1741809D01*
X9810000Y-1611809D01*
X9927619Y-1741809D02*
X9927619Y-1673714D01*
X9921429Y-1661333D01*
X9909048Y-1655143D01*
X9884286Y-1655143D01*
X9871905Y-1661333D01*
X9927619Y-1735619D02*
X9915238Y-1741809D01*
X9884286Y-1741809D01*
X9871905Y-1735619D01*
X9865714Y-1723238D01*
X9865714Y-1710857D01*
X9871905Y-1698476D01*
X9884286Y-1692286D01*
X9915238Y-1692286D01*
X9927619Y-1686095D01*
X9989524Y-1741809D02*
X9989524Y-1655143D01*
X9989524Y-1667524D02*
X9995714Y-1661333D01*
X10008095Y-1655143D01*
X10026667Y-1655143D01*
X10039048Y-1661333D01*
X10045238Y-1673714D01*
X10045238Y-1741809D01*
X10045238Y-1673714D02*
X10051429Y-1661333D01*
X10063810Y-1655143D01*
X10082381Y-1655143D01*
X10094762Y-1661333D01*
X10100952Y-1673714D01*
X10100952Y-1741809D01*
X10212381Y-1735619D02*
X10200000Y-1741809D01*
X10175238Y-1741809D01*
X10162857Y-1735619D01*
X10156667Y-1723238D01*
X10156667Y-1673714D01*
X10162857Y-1661333D01*
X10175238Y-1655143D01*
X10200000Y-1655143D01*
X10212381Y-1661333D01*
X10218571Y-1673714D01*
X10218571Y-1686095D01*
X10156667Y-1698476D01*
X5901667Y-1741809D02*
X5839762Y-1741809D01*
X5839762Y-1611809D01*
X6000714Y-1741809D02*
X6000714Y-1673714D01*
X5994524Y-1661333D01*
X5982143Y-1655143D01*
X5957381Y-1655143D01*
X5945000Y-1661333D01*
X6000714Y-1735619D02*
X5988333Y-1741809D01*
X5957381Y-1741809D01*
X5945000Y-1735619D01*
X5938809Y-1723238D01*
X5938809Y-1710857D01*
X5945000Y-1698476D01*
X5957381Y-1692286D01*
X5988333Y-1692286D01*
X6000714Y-1686095D01*
X6050238Y-1655143D02*
X6081190Y-1741809D01*
X6112143Y-1655143D02*
X6081190Y-1741809D01*
X6068809Y-1772762D01*
X6062619Y-1778952D01*
X6050238Y-1785143D01*
X6211190Y-1735619D02*
X6198809Y-1741809D01*
X6174048Y-1741809D01*
X6161667Y-1735619D01*
X6155476Y-1723238D01*
X6155476Y-1673714D01*
X6161667Y-1661333D01*
X6174048Y-1655143D01*
X6198809Y-1655143D01*
X6211190Y-1661333D01*
X6217381Y-1673714D01*
X6217381Y-1686095D01*
X6155476Y-1698476D01*
X6273095Y-1741809D02*
X6273095Y-1655143D01*
X6273095Y-1679905D02*
X6279286Y-1667524D01*
X6285476Y-1661333D01*
X6297857Y-1655143D01*
X6310238Y-1655143D01*
X6489762Y-1791333D02*
X6483571Y-1785143D01*
X6471190Y-1766571D01*
X6465000Y-1754190D01*
X6458809Y-1735619D01*
X6452619Y-1704667D01*
X6452619Y-1679905D01*
X6458809Y-1648952D01*
X6465000Y-1630381D01*
X6471190Y-1618000D01*
X6483571Y-1599428D01*
X6489762Y-1593238D01*
X6539286Y-1741809D02*
X6539286Y-1611809D01*
X6582619Y-1704667D01*
X6625952Y-1611809D01*
X6625952Y-1741809D01*
X6743571Y-1741809D02*
X6743571Y-1673714D01*
X6737381Y-1661333D01*
X6725000Y-1655143D01*
X6700238Y-1655143D01*
X6687857Y-1661333D01*
X6743571Y-1735619D02*
X6731190Y-1741809D01*
X6700238Y-1741809D01*
X6687857Y-1735619D01*
X6681667Y-1723238D01*
X6681667Y-1710857D01*
X6687857Y-1698476D01*
X6700238Y-1692286D01*
X6731190Y-1692286D01*
X6743571Y-1686095D01*
X6786905Y-1655143D02*
X6836428Y-1655143D01*
X6805476Y-1611809D02*
X6805476Y-1723238D01*
X6811667Y-1735619D01*
X6824048Y-1741809D01*
X6836428Y-1741809D01*
X6929286Y-1735619D02*
X6916905Y-1741809D01*
X6892143Y-1741809D01*
X6879762Y-1735619D01*
X6873571Y-1723238D01*
X6873571Y-1673714D01*
X6879762Y-1661333D01*
X6892143Y-1655143D01*
X6916905Y-1655143D01*
X6929286Y-1661333D01*
X6935476Y-1673714D01*
X6935476Y-1686095D01*
X6873571Y-1698476D01*
X6991190Y-1741809D02*
X6991190Y-1655143D01*
X6991190Y-1679905D02*
X6997381Y-1667524D01*
X7003571Y-1661333D01*
X7015952Y-1655143D01*
X7028333Y-1655143D01*
X7071667Y-1741809D02*
X7071667Y-1655143D01*
X7071667Y-1611809D02*
X7065476Y-1618000D01*
X7071667Y-1624190D01*
X7077857Y-1618000D01*
X7071667Y-1611809D01*
X7071667Y-1624190D01*
X7189286Y-1741809D02*
X7189286Y-1673714D01*
X7183095Y-1661333D01*
X7170714Y-1655143D01*
X7145952Y-1655143D01*
X7133571Y-1661333D01*
X7189286Y-1735619D02*
X7176905Y-1741809D01*
X7145952Y-1741809D01*
X7133571Y-1735619D01*
X7127381Y-1723238D01*
X7127381Y-1710857D01*
X7133571Y-1698476D01*
X7145952Y-1692286D01*
X7176905Y-1692286D01*
X7189286Y-1686095D01*
X7269762Y-1741809D02*
X7257381Y-1735619D01*
X7251190Y-1723238D01*
X7251190Y-1611809D01*
X7306905Y-1791333D02*
X7313095Y-1785143D01*
X7325476Y-1766571D01*
X7331667Y-1754190D01*
X7337857Y-1735619D01*
X7344048Y-1704667D01*
X7344048Y-1679905D01*
X7337857Y-1648952D01*
X7331667Y-1630381D01*
X7325476Y-1618000D01*
X7313095Y-1599428D01*
X7306905Y-1593238D01*
X7486428Y-1611809D02*
X7560714Y-1611809D01*
X7523571Y-1741809D02*
X7523571Y-1611809D01*
X7591667Y-1655143D02*
X7622619Y-1741809D01*
X7653571Y-1655143D02*
X7622619Y-1741809D01*
X7610238Y-1772762D01*
X7604048Y-1778952D01*
X7591667Y-1785143D01*
X7703095Y-1655143D02*
X7703095Y-1785143D01*
X7703095Y-1661333D02*
X7715476Y-1655143D01*
X7740238Y-1655143D01*
X7752619Y-1661333D01*
X7758809Y-1667524D01*
X7765000Y-1679905D01*
X7765000Y-1717048D01*
X7758809Y-1729428D01*
X7752619Y-1735619D01*
X7740238Y-1741809D01*
X7715476Y-1741809D01*
X7703095Y-1735619D01*
X7870238Y-1735619D02*
X7857857Y-1741809D01*
X7833095Y-1741809D01*
X7820714Y-1735619D01*
X7814524Y-1723238D01*
X7814524Y-1673714D01*
X7820714Y-1661333D01*
X7833095Y-1655143D01*
X7857857Y-1655143D01*
X7870238Y-1661333D01*
X7876428Y-1673714D01*
X7876428Y-1686095D01*
X7814524Y-1698476D01*
D10*
X11088333Y-6127238D02*
X11097857Y-6127238D01*
X11107381Y-6132000D01*
X11112143Y-6136762D01*
X11116905Y-6146286D01*
X11121667Y-6165333D01*
X11121667Y-6189143D01*
X11116905Y-6208190D01*
X11112143Y-6217714D01*
X11107381Y-6222476D01*
X11097857Y-6227238D01*
X11088333Y-6227238D01*
X11078810Y-6222476D01*
X11074048Y-6217714D01*
X11069286Y-6208190D01*
X11064524Y-6189143D01*
X11064524Y-6165333D01*
X11069286Y-6146286D01*
X11074048Y-6136762D01*
X11078810Y-6132000D01*
X11088333Y-6127238D01*
X11164524Y-6217714D02*
X11169286Y-6222476D01*
X11164524Y-6227238D01*
X11159762Y-6222476D01*
X11164524Y-6217714D01*
X11164524Y-6227238D01*
X11231190Y-6127238D02*
X11240714Y-6127238D01*
X11250238Y-6132000D01*
X11255000Y-6136762D01*
X11259762Y-6146286D01*
X11264524Y-6165333D01*
X11264524Y-6189143D01*
X11259762Y-6208190D01*
X11255000Y-6217714D01*
X11250238Y-6222476D01*
X11240714Y-6227238D01*
X11231190Y-6227238D01*
X11221667Y-6222476D01*
X11216905Y-6217714D01*
X11212143Y-6208190D01*
X11207381Y-6189143D01*
X11207381Y-6165333D01*
X11212143Y-6146286D01*
X11216905Y-6136762D01*
X11221667Y-6132000D01*
X11231190Y-6127238D01*
X11326428Y-6127238D02*
X11335952Y-6127238D01*
X11345476Y-6132000D01*
X11350238Y-6136762D01*
X11355000Y-6146286D01*
X11359762Y-6165333D01*
X11359762Y-6189143D01*
X11355000Y-6208190D01*
X11350238Y-6217714D01*
X11345476Y-6222476D01*
X11335952Y-6227238D01*
X11326428Y-6227238D01*
X11316905Y-6222476D01*
X11312143Y-6217714D01*
X11307381Y-6208190D01*
X11302619Y-6189143D01*
X11302619Y-6165333D01*
X11307381Y-6146286D01*
X11312143Y-6136762D01*
X11316905Y-6132000D01*
X11326428Y-6127238D01*
X11393095Y-6127238D02*
X11459762Y-6127238D01*
X11416905Y-6227238D01*
X11540714Y-6127238D02*
X11521667Y-6127238D01*
X11512143Y-6132000D01*
X11507381Y-6136762D01*
X11497857Y-6151048D01*
X11493095Y-6170095D01*
X11493095Y-6208190D01*
X11497857Y-6217714D01*
X11502619Y-6222476D01*
X11512143Y-6227238D01*
X11531190Y-6227238D01*
X11540714Y-6222476D01*
X11545476Y-6217714D01*
X11550238Y-6208190D01*
X11550238Y-6184381D01*
X11545476Y-6174857D01*
X11540714Y-6170095D01*
X11531190Y-6165333D01*
X11512143Y-6165333D01*
X11502619Y-6170095D01*
X11497857Y-6174857D01*
X11493095Y-6184381D01*
X11588333Y-6136762D02*
X11593095Y-6132000D01*
X11602619Y-6127238D01*
X11626428Y-6127238D01*
X11635952Y-6132000D01*
X11640714Y-6136762D01*
X11645476Y-6146286D01*
X11645476Y-6155809D01*
X11640714Y-6170095D01*
X11583571Y-6227238D01*
X11645476Y-6227238D01*
X11135952Y-5627238D02*
X11145476Y-5627238D01*
X11155000Y-5632000D01*
X11159762Y-5636762D01*
X11164524Y-5646286D01*
X11169286Y-5665333D01*
X11169286Y-5689143D01*
X11164524Y-5708190D01*
X11159762Y-5717714D01*
X11155000Y-5722476D01*
X11145476Y-5727238D01*
X11135952Y-5727238D01*
X11126429Y-5722476D01*
X11121667Y-5717714D01*
X11116905Y-5708190D01*
X11112143Y-5689143D01*
X11112143Y-5665333D01*
X11116905Y-5646286D01*
X11121667Y-5636762D01*
X11126429Y-5632000D01*
X11135952Y-5627238D01*
X11212143Y-5717714D02*
X11216905Y-5722476D01*
X11212143Y-5727238D01*
X11207381Y-5722476D01*
X11212143Y-5717714D01*
X11212143Y-5727238D01*
X11278809Y-5627238D02*
X11288333Y-5627238D01*
X11297857Y-5632000D01*
X11302619Y-5636762D01*
X11307381Y-5646286D01*
X11312143Y-5665333D01*
X11312143Y-5689143D01*
X11307381Y-5708190D01*
X11302619Y-5717714D01*
X11297857Y-5722476D01*
X11288333Y-5727238D01*
X11278809Y-5727238D01*
X11269286Y-5722476D01*
X11264524Y-5717714D01*
X11259762Y-5708190D01*
X11255000Y-5689143D01*
X11255000Y-5665333D01*
X11259762Y-5646286D01*
X11264524Y-5636762D01*
X11269286Y-5632000D01*
X11278809Y-5627238D01*
X11407381Y-5727238D02*
X11350238Y-5727238D01*
X11378809Y-5727238D02*
X11378809Y-5627238D01*
X11369286Y-5641524D01*
X11359762Y-5651048D01*
X11350238Y-5655809D01*
X11445476Y-5636762D02*
X11450238Y-5632000D01*
X11459762Y-5627238D01*
X11483571Y-5627238D01*
X11493095Y-5632000D01*
X11497857Y-5636762D01*
X11502619Y-5646286D01*
X11502619Y-5655809D01*
X11497857Y-5670095D01*
X11440714Y-5727238D01*
X11502619Y-5727238D01*
X11535952Y-5627238D02*
X11602619Y-5627238D01*
X11559762Y-5727238D01*
X11183571Y-5127238D02*
X11193095Y-5127238D01*
X11202619Y-5132000D01*
X11207381Y-5136762D01*
X11212143Y-5146286D01*
X11216905Y-5165333D01*
X11216905Y-5189143D01*
X11212143Y-5208190D01*
X11207381Y-5217714D01*
X11202619Y-5222476D01*
X11193095Y-5227238D01*
X11183571Y-5227238D01*
X11174048Y-5222476D01*
X11169286Y-5217714D01*
X11164524Y-5208190D01*
X11159762Y-5189143D01*
X11159762Y-5165333D01*
X11164524Y-5146286D01*
X11169286Y-5136762D01*
X11174048Y-5132000D01*
X11183571Y-5127238D01*
X11259762Y-5217714D02*
X11264524Y-5222476D01*
X11259762Y-5227238D01*
X11255000Y-5222476D01*
X11259762Y-5217714D01*
X11259762Y-5227238D01*
X11326428Y-5127238D02*
X11335952Y-5127238D01*
X11345476Y-5132000D01*
X11350238Y-5136762D01*
X11355000Y-5146286D01*
X11359762Y-5165333D01*
X11359762Y-5189143D01*
X11355000Y-5208190D01*
X11350238Y-5217714D01*
X11345476Y-5222476D01*
X11335952Y-5227238D01*
X11326428Y-5227238D01*
X11316905Y-5222476D01*
X11312143Y-5217714D01*
X11307381Y-5208190D01*
X11302619Y-5189143D01*
X11302619Y-5165333D01*
X11307381Y-5146286D01*
X11312143Y-5136762D01*
X11316905Y-5132000D01*
X11326428Y-5127238D01*
X11393095Y-5127238D02*
X11455000Y-5127238D01*
X11421667Y-5165333D01*
X11435952Y-5165333D01*
X11445476Y-5170095D01*
X11450238Y-5174857D01*
X11455000Y-5184381D01*
X11455000Y-5208190D01*
X11450238Y-5217714D01*
X11445476Y-5222476D01*
X11435952Y-5227238D01*
X11407381Y-5227238D01*
X11397857Y-5222476D01*
X11393095Y-5217714D01*
X11545476Y-5127238D02*
X11497857Y-5127238D01*
X11493095Y-5174857D01*
X11497857Y-5170095D01*
X11507381Y-5165333D01*
X11531190Y-5165333D01*
X11540714Y-5170095D01*
X11545476Y-5174857D01*
X11550238Y-5184381D01*
X11550238Y-5208190D01*
X11545476Y-5217714D01*
X11540714Y-5222476D01*
X11531190Y-5227238D01*
X11507381Y-5227238D01*
X11497857Y-5222476D01*
X11493095Y-5217714D01*
X11312143Y-4227238D02*
X11255000Y-4227238D01*
X11283571Y-4227238D02*
X11283571Y-4127238D01*
X11274048Y-4141524D01*
X11264524Y-4151048D01*
X11255000Y-4155809D01*
X11355000Y-4217714D02*
X11359762Y-4222476D01*
X11355000Y-4227238D01*
X11350238Y-4222476D01*
X11355000Y-4217714D01*
X11355000Y-4227238D01*
X11445476Y-4127238D02*
X11426428Y-4127238D01*
X11416905Y-4132000D01*
X11412143Y-4136762D01*
X11402619Y-4151048D01*
X11397857Y-4170095D01*
X11397857Y-4208190D01*
X11402619Y-4217714D01*
X11407381Y-4222476D01*
X11416905Y-4227238D01*
X11435952Y-4227238D01*
X11445476Y-4222476D01*
X11450238Y-4217714D01*
X11455000Y-4208190D01*
X11455000Y-4184381D01*
X11450238Y-4174857D01*
X11445476Y-4170095D01*
X11435952Y-4165333D01*
X11416905Y-4165333D01*
X11407381Y-4170095D01*
X11402619Y-4174857D01*
X11397857Y-4184381D01*
X9069286Y-4189143D02*
X9145476Y-4189143D01*
X9193095Y-4189143D02*
X9269286Y-4189143D01*
X9316905Y-4189143D02*
X9393095Y-4189143D01*
X9440714Y-4189143D02*
X9516905Y-4189143D01*
X9564524Y-4189143D02*
X9640714Y-4189143D01*
X9200238Y-6174857D02*
X9214524Y-6179619D01*
X9219286Y-6184381D01*
X9224048Y-6193905D01*
X9224048Y-6208190D01*
X9219286Y-6217714D01*
X9214524Y-6222476D01*
X9205000Y-6227238D01*
X9166905Y-6227238D01*
X9166905Y-6127238D01*
X9200238Y-6127238D01*
X9209762Y-6132000D01*
X9214524Y-6136762D01*
X9219286Y-6146286D01*
X9219286Y-6155809D01*
X9214524Y-6165333D01*
X9209762Y-6170095D01*
X9200238Y-6174857D01*
X9166905Y-6174857D01*
X9266905Y-6217714D02*
X9271667Y-6222476D01*
X9266905Y-6227238D01*
X9262143Y-6222476D01*
X9266905Y-6217714D01*
X9266905Y-6227238D01*
X9309762Y-6222476D02*
X9324048Y-6227238D01*
X9347857Y-6227238D01*
X9357381Y-6222476D01*
X9362143Y-6217714D01*
X9366905Y-6208190D01*
X9366905Y-6198667D01*
X9362143Y-6189143D01*
X9357381Y-6184381D01*
X9347857Y-6179619D01*
X9328810Y-6174857D01*
X9319286Y-6170095D01*
X9314524Y-6165333D01*
X9309762Y-6155809D01*
X9309762Y-6146286D01*
X9314524Y-6136762D01*
X9319286Y-6132000D01*
X9328810Y-6127238D01*
X9352619Y-6127238D01*
X9366905Y-6132000D01*
X9409762Y-6227238D02*
X9409762Y-6160571D01*
X9409762Y-6127238D02*
X9405000Y-6132000D01*
X9409762Y-6136762D01*
X9414524Y-6132000D01*
X9409762Y-6127238D01*
X9409762Y-6136762D01*
X9471667Y-6227238D02*
X9462143Y-6222476D01*
X9457381Y-6212952D01*
X9457381Y-6127238D01*
X9509762Y-6227238D02*
X9509762Y-6127238D01*
X9519286Y-6189143D02*
X9547857Y-6227238D01*
X9547857Y-6160571D02*
X9509762Y-6198667D01*
X9155000Y-5674857D02*
X9169286Y-5679619D01*
X9174048Y-5684381D01*
X9178810Y-5693905D01*
X9178810Y-5708190D01*
X9174048Y-5717714D01*
X9169286Y-5722476D01*
X9159762Y-5727238D01*
X9121667Y-5727238D01*
X9121667Y-5627238D01*
X9155000Y-5627238D01*
X9164524Y-5632000D01*
X9169286Y-5636762D01*
X9174048Y-5646286D01*
X9174048Y-5655809D01*
X9169286Y-5665333D01*
X9164524Y-5670095D01*
X9155000Y-5674857D01*
X9121667Y-5674857D01*
X9221667Y-5717714D02*
X9226429Y-5722476D01*
X9221667Y-5727238D01*
X9216905Y-5722476D01*
X9221667Y-5717714D01*
X9221667Y-5727238D01*
X9269286Y-5727238D02*
X9269286Y-5627238D01*
X9302619Y-5698667D01*
X9335952Y-5627238D01*
X9335952Y-5727238D01*
X9426429Y-5727238D02*
X9426429Y-5674857D01*
X9421667Y-5665333D01*
X9412143Y-5660571D01*
X9393095Y-5660571D01*
X9383571Y-5665333D01*
X9426429Y-5722476D02*
X9416905Y-5727238D01*
X9393095Y-5727238D01*
X9383571Y-5722476D01*
X9378810Y-5712952D01*
X9378810Y-5703428D01*
X9383571Y-5693905D01*
X9393095Y-5689143D01*
X9416905Y-5689143D01*
X9426429Y-5684381D01*
X9469286Y-5722476D02*
X9478810Y-5727238D01*
X9497857Y-5727238D01*
X9507381Y-5722476D01*
X9512143Y-5712952D01*
X9512143Y-5708190D01*
X9507381Y-5698667D01*
X9497857Y-5693905D01*
X9483571Y-5693905D01*
X9474048Y-5689143D01*
X9469286Y-5679619D01*
X9469286Y-5674857D01*
X9474048Y-5665333D01*
X9483571Y-5660571D01*
X9497857Y-5660571D01*
X9507381Y-5665333D01*
X9555000Y-5727238D02*
X9555000Y-5627238D01*
X9564524Y-5689143D02*
X9593095Y-5727238D01*
X9593095Y-5660571D02*
X9555000Y-5698667D01*
X9243095Y-5174857D02*
X9257381Y-5179619D01*
X9262143Y-5184381D01*
X9266905Y-5193905D01*
X9266905Y-5208190D01*
X9262143Y-5217714D01*
X9257381Y-5222476D01*
X9247857Y-5227238D01*
X9209762Y-5227238D01*
X9209762Y-5127238D01*
X9243095Y-5127238D01*
X9252619Y-5132000D01*
X9257381Y-5136762D01*
X9262143Y-5146286D01*
X9262143Y-5155810D01*
X9257381Y-5165333D01*
X9252619Y-5170095D01*
X9243095Y-5174857D01*
X9209762Y-5174857D01*
X9309762Y-5217714D02*
X9314524Y-5222476D01*
X9309762Y-5227238D01*
X9305000Y-5222476D01*
X9309762Y-5217714D01*
X9309762Y-5227238D01*
X9414524Y-5217714D02*
X9409762Y-5222476D01*
X9395476Y-5227238D01*
X9385952Y-5227238D01*
X9371667Y-5222476D01*
X9362143Y-5212952D01*
X9357381Y-5203429D01*
X9352619Y-5184381D01*
X9352619Y-5170095D01*
X9357381Y-5151048D01*
X9362143Y-5141524D01*
X9371667Y-5132000D01*
X9385952Y-5127238D01*
X9395476Y-5127238D01*
X9409762Y-5132000D01*
X9414524Y-5136762D01*
X9500238Y-5160571D02*
X9500238Y-5227238D01*
X9457381Y-5160571D02*
X9457381Y-5212952D01*
X9462143Y-5222476D01*
X9471667Y-5227238D01*
X9485952Y-5227238D01*
X9495476Y-5222476D01*
X9500238Y-5217714D01*
X6490714Y-6222476D02*
X6505000Y-6227238D01*
X6528809Y-6227238D01*
X6538333Y-6222476D01*
X6543095Y-6217714D01*
X6547857Y-6208190D01*
X6547857Y-6198667D01*
X6543095Y-6189143D01*
X6538333Y-6184381D01*
X6528809Y-6179619D01*
X6509762Y-6174857D01*
X6500238Y-6170095D01*
X6495476Y-6165333D01*
X6490714Y-6155809D01*
X6490714Y-6146286D01*
X6495476Y-6136762D01*
X6500238Y-6132000D01*
X6509762Y-6127238D01*
X6533571Y-6127238D01*
X6547857Y-6132000D01*
X6590714Y-6227238D02*
X6590714Y-6160571D01*
X6590714Y-6127238D02*
X6585952Y-6132000D01*
X6590714Y-6136762D01*
X6595476Y-6132000D01*
X6590714Y-6127238D01*
X6590714Y-6136762D01*
X6652619Y-6227238D02*
X6643095Y-6222476D01*
X6638333Y-6212952D01*
X6638333Y-6127238D01*
X6690714Y-6227238D02*
X6690714Y-6127238D01*
X6700238Y-6189143D02*
X6728809Y-6227238D01*
X6728809Y-6160571D02*
X6690714Y-6198667D01*
X6766905Y-6222476D02*
X6776428Y-6227238D01*
X6795476Y-6227238D01*
X6805000Y-6222476D01*
X6809762Y-6212952D01*
X6809762Y-6208190D01*
X6805000Y-6198667D01*
X6795476Y-6193905D01*
X6781190Y-6193905D01*
X6771667Y-6189143D01*
X6766905Y-6179619D01*
X6766905Y-6174857D01*
X6771667Y-6165333D01*
X6781190Y-6160571D01*
X6795476Y-6160571D01*
X6805000Y-6165333D01*
X6895476Y-6222476D02*
X6885952Y-6227238D01*
X6866905Y-6227238D01*
X6857381Y-6222476D01*
X6852619Y-6217714D01*
X6847857Y-6208190D01*
X6847857Y-6179619D01*
X6852619Y-6170095D01*
X6857381Y-6165333D01*
X6866905Y-6160571D01*
X6885952Y-6160571D01*
X6895476Y-6165333D01*
X6938333Y-6227238D02*
X6938333Y-6160571D01*
X6938333Y-6179619D02*
X6943095Y-6170095D01*
X6947857Y-6165333D01*
X6957381Y-6160571D01*
X6966905Y-6160571D01*
X7038333Y-6222476D02*
X7028809Y-6227238D01*
X7009762Y-6227238D01*
X7000238Y-6222476D01*
X6995476Y-6212952D01*
X6995476Y-6174857D01*
X7000238Y-6165333D01*
X7009762Y-6160571D01*
X7028809Y-6160571D01*
X7038333Y-6165333D01*
X7043095Y-6174857D01*
X7043095Y-6184381D01*
X6995476Y-6193905D01*
X7124048Y-6222476D02*
X7114524Y-6227238D01*
X7095476Y-6227238D01*
X7085952Y-6222476D01*
X7081190Y-6212952D01*
X7081190Y-6174857D01*
X7085952Y-6165333D01*
X7095476Y-6160571D01*
X7114524Y-6160571D01*
X7124048Y-6165333D01*
X7128809Y-6174857D01*
X7128809Y-6184381D01*
X7081190Y-6193905D01*
X7171667Y-6160571D02*
X7171667Y-6227238D01*
X7171667Y-6170095D02*
X7176428Y-6165333D01*
X7185952Y-6160571D01*
X7200238Y-6160571D01*
X7209762Y-6165333D01*
X7214524Y-6174857D01*
X7214524Y-6227238D01*
X6443095Y-5722476D02*
X6457381Y-5727238D01*
X6481190Y-5727238D01*
X6490714Y-5722476D01*
X6495476Y-5717714D01*
X6500238Y-5708190D01*
X6500238Y-5698667D01*
X6495476Y-5689143D01*
X6490714Y-5684381D01*
X6481190Y-5679619D01*
X6462143Y-5674857D01*
X6452619Y-5670095D01*
X6447857Y-5665333D01*
X6443095Y-5655809D01*
X6443095Y-5646286D01*
X6447857Y-5636762D01*
X6452619Y-5632000D01*
X6462143Y-5627238D01*
X6485952Y-5627238D01*
X6500238Y-5632000D01*
X6557381Y-5727238D02*
X6547857Y-5722476D01*
X6543095Y-5717714D01*
X6538333Y-5708190D01*
X6538333Y-5679619D01*
X6543095Y-5670095D01*
X6547857Y-5665333D01*
X6557381Y-5660571D01*
X6571667Y-5660571D01*
X6581190Y-5665333D01*
X6585952Y-5670095D01*
X6590714Y-5679619D01*
X6590714Y-5708190D01*
X6585952Y-5717714D01*
X6581190Y-5722476D01*
X6571667Y-5727238D01*
X6557381Y-5727238D01*
X6647857Y-5727238D02*
X6638333Y-5722476D01*
X6633571Y-5712952D01*
X6633571Y-5627238D01*
X6728809Y-5727238D02*
X6728809Y-5627238D01*
X6728809Y-5722476D02*
X6719286Y-5727238D01*
X6700238Y-5727238D01*
X6690714Y-5722476D01*
X6685952Y-5717714D01*
X6681190Y-5708190D01*
X6681190Y-5679619D01*
X6685952Y-5670095D01*
X6690714Y-5665333D01*
X6700238Y-5660571D01*
X6719286Y-5660571D01*
X6728809Y-5665333D01*
X6814524Y-5722476D02*
X6805000Y-5727238D01*
X6785952Y-5727238D01*
X6776428Y-5722476D01*
X6771667Y-5712952D01*
X6771667Y-5674857D01*
X6776428Y-5665333D01*
X6785952Y-5660571D01*
X6805000Y-5660571D01*
X6814524Y-5665333D01*
X6819286Y-5674857D01*
X6819286Y-5684381D01*
X6771667Y-5693905D01*
X6862143Y-5727238D02*
X6862143Y-5660571D01*
X6862143Y-5679619D02*
X6866905Y-5670095D01*
X6871667Y-5665333D01*
X6881190Y-5660571D01*
X6890714Y-5660571D01*
X6924048Y-5727238D02*
X6924048Y-5660571D01*
X6924048Y-5670095D02*
X6928809Y-5665333D01*
X6938333Y-5660571D01*
X6952619Y-5660571D01*
X6962143Y-5665333D01*
X6966905Y-5674857D01*
X6966905Y-5727238D01*
X6966905Y-5674857D02*
X6971667Y-5665333D01*
X6981190Y-5660571D01*
X6995476Y-5660571D01*
X7005000Y-5665333D01*
X7009762Y-5674857D01*
X7009762Y-5727238D01*
X7100238Y-5727238D02*
X7100238Y-5674857D01*
X7095476Y-5665333D01*
X7085952Y-5660571D01*
X7066905Y-5660571D01*
X7057381Y-5665333D01*
X7100238Y-5722476D02*
X7090714Y-5727238D01*
X7066905Y-5727238D01*
X7057381Y-5722476D01*
X7052619Y-5712952D01*
X7052619Y-5703428D01*
X7057381Y-5693905D01*
X7066905Y-5689143D01*
X7090714Y-5689143D01*
X7100238Y-5684381D01*
X7143095Y-5722476D02*
X7152619Y-5727238D01*
X7171667Y-5727238D01*
X7181190Y-5722476D01*
X7185952Y-5712952D01*
X7185952Y-5708190D01*
X7181190Y-5698667D01*
X7171667Y-5693905D01*
X7157381Y-5693905D01*
X7147857Y-5689143D01*
X7143095Y-5679619D01*
X7143095Y-5674857D01*
X7147857Y-5665333D01*
X7157381Y-5660571D01*
X7171667Y-5660571D01*
X7181190Y-5665333D01*
X7228809Y-5727238D02*
X7228809Y-5627238D01*
X7238333Y-5689143D02*
X7266905Y-5727238D01*
X7266905Y-5660571D02*
X7228809Y-5698667D01*
X6676428Y-5217714D02*
X6671667Y-5222476D01*
X6657381Y-5227238D01*
X6647857Y-5227238D01*
X6633571Y-5222476D01*
X6624048Y-5212952D01*
X6619286Y-5203429D01*
X6614524Y-5184381D01*
X6614524Y-5170095D01*
X6619286Y-5151048D01*
X6624048Y-5141524D01*
X6633571Y-5132000D01*
X6647857Y-5127238D01*
X6657381Y-5127238D01*
X6671667Y-5132000D01*
X6676428Y-5136762D01*
X6733571Y-5227238D02*
X6724048Y-5222476D01*
X6719286Y-5217714D01*
X6714524Y-5208190D01*
X6714524Y-5179619D01*
X6719286Y-5170095D01*
X6724048Y-5165333D01*
X6733571Y-5160571D01*
X6747857Y-5160571D01*
X6757381Y-5165333D01*
X6762143Y-5170095D01*
X6766905Y-5179619D01*
X6766905Y-5208190D01*
X6762143Y-5217714D01*
X6757381Y-5222476D01*
X6747857Y-5227238D01*
X6733571Y-5227238D01*
X6809762Y-5160571D02*
X6809762Y-5260571D01*
X6809762Y-5165333D02*
X6819286Y-5160571D01*
X6838333Y-5160571D01*
X6847857Y-5165333D01*
X6852619Y-5170095D01*
X6857381Y-5179619D01*
X6857381Y-5208190D01*
X6852619Y-5217714D01*
X6847857Y-5222476D01*
X6838333Y-5227238D01*
X6819286Y-5227238D01*
X6809762Y-5222476D01*
X6900238Y-5160571D02*
X6900238Y-5260571D01*
X6900238Y-5165333D02*
X6909762Y-5160571D01*
X6928809Y-5160571D01*
X6938333Y-5165333D01*
X6943095Y-5170095D01*
X6947857Y-5179619D01*
X6947857Y-5208190D01*
X6943095Y-5217714D01*
X6938333Y-5222476D01*
X6928809Y-5227238D01*
X6909762Y-5227238D01*
X6900238Y-5222476D01*
X7028809Y-5222476D02*
X7019286Y-5227238D01*
X7000238Y-5227238D01*
X6990714Y-5222476D01*
X6985952Y-5212952D01*
X6985952Y-5174857D01*
X6990714Y-5165333D01*
X7000238Y-5160571D01*
X7019286Y-5160571D01*
X7028809Y-5165333D01*
X7033571Y-5174857D01*
X7033571Y-5184381D01*
X6985952Y-5193905D01*
X7076428Y-5227238D02*
X7076428Y-5160571D01*
X7076428Y-5179619D02*
X7081190Y-5170095D01*
X7085952Y-5165333D01*
X7095476Y-5160571D01*
X7105000Y-5160571D01*
X6497857Y-4174857D02*
X6464524Y-4174857D01*
X6464524Y-4227238D02*
X6464524Y-4127238D01*
X6512143Y-4127238D01*
X6607381Y-4227238D02*
X6574048Y-4179619D01*
X6550238Y-4227238D02*
X6550238Y-4127238D01*
X6588333Y-4127238D01*
X6597857Y-4132000D01*
X6602619Y-4136762D01*
X6607381Y-4146286D01*
X6607381Y-4160571D01*
X6602619Y-4170095D01*
X6597857Y-4174857D01*
X6588333Y-4179619D01*
X6550238Y-4179619D01*
X6693095Y-4160571D02*
X6693095Y-4227238D01*
X6669286Y-4122476D02*
X6645476Y-4193905D01*
X6707381Y-4193905D01*
X6850238Y-4265333D02*
X6845476Y-4260571D01*
X6835952Y-4246286D01*
X6831190Y-4236762D01*
X6826428Y-4222476D01*
X6821667Y-4198667D01*
X6821667Y-4179619D01*
X6826428Y-4155809D01*
X6831190Y-4141524D01*
X6835952Y-4132000D01*
X6845476Y-4117714D01*
X6850238Y-4112952D01*
X6945476Y-4217714D02*
X6940714Y-4222476D01*
X6926428Y-4227238D01*
X6916905Y-4227238D01*
X6902619Y-4222476D01*
X6893095Y-4212952D01*
X6888333Y-4203429D01*
X6883571Y-4184381D01*
X6883571Y-4170095D01*
X6888333Y-4151048D01*
X6893095Y-4141524D01*
X6902619Y-4132000D01*
X6916905Y-4127238D01*
X6926428Y-4127238D01*
X6940714Y-4132000D01*
X6945476Y-4136762D01*
X7002619Y-4227238D02*
X6993095Y-4222476D01*
X6988333Y-4217714D01*
X6983571Y-4208190D01*
X6983571Y-4179619D01*
X6988333Y-4170095D01*
X6993095Y-4165333D01*
X7002619Y-4160571D01*
X7016905Y-4160571D01*
X7026428Y-4165333D01*
X7031190Y-4170095D01*
X7035952Y-4179619D01*
X7035952Y-4208190D01*
X7031190Y-4217714D01*
X7026428Y-4222476D01*
X7016905Y-4227238D01*
X7002619Y-4227238D01*
X7078809Y-4227238D02*
X7078809Y-4160571D01*
X7078809Y-4179619D02*
X7083571Y-4170095D01*
X7088333Y-4165333D01*
X7097857Y-4160571D01*
X7107381Y-4160571D01*
X7178809Y-4222476D02*
X7169286Y-4227238D01*
X7150238Y-4227238D01*
X7140714Y-4222476D01*
X7135952Y-4212952D01*
X7135952Y-4174857D01*
X7140714Y-4165333D01*
X7150238Y-4160571D01*
X7169286Y-4160571D01*
X7178809Y-4165333D01*
X7183571Y-4174857D01*
X7183571Y-4184381D01*
X7135952Y-4193905D01*
X7216905Y-4265333D02*
X7221667Y-4260571D01*
X7231190Y-4246286D01*
X7235952Y-4236762D01*
X7240714Y-4222476D01*
X7245476Y-4198667D01*
X7245476Y-4179619D01*
X7240714Y-4155809D01*
X7235952Y-4141524D01*
X7231190Y-4132000D01*
X7221667Y-4117714D01*
X7216905Y-4112952D01*
X6676428Y-3218714D02*
X6671667Y-3223476D01*
X6657381Y-3228238D01*
X6647857Y-3228238D01*
X6633571Y-3223476D01*
X6624048Y-3213952D01*
X6619286Y-3204428D01*
X6614524Y-3185381D01*
X6614524Y-3171095D01*
X6619286Y-3152048D01*
X6624048Y-3142524D01*
X6633571Y-3133000D01*
X6647857Y-3128238D01*
X6657381Y-3128238D01*
X6671667Y-3133000D01*
X6676428Y-3137762D01*
X6733571Y-3228238D02*
X6724048Y-3223476D01*
X6719286Y-3218714D01*
X6714524Y-3209190D01*
X6714524Y-3180619D01*
X6719286Y-3171095D01*
X6724048Y-3166333D01*
X6733571Y-3161571D01*
X6747857Y-3161571D01*
X6757381Y-3166333D01*
X6762143Y-3171095D01*
X6766905Y-3180619D01*
X6766905Y-3209190D01*
X6762143Y-3218714D01*
X6757381Y-3223476D01*
X6747857Y-3228238D01*
X6733571Y-3228238D01*
X6809762Y-3161571D02*
X6809762Y-3261571D01*
X6809762Y-3166333D02*
X6819286Y-3161571D01*
X6838333Y-3161571D01*
X6847857Y-3166333D01*
X6852619Y-3171095D01*
X6857381Y-3180619D01*
X6857381Y-3209190D01*
X6852619Y-3218714D01*
X6847857Y-3223476D01*
X6838333Y-3228238D01*
X6819286Y-3228238D01*
X6809762Y-3223476D01*
X6900238Y-3161571D02*
X6900238Y-3261571D01*
X6900238Y-3166333D02*
X6909762Y-3161571D01*
X6928809Y-3161571D01*
X6938333Y-3166333D01*
X6943095Y-3171095D01*
X6947857Y-3180619D01*
X6947857Y-3209190D01*
X6943095Y-3218714D01*
X6938333Y-3223476D01*
X6928809Y-3228238D01*
X6909762Y-3228238D01*
X6900238Y-3223476D01*
X7028809Y-3223476D02*
X7019286Y-3228238D01*
X7000238Y-3228238D01*
X6990714Y-3223476D01*
X6985952Y-3213952D01*
X6985952Y-3175857D01*
X6990714Y-3166333D01*
X7000238Y-3161571D01*
X7019286Y-3161571D01*
X7028809Y-3166333D01*
X7033571Y-3175857D01*
X7033571Y-3185381D01*
X6985952Y-3194905D01*
X7076428Y-3228238D02*
X7076428Y-3161571D01*
X7076428Y-3180619D02*
X7081190Y-3171095D01*
X7085952Y-3166333D01*
X7095476Y-3161571D01*
X7105000Y-3161571D01*
X9227238Y-3173857D02*
X9193905Y-3173857D01*
X9193905Y-3226238D02*
X9193905Y-3126238D01*
X9241524Y-3126238D01*
X9279619Y-3216714D02*
X9284381Y-3221476D01*
X9279619Y-3226238D01*
X9274857Y-3221476D01*
X9279619Y-3216714D01*
X9279619Y-3226238D01*
X9384381Y-3216714D02*
X9379619Y-3221476D01*
X9365333Y-3226238D01*
X9355810Y-3226238D01*
X9341524Y-3221476D01*
X9332000Y-3211952D01*
X9327238Y-3202428D01*
X9322476Y-3183381D01*
X9322476Y-3169095D01*
X9327238Y-3150048D01*
X9332000Y-3140524D01*
X9341524Y-3131000D01*
X9355810Y-3126238D01*
X9365333Y-3126238D01*
X9379619Y-3131000D01*
X9384381Y-3135762D01*
X9470095Y-3159571D02*
X9470095Y-3226238D01*
X9427238Y-3159571D02*
X9427238Y-3211952D01*
X9432000Y-3221476D01*
X9441524Y-3226238D01*
X9455810Y-3226238D01*
X9465333Y-3221476D01*
X9470095Y-3216714D01*
X6443095Y-2723476D02*
X6457381Y-2728238D01*
X6481190Y-2728238D01*
X6490714Y-2723476D01*
X6495476Y-2718714D01*
X6500238Y-2709190D01*
X6500238Y-2699667D01*
X6495476Y-2690143D01*
X6490714Y-2685381D01*
X6481190Y-2680619D01*
X6462143Y-2675857D01*
X6452619Y-2671095D01*
X6447857Y-2666333D01*
X6443095Y-2656810D01*
X6443095Y-2647286D01*
X6447857Y-2637762D01*
X6452619Y-2633000D01*
X6462143Y-2628238D01*
X6485952Y-2628238D01*
X6500238Y-2633000D01*
X6557381Y-2728238D02*
X6547857Y-2723476D01*
X6543095Y-2718714D01*
X6538333Y-2709190D01*
X6538333Y-2680619D01*
X6543095Y-2671095D01*
X6547857Y-2666333D01*
X6557381Y-2661571D01*
X6571667Y-2661571D01*
X6581190Y-2666333D01*
X6585952Y-2671095D01*
X6590714Y-2680619D01*
X6590714Y-2709190D01*
X6585952Y-2718714D01*
X6581190Y-2723476D01*
X6571667Y-2728238D01*
X6557381Y-2728238D01*
X6647857Y-2728238D02*
X6638333Y-2723476D01*
X6633571Y-2713952D01*
X6633571Y-2628238D01*
X6728809Y-2728238D02*
X6728809Y-2628238D01*
X6728809Y-2723476D02*
X6719286Y-2728238D01*
X6700238Y-2728238D01*
X6690714Y-2723476D01*
X6685952Y-2718714D01*
X6681190Y-2709190D01*
X6681190Y-2680619D01*
X6685952Y-2671095D01*
X6690714Y-2666333D01*
X6700238Y-2661571D01*
X6719286Y-2661571D01*
X6728809Y-2666333D01*
X6814524Y-2723476D02*
X6805000Y-2728238D01*
X6785952Y-2728238D01*
X6776428Y-2723476D01*
X6771667Y-2713952D01*
X6771667Y-2675857D01*
X6776428Y-2666333D01*
X6785952Y-2661571D01*
X6805000Y-2661571D01*
X6814524Y-2666333D01*
X6819286Y-2675857D01*
X6819286Y-2685381D01*
X6771667Y-2694905D01*
X6862143Y-2728238D02*
X6862143Y-2661571D01*
X6862143Y-2680619D02*
X6866905Y-2671095D01*
X6871667Y-2666333D01*
X6881190Y-2661571D01*
X6890714Y-2661571D01*
X6924048Y-2728238D02*
X6924048Y-2661571D01*
X6924048Y-2671095D02*
X6928809Y-2666333D01*
X6938333Y-2661571D01*
X6952619Y-2661571D01*
X6962143Y-2666333D01*
X6966905Y-2675857D01*
X6966905Y-2728238D01*
X6966905Y-2675857D02*
X6971667Y-2666333D01*
X6981190Y-2661571D01*
X6995476Y-2661571D01*
X7005000Y-2666333D01*
X7009762Y-2675857D01*
X7009762Y-2728238D01*
X7100238Y-2728238D02*
X7100238Y-2675857D01*
X7095476Y-2666333D01*
X7085952Y-2661571D01*
X7066905Y-2661571D01*
X7057381Y-2666333D01*
X7100238Y-2723476D02*
X7090714Y-2728238D01*
X7066905Y-2728238D01*
X7057381Y-2723476D01*
X7052619Y-2713952D01*
X7052619Y-2704429D01*
X7057381Y-2694905D01*
X7066905Y-2690143D01*
X7090714Y-2690143D01*
X7100238Y-2685381D01*
X7143095Y-2723476D02*
X7152619Y-2728238D01*
X7171667Y-2728238D01*
X7181190Y-2723476D01*
X7185952Y-2713952D01*
X7185952Y-2709190D01*
X7181190Y-2699667D01*
X7171667Y-2694905D01*
X7157381Y-2694905D01*
X7147857Y-2690143D01*
X7143095Y-2680619D01*
X7143095Y-2675857D01*
X7147857Y-2666333D01*
X7157381Y-2661571D01*
X7171667Y-2661571D01*
X7181190Y-2666333D01*
X7228809Y-2728238D02*
X7228809Y-2628238D01*
X7238333Y-2690143D02*
X7266905Y-2728238D01*
X7266905Y-2661571D02*
X7228809Y-2699667D01*
X11135952Y-2628238D02*
X11145476Y-2628238D01*
X11155000Y-2633000D01*
X11159762Y-2637762D01*
X11164524Y-2647286D01*
X11169286Y-2666333D01*
X11169286Y-2690143D01*
X11164524Y-2709190D01*
X11159762Y-2718714D01*
X11155000Y-2723476D01*
X11145476Y-2728238D01*
X11135952Y-2728238D01*
X11126429Y-2723476D01*
X11121667Y-2718714D01*
X11116905Y-2709190D01*
X11112143Y-2690143D01*
X11112143Y-2666333D01*
X11116905Y-2647286D01*
X11121667Y-2637762D01*
X11126429Y-2633000D01*
X11135952Y-2628238D01*
X11212143Y-2718714D02*
X11216905Y-2723476D01*
X11212143Y-2728238D01*
X11207381Y-2723476D01*
X11212143Y-2718714D01*
X11212143Y-2728238D01*
X11278809Y-2628238D02*
X11288333Y-2628238D01*
X11297857Y-2633000D01*
X11302619Y-2637762D01*
X11307381Y-2647286D01*
X11312143Y-2666333D01*
X11312143Y-2690143D01*
X11307381Y-2709190D01*
X11302619Y-2718714D01*
X11297857Y-2723476D01*
X11288333Y-2728238D01*
X11278809Y-2728238D01*
X11269286Y-2723476D01*
X11264524Y-2718714D01*
X11259762Y-2709190D01*
X11255000Y-2690143D01*
X11255000Y-2666333D01*
X11259762Y-2647286D01*
X11264524Y-2637762D01*
X11269286Y-2633000D01*
X11278809Y-2628238D01*
X11407381Y-2728238D02*
X11350238Y-2728238D01*
X11378809Y-2728238D02*
X11378809Y-2628238D01*
X11369286Y-2642524D01*
X11359762Y-2652048D01*
X11350238Y-2656810D01*
X11445476Y-2637762D02*
X11450238Y-2633000D01*
X11459762Y-2628238D01*
X11483571Y-2628238D01*
X11493095Y-2633000D01*
X11497857Y-2637762D01*
X11502619Y-2647286D01*
X11502619Y-2656810D01*
X11497857Y-2671095D01*
X11440714Y-2728238D01*
X11502619Y-2728238D01*
X11535952Y-2628238D02*
X11602619Y-2628238D01*
X11559762Y-2728238D01*
X11188571Y-3176238D02*
X11198095Y-3176238D01*
X11207619Y-3181000D01*
X11212381Y-3185762D01*
X11217143Y-3195286D01*
X11221905Y-3214333D01*
X11221905Y-3238143D01*
X11217143Y-3257190D01*
X11212381Y-3266714D01*
X11207619Y-3271476D01*
X11198095Y-3276238D01*
X11188571Y-3276238D01*
X11179048Y-3271476D01*
X11174286Y-3266714D01*
X11169524Y-3257190D01*
X11164762Y-3238143D01*
X11164762Y-3214333D01*
X11169524Y-3195286D01*
X11174286Y-3185762D01*
X11179048Y-3181000D01*
X11188571Y-3176238D01*
X11264762Y-3266714D02*
X11269524Y-3271476D01*
X11264762Y-3276238D01*
X11260000Y-3271476D01*
X11264762Y-3266714D01*
X11264762Y-3276238D01*
X11331428Y-3176238D02*
X11340952Y-3176238D01*
X11350476Y-3181000D01*
X11355238Y-3185762D01*
X11360000Y-3195286D01*
X11364762Y-3214333D01*
X11364762Y-3238143D01*
X11360000Y-3257190D01*
X11355238Y-3266714D01*
X11350476Y-3271476D01*
X11340952Y-3276238D01*
X11331428Y-3276238D01*
X11321905Y-3271476D01*
X11317143Y-3266714D01*
X11312381Y-3257190D01*
X11307619Y-3238143D01*
X11307619Y-3214333D01*
X11312381Y-3195286D01*
X11317143Y-3185762D01*
X11321905Y-3181000D01*
X11331428Y-3176238D01*
X11398095Y-3176238D02*
X11460000Y-3176238D01*
X11426667Y-3214333D01*
X11440952Y-3214333D01*
X11450476Y-3219095D01*
X11455238Y-3223857D01*
X11460000Y-3233381D01*
X11460000Y-3257190D01*
X11455238Y-3266714D01*
X11450476Y-3271476D01*
X11440952Y-3276238D01*
X11412381Y-3276238D01*
X11402857Y-3271476D01*
X11398095Y-3266714D01*
X11550476Y-3176238D02*
X11502857Y-3176238D01*
X11498095Y-3223857D01*
X11502857Y-3219095D01*
X11512381Y-3214333D01*
X11536190Y-3214333D01*
X11545714Y-3219095D01*
X11550476Y-3223857D01*
X11555238Y-3233381D01*
X11555238Y-3257190D01*
X11550476Y-3266714D01*
X11545714Y-3271476D01*
X11536190Y-3276238D01*
X11512381Y-3276238D01*
X11502857Y-3271476D01*
X11498095Y-3266714D01*
X9162143Y-2675857D02*
X9128810Y-2675857D01*
X9128810Y-2728238D02*
X9128810Y-2628238D01*
X9176429Y-2628238D01*
X9214524Y-2718714D02*
X9219286Y-2723476D01*
X9214524Y-2728238D01*
X9209762Y-2723476D01*
X9214524Y-2718714D01*
X9214524Y-2728238D01*
X9262143Y-2728238D02*
X9262143Y-2628238D01*
X9295476Y-2699667D01*
X9328810Y-2628238D01*
X9328810Y-2728238D01*
X9419286Y-2728238D02*
X9419286Y-2675857D01*
X9414524Y-2666333D01*
X9405000Y-2661571D01*
X9385952Y-2661571D01*
X9376429Y-2666333D01*
X9419286Y-2723476D02*
X9409762Y-2728238D01*
X9385952Y-2728238D01*
X9376429Y-2723476D01*
X9371667Y-2713952D01*
X9371667Y-2704429D01*
X9376429Y-2694905D01*
X9385952Y-2690143D01*
X9409762Y-2690143D01*
X9419286Y-2685381D01*
X9462143Y-2723476D02*
X9471667Y-2728238D01*
X9490714Y-2728238D01*
X9500238Y-2723476D01*
X9505000Y-2713952D01*
X9505000Y-2709190D01*
X9500238Y-2699667D01*
X9490714Y-2694905D01*
X9476429Y-2694905D01*
X9466905Y-2690143D01*
X9462143Y-2680619D01*
X9462143Y-2675857D01*
X9466905Y-2666333D01*
X9476429Y-2661571D01*
X9490714Y-2661571D01*
X9500238Y-2666333D01*
X9547857Y-2728238D02*
X9547857Y-2628238D01*
X9557381Y-2690143D02*
X9585952Y-2728238D01*
X9585952Y-2661571D02*
X9547857Y-2699667D01*
X9207381Y-2175857D02*
X9174048Y-2175857D01*
X9174048Y-2228238D02*
X9174048Y-2128238D01*
X9221667Y-2128238D01*
X9259762Y-2218714D02*
X9264524Y-2223476D01*
X9259762Y-2228238D01*
X9255000Y-2223476D01*
X9259762Y-2218714D01*
X9259762Y-2228238D01*
X9302619Y-2223476D02*
X9316905Y-2228238D01*
X9340714Y-2228238D01*
X9350238Y-2223476D01*
X9355000Y-2218714D01*
X9359762Y-2209190D01*
X9359762Y-2199667D01*
X9355000Y-2190143D01*
X9350238Y-2185381D01*
X9340714Y-2180619D01*
X9321667Y-2175857D01*
X9312143Y-2171095D01*
X9307381Y-2166333D01*
X9302619Y-2156810D01*
X9302619Y-2147286D01*
X9307381Y-2137762D01*
X9312143Y-2133000D01*
X9321667Y-2128238D01*
X9345476Y-2128238D01*
X9359762Y-2133000D01*
X9402619Y-2228238D02*
X9402619Y-2161571D01*
X9402619Y-2128238D02*
X9397857Y-2133000D01*
X9402619Y-2137762D01*
X9407381Y-2133000D01*
X9402619Y-2128238D01*
X9402619Y-2137762D01*
X9464524Y-2228238D02*
X9455000Y-2223476D01*
X9450238Y-2213952D01*
X9450238Y-2128238D01*
X9502619Y-2228238D02*
X9502619Y-2128238D01*
X9512143Y-2190143D02*
X9540714Y-2228238D01*
X9540714Y-2161571D02*
X9502619Y-2199667D01*
X6490714Y-2223476D02*
X6505000Y-2228238D01*
X6528809Y-2228238D01*
X6538333Y-2223476D01*
X6543095Y-2218714D01*
X6547857Y-2209190D01*
X6547857Y-2199667D01*
X6543095Y-2190143D01*
X6538333Y-2185381D01*
X6528809Y-2180619D01*
X6509762Y-2175857D01*
X6500238Y-2171095D01*
X6495476Y-2166333D01*
X6490714Y-2156810D01*
X6490714Y-2147286D01*
X6495476Y-2137762D01*
X6500238Y-2133000D01*
X6509762Y-2128238D01*
X6533571Y-2128238D01*
X6547857Y-2133000D01*
X6590714Y-2228238D02*
X6590714Y-2161571D01*
X6590714Y-2128238D02*
X6585952Y-2133000D01*
X6590714Y-2137762D01*
X6595476Y-2133000D01*
X6590714Y-2128238D01*
X6590714Y-2137762D01*
X6652619Y-2228238D02*
X6643095Y-2223476D01*
X6638333Y-2213952D01*
X6638333Y-2128238D01*
X6690714Y-2228238D02*
X6690714Y-2128238D01*
X6700238Y-2190143D02*
X6728809Y-2228238D01*
X6728809Y-2161571D02*
X6690714Y-2199667D01*
X6766905Y-2223476D02*
X6776428Y-2228238D01*
X6795476Y-2228238D01*
X6805000Y-2223476D01*
X6809762Y-2213952D01*
X6809762Y-2209190D01*
X6805000Y-2199667D01*
X6795476Y-2194905D01*
X6781190Y-2194905D01*
X6771667Y-2190143D01*
X6766905Y-2180619D01*
X6766905Y-2175857D01*
X6771667Y-2166333D01*
X6781190Y-2161571D01*
X6795476Y-2161571D01*
X6805000Y-2166333D01*
X6895476Y-2223476D02*
X6885952Y-2228238D01*
X6866905Y-2228238D01*
X6857381Y-2223476D01*
X6852619Y-2218714D01*
X6847857Y-2209190D01*
X6847857Y-2180619D01*
X6852619Y-2171095D01*
X6857381Y-2166333D01*
X6866905Y-2161571D01*
X6885952Y-2161571D01*
X6895476Y-2166333D01*
X6938333Y-2228238D02*
X6938333Y-2161571D01*
X6938333Y-2180619D02*
X6943095Y-2171095D01*
X6947857Y-2166333D01*
X6957381Y-2161571D01*
X6966905Y-2161571D01*
X7038333Y-2223476D02*
X7028809Y-2228238D01*
X7009762Y-2228238D01*
X7000238Y-2223476D01*
X6995476Y-2213952D01*
X6995476Y-2175857D01*
X7000238Y-2166333D01*
X7009762Y-2161571D01*
X7028809Y-2161571D01*
X7038333Y-2166333D01*
X7043095Y-2175857D01*
X7043095Y-2185381D01*
X6995476Y-2194905D01*
X7124048Y-2223476D02*
X7114524Y-2228238D01*
X7095476Y-2228238D01*
X7085952Y-2223476D01*
X7081190Y-2213952D01*
X7081190Y-2175857D01*
X7085952Y-2166333D01*
X7095476Y-2161571D01*
X7114524Y-2161571D01*
X7124048Y-2166333D01*
X7128809Y-2175857D01*
X7128809Y-2185381D01*
X7081190Y-2194905D01*
X7171667Y-2161571D02*
X7171667Y-2228238D01*
X7171667Y-2171095D02*
X7176428Y-2166333D01*
X7185952Y-2161571D01*
X7200238Y-2161571D01*
X7209762Y-2166333D01*
X7214524Y-2175857D01*
X7214524Y-2228238D01*
X11088333Y-2128238D02*
X11097857Y-2128238D01*
X11107381Y-2133000D01*
X11112143Y-2137762D01*
X11116905Y-2147286D01*
X11121667Y-2166333D01*
X11121667Y-2190143D01*
X11116905Y-2209190D01*
X11112143Y-2218714D01*
X11107381Y-2223476D01*
X11097857Y-2228238D01*
X11088333Y-2228238D01*
X11078810Y-2223476D01*
X11074048Y-2218714D01*
X11069286Y-2209190D01*
X11064524Y-2190143D01*
X11064524Y-2166333D01*
X11069286Y-2147286D01*
X11074048Y-2137762D01*
X11078810Y-2133000D01*
X11088333Y-2128238D01*
X11164524Y-2218714D02*
X11169286Y-2223476D01*
X11164524Y-2228238D01*
X11159762Y-2223476D01*
X11164524Y-2218714D01*
X11164524Y-2228238D01*
X11231190Y-2128238D02*
X11240714Y-2128238D01*
X11250238Y-2133000D01*
X11255000Y-2137762D01*
X11259762Y-2147286D01*
X11264524Y-2166333D01*
X11264524Y-2190143D01*
X11259762Y-2209190D01*
X11255000Y-2218714D01*
X11250238Y-2223476D01*
X11240714Y-2228238D01*
X11231190Y-2228238D01*
X11221667Y-2223476D01*
X11216905Y-2218714D01*
X11212143Y-2209190D01*
X11207381Y-2190143D01*
X11207381Y-2166333D01*
X11212143Y-2147286D01*
X11216905Y-2137762D01*
X11221667Y-2133000D01*
X11231190Y-2128238D01*
X11326428Y-2128238D02*
X11335952Y-2128238D01*
X11345476Y-2133000D01*
X11350238Y-2137762D01*
X11355000Y-2147286D01*
X11359762Y-2166333D01*
X11359762Y-2190143D01*
X11355000Y-2209190D01*
X11350238Y-2218714D01*
X11345476Y-2223476D01*
X11335952Y-2228238D01*
X11326428Y-2228238D01*
X11316905Y-2223476D01*
X11312143Y-2218714D01*
X11307381Y-2209190D01*
X11302619Y-2190143D01*
X11302619Y-2166333D01*
X11307381Y-2147286D01*
X11312143Y-2137762D01*
X11316905Y-2133000D01*
X11326428Y-2128238D01*
X11393095Y-2128238D02*
X11459762Y-2128238D01*
X11416905Y-2228238D01*
X11540714Y-2128238D02*
X11521667Y-2128238D01*
X11512143Y-2133000D01*
X11507381Y-2137762D01*
X11497857Y-2152048D01*
X11493095Y-2171095D01*
X11493095Y-2209190D01*
X11497857Y-2218714D01*
X11502619Y-2223476D01*
X11512143Y-2228238D01*
X11531190Y-2228238D01*
X11540714Y-2223476D01*
X11545476Y-2218714D01*
X11550238Y-2209190D01*
X11550238Y-2185381D01*
X11545476Y-2175857D01*
X11540714Y-2171095D01*
X11531190Y-2166333D01*
X11512143Y-2166333D01*
X11502619Y-2171095D01*
X11497857Y-2175857D01*
X11493095Y-2185381D01*
X11588333Y-2137762D02*
X11593095Y-2133000D01*
X11602619Y-2128238D01*
X11626428Y-2128238D01*
X11635952Y-2133000D01*
X11640714Y-2137762D01*
X11645476Y-2147286D01*
X11645476Y-2156810D01*
X11640714Y-2171095D01*
X11583571Y-2228238D01*
X11645476Y-2228238D01*
G04 #@! TD*
M02*
