G04 #@! TF.GenerationSoftware,KiCad,Pcbnew,(5.1.10)-1*
G04 #@! TF.CreationDate,2021-05-15T21:05:10-05:00*
G04 #@! TF.ProjectId,temp sensor,74656d70-2073-4656-9e73-6f722e6b6963,rev?*
G04 #@! TF.SameCoordinates,Original*
G04 #@! TF.FileFunction,Legend,Top*
G04 #@! TF.FilePolarity,Positive*
%FSLAX45Y45*%
G04 Gerber Fmt 4.5, Leading zero omitted, Abs format (unit mm)*
G04 Created by KiCad (PCBNEW (5.1.10)-1) date 2021-05-15 21:05:10*
%MOMM*%
%LPD*%
G01*
G04 APERTURE LIST*
%ADD10C,0.200000*%
%ADD11C,0.100000*%
%ADD12C,0.120000*%
%ADD13C,0.150000*%
%ADD14C,0.254000*%
G04 APERTURE END LIST*
D10*
X12262701Y-17848971D02*
X12450751Y-17845488D01*
X12262701Y-17662291D02*
X12262701Y-17848971D01*
X13125900Y-17342514D02*
X13207835Y-17329458D01*
X13023608Y-17555916D02*
X13073048Y-17453214D01*
X12450751Y-17845488D02*
X12634094Y-17822870D01*
X13091328Y-17392325D02*
X13125900Y-17342514D01*
X13073048Y-17453214D02*
X13091328Y-17392325D01*
X12804914Y-17762864D02*
X12883186Y-17713136D01*
X12955396Y-17647217D02*
X13023608Y-17555916D01*
X12883186Y-17713136D02*
X12955396Y-17647217D01*
X12634094Y-17822870D02*
X12804914Y-17762864D01*
X14127462Y-17711259D02*
X14129486Y-17789230D01*
X14219945Y-17666967D02*
X14193357Y-17652600D01*
X14136331Y-17673117D02*
X14127462Y-17711259D01*
X14129486Y-17789230D02*
X14129481Y-18020711D01*
X14193357Y-17652600D02*
X14161923Y-17651932D01*
X14135589Y-18128641D02*
X14152145Y-18146769D01*
X14127573Y-18075410D02*
X14135589Y-18128641D01*
X14129481Y-18020711D02*
X14127573Y-18075410D01*
X14428171Y-17968441D02*
X14260370Y-17714686D01*
X14161923Y-17651932D02*
X14136331Y-17673117D01*
X14260370Y-17714686D02*
X14219945Y-17666967D01*
X13182793Y-17649717D02*
X13150184Y-17673708D01*
X13497561Y-17663606D02*
X13461260Y-17647872D01*
X13150184Y-17673708D02*
X13155369Y-17717569D01*
X13975448Y-17647051D02*
X13936635Y-17659504D01*
X13936635Y-17659504D02*
X13918847Y-17710201D01*
X13155369Y-17717569D02*
X13196592Y-17736043D01*
X13225982Y-17647416D02*
X13182793Y-17649717D01*
X13461260Y-17647872D02*
X13420097Y-17647388D01*
X13196592Y-17736043D02*
X13405171Y-17736960D01*
X14017475Y-17647355D02*
X13975448Y-17647051D01*
X13420097Y-17647388D02*
X13225982Y-17647416D01*
X12553918Y-17333741D02*
X12904871Y-17333741D01*
X12864790Y-17433727D02*
X12807190Y-17511251D01*
X12735088Y-17569128D02*
X12651503Y-17610171D01*
X12807190Y-17511251D02*
X12735088Y-17569128D01*
X12934741Y-17057459D02*
X12934741Y-17176931D01*
X12934741Y-17176931D02*
X12665925Y-17176932D01*
X12665925Y-17176932D02*
X12566068Y-17193176D01*
X12461958Y-17653013D02*
X12262701Y-17662291D01*
X12651503Y-17610171D02*
X12461958Y-17653013D01*
X12566068Y-17193176D02*
X12553918Y-17333741D01*
X12904871Y-17333741D02*
X12864790Y-17433727D01*
X13225508Y-18141817D02*
X13290440Y-18157516D01*
X13357541Y-18153782D02*
X13419786Y-18130089D01*
X13509710Y-17759372D02*
X13510925Y-17709700D01*
X13513585Y-17890853D02*
X13509710Y-17759372D01*
X13501616Y-18020721D02*
X13513585Y-17890853D01*
X13130240Y-18054226D02*
X13169766Y-18107212D01*
X13419786Y-18130089D02*
X13470152Y-18085911D01*
X13290440Y-18157516D02*
X13357541Y-18153782D01*
X13510925Y-17709700D02*
X13497561Y-17663606D01*
X13169766Y-18107212D02*
X13225508Y-18141817D01*
X13470152Y-18085911D02*
X13501616Y-18020721D01*
X14175976Y-18152157D02*
X14217779Y-18128641D01*
X14653484Y-17659502D02*
X14635238Y-17713772D01*
X14635238Y-17713772D02*
X14637243Y-17774286D01*
X14217779Y-18128641D02*
X14229903Y-18057470D01*
X14229903Y-18057470D02*
X14226553Y-17983376D01*
X14152145Y-18146769D02*
X14175976Y-18152157D01*
X14672074Y-18151207D02*
X14720754Y-18142938D01*
X14639848Y-18116191D02*
X14672074Y-18151207D01*
X14630470Y-17946048D02*
X14639848Y-18116191D01*
X14637243Y-17774286D02*
X14630470Y-17946048D01*
X14226553Y-17983376D02*
X14226551Y-17841491D01*
X15876791Y-17878843D02*
X15876787Y-17878843D01*
X16044632Y-17836894D02*
X16017083Y-17865268D01*
X15948505Y-17880431D02*
X15876791Y-17878843D01*
X16017083Y-17865268D02*
X15948505Y-17880431D01*
X15122989Y-17765005D02*
X15136634Y-17800315D01*
X15781025Y-18134077D02*
X15822343Y-18153269D01*
X15772251Y-18020711D02*
X15769979Y-18078702D01*
X16118946Y-18028204D02*
X16070932Y-17946043D01*
X15772247Y-17766832D02*
X15772251Y-18020711D01*
X16159785Y-17762303D02*
X16119842Y-17696626D01*
X16129125Y-18153106D02*
X16154463Y-18146072D01*
X16019803Y-18054188D02*
X16043210Y-18100470D01*
X15864641Y-18134077D02*
X15876845Y-18093729D01*
X15033993Y-17887394D02*
X14958331Y-17886310D01*
X15793289Y-17656132D02*
X15776683Y-17677145D01*
X15876783Y-18050587D02*
X15876791Y-17960974D01*
X15837713Y-17646198D02*
X15793289Y-17656132D01*
X16008407Y-17649560D02*
X15884254Y-17647358D01*
X15961412Y-17973127D02*
X15995828Y-18008637D01*
X16070932Y-17946043D02*
X16128405Y-17897605D01*
X16052111Y-17800561D02*
X16044632Y-17836894D01*
X16040376Y-17765190D02*
X16052111Y-17800561D01*
X16010281Y-17739701D02*
X16040376Y-17765190D01*
X15944569Y-17727962D02*
X16010281Y-17739701D01*
X15876791Y-17729501D02*
X15944569Y-17727962D01*
X15876787Y-17878843D02*
X15876791Y-17729501D01*
X15105299Y-17868165D02*
X15033993Y-17887394D01*
X15776683Y-17677145D02*
X15770932Y-17707094D01*
X15091888Y-17739701D02*
X15122989Y-17765005D01*
X15026131Y-17727993D02*
X15091888Y-17739701D01*
X14958331Y-17729501D02*
X15026131Y-17727993D01*
X14958335Y-17886303D02*
X14958331Y-17729501D01*
X16067972Y-17663700D02*
X16008407Y-17649560D01*
X16154463Y-18146072D02*
X16163972Y-18122648D01*
X15769979Y-18078702D02*
X15781025Y-18134077D01*
X16075920Y-18138173D02*
X16129125Y-18153106D01*
X15770932Y-17707094D02*
X15772247Y-17766832D01*
X16146567Y-18073500D02*
X16118946Y-18028204D01*
X16128405Y-17897605D02*
X16160331Y-17832827D01*
X15920304Y-17961282D02*
X15961412Y-17973127D01*
X16119842Y-17696626D02*
X16067972Y-17663700D01*
X16043210Y-18100470D02*
X16075920Y-18138173D01*
X16160331Y-17832827D02*
X16159785Y-17762303D01*
X15995828Y-18008637D02*
X16019803Y-18054188D01*
X15876845Y-18093729D02*
X15876783Y-18050587D01*
X15884254Y-17647358D02*
X15837713Y-17646198D01*
X15822343Y-18153269D02*
X15864641Y-18134077D01*
X15131258Y-17837435D02*
X15105299Y-17868165D01*
X15136634Y-17800315D02*
X15131258Y-17837435D01*
X16163972Y-18122648D02*
X16146567Y-18073500D01*
X14487806Y-18155882D02*
X14519130Y-18128072D01*
X14448378Y-18143254D02*
X14487806Y-18155882D01*
X13994401Y-18072480D02*
X14025780Y-17977865D01*
X14025780Y-17977865D02*
X14035236Y-17863846D01*
X14035236Y-17863846D02*
X14017475Y-17647354D01*
X14386126Y-18080350D02*
X14448378Y-18143254D01*
X14323133Y-17983367D02*
X14386126Y-18080350D01*
X14226554Y-17841499D02*
X14234021Y-17841491D01*
X14234021Y-17841491D02*
X14323133Y-17983367D01*
X13964198Y-18109668D02*
X13994401Y-18072480D01*
X13923575Y-18136785D02*
X13964198Y-18109668D01*
X14525238Y-17998301D02*
X14531314Y-17841552D01*
X14528078Y-18064114D02*
X14525238Y-17998301D01*
X14424190Y-17752766D02*
X14428167Y-17834025D01*
X14522633Y-17686265D02*
X14507853Y-17661689D01*
X14428167Y-17834025D02*
X14428171Y-17968441D01*
X14481954Y-17649705D02*
X14454306Y-17652891D01*
X14519130Y-18128072D02*
X14528078Y-18064114D01*
X14434275Y-17673825D02*
X14424190Y-17752766D01*
X14454306Y-17652891D02*
X14434275Y-17673825D01*
X14507853Y-17661689D02*
X14481954Y-17649705D01*
X14531314Y-17841552D02*
X14522633Y-17686265D01*
X14958329Y-17968431D02*
X15115139Y-17961561D01*
X14741781Y-18028168D02*
X14748557Y-17856403D01*
X14748557Y-17856403D02*
X14739177Y-17686263D01*
X14739177Y-17686263D02*
X14704319Y-17650178D01*
X15192253Y-17922549D02*
X15239029Y-17853759D01*
X14742872Y-18089459D02*
X14741781Y-18028168D01*
X14720754Y-18142938D02*
X14742872Y-18089459D01*
X15115139Y-17961561D02*
X15192253Y-17922549D01*
X15245604Y-17772471D02*
X15202116Y-17695963D01*
X14704319Y-17650178D02*
X14653484Y-17659501D01*
X15239029Y-17853759D02*
X15245604Y-17772471D01*
X13398017Y-17990808D02*
X13362743Y-18047565D01*
X13334377Y-18064355D02*
X13300676Y-18068205D01*
X13362743Y-18047565D02*
X13334377Y-18064355D01*
X13409807Y-17864844D02*
X13398017Y-17990808D01*
X13405171Y-17736971D02*
X13409807Y-17864844D01*
X13300676Y-18068205D02*
X13247736Y-18038811D01*
X13113953Y-17983386D02*
X13130240Y-18054226D01*
X13160652Y-17983137D02*
X13113953Y-17983386D01*
X13204641Y-17995512D02*
X13160652Y-17983137D01*
X13247736Y-18038811D02*
X13204641Y-17995512D01*
X13824301Y-18160702D02*
X13923575Y-18136785D01*
X13723034Y-18144028D02*
X13824301Y-18160702D01*
X13680054Y-17652089D02*
X13645925Y-17650214D01*
X13646231Y-18086563D02*
X13723034Y-18144028D01*
X13614132Y-18013200D02*
X13646231Y-18086563D01*
X13606783Y-17759361D02*
X13603436Y-17928083D01*
X13608044Y-17694195D02*
X13606783Y-17759361D01*
X13645925Y-17650214D02*
X13619202Y-17665682D01*
X13603436Y-17928083D02*
X13614132Y-18013200D01*
X13619202Y-17665682D02*
X13608044Y-17694195D01*
X13699749Y-17669219D02*
X13680054Y-17652089D01*
X12744492Y-16955263D02*
X12738777Y-16990255D01*
X12744492Y-17025247D02*
X12761638Y-17048681D01*
X12846050Y-16918060D02*
X12761638Y-16931828D01*
X12738777Y-16990255D02*
X12744492Y-17025247D01*
X12761638Y-16931828D02*
X12744492Y-16955263D01*
X12934741Y-16923051D02*
X12846050Y-16918060D01*
X12934741Y-16796111D02*
X12934741Y-16923051D01*
X12837671Y-16699041D02*
X12837671Y-16796111D01*
X12837671Y-16796111D02*
X12934741Y-16796111D01*
X12761638Y-17048681D02*
X12846050Y-17062450D01*
X13711263Y-17729515D02*
X13699749Y-17669219D01*
X13827260Y-18066734D02*
X13782086Y-18060037D01*
X13706854Y-17861181D02*
X13711263Y-17729515D01*
X13744137Y-18033113D02*
X13720081Y-17990685D01*
X13872993Y-18048481D02*
X13827260Y-18066734D01*
X13782086Y-18060037D02*
X13744137Y-18033113D01*
X13911902Y-17992551D02*
X13872993Y-18048481D01*
X13918847Y-17710201D02*
X13920402Y-17766829D01*
X13920402Y-17766829D02*
X13924697Y-17917176D01*
X13924697Y-17917176D02*
X13911902Y-17992551D01*
X13720081Y-17990685D02*
X13706854Y-17861181D01*
X13696391Y-17176931D02*
X13128891Y-17176931D01*
X13207835Y-17329458D02*
X13293164Y-17333740D01*
X13502241Y-17057461D02*
X13502241Y-16923051D01*
X13696391Y-17333741D02*
X13696391Y-17176931D01*
X13128891Y-17176931D02*
X13128891Y-17057461D01*
X13128891Y-16699041D02*
X12837671Y-16699041D01*
X13128891Y-16923051D02*
X13128891Y-16699041D01*
X13293164Y-17333740D02*
X13696391Y-17333741D01*
X13128891Y-17057461D02*
X13502241Y-17057461D01*
X13502241Y-16923051D02*
X13128891Y-16923051D01*
X15375661Y-17647578D02*
X15340459Y-17659507D01*
X14951931Y-18101153D02*
X14958330Y-17968430D01*
X15665512Y-17714657D02*
X15668811Y-17673650D01*
X15628133Y-17860715D02*
X15592908Y-17856703D01*
X14841113Y-17718484D02*
X14838654Y-17784768D01*
X14844530Y-18099296D02*
X14867358Y-18142937D01*
X15629452Y-17735038D02*
X15665512Y-17714657D01*
X15614518Y-17936998D02*
X15648744Y-17919777D01*
X14838654Y-17784768D02*
X14846323Y-17908693D01*
X15413831Y-17647380D02*
X15375661Y-17647578D01*
X15653631Y-17882659D02*
X15628133Y-17860715D01*
X14846323Y-17908693D02*
X14839471Y-18032477D01*
X14919129Y-17645332D02*
X14884103Y-17650998D01*
X15668811Y-17673650D02*
X15639669Y-17650654D01*
X15101088Y-17651016D02*
X14988198Y-17647344D01*
X15202116Y-17695963D02*
X15154656Y-17665149D01*
X15154656Y-17665149D02*
X15101088Y-17651016D01*
X15421291Y-17736971D02*
X15629452Y-17735038D01*
X15592908Y-17856703D02*
X15421291Y-17856449D01*
X14925546Y-18154185D02*
X14951931Y-18101153D01*
X15876787Y-17960978D02*
X15920304Y-17961282D01*
X15676281Y-18128773D02*
X15671095Y-18084912D01*
X15639669Y-17650654D02*
X15600442Y-17647493D01*
X14858472Y-17668386D02*
X14841113Y-17718484D01*
X14901193Y-18159193D02*
X14925546Y-18154185D01*
X14884103Y-17650998D02*
X14858472Y-17668386D01*
X15324221Y-18035651D02*
X15322586Y-18088823D01*
X15324218Y-17766832D02*
X15324221Y-18035651D01*
X15600442Y-17647493D02*
X15413831Y-17647380D01*
X15421292Y-18065503D02*
X15421291Y-17938581D01*
X14867358Y-18142937D02*
X14901193Y-18159193D01*
X15629872Y-18066438D02*
X15421293Y-18065518D01*
X15671095Y-18084912D02*
X15629872Y-18066438D01*
X15394229Y-18157305D02*
X15458629Y-18155125D01*
X15322658Y-17710196D02*
X15324218Y-17766832D01*
X15648744Y-17919777D02*
X15653631Y-17882659D01*
X15421291Y-17938581D02*
X15614518Y-17936998D01*
X14839471Y-18032477D02*
X14844530Y-18099296D01*
X14988198Y-17647344D02*
X14919129Y-17645332D01*
X15421291Y-17856449D02*
X15421291Y-17736971D01*
X15640108Y-18154167D02*
X15676281Y-18128773D01*
X15576631Y-18160861D02*
X15640108Y-18154167D01*
X15458629Y-18155125D02*
X15576631Y-18160861D01*
X15336370Y-18138182D02*
X15394229Y-18157305D01*
X15340459Y-17659507D02*
X15322658Y-17710196D01*
X15322586Y-18088823D02*
X15336370Y-18138182D01*
X12846050Y-17062450D02*
X12934741Y-17057459D01*
D11*
G04 #@! TO.C,U3*
X6418200Y-5101700D02*
X6433200Y-5101700D01*
X6418200Y-5100700D02*
X6418200Y-5085700D01*
X6688200Y-5100700D02*
X6688200Y-5085700D01*
X6688200Y-5100700D02*
X6673200Y-5100700D01*
X6673200Y-4830700D02*
X6688200Y-4830700D01*
X6688200Y-4830700D02*
X6688200Y-4845700D01*
X6418200Y-4845700D02*
X6418200Y-4820700D01*
D12*
G04 #@! TO.C,J2*
X9416700Y-4705000D02*
X9416700Y-4439000D01*
X8648700Y-4705000D02*
X9416700Y-4705000D01*
X8648700Y-4439000D02*
X9416700Y-4439000D01*
X8648700Y-4705000D02*
X8648700Y-4439000D01*
X8521700Y-4705000D02*
X8388700Y-4705000D01*
X8388700Y-4705000D02*
X8388700Y-4572000D01*
G04 #@! TO.C,R8*
X8365722Y-6172400D02*
X8398278Y-6172400D01*
X8365722Y-6070400D02*
X8398278Y-6070400D01*
G04 #@! TO.C,C5*
X6213878Y-4559500D02*
X6181322Y-4559500D01*
X6213878Y-4457500D02*
X6181322Y-4457500D01*
G04 #@! TO.C,R9*
X8356800Y-5876522D02*
X8356800Y-5909078D01*
X8254800Y-5876522D02*
X8254800Y-5909078D01*
G04 #@! TO.C,C9*
X8539600Y-5867858D02*
X8539600Y-5816142D01*
X8681600Y-5867858D02*
X8681600Y-5816142D01*
G04 #@! TO.C,D2*
X5421000Y-4834000D02*
X5375000Y-4834000D01*
X5375000Y-4834000D02*
X5375000Y-5326000D01*
X5547000Y-4845000D02*
X5547000Y-5326000D01*
X5547000Y-5326000D02*
X5375000Y-5326000D01*
G04 #@! TO.C,C4*
X6854422Y-5143300D02*
X6886978Y-5143300D01*
X6854422Y-5245300D02*
X6886978Y-5245300D01*
G04 #@! TO.C,L1*
X6794700Y-4568422D02*
X6794700Y-4600978D01*
X6692700Y-4568422D02*
X6692700Y-4600978D01*
G04 #@! TO.C,R7*
X6734578Y-5397700D02*
X6702022Y-5397700D01*
X6734578Y-5295700D02*
X6702022Y-5295700D01*
G04 #@! TO.C,R10*
X9054900Y-5083578D02*
X9054900Y-5051022D01*
X9156900Y-5083578D02*
X9156900Y-5051022D01*
G04 #@! TO.C,R11*
X9156900Y-5439178D02*
X9156900Y-5406622D01*
X9054900Y-5439178D02*
X9054900Y-5406622D01*
G04 #@! TO.C,R12*
X8804678Y-4927400D02*
X8772122Y-4927400D01*
X8804678Y-5029400D02*
X8772122Y-5029400D01*
G04 #@! TO.C,R13*
X8804678Y-5562800D02*
X8772122Y-5562800D01*
X8804678Y-5460800D02*
X8772122Y-5460800D01*
G04 #@! TO.C,U2*
X9269900Y-6079200D02*
X9449900Y-6079200D01*
X9449900Y-5757200D02*
X9204900Y-5757200D01*
G04 #@! TO.C,U4*
X6384000Y-4978400D02*
X6384000Y-5128400D01*
X6062000Y-4828400D02*
X6062000Y-5128400D01*
G04 #@! TO.C,U5*
X8749200Y-5406100D02*
X8929200Y-5406100D01*
X8929200Y-5084100D02*
X8684200Y-5084100D01*
G04 #@! TO.C,R1*
X8467322Y-4775000D02*
X8499878Y-4775000D01*
X8467322Y-4877000D02*
X8499878Y-4877000D01*
D10*
G04 #@! TO.C,IC1*
X6950800Y-4619800D02*
X6950800Y-4619800D01*
X6960800Y-4619800D02*
X6960800Y-4619800D01*
X6950800Y-4619800D02*
X6950800Y-4619800D01*
X8330800Y-4419800D02*
X8330800Y-3919800D01*
X8330800Y-4419800D02*
X8330800Y-4419800D01*
X8330800Y-3919800D02*
X8330800Y-4419800D01*
X8330800Y-3919800D02*
X8330800Y-3919800D01*
X7010800Y-3919800D02*
X7010800Y-3919800D01*
X8330800Y-3919800D02*
X7010800Y-3919800D01*
X8330800Y-3919800D02*
X8330800Y-3919800D01*
X7010800Y-3919800D02*
X8330800Y-3919800D01*
X7010800Y-3919800D02*
X7010800Y-4419800D01*
X7010800Y-3919800D02*
X7010800Y-3919800D01*
X7010800Y-4419800D02*
X7010800Y-3919800D01*
X7010800Y-4419800D02*
X7010800Y-4419800D01*
X6960800Y-4619800D02*
G75*
G02*
X6950800Y-4619800I-5000J0D01*
G01*
X6950800Y-4619800D02*
G75*
G02*
X6960800Y-4619800I5000J0D01*
G01*
X6960800Y-4619800D02*
G75*
G02*
X6950800Y-4619800I-5000J0D01*
G01*
D12*
G04 #@! TO.C,J3*
X8159400Y-6203600D02*
X8159400Y-5937600D01*
X7137400Y-6203600D02*
X8159400Y-6203600D01*
X7137400Y-5937600D02*
X8159400Y-5937600D01*
X7137400Y-6203600D02*
X7137400Y-5937600D01*
X7010400Y-6203600D02*
X6877400Y-6203600D01*
X6877400Y-6203600D02*
X6877400Y-6070600D01*
G04 #@! TO.C,J4*
X9663750Y-5470000D02*
X9663750Y-5425000D01*
X9848750Y-5470000D02*
X9663750Y-5470000D01*
X10103750Y-4690000D02*
X10078750Y-4690000D01*
X10103750Y-5470000D02*
X10078750Y-5470000D01*
X9848750Y-4690000D02*
X9663750Y-4690000D01*
X9663750Y-4690000D02*
X9663750Y-4735000D01*
X9608750Y-5250000D02*
X9608750Y-5205000D01*
X9608750Y-5250000D02*
X9653750Y-5250000D01*
G04 #@! TO.C,R2*
X8467322Y-4927400D02*
X8499878Y-4927400D01*
X8467322Y-5029400D02*
X8499878Y-5029400D01*
G04 #@! TO.C,R3*
X5667778Y-4609900D02*
X5635222Y-4609900D01*
X5667778Y-4711900D02*
X5635222Y-4711900D01*
G04 #@! TO.C,R14*
X5727900Y-4873222D02*
X5727900Y-4905778D01*
X5625900Y-4873222D02*
X5625900Y-4905778D01*
G04 #@! TO.C,R15*
X5727900Y-5210578D02*
X5727900Y-5178022D01*
X5625900Y-5210578D02*
X5625900Y-5178022D01*
G04 #@! TO.C,C8*
X9524542Y-5697100D02*
X9576258Y-5697100D01*
X9524542Y-5555100D02*
X9576258Y-5555100D01*
G04 #@! TO.C,L2*
X9140800Y-6217100D02*
X8740800Y-6217100D01*
X9140800Y-5797100D02*
X8740800Y-5797100D01*
G04 #@! TO.C,U1*
X6721600Y-4965700D02*
X6721600Y-4865700D01*
X6943600Y-5065700D02*
X6943600Y-4865700D01*
G04 #@! TO.C,C1*
X6340878Y-5359200D02*
X6308322Y-5359200D01*
X6340878Y-5461200D02*
X6308322Y-5461200D01*
G04 #@! TO.C,R16*
X6477200Y-4575578D02*
X6477200Y-4543022D01*
X6375200Y-4575578D02*
X6375200Y-4543022D01*
G04 #@! TO.C,R17*
X6527600Y-4575578D02*
X6527600Y-4543022D01*
X6629600Y-4575578D02*
X6629600Y-4543022D01*
G04 #@! TO.C,SW1*
X6683700Y-5549300D02*
X6683700Y-5508300D01*
X6683700Y-5508300D02*
X6041700Y-5508300D01*
X6041700Y-5508300D02*
X6041700Y-5536300D01*
X6041700Y-5709300D02*
X6041700Y-5949300D01*
X6041700Y-6109300D02*
X6041700Y-6150300D01*
X6041700Y-6150300D02*
X6683700Y-6150300D01*
X6683700Y-6150300D02*
X6683700Y-6109300D01*
X6683700Y-5949300D02*
X6683700Y-5709300D01*
G04 #@! TO.C,C3*
X5872600Y-4699458D02*
X5872600Y-4647742D01*
X6014600Y-4699458D02*
X6014600Y-4647742D01*
G04 #@! TO.C,D1*
X6836500Y-4802100D02*
X7006500Y-4802100D01*
X7006500Y-4802100D02*
X7006500Y-4487100D01*
X6836500Y-4802100D02*
X6836500Y-4487100D01*
G04 #@! TO.C,C2*
X8238722Y-5613200D02*
X8271278Y-5613200D01*
X8238722Y-5715200D02*
X8271278Y-5715200D01*
G04 #@! TO.C,R18*
X6997900Y-5406622D02*
X6997900Y-5439178D01*
X6895900Y-5406622D02*
X6895900Y-5439178D01*
G04 #@! TO.C,U3*
D13*
X6438909Y-5152238D02*
X6438909Y-5233190D01*
X6443671Y-5242714D01*
X6448433Y-5247476D01*
X6457957Y-5252238D01*
X6477005Y-5252238D01*
X6486528Y-5247476D01*
X6491290Y-5242714D01*
X6496052Y-5233190D01*
X6496052Y-5152238D01*
X6534148Y-5152238D02*
X6596052Y-5152238D01*
X6562719Y-5190333D01*
X6577005Y-5190333D01*
X6586528Y-5195095D01*
X6591290Y-5199857D01*
X6596052Y-5209381D01*
X6596052Y-5233190D01*
X6591290Y-5242714D01*
X6586528Y-5247476D01*
X6577005Y-5252238D01*
X6548433Y-5252238D01*
X6538909Y-5247476D01*
X6534148Y-5242714D01*
G04 #@! TO.C,J2*
X9483738Y-4631033D02*
X9555167Y-4631033D01*
X9569452Y-4635795D01*
X9578976Y-4645319D01*
X9583738Y-4659605D01*
X9583738Y-4669129D01*
X9493262Y-4588176D02*
X9488500Y-4583414D01*
X9483738Y-4573890D01*
X9483738Y-4550081D01*
X9488500Y-4540557D01*
X9493262Y-4535795D01*
X9502786Y-4531033D01*
X9512310Y-4531033D01*
X9526595Y-4535795D01*
X9583738Y-4592938D01*
X9583738Y-4531033D01*
G04 #@! TO.C,R8*
X8606633Y-6179338D02*
X8573300Y-6131719D01*
X8549490Y-6179338D02*
X8549490Y-6079338D01*
X8587586Y-6079338D01*
X8597110Y-6084100D01*
X8601871Y-6088862D01*
X8606633Y-6098386D01*
X8606633Y-6112671D01*
X8601871Y-6122195D01*
X8597110Y-6126957D01*
X8587586Y-6131719D01*
X8549490Y-6131719D01*
X8663776Y-6122195D02*
X8654252Y-6117433D01*
X8649490Y-6112671D01*
X8644729Y-6103148D01*
X8644729Y-6098386D01*
X8649490Y-6088862D01*
X8654252Y-6084100D01*
X8663776Y-6079338D01*
X8682824Y-6079338D01*
X8692348Y-6084100D01*
X8697110Y-6088862D01*
X8701871Y-6098386D01*
X8701871Y-6103148D01*
X8697110Y-6112671D01*
X8692348Y-6117433D01*
X8682824Y-6122195D01*
X8663776Y-6122195D01*
X8654252Y-6126957D01*
X8649490Y-6131719D01*
X8644729Y-6141243D01*
X8644729Y-6160290D01*
X8649490Y-6169814D01*
X8654252Y-6174576D01*
X8663776Y-6179338D01*
X8682824Y-6179338D01*
X8692348Y-6174576D01*
X8697110Y-6169814D01*
X8701871Y-6160290D01*
X8701871Y-6141243D01*
X8697110Y-6131719D01*
X8692348Y-6126957D01*
X8682824Y-6122195D01*
G04 #@! TO.C,C5*
X6130133Y-4341014D02*
X6125371Y-4345776D01*
X6111086Y-4350538D01*
X6101562Y-4350538D01*
X6087276Y-4345776D01*
X6077752Y-4336252D01*
X6072990Y-4326729D01*
X6068228Y-4307681D01*
X6068228Y-4293395D01*
X6072990Y-4274348D01*
X6077752Y-4264824D01*
X6087276Y-4255300D01*
X6101562Y-4250538D01*
X6111086Y-4250538D01*
X6125371Y-4255300D01*
X6130133Y-4260062D01*
X6220609Y-4250538D02*
X6172990Y-4250538D01*
X6168228Y-4298157D01*
X6172990Y-4293395D01*
X6182514Y-4288633D01*
X6206324Y-4288633D01*
X6215848Y-4293395D01*
X6220609Y-4298157D01*
X6225371Y-4307681D01*
X6225371Y-4331490D01*
X6220609Y-4341014D01*
X6215848Y-4345776D01*
X6206324Y-4350538D01*
X6182514Y-4350538D01*
X6172990Y-4345776D01*
X6168228Y-4341014D01*
G04 #@! TO.C,R9*
X8494038Y-5909467D02*
X8446419Y-5942800D01*
X8494038Y-5966609D02*
X8394038Y-5966609D01*
X8394038Y-5928514D01*
X8398800Y-5918990D01*
X8403562Y-5914228D01*
X8413086Y-5909467D01*
X8427371Y-5909467D01*
X8436895Y-5914228D01*
X8441657Y-5918990D01*
X8446419Y-5928514D01*
X8446419Y-5966609D01*
X8494038Y-5861848D02*
X8494038Y-5842800D01*
X8489276Y-5833276D01*
X8484514Y-5828514D01*
X8470229Y-5818990D01*
X8451181Y-5814228D01*
X8413086Y-5814228D01*
X8403562Y-5818990D01*
X8398800Y-5823752D01*
X8394038Y-5833276D01*
X8394038Y-5852324D01*
X8398800Y-5861848D01*
X8403562Y-5866609D01*
X8413086Y-5871371D01*
X8436895Y-5871371D01*
X8446419Y-5866609D01*
X8451181Y-5861848D01*
X8455943Y-5852324D01*
X8455943Y-5833276D01*
X8451181Y-5823752D01*
X8446419Y-5818990D01*
X8436895Y-5814228D01*
G04 #@! TO.C,C9*
X8595514Y-5591967D02*
X8600276Y-5596728D01*
X8605038Y-5611014D01*
X8605038Y-5620538D01*
X8600276Y-5634824D01*
X8590752Y-5644348D01*
X8581229Y-5649109D01*
X8562181Y-5653871D01*
X8547895Y-5653871D01*
X8528848Y-5649109D01*
X8519324Y-5644348D01*
X8509800Y-5634824D01*
X8505038Y-5620538D01*
X8505038Y-5611014D01*
X8509800Y-5596728D01*
X8514562Y-5591967D01*
X8605038Y-5544348D02*
X8605038Y-5525300D01*
X8600276Y-5515776D01*
X8595514Y-5511014D01*
X8581229Y-5501490D01*
X8562181Y-5496729D01*
X8524086Y-5496729D01*
X8514562Y-5501490D01*
X8509800Y-5506252D01*
X8505038Y-5515776D01*
X8505038Y-5534824D01*
X8509800Y-5544348D01*
X8514562Y-5549110D01*
X8524086Y-5553871D01*
X8547895Y-5553871D01*
X8557419Y-5549110D01*
X8562181Y-5544348D01*
X8566943Y-5534824D01*
X8566943Y-5515776D01*
X8562181Y-5506252D01*
X8557419Y-5501490D01*
X8547895Y-5496729D01*
G04 #@! TO.C,D2*
X5544338Y-5522110D02*
X5444338Y-5522110D01*
X5444338Y-5498300D01*
X5449100Y-5484014D01*
X5458624Y-5474490D01*
X5468148Y-5469729D01*
X5487195Y-5464967D01*
X5501481Y-5464967D01*
X5520529Y-5469729D01*
X5530052Y-5474490D01*
X5539576Y-5484014D01*
X5544338Y-5498300D01*
X5544338Y-5522110D01*
X5453862Y-5426871D02*
X5449100Y-5422110D01*
X5444338Y-5412586D01*
X5444338Y-5388776D01*
X5449100Y-5379252D01*
X5453862Y-5374490D01*
X5463386Y-5369729D01*
X5472910Y-5369729D01*
X5487195Y-5374490D01*
X5544338Y-5431633D01*
X5544338Y-5369729D01*
G04 #@! TO.C,C4*
X6904833Y-5674514D02*
X6900071Y-5679276D01*
X6885786Y-5684038D01*
X6876262Y-5684038D01*
X6861976Y-5679276D01*
X6852452Y-5669752D01*
X6847690Y-5660228D01*
X6842928Y-5641181D01*
X6842928Y-5626895D01*
X6847690Y-5607848D01*
X6852452Y-5598324D01*
X6861976Y-5588800D01*
X6876262Y-5584038D01*
X6885786Y-5584038D01*
X6900071Y-5588800D01*
X6904833Y-5593562D01*
X6990548Y-5617371D02*
X6990548Y-5684038D01*
X6966738Y-5579276D02*
X6942928Y-5650705D01*
X7004833Y-5650705D01*
G04 #@! TO.C,L1*
X6636538Y-4296567D02*
X6636538Y-4344186D01*
X6536538Y-4344186D01*
X6636538Y-4210852D02*
X6636538Y-4267995D01*
X6636538Y-4239424D02*
X6536538Y-4239424D01*
X6550824Y-4248948D01*
X6560348Y-4258471D01*
X6565109Y-4267995D01*
G04 #@! TO.C,R7*
X6790533Y-5823738D02*
X6757200Y-5776119D01*
X6733390Y-5823738D02*
X6733390Y-5723738D01*
X6771486Y-5723738D01*
X6781009Y-5728500D01*
X6785771Y-5733262D01*
X6790533Y-5742786D01*
X6790533Y-5757071D01*
X6785771Y-5766595D01*
X6781009Y-5771357D01*
X6771486Y-5776119D01*
X6733390Y-5776119D01*
X6823867Y-5723738D02*
X6890533Y-5723738D01*
X6847676Y-5823738D01*
G04 #@! TO.C,R10*
X9303538Y-5131586D02*
X9255919Y-5164919D01*
X9303538Y-5188729D02*
X9203538Y-5188729D01*
X9203538Y-5150633D01*
X9208300Y-5141110D01*
X9213062Y-5136348D01*
X9222586Y-5131586D01*
X9236871Y-5131586D01*
X9246395Y-5136348D01*
X9251157Y-5141110D01*
X9255919Y-5150633D01*
X9255919Y-5188729D01*
X9303538Y-5036348D02*
X9303538Y-5093490D01*
X9303538Y-5064919D02*
X9203538Y-5064919D01*
X9217824Y-5074443D01*
X9227348Y-5083967D01*
X9232110Y-5093490D01*
X9203538Y-4974443D02*
X9203538Y-4964919D01*
X9208300Y-4955395D01*
X9213062Y-4950633D01*
X9222586Y-4945871D01*
X9241633Y-4941110D01*
X9265443Y-4941110D01*
X9284490Y-4945871D01*
X9294014Y-4950633D01*
X9298776Y-4955395D01*
X9303538Y-4964919D01*
X9303538Y-4974443D01*
X9298776Y-4983967D01*
X9294014Y-4988729D01*
X9284490Y-4993490D01*
X9265443Y-4998252D01*
X9241633Y-4998252D01*
X9222586Y-4993490D01*
X9213062Y-4988729D01*
X9208300Y-4983967D01*
X9203538Y-4974443D01*
G04 #@! TO.C,R11*
X9303538Y-5487186D02*
X9255919Y-5520519D01*
X9303538Y-5544329D02*
X9203538Y-5544329D01*
X9203538Y-5506233D01*
X9208300Y-5496710D01*
X9213062Y-5491948D01*
X9222586Y-5487186D01*
X9236871Y-5487186D01*
X9246395Y-5491948D01*
X9251157Y-5496710D01*
X9255919Y-5506233D01*
X9255919Y-5544329D01*
X9303538Y-5391948D02*
X9303538Y-5449090D01*
X9303538Y-5420519D02*
X9203538Y-5420519D01*
X9217824Y-5430043D01*
X9227348Y-5439567D01*
X9232110Y-5449090D01*
X9303538Y-5296710D02*
X9303538Y-5353852D01*
X9303538Y-5325281D02*
X9203538Y-5325281D01*
X9217824Y-5334805D01*
X9227348Y-5344329D01*
X9232110Y-5353852D01*
G04 #@! TO.C,R12*
X8940014Y-4883938D02*
X8906681Y-4836319D01*
X8882871Y-4883938D02*
X8882871Y-4783938D01*
X8920967Y-4783938D01*
X8930490Y-4788700D01*
X8935252Y-4793462D01*
X8940014Y-4802986D01*
X8940014Y-4817271D01*
X8935252Y-4826795D01*
X8930490Y-4831557D01*
X8920967Y-4836319D01*
X8882871Y-4836319D01*
X9035252Y-4883938D02*
X8978110Y-4883938D01*
X9006681Y-4883938D02*
X9006681Y-4783938D01*
X8997157Y-4798224D01*
X8987633Y-4807748D01*
X8978110Y-4812510D01*
X9073348Y-4793462D02*
X9078110Y-4788700D01*
X9087633Y-4783938D01*
X9111443Y-4783938D01*
X9120967Y-4788700D01*
X9125729Y-4793462D01*
X9130490Y-4802986D01*
X9130490Y-4812510D01*
X9125729Y-4826795D01*
X9068586Y-4883938D01*
X9130490Y-4883938D01*
G04 #@! TO.C,R13*
X8774914Y-5700038D02*
X8741581Y-5652419D01*
X8717771Y-5700038D02*
X8717771Y-5600038D01*
X8755867Y-5600038D01*
X8765390Y-5604800D01*
X8770152Y-5609562D01*
X8774914Y-5619086D01*
X8774914Y-5633371D01*
X8770152Y-5642895D01*
X8765390Y-5647657D01*
X8755867Y-5652419D01*
X8717771Y-5652419D01*
X8870152Y-5700038D02*
X8813010Y-5700038D01*
X8841581Y-5700038D02*
X8841581Y-5600038D01*
X8832057Y-5614324D01*
X8822533Y-5623848D01*
X8813010Y-5628609D01*
X8903486Y-5600038D02*
X8965390Y-5600038D01*
X8932057Y-5638133D01*
X8946343Y-5638133D01*
X8955867Y-5642895D01*
X8960629Y-5647657D01*
X8965390Y-5657181D01*
X8965390Y-5680990D01*
X8960629Y-5690514D01*
X8955867Y-5695276D01*
X8946343Y-5700038D01*
X8917771Y-5700038D01*
X8908248Y-5695276D01*
X8903486Y-5690514D01*
G04 #@! TO.C,U2*
X9182110Y-5622138D02*
X9182110Y-5703090D01*
X9186871Y-5712614D01*
X9191633Y-5717376D01*
X9201157Y-5722138D01*
X9220205Y-5722138D01*
X9229729Y-5717376D01*
X9234490Y-5712614D01*
X9239252Y-5703090D01*
X9239252Y-5622138D01*
X9282110Y-5631662D02*
X9286871Y-5626900D01*
X9296395Y-5622138D01*
X9320205Y-5622138D01*
X9329729Y-5626900D01*
X9334490Y-5631662D01*
X9339252Y-5641186D01*
X9339252Y-5650709D01*
X9334490Y-5664995D01*
X9277348Y-5722138D01*
X9339252Y-5722138D01*
G04 #@! TO.C,U4*
X5939638Y-5041890D02*
X6020590Y-5041890D01*
X6030114Y-5037129D01*
X6034876Y-5032367D01*
X6039638Y-5022843D01*
X6039638Y-5003795D01*
X6034876Y-4994271D01*
X6030114Y-4989510D01*
X6020590Y-4984748D01*
X5939638Y-4984748D01*
X5972971Y-4894271D02*
X6039638Y-4894271D01*
X5934876Y-4918081D02*
X6006305Y-4941890D01*
X6006305Y-4879986D01*
G04 #@! TO.C,U5*
X8458210Y-5190338D02*
X8458210Y-5271290D01*
X8462971Y-5280814D01*
X8467733Y-5285576D01*
X8477257Y-5290338D01*
X8496305Y-5290338D01*
X8505829Y-5285576D01*
X8510590Y-5280814D01*
X8515352Y-5271290D01*
X8515352Y-5190338D01*
X8610590Y-5190338D02*
X8562971Y-5190338D01*
X8558210Y-5237957D01*
X8562971Y-5233195D01*
X8572495Y-5228433D01*
X8596305Y-5228433D01*
X8605829Y-5233195D01*
X8610590Y-5237957D01*
X8615352Y-5247481D01*
X8615352Y-5271290D01*
X8610590Y-5280814D01*
X8605829Y-5285576D01*
X8596305Y-5290338D01*
X8572495Y-5290338D01*
X8562971Y-5285576D01*
X8558210Y-5280814D01*
G04 #@! TO.C,R1*
X8720933Y-4883938D02*
X8687600Y-4836319D01*
X8663790Y-4883938D02*
X8663790Y-4783938D01*
X8701886Y-4783938D01*
X8711410Y-4788700D01*
X8716171Y-4793462D01*
X8720933Y-4802986D01*
X8720933Y-4817271D01*
X8716171Y-4826795D01*
X8711410Y-4831557D01*
X8701886Y-4836319D01*
X8663790Y-4836319D01*
X8816171Y-4883938D02*
X8759029Y-4883938D01*
X8787600Y-4883938D02*
X8787600Y-4783938D01*
X8778076Y-4798224D01*
X8768552Y-4807748D01*
X8759029Y-4812510D01*
G04 #@! TO.C,IC1*
D14*
X8359624Y-5454952D02*
X8359624Y-5327952D01*
X8492671Y-5442857D02*
X8486624Y-5448905D01*
X8468481Y-5454952D01*
X8456386Y-5454952D01*
X8438243Y-5448905D01*
X8426148Y-5436810D01*
X8420100Y-5424714D01*
X8414052Y-5400524D01*
X8414052Y-5382381D01*
X8420100Y-5358190D01*
X8426148Y-5346095D01*
X8438243Y-5334000D01*
X8456386Y-5327952D01*
X8468481Y-5327952D01*
X8486624Y-5334000D01*
X8492671Y-5340048D01*
X8613624Y-5454952D02*
X8541052Y-5454952D01*
X8577338Y-5454952D02*
X8577338Y-5327952D01*
X8565243Y-5346095D01*
X8553148Y-5358190D01*
X8541052Y-5364238D01*
G04 #@! TO.C,J3*
D13*
X6684967Y-6180938D02*
X6684967Y-6252367D01*
X6680205Y-6266652D01*
X6670681Y-6276176D01*
X6656395Y-6280938D01*
X6646871Y-6280938D01*
X6723062Y-6180938D02*
X6784967Y-6180938D01*
X6751633Y-6219033D01*
X6765919Y-6219033D01*
X6775443Y-6223795D01*
X6780205Y-6228557D01*
X6784967Y-6238081D01*
X6784967Y-6261890D01*
X6780205Y-6271414D01*
X6775443Y-6276176D01*
X6765919Y-6280938D01*
X6737348Y-6280938D01*
X6727824Y-6276176D01*
X6723062Y-6271414D01*
G04 #@! TO.C,J4*
X9473988Y-5113333D02*
X9545417Y-5113333D01*
X9559702Y-5118095D01*
X9569226Y-5127619D01*
X9573988Y-5141905D01*
X9573988Y-5151429D01*
X9507321Y-5022857D02*
X9573988Y-5022857D01*
X9469226Y-5046667D02*
X9540655Y-5070476D01*
X9540655Y-5008571D01*
G04 #@! TO.C,R2*
X8466933Y-5163338D02*
X8433600Y-5115719D01*
X8409790Y-5163338D02*
X8409790Y-5063338D01*
X8447886Y-5063338D01*
X8457410Y-5068100D01*
X8462171Y-5072862D01*
X8466933Y-5082386D01*
X8466933Y-5096671D01*
X8462171Y-5106195D01*
X8457410Y-5110957D01*
X8447886Y-5115719D01*
X8409790Y-5115719D01*
X8505029Y-5072862D02*
X8509790Y-5068100D01*
X8519314Y-5063338D01*
X8543124Y-5063338D01*
X8552648Y-5068100D01*
X8557410Y-5072862D01*
X8562171Y-5082386D01*
X8562171Y-5091910D01*
X8557410Y-5106195D01*
X8500267Y-5163338D01*
X8562171Y-5163338D01*
G04 #@! TO.C,R3*
X5634833Y-4553738D02*
X5601500Y-4506119D01*
X5577690Y-4553738D02*
X5577690Y-4453738D01*
X5615786Y-4453738D01*
X5625309Y-4458500D01*
X5630071Y-4463262D01*
X5634833Y-4472786D01*
X5634833Y-4487071D01*
X5630071Y-4496595D01*
X5625309Y-4501357D01*
X5615786Y-4506119D01*
X5577690Y-4506119D01*
X5668167Y-4453738D02*
X5730071Y-4453738D01*
X5696738Y-4491833D01*
X5711024Y-4491833D01*
X5720548Y-4496595D01*
X5725309Y-4501357D01*
X5730071Y-4510881D01*
X5730071Y-4534690D01*
X5725309Y-4544214D01*
X5720548Y-4548976D01*
X5711024Y-4553738D01*
X5682452Y-4553738D01*
X5672928Y-4548976D01*
X5668167Y-4544214D01*
G04 #@! TO.C,R14*
X5874538Y-5055386D02*
X5826919Y-5088719D01*
X5874538Y-5112529D02*
X5774538Y-5112529D01*
X5774538Y-5074433D01*
X5779300Y-5064910D01*
X5784062Y-5060148D01*
X5793586Y-5055386D01*
X5807871Y-5055386D01*
X5817395Y-5060148D01*
X5822157Y-5064910D01*
X5826919Y-5074433D01*
X5826919Y-5112529D01*
X5874538Y-4960148D02*
X5874538Y-5017290D01*
X5874538Y-4988719D02*
X5774538Y-4988719D01*
X5788824Y-4998243D01*
X5798348Y-5007767D01*
X5803109Y-5017290D01*
X5807871Y-4874433D02*
X5874538Y-4874433D01*
X5769776Y-4898243D02*
X5841205Y-4922052D01*
X5841205Y-4860148D01*
G04 #@! TO.C,R15*
X5874538Y-5347486D02*
X5826919Y-5380819D01*
X5874538Y-5404629D02*
X5774538Y-5404629D01*
X5774538Y-5366533D01*
X5779300Y-5357010D01*
X5784062Y-5352248D01*
X5793586Y-5347486D01*
X5807871Y-5347486D01*
X5817395Y-5352248D01*
X5822157Y-5357010D01*
X5826919Y-5366533D01*
X5826919Y-5404629D01*
X5874538Y-5252248D02*
X5874538Y-5309390D01*
X5874538Y-5280819D02*
X5774538Y-5280819D01*
X5788824Y-5290343D01*
X5798348Y-5299867D01*
X5803109Y-5309390D01*
X5774538Y-5161771D02*
X5774538Y-5209390D01*
X5822157Y-5214152D01*
X5817395Y-5209390D01*
X5812633Y-5199867D01*
X5812633Y-5176057D01*
X5817395Y-5166533D01*
X5822157Y-5161771D01*
X5831681Y-5157010D01*
X5855490Y-5157010D01*
X5865014Y-5161771D01*
X5869776Y-5166533D01*
X5874538Y-5176057D01*
X5874538Y-5199867D01*
X5869776Y-5209390D01*
X5865014Y-5214152D01*
G04 #@! TO.C,C8*
X9444833Y-5484014D02*
X9440071Y-5488776D01*
X9425786Y-5493538D01*
X9416262Y-5493538D01*
X9401976Y-5488776D01*
X9392452Y-5479252D01*
X9387690Y-5469729D01*
X9382929Y-5450681D01*
X9382929Y-5436395D01*
X9387690Y-5417348D01*
X9392452Y-5407824D01*
X9401976Y-5398300D01*
X9416262Y-5393538D01*
X9425786Y-5393538D01*
X9440071Y-5398300D01*
X9444833Y-5403062D01*
X9501976Y-5436395D02*
X9492452Y-5431633D01*
X9487690Y-5426871D01*
X9482929Y-5417348D01*
X9482929Y-5412586D01*
X9487690Y-5403062D01*
X9492452Y-5398300D01*
X9501976Y-5393538D01*
X9521024Y-5393538D01*
X9530548Y-5398300D01*
X9535310Y-5403062D01*
X9540071Y-5412586D01*
X9540071Y-5417348D01*
X9535310Y-5426871D01*
X9530548Y-5431633D01*
X9521024Y-5436395D01*
X9501976Y-5436395D01*
X9492452Y-5441157D01*
X9487690Y-5445919D01*
X9482929Y-5455443D01*
X9482929Y-5474490D01*
X9487690Y-5484014D01*
X9492452Y-5488776D01*
X9501976Y-5493538D01*
X9521024Y-5493538D01*
X9530548Y-5488776D01*
X9535310Y-5484014D01*
X9540071Y-5474490D01*
X9540071Y-5455443D01*
X9535310Y-5445919D01*
X9530548Y-5441157D01*
X9521024Y-5436395D01*
G04 #@! TO.C,L2*
X8797133Y-6344438D02*
X8749514Y-6344438D01*
X8749514Y-6244438D01*
X8825705Y-6253962D02*
X8830467Y-6249200D01*
X8839990Y-6244438D01*
X8863800Y-6244438D01*
X8873324Y-6249200D01*
X8878086Y-6253962D01*
X8882848Y-6263486D01*
X8882848Y-6273009D01*
X8878086Y-6287295D01*
X8820943Y-6344438D01*
X8882848Y-6344438D01*
G04 #@! TO.C,U1*
X6502409Y-4707738D02*
X6502409Y-4788690D01*
X6507171Y-4798214D01*
X6511933Y-4802976D01*
X6521457Y-4807738D01*
X6540505Y-4807738D01*
X6550028Y-4802976D01*
X6554790Y-4798214D01*
X6559552Y-4788690D01*
X6559552Y-4707738D01*
X6659552Y-4807738D02*
X6602409Y-4807738D01*
X6630981Y-4807738D02*
X6630981Y-4707738D01*
X6621457Y-4722024D01*
X6611933Y-4731548D01*
X6602409Y-4736310D01*
G04 #@! TO.C,C1*
X6066633Y-5445914D02*
X6061871Y-5450676D01*
X6047586Y-5455438D01*
X6038062Y-5455438D01*
X6023776Y-5450676D01*
X6014252Y-5441152D01*
X6009490Y-5431629D01*
X6004728Y-5412581D01*
X6004728Y-5398295D01*
X6009490Y-5379248D01*
X6014252Y-5369724D01*
X6023776Y-5360200D01*
X6038062Y-5355438D01*
X6047586Y-5355438D01*
X6061871Y-5360200D01*
X6066633Y-5364962D01*
X6161871Y-5455438D02*
X6104728Y-5455438D01*
X6133300Y-5455438D02*
X6133300Y-5355438D01*
X6123776Y-5369724D01*
X6114252Y-5379248D01*
X6104728Y-5384010D01*
G04 #@! TO.C,R16*
X6369838Y-4293386D02*
X6322219Y-4326719D01*
X6369838Y-4350529D02*
X6269838Y-4350529D01*
X6269838Y-4312433D01*
X6274600Y-4302910D01*
X6279362Y-4298148D01*
X6288886Y-4293386D01*
X6303171Y-4293386D01*
X6312695Y-4298148D01*
X6317457Y-4302910D01*
X6322219Y-4312433D01*
X6322219Y-4350529D01*
X6369838Y-4198148D02*
X6369838Y-4255290D01*
X6369838Y-4226719D02*
X6269838Y-4226719D01*
X6284124Y-4236243D01*
X6293648Y-4245767D01*
X6298409Y-4255290D01*
X6269838Y-4112433D02*
X6269838Y-4131481D01*
X6274600Y-4141005D01*
X6279362Y-4145767D01*
X6293648Y-4155290D01*
X6312695Y-4160052D01*
X6350790Y-4160052D01*
X6360314Y-4155290D01*
X6365076Y-4150528D01*
X6369838Y-4141005D01*
X6369838Y-4121957D01*
X6365076Y-4112433D01*
X6360314Y-4107671D01*
X6350790Y-4102909D01*
X6326981Y-4102909D01*
X6317457Y-4107671D01*
X6312695Y-4112433D01*
X6307933Y-4121957D01*
X6307933Y-4141005D01*
X6312695Y-4150528D01*
X6317457Y-4155290D01*
X6326981Y-4160052D01*
G04 #@! TO.C,R17*
X6509538Y-4293386D02*
X6461919Y-4326719D01*
X6509538Y-4350529D02*
X6409538Y-4350529D01*
X6409538Y-4312433D01*
X6414300Y-4302910D01*
X6419062Y-4298148D01*
X6428586Y-4293386D01*
X6442871Y-4293386D01*
X6452395Y-4298148D01*
X6457157Y-4302910D01*
X6461919Y-4312433D01*
X6461919Y-4350529D01*
X6509538Y-4198148D02*
X6509538Y-4255290D01*
X6509538Y-4226719D02*
X6409538Y-4226719D01*
X6423824Y-4236243D01*
X6433348Y-4245767D01*
X6438109Y-4255290D01*
X6409538Y-4164814D02*
X6409538Y-4098148D01*
X6509538Y-4141005D01*
G04 #@! TO.C,SW1*
X5619767Y-5806276D02*
X5634052Y-5811038D01*
X5657862Y-5811038D01*
X5667386Y-5806276D01*
X5672148Y-5801514D01*
X5676909Y-5791990D01*
X5676909Y-5782467D01*
X5672148Y-5772943D01*
X5667386Y-5768181D01*
X5657862Y-5763419D01*
X5638814Y-5758657D01*
X5629290Y-5753895D01*
X5624528Y-5749133D01*
X5619767Y-5739609D01*
X5619767Y-5730086D01*
X5624528Y-5720562D01*
X5629290Y-5715800D01*
X5638814Y-5711038D01*
X5662624Y-5711038D01*
X5676909Y-5715800D01*
X5710243Y-5711038D02*
X5734052Y-5811038D01*
X5753100Y-5739609D01*
X5772148Y-5811038D01*
X5795957Y-5711038D01*
X5886433Y-5811038D02*
X5829290Y-5811038D01*
X5857862Y-5811038D02*
X5857862Y-5711038D01*
X5848338Y-5725324D01*
X5838814Y-5734848D01*
X5829290Y-5739609D01*
G04 #@! TO.C,C3*
X5966614Y-4410867D02*
X5971376Y-4415629D01*
X5976138Y-4429914D01*
X5976138Y-4439438D01*
X5971376Y-4453724D01*
X5961852Y-4463248D01*
X5952328Y-4468010D01*
X5933281Y-4472771D01*
X5918995Y-4472771D01*
X5899948Y-4468010D01*
X5890424Y-4463248D01*
X5880900Y-4453724D01*
X5876138Y-4439438D01*
X5876138Y-4429914D01*
X5880900Y-4415629D01*
X5885662Y-4410867D01*
X5876138Y-4377533D02*
X5876138Y-4315629D01*
X5914233Y-4348962D01*
X5914233Y-4334676D01*
X5918995Y-4325152D01*
X5923757Y-4320390D01*
X5933281Y-4315629D01*
X5957090Y-4315629D01*
X5966614Y-4320390D01*
X5971376Y-4325152D01*
X5976138Y-4334676D01*
X5976138Y-4363248D01*
X5971376Y-4372771D01*
X5966614Y-4377533D01*
G04 #@! TO.C,D1*
X6763538Y-4353710D02*
X6663538Y-4353710D01*
X6663538Y-4329900D01*
X6668300Y-4315614D01*
X6677824Y-4306090D01*
X6687348Y-4301329D01*
X6706395Y-4296567D01*
X6720681Y-4296567D01*
X6739728Y-4301329D01*
X6749252Y-4306090D01*
X6758776Y-4315614D01*
X6763538Y-4329900D01*
X6763538Y-4353710D01*
X6763538Y-4201329D02*
X6763538Y-4258471D01*
X6763538Y-4229900D02*
X6663538Y-4229900D01*
X6677824Y-4239424D01*
X6687348Y-4248948D01*
X6692109Y-4258471D01*
G04 #@! TO.C,C2*
X7984333Y-5699914D02*
X7979571Y-5704676D01*
X7965286Y-5709438D01*
X7955762Y-5709438D01*
X7941476Y-5704676D01*
X7931952Y-5695152D01*
X7927190Y-5685628D01*
X7922428Y-5666581D01*
X7922428Y-5652295D01*
X7927190Y-5633248D01*
X7931952Y-5623724D01*
X7941476Y-5614200D01*
X7955762Y-5609438D01*
X7965286Y-5609438D01*
X7979571Y-5614200D01*
X7984333Y-5618962D01*
X8022428Y-5618962D02*
X8027190Y-5614200D01*
X8036714Y-5609438D01*
X8060524Y-5609438D01*
X8070048Y-5614200D01*
X8074809Y-5618962D01*
X8079571Y-5628486D01*
X8079571Y-5638009D01*
X8074809Y-5652295D01*
X8017667Y-5709438D01*
X8079571Y-5709438D01*
G04 #@! TO.C,R18*
X7030238Y-5906286D02*
X6982619Y-5939619D01*
X7030238Y-5963428D02*
X6930238Y-5963428D01*
X6930238Y-5925333D01*
X6935000Y-5915809D01*
X6939762Y-5911048D01*
X6949286Y-5906286D01*
X6963571Y-5906286D01*
X6973095Y-5911048D01*
X6977857Y-5915809D01*
X6982619Y-5925333D01*
X6982619Y-5963428D01*
X7030238Y-5811048D02*
X7030238Y-5868190D01*
X7030238Y-5839619D02*
X6930238Y-5839619D01*
X6944524Y-5849143D01*
X6954048Y-5858667D01*
X6958809Y-5868190D01*
X6973095Y-5753905D02*
X6968333Y-5763428D01*
X6963571Y-5768190D01*
X6954048Y-5772952D01*
X6949286Y-5772952D01*
X6939762Y-5768190D01*
X6935000Y-5763428D01*
X6930238Y-5753905D01*
X6930238Y-5734857D01*
X6935000Y-5725333D01*
X6939762Y-5720571D01*
X6949286Y-5715809D01*
X6954048Y-5715809D01*
X6963571Y-5720571D01*
X6968333Y-5725333D01*
X6973095Y-5734857D01*
X6973095Y-5753905D01*
X6977857Y-5763428D01*
X6982619Y-5768190D01*
X6992143Y-5772952D01*
X7011190Y-5772952D01*
X7020714Y-5768190D01*
X7025476Y-5763428D01*
X7030238Y-5753905D01*
X7030238Y-5734857D01*
X7025476Y-5725333D01*
X7020714Y-5720571D01*
X7011190Y-5715809D01*
X6992143Y-5715809D01*
X6982619Y-5720571D01*
X6977857Y-5725333D01*
X6973095Y-5734857D01*
G04 #@! TD*
M02*
