G04 #@! TF.GenerationSoftware,KiCad,Pcbnew,(6.0.0)*
G04 #@! TF.CreationDate,2022-04-11T01:36:55-05:00*
G04 #@! TF.ProjectId,temp sensor,74656d70-2073-4656-9e73-6f722e6b6963,0.3*
G04 #@! TF.SameCoordinates,Original*
G04 #@! TF.FileFunction,Copper,L2,Bot*
G04 #@! TF.FilePolarity,Positive*
%FSLAX45Y45*%
G04 Gerber Fmt 4.5, Leading zero omitted, Abs format (unit mm)*
G04 Created by KiCad (PCBNEW (6.0.0)) date 2022-04-11 01:36:55*
%MOMM*%
%LPD*%
G01*
G04 APERTURE LIST*
G04 #@! TA.AperFunction,ComponentPad*
%ADD10O,2.100000X1.000000*%
G04 #@! TD*
G04 #@! TA.AperFunction,ComponentPad*
%ADD11O,1.600000X1.000000*%
G04 #@! TD*
G04 #@! TA.AperFunction,SMDPad,CuDef*
%ADD12R,1.350000X0.400000*%
G04 #@! TD*
G04 #@! TA.AperFunction,SMDPad,CuDef*
%ADD13R,1.900000X1.200000*%
G04 #@! TD*
G04 #@! TA.AperFunction,ComponentPad*
%ADD14O,1.900000X1.200000*%
G04 #@! TD*
G04 #@! TA.AperFunction,ComponentPad*
%ADD15C,1.450000*%
G04 #@! TD*
G04 #@! TA.AperFunction,SMDPad,CuDef*
%ADD16R,1.900000X1.500000*%
G04 #@! TD*
G04 #@! TA.AperFunction,SMDPad,CuDef*
%ADD17R,0.600000X1.750000*%
G04 #@! TD*
G04 #@! TA.AperFunction,SMDPad,CuDef*
%ADD18R,2.510000X1.000000*%
G04 #@! TD*
G04 #@! TA.AperFunction,ViaPad*
%ADD19C,0.800000*%
G04 #@! TD*
G04 #@! TA.AperFunction,ViaPad*
%ADD20C,0.700000*%
G04 #@! TD*
G04 #@! TA.AperFunction,Conductor*
%ADD21C,0.250000*%
G04 #@! TD*
G04 #@! TA.AperFunction,Conductor*
%ADD22C,0.200000*%
G04 #@! TD*
G04 #@! TA.AperFunction,Conductor*
%ADD23C,0.152400*%
G04 #@! TD*
G04 #@! TA.AperFunction,Conductor*
%ADD24C,0.400000*%
G04 #@! TD*
G04 APERTURE END LIST*
D10*
G04 #@! TO.P,J1,S1,SHIELD*
G04 #@! TO.N,GND*
X15796696Y-8832396D03*
X15796696Y-9696396D03*
D11*
X16214696Y-9696396D03*
X16214696Y-8832396D03*
G04 #@! TD*
D12*
G04 #@! TO.P,J4,1,VBUS*
G04 #@! TO.N,/V_USB*
X16056250Y-9135000D03*
G04 #@! TO.P,J4,2,D-*
G04 #@! TO.N,/D-*
X16056250Y-9200000D03*
G04 #@! TO.P,J4,3,D+*
G04 #@! TO.N,/D+*
X16056250Y-9265000D03*
G04 #@! TO.P,J4,4,ID*
G04 #@! TO.N,unconnected-(J4-Pad4)*
X16056250Y-9330000D03*
G04 #@! TO.P,J4,5,GND*
G04 #@! TO.N,GND*
X16056250Y-9395000D03*
D13*
G04 #@! TO.P,J4,6,Shield*
X16326250Y-9555000D03*
D14*
X16326250Y-9615000D03*
D15*
X16056250Y-9015000D03*
D16*
X16326250Y-9365000D03*
D15*
X16056250Y-9515000D03*
D16*
X16326250Y-9165000D03*
D13*
X16326250Y-8975000D03*
D14*
X16326250Y-8915000D03*
G04 #@! TD*
D17*
G04 #@! TO.P,J3,1,Pin_1*
G04 #@! TO.N,/EN*
X13971000Y-9824500D03*
G04 #@! TO.P,J3,2,Pin_2*
G04 #@! TO.N,/IO14_pico*
X14071000Y-9649500D03*
G04 #@! TO.P,J3,3,Pin_3*
G04 #@! TO.N,/IO12_pico*
X14171000Y-9824500D03*
G04 #@! TO.P,J3,4,Pin_4*
G04 #@! TO.N,/IO13_pico*
X14271000Y-9649500D03*
G04 #@! TO.P,J3,5,Pin_5*
G04 #@! TO.N,/IO15_pico*
X14371000Y-9824500D03*
G04 #@! TO.P,J3,6,Pin_6*
G04 #@! TO.N,GND*
X14471000Y-9649500D03*
G04 #@! TO.P,J3,7,Pin_7*
G04 #@! TO.N,+3V3*
X14571000Y-9824500D03*
G04 #@! TD*
D18*
G04 #@! TO.P,J2,1,Pin_1*
G04 #@! TO.N,+3V3*
X13685300Y-9993000D03*
G04 #@! TO.P,J2,2,Pin_2*
G04 #@! TO.N,GND*
X13354300Y-10247000D03*
G04 #@! TD*
G04 #@! TO.P,J6,1,Pin_1*
G04 #@! TO.N,/DTR*
X12990300Y-9683000D03*
G04 #@! TO.P,J6,2,Pin_2*
G04 #@! TO.N,/RTS*
X12659300Y-9937000D03*
G04 #@! TD*
G04 #@! TO.P,J5,1,Pin_1*
G04 #@! TO.N,/TDX0*
X15265300Y-8763000D03*
G04 #@! TO.P,J5,2,Pin_2*
G04 #@! TO.N,/RTX0*
X14934300Y-9017000D03*
G04 #@! TD*
D19*
G04 #@! TO.N,GND*
X13841800Y-9499000D03*
X13678800Y-9497000D03*
G04 #@! TO.N,/IO14_pico*
X14005376Y-9563544D03*
G04 #@! TO.N,GND*
X12518800Y-8851000D03*
X12092800Y-8652000D03*
X16059800Y-10191000D03*
X13002899Y-9150701D03*
X15303300Y-10192100D03*
X14757000Y-8919000D03*
X14032000Y-8807000D03*
X14279000Y-8811000D03*
X14469000Y-8820000D03*
X13734000Y-8813000D03*
X13578000Y-8812000D03*
X14448000Y-9482000D03*
X14445000Y-9170000D03*
X13811832Y-10415058D03*
X11928800Y-8662000D03*
X15010800Y-9215000D03*
X14761000Y-9272000D03*
X14981000Y-9715000D03*
X14035800Y-9263000D03*
X13933800Y-9164000D03*
X13833800Y-9263000D03*
X13933800Y-9362000D03*
X13933800Y-8968582D03*
X14229800Y-9263000D03*
X14131800Y-9362000D03*
X14131800Y-9164000D03*
X14131800Y-8968582D03*
X14224562Y-9065000D03*
X14033800Y-9065000D03*
X13834800Y-9065000D03*
X13166800Y-10414000D03*
X12967800Y-9346000D03*
X15303246Y-10352024D03*
X12489800Y-10321000D03*
X13581800Y-8955000D03*
X14444800Y-9270000D03*
X11966702Y-9848596D03*
X13577800Y-9104000D03*
X14449800Y-9046000D03*
X14463850Y-10416582D03*
X15256800Y-8642000D03*
X15068800Y-8649000D03*
X11845800Y-9640000D03*
X12686800Y-9338050D03*
X13578800Y-9401000D03*
X14641521Y-10443915D03*
X16295624Y-9907016D03*
X13626800Y-10406000D03*
X16388588Y-9767062D03*
X15516098Y-9392158D03*
X15669800Y-9866000D03*
X13146800Y-10214000D03*
X12188800Y-9323000D03*
X12626491Y-9581293D03*
X15537800Y-8680000D03*
X13574800Y-9260000D03*
X15434800Y-8642000D03*
X11904800Y-9757000D03*
X15282674Y-9414000D03*
X14792706Y-9720580D03*
X13998268Y-10415058D03*
X15306802Y-9938004D03*
X12184800Y-9168000D03*
X13319800Y-8680000D03*
X14315514Y-10409216D03*
X14924606Y-10197380D03*
X14447800Y-9381000D03*
X16332800Y-8657000D03*
X16141192Y-10083800D03*
X13090800Y-10073000D03*
X13425800Y-10418000D03*
X14935800Y-8703000D03*
X15723800Y-10163000D03*
X12573762Y-10157714D03*
X14800580Y-8706612D03*
X15012744Y-10200428D03*
X13466800Y-9974000D03*
X13290800Y-10410000D03*
X11991196Y-8959396D03*
X13331800Y-8813000D03*
X15671800Y-8674000D03*
X15445486Y-9646158D03*
X12411800Y-8651000D03*
G04 #@! TO.N,+3V3*
X14673800Y-9890000D03*
X13841454Y-10011212D03*
G04 #@! TO.N,/RTX0*
X15093221Y-9097412D03*
G04 #@! TO.N,/TDX0*
X15189800Y-8890000D03*
G04 #@! TO.N,/Boot_Option*
X14474800Y-9797000D03*
X14390800Y-10109000D03*
G04 #@! TO.N,/EN*
X13177800Y-9735000D03*
X13307800Y-9442000D03*
D20*
G04 #@! TO.N,/D-*
X15862000Y-9216000D03*
G04 #@! TO.N,/D+*
X15592429Y-9288280D03*
D19*
G04 #@! TO.N,Net-(R8-Pad1)*
X14759800Y-10434000D03*
X15832253Y-10165472D03*
G04 #@! TO.N,/IO32_pico*
X13493440Y-9781599D03*
X11874800Y-8747000D03*
G04 #@! TO.N,/IO33_pico*
X13611800Y-9805000D03*
X12243618Y-9602739D03*
G04 #@! TO.N,/IO12_pico*
X14070226Y-9796950D03*
G04 #@! TO.N,/DTR*
X12959800Y-9739148D03*
G04 #@! TO.N,/RTS*
X12689800Y-10002000D03*
G04 #@! TO.N,/V_USB*
X15906750Y-9072118D03*
G04 #@! TO.N,/CC1*
X15854553Y-9396301D03*
X15220764Y-9767044D03*
G04 #@! TO.N,/IO13_pico*
X14171000Y-9562501D03*
X12486800Y-9321000D03*
X13288000Y-9266004D03*
X12962499Y-8960000D03*
G04 #@! TO.N,/IO15_pico*
X14197800Y-9989000D03*
X14279800Y-9796950D03*
X12152800Y-9561000D03*
G04 #@! TO.N,/I38_pico*
X12857125Y-8936298D03*
X13289800Y-9120000D03*
X12383800Y-8975000D03*
G04 #@! TD*
D21*
G04 #@! TO.N,/I38_pico*
X12999300Y-8887500D02*
X12905924Y-8887500D01*
X13231800Y-9120000D02*
X12999300Y-8887500D01*
X13289800Y-9120000D02*
X13231800Y-9120000D01*
X12905924Y-8887500D02*
X12857125Y-8936298D01*
G04 #@! TO.N,/IO13_pico*
X13380251Y-9358255D02*
X13288000Y-9266004D01*
X13380251Y-9425451D02*
X13380251Y-9358255D01*
X13535800Y-9581000D02*
X13380251Y-9425451D01*
X14073842Y-9529549D02*
X14035386Y-9491093D01*
X14133451Y-9529549D02*
X14073842Y-9529549D01*
X14133451Y-9581000D02*
X14133451Y-9529549D01*
X13975366Y-9491093D02*
X13885458Y-9581000D01*
X14035386Y-9491093D02*
X13975366Y-9491093D01*
X14152501Y-9581000D02*
X14133451Y-9581000D01*
X14171000Y-9562501D02*
X14152501Y-9581000D01*
X13885458Y-9581000D02*
X13535800Y-9581000D01*
G04 #@! TO.N,/IO14_pico*
X14005376Y-9563544D02*
X14005376Y-9583876D01*
X14005376Y-9583876D02*
X14071000Y-9649500D01*
G04 #@! TO.N,/I38_pico*
X12818423Y-8975000D02*
X12383800Y-8975000D01*
X12857125Y-8936298D02*
X12818423Y-8975000D01*
D22*
G04 #@! TO.N,GND*
X15973758Y-9395000D02*
X15929102Y-9439656D01*
D21*
X15516098Y-9392158D02*
X15516098Y-9256098D01*
D22*
X15929102Y-9610090D02*
X16032226Y-9713214D01*
X16056250Y-9395000D02*
X15973758Y-9395000D01*
D21*
X15282674Y-9414000D02*
X15282674Y-9637326D01*
D22*
X15929102Y-9439656D02*
X15929102Y-9610090D01*
D21*
X15516098Y-9256098D02*
X15420000Y-9160000D01*
D22*
G04 #@! TO.N,+3V3*
X13823242Y-9993000D02*
X13841454Y-10011212D01*
X14608300Y-9824500D02*
X14673800Y-9890000D01*
X13685300Y-9993000D02*
X13823242Y-9993000D01*
X14571000Y-9824500D02*
X14608300Y-9824500D01*
D21*
G04 #@! TO.N,/RTX0*
X15093221Y-9097412D02*
X15014712Y-9097412D01*
X15014712Y-9097412D02*
X14934300Y-9017000D01*
G04 #@! TO.N,/TDX0*
X15265300Y-8814500D02*
X15189800Y-8890000D01*
X15265300Y-8763000D02*
X15265300Y-8814500D01*
D22*
G04 #@! TO.N,/Boot_Option*
X14474800Y-9797000D02*
X14474800Y-10025000D01*
X14474800Y-10025000D02*
X14390800Y-10109000D01*
D21*
G04 #@! TO.N,/EN*
X13466498Y-9709149D02*
X13307800Y-9550450D01*
X13971000Y-9824500D02*
X13855649Y-9709149D01*
X13855649Y-9709149D02*
X13466498Y-9709149D01*
D22*
X13307800Y-9605000D02*
X13177800Y-9735000D01*
X13307800Y-9442000D02*
X13307800Y-9605000D01*
D21*
X13307800Y-9550450D02*
X13307800Y-9442000D01*
D22*
G04 #@! TO.N,/D-*
X16056250Y-9200000D02*
X15878000Y-9200000D01*
X15878000Y-9200000D02*
X15862000Y-9216000D01*
D23*
G04 #@! TO.N,/D+*
X15627429Y-9323280D02*
X15592429Y-9288280D01*
X16056250Y-9265000D02*
X15892771Y-9265000D01*
X15892771Y-9265000D02*
X15834492Y-9323280D01*
X15834492Y-9323280D02*
X15627429Y-9323280D01*
D21*
G04 #@! TO.N,Net-(R8-Pad1)*
X15832253Y-10220389D02*
X15618642Y-10434000D01*
X15832253Y-10165472D02*
X15832253Y-10220389D01*
X15618642Y-10434000D02*
X14759800Y-10434000D01*
G04 #@! TO.N,/IO32_pico*
X13465940Y-9809099D02*
X13493440Y-9781599D01*
X12886142Y-9765451D02*
X12887350Y-9766659D01*
X12992309Y-9809099D02*
X13465940Y-9809099D01*
X11874800Y-9131461D02*
X12507986Y-9764647D01*
X12855294Y-9765451D02*
X12886142Y-9765451D01*
X12989810Y-9811598D02*
X12992309Y-9809099D01*
X11874800Y-8747000D02*
X11874800Y-9131461D01*
X12887350Y-9769158D02*
X12929790Y-9811598D01*
X12507986Y-9764647D02*
X12854490Y-9764647D01*
X12887350Y-9766659D02*
X12887350Y-9769158D01*
X12929790Y-9811598D02*
X12989810Y-9811598D01*
X12854490Y-9764647D02*
X12855294Y-9765451D01*
G04 #@! TO.N,/IO33_pico*
X13266727Y-9854050D02*
X13010928Y-9854050D01*
X12450477Y-9809598D02*
X12243618Y-9602739D01*
X12911171Y-9856549D02*
X13008429Y-9856549D01*
X12836675Y-9810402D02*
X12835870Y-9809598D01*
X13562750Y-9854050D02*
X13266727Y-9854050D01*
X12835870Y-9809598D02*
X12450477Y-9809598D01*
X12911171Y-9856549D02*
X12865024Y-9810402D01*
X12865024Y-9810402D02*
X12836675Y-9810402D01*
X13010928Y-9854050D02*
X13008429Y-9856549D01*
X13611800Y-9805000D02*
X13562750Y-9854050D01*
G04 #@! TO.N,/IO12_pico*
X14171000Y-9824500D02*
X14092500Y-9824500D01*
X14071150Y-9796950D02*
X14081000Y-9806800D01*
X14070226Y-9796950D02*
X14071150Y-9796950D01*
X14092500Y-9824500D02*
X14089000Y-9821000D01*
G04 #@! TO.N,/DTR*
X12987298Y-9717212D02*
X12965362Y-9739148D01*
X12965362Y-9739148D02*
X12959800Y-9739148D01*
G04 #@! TO.N,/RTS*
X12689800Y-10002000D02*
X12689800Y-9967500D01*
D24*
G04 #@! TO.N,/V_USB*
X16056250Y-9135000D02*
X15969632Y-9135000D01*
X15969632Y-9135000D02*
X15906750Y-9072118D01*
D22*
G04 #@! TO.N,/CC1*
X15487856Y-9762998D02*
X15854553Y-9396301D01*
X15220764Y-9767044D02*
X15224810Y-9762998D01*
X15224810Y-9762998D02*
X15487856Y-9762998D01*
D21*
G04 #@! TO.N,/IO13_pico*
X14171000Y-9562501D02*
X14184001Y-9562501D01*
X12656899Y-9265600D02*
X12542200Y-9265600D01*
X12962499Y-8960000D02*
X12656899Y-9265600D01*
X12962499Y-8960000D02*
X13268503Y-9266004D01*
X13268503Y-9266004D02*
X13288000Y-9266004D01*
X14184001Y-9562501D02*
X14271000Y-9649500D01*
X12542200Y-9265600D02*
X12486800Y-9321000D01*
G04 #@! TO.N,/IO15_pico*
X14279800Y-9796950D02*
X14343450Y-9796950D01*
X12388349Y-9854549D02*
X12152800Y-9619000D01*
X13029547Y-9899001D02*
X13027048Y-9901500D01*
X12892551Y-9901500D02*
X12846405Y-9855353D01*
X12152800Y-9619000D02*
X12152800Y-9561000D01*
X13831703Y-9899001D02*
X13029547Y-9899001D01*
X14197800Y-9989000D02*
X13921702Y-9989000D01*
X12817251Y-9855353D02*
X12816447Y-9854549D01*
X12816447Y-9854549D02*
X12388349Y-9854549D01*
X13027048Y-9901500D02*
X12892551Y-9901500D01*
X14343450Y-9796950D02*
X14371000Y-9824500D01*
X12846405Y-9855353D02*
X12817251Y-9855353D01*
X13921702Y-9989000D02*
X13831703Y-9899001D01*
G04 #@! TD*
G04 #@! TA.AperFunction,Conductor*
G04 #@! TO.N,GND*
G36*
X16359491Y-8601813D02*
G01*
X16360187Y-8602689D01*
X16373067Y-8623354D01*
X16386309Y-8644600D01*
X16393391Y-8655963D01*
X16393527Y-8656195D01*
X16425179Y-8713781D01*
X16425302Y-8714020D01*
X16432570Y-8729153D01*
X16450766Y-8767034D01*
X16453754Y-8773255D01*
X16453862Y-8773497D01*
X16455786Y-8778138D01*
X16455787Y-8781888D01*
X16453511Y-8784367D01*
X16453508Y-8784368D01*
X16453481Y-8784382D01*
X16449830Y-8786242D01*
X16447832Y-8787260D01*
X16447831Y-8787261D01*
X16447830Y-8787262D01*
X16443350Y-8791742D01*
X16443350Y-8791742D01*
X16443350Y-8791742D01*
X16438872Y-8796220D01*
X16438872Y-8796221D01*
X16438871Y-8796222D01*
X16435991Y-8801875D01*
X16433120Y-8807510D01*
X16433120Y-8807511D01*
X16433119Y-8807512D01*
X16432290Y-8812750D01*
X16432277Y-8812834D01*
X16432276Y-8812834D01*
X16432277Y-8812834D01*
X16431138Y-8820024D01*
X16431198Y-8820405D01*
X16431198Y-8820405D01*
X16431576Y-8822794D01*
X16431637Y-8823560D01*
X16431639Y-8852593D01*
X16430204Y-8856058D01*
X16426739Y-8857493D01*
X16423274Y-8856058D01*
X16422996Y-8855756D01*
X16420662Y-8852994D01*
X16420280Y-8852630D01*
X16405961Y-8841682D01*
X16405510Y-8841409D01*
X16389174Y-8833791D01*
X16388675Y-8833622D01*
X16371022Y-8829676D01*
X16370625Y-8829621D01*
X16370324Y-8829604D01*
X16370189Y-8829600D01*
X16347225Y-8829600D01*
X16346535Y-8829886D01*
X16346250Y-8830575D01*
X16346250Y-9059425D01*
X16346747Y-9060625D01*
X16346747Y-9064375D01*
X16346250Y-9065575D01*
X16346250Y-9464425D01*
X16346747Y-9465625D01*
X16346747Y-9469375D01*
X16346250Y-9470575D01*
X16346250Y-9699425D01*
X16346535Y-9700115D01*
X16347225Y-9700400D01*
X16365753Y-9700400D01*
X16366018Y-9700386D01*
X16379432Y-9698928D01*
X16379948Y-9698815D01*
X16397031Y-9693066D01*
X16397510Y-9692845D01*
X16412960Y-9683561D01*
X16413380Y-9683243D01*
X16423431Y-9673738D01*
X16426934Y-9672400D01*
X16430358Y-9673931D01*
X16431698Y-9677298D01*
X16431700Y-9704020D01*
X16431700Y-9705469D01*
X16431639Y-9706236D01*
X16431262Y-9708622D01*
X16431201Y-9709004D01*
X16431262Y-9709384D01*
X16431262Y-9709384D01*
X16431362Y-9710015D01*
X16431771Y-9712596D01*
X16433184Y-9721518D01*
X16433185Y-9721518D01*
X16433185Y-9721518D01*
X16434335Y-9723776D01*
X16438938Y-9732807D01*
X16438938Y-9732807D01*
X16438938Y-9732807D01*
X16439210Y-9733080D01*
X16439211Y-9733080D01*
X16443381Y-9737249D01*
X16447625Y-9741493D01*
X16447625Y-9741493D01*
X16447898Y-9741766D01*
X16447898Y-9741766D01*
X16447898Y-9741766D01*
X16453315Y-9744526D01*
X16453849Y-9744797D01*
X16456284Y-9747649D01*
X16456152Y-9751036D01*
X16454600Y-9754790D01*
X16454258Y-9755616D01*
X16454149Y-9755861D01*
X16425723Y-9815159D01*
X16425601Y-9815398D01*
X16393970Y-9873048D01*
X16393834Y-9873280D01*
X16359091Y-9929112D01*
X16358943Y-9929336D01*
X16321194Y-9983180D01*
X16321033Y-9983395D01*
X16282523Y-10032378D01*
X16280391Y-10035089D01*
X16280220Y-10035295D01*
X16255421Y-10063507D01*
X16236805Y-10084686D01*
X16236622Y-10084882D01*
X16190567Y-10131819D01*
X16190374Y-10132005D01*
X16141814Y-10176350D01*
X16141614Y-10176523D01*
X16090697Y-10218141D01*
X16090487Y-10218303D01*
X16043028Y-10252936D01*
X16037367Y-10257068D01*
X16037146Y-10257220D01*
X16008916Y-10275538D01*
X15981984Y-10293015D01*
X15981755Y-10293155D01*
X15924713Y-10325874D01*
X15924479Y-10325999D01*
X15865729Y-10355545D01*
X15865489Y-10355658D01*
X15805206Y-10381940D01*
X15804961Y-10382039D01*
X15771213Y-10394601D01*
X15743332Y-10404978D01*
X15743078Y-10405065D01*
X15731292Y-10408730D01*
X15727558Y-10408389D01*
X15725158Y-10405506D01*
X15725500Y-10401772D01*
X15726372Y-10400587D01*
X15794893Y-10332066D01*
X15868505Y-10258454D01*
X15868653Y-10258312D01*
X15872879Y-10254426D01*
X15873125Y-10254200D01*
X15875490Y-10250385D01*
X15875752Y-10250005D01*
X15878264Y-10246694D01*
X15878264Y-10246694D01*
X15878466Y-10246428D01*
X15879229Y-10244502D01*
X15879620Y-10243724D01*
X15880536Y-10242247D01*
X15880536Y-10242247D01*
X15880712Y-10241964D01*
X15881964Y-10237651D01*
X15882113Y-10237216D01*
X15883766Y-10233041D01*
X15883983Y-10230981D01*
X15884151Y-10230126D01*
X15884657Y-10228385D01*
X15884728Y-10228137D01*
X15884755Y-10227775D01*
X15884773Y-10227737D01*
X15884793Y-10227629D01*
X15884822Y-10227634D01*
X15886263Y-10224586D01*
X15893963Y-10217253D01*
X15894115Y-10217025D01*
X15894115Y-10217025D01*
X15903750Y-10202523D01*
X15903750Y-10202523D01*
X15903902Y-10202294D01*
X15906772Y-10194739D01*
X15910182Y-10185762D01*
X15910182Y-10185762D01*
X15910279Y-10185506D01*
X15912778Y-10167722D01*
X15912810Y-10165472D01*
X15911026Y-10149569D01*
X15910838Y-10147897D01*
X15910838Y-10147897D01*
X15910808Y-10147625D01*
X15907429Y-10137921D01*
X15904992Y-10130924D01*
X15904992Y-10130924D01*
X15904902Y-10130665D01*
X15904431Y-10129911D01*
X15895530Y-10115667D01*
X15895530Y-10115667D01*
X15895385Y-10115435D01*
X15894324Y-10114366D01*
X15882924Y-10102886D01*
X15882730Y-10102692D01*
X15867567Y-10093069D01*
X15867309Y-10092977D01*
X15867309Y-10092977D01*
X15850907Y-10087136D01*
X15850648Y-10087044D01*
X15850376Y-10087012D01*
X15850376Y-10087012D01*
X15841732Y-10085981D01*
X15832816Y-10084918D01*
X15832544Y-10084946D01*
X15832543Y-10084946D01*
X15822036Y-10086051D01*
X15814955Y-10086795D01*
X15797954Y-10092583D01*
X15797721Y-10092726D01*
X15797721Y-10092726D01*
X15782891Y-10101849D01*
X15782891Y-10101850D01*
X15782658Y-10101993D01*
X15782462Y-10102184D01*
X15782462Y-10102185D01*
X15770022Y-10114366D01*
X15770022Y-10114367D01*
X15769827Y-10114558D01*
X15760098Y-10129654D01*
X15759120Y-10132340D01*
X15754130Y-10146051D01*
X15753956Y-10146530D01*
X15751705Y-10164348D01*
X15751731Y-10164620D01*
X15751731Y-10164620D01*
X15752364Y-10171070D01*
X15753457Y-10182221D01*
X15759126Y-10199262D01*
X15759268Y-10199496D01*
X15759268Y-10199496D01*
X15764656Y-10208393D01*
X15765223Y-10212100D01*
X15763929Y-10214396D01*
X15598310Y-10380015D01*
X15594845Y-10381450D01*
X14822476Y-10381450D01*
X14818999Y-10380003D01*
X14812004Y-10372958D01*
X14810277Y-10371219D01*
X14803577Y-10366967D01*
X14795345Y-10361743D01*
X14795345Y-10361743D01*
X14795114Y-10361596D01*
X14794856Y-10361505D01*
X14794856Y-10361504D01*
X14778453Y-10355664D01*
X14778195Y-10355572D01*
X14777923Y-10355540D01*
X14777923Y-10355539D01*
X14769279Y-10354509D01*
X14760362Y-10353446D01*
X14760090Y-10353474D01*
X14760090Y-10353474D01*
X14749583Y-10354579D01*
X14742502Y-10355323D01*
X14725501Y-10361110D01*
X14725267Y-10361254D01*
X14725267Y-10361254D01*
X14710438Y-10370377D01*
X14710437Y-10370377D01*
X14710204Y-10370521D01*
X14710009Y-10370712D01*
X14710009Y-10370712D01*
X14697569Y-10382894D01*
X14697569Y-10382894D01*
X14697373Y-10383086D01*
X14697225Y-10383316D01*
X14697225Y-10383316D01*
X14694318Y-10387827D01*
X14687645Y-10398182D01*
X14681502Y-10415058D01*
X14679251Y-10432875D01*
X14679278Y-10433148D01*
X14679278Y-10433148D01*
X14679834Y-10438817D01*
X14681004Y-10450749D01*
X14683065Y-10456945D01*
X14685095Y-10463048D01*
X14684827Y-10466789D01*
X14681993Y-10469245D01*
X14680445Y-10469495D01*
X12974493Y-10469229D01*
X12973847Y-10469186D01*
X12971783Y-10468911D01*
X12970900Y-10468793D01*
X12970900Y-10468793D01*
X12970519Y-10468742D01*
X12968306Y-10469148D01*
X12967404Y-10469229D01*
X12928454Y-10469079D01*
X12902575Y-10468980D01*
X12902299Y-10468971D01*
X12864439Y-10466683D01*
X12834604Y-10464879D01*
X12834330Y-10464855D01*
X12790120Y-10459663D01*
X12766974Y-10456945D01*
X12766700Y-10456905D01*
X12699901Y-10445201D01*
X12699629Y-10445146D01*
X12633598Y-10429686D01*
X12633330Y-10429616D01*
X12568276Y-10410449D01*
X12568013Y-10410364D01*
X12504148Y-10387553D01*
X12503890Y-10387452D01*
X12441415Y-10361069D01*
X12441163Y-10360954D01*
X12397695Y-10339627D01*
X12599384Y-10339627D01*
X12602229Y-10356186D01*
X12602341Y-10356448D01*
X12602341Y-10356448D01*
X12604594Y-10361743D01*
X12608808Y-10371645D01*
X12618766Y-10385177D01*
X12618983Y-10385361D01*
X12618983Y-10385361D01*
X12631353Y-10395871D01*
X12631570Y-10396055D01*
X12646533Y-10403695D01*
X12646810Y-10403763D01*
X12646810Y-10403763D01*
X12662641Y-10407637D01*
X12662641Y-10407637D01*
X12662852Y-10407689D01*
X12663912Y-10407754D01*
X12676026Y-10407754D01*
X12688506Y-10406299D01*
X12704299Y-10400567D01*
X12704537Y-10400411D01*
X12704537Y-10400411D01*
X12718111Y-10391511D01*
X12718112Y-10391511D01*
X12718350Y-10391355D01*
X12725965Y-10383316D01*
X12729708Y-10379365D01*
X12729708Y-10379365D01*
X12729904Y-10379158D01*
X12730704Y-10377780D01*
X12962385Y-10377780D01*
X12965230Y-10394339D01*
X12965341Y-10394601D01*
X12965342Y-10394601D01*
X12970333Y-10406332D01*
X12971808Y-10409798D01*
X12981766Y-10423330D01*
X12981983Y-10423514D01*
X12981983Y-10423514D01*
X12989222Y-10429664D01*
X12994570Y-10434208D01*
X13009533Y-10441848D01*
X13009810Y-10441916D01*
X13009810Y-10441916D01*
X13025641Y-10445790D01*
X13025641Y-10445790D01*
X13025853Y-10445842D01*
X13026912Y-10445907D01*
X13039026Y-10445907D01*
X13051507Y-10444452D01*
X13067300Y-10438720D01*
X13067537Y-10438564D01*
X13067538Y-10438564D01*
X13081112Y-10429664D01*
X13081112Y-10429664D01*
X13081350Y-10429508D01*
X13092905Y-10417311D01*
X13096940Y-10410364D01*
X13101200Y-10403029D01*
X13101200Y-10403029D01*
X13101343Y-10402783D01*
X13103381Y-10396055D01*
X13106131Y-10386976D01*
X13106131Y-10386975D01*
X13106213Y-10386703D01*
X13107162Y-10371414D01*
X13107236Y-10370218D01*
X13107236Y-10370218D01*
X13107253Y-10369934D01*
X13104408Y-10353376D01*
X13104297Y-10353114D01*
X13104297Y-10353114D01*
X13097942Y-10338179D01*
X13097830Y-10337917D01*
X13087872Y-10324385D01*
X13087655Y-10324201D01*
X13087655Y-10324200D01*
X13075284Y-10313691D01*
X13075068Y-10313507D01*
X13060105Y-10305866D01*
X13049860Y-10303360D01*
X13043997Y-10301925D01*
X13043997Y-10301925D01*
X13043785Y-10301873D01*
X13042726Y-10301807D01*
X13030612Y-10301807D01*
X13018131Y-10303262D01*
X13002338Y-10308995D01*
X13002101Y-10309151D01*
X13002100Y-10309151D01*
X12992294Y-10315580D01*
X12988288Y-10318207D01*
X12984360Y-10322353D01*
X12977871Y-10329203D01*
X12976734Y-10330404D01*
X12976591Y-10330650D01*
X12971213Y-10339908D01*
X12968295Y-10344932D01*
X12968212Y-10345205D01*
X12968212Y-10345205D01*
X12963530Y-10360665D01*
X12963425Y-10361012D01*
X12962385Y-10377780D01*
X12730704Y-10377780D01*
X12733585Y-10372821D01*
X12738199Y-10364876D01*
X12738200Y-10364876D01*
X12738343Y-10364630D01*
X12738425Y-10364357D01*
X12743130Y-10348823D01*
X12743130Y-10348822D01*
X12743213Y-10348550D01*
X12744253Y-10331782D01*
X12741408Y-10315223D01*
X12741296Y-10314961D01*
X12741296Y-10314961D01*
X12734941Y-10300026D01*
X12734830Y-10299764D01*
X12734460Y-10299261D01*
X13203400Y-10299261D01*
X13203447Y-10299737D01*
X13204780Y-10306437D01*
X13205142Y-10307312D01*
X13210220Y-10314911D01*
X13210889Y-10315580D01*
X13218488Y-10320658D01*
X13219363Y-10321020D01*
X13226063Y-10322353D01*
X13226539Y-10322400D01*
X13333325Y-10322400D01*
X13334014Y-10322115D01*
X13334300Y-10321425D01*
X13334300Y-10321425D01*
X13374300Y-10321425D01*
X13374585Y-10322114D01*
X13375275Y-10322400D01*
X13482061Y-10322400D01*
X13482537Y-10322353D01*
X13489237Y-10321020D01*
X13490112Y-10320658D01*
X13497711Y-10315580D01*
X13498380Y-10314911D01*
X13503458Y-10307312D01*
X13503820Y-10306437D01*
X13504711Y-10301959D01*
X14069992Y-10301959D01*
X14070932Y-10319892D01*
X14075701Y-10337205D01*
X14075825Y-10337440D01*
X14083952Y-10352855D01*
X14083952Y-10352855D01*
X14084076Y-10353090D01*
X14095667Y-10366806D01*
X14100130Y-10370218D01*
X14109722Y-10377552D01*
X14109722Y-10377552D01*
X14109933Y-10377713D01*
X14110173Y-10377825D01*
X14121455Y-10383086D01*
X14126208Y-10385302D01*
X14126466Y-10385360D01*
X14143536Y-10389175D01*
X14143537Y-10389175D01*
X14143733Y-10389219D01*
X14144045Y-10389237D01*
X14144215Y-10389246D01*
X14144216Y-10389246D01*
X14144282Y-10389250D01*
X14157487Y-10389250D01*
X14170852Y-10387798D01*
X14171880Y-10387452D01*
X14187621Y-10382155D01*
X14187872Y-10382070D01*
X14203265Y-10372821D01*
X14206614Y-10369654D01*
X14216119Y-10360665D01*
X14216312Y-10360483D01*
X14226406Y-10345631D01*
X14232057Y-10331501D01*
X14232976Y-10329203D01*
X14232976Y-10329203D01*
X14233075Y-10328957D01*
X14235633Y-10313507D01*
X14235964Y-10311503D01*
X14235964Y-10311503D01*
X14236008Y-10311241D01*
X14235802Y-10307312D01*
X14235082Y-10293573D01*
X14235082Y-10293573D01*
X14235068Y-10293308D01*
X14231940Y-10281953D01*
X14230370Y-10276251D01*
X14230370Y-10276251D01*
X14230299Y-10275995D01*
X14225741Y-10267350D01*
X14222048Y-10260345D01*
X14222048Y-10260345D01*
X14221924Y-10260110D01*
X14210333Y-10246394D01*
X14200781Y-10239091D01*
X14196278Y-10235648D01*
X14196278Y-10235648D01*
X14196067Y-10235487D01*
X14190110Y-10232709D01*
X14180032Y-10228010D01*
X14180032Y-10228010D01*
X14179792Y-10227898D01*
X14171414Y-10226025D01*
X14162464Y-10224025D01*
X14162463Y-10224025D01*
X14162267Y-10223981D01*
X14161954Y-10223963D01*
X14161785Y-10223954D01*
X14161784Y-10223954D01*
X14161718Y-10223950D01*
X14148513Y-10223950D01*
X14135147Y-10225402D01*
X14118128Y-10231130D01*
X14114429Y-10233352D01*
X14105742Y-10238572D01*
X14102735Y-10240379D01*
X14102543Y-10240561D01*
X14102542Y-10240561D01*
X14096939Y-10245860D01*
X14089688Y-10252717D01*
X14079594Y-10267569D01*
X14079495Y-10267816D01*
X14073836Y-10281965D01*
X14072925Y-10284243D01*
X14069992Y-10301959D01*
X13504711Y-10301959D01*
X13505153Y-10299737D01*
X13505200Y-10299261D01*
X13505200Y-10267975D01*
X13504914Y-10267286D01*
X13504225Y-10267000D01*
X13375275Y-10267000D01*
X13374585Y-10267286D01*
X13374300Y-10267975D01*
X13374300Y-10321425D01*
X13334300Y-10321425D01*
X13334300Y-10267975D01*
X13334014Y-10267286D01*
X13333325Y-10267000D01*
X13204375Y-10267000D01*
X13203686Y-10267286D01*
X13203400Y-10267975D01*
X13203400Y-10299261D01*
X12734460Y-10299261D01*
X12724871Y-10286232D01*
X12724655Y-10286048D01*
X12724654Y-10286048D01*
X12712284Y-10275538D01*
X12712067Y-10275354D01*
X12697104Y-10267714D01*
X12693010Y-10266712D01*
X12680996Y-10263772D01*
X12680996Y-10263772D01*
X12680785Y-10263720D01*
X12679726Y-10263654D01*
X12667611Y-10263654D01*
X12655131Y-10265110D01*
X12639338Y-10270842D01*
X12639100Y-10270998D01*
X12639100Y-10270998D01*
X12625526Y-10279898D01*
X12625287Y-10280054D01*
X12613733Y-10292251D01*
X12612965Y-10293573D01*
X12605493Y-10306437D01*
X12605295Y-10306779D01*
X12605212Y-10307052D01*
X12605212Y-10307052D01*
X12600578Y-10322353D01*
X12600425Y-10322859D01*
X12600031Y-10329203D01*
X12599474Y-10338179D01*
X12599384Y-10339627D01*
X12397695Y-10339627D01*
X12380278Y-10331082D01*
X12380033Y-10330953D01*
X12320934Y-10297689D01*
X12320697Y-10297546D01*
X12263572Y-10260996D01*
X12263343Y-10260840D01*
X12208375Y-10221120D01*
X12208155Y-10220952D01*
X12203321Y-10217025D01*
X12199404Y-10213842D01*
X12286558Y-10213842D01*
X12289403Y-10230400D01*
X12289514Y-10230662D01*
X12289515Y-10230663D01*
X12293726Y-10240561D01*
X12295981Y-10245860D01*
X12305939Y-10259392D01*
X12306156Y-10259576D01*
X12306156Y-10259576D01*
X12313395Y-10265726D01*
X12318743Y-10270270D01*
X12333706Y-10277910D01*
X12333983Y-10277978D01*
X12333983Y-10277978D01*
X12349814Y-10281852D01*
X12349814Y-10281852D01*
X12350026Y-10281904D01*
X12351085Y-10281969D01*
X12363199Y-10281969D01*
X12375680Y-10280514D01*
X12391473Y-10274782D01*
X12391710Y-10274626D01*
X12391711Y-10274626D01*
X12405285Y-10265726D01*
X12405285Y-10265726D01*
X12405523Y-10265570D01*
X12417078Y-10253373D01*
X12420957Y-10246694D01*
X12425373Y-10239091D01*
X12425373Y-10239091D01*
X12425516Y-10238845D01*
X12425599Y-10238572D01*
X12429399Y-10226025D01*
X13203400Y-10226025D01*
X13203685Y-10226715D01*
X13204375Y-10227000D01*
X13333325Y-10227000D01*
X13334014Y-10226715D01*
X13334300Y-10226025D01*
X13374300Y-10226025D01*
X13374585Y-10226715D01*
X13375275Y-10227000D01*
X13504225Y-10227000D01*
X13504914Y-10226715D01*
X13505200Y-10226025D01*
X13505200Y-10194739D01*
X13505153Y-10194263D01*
X13503820Y-10187563D01*
X13503458Y-10186688D01*
X13498380Y-10179089D01*
X13497711Y-10178420D01*
X13490112Y-10173342D01*
X13489237Y-10172980D01*
X13482537Y-10171647D01*
X13482061Y-10171600D01*
X13375275Y-10171600D01*
X13374585Y-10171886D01*
X13374300Y-10172575D01*
X13374300Y-10226025D01*
X13334300Y-10226025D01*
X13334300Y-10172575D01*
X13334014Y-10171886D01*
X13333325Y-10171600D01*
X13226539Y-10171600D01*
X13226063Y-10171647D01*
X13219363Y-10172980D01*
X13218488Y-10173342D01*
X13210889Y-10178420D01*
X13210220Y-10179089D01*
X13205142Y-10186688D01*
X13204780Y-10187563D01*
X13203447Y-10194263D01*
X13203400Y-10194739D01*
X13203400Y-10226025D01*
X12429399Y-10226025D01*
X12430304Y-10223038D01*
X12430304Y-10223037D01*
X12430386Y-10222765D01*
X12430957Y-10213558D01*
X12431409Y-10206280D01*
X12431409Y-10206280D01*
X12431426Y-10205996D01*
X12428581Y-10189438D01*
X12428470Y-10189176D01*
X12428470Y-10189176D01*
X12422115Y-10174241D01*
X12422003Y-10173978D01*
X12412045Y-10160447D01*
X12411828Y-10160263D01*
X12411828Y-10160262D01*
X12399457Y-10149753D01*
X12399241Y-10149569D01*
X12384278Y-10141928D01*
X12374033Y-10139422D01*
X12368170Y-10137987D01*
X12368170Y-10137987D01*
X12367958Y-10137935D01*
X12366899Y-10137869D01*
X12354785Y-10137869D01*
X12342304Y-10139324D01*
X12326511Y-10145057D01*
X12326274Y-10145213D01*
X12326273Y-10145213D01*
X12312699Y-10154113D01*
X12312461Y-10154269D01*
X12308596Y-10158348D01*
X12301848Y-10165472D01*
X12300907Y-10166466D01*
X12300177Y-10167722D01*
X12293963Y-10178420D01*
X12292468Y-10180994D01*
X12292385Y-10181267D01*
X12292385Y-10181267D01*
X12289825Y-10189719D01*
X12287598Y-10197073D01*
X12286558Y-10213842D01*
X12199404Y-10213842D01*
X12155518Y-10178188D01*
X12155310Y-10178010D01*
X12105173Y-10132339D01*
X12104974Y-10132148D01*
X12102781Y-10129911D01*
X12066329Y-10092726D01*
X12057499Y-10083719D01*
X12057311Y-10083516D01*
X12012649Y-10032483D01*
X12012472Y-10032269D01*
X11970764Y-9978792D01*
X11970600Y-9978569D01*
X11967698Y-9974381D01*
X12011089Y-9974381D01*
X12013934Y-9990939D01*
X12014045Y-9991201D01*
X12014046Y-9991201D01*
X12018742Y-10002239D01*
X12020512Y-10006398D01*
X12030470Y-10019930D01*
X12030687Y-10020114D01*
X12030687Y-10020115D01*
X12041649Y-10029427D01*
X12043274Y-10030808D01*
X12058237Y-10038449D01*
X12059765Y-10038822D01*
X12074345Y-10042390D01*
X12074345Y-10042390D01*
X12074557Y-10042442D01*
X12075616Y-10042508D01*
X12087730Y-10042508D01*
X12100211Y-10041053D01*
X12111552Y-10036936D01*
X12115737Y-10035417D01*
X12115737Y-10035417D01*
X12116004Y-10035320D01*
X12116241Y-10035164D01*
X12116242Y-10035164D01*
X12129816Y-10026264D01*
X12129816Y-10026264D01*
X12130054Y-10026108D01*
X12141609Y-10013911D01*
X12144442Y-10009034D01*
X12149904Y-9999630D01*
X12149904Y-9999629D01*
X12150047Y-9999383D01*
X12152605Y-9990939D01*
X12154835Y-9983576D01*
X12154835Y-9983576D01*
X12154917Y-9983303D01*
X12155854Y-9968200D01*
X12155940Y-9966819D01*
X12155940Y-9966819D01*
X12155957Y-9966535D01*
X12153112Y-9949976D01*
X12153001Y-9949714D01*
X12153001Y-9949714D01*
X12146646Y-9934779D01*
X12146534Y-9934517D01*
X12136576Y-9920985D01*
X12136359Y-9920801D01*
X12136359Y-9920801D01*
X12123988Y-9910291D01*
X12123772Y-9910107D01*
X12108809Y-9902467D01*
X12101841Y-9900762D01*
X12092701Y-9898525D01*
X12092701Y-9898525D01*
X12092489Y-9898473D01*
X12091430Y-9898408D01*
X12079316Y-9898408D01*
X12066835Y-9899863D01*
X12051042Y-9905595D01*
X12050805Y-9905751D01*
X12050804Y-9905751D01*
X12037230Y-9914651D01*
X12036992Y-9914807D01*
X12036796Y-9915014D01*
X12026181Y-9926219D01*
X12025438Y-9927004D01*
X12025295Y-9927250D01*
X12020150Y-9936107D01*
X12016999Y-9941532D01*
X12016916Y-9941805D01*
X12016916Y-9941805D01*
X12012481Y-9956451D01*
X12012129Y-9957612D01*
X12011089Y-9974381D01*
X11967698Y-9974381D01*
X11931981Y-9922823D01*
X11931830Y-9922591D01*
X11930059Y-9919697D01*
X11896421Y-9864749D01*
X11896285Y-9864512D01*
X11864201Y-9804760D01*
X11864078Y-9804515D01*
X11835422Y-9743047D01*
X11835313Y-9742794D01*
X11810175Y-9679803D01*
X11810083Y-9679550D01*
X11788544Y-9615239D01*
X11788464Y-9614976D01*
X11770595Y-9549553D01*
X11770530Y-9549284D01*
X11756386Y-9482957D01*
X11756336Y-9482684D01*
X11752589Y-9458476D01*
X11745963Y-9415667D01*
X11745929Y-9415393D01*
X11745919Y-9415286D01*
X11742309Y-9378195D01*
X11739359Y-9347893D01*
X11739340Y-9347616D01*
X11736924Y-9287960D01*
X11736595Y-9279855D01*
X11736592Y-9279578D01*
X11736679Y-9274193D01*
X11737259Y-9238056D01*
X11737681Y-9211769D01*
X11737693Y-9211492D01*
X11742611Y-9143854D01*
X11742639Y-9143578D01*
X11750250Y-9084960D01*
X11751371Y-9076326D01*
X11751415Y-9076052D01*
X11752285Y-9071420D01*
X11755661Y-9053448D01*
X11763934Y-9009400D01*
X11763992Y-9009130D01*
X11780257Y-8943292D01*
X11780331Y-8943025D01*
X11800291Y-8878210D01*
X11800380Y-8877948D01*
X11812756Y-8844590D01*
X11815307Y-8841841D01*
X11819054Y-8841700D01*
X11821804Y-8844251D01*
X11822250Y-8846294D01*
X11822250Y-9130177D01*
X11822246Y-9130382D01*
X11821991Y-9136452D01*
X11823017Y-9140824D01*
X11823101Y-9141277D01*
X11823611Y-9145000D01*
X11823710Y-9145725D01*
X11823843Y-9146032D01*
X11823843Y-9146032D01*
X11824532Y-9147626D01*
X11824806Y-9148453D01*
X11825203Y-9150144D01*
X11825203Y-9150145D01*
X11825279Y-9150470D01*
X11825440Y-9150763D01*
X11825440Y-9150763D01*
X11827442Y-9154404D01*
X11827645Y-9154819D01*
X11829087Y-9158152D01*
X11829428Y-9158939D01*
X11829989Y-9159632D01*
X11830732Y-9160549D01*
X11831217Y-9161271D01*
X11832215Y-9163087D01*
X11832884Y-9163861D01*
X11835490Y-9166467D01*
X11835833Y-9166848D01*
X11838489Y-9170128D01*
X11839397Y-9170774D01*
X11840441Y-9171515D01*
X11841067Y-9172045D01*
X12142574Y-9473552D01*
X12144009Y-9477017D01*
X12142574Y-9480481D01*
X12139622Y-9481890D01*
X12135502Y-9482323D01*
X12135242Y-9482411D01*
X12135242Y-9482411D01*
X12133639Y-9482957D01*
X12118501Y-9488110D01*
X12118267Y-9488254D01*
X12118267Y-9488254D01*
X12103438Y-9497377D01*
X12103437Y-9497377D01*
X12103204Y-9497521D01*
X12103009Y-9497712D01*
X12103009Y-9497712D01*
X12090569Y-9509894D01*
X12090569Y-9509894D01*
X12090373Y-9510086D01*
X12090225Y-9510316D01*
X12090225Y-9510316D01*
X12087938Y-9513865D01*
X12080645Y-9525182D01*
X12074502Y-9542058D01*
X12072251Y-9559875D01*
X12072278Y-9560148D01*
X12072278Y-9560148D01*
X12072970Y-9567204D01*
X12074004Y-9577749D01*
X12079673Y-9594790D01*
X12079814Y-9595024D01*
X12079815Y-9595024D01*
X12084885Y-9603396D01*
X12088976Y-9610151D01*
X12089166Y-9610348D01*
X12089166Y-9610348D01*
X12098630Y-9620149D01*
X12099842Y-9623338D01*
X12099974Y-9623325D01*
X12100005Y-9623659D01*
X12099991Y-9623992D01*
X12101017Y-9628363D01*
X12101101Y-9628816D01*
X12101660Y-9632897D01*
X12101710Y-9633265D01*
X12101843Y-9633571D01*
X12101843Y-9633571D01*
X12102532Y-9635166D01*
X12102806Y-9635993D01*
X12103203Y-9637684D01*
X12103203Y-9637684D01*
X12103279Y-9638009D01*
X12103440Y-9638302D01*
X12103440Y-9638303D01*
X12105442Y-9641944D01*
X12105645Y-9642358D01*
X12106724Y-9644853D01*
X12107428Y-9646478D01*
X12107924Y-9647091D01*
X12108732Y-9648088D01*
X12109217Y-9648810D01*
X12110215Y-9650626D01*
X12110884Y-9651401D01*
X12113490Y-9654007D01*
X12113833Y-9654388D01*
X12113906Y-9654478D01*
X12116489Y-9657668D01*
X12117737Y-9658555D01*
X12118441Y-9659055D01*
X12119067Y-9659584D01*
X12350283Y-9890800D01*
X12350425Y-9890948D01*
X12354537Y-9895420D01*
X12358353Y-9897786D01*
X12358733Y-9898047D01*
X12362043Y-9900560D01*
X12362044Y-9900560D01*
X12362309Y-9900762D01*
X12364236Y-9901524D01*
X12365013Y-9901915D01*
X12366490Y-9902831D01*
X12366490Y-9902831D01*
X12366774Y-9903007D01*
X12371086Y-9904260D01*
X12371521Y-9904409D01*
X12375696Y-9906062D01*
X12377756Y-9906278D01*
X12378611Y-9906446D01*
X12380600Y-9907024D01*
X12380856Y-9907043D01*
X12380857Y-9907043D01*
X12381265Y-9907073D01*
X12381620Y-9907099D01*
X12385306Y-9907099D01*
X12385818Y-9907126D01*
X12389683Y-9907532D01*
X12390015Y-9907567D01*
X12392376Y-9907168D01*
X12393193Y-9907099D01*
X12488850Y-9907099D01*
X12492315Y-9908534D01*
X12493750Y-9911999D01*
X12493750Y-9951211D01*
X12493750Y-9990152D01*
X12495235Y-9999530D01*
X12500995Y-10010834D01*
X12509966Y-10019805D01*
X12510309Y-10019980D01*
X12510309Y-10019980D01*
X12512741Y-10021219D01*
X12521270Y-10025565D01*
X12521650Y-10025625D01*
X12521650Y-10025625D01*
X12524339Y-10026051D01*
X12530648Y-10027050D01*
X12610231Y-10027050D01*
X12613696Y-10028485D01*
X12614881Y-10030403D01*
X12616673Y-10035790D01*
X12621811Y-10044275D01*
X12625589Y-10050513D01*
X12625976Y-10051151D01*
X12626166Y-10051348D01*
X12626166Y-10051348D01*
X12628295Y-10053552D01*
X12638451Y-10064070D01*
X12653479Y-10073904D01*
X12670312Y-10080164D01*
X12670582Y-10080200D01*
X12670583Y-10080200D01*
X12677540Y-10081128D01*
X12688113Y-10082539D01*
X12688386Y-10082514D01*
X12688386Y-10082514D01*
X12705725Y-10080936D01*
X12705725Y-10080936D01*
X12705998Y-10080911D01*
X12723078Y-10075362D01*
X12723313Y-10075221D01*
X12723314Y-10075221D01*
X12738269Y-10066306D01*
X12738269Y-10066306D01*
X12738504Y-10066166D01*
X12751510Y-10053781D01*
X12751661Y-10053553D01*
X12751662Y-10053552D01*
X12761296Y-10039051D01*
X12761297Y-10039051D01*
X12761448Y-10038822D01*
X12761565Y-10038516D01*
X12764528Y-10030714D01*
X12764720Y-10030210D01*
X12767292Y-10027481D01*
X12769300Y-10027050D01*
X12787952Y-10027050D01*
X12793899Y-10026108D01*
X12796950Y-10025625D01*
X12796950Y-10025625D01*
X12797330Y-10025565D01*
X12805859Y-10021219D01*
X12808291Y-10019980D01*
X12808291Y-10019980D01*
X12808634Y-10019805D01*
X12817605Y-10010834D01*
X12823365Y-9999530D01*
X12824850Y-9990152D01*
X12824850Y-9919945D01*
X12826285Y-9916480D01*
X12829750Y-9915045D01*
X12833215Y-9916480D01*
X12854485Y-9937750D01*
X12854627Y-9937898D01*
X12858740Y-9942371D01*
X12859023Y-9942547D01*
X12859024Y-9942547D01*
X12862556Y-9944737D01*
X12862936Y-9944999D01*
X12866512Y-9947713D01*
X12868404Y-9948462D01*
X12868438Y-9948475D01*
X12869216Y-9948867D01*
X12870976Y-9949958D01*
X12871297Y-9950051D01*
X12871297Y-9950051D01*
X12875288Y-9951211D01*
X12875724Y-9951360D01*
X12879588Y-9952890D01*
X12879588Y-9952890D01*
X12879899Y-9953013D01*
X12880230Y-9953048D01*
X12880230Y-9953048D01*
X12880963Y-9953125D01*
X12881959Y-9953229D01*
X12882813Y-9953397D01*
X12884802Y-9953975D01*
X12885059Y-9953994D01*
X12885059Y-9953994D01*
X12885467Y-9954024D01*
X12885822Y-9954050D01*
X12889508Y-9954050D01*
X12890020Y-9954077D01*
X12893885Y-9954483D01*
X12894217Y-9954518D01*
X12896579Y-9954118D01*
X12897396Y-9954050D01*
X13000111Y-9954050D01*
X13025764Y-9954050D01*
X13025970Y-9954054D01*
X13031705Y-9954295D01*
X13032039Y-9954309D01*
X13032364Y-9954233D01*
X13032365Y-9954233D01*
X13036411Y-9953284D01*
X13036864Y-9953200D01*
X13041313Y-9952590D01*
X13042783Y-9951954D01*
X13044729Y-9951551D01*
X13514850Y-9951551D01*
X13518315Y-9952986D01*
X13519750Y-9956451D01*
X13519750Y-10002239D01*
X13519750Y-10046152D01*
X13519780Y-10046342D01*
X13520988Y-10053970D01*
X13521235Y-10055530D01*
X13523130Y-10059248D01*
X13526726Y-10066306D01*
X13526995Y-10066834D01*
X13535966Y-10075805D01*
X13536309Y-10075980D01*
X13536309Y-10075980D01*
X13541618Y-10078685D01*
X13547270Y-10081565D01*
X13547650Y-10081625D01*
X13547650Y-10081625D01*
X13550568Y-10082087D01*
X13556648Y-10083050D01*
X13598193Y-10083050D01*
X13804075Y-10083050D01*
X13805783Y-10083357D01*
X13821966Y-10089376D01*
X13822237Y-10089412D01*
X13822237Y-10089412D01*
X13829116Y-10090330D01*
X13839767Y-10091751D01*
X13840040Y-10091726D01*
X13840040Y-10091726D01*
X13857379Y-10090148D01*
X13857379Y-10090148D01*
X13857652Y-10090123D01*
X13874732Y-10084573D01*
X13874968Y-10084433D01*
X13874968Y-10084433D01*
X13889923Y-10075518D01*
X13889923Y-10075518D01*
X13890159Y-10075378D01*
X13891706Y-10073904D01*
X13902965Y-10063182D01*
X13903164Y-10062993D01*
X13903316Y-10062765D01*
X13903316Y-10062764D01*
X13912951Y-10048263D01*
X13912951Y-10048263D01*
X13913102Y-10048034D01*
X13914354Y-10044739D01*
X13916926Y-10042010D01*
X13919447Y-10041606D01*
X13922566Y-10041934D01*
X13923036Y-10041983D01*
X13923368Y-10042018D01*
X13925729Y-10041619D01*
X13926546Y-10041550D01*
X14135178Y-10041550D01*
X14138703Y-10043046D01*
X14146451Y-10051070D01*
X14161479Y-10060904D01*
X14178312Y-10067164D01*
X14178582Y-10067200D01*
X14178583Y-10067200D01*
X14185540Y-10068128D01*
X14196113Y-10069539D01*
X14196386Y-10069514D01*
X14196386Y-10069514D01*
X14213725Y-10067936D01*
X14213725Y-10067936D01*
X14213998Y-10067911D01*
X14231078Y-10062362D01*
X14231313Y-10062221D01*
X14231314Y-10062221D01*
X14246269Y-10053306D01*
X14246269Y-10053306D01*
X14246504Y-10053166D01*
X14250926Y-10048955D01*
X14258219Y-10042010D01*
X14259510Y-10040781D01*
X14259661Y-10040553D01*
X14259662Y-10040552D01*
X14269296Y-10026051D01*
X14269297Y-10026051D01*
X14269448Y-10025822D01*
X14269613Y-10025390D01*
X14275728Y-10009290D01*
X14275728Y-10009290D01*
X14275826Y-10009034D01*
X14278325Y-9991249D01*
X14278329Y-9990939D01*
X14278354Y-9989155D01*
X14278356Y-9989000D01*
X14276748Y-9974661D01*
X14276385Y-9971425D01*
X14276385Y-9971425D01*
X14276355Y-9971153D01*
X14273641Y-9963362D01*
X14270539Y-9954452D01*
X14270538Y-9954451D01*
X14270448Y-9954193D01*
X14269880Y-9953284D01*
X14261077Y-9939195D01*
X14261077Y-9939195D01*
X14260932Y-9938963D01*
X14259801Y-9937824D01*
X14248876Y-9926822D01*
X14248277Y-9926219D01*
X14245016Y-9924150D01*
X14242835Y-9922766D01*
X14240678Y-9919697D01*
X14240621Y-9917862D01*
X14241020Y-9915342D01*
X14241020Y-9915342D01*
X14241050Y-9915152D01*
X14241050Y-9875001D01*
X14242485Y-9871536D01*
X14245950Y-9870101D01*
X14247658Y-9870408D01*
X14252350Y-9872153D01*
X14260312Y-9875114D01*
X14260582Y-9875150D01*
X14260583Y-9875150D01*
X14265915Y-9875861D01*
X14278113Y-9877489D01*
X14278386Y-9877464D01*
X14278386Y-9877464D01*
X14295606Y-9875897D01*
X14299187Y-9877012D01*
X14300930Y-9880333D01*
X14300950Y-9880777D01*
X14300950Y-9915152D01*
X14302435Y-9924530D01*
X14303696Y-9927004D01*
X14307407Y-9934287D01*
X14308195Y-9935834D01*
X14317166Y-9944805D01*
X14317509Y-9944980D01*
X14317509Y-9944980D01*
X14318587Y-9945529D01*
X14328470Y-9950565D01*
X14328850Y-9950625D01*
X14328850Y-9950625D01*
X14330516Y-9950889D01*
X14337848Y-9952050D01*
X14371000Y-9952050D01*
X14404152Y-9952050D01*
X14409451Y-9951211D01*
X14413150Y-9950625D01*
X14413150Y-9950625D01*
X14413530Y-9950565D01*
X14413874Y-9950390D01*
X14417625Y-9948478D01*
X14421364Y-9948184D01*
X14424216Y-9950620D01*
X14424750Y-9952844D01*
X14424750Y-10002239D01*
X14423315Y-10005704D01*
X14401274Y-10027744D01*
X14397809Y-10029180D01*
X14397230Y-10029145D01*
X14391362Y-10028446D01*
X14391090Y-10028474D01*
X14391090Y-10028474D01*
X14380583Y-10029579D01*
X14373502Y-10030323D01*
X14356501Y-10036110D01*
X14356267Y-10036254D01*
X14356267Y-10036254D01*
X14341438Y-10045377D01*
X14341437Y-10045377D01*
X14341204Y-10045521D01*
X14341009Y-10045712D01*
X14341009Y-10045712D01*
X14328569Y-10057894D01*
X14328569Y-10057894D01*
X14328373Y-10058086D01*
X14318645Y-10073182D01*
X14317789Y-10075532D01*
X14312737Y-10089412D01*
X14312502Y-10090058D01*
X14310251Y-10107875D01*
X14310278Y-10108148D01*
X14310278Y-10108148D01*
X14310907Y-10114558D01*
X14312004Y-10125749D01*
X14317673Y-10142790D01*
X14317814Y-10143024D01*
X14317815Y-10143024D01*
X14320102Y-10146802D01*
X14326976Y-10158151D01*
X14327166Y-10158348D01*
X14327166Y-10158348D01*
X14329193Y-10160447D01*
X14339451Y-10171070D01*
X14354479Y-10180904D01*
X14371312Y-10187164D01*
X14371582Y-10187200D01*
X14371583Y-10187200D01*
X14378540Y-10188128D01*
X14389113Y-10189539D01*
X14389386Y-10189514D01*
X14389386Y-10189514D01*
X14406725Y-10187936D01*
X14406725Y-10187936D01*
X14406998Y-10187911D01*
X14424078Y-10182362D01*
X14424313Y-10182221D01*
X14424314Y-10182221D01*
X14439269Y-10173306D01*
X14439269Y-10173306D01*
X14439504Y-10173166D01*
X14440071Y-10172626D01*
X14447550Y-10165504D01*
X14452510Y-10160781D01*
X14452661Y-10160553D01*
X14452662Y-10160552D01*
X14462296Y-10146051D01*
X14462297Y-10146051D01*
X14462448Y-10145822D01*
X14462739Y-10145057D01*
X14468728Y-10129290D01*
X14468728Y-10129290D01*
X14468826Y-10129034D01*
X14471325Y-10111249D01*
X14471356Y-10109000D01*
X14470633Y-10102554D01*
X14471674Y-10098951D01*
X14472038Y-10098543D01*
X14505836Y-10064745D01*
X14506686Y-10064066D01*
X14507277Y-10063693D01*
X14507572Y-10063507D01*
X14511233Y-10059362D01*
X14511441Y-10059141D01*
X14512732Y-10057849D01*
X14512836Y-10057710D01*
X14512837Y-10057709D01*
X14513530Y-10056784D01*
X14513779Y-10056479D01*
X14514617Y-10055530D01*
X14517062Y-10052761D01*
X14517716Y-10051369D01*
X14518230Y-10050514D01*
X14519153Y-10049282D01*
X14520398Y-10045959D01*
X14520894Y-10044638D01*
X14521047Y-10044275D01*
X14523007Y-10040099D01*
X14523007Y-10040099D01*
X14523155Y-10039784D01*
X14523269Y-10039051D01*
X14523392Y-10038264D01*
X14523645Y-10037298D01*
X14524037Y-10036254D01*
X14524185Y-10035858D01*
X14524436Y-10032483D01*
X14524553Y-10030911D01*
X14524598Y-10030520D01*
X14524821Y-10029086D01*
X14524850Y-10028899D01*
X14524850Y-10027093D01*
X14524863Y-10026730D01*
X14525222Y-10021910D01*
X14525222Y-10021910D01*
X14525248Y-10021561D01*
X14524958Y-10020204D01*
X14524850Y-10019181D01*
X14524850Y-9955729D01*
X14526285Y-9952264D01*
X14529750Y-9950829D01*
X14530517Y-9950889D01*
X14537848Y-9952050D01*
X14571000Y-9952050D01*
X14604152Y-9952050D01*
X14609451Y-9951211D01*
X14613150Y-9950625D01*
X14613150Y-9950625D01*
X14613530Y-9950565D01*
X14615305Y-9949661D01*
X14619043Y-9949366D01*
X14621054Y-9950623D01*
X14622451Y-9952070D01*
X14637479Y-9961904D01*
X14654312Y-9968164D01*
X14654582Y-9968200D01*
X14654583Y-9968200D01*
X14661540Y-9969128D01*
X14672113Y-9970539D01*
X14672386Y-9970514D01*
X14672386Y-9970514D01*
X14689725Y-9968936D01*
X14689725Y-9968936D01*
X14689998Y-9968911D01*
X14707078Y-9963362D01*
X14707313Y-9963221D01*
X14707314Y-9963221D01*
X14722269Y-9954306D01*
X14722269Y-9954306D01*
X14722504Y-9954166D01*
X14723486Y-9953231D01*
X14735311Y-9941970D01*
X14735510Y-9941781D01*
X14735661Y-9941553D01*
X14735662Y-9941552D01*
X14745296Y-9927051D01*
X14745297Y-9927051D01*
X14745448Y-9926822D01*
X14746188Y-9924874D01*
X14751728Y-9910290D01*
X14751728Y-9910290D01*
X14751826Y-9910034D01*
X14754325Y-9892249D01*
X14754356Y-9890000D01*
X14752950Y-9877464D01*
X14752385Y-9872425D01*
X14752385Y-9872425D01*
X14752355Y-9872153D01*
X14749736Y-9864632D01*
X14746539Y-9855452D01*
X14746538Y-9855451D01*
X14746448Y-9855193D01*
X14744869Y-9852665D01*
X14737077Y-9840195D01*
X14737077Y-9840195D01*
X14736932Y-9839963D01*
X14724277Y-9827219D01*
X14717163Y-9822705D01*
X14709345Y-9817743D01*
X14709345Y-9817743D01*
X14709114Y-9817596D01*
X14708856Y-9817505D01*
X14708856Y-9817504D01*
X14692453Y-9811664D01*
X14692195Y-9811572D01*
X14691923Y-9811540D01*
X14691923Y-9811539D01*
X14683279Y-9810509D01*
X14674362Y-9809446D01*
X14674090Y-9809474D01*
X14674090Y-9809474D01*
X14667334Y-9810184D01*
X14663738Y-9809119D01*
X14663357Y-9808776D01*
X14648045Y-9793464D01*
X14647366Y-9792614D01*
X14646993Y-9792023D01*
X14646807Y-9791728D01*
X14642706Y-9788106D01*
X14641050Y-9784434D01*
X14641050Y-9733848D01*
X14639840Y-9726211D01*
X14639625Y-9724850D01*
X14639625Y-9724850D01*
X14639565Y-9724470D01*
X14635802Y-9717085D01*
X14633980Y-9713509D01*
X14633980Y-9713509D01*
X14633805Y-9713166D01*
X14624834Y-9704195D01*
X14624491Y-9704020D01*
X14624491Y-9704020D01*
X14617386Y-9700400D01*
X14613530Y-9698435D01*
X14613150Y-9698375D01*
X14613150Y-9698375D01*
X14609933Y-9697866D01*
X14604152Y-9696950D01*
X14603959Y-9696950D01*
X14571000Y-9696950D01*
X14537848Y-9696950D01*
X14532066Y-9697866D01*
X14528420Y-9696990D01*
X14526460Y-9693793D01*
X14526400Y-9693026D01*
X14526400Y-9670475D01*
X14526114Y-9669786D01*
X14525425Y-9669500D01*
X14416575Y-9669500D01*
X14415886Y-9669786D01*
X14415600Y-9670475D01*
X14415600Y-9693026D01*
X14414165Y-9696491D01*
X14410700Y-9697926D01*
X14409934Y-9697866D01*
X14407629Y-9697501D01*
X14404152Y-9696950D01*
X14401768Y-9696950D01*
X14345950Y-9696950D01*
X14342485Y-9695515D01*
X14341050Y-9692050D01*
X14341050Y-9628525D01*
X14415600Y-9628525D01*
X14415885Y-9629215D01*
X14416575Y-9629500D01*
X14450025Y-9629500D01*
X14450714Y-9629215D01*
X14451000Y-9628525D01*
X14491000Y-9628525D01*
X14491285Y-9629215D01*
X14491975Y-9629500D01*
X14525425Y-9629500D01*
X14526114Y-9629215D01*
X14526400Y-9628525D01*
X14526400Y-9559739D01*
X14526353Y-9559263D01*
X14525020Y-9552563D01*
X14524658Y-9551688D01*
X14519580Y-9544089D01*
X14518911Y-9543420D01*
X14511312Y-9538342D01*
X14510437Y-9537980D01*
X14503737Y-9536647D01*
X14503261Y-9536600D01*
X14491975Y-9536600D01*
X14491285Y-9536886D01*
X14491000Y-9537575D01*
X14491000Y-9628525D01*
X14451000Y-9628525D01*
X14451000Y-9537575D01*
X14450714Y-9536886D01*
X14450025Y-9536600D01*
X14438739Y-9536600D01*
X14438263Y-9536647D01*
X14431563Y-9537980D01*
X14430688Y-9538342D01*
X14423089Y-9543420D01*
X14422420Y-9544089D01*
X14417342Y-9551688D01*
X14416980Y-9552563D01*
X14415647Y-9559263D01*
X14415600Y-9559739D01*
X14415600Y-9628525D01*
X14341050Y-9628525D01*
X14341050Y-9559041D01*
X14341050Y-9558848D01*
X14340054Y-9552563D01*
X14339625Y-9549850D01*
X14339625Y-9549850D01*
X14339565Y-9549470D01*
X14333805Y-9538166D01*
X14325639Y-9530000D01*
X14551000Y-9530000D01*
X14649069Y-9530000D01*
X14649552Y-9530024D01*
X14668449Y-9531896D01*
X14669396Y-9532085D01*
X14687326Y-9537558D01*
X14688217Y-9537930D01*
X14704725Y-9546814D01*
X14705526Y-9547353D01*
X14708399Y-9549730D01*
X14720157Y-9559458D01*
X14720514Y-9559785D01*
X14740576Y-9580031D01*
X14800000Y-9640000D01*
X15049679Y-9640000D01*
X15050318Y-9640042D01*
X15062302Y-9641620D01*
X15063537Y-9641951D01*
X15074404Y-9646452D01*
X15075511Y-9647091D01*
X15084844Y-9654252D01*
X15085748Y-9655156D01*
X15092909Y-9664488D01*
X15093548Y-9665596D01*
X15097635Y-9675463D01*
X15098049Y-9676463D01*
X15098380Y-9677698D01*
X15100000Y-9690000D01*
X15100000Y-9740000D01*
X15141950Y-9740000D01*
X15142820Y-9740502D01*
X15143790Y-9744125D01*
X15143537Y-9745161D01*
X15142467Y-9748101D01*
X15140216Y-9765919D01*
X15140242Y-9766191D01*
X15140242Y-9766191D01*
X15140646Y-9770306D01*
X15141968Y-9783792D01*
X15147637Y-9800833D01*
X15147779Y-9801068D01*
X15147779Y-9801068D01*
X15155040Y-9813058D01*
X15156940Y-9816195D01*
X15157130Y-9816392D01*
X15157130Y-9816392D01*
X15158294Y-9817596D01*
X15169416Y-9829114D01*
X15184443Y-9838947D01*
X15201276Y-9845207D01*
X15201547Y-9845243D01*
X15201547Y-9845243D01*
X15207091Y-9845983D01*
X15219077Y-9847582D01*
X15219350Y-9847558D01*
X15219350Y-9847558D01*
X15236689Y-9845980D01*
X15236690Y-9845980D01*
X15236962Y-9845955D01*
X15254043Y-9840405D01*
X15254278Y-9840265D01*
X15254278Y-9840265D01*
X15269233Y-9831350D01*
X15269233Y-9831350D01*
X15269469Y-9831209D01*
X15273454Y-9827414D01*
X15282276Y-9819014D01*
X15282474Y-9818824D01*
X15284858Y-9815237D01*
X15287971Y-9813145D01*
X15288939Y-9813048D01*
X15481698Y-9813048D01*
X15482779Y-9813169D01*
X15483800Y-9813400D01*
X15484149Y-9813379D01*
X15489321Y-9813058D01*
X15489624Y-9813048D01*
X15491450Y-9813048D01*
X15492767Y-9812860D01*
X15493157Y-9812820D01*
X15498109Y-9812512D01*
X15498437Y-9812394D01*
X15498438Y-9812394D01*
X15499556Y-9811990D01*
X15500525Y-9811749D01*
X15501702Y-9811580D01*
X15501702Y-9811580D01*
X15502047Y-9811531D01*
X15504471Y-9810429D01*
X15506564Y-9809477D01*
X15506928Y-9809329D01*
X15511266Y-9807763D01*
X15511266Y-9807763D01*
X15511594Y-9807644D01*
X15512836Y-9806737D01*
X15513698Y-9806234D01*
X15514781Y-9805741D01*
X15514781Y-9805741D01*
X15515098Y-9805597D01*
X15515362Y-9805369D01*
X15515363Y-9805369D01*
X15518857Y-9802358D01*
X15519164Y-9802114D01*
X15520489Y-9801146D01*
X15521766Y-9799870D01*
X15522032Y-9799622D01*
X15525695Y-9796466D01*
X15525959Y-9796238D01*
X15526714Y-9795074D01*
X15527361Y-9794274D01*
X15604550Y-9717085D01*
X15668743Y-9717085D01*
X15668823Y-9717549D01*
X15668983Y-9718092D01*
X15675644Y-9733746D01*
X15675924Y-9734238D01*
X15686008Y-9747939D01*
X15686393Y-9748353D01*
X15699359Y-9759368D01*
X15699829Y-9759682D01*
X15714981Y-9767419D01*
X15715511Y-9767616D01*
X15732101Y-9771675D01*
X15732531Y-9771741D01*
X15733348Y-9771791D01*
X15733496Y-9771796D01*
X15775721Y-9771796D01*
X15776410Y-9771511D01*
X15776696Y-9770821D01*
X15816696Y-9770821D01*
X15816981Y-9771511D01*
X15817671Y-9771796D01*
X15855957Y-9771796D01*
X15856240Y-9771780D01*
X15868876Y-9770306D01*
X15869427Y-9770176D01*
X15885420Y-9764371D01*
X15885925Y-9764118D01*
X15900152Y-9754790D01*
X15900586Y-9754427D01*
X15912286Y-9742077D01*
X15912625Y-9741624D01*
X15921170Y-9726913D01*
X15921396Y-9726394D01*
X15924141Y-9717329D01*
X15924117Y-9717085D01*
X16111743Y-9717085D01*
X16111823Y-9717549D01*
X16111983Y-9718092D01*
X16118644Y-9733746D01*
X16118924Y-9734238D01*
X16129008Y-9747939D01*
X16129393Y-9748353D01*
X16142359Y-9759368D01*
X16142829Y-9759682D01*
X16157981Y-9767419D01*
X16158511Y-9767616D01*
X16175101Y-9771675D01*
X16175531Y-9771741D01*
X16176348Y-9771791D01*
X16176496Y-9771796D01*
X16193721Y-9771796D01*
X16194410Y-9771511D01*
X16194696Y-9770821D01*
X16234696Y-9770821D01*
X16234981Y-9771511D01*
X16235671Y-9771796D01*
X16248957Y-9771796D01*
X16249240Y-9771780D01*
X16261876Y-9770306D01*
X16262427Y-9770176D01*
X16278420Y-9764371D01*
X16278925Y-9764118D01*
X16293152Y-9754790D01*
X16293586Y-9754427D01*
X16305286Y-9742077D01*
X16305625Y-9741624D01*
X16314170Y-9726913D01*
X16314396Y-9726394D01*
X16317141Y-9717329D01*
X16317068Y-9716587D01*
X16316835Y-9716396D01*
X16235671Y-9716396D01*
X16234981Y-9716682D01*
X16234696Y-9717371D01*
X16234696Y-9770821D01*
X16194696Y-9770821D01*
X16194696Y-9717371D01*
X16194410Y-9716682D01*
X16193721Y-9716396D01*
X16112600Y-9716396D01*
X16111910Y-9716682D01*
X16111743Y-9717085D01*
X15924117Y-9717085D01*
X15924068Y-9716587D01*
X15923835Y-9716396D01*
X15817671Y-9716396D01*
X15816981Y-9716682D01*
X15816696Y-9717371D01*
X15816696Y-9770821D01*
X15776696Y-9770821D01*
X15776696Y-9717371D01*
X15776410Y-9716682D01*
X15775721Y-9716396D01*
X15669600Y-9716396D01*
X15668910Y-9716682D01*
X15668743Y-9717085D01*
X15604550Y-9717085D01*
X15668453Y-9653182D01*
X15671918Y-9651747D01*
X15675383Y-9653182D01*
X15676818Y-9656647D01*
X15676155Y-9659108D01*
X15672222Y-9665879D01*
X15671996Y-9666399D01*
X15669251Y-9675463D01*
X15669324Y-9676206D01*
X15669557Y-9676396D01*
X15775721Y-9676396D01*
X15776410Y-9676111D01*
X15776696Y-9675421D01*
X15776696Y-9621971D01*
X15776410Y-9621282D01*
X15775721Y-9620996D01*
X15737435Y-9620996D01*
X15737152Y-9621013D01*
X15724515Y-9622486D01*
X15723964Y-9622616D01*
X15707972Y-9628421D01*
X15707467Y-9628674D01*
X15705168Y-9630181D01*
X15701484Y-9630881D01*
X15698384Y-9628770D01*
X15697684Y-9625085D01*
X15699017Y-9622618D01*
X15768426Y-9553209D01*
X15771891Y-9551774D01*
X15775356Y-9553209D01*
X15776708Y-9556781D01*
X15776761Y-9556778D01*
X15776770Y-9556947D01*
X15776782Y-9556977D01*
X15776759Y-9557346D01*
X15779624Y-9574019D01*
X15786248Y-9589586D01*
X15796275Y-9603212D01*
X15796492Y-9603396D01*
X15796492Y-9603396D01*
X15798639Y-9605220D01*
X15809168Y-9614165D01*
X15809421Y-9614294D01*
X15809421Y-9614294D01*
X15814024Y-9616645D01*
X15816457Y-9619499D01*
X15816696Y-9621009D01*
X15816696Y-9675421D01*
X15816981Y-9676111D01*
X15817671Y-9676396D01*
X15923792Y-9676396D01*
X15924481Y-9676111D01*
X15924649Y-9675707D01*
X15924607Y-9675463D01*
X16112251Y-9675463D01*
X16112324Y-9676206D01*
X16112557Y-9676396D01*
X16193721Y-9676396D01*
X16194410Y-9676111D01*
X16194696Y-9675421D01*
X16234696Y-9675421D01*
X16234981Y-9676111D01*
X16235671Y-9676396D01*
X16305275Y-9676396D01*
X16305964Y-9676111D01*
X16306250Y-9675421D01*
X16306250Y-9635975D01*
X16305964Y-9635286D01*
X16305275Y-9635000D01*
X16235671Y-9635000D01*
X16234981Y-9635286D01*
X16234696Y-9635975D01*
X16234696Y-9675421D01*
X16194696Y-9675421D01*
X16194696Y-9621971D01*
X16194410Y-9621282D01*
X16193721Y-9620996D01*
X16180435Y-9620996D01*
X16180152Y-9621013D01*
X16167515Y-9622486D01*
X16166964Y-9622616D01*
X16150972Y-9628421D01*
X16150467Y-9628674D01*
X16136240Y-9638002D01*
X16135806Y-9638365D01*
X16124106Y-9650715D01*
X16123767Y-9651168D01*
X16115222Y-9665879D01*
X16114996Y-9666399D01*
X16112251Y-9675463D01*
X15924607Y-9675463D01*
X15924569Y-9675244D01*
X15924409Y-9674700D01*
X15917748Y-9659046D01*
X15917468Y-9658555D01*
X15907384Y-9644853D01*
X15906998Y-9644439D01*
X15894033Y-9633424D01*
X15893563Y-9633110D01*
X15882391Y-9627406D01*
X15879958Y-9624552D01*
X15880255Y-9620813D01*
X15882361Y-9618723D01*
X15882402Y-9618709D01*
X15882640Y-9618553D01*
X15882640Y-9618553D01*
X15889135Y-9614294D01*
X15896550Y-9609433D01*
X15908184Y-9597151D01*
X15908221Y-9597087D01*
X16002851Y-9597087D01*
X16002972Y-9597381D01*
X16016657Y-9605029D01*
X16017094Y-9605220D01*
X16034897Y-9611005D01*
X16035364Y-9611107D01*
X16053952Y-9613324D01*
X16054428Y-9613334D01*
X16073094Y-9611898D01*
X16073563Y-9611815D01*
X16091594Y-9606780D01*
X16092038Y-9606608D01*
X16108748Y-9598168D01*
X16109150Y-9597912D01*
X16109352Y-9597755D01*
X16109719Y-9597105D01*
X16109584Y-9596619D01*
X16106991Y-9594025D01*
X16205850Y-9594025D01*
X16206136Y-9594715D01*
X16206825Y-9595000D01*
X16305275Y-9595000D01*
X16305964Y-9594715D01*
X16306250Y-9594025D01*
X16306250Y-9575975D01*
X16305964Y-9575286D01*
X16305275Y-9575000D01*
X16206825Y-9575000D01*
X16206136Y-9575286D01*
X16205850Y-9575975D01*
X16205850Y-9594025D01*
X16106991Y-9594025D01*
X16056939Y-9543974D01*
X16056250Y-9543688D01*
X16055561Y-9543974D01*
X16003136Y-9596398D01*
X16002851Y-9597087D01*
X15908221Y-9597087D01*
X15916682Y-9582522D01*
X15916991Y-9581501D01*
X15921503Y-9566603D01*
X15921503Y-9566603D01*
X15921585Y-9566331D01*
X15922178Y-9556778D01*
X15922615Y-9549730D01*
X15922615Y-9549730D01*
X15922633Y-9549446D01*
X15919768Y-9532773D01*
X15913144Y-9517206D01*
X15910686Y-9513865D01*
X15957906Y-9513865D01*
X15959472Y-9532520D01*
X15959558Y-9532988D01*
X15964718Y-9550984D01*
X15964894Y-9551427D01*
X15973451Y-9568076D01*
X15973524Y-9568191D01*
X15974100Y-9568511D01*
X15974596Y-9568370D01*
X16027276Y-9515689D01*
X16027562Y-9515000D01*
X16084938Y-9515000D01*
X16085224Y-9515689D01*
X16137614Y-9568080D01*
X16138304Y-9568366D01*
X16138604Y-9568241D01*
X16146000Y-9555221D01*
X16146194Y-9554785D01*
X16152103Y-9537022D01*
X16152209Y-9536557D01*
X16152529Y-9534025D01*
X16205850Y-9534025D01*
X16206135Y-9534715D01*
X16206825Y-9535000D01*
X16305275Y-9535000D01*
X16305964Y-9534715D01*
X16306250Y-9534025D01*
X16306250Y-9470575D01*
X16305753Y-9469375D01*
X16305753Y-9465625D01*
X16306250Y-9464425D01*
X16306250Y-9385975D01*
X16305964Y-9385286D01*
X16305275Y-9385000D01*
X16206825Y-9385000D01*
X16206136Y-9385286D01*
X16205850Y-9385975D01*
X16205850Y-9442261D01*
X16205897Y-9442737D01*
X16207230Y-9449437D01*
X16207592Y-9450312D01*
X16212670Y-9457911D01*
X16213339Y-9458580D01*
X16220590Y-9463426D01*
X16222674Y-9466544D01*
X16221942Y-9470222D01*
X16220590Y-9471574D01*
X16213339Y-9476420D01*
X16212670Y-9477089D01*
X16207592Y-9484688D01*
X16207230Y-9485563D01*
X16205897Y-9492263D01*
X16205850Y-9492739D01*
X16205850Y-9534025D01*
X16152529Y-9534025D01*
X16154568Y-9517882D01*
X16154587Y-9517610D01*
X16154622Y-9515137D01*
X16154610Y-9514864D01*
X16152773Y-9496131D01*
X16152681Y-9495664D01*
X16147270Y-9477742D01*
X16147088Y-9477301D01*
X16138918Y-9461935D01*
X16138342Y-9461460D01*
X16138046Y-9461489D01*
X16085224Y-9514311D01*
X16084938Y-9515000D01*
X16027562Y-9515000D01*
X16027276Y-9514311D01*
X15974815Y-9461849D01*
X15974125Y-9461563D01*
X15973838Y-9461682D01*
X15965946Y-9476037D01*
X15965759Y-9476475D01*
X15960098Y-9494319D01*
X15959999Y-9494784D01*
X15957913Y-9513389D01*
X15957906Y-9513865D01*
X15910686Y-9513865D01*
X15903117Y-9503580D01*
X15902900Y-9503396D01*
X15902900Y-9503396D01*
X15895815Y-9497377D01*
X15890224Y-9492627D01*
X15889511Y-9492263D01*
X15885270Y-9490097D01*
X15875157Y-9484933D01*
X15874155Y-9484688D01*
X15872314Y-9484238D01*
X15869290Y-9482020D01*
X15868719Y-9478313D01*
X15870937Y-9475289D01*
X15871964Y-9474818D01*
X15887831Y-9469663D01*
X15888066Y-9469522D01*
X15888067Y-9469522D01*
X15903022Y-9460607D01*
X15903022Y-9460607D01*
X15903257Y-9460467D01*
X15906826Y-9457069D01*
X15912016Y-9452126D01*
X15916263Y-9448082D01*
X15916414Y-9447854D01*
X15916415Y-9447853D01*
X15926049Y-9433352D01*
X15926049Y-9433352D01*
X15926201Y-9433123D01*
X15929168Y-9425312D01*
X15932227Y-9417261D01*
X15963350Y-9417261D01*
X15963397Y-9417737D01*
X15964730Y-9424437D01*
X15965092Y-9425312D01*
X15970170Y-9432911D01*
X15970839Y-9433580D01*
X15978438Y-9438658D01*
X15979313Y-9439020D01*
X15985923Y-9440335D01*
X15987431Y-9439711D01*
X15994873Y-9432269D01*
X15998338Y-9430833D01*
X16001803Y-9432269D01*
X16055561Y-9486026D01*
X16056250Y-9486312D01*
X16056939Y-9486026D01*
X16110697Y-9432269D01*
X16114162Y-9430833D01*
X16117627Y-9432269D01*
X16125069Y-9439711D01*
X16126577Y-9440335D01*
X16133187Y-9439020D01*
X16134062Y-9438658D01*
X16141661Y-9433580D01*
X16142330Y-9432911D01*
X16147408Y-9425312D01*
X16147770Y-9424437D01*
X16149103Y-9417737D01*
X16149150Y-9417261D01*
X16149150Y-9415975D01*
X16148864Y-9415286D01*
X16148175Y-9415000D01*
X15964325Y-9415000D01*
X15963636Y-9415286D01*
X15963350Y-9415975D01*
X15963350Y-9417261D01*
X15932227Y-9417261D01*
X15932481Y-9416591D01*
X15932481Y-9416591D01*
X15932579Y-9416335D01*
X15935078Y-9398550D01*
X15935109Y-9396301D01*
X15933107Y-9378454D01*
X15928949Y-9366511D01*
X15929164Y-9362767D01*
X15931965Y-9360273D01*
X15933576Y-9360000D01*
X15945893Y-9360000D01*
X15949358Y-9361435D01*
X15950259Y-9362675D01*
X15950826Y-9363788D01*
X15954338Y-9370680D01*
X15955945Y-9373834D01*
X15964916Y-9382805D01*
X15965259Y-9382980D01*
X15965259Y-9382980D01*
X15969177Y-9384976D01*
X15976220Y-9388565D01*
X15976600Y-9388625D01*
X15976600Y-9388625D01*
X15979518Y-9389087D01*
X15985598Y-9390050D01*
X16056250Y-9390050D01*
X16126902Y-9390050D01*
X16131620Y-9389303D01*
X16135900Y-9388625D01*
X16135900Y-9388625D01*
X16136280Y-9388565D01*
X16143323Y-9384976D01*
X16147241Y-9382980D01*
X16147241Y-9382980D01*
X16147584Y-9382805D01*
X16156555Y-9373834D01*
X16158162Y-9370680D01*
X16161674Y-9363788D01*
X16162315Y-9362530D01*
X16163800Y-9353152D01*
X16163800Y-9344025D01*
X16205850Y-9344025D01*
X16206135Y-9344715D01*
X16206825Y-9345000D01*
X16305275Y-9345000D01*
X16305964Y-9344715D01*
X16306250Y-9344025D01*
X16306250Y-9185975D01*
X16305964Y-9185286D01*
X16305275Y-9185000D01*
X16206825Y-9185000D01*
X16206136Y-9185286D01*
X16205850Y-9185975D01*
X16205850Y-9242261D01*
X16205897Y-9242737D01*
X16207230Y-9249437D01*
X16207592Y-9250312D01*
X16212670Y-9257911D01*
X16213339Y-9258580D01*
X16216849Y-9260926D01*
X16218932Y-9264044D01*
X16218201Y-9267722D01*
X16216849Y-9269074D01*
X16213339Y-9271420D01*
X16212670Y-9272089D01*
X16207592Y-9279688D01*
X16207230Y-9280563D01*
X16205897Y-9287263D01*
X16205850Y-9287739D01*
X16205850Y-9344025D01*
X16163800Y-9344025D01*
X16163800Y-9306848D01*
X16162641Y-9299534D01*
X16162441Y-9298267D01*
X16162441Y-9296734D01*
X16163770Y-9288342D01*
X16163800Y-9288152D01*
X16163800Y-9241848D01*
X16162441Y-9233267D01*
X16162441Y-9231734D01*
X16163504Y-9225022D01*
X16163800Y-9223152D01*
X16163800Y-9176848D01*
X16162441Y-9168267D01*
X16162441Y-9166734D01*
X16162886Y-9163925D01*
X16163800Y-9158152D01*
X16163800Y-9144025D01*
X16205850Y-9144025D01*
X16206135Y-9144715D01*
X16206825Y-9145000D01*
X16305275Y-9145000D01*
X16305964Y-9144715D01*
X16306250Y-9144025D01*
X16306250Y-9065575D01*
X16305753Y-9064375D01*
X16305753Y-9060625D01*
X16306250Y-9059425D01*
X16306250Y-8995975D01*
X16305964Y-8995286D01*
X16305275Y-8995000D01*
X16206825Y-8995000D01*
X16206136Y-8995286D01*
X16205850Y-8995975D01*
X16205850Y-9037261D01*
X16205897Y-9037737D01*
X16207230Y-9044437D01*
X16207592Y-9045312D01*
X16212670Y-9052911D01*
X16213339Y-9053580D01*
X16220590Y-9058426D01*
X16222674Y-9061544D01*
X16221942Y-9065222D01*
X16220590Y-9066574D01*
X16213339Y-9071420D01*
X16212670Y-9072089D01*
X16207592Y-9079688D01*
X16207230Y-9080563D01*
X16205897Y-9087263D01*
X16205850Y-9087739D01*
X16205850Y-9144025D01*
X16163800Y-9144025D01*
X16163800Y-9111848D01*
X16162805Y-9105565D01*
X16162375Y-9102850D01*
X16162375Y-9102850D01*
X16162315Y-9102470D01*
X16156555Y-9091166D01*
X16147584Y-9082195D01*
X16147241Y-9082020D01*
X16147241Y-9082020D01*
X16139041Y-9077842D01*
X16136605Y-9074990D01*
X16137005Y-9071056D01*
X16146000Y-9055221D01*
X16146194Y-9054785D01*
X16152103Y-9037022D01*
X16152209Y-9036557D01*
X16154568Y-9017882D01*
X16154587Y-9017610D01*
X16154622Y-9015137D01*
X16154610Y-9014864D01*
X16152773Y-8996131D01*
X16152681Y-8995664D01*
X16147270Y-8977742D01*
X16147088Y-8977301D01*
X16138918Y-8961935D01*
X16138342Y-8961460D01*
X16138046Y-8961489D01*
X16059715Y-9039820D01*
X16056250Y-9041255D01*
X16052785Y-9039820D01*
X15974815Y-8961849D01*
X15974125Y-8961563D01*
X15973838Y-8961682D01*
X15965946Y-8976037D01*
X15965759Y-8976475D01*
X15960098Y-8994319D01*
X15959999Y-8994785D01*
X15959165Y-9002220D01*
X15957353Y-9005503D01*
X15953750Y-9006543D01*
X15951670Y-9005811D01*
X15942064Y-8999714D01*
X15941806Y-8999623D01*
X15941806Y-8999622D01*
X15925403Y-8993782D01*
X15925258Y-8993730D01*
X15925258Y-8993730D01*
X15925145Y-8993690D01*
X15925157Y-8993657D01*
X15922249Y-8991569D01*
X15921631Y-8988334D01*
X15921585Y-8988331D01*
X15921597Y-8988151D01*
X15922633Y-8971446D01*
X15919768Y-8954773D01*
X15918618Y-8952070D01*
X15913256Y-8939468D01*
X15913144Y-8939206D01*
X15908431Y-8932802D01*
X16002694Y-8932802D01*
X16002842Y-8933308D01*
X16055561Y-8986026D01*
X16056250Y-8986312D01*
X16056939Y-8986026D01*
X16088940Y-8954025D01*
X16205850Y-8954025D01*
X16206135Y-8954715D01*
X16206825Y-8955000D01*
X16305275Y-8955000D01*
X16305964Y-8954715D01*
X16306250Y-8954025D01*
X16306250Y-8935975D01*
X16305964Y-8935286D01*
X16305275Y-8935000D01*
X16206825Y-8935000D01*
X16206135Y-8935286D01*
X16205850Y-8935975D01*
X16205850Y-8954025D01*
X16088940Y-8954025D01*
X16109442Y-8933524D01*
X16109728Y-8932834D01*
X16109611Y-8932553D01*
X16094582Y-8924427D01*
X16094143Y-8924242D01*
X16076259Y-8918706D01*
X16075793Y-8918611D01*
X16057175Y-8916654D01*
X16056698Y-8916650D01*
X16038056Y-8918347D01*
X16037586Y-8918437D01*
X16019628Y-8923722D01*
X16019186Y-8923901D01*
X16002907Y-8932411D01*
X16002694Y-8932802D01*
X15908431Y-8932802D01*
X15903117Y-8925580D01*
X15902900Y-8925396D01*
X15902900Y-8925396D01*
X15897729Y-8921003D01*
X15890224Y-8914627D01*
X15889971Y-8914498D01*
X15889971Y-8914497D01*
X15881946Y-8910400D01*
X15879513Y-8907546D01*
X15879811Y-8903808D01*
X15882503Y-8901430D01*
X15885420Y-8900371D01*
X15885925Y-8900118D01*
X15900152Y-8890790D01*
X15900586Y-8890427D01*
X15912286Y-8878077D01*
X15912625Y-8877624D01*
X15921170Y-8862913D01*
X15921396Y-8862394D01*
X15924141Y-8853329D01*
X15924117Y-8853085D01*
X16111743Y-8853085D01*
X16111823Y-8853549D01*
X16111983Y-8854092D01*
X16118644Y-8869746D01*
X16118924Y-8870238D01*
X16129008Y-8883939D01*
X16129393Y-8884353D01*
X16142359Y-8895368D01*
X16142829Y-8895682D01*
X16157981Y-8903419D01*
X16158511Y-8903616D01*
X16175101Y-8907675D01*
X16175531Y-8907741D01*
X16176348Y-8907791D01*
X16176496Y-8907796D01*
X16193721Y-8907796D01*
X16194410Y-8907511D01*
X16194696Y-8906821D01*
X16194696Y-8894025D01*
X16234696Y-8894025D01*
X16234981Y-8894715D01*
X16235671Y-8895000D01*
X16305275Y-8895000D01*
X16305964Y-8894715D01*
X16306250Y-8894025D01*
X16306250Y-8853371D01*
X16305964Y-8852682D01*
X16305275Y-8852396D01*
X16235671Y-8852396D01*
X16234981Y-8852682D01*
X16234696Y-8853371D01*
X16234696Y-8894025D01*
X16194696Y-8894025D01*
X16194696Y-8853371D01*
X16194410Y-8852682D01*
X16193721Y-8852396D01*
X16112600Y-8852396D01*
X16111910Y-8852682D01*
X16111743Y-8853085D01*
X15924117Y-8853085D01*
X15924068Y-8852587D01*
X15923835Y-8852396D01*
X15817671Y-8852396D01*
X15816981Y-8852682D01*
X15816696Y-8853371D01*
X15816696Y-8907630D01*
X15815261Y-8911094D01*
X15814483Y-8911727D01*
X15802842Y-8919359D01*
X15791207Y-8931641D01*
X15782710Y-8946270D01*
X15782628Y-8946542D01*
X15782628Y-8946542D01*
X15777992Y-8961849D01*
X15777806Y-8962461D01*
X15776759Y-8979346D01*
X15779624Y-8996019D01*
X15786248Y-9011586D01*
X15796275Y-9025212D01*
X15796492Y-9025396D01*
X15796492Y-9025396D01*
X15799027Y-9027550D01*
X15809168Y-9036165D01*
X15809421Y-9036294D01*
X15809421Y-9036294D01*
X15811233Y-9037220D01*
X15824235Y-9043859D01*
X15824512Y-9043926D01*
X15824512Y-9043927D01*
X15825912Y-9044269D01*
X15828936Y-9046487D01*
X15829507Y-9050193D01*
X15829352Y-9050704D01*
X15828452Y-9053176D01*
X15826201Y-9070993D01*
X15827954Y-9088867D01*
X15829513Y-9093554D01*
X15829245Y-9097294D01*
X15826410Y-9099750D01*
X15824863Y-9100000D01*
X15460000Y-9100000D01*
X15460000Y-9170000D01*
X15458307Y-9185028D01*
X15458063Y-9186098D01*
X15453250Y-9199851D01*
X15452774Y-9200839D01*
X15451166Y-9203398D01*
X15445022Y-9213177D01*
X15444338Y-9214035D01*
X15434035Y-9224338D01*
X15433177Y-9225022D01*
X15431159Y-9226290D01*
X15420839Y-9232774D01*
X15419851Y-9233250D01*
X15406098Y-9238063D01*
X15405028Y-9238307D01*
X15390273Y-9239969D01*
X15389725Y-9240000D01*
X15340275Y-9240000D01*
X15339727Y-9239969D01*
X15322747Y-9238056D01*
X15321677Y-9237812D01*
X15305810Y-9232260D01*
X15304822Y-9231784D01*
X15301876Y-9229933D01*
X15290588Y-9222840D01*
X15289730Y-9222156D01*
X15277844Y-9210270D01*
X15277160Y-9209412D01*
X15268216Y-9195178D01*
X15267740Y-9194190D01*
X15262188Y-9178323D01*
X15261944Y-9177253D01*
X15260000Y-9160000D01*
X15260000Y-9080000D01*
X15174603Y-9080000D01*
X15172517Y-9079399D01*
X15170945Y-9077179D01*
X15165960Y-9062864D01*
X15165959Y-9062864D01*
X15165869Y-9062605D01*
X15165207Y-9061544D01*
X15156498Y-9047607D01*
X15156498Y-9047607D01*
X15156352Y-9047375D01*
X15156090Y-9047110D01*
X15146782Y-9037737D01*
X15143698Y-9034632D01*
X15132539Y-9027550D01*
X15128766Y-9025155D01*
X15128765Y-9025155D01*
X15128534Y-9025009D01*
X15128277Y-9024917D01*
X15128276Y-9024917D01*
X15111874Y-9019076D01*
X15111616Y-9018984D01*
X15111344Y-9018952D01*
X15111344Y-9018952D01*
X15104170Y-9018096D01*
X15100899Y-9016261D01*
X15099850Y-9013231D01*
X15099850Y-8964041D01*
X15099850Y-8963848D01*
X15098616Y-8956058D01*
X15098425Y-8954850D01*
X15098425Y-8954850D01*
X15098365Y-8954470D01*
X15092605Y-8943166D01*
X15083634Y-8934195D01*
X15083291Y-8934020D01*
X15083291Y-8934020D01*
X15077982Y-8931315D01*
X15072330Y-8928435D01*
X15071950Y-8928375D01*
X15071950Y-8928375D01*
X15069032Y-8927913D01*
X15062952Y-8926950D01*
X15062759Y-8926950D01*
X14934300Y-8926950D01*
X14805648Y-8926950D01*
X14800930Y-8927697D01*
X14796650Y-8928375D01*
X14796650Y-8928375D01*
X14796270Y-8928435D01*
X14790618Y-8931315D01*
X14785309Y-8934020D01*
X14785309Y-8934020D01*
X14784966Y-8934195D01*
X14775995Y-8943166D01*
X14770235Y-8954470D01*
X14770175Y-8954850D01*
X14770175Y-8954850D01*
X14769941Y-8956330D01*
X14768750Y-8963848D01*
X14768750Y-9070152D01*
X14769497Y-9074870D01*
X14769863Y-9077179D01*
X14770235Y-9079530D01*
X14770410Y-9079874D01*
X14774992Y-9088867D01*
X14775995Y-9090834D01*
X14784966Y-9099805D01*
X14785309Y-9099980D01*
X14785309Y-9099980D01*
X14785348Y-9100000D01*
X14796270Y-9105565D01*
X14796650Y-9105625D01*
X14796650Y-9105625D01*
X14798435Y-9105908D01*
X14805648Y-9107050D01*
X14818150Y-9107050D01*
X14948003Y-9107050D01*
X14951468Y-9108485D01*
X14976645Y-9133662D01*
X14976787Y-9133810D01*
X14980901Y-9138283D01*
X14981184Y-9138459D01*
X14984716Y-9140649D01*
X14985097Y-9140911D01*
X14988406Y-9143423D01*
X14988407Y-9143423D01*
X14988673Y-9143625D01*
X14990599Y-9144388D01*
X14991376Y-9144779D01*
X14992854Y-9145695D01*
X14992854Y-9145695D01*
X14993137Y-9145870D01*
X14997449Y-9147123D01*
X14997885Y-9147272D01*
X15002059Y-9148925D01*
X15004120Y-9149142D01*
X15004974Y-9149309D01*
X15006963Y-9149887D01*
X15007220Y-9149906D01*
X15007220Y-9149906D01*
X15007628Y-9149936D01*
X15007983Y-9149962D01*
X15011669Y-9149962D01*
X15012182Y-9149989D01*
X15016046Y-9150395D01*
X15016378Y-9150430D01*
X15018739Y-9150031D01*
X15019556Y-9149962D01*
X15030599Y-9149962D01*
X15034124Y-9151458D01*
X15041872Y-9159482D01*
X15056900Y-9169316D01*
X15073732Y-9175576D01*
X15074003Y-9175612D01*
X15074004Y-9175612D01*
X15079335Y-9176323D01*
X15091534Y-9177951D01*
X15091806Y-9177926D01*
X15091807Y-9177926D01*
X15094656Y-9177667D01*
X15098237Y-9178782D01*
X15099980Y-9182103D01*
X15100000Y-9182547D01*
X15100000Y-9199759D01*
X15099976Y-9200240D01*
X15098126Y-9219029D01*
X15097938Y-9219971D01*
X15092528Y-9237807D01*
X15092160Y-9238694D01*
X15083375Y-9255131D01*
X15082841Y-9255930D01*
X15071017Y-9270338D01*
X15070338Y-9271017D01*
X15055930Y-9282841D01*
X15055131Y-9283375D01*
X15038694Y-9292160D01*
X15037807Y-9292528D01*
X15019971Y-9297938D01*
X15019029Y-9298126D01*
X15000240Y-9299976D01*
X14999759Y-9300000D01*
X14800000Y-9300000D01*
X14777975Y-9311720D01*
X14777975Y-9311720D01*
X14713289Y-9346140D01*
X14712746Y-9346387D01*
X14696973Y-9352446D01*
X14690820Y-9354810D01*
X14689660Y-9355099D01*
X14666348Y-9357963D01*
X14665751Y-9358000D01*
X14551000Y-9358000D01*
X14551000Y-9530000D01*
X14325639Y-9530000D01*
X14324834Y-9529195D01*
X14324491Y-9529020D01*
X14324491Y-9529020D01*
X14316507Y-9524952D01*
X14313530Y-9523435D01*
X14313150Y-9523375D01*
X14313150Y-9523375D01*
X14310232Y-9522913D01*
X14304152Y-9521950D01*
X14299912Y-9521950D01*
X14242775Y-9521950D01*
X14239311Y-9520515D01*
X14238620Y-9519647D01*
X14234277Y-9512696D01*
X14234277Y-9512696D01*
X14234132Y-9512464D01*
X14231999Y-9510316D01*
X14225538Y-9503810D01*
X14221477Y-9499720D01*
X14212966Y-9494319D01*
X14206545Y-9490244D01*
X14206545Y-9490244D01*
X14206314Y-9490097D01*
X14206056Y-9490006D01*
X14206056Y-9490006D01*
X14189653Y-9484165D01*
X14189395Y-9484073D01*
X14189123Y-9484041D01*
X14189123Y-9484041D01*
X14178909Y-9482823D01*
X14171562Y-9481947D01*
X14171290Y-9481975D01*
X14171290Y-9481975D01*
X14160735Y-9483085D01*
X14158078Y-9482578D01*
X14158026Y-9482541D01*
X14156935Y-9482148D01*
X14156012Y-9481702D01*
X14155310Y-9481267D01*
X14155309Y-9481266D01*
X14155026Y-9481091D01*
X14154706Y-9480998D01*
X14154705Y-9480998D01*
X14149847Y-9479586D01*
X14149555Y-9479491D01*
X14146283Y-9478313D01*
X14144794Y-9477777D01*
X14144794Y-9477777D01*
X14144480Y-9477664D01*
X14144147Y-9477640D01*
X14144146Y-9477639D01*
X14143322Y-9477579D01*
X14142314Y-9477398D01*
X14141447Y-9477146D01*
X14141447Y-9477146D01*
X14141200Y-9477074D01*
X14140944Y-9477055D01*
X14140943Y-9477055D01*
X14140535Y-9477025D01*
X14140180Y-9476999D01*
X14135602Y-9476999D01*
X14135244Y-9476986D01*
X14130120Y-9476610D01*
X14129793Y-9476676D01*
X14129793Y-9476676D01*
X14128669Y-9476902D01*
X14127700Y-9476999D01*
X14097639Y-9476999D01*
X14094174Y-9475564D01*
X14073453Y-9454843D01*
X14073311Y-9454695D01*
X14070949Y-9452126D01*
X14069198Y-9450222D01*
X14068914Y-9450046D01*
X14068914Y-9450045D01*
X14065382Y-9447856D01*
X14065002Y-9447594D01*
X14061692Y-9445082D01*
X14061692Y-9445082D01*
X14061426Y-9444880D01*
X14059500Y-9444117D01*
X14058721Y-9443726D01*
X14057246Y-9442811D01*
X14057245Y-9442811D01*
X14056961Y-9442635D01*
X14055676Y-9442261D01*
X14053858Y-9441733D01*
X14052649Y-9441382D01*
X14052213Y-9441233D01*
X14050626Y-9440604D01*
X14048350Y-9439703D01*
X14048350Y-9439703D01*
X14048039Y-9439580D01*
X14045979Y-9439363D01*
X14045124Y-9439196D01*
X14043135Y-9438618D01*
X14042879Y-9438599D01*
X14042878Y-9438599D01*
X14042470Y-9438569D01*
X14042115Y-9438543D01*
X14038429Y-9438543D01*
X14037917Y-9438516D01*
X14034052Y-9438110D01*
X14033720Y-9438075D01*
X14033391Y-9438131D01*
X14031359Y-9438474D01*
X14030542Y-9438543D01*
X13976649Y-9438543D01*
X13976444Y-9438539D01*
X13970374Y-9438284D01*
X13970049Y-9438360D01*
X13970049Y-9438360D01*
X13968951Y-9438618D01*
X13966002Y-9439309D01*
X13965550Y-9439393D01*
X13964442Y-9439545D01*
X13961432Y-9439957D01*
X13961432Y-9439957D01*
X13961101Y-9440003D01*
X13960794Y-9440135D01*
X13960794Y-9440135D01*
X13959200Y-9440825D01*
X13958373Y-9441099D01*
X13956682Y-9441495D01*
X13956681Y-9441496D01*
X13956356Y-9441572D01*
X13956063Y-9441733D01*
X13956063Y-9441733D01*
X13952422Y-9443735D01*
X13952007Y-9443938D01*
X13948194Y-9445588D01*
X13948193Y-9445588D01*
X13947887Y-9445721D01*
X13946277Y-9447025D01*
X13945555Y-9447510D01*
X13943739Y-9448508D01*
X13942965Y-9449176D01*
X13940359Y-9451783D01*
X13939978Y-9452126D01*
X13936698Y-9454782D01*
X13936505Y-9455054D01*
X13935311Y-9456733D01*
X13934782Y-9457360D01*
X13899403Y-9492739D01*
X13865127Y-9527015D01*
X13861662Y-9528450D01*
X13559597Y-9528450D01*
X13556132Y-9527015D01*
X13434236Y-9405119D01*
X13432801Y-9401655D01*
X13432801Y-9359538D01*
X13432805Y-9359333D01*
X13433060Y-9353263D01*
X13432034Y-9348892D01*
X13431950Y-9348439D01*
X13431387Y-9344322D01*
X13431386Y-9344321D01*
X13431341Y-9343991D01*
X13430519Y-9342090D01*
X13430245Y-9341263D01*
X13429848Y-9339571D01*
X13429848Y-9339571D01*
X13429772Y-9339246D01*
X13427609Y-9335311D01*
X13427406Y-9334896D01*
X13426810Y-9333520D01*
X13425623Y-9330777D01*
X13424320Y-9329167D01*
X13423834Y-9328444D01*
X13422960Y-9326855D01*
X13422960Y-9326855D01*
X13422836Y-9326629D01*
X13422168Y-9325855D01*
X13419561Y-9323248D01*
X13419218Y-9322867D01*
X13417706Y-9321000D01*
X13416562Y-9319588D01*
X13414610Y-9318201D01*
X13413984Y-9317671D01*
X13369765Y-9273452D01*
X13368330Y-9269987D01*
X13368377Y-9269305D01*
X13368503Y-9268407D01*
X13368525Y-9268253D01*
X13368556Y-9266004D01*
X13366796Y-9250312D01*
X13366585Y-9248429D01*
X13366585Y-9248429D01*
X13366555Y-9248157D01*
X13363124Y-9238307D01*
X13360739Y-9231456D01*
X13360738Y-9231455D01*
X13360648Y-9231197D01*
X13359626Y-9229561D01*
X13351277Y-9216199D01*
X13351277Y-9216199D01*
X13351132Y-9215967D01*
X13350774Y-9215606D01*
X13338670Y-9203418D01*
X13338477Y-9203223D01*
X13329730Y-9197673D01*
X13327574Y-9194604D01*
X13328219Y-9190910D01*
X13329847Y-9189327D01*
X13338269Y-9184306D01*
X13338269Y-9184306D01*
X13338504Y-9184166D01*
X13351510Y-9171781D01*
X13351661Y-9171553D01*
X13351662Y-9171552D01*
X13361296Y-9157051D01*
X13361297Y-9157051D01*
X13361448Y-9156822D01*
X13363750Y-9150763D01*
X13367728Y-9140290D01*
X13367728Y-9140290D01*
X13367826Y-9140034D01*
X13370325Y-9122249D01*
X13370356Y-9120000D01*
X13368355Y-9102153D01*
X13364648Y-9091509D01*
X13362539Y-9085452D01*
X13362538Y-9085451D01*
X13362448Y-9085193D01*
X13359204Y-9080000D01*
X13353077Y-9070195D01*
X13353077Y-9070195D01*
X13352932Y-9069963D01*
X13347383Y-9064375D01*
X13345882Y-9062864D01*
X13340277Y-9057219D01*
X13333905Y-9053176D01*
X13325345Y-9047743D01*
X13325345Y-9047743D01*
X13325114Y-9047596D01*
X13324856Y-9047505D01*
X13324856Y-9047504D01*
X13308453Y-9041664D01*
X13308195Y-9041572D01*
X13307923Y-9041540D01*
X13307923Y-9041539D01*
X13299227Y-9040503D01*
X13290362Y-9039446D01*
X13290090Y-9039474D01*
X13290090Y-9039474D01*
X13279583Y-9040579D01*
X13272502Y-9041323D01*
X13255501Y-9047110D01*
X13255267Y-9047254D01*
X13255267Y-9047254D01*
X13245007Y-9053566D01*
X13241304Y-9054159D01*
X13238974Y-9052858D01*
X13037367Y-8851250D01*
X13037225Y-8851102D01*
X13034863Y-8848533D01*
X13033111Y-8846629D01*
X13032828Y-8846453D01*
X13032827Y-8846452D01*
X13029296Y-8844263D01*
X13028916Y-8844001D01*
X13025606Y-8841489D01*
X13025605Y-8841489D01*
X13025339Y-8841287D01*
X13023413Y-8840524D01*
X13022635Y-8840133D01*
X13021159Y-8839218D01*
X13021159Y-8839218D01*
X13020875Y-8839042D01*
X13016563Y-8837789D01*
X13016127Y-8837640D01*
X13014781Y-8837107D01*
X13012263Y-8836110D01*
X13012263Y-8836110D01*
X13011953Y-8835987D01*
X13009892Y-8835770D01*
X13009038Y-8835603D01*
X13007049Y-8835025D01*
X13006792Y-8835006D01*
X13006792Y-8835006D01*
X13006383Y-8834976D01*
X13006029Y-8834950D01*
X13002342Y-8834950D01*
X13001830Y-8834923D01*
X12997966Y-8834517D01*
X12997634Y-8834482D01*
X12997304Y-8834538D01*
X12995273Y-8834881D01*
X12994456Y-8834950D01*
X12907207Y-8834950D01*
X12907002Y-8834946D01*
X12900932Y-8834691D01*
X12900607Y-8834767D01*
X12900607Y-8834767D01*
X12899509Y-8835025D01*
X12896560Y-8835716D01*
X12896108Y-8835800D01*
X12895000Y-8835952D01*
X12891990Y-8836364D01*
X12891990Y-8836364D01*
X12891659Y-8836410D01*
X12891352Y-8836542D01*
X12891352Y-8836542D01*
X12889758Y-8837232D01*
X12888931Y-8837506D01*
X12887240Y-8837902D01*
X12887239Y-8837903D01*
X12886914Y-8837979D01*
X12886621Y-8838140D01*
X12886621Y-8838140D01*
X12882980Y-8840142D01*
X12882565Y-8840345D01*
X12878752Y-8841995D01*
X12878751Y-8841995D01*
X12878445Y-8842128D01*
X12876835Y-8843432D01*
X12876113Y-8843917D01*
X12874297Y-8844915D01*
X12873523Y-8845583D01*
X12870917Y-8848190D01*
X12870535Y-8848533D01*
X12867256Y-8851189D01*
X12865955Y-8853020D01*
X12865869Y-8853140D01*
X12865340Y-8853767D01*
X12864441Y-8854666D01*
X12860976Y-8856101D01*
X12860396Y-8856066D01*
X12857688Y-8855744D01*
X12857416Y-8855772D01*
X12857415Y-8855772D01*
X12846908Y-8856877D01*
X12839827Y-8857621D01*
X12822826Y-8863408D01*
X12822593Y-8863552D01*
X12822593Y-8863552D01*
X12807763Y-8872675D01*
X12807763Y-8872675D01*
X12807530Y-8872819D01*
X12807334Y-8873010D01*
X12807334Y-8873010D01*
X12794894Y-8885192D01*
X12794894Y-8885192D01*
X12794699Y-8885384D01*
X12794550Y-8885614D01*
X12794550Y-8885614D01*
X12791448Y-8890427D01*
X12784970Y-8900480D01*
X12778828Y-8917356D01*
X12778793Y-8917628D01*
X12778725Y-8918164D01*
X12776867Y-8921422D01*
X12773864Y-8922450D01*
X12446476Y-8922450D01*
X12442999Y-8921003D01*
X12436851Y-8914811D01*
X12434277Y-8912219D01*
X12425227Y-8906476D01*
X12419345Y-8902743D01*
X12419345Y-8902743D01*
X12419114Y-8902596D01*
X12418856Y-8902505D01*
X12418856Y-8902504D01*
X12402453Y-8896664D01*
X12402195Y-8896572D01*
X12401923Y-8896540D01*
X12401923Y-8896539D01*
X12392101Y-8895368D01*
X12384362Y-8894446D01*
X12384090Y-8894474D01*
X12384090Y-8894474D01*
X12373583Y-8895579D01*
X12366502Y-8896323D01*
X12349501Y-8902110D01*
X12348197Y-8902912D01*
X12334438Y-8911377D01*
X12334437Y-8911377D01*
X12334204Y-8911521D01*
X12334009Y-8911712D01*
X12334009Y-8911712D01*
X12321569Y-8923894D01*
X12321569Y-8923894D01*
X12321373Y-8924086D01*
X12321225Y-8924316D01*
X12321225Y-8924316D01*
X12316637Y-8931434D01*
X12311645Y-8939182D01*
X12308966Y-8946542D01*
X12306080Y-8954470D01*
X12305502Y-8956058D01*
X12303251Y-8973875D01*
X12305004Y-8991749D01*
X12310673Y-9008790D01*
X12310814Y-9009024D01*
X12310815Y-9009024D01*
X12318722Y-9022081D01*
X12319976Y-9024151D01*
X12320166Y-9024348D01*
X12320166Y-9024348D01*
X12321000Y-9025212D01*
X12332451Y-9037070D01*
X12347479Y-9046904D01*
X12364312Y-9053164D01*
X12364582Y-9053200D01*
X12364583Y-9053200D01*
X12371540Y-9054128D01*
X12382113Y-9055539D01*
X12382386Y-9055514D01*
X12382386Y-9055514D01*
X12399725Y-9053936D01*
X12399725Y-9053936D01*
X12399998Y-9053911D01*
X12417078Y-9048362D01*
X12417313Y-9048221D01*
X12417314Y-9048221D01*
X12432269Y-9039306D01*
X12432269Y-9039306D01*
X12432504Y-9039166D01*
X12434005Y-9037737D01*
X12443283Y-9028902D01*
X12446662Y-9027550D01*
X12808803Y-9027550D01*
X12812268Y-9028985D01*
X12813703Y-9032450D01*
X12812268Y-9035915D01*
X12636568Y-9211615D01*
X12633103Y-9213050D01*
X12543483Y-9213050D01*
X12543278Y-9213046D01*
X12537208Y-9212791D01*
X12536883Y-9212867D01*
X12536883Y-9212867D01*
X12536105Y-9213050D01*
X12532837Y-9213817D01*
X12532384Y-9213900D01*
X12530843Y-9214112D01*
X12528267Y-9214464D01*
X12528266Y-9214465D01*
X12527935Y-9214510D01*
X12527629Y-9214643D01*
X12527629Y-9214643D01*
X12526035Y-9215332D01*
X12525207Y-9215606D01*
X12523516Y-9216003D01*
X12523516Y-9216003D01*
X12523191Y-9216079D01*
X12522898Y-9216240D01*
X12522897Y-9216240D01*
X12519256Y-9218242D01*
X12518842Y-9218445D01*
X12515028Y-9220095D01*
X12515028Y-9220096D01*
X12514722Y-9220228D01*
X12513112Y-9221532D01*
X12512390Y-9222017D01*
X12510574Y-9223015D01*
X12509800Y-9223683D01*
X12507193Y-9226290D01*
X12506812Y-9226633D01*
X12503533Y-9229289D01*
X12502146Y-9231240D01*
X12501616Y-9231867D01*
X12494115Y-9239368D01*
X12490650Y-9240803D01*
X12490070Y-9240768D01*
X12487362Y-9240446D01*
X12487090Y-9240474D01*
X12487090Y-9240474D01*
X12478589Y-9241368D01*
X12469502Y-9242323D01*
X12452501Y-9248110D01*
X12452267Y-9248254D01*
X12452267Y-9248254D01*
X12437438Y-9257377D01*
X12437437Y-9257377D01*
X12437204Y-9257521D01*
X12437009Y-9257712D01*
X12437009Y-9257712D01*
X12424569Y-9269894D01*
X12424569Y-9269894D01*
X12424373Y-9270086D01*
X12424225Y-9270316D01*
X12424225Y-9270316D01*
X12420813Y-9275610D01*
X12414645Y-9285182D01*
X12413494Y-9288342D01*
X12408655Y-9301639D01*
X12408502Y-9302058D01*
X12406251Y-9319875D01*
X12406278Y-9320148D01*
X12406278Y-9320148D01*
X12407320Y-9330777D01*
X12408004Y-9337749D01*
X12413673Y-9354790D01*
X12413814Y-9355024D01*
X12413815Y-9355024D01*
X12418601Y-9362928D01*
X12422976Y-9370151D01*
X12435451Y-9383070D01*
X12450479Y-9392904D01*
X12467312Y-9399164D01*
X12467582Y-9399200D01*
X12467583Y-9399200D01*
X12474540Y-9400128D01*
X12485113Y-9401539D01*
X12485386Y-9401514D01*
X12485386Y-9401514D01*
X12502725Y-9399936D01*
X12502725Y-9399936D01*
X12502998Y-9399911D01*
X12520078Y-9394362D01*
X12520313Y-9394221D01*
X12520314Y-9394221D01*
X12535269Y-9385306D01*
X12535269Y-9385306D01*
X12535504Y-9385166D01*
X12548510Y-9372781D01*
X12548661Y-9372553D01*
X12548662Y-9372552D01*
X12558296Y-9358051D01*
X12558297Y-9358051D01*
X12558448Y-9357822D01*
X12561122Y-9350785D01*
X12564728Y-9341290D01*
X12564728Y-9341290D01*
X12564826Y-9341034D01*
X12567325Y-9323249D01*
X12567329Y-9322982D01*
X12567337Y-9322962D01*
X12567339Y-9322942D01*
X12567346Y-9322942D01*
X12568812Y-9319538D01*
X12572228Y-9318150D01*
X12655616Y-9318150D01*
X12655821Y-9318154D01*
X12661891Y-9318409D01*
X12662216Y-9318332D01*
X12662216Y-9318332D01*
X12663794Y-9317962D01*
X12666263Y-9317383D01*
X12666715Y-9317299D01*
X12668257Y-9317088D01*
X12670833Y-9316735D01*
X12670833Y-9316735D01*
X12671164Y-9316690D01*
X12673065Y-9315867D01*
X12673892Y-9315594D01*
X12675583Y-9315197D01*
X12675584Y-9315197D01*
X12675909Y-9315121D01*
X12676202Y-9314960D01*
X12676202Y-9314960D01*
X12679843Y-9312958D01*
X12680258Y-9312755D01*
X12684071Y-9311105D01*
X12684072Y-9311104D01*
X12684378Y-9310972D01*
X12685988Y-9309668D01*
X12686710Y-9309183D01*
X12688526Y-9308185D01*
X12689300Y-9307516D01*
X12691906Y-9304910D01*
X12692287Y-9304567D01*
X12695307Y-9302121D01*
X12695567Y-9301911D01*
X12696905Y-9300028D01*
X12696954Y-9299959D01*
X12697484Y-9299333D01*
X12955099Y-9041717D01*
X12958564Y-9040282D01*
X12959211Y-9040325D01*
X12960812Y-9040539D01*
X12961085Y-9040514D01*
X12961085Y-9040514D01*
X12964113Y-9040238D01*
X12965776Y-9040087D01*
X12969356Y-9041202D01*
X12969685Y-9041502D01*
X13207775Y-9279593D01*
X13209023Y-9282233D01*
X13209120Y-9282212D01*
X13209177Y-9282480D01*
X13209204Y-9282753D01*
X13214873Y-9299794D01*
X13215014Y-9300028D01*
X13215015Y-9300028D01*
X13220559Y-9309182D01*
X13224176Y-9315155D01*
X13224366Y-9315352D01*
X13224366Y-9315352D01*
X13228456Y-9319588D01*
X13236651Y-9328074D01*
X13251679Y-9337908D01*
X13268512Y-9344168D01*
X13268782Y-9344204D01*
X13268783Y-9344204D01*
X13272610Y-9344715D01*
X13286313Y-9346543D01*
X13286586Y-9346518D01*
X13286586Y-9346518D01*
X13288496Y-9346344D01*
X13291276Y-9346091D01*
X13294857Y-9347206D01*
X13295185Y-9347506D01*
X13301788Y-9354109D01*
X13303223Y-9357574D01*
X13301788Y-9361038D01*
X13298835Y-9362447D01*
X13295785Y-9362767D01*
X13290502Y-9363323D01*
X13273501Y-9369110D01*
X13271540Y-9370316D01*
X13258438Y-9378377D01*
X13258437Y-9378377D01*
X13258204Y-9378521D01*
X13258009Y-9378712D01*
X13258009Y-9378712D01*
X13245569Y-9390894D01*
X13245569Y-9390894D01*
X13245373Y-9391086D01*
X13245225Y-9391316D01*
X13245225Y-9391316D01*
X13240229Y-9399068D01*
X13235645Y-9406182D01*
X13229502Y-9423058D01*
X13227251Y-9440875D01*
X13227278Y-9441148D01*
X13227278Y-9441148D01*
X13227441Y-9442811D01*
X13229004Y-9458749D01*
X13234673Y-9475790D01*
X13234814Y-9476024D01*
X13234815Y-9476024D01*
X13239789Y-9484238D01*
X13243976Y-9491151D01*
X13244166Y-9491348D01*
X13244166Y-9491349D01*
X13253875Y-9501402D01*
X13255250Y-9504806D01*
X13255250Y-9549167D01*
X13255246Y-9549372D01*
X13254991Y-9555442D01*
X13256017Y-9559814D01*
X13256100Y-9560266D01*
X13256710Y-9564715D01*
X13256842Y-9565021D01*
X13256843Y-9565022D01*
X13257347Y-9566187D01*
X13257750Y-9568133D01*
X13257750Y-9582239D01*
X13256315Y-9585704D01*
X13188274Y-9653744D01*
X13184809Y-9655180D01*
X13184230Y-9655145D01*
X13178362Y-9654446D01*
X13178090Y-9654474D01*
X13178090Y-9654474D01*
X13167964Y-9655538D01*
X13161262Y-9656243D01*
X13157666Y-9655178D01*
X13155877Y-9651882D01*
X13155850Y-9651370D01*
X13155850Y-9629848D01*
X13154877Y-9623708D01*
X13154425Y-9620850D01*
X13154425Y-9620850D01*
X13154365Y-9620470D01*
X13150403Y-9612695D01*
X13148780Y-9609509D01*
X13148780Y-9609509D01*
X13148605Y-9609166D01*
X13139634Y-9600195D01*
X13139291Y-9600020D01*
X13139291Y-9600020D01*
X13133660Y-9597151D01*
X13128330Y-9594435D01*
X13127950Y-9594375D01*
X13127950Y-9594375D01*
X13125032Y-9593913D01*
X13118952Y-9592950D01*
X13118759Y-9592950D01*
X12990300Y-9592950D01*
X12861648Y-9592950D01*
X12856930Y-9593697D01*
X12852650Y-9594375D01*
X12852650Y-9594375D01*
X12852270Y-9594435D01*
X12846940Y-9597151D01*
X12841309Y-9600020D01*
X12841309Y-9600020D01*
X12840966Y-9600195D01*
X12831995Y-9609166D01*
X12831820Y-9609509D01*
X12831820Y-9609509D01*
X12830197Y-9612695D01*
X12826235Y-9620470D01*
X12826175Y-9620850D01*
X12826175Y-9620850D01*
X12825985Y-9622047D01*
X12824750Y-9629848D01*
X12824750Y-9670949D01*
X12824750Y-9707197D01*
X12823315Y-9710662D01*
X12819850Y-9712097D01*
X12531783Y-9712097D01*
X12528318Y-9710662D01*
X11928785Y-9111129D01*
X11927350Y-9107664D01*
X11927350Y-8809604D01*
X11928871Y-8806055D01*
X11936510Y-8798781D01*
X11936661Y-8798553D01*
X11936662Y-8798552D01*
X11946296Y-8784051D01*
X11946297Y-8784051D01*
X11946448Y-8783822D01*
X11947018Y-8782323D01*
X11952728Y-8767290D01*
X11952728Y-8767290D01*
X11952826Y-8767034D01*
X11955325Y-8749249D01*
X11955356Y-8747000D01*
X11953355Y-8729153D01*
X11952023Y-8725330D01*
X11947539Y-8712452D01*
X11947538Y-8712451D01*
X11947448Y-8712193D01*
X11945983Y-8709848D01*
X15099750Y-8709848D01*
X15099750Y-8816152D01*
X15101235Y-8825530D01*
X15103789Y-8830542D01*
X15106756Y-8836364D01*
X15106995Y-8836834D01*
X15115966Y-8845805D01*
X15116462Y-8846058D01*
X15116536Y-8846145D01*
X15116621Y-8846207D01*
X15116606Y-8846227D01*
X15118897Y-8848909D01*
X15118603Y-8852648D01*
X15118356Y-8853078D01*
X15117912Y-8853767D01*
X15117645Y-8854182D01*
X15114467Y-8862913D01*
X15111801Y-8870238D01*
X15111502Y-8871058D01*
X15109251Y-8888875D01*
X15109278Y-8889148D01*
X15109278Y-8889148D01*
X15110597Y-8902596D01*
X15111004Y-8906749D01*
X15116673Y-8923790D01*
X15116814Y-8924024D01*
X15116815Y-8924024D01*
X15124052Y-8935975D01*
X15125976Y-8939151D01*
X15126166Y-8939348D01*
X15126166Y-8939348D01*
X15130184Y-8943509D01*
X15138451Y-8952070D01*
X15153479Y-8961904D01*
X15170312Y-8968164D01*
X15170582Y-8968200D01*
X15170583Y-8968200D01*
X15177540Y-8969128D01*
X15188113Y-8970539D01*
X15188386Y-8970514D01*
X15188386Y-8970514D01*
X15205725Y-8968936D01*
X15205725Y-8968936D01*
X15205998Y-8968911D01*
X15223078Y-8963362D01*
X15223313Y-8963221D01*
X15223314Y-8963221D01*
X15238269Y-8954306D01*
X15238269Y-8954306D01*
X15238504Y-8954166D01*
X15251510Y-8941781D01*
X15251661Y-8941553D01*
X15251662Y-8941552D01*
X15261296Y-8927051D01*
X15261297Y-8927051D01*
X15261448Y-8926822D01*
X15261990Y-8925396D01*
X15267728Y-8910290D01*
X15267728Y-8910290D01*
X15267826Y-8910034D01*
X15270325Y-8892249D01*
X15270356Y-8890000D01*
X15270261Y-8889148D01*
X15269990Y-8886733D01*
X15271030Y-8883130D01*
X15271395Y-8882722D01*
X15299632Y-8854485D01*
X15303012Y-8853085D01*
X15668743Y-8853085D01*
X15668823Y-8853549D01*
X15668983Y-8854092D01*
X15675644Y-8869746D01*
X15675924Y-8870238D01*
X15686008Y-8883939D01*
X15686393Y-8884353D01*
X15699359Y-8895368D01*
X15699829Y-8895682D01*
X15714981Y-8903419D01*
X15715511Y-8903616D01*
X15732101Y-8907675D01*
X15732531Y-8907741D01*
X15733348Y-8907791D01*
X15733496Y-8907796D01*
X15775721Y-8907796D01*
X15776410Y-8907511D01*
X15776696Y-8906821D01*
X15776696Y-8853371D01*
X15776410Y-8852682D01*
X15775721Y-8852396D01*
X15669600Y-8852396D01*
X15668910Y-8852682D01*
X15668743Y-8853085D01*
X15303012Y-8853085D01*
X15303097Y-8853050D01*
X15393952Y-8853050D01*
X15398670Y-8852303D01*
X15402950Y-8851625D01*
X15402950Y-8851625D01*
X15403330Y-8851565D01*
X15413018Y-8846629D01*
X15414291Y-8845980D01*
X15414291Y-8845980D01*
X15414634Y-8845805D01*
X15423605Y-8836834D01*
X15423844Y-8836364D01*
X15426811Y-8830542D01*
X15429365Y-8825530D01*
X15429798Y-8822794D01*
X15430176Y-8820405D01*
X15430850Y-8816152D01*
X15430850Y-8811463D01*
X15669251Y-8811463D01*
X15669324Y-8812206D01*
X15669557Y-8812396D01*
X15775721Y-8812396D01*
X15776410Y-8812111D01*
X15776696Y-8811421D01*
X15816696Y-8811421D01*
X15816981Y-8812111D01*
X15817671Y-8812396D01*
X15923792Y-8812396D01*
X15924481Y-8812111D01*
X15924649Y-8811707D01*
X15924607Y-8811463D01*
X16112251Y-8811463D01*
X16112324Y-8812206D01*
X16112557Y-8812396D01*
X16193721Y-8812396D01*
X16194410Y-8812111D01*
X16194696Y-8811421D01*
X16234696Y-8811421D01*
X16234981Y-8812111D01*
X16235671Y-8812396D01*
X16316792Y-8812396D01*
X16317481Y-8812111D01*
X16317649Y-8811707D01*
X16317569Y-8811244D01*
X16317409Y-8810700D01*
X16310748Y-8795046D01*
X16310468Y-8794555D01*
X16300384Y-8780853D01*
X16299998Y-8780439D01*
X16287033Y-8769424D01*
X16286563Y-8769110D01*
X16271411Y-8761373D01*
X16270881Y-8761176D01*
X16254291Y-8757117D01*
X16253861Y-8757051D01*
X16253044Y-8757001D01*
X16252896Y-8756996D01*
X16235671Y-8756996D01*
X16234981Y-8757282D01*
X16234696Y-8757971D01*
X16234696Y-8811421D01*
X16194696Y-8811421D01*
X16194696Y-8757971D01*
X16194410Y-8757282D01*
X16193721Y-8756996D01*
X16180435Y-8756996D01*
X16180152Y-8757013D01*
X16167515Y-8758486D01*
X16166964Y-8758616D01*
X16150972Y-8764421D01*
X16150467Y-8764674D01*
X16136240Y-8774002D01*
X16135806Y-8774365D01*
X16124106Y-8786715D01*
X16123767Y-8787168D01*
X16115222Y-8801879D01*
X16114996Y-8802399D01*
X16112251Y-8811463D01*
X15924607Y-8811463D01*
X15924569Y-8811244D01*
X15924409Y-8810700D01*
X15917748Y-8795046D01*
X15917468Y-8794555D01*
X15907384Y-8780853D01*
X15906998Y-8780439D01*
X15894033Y-8769424D01*
X15893563Y-8769110D01*
X15878411Y-8761373D01*
X15877881Y-8761176D01*
X15861291Y-8757117D01*
X15860861Y-8757051D01*
X15860044Y-8757001D01*
X15859896Y-8756996D01*
X15817671Y-8756996D01*
X15816981Y-8757282D01*
X15816696Y-8757971D01*
X15816696Y-8811421D01*
X15776696Y-8811421D01*
X15776696Y-8757971D01*
X15776410Y-8757282D01*
X15775721Y-8756996D01*
X15737435Y-8756996D01*
X15737152Y-8757013D01*
X15724515Y-8758486D01*
X15723964Y-8758616D01*
X15707972Y-8764421D01*
X15707467Y-8764674D01*
X15693240Y-8774002D01*
X15692806Y-8774365D01*
X15681106Y-8786715D01*
X15680767Y-8787168D01*
X15672222Y-8801879D01*
X15671996Y-8802399D01*
X15669251Y-8811463D01*
X15430850Y-8811463D01*
X15430850Y-8709848D01*
X15429365Y-8700470D01*
X15423605Y-8689166D01*
X15414634Y-8680195D01*
X15414291Y-8680020D01*
X15414291Y-8680020D01*
X15408982Y-8677315D01*
X15403330Y-8674435D01*
X15402950Y-8674375D01*
X15402950Y-8674375D01*
X15400032Y-8673913D01*
X15393952Y-8672950D01*
X15393759Y-8672950D01*
X15265300Y-8672950D01*
X15136648Y-8672950D01*
X15131930Y-8673697D01*
X15127650Y-8674375D01*
X15127650Y-8674375D01*
X15127270Y-8674435D01*
X15121618Y-8677315D01*
X15116309Y-8680020D01*
X15116309Y-8680020D01*
X15115966Y-8680195D01*
X15106995Y-8689166D01*
X15101235Y-8700470D01*
X15099750Y-8709848D01*
X11945983Y-8709848D01*
X11937932Y-8696963D01*
X11925277Y-8684219D01*
X11910114Y-8674596D01*
X11909856Y-8674505D01*
X11909856Y-8674504D01*
X11900273Y-8671092D01*
X11897490Y-8668578D01*
X11897300Y-8664832D01*
X11897676Y-8664021D01*
X11902208Y-8656195D01*
X11916065Y-8632264D01*
X11916210Y-8632029D01*
X11918592Y-8628405D01*
X11932948Y-8606560D01*
X11936050Y-8604453D01*
X11937038Y-8604351D01*
X13099407Y-8603307D01*
X13102873Y-8604739D01*
X13104251Y-8607441D01*
X13104300Y-8607748D01*
X13105783Y-8617115D01*
X13111536Y-8628405D01*
X13120495Y-8637364D01*
X13120839Y-8637539D01*
X13120839Y-8637539D01*
X13126140Y-8640240D01*
X13131785Y-8643117D01*
X13132166Y-8643177D01*
X13132166Y-8643177D01*
X13143919Y-8645038D01*
X13144300Y-8645099D01*
X13144681Y-8645038D01*
X13147067Y-8644660D01*
X13147834Y-8644600D01*
X14918766Y-8644600D01*
X14919533Y-8644660D01*
X14922300Y-8645099D01*
X14922681Y-8645038D01*
X14925448Y-8644600D01*
X14934434Y-8643177D01*
X14934434Y-8643177D01*
X14934815Y-8643117D01*
X14940460Y-8640240D01*
X14945761Y-8637539D01*
X14945761Y-8637539D01*
X14946104Y-8637364D01*
X14955064Y-8628405D01*
X14960816Y-8617115D01*
X14962300Y-8607748D01*
X14962615Y-8605762D01*
X14964574Y-8602564D01*
X14967450Y-8601629D01*
X14999658Y-8601600D01*
X16356025Y-8600381D01*
X16359491Y-8601813D01*
G37*
G04 #@! TD.AperFunction*
G04 #@! TA.AperFunction,Conductor*
G36*
X15599428Y-9580346D02*
G01*
X15598571Y-9581501D01*
X15468559Y-9711513D01*
X15465095Y-9712948D01*
X15281906Y-9712948D01*
X15278429Y-9711501D01*
X15272439Y-9705469D01*
X15271241Y-9704263D01*
X15262334Y-9698610D01*
X15256309Y-9694787D01*
X15256309Y-9694787D01*
X15256078Y-9694640D01*
X15255820Y-9694548D01*
X15255820Y-9694548D01*
X15248805Y-9692050D01*
X15241611Y-9689489D01*
X15240000Y-9688033D01*
X15240000Y-9660275D01*
X15240031Y-9659727D01*
X15240292Y-9657408D01*
X15241261Y-9648811D01*
X15241944Y-9642747D01*
X15242188Y-9641677D01*
X15247740Y-9625810D01*
X15248216Y-9624822D01*
X15250735Y-9620813D01*
X15257160Y-9610588D01*
X15257844Y-9609730D01*
X15269730Y-9597844D01*
X15270588Y-9597160D01*
X15284822Y-9588216D01*
X15285810Y-9587740D01*
X15301677Y-9582188D01*
X15302747Y-9581944D01*
X15314925Y-9580572D01*
X15319727Y-9580031D01*
X15320275Y-9580000D01*
X15599462Y-9580000D01*
X15599428Y-9580346D01*
G37*
G04 #@! TD.AperFunction*
G04 #@! TD*
M02*
