G04 #@! TF.GenerationSoftware,KiCad,Pcbnew,(5.1.10)-1*
G04 #@! TF.CreationDate,2021-07-19T19:08:23-05:00*
G04 #@! TF.ProjectId,temp sensor,74656d70-2073-4656-9e73-6f722e6b6963,0.2*
G04 #@! TF.SameCoordinates,Original*
G04 #@! TF.FileFunction,Soldermask,Top*
G04 #@! TF.FilePolarity,Negative*
%FSLAX45Y45*%
G04 Gerber Fmt 4.5, Leading zero omitted, Abs format (unit mm)*
G04 Created by KiCad (PCBNEW (5.1.10)-1) date 2021-07-19 19:08:23*
%MOMM*%
%LPD*%
G01*
G04 APERTURE LIST*
%ADD10C,0.100000*%
%ADD11O,1.700000X1.700000*%
%ADD12R,1.700000X1.700000*%
%ADD13R,0.600000X1.750000*%
%ADD14C,1.450000*%
%ADD15O,1.900000X1.200000*%
%ADD16R,1.060000X0.650000*%
%ADD17R,0.400000X0.650000*%
%ADD18R,1.000000X1.000000*%
%ADD19R,2.400000X1.500000*%
%ADD20R,0.630000X0.660000*%
%ADD21R,0.800000X0.400000*%
%ADD22R,1.200000X3.700000*%
%ADD23R,0.350000X0.500000*%
%ADD24R,1.450000X1.450000*%
%ADD25R,0.700000X0.700000*%
%ADD26R,0.400000X0.800000*%
%ADD27O,1.600000X1.000000*%
%ADD28C,0.650000*%
%ADD29O,2.100000X1.000000*%
%ADD30R,1.450000X0.300000*%
%ADD31R,1.450000X0.600000*%
G04 APERTURE END LIST*
G04 #@! TO.C,R10*
G36*
G01*
X15302312Y-9186486D02*
X15302312Y-9131486D01*
G75*
G02*
X15322312Y-9111486I20000J0D01*
G01*
X15362312Y-9111486D01*
G75*
G02*
X15382312Y-9131486I0J-20000D01*
G01*
X15382312Y-9186486D01*
G75*
G02*
X15362312Y-9206486I-20000J0D01*
G01*
X15322312Y-9206486D01*
G75*
G02*
X15302312Y-9186486I0J20000D01*
G01*
G37*
G36*
G01*
X15137312Y-9186486D02*
X15137312Y-9131486D01*
G75*
G02*
X15157312Y-9111486I20000J0D01*
G01*
X15197312Y-9111486D01*
G75*
G02*
X15217312Y-9131486I0J-20000D01*
G01*
X15217312Y-9186486D01*
G75*
G02*
X15197312Y-9206486I-20000J0D01*
G01*
X15157312Y-9206486D01*
G75*
G02*
X15137312Y-9186486I0J20000D01*
G01*
G37*
G04 #@! TD*
D10*
G04 #@! TO.C,SW1*
G36*
X12073917Y-9909106D02*
G01*
X12104105Y-9935349D01*
X12103608Y-9935920D01*
X12105052Y-9936745D01*
X12108253Y-9939018D01*
X12111215Y-9941593D01*
X12113911Y-9944447D01*
X12116314Y-9947550D01*
X12118402Y-9950875D01*
X12120153Y-9954388D01*
X12121552Y-9958056D01*
X12122584Y-9961843D01*
X12123241Y-9965713D01*
X12123514Y-9969629D01*
X12123403Y-9973552D01*
X12122908Y-9977447D01*
X12122033Y-9981273D01*
X12120788Y-9984996D01*
X12119183Y-9988578D01*
X12117235Y-9991986D01*
X12114963Y-9995187D01*
X12112387Y-9998150D01*
X12109534Y-10000846D01*
X12106430Y-10003249D01*
X12103106Y-10005336D01*
X12099593Y-10007088D01*
X12095925Y-10008486D01*
X12092138Y-10009519D01*
X12090643Y-10009772D01*
X12118064Y-10033609D01*
X12075421Y-10082665D01*
X11988629Y-10007219D01*
X12073917Y-9909106D01*
G37*
G36*
X12291648Y-10184503D02*
G01*
X12319069Y-10208340D01*
X12319112Y-10206824D01*
X12319607Y-10202930D01*
X12320482Y-10199104D01*
X12321728Y-10195381D01*
X12323332Y-10191798D01*
X12325280Y-10188390D01*
X12327552Y-10185190D01*
X12330128Y-10182227D01*
X12332981Y-10179531D01*
X12336085Y-10177128D01*
X12339409Y-10175041D01*
X12342922Y-10173289D01*
X12346590Y-10171891D01*
X12350377Y-10170858D01*
X12354247Y-10170202D01*
X12358163Y-10169928D01*
X12362087Y-10170039D01*
X12365981Y-10170535D01*
X12369808Y-10171409D01*
X12373530Y-10172655D01*
X12377113Y-10174259D01*
X12380521Y-10176207D01*
X12383722Y-10178480D01*
X12386684Y-10181055D01*
X12389380Y-10183908D01*
X12390398Y-10185223D01*
X12390895Y-10184651D01*
X12421083Y-10210894D01*
X12335795Y-10309006D01*
X12249004Y-10233559D01*
X12291648Y-10184503D01*
G37*
G36*
G01*
X12248795Y-9951812D02*
X12284878Y-9910303D01*
G75*
G02*
X12323675Y-9907590I20755J-18042D01*
G01*
X12387825Y-9963355D01*
G75*
G02*
X12390538Y-10002152I-18042J-20755D01*
G01*
X12354454Y-10043661D01*
G75*
G02*
X12315658Y-10046373I-20755J18042D01*
G01*
X12251508Y-9990608D01*
G75*
G02*
X12248795Y-9951812I18042J20755D01*
G01*
G37*
G36*
G01*
X12364468Y-10085491D02*
X12413672Y-10028887D01*
G75*
G02*
X12438361Y-10027161I13207J-11481D01*
G01*
X12464775Y-10050123D01*
G75*
G02*
X12466502Y-10074811I-11481J-13207D01*
G01*
X12417297Y-10131415D01*
G75*
G02*
X12392609Y-10133141I-13207J11481D01*
G01*
X12366194Y-10110179D01*
G75*
G02*
X12364468Y-10085491I11481J13207D01*
G01*
G37*
G36*
G01*
X12153149Y-9901794D02*
X12202354Y-9845191D01*
G75*
G02*
X12227042Y-9843464I13207J-11481D01*
G01*
X12253457Y-9866426D01*
G75*
G02*
X12255183Y-9891115I-11481J-13207D01*
G01*
X12205979Y-9947718D01*
G75*
G02*
X12181290Y-9949444I-13207J11481D01*
G01*
X12154876Y-9926482D01*
G75*
G02*
X12153149Y-9901794I11481J13207D01*
G01*
G37*
G04 #@! TD*
D11*
G04 #@! TO.C,J2*
X12683236Y-9896602D03*
D12*
X12937236Y-9896602D03*
G04 #@! TD*
D13*
G04 #@! TO.C,J3*
X14467500Y-10155000D03*
X14267500Y-10155000D03*
X14067500Y-10155000D03*
X13867500Y-10155000D03*
X14367500Y-10330000D03*
X14167500Y-10330000D03*
X13967500Y-10330000D03*
G04 #@! TD*
G04 #@! TO.C,R6*
G36*
G01*
X14767500Y-10030000D02*
X14767500Y-9975000D01*
G75*
G02*
X14787500Y-9955000I20000J0D01*
G01*
X14827500Y-9955000D01*
G75*
G02*
X14847500Y-9975000I0J-20000D01*
G01*
X14847500Y-10030000D01*
G75*
G02*
X14827500Y-10050000I-20000J0D01*
G01*
X14787500Y-10050000D01*
G75*
G02*
X14767500Y-10030000I0J20000D01*
G01*
G37*
G36*
G01*
X14602500Y-10030000D02*
X14602500Y-9975000D01*
G75*
G02*
X14622500Y-9955000I20000J0D01*
G01*
X14662500Y-9955000D01*
G75*
G02*
X14682500Y-9975000I0J-20000D01*
G01*
X14682500Y-10030000D01*
G75*
G02*
X14662500Y-10050000I-20000J0D01*
G01*
X14622500Y-10050000D01*
G75*
G02*
X14602500Y-10030000I0J20000D01*
G01*
G37*
G04 #@! TD*
G04 #@! TO.C,C5*
G36*
G01*
X12487500Y-8772500D02*
X12537500Y-8772500D01*
G75*
G02*
X12560000Y-8795000I0J-22500D01*
G01*
X12560000Y-8840000D01*
G75*
G02*
X12537500Y-8862500I-22500J0D01*
G01*
X12487500Y-8862500D01*
G75*
G02*
X12465000Y-8840000I0J22500D01*
G01*
X12465000Y-8795000D01*
G75*
G02*
X12487500Y-8772500I22500J0D01*
G01*
G37*
G36*
G01*
X12487500Y-8617500D02*
X12537500Y-8617500D01*
G75*
G02*
X12560000Y-8640000I0J-22500D01*
G01*
X12560000Y-8685000D01*
G75*
G02*
X12537500Y-8707500I-22500J0D01*
G01*
X12487500Y-8707500D01*
G75*
G02*
X12465000Y-8685000I0J22500D01*
G01*
X12465000Y-8640000D01*
G75*
G02*
X12487500Y-8617500I22500J0D01*
G01*
G37*
G04 #@! TD*
D14*
G04 #@! TO.C,J4*
X16056250Y-9015000D03*
X16056250Y-9515000D03*
D15*
X16326250Y-8915000D03*
X16326250Y-9615000D03*
G04 #@! TD*
G04 #@! TO.C,R15*
G36*
G01*
X11995000Y-9132500D02*
X12050000Y-9132500D01*
G75*
G02*
X12070000Y-9152500I0J-20000D01*
G01*
X12070000Y-9192500D01*
G75*
G02*
X12050000Y-9212500I-20000J0D01*
G01*
X11995000Y-9212500D01*
G75*
G02*
X11975000Y-9192500I0J20000D01*
G01*
X11975000Y-9152500D01*
G75*
G02*
X11995000Y-9132500I20000J0D01*
G01*
G37*
G36*
G01*
X11995000Y-8967500D02*
X12050000Y-8967500D01*
G75*
G02*
X12070000Y-8987500I0J-20000D01*
G01*
X12070000Y-9027500D01*
G75*
G02*
X12050000Y-9047500I-20000J0D01*
G01*
X11995000Y-9047500D01*
G75*
G02*
X11975000Y-9027500I0J20000D01*
G01*
X11975000Y-8987500D01*
G75*
G02*
X11995000Y-8967500I20000J0D01*
G01*
G37*
G04 #@! TD*
G04 #@! TO.C,R16*
G36*
G01*
X12723700Y-8701800D02*
X12668700Y-8701800D01*
G75*
G02*
X12648700Y-8681800I0J20000D01*
G01*
X12648700Y-8641800D01*
G75*
G02*
X12668700Y-8621800I20000J0D01*
G01*
X12723700Y-8621800D01*
G75*
G02*
X12743700Y-8641800I0J-20000D01*
G01*
X12743700Y-8681800D01*
G75*
G02*
X12723700Y-8701800I-20000J0D01*
G01*
G37*
G36*
G01*
X12723700Y-8866800D02*
X12668700Y-8866800D01*
G75*
G02*
X12648700Y-8846800I0J20000D01*
G01*
X12648700Y-8806800D01*
G75*
G02*
X12668700Y-8786800I20000J0D01*
G01*
X12723700Y-8786800D01*
G75*
G02*
X12743700Y-8806800I0J-20000D01*
G01*
X12743700Y-8846800D01*
G75*
G02*
X12723700Y-8866800I-20000J0D01*
G01*
G37*
G04 #@! TD*
G04 #@! TO.C,C4*
G36*
G01*
X13220000Y-9575000D02*
X13170000Y-9575000D01*
G75*
G02*
X13147500Y-9552500I0J22500D01*
G01*
X13147500Y-9507500D01*
G75*
G02*
X13170000Y-9485000I22500J0D01*
G01*
X13220000Y-9485000D01*
G75*
G02*
X13242500Y-9507500I0J-22500D01*
G01*
X13242500Y-9552500D01*
G75*
G02*
X13220000Y-9575000I-22500J0D01*
G01*
G37*
G36*
G01*
X13220000Y-9730000D02*
X13170000Y-9730000D01*
G75*
G02*
X13147500Y-9707500I0J22500D01*
G01*
X13147500Y-9662500D01*
G75*
G02*
X13170000Y-9640000I22500J0D01*
G01*
X13220000Y-9640000D01*
G75*
G02*
X13242500Y-9662500I0J-22500D01*
G01*
X13242500Y-9707500D01*
G75*
G02*
X13220000Y-9730000I-22500J0D01*
G01*
G37*
G04 #@! TD*
G04 #@! TO.C,R13*
G36*
G01*
X14906162Y-9528996D02*
X14906162Y-9583996D01*
G75*
G02*
X14886162Y-9603996I-20000J0D01*
G01*
X14846162Y-9603996D01*
G75*
G02*
X14826162Y-9583996I0J20000D01*
G01*
X14826162Y-9528996D01*
G75*
G02*
X14846162Y-9508996I20000J0D01*
G01*
X14886162Y-9508996D01*
G75*
G02*
X14906162Y-9528996I0J-20000D01*
G01*
G37*
G36*
G01*
X15071162Y-9528996D02*
X15071162Y-9583996D01*
G75*
G02*
X15051162Y-9603996I-20000J0D01*
G01*
X15011162Y-9603996D01*
G75*
G02*
X14991162Y-9583996I0J20000D01*
G01*
X14991162Y-9528996D01*
G75*
G02*
X15011162Y-9508996I20000J0D01*
G01*
X15051162Y-9508996D01*
G75*
G02*
X15071162Y-9528996I0J-20000D01*
G01*
G37*
G04 #@! TD*
G04 #@! TO.C,R3*
G36*
G01*
X12050000Y-9347500D02*
X11995000Y-9347500D01*
G75*
G02*
X11975000Y-9327500I0J20000D01*
G01*
X11975000Y-9287500D01*
G75*
G02*
X11995000Y-9267500I20000J0D01*
G01*
X12050000Y-9267500D01*
G75*
G02*
X12070000Y-9287500I0J-20000D01*
G01*
X12070000Y-9327500D01*
G75*
G02*
X12050000Y-9347500I-20000J0D01*
G01*
G37*
G36*
G01*
X12050000Y-9512500D02*
X11995000Y-9512500D01*
G75*
G02*
X11975000Y-9492500I0J20000D01*
G01*
X11975000Y-9452500D01*
G75*
G02*
X11995000Y-9432500I20000J0D01*
G01*
X12050000Y-9432500D01*
G75*
G02*
X12070000Y-9452500I0J-20000D01*
G01*
X12070000Y-9492500D01*
G75*
G02*
X12050000Y-9512500I-20000J0D01*
G01*
G37*
G04 #@! TD*
G04 #@! TO.C,R2*
G36*
G01*
X14900776Y-9040722D02*
X14845776Y-9040722D01*
G75*
G02*
X14825776Y-9020722I0J20000D01*
G01*
X14825776Y-8980722D01*
G75*
G02*
X14845776Y-8960722I20000J0D01*
G01*
X14900776Y-8960722D01*
G75*
G02*
X14920776Y-8980722I0J-20000D01*
G01*
X14920776Y-9020722D01*
G75*
G02*
X14900776Y-9040722I-20000J0D01*
G01*
G37*
G36*
G01*
X14900776Y-9205722D02*
X14845776Y-9205722D01*
G75*
G02*
X14825776Y-9185722I0J20000D01*
G01*
X14825776Y-9145722D01*
G75*
G02*
X14845776Y-9125722I20000J0D01*
G01*
X14900776Y-9125722D01*
G75*
G02*
X14920776Y-9145722I0J-20000D01*
G01*
X14920776Y-9185722D01*
G75*
G02*
X14900776Y-9205722I-20000J0D01*
G01*
G37*
G04 #@! TD*
G04 #@! TO.C,R11*
G36*
G01*
X15206644Y-9639740D02*
X15206644Y-9694740D01*
G75*
G02*
X15186644Y-9714740I-20000J0D01*
G01*
X15146644Y-9714740D01*
G75*
G02*
X15126644Y-9694740I0J20000D01*
G01*
X15126644Y-9639740D01*
G75*
G02*
X15146644Y-9619740I20000J0D01*
G01*
X15186644Y-9619740D01*
G75*
G02*
X15206644Y-9639740I0J-20000D01*
G01*
G37*
G36*
G01*
X15371644Y-9639740D02*
X15371644Y-9694740D01*
G75*
G02*
X15351644Y-9714740I-20000J0D01*
G01*
X15311644Y-9714740D01*
G75*
G02*
X15291644Y-9694740I0J20000D01*
G01*
X15291644Y-9639740D01*
G75*
G02*
X15311644Y-9619740I20000J0D01*
G01*
X15351644Y-9619740D01*
G75*
G02*
X15371644Y-9639740I0J-20000D01*
G01*
G37*
G04 #@! TD*
G04 #@! TO.C,R4*
G36*
G01*
X13665000Y-10062500D02*
X13720000Y-10062500D01*
G75*
G02*
X13740000Y-10082500I0J-20000D01*
G01*
X13740000Y-10122500D01*
G75*
G02*
X13720000Y-10142500I-20000J0D01*
G01*
X13665000Y-10142500D01*
G75*
G02*
X13645000Y-10122500I0J20000D01*
G01*
X13645000Y-10082500D01*
G75*
G02*
X13665000Y-10062500I20000J0D01*
G01*
G37*
G36*
G01*
X13665000Y-9897500D02*
X13720000Y-9897500D01*
G75*
G02*
X13740000Y-9917500I0J-20000D01*
G01*
X13740000Y-9957500D01*
G75*
G02*
X13720000Y-9977500I-20000J0D01*
G01*
X13665000Y-9977500D01*
G75*
G02*
X13645000Y-9957500I0J20000D01*
G01*
X13645000Y-9917500D01*
G75*
G02*
X13665000Y-9897500I20000J0D01*
G01*
G37*
G04 #@! TD*
G04 #@! TO.C,R7*
G36*
G01*
X13075000Y-9352500D02*
X13075000Y-9407500D01*
G75*
G02*
X13055000Y-9427500I-20000J0D01*
G01*
X13015000Y-9427500D01*
G75*
G02*
X12995000Y-9407500I0J20000D01*
G01*
X12995000Y-9352500D01*
G75*
G02*
X13015000Y-9332500I20000J0D01*
G01*
X13055000Y-9332500D01*
G75*
G02*
X13075000Y-9352500I0J-20000D01*
G01*
G37*
G36*
G01*
X13240000Y-9352500D02*
X13240000Y-9407500D01*
G75*
G02*
X13220000Y-9427500I-20000J0D01*
G01*
X13180000Y-9427500D01*
G75*
G02*
X13160000Y-9407500I0J20000D01*
G01*
X13160000Y-9352500D01*
G75*
G02*
X13180000Y-9332500I20000J0D01*
G01*
X13220000Y-9332500D01*
G75*
G02*
X13240000Y-9352500I0J-20000D01*
G01*
G37*
G04 #@! TD*
D16*
G04 #@! TO.C,U2*
X15832600Y-10078970D03*
X15832600Y-10268970D03*
X15612600Y-10268970D03*
X15612600Y-10173970D03*
X15612600Y-10078970D03*
G04 #@! TD*
G04 #@! TO.C,C3*
G36*
G01*
X12197500Y-9095000D02*
X12292500Y-9095000D01*
G75*
G02*
X12317500Y-9120000I0J-25000D01*
G01*
X12317500Y-9170000D01*
G75*
G02*
X12292500Y-9195000I-25000J0D01*
G01*
X12197500Y-9195000D01*
G75*
G02*
X12172500Y-9170000I0J25000D01*
G01*
X12172500Y-9120000D01*
G75*
G02*
X12197500Y-9095000I25000J0D01*
G01*
G37*
G36*
G01*
X12197500Y-8905000D02*
X12292500Y-8905000D01*
G75*
G02*
X12317500Y-8930000I0J-25000D01*
G01*
X12317500Y-8980000D01*
G75*
G02*
X12292500Y-9005000I-25000J0D01*
G01*
X12197500Y-9005000D01*
G75*
G02*
X12172500Y-8980000I0J25000D01*
G01*
X12172500Y-8930000D01*
G75*
G02*
X12197500Y-8905000I25000J0D01*
G01*
G37*
G04 #@! TD*
D17*
G04 #@! TO.C,Q1*
X13402500Y-9930000D03*
X13532500Y-9930000D03*
X13467500Y-10120000D03*
X13467500Y-9930000D03*
X13532500Y-10120000D03*
X13402500Y-10120000D03*
G04 #@! TD*
D18*
G04 #@! TO.C,D1*
X13172500Y-8677500D03*
X13172500Y-8927500D03*
G04 #@! TD*
D19*
G04 #@! TO.C,U4*
X12533000Y-9163400D03*
G36*
G01*
X12623000Y-9268400D02*
X12643000Y-9268400D01*
G75*
G02*
X12653000Y-9278400I0J-10000D01*
G01*
X12653000Y-9338400D01*
G75*
G02*
X12643000Y-9348400I-10000J0D01*
G01*
X12623000Y-9348400D01*
G75*
G02*
X12613000Y-9338400I0J10000D01*
G01*
X12613000Y-9278400D01*
G75*
G02*
X12623000Y-9268400I10000J0D01*
G01*
G37*
G36*
G01*
X12523000Y-9268400D02*
X12543000Y-9268400D01*
G75*
G02*
X12553000Y-9278400I0J-10000D01*
G01*
X12553000Y-9338400D01*
G75*
G02*
X12543000Y-9348400I-10000J0D01*
G01*
X12523000Y-9348400D01*
G75*
G02*
X12513000Y-9338400I0J10000D01*
G01*
X12513000Y-9278400D01*
G75*
G02*
X12523000Y-9268400I10000J0D01*
G01*
G37*
G36*
G01*
X12423000Y-9268400D02*
X12443000Y-9268400D01*
G75*
G02*
X12453000Y-9278400I0J-10000D01*
G01*
X12453000Y-9338400D01*
G75*
G02*
X12443000Y-9348400I-10000J0D01*
G01*
X12423000Y-9348400D01*
G75*
G02*
X12413000Y-9338400I0J10000D01*
G01*
X12413000Y-9278400D01*
G75*
G02*
X12423000Y-9268400I10000J0D01*
G01*
G37*
G36*
G01*
X12423000Y-8978400D02*
X12443000Y-8978400D01*
G75*
G02*
X12453000Y-8988400I0J-10000D01*
G01*
X12453000Y-9048400D01*
G75*
G02*
X12443000Y-9058400I-10000J0D01*
G01*
X12423000Y-9058400D01*
G75*
G02*
X12413000Y-9048400I0J10000D01*
G01*
X12413000Y-8988400D01*
G75*
G02*
X12423000Y-8978400I10000J0D01*
G01*
G37*
G36*
G01*
X12523000Y-8978400D02*
X12543000Y-8978400D01*
G75*
G02*
X12553000Y-8988400I0J-10000D01*
G01*
X12553000Y-9048400D01*
G75*
G02*
X12543000Y-9058400I-10000J0D01*
G01*
X12523000Y-9058400D01*
G75*
G02*
X12513000Y-9048400I0J10000D01*
G01*
X12513000Y-8988400D01*
G75*
G02*
X12523000Y-8978400I10000J0D01*
G01*
G37*
G36*
G01*
X12623000Y-8978400D02*
X12643000Y-8978400D01*
G75*
G02*
X12653000Y-8988400I0J-10000D01*
G01*
X12653000Y-9048400D01*
G75*
G02*
X12643000Y-9058400I-10000J0D01*
G01*
X12623000Y-9058400D01*
G75*
G02*
X12613000Y-9048400I0J10000D01*
G01*
X12613000Y-8988400D01*
G75*
G02*
X12623000Y-8978400I10000J0D01*
G01*
G37*
G04 #@! TD*
D20*
G04 #@! TO.C,D2*
X11790000Y-9467000D03*
D21*
X11848500Y-9386000D03*
X11848500Y-9318000D03*
X11848500Y-9212000D03*
X11848500Y-9144000D03*
D20*
X11790000Y-9063000D03*
G04 #@! TD*
G04 #@! TO.C,R12*
G36*
G01*
X14906924Y-9352466D02*
X14906924Y-9407466D01*
G75*
G02*
X14886924Y-9427466I-20000J0D01*
G01*
X14846924Y-9427466D01*
G75*
G02*
X14826924Y-9407466I0J20000D01*
G01*
X14826924Y-9352466D01*
G75*
G02*
X14846924Y-9332466I20000J0D01*
G01*
X14886924Y-9332466D01*
G75*
G02*
X14906924Y-9352466I0J-20000D01*
G01*
G37*
G36*
G01*
X15071924Y-9352466D02*
X15071924Y-9407466D01*
G75*
G02*
X15051924Y-9427466I-20000J0D01*
G01*
X15011924Y-9427466D01*
G75*
G02*
X14991924Y-9407466I0J20000D01*
G01*
X14991924Y-9352466D01*
G75*
G02*
X15011924Y-9332466I20000J0D01*
G01*
X15051924Y-9332466D01*
G75*
G02*
X15071924Y-9352466I0J-20000D01*
G01*
G37*
G04 #@! TD*
G04 #@! TO.C,C9*
G36*
G01*
X14927832Y-10206524D02*
X15022832Y-10206524D01*
G75*
G02*
X15047832Y-10231524I0J-25000D01*
G01*
X15047832Y-10281524D01*
G75*
G02*
X15022832Y-10306524I-25000J0D01*
G01*
X14927832Y-10306524D01*
G75*
G02*
X14902832Y-10281524I0J25000D01*
G01*
X14902832Y-10231524D01*
G75*
G02*
X14927832Y-10206524I25000J0D01*
G01*
G37*
G36*
G01*
X14927832Y-10016524D02*
X15022832Y-10016524D01*
G75*
G02*
X15047832Y-10041524I0J-25000D01*
G01*
X15047832Y-10091524D01*
G75*
G02*
X15022832Y-10116524I-25000J0D01*
G01*
X14927832Y-10116524D01*
G75*
G02*
X14902832Y-10091524I0J25000D01*
G01*
X14902832Y-10041524D01*
G75*
G02*
X14927832Y-10016524I25000J0D01*
G01*
G37*
G04 #@! TD*
G04 #@! TO.C,R1*
G36*
G01*
X15153276Y-9035722D02*
X15153276Y-8980722D01*
G75*
G02*
X15173276Y-8960722I20000J0D01*
G01*
X15213276Y-8960722D01*
G75*
G02*
X15233276Y-8980722I0J-20000D01*
G01*
X15233276Y-9035722D01*
G75*
G02*
X15213276Y-9055722I-20000J0D01*
G01*
X15173276Y-9055722D01*
G75*
G02*
X15153276Y-9035722I0J20000D01*
G01*
G37*
G36*
G01*
X14988276Y-9035722D02*
X14988276Y-8980722D01*
G75*
G02*
X15008276Y-8960722I20000J0D01*
G01*
X15048276Y-8960722D01*
G75*
G02*
X15068276Y-8980722I0J-20000D01*
G01*
X15068276Y-9035722D01*
G75*
G02*
X15048276Y-9055722I-20000J0D01*
G01*
X15008276Y-9055722D01*
G75*
G02*
X14988276Y-9035722I0J20000D01*
G01*
G37*
G04 #@! TD*
G04 #@! TO.C,R9*
G36*
G01*
X14680000Y-10295000D02*
X14680000Y-10350000D01*
G75*
G02*
X14660000Y-10370000I-20000J0D01*
G01*
X14620000Y-10370000D01*
G75*
G02*
X14600000Y-10350000I0J20000D01*
G01*
X14600000Y-10295000D01*
G75*
G02*
X14620000Y-10275000I20000J0D01*
G01*
X14660000Y-10275000D01*
G75*
G02*
X14680000Y-10295000I0J-20000D01*
G01*
G37*
G36*
G01*
X14845000Y-10295000D02*
X14845000Y-10350000D01*
G75*
G02*
X14825000Y-10370000I-20000J0D01*
G01*
X14785000Y-10370000D01*
G75*
G02*
X14765000Y-10350000I0J20000D01*
G01*
X14765000Y-10295000D01*
G75*
G02*
X14785000Y-10275000I20000J0D01*
G01*
X14825000Y-10275000D01*
G75*
G02*
X14845000Y-10295000I0J-20000D01*
G01*
G37*
G04 #@! TD*
G04 #@! TO.C,C1*
G36*
G01*
X12545206Y-9597124D02*
X12595206Y-9597124D01*
G75*
G02*
X12617706Y-9619624I0J-22500D01*
G01*
X12617706Y-9664624D01*
G75*
G02*
X12595206Y-9687124I-22500J0D01*
G01*
X12545206Y-9687124D01*
G75*
G02*
X12522706Y-9664624I0J22500D01*
G01*
X12522706Y-9619624D01*
G75*
G02*
X12545206Y-9597124I22500J0D01*
G01*
G37*
G36*
G01*
X12545206Y-9442124D02*
X12595206Y-9442124D01*
G75*
G02*
X12617706Y-9464624I0J-22500D01*
G01*
X12617706Y-9509624D01*
G75*
G02*
X12595206Y-9532124I-22500J0D01*
G01*
X12545206Y-9532124D01*
G75*
G02*
X12522706Y-9509624I0J22500D01*
G01*
X12522706Y-9464624D01*
G75*
G02*
X12545206Y-9442124I22500J0D01*
G01*
G37*
G04 #@! TD*
G04 #@! TO.C,R17*
G36*
G01*
X12876100Y-8701800D02*
X12821100Y-8701800D01*
G75*
G02*
X12801100Y-8681800I0J20000D01*
G01*
X12801100Y-8641800D01*
G75*
G02*
X12821100Y-8621800I20000J0D01*
G01*
X12876100Y-8621800D01*
G75*
G02*
X12896100Y-8641800I0J-20000D01*
G01*
X12896100Y-8681800D01*
G75*
G02*
X12876100Y-8701800I-20000J0D01*
G01*
G37*
G36*
G01*
X12876100Y-8866800D02*
X12821100Y-8866800D01*
G75*
G02*
X12801100Y-8846800I0J20000D01*
G01*
X12801100Y-8806800D01*
G75*
G02*
X12821100Y-8786800I20000J0D01*
G01*
X12876100Y-8786800D01*
G75*
G02*
X12896100Y-8806800I0J-20000D01*
G01*
X12896100Y-8846800D01*
G75*
G02*
X12876100Y-8866800I-20000J0D01*
G01*
G37*
G04 #@! TD*
G04 #@! TO.C,R14*
G36*
G01*
X12052500Y-9590000D02*
X12052500Y-9645000D01*
G75*
G02*
X12032500Y-9665000I-20000J0D01*
G01*
X11992500Y-9665000D01*
G75*
G02*
X11972500Y-9645000I0J20000D01*
G01*
X11972500Y-9590000D01*
G75*
G02*
X11992500Y-9570000I20000J0D01*
G01*
X12032500Y-9570000D01*
G75*
G02*
X12052500Y-9590000I0J-20000D01*
G01*
G37*
G36*
G01*
X12217500Y-9590000D02*
X12217500Y-9645000D01*
G75*
G02*
X12197500Y-9665000I-20000J0D01*
G01*
X12157500Y-9665000D01*
G75*
G02*
X12137500Y-9645000I0J20000D01*
G01*
X12137500Y-9590000D01*
G75*
G02*
X12157500Y-9570000I20000J0D01*
G01*
X12197500Y-9570000D01*
G75*
G02*
X12217500Y-9590000I0J-20000D01*
G01*
G37*
G04 #@! TD*
G04 #@! TO.C,C8*
G36*
G01*
X15965720Y-9942324D02*
X15965720Y-9847324D01*
G75*
G02*
X15990720Y-9822324I25000J0D01*
G01*
X16040720Y-9822324D01*
G75*
G02*
X16065720Y-9847324I0J-25000D01*
G01*
X16065720Y-9942324D01*
G75*
G02*
X16040720Y-9967324I-25000J0D01*
G01*
X15990720Y-9967324D01*
G75*
G02*
X15965720Y-9942324I0J25000D01*
G01*
G37*
G36*
G01*
X15775720Y-9942324D02*
X15775720Y-9847324D01*
G75*
G02*
X15800720Y-9822324I25000J0D01*
G01*
X15850720Y-9822324D01*
G75*
G02*
X15875720Y-9847324I0J-25000D01*
G01*
X15875720Y-9942324D01*
G75*
G02*
X15850720Y-9967324I-25000J0D01*
G01*
X15800720Y-9967324D01*
G75*
G02*
X15775720Y-9942324I0J25000D01*
G01*
G37*
G04 #@! TD*
G04 #@! TO.C,R8*
G36*
G01*
X14765000Y-10195000D02*
X14765000Y-10140000D01*
G75*
G02*
X14785000Y-10120000I20000J0D01*
G01*
X14825000Y-10120000D01*
G75*
G02*
X14845000Y-10140000I0J-20000D01*
G01*
X14845000Y-10195000D01*
G75*
G02*
X14825000Y-10215000I-20000J0D01*
G01*
X14785000Y-10215000D01*
G75*
G02*
X14765000Y-10195000I0J20000D01*
G01*
G37*
G36*
G01*
X14600000Y-10195000D02*
X14600000Y-10140000D01*
G75*
G02*
X14620000Y-10120000I20000J0D01*
G01*
X14660000Y-10120000D01*
G75*
G02*
X14680000Y-10140000I0J-20000D01*
G01*
X14680000Y-10195000D01*
G75*
G02*
X14660000Y-10215000I-20000J0D01*
G01*
X14620000Y-10215000D01*
G75*
G02*
X14600000Y-10195000I0J20000D01*
G01*
G37*
G04 #@! TD*
D22*
G04 #@! TO.C,L2*
X15163300Y-10192100D03*
X15443300Y-10192100D03*
G04 #@! TD*
D11*
G04 #@! TO.C,J5*
X14975078Y-8750808D03*
D12*
X15229078Y-8750808D03*
G04 #@! TD*
G04 #@! TO.C,C2*
G36*
G01*
X14395000Y-9915000D02*
X14395000Y-9965000D01*
G75*
G02*
X14372500Y-9987500I-22500J0D01*
G01*
X14327500Y-9987500D01*
G75*
G02*
X14305000Y-9965000I0J22500D01*
G01*
X14305000Y-9915000D01*
G75*
G02*
X14327500Y-9892500I22500J0D01*
G01*
X14372500Y-9892500D01*
G75*
G02*
X14395000Y-9915000I0J-22500D01*
G01*
G37*
G36*
G01*
X14550000Y-9915000D02*
X14550000Y-9965000D01*
G75*
G02*
X14527500Y-9987500I-22500J0D01*
G01*
X14482500Y-9987500D01*
G75*
G02*
X14460000Y-9965000I0J22500D01*
G01*
X14460000Y-9915000D01*
G75*
G02*
X14482500Y-9892500I22500J0D01*
G01*
X14527500Y-9892500D01*
G75*
G02*
X14550000Y-9915000I0J-22500D01*
G01*
G37*
G04 #@! TD*
D11*
G04 #@! TO.C,J6*
X13328500Y-10365000D03*
D12*
X13582500Y-10365000D03*
G04 #@! TD*
G04 #@! TO.C,R5*
G36*
G01*
X13275000Y-9977500D02*
X13220000Y-9977500D01*
G75*
G02*
X13200000Y-9957500I0J20000D01*
G01*
X13200000Y-9917500D01*
G75*
G02*
X13220000Y-9897500I20000J0D01*
G01*
X13275000Y-9897500D01*
G75*
G02*
X13295000Y-9917500I0J-20000D01*
G01*
X13295000Y-9957500D01*
G75*
G02*
X13275000Y-9977500I-20000J0D01*
G01*
G37*
G36*
G01*
X13275000Y-10142500D02*
X13220000Y-10142500D01*
G75*
G02*
X13200000Y-10122500I0J20000D01*
G01*
X13200000Y-10082500D01*
G75*
G02*
X13220000Y-10062500I20000J0D01*
G01*
X13275000Y-10062500D01*
G75*
G02*
X13295000Y-10082500I0J-20000D01*
G01*
X13295000Y-10122500D01*
G75*
G02*
X13275000Y-10142500I-20000J0D01*
G01*
G37*
G04 #@! TD*
D23*
G04 #@! TO.C,U3*
X12960700Y-9253200D03*
X12895700Y-9253200D03*
X12830700Y-9253200D03*
X12765700Y-9253200D03*
X12765700Y-9048200D03*
X12830700Y-9048200D03*
X12895700Y-9048200D03*
X12960700Y-9048200D03*
G04 #@! TD*
G04 #@! TO.C,L1*
G36*
G01*
X12974375Y-8805000D02*
X13025625Y-8805000D01*
G75*
G02*
X13047500Y-8826875I0J-21875D01*
G01*
X13047500Y-8870625D01*
G75*
G02*
X13025625Y-8892500I-21875J0D01*
G01*
X12974375Y-8892500D01*
G75*
G02*
X12952500Y-8870625I0J21875D01*
G01*
X12952500Y-8826875D01*
G75*
G02*
X12974375Y-8805000I21875J0D01*
G01*
G37*
G36*
G01*
X12974375Y-8647500D02*
X13025625Y-8647500D01*
G75*
G02*
X13047500Y-8669375I0J-21875D01*
G01*
X13047500Y-8713125D01*
G75*
G02*
X13025625Y-8735000I-21875J0D01*
G01*
X12974375Y-8735000D01*
G75*
G02*
X12952500Y-8713125I0J21875D01*
G01*
X12952500Y-8669375D01*
G75*
G02*
X12974375Y-8647500I21875J0D01*
G01*
G37*
G04 #@! TD*
D16*
G04 #@! TO.C,U5*
X15401308Y-9414002D03*
X15401308Y-9319002D03*
X15401308Y-9509002D03*
X15181308Y-9509002D03*
X15181308Y-9414002D03*
X15181308Y-9319002D03*
G04 #@! TD*
G04 #@! TO.C,U1*
G36*
G01*
X13205100Y-9185700D02*
X13080100Y-9185700D01*
G75*
G02*
X13062600Y-9168200I0J17500D01*
G01*
X13062600Y-9133200D01*
G75*
G02*
X13080100Y-9115700I17500J0D01*
G01*
X13205100Y-9115700D01*
G75*
G02*
X13222600Y-9133200I0J-17500D01*
G01*
X13222600Y-9168200D01*
G75*
G02*
X13205100Y-9185700I-17500J0D01*
G01*
G37*
G36*
G01*
X13101350Y-9085700D02*
X13083850Y-9085700D01*
G75*
G02*
X13075100Y-9076950I0J8750D01*
G01*
X13075100Y-9039450D01*
G75*
G02*
X13083850Y-9030700I8750J0D01*
G01*
X13101350Y-9030700D01*
G75*
G02*
X13110100Y-9039450I0J-8750D01*
G01*
X13110100Y-9076950D01*
G75*
G02*
X13101350Y-9085700I-8750J0D01*
G01*
G37*
G36*
G01*
X13201350Y-9085700D02*
X13183850Y-9085700D01*
G75*
G02*
X13175100Y-9076950I0J8750D01*
G01*
X13175100Y-9039450D01*
G75*
G02*
X13183850Y-9030700I8750J0D01*
G01*
X13201350Y-9030700D01*
G75*
G02*
X13210100Y-9039450I0J-8750D01*
G01*
X13210100Y-9076950D01*
G75*
G02*
X13201350Y-9085700I-8750J0D01*
G01*
G37*
G36*
G01*
X13201350Y-9270700D02*
X13183850Y-9270700D01*
G75*
G02*
X13175100Y-9261950I0J8750D01*
G01*
X13175100Y-9224450D01*
G75*
G02*
X13183850Y-9215700I8750J0D01*
G01*
X13201350Y-9215700D01*
G75*
G02*
X13210100Y-9224450I0J-8750D01*
G01*
X13210100Y-9261950D01*
G75*
G02*
X13201350Y-9270700I-8750J0D01*
G01*
G37*
G36*
G01*
X13101350Y-9270700D02*
X13083850Y-9270700D01*
G75*
G02*
X13075100Y-9261950I0J8750D01*
G01*
X13075100Y-9224450D01*
G75*
G02*
X13083850Y-9215700I8750J0D01*
G01*
X13101350Y-9215700D01*
G75*
G02*
X13110100Y-9224450I0J-8750D01*
G01*
X13110100Y-9261950D01*
G75*
G02*
X13101350Y-9270700I-8750J0D01*
G01*
G37*
G04 #@! TD*
D10*
G04 #@! TO.C,SW2*
G36*
X12628760Y-10290958D02*
G01*
X12668541Y-10295140D01*
X12668462Y-10295893D01*
X12670117Y-10295741D01*
X12674043Y-10295766D01*
X12677947Y-10296177D01*
X12681791Y-10296968D01*
X12685540Y-10298132D01*
X12689157Y-10299658D01*
X12692607Y-10301531D01*
X12695856Y-10303733D01*
X12698874Y-10306243D01*
X12701632Y-10309037D01*
X12704102Y-10312087D01*
X12706262Y-10315365D01*
X12708089Y-10318839D01*
X12709568Y-10322476D01*
X12710683Y-10326239D01*
X12711423Y-10330094D01*
X12711782Y-10334003D01*
X12711757Y-10337929D01*
X12711346Y-10341832D01*
X12710555Y-10345677D01*
X12709391Y-10349426D01*
X12707865Y-10353043D01*
X12705992Y-10356493D01*
X12703790Y-10359742D01*
X12701280Y-10362760D01*
X12700201Y-10363825D01*
X12736336Y-10367623D01*
X12729541Y-10432267D01*
X12615171Y-10420246D01*
X12628760Y-10290958D01*
G37*
G36*
X12965076Y-10391665D02*
G01*
X13001210Y-10395463D01*
X13000376Y-10394196D01*
X12998548Y-10390723D01*
X12997070Y-10387086D01*
X12995955Y-10383322D01*
X12995214Y-10379467D01*
X12994855Y-10375559D01*
X12994881Y-10371633D01*
X12995291Y-10367729D01*
X12996082Y-10363884D01*
X12997246Y-10360136D01*
X12998772Y-10356519D01*
X13000645Y-10353069D01*
X13002847Y-10349820D01*
X13005357Y-10346802D01*
X13008151Y-10344044D01*
X13011202Y-10341574D01*
X13014480Y-10339414D01*
X13017954Y-10337587D01*
X13021590Y-10336108D01*
X13025354Y-10334993D01*
X13029209Y-10334253D01*
X13033118Y-10333894D01*
X13037043Y-10333919D01*
X13040947Y-10334330D01*
X13044792Y-10335121D01*
X13046380Y-10335614D01*
X13046459Y-10334860D01*
X13086240Y-10339042D01*
X13072651Y-10468329D01*
X12958281Y-10456309D01*
X12965076Y-10391665D01*
G37*
G36*
G01*
X12796507Y-10225635D02*
X12802256Y-10170936D01*
G75*
G02*
X12832480Y-10146461I27349J-2875D01*
G01*
X12917014Y-10155346D01*
G75*
G02*
X12941489Y-10185570I-2875J-27349D01*
G01*
X12935740Y-10240269D01*
G75*
G02*
X12905516Y-10264744I-27349J2875D01*
G01*
X12820982Y-10255859D01*
G75*
G02*
X12796507Y-10225635I2875J27349D01*
G01*
G37*
G36*
G01*
X12967935Y-10268791D02*
X12975775Y-10194201D01*
G75*
G02*
X12995008Y-10178627I17404J-1829D01*
G01*
X13029816Y-10182285D01*
G75*
G02*
X13045391Y-10201518I-1829J-17404D01*
G01*
X13037552Y-10276107D01*
G75*
G02*
X13018318Y-10291682I-17404J1829D01*
G01*
X12983510Y-10288024D01*
G75*
G02*
X12967935Y-10268791I1829J17404D01*
G01*
G37*
G36*
G01*
X12689469Y-10239523D02*
X12697309Y-10164933D01*
G75*
G02*
X12716542Y-10149359I17404J-1829D01*
G01*
X12751350Y-10153017D01*
G75*
G02*
X12766925Y-10172250I-1829J-17404D01*
G01*
X12759085Y-10246839D01*
G75*
G02*
X12739852Y-10262414I-17404J1829D01*
G01*
X12705044Y-10258756D01*
G75*
G02*
X12689469Y-10239523I1829J17404D01*
G01*
G37*
G04 #@! TD*
D24*
G04 #@! TO.C,IC1*
X14033300Y-9007300D03*
X14230800Y-9007300D03*
X14230800Y-9204800D03*
X14230800Y-9402300D03*
X14033300Y-9402300D03*
X13835800Y-9402300D03*
X13835800Y-9204800D03*
X13835800Y-9007300D03*
D25*
X13438300Y-8709800D03*
X13438300Y-9699800D03*
X14628300Y-9699800D03*
X14628300Y-8709800D03*
D24*
X14033300Y-9204800D03*
D26*
X13553300Y-8714800D03*
X13633300Y-8714800D03*
X13713300Y-8714800D03*
X13793300Y-8714800D03*
X13873300Y-8714800D03*
X13953300Y-8714800D03*
X14033300Y-8714800D03*
X14113300Y-8714800D03*
X14193300Y-8714800D03*
X14273300Y-8714800D03*
X14353300Y-8714800D03*
X14433300Y-8714800D03*
X14513300Y-8714800D03*
D21*
X14623300Y-8804800D03*
X14623300Y-8884800D03*
X14623300Y-8964800D03*
X14623300Y-9044800D03*
X14623300Y-9124800D03*
X14623300Y-9204800D03*
X14623300Y-9284800D03*
X14623300Y-9364800D03*
X14623300Y-9444800D03*
X14623300Y-9524800D03*
X14623300Y-9604800D03*
D26*
X14513300Y-9694800D03*
X14433300Y-9694800D03*
X14353300Y-9694800D03*
X14273300Y-9694800D03*
X14193300Y-9694800D03*
X14113300Y-9694800D03*
X14033300Y-9694800D03*
X13953300Y-9694800D03*
X13873300Y-9694800D03*
X13793300Y-9694800D03*
X13713300Y-9694800D03*
X13633300Y-9694800D03*
X13553300Y-9694800D03*
D21*
X13443300Y-9604800D03*
X13443300Y-9524800D03*
X13443300Y-9444800D03*
X13443300Y-9364800D03*
X13443300Y-9284800D03*
X13443300Y-9204800D03*
X13443300Y-9124800D03*
X13443300Y-9044800D03*
X13443300Y-8964800D03*
X13443300Y-8884800D03*
X13443300Y-8804800D03*
G04 #@! TD*
G04 #@! TO.C,C6*
G36*
G01*
X15829352Y-8633352D02*
X15829352Y-8683352D01*
G75*
G02*
X15806852Y-8705852I-22500J0D01*
G01*
X15761852Y-8705852D01*
G75*
G02*
X15739352Y-8683352I0J22500D01*
G01*
X15739352Y-8633352D01*
G75*
G02*
X15761852Y-8610852I22500J0D01*
G01*
X15806852Y-8610852D01*
G75*
G02*
X15829352Y-8633352I0J-22500D01*
G01*
G37*
G36*
G01*
X15674352Y-8633352D02*
X15674352Y-8683352D01*
G75*
G02*
X15651852Y-8705852I-22500J0D01*
G01*
X15606852Y-8705852D01*
G75*
G02*
X15584352Y-8683352I0J22500D01*
G01*
X15584352Y-8633352D01*
G75*
G02*
X15606852Y-8610852I22500J0D01*
G01*
X15651852Y-8610852D01*
G75*
G02*
X15674352Y-8633352I0J-22500D01*
G01*
G37*
G04 #@! TD*
D27*
G04 #@! TO.C,J1*
X16214696Y-8832396D03*
D28*
X15849696Y-8975396D03*
D27*
X16214696Y-9696396D03*
D28*
X15849696Y-9553396D03*
D29*
X15796696Y-9696396D03*
X15796696Y-8832396D03*
D30*
X15705196Y-9289396D03*
X15705196Y-9089396D03*
X15705196Y-9139396D03*
X15705196Y-9189396D03*
X15705196Y-9239396D03*
X15705196Y-9339396D03*
X15705196Y-9389396D03*
X15705196Y-9439396D03*
D31*
X15705196Y-8939396D03*
X15705196Y-9019396D03*
X15705196Y-9509396D03*
X15705196Y-9589396D03*
X15705196Y-9589396D03*
X15705196Y-9509396D03*
X15705196Y-9019396D03*
X15705196Y-8939396D03*
G04 #@! TD*
G04 #@! TO.C,R18*
G36*
G01*
X15456340Y-8775274D02*
X15511340Y-8775274D01*
G75*
G02*
X15531340Y-8795274I0J-20000D01*
G01*
X15531340Y-8835274D01*
G75*
G02*
X15511340Y-8855274I-20000J0D01*
G01*
X15456340Y-8855274D01*
G75*
G02*
X15436340Y-8835274I0J20000D01*
G01*
X15436340Y-8795274D01*
G75*
G02*
X15456340Y-8775274I20000J0D01*
G01*
G37*
G36*
G01*
X15456340Y-8610274D02*
X15511340Y-8610274D01*
G75*
G02*
X15531340Y-8630274I0J-20000D01*
G01*
X15531340Y-8670274D01*
G75*
G02*
X15511340Y-8690274I-20000J0D01*
G01*
X15456340Y-8690274D01*
G75*
G02*
X15436340Y-8670274I0J20000D01*
G01*
X15436340Y-8630274D01*
G75*
G02*
X15456340Y-8610274I20000J0D01*
G01*
G37*
G04 #@! TD*
G04 #@! TO.C,R19*
G36*
G01*
X15291998Y-9035356D02*
X15291998Y-8980356D01*
G75*
G02*
X15311998Y-8960356I20000J0D01*
G01*
X15351998Y-8960356D01*
G75*
G02*
X15371998Y-8980356I0J-20000D01*
G01*
X15371998Y-9035356D01*
G75*
G02*
X15351998Y-9055356I-20000J0D01*
G01*
X15311998Y-9055356D01*
G75*
G02*
X15291998Y-9035356I0J20000D01*
G01*
G37*
G36*
G01*
X15456998Y-9035356D02*
X15456998Y-8980356D01*
G75*
G02*
X15476998Y-8960356I20000J0D01*
G01*
X15516998Y-8960356D01*
G75*
G02*
X15536998Y-8980356I0J-20000D01*
G01*
X15536998Y-9035356D01*
G75*
G02*
X15516998Y-9055356I-20000J0D01*
G01*
X15476998Y-9055356D01*
G75*
G02*
X15456998Y-9035356I0J20000D01*
G01*
G37*
G04 #@! TD*
G04 #@! TO.C,R20*
G36*
G01*
X15390186Y-9788584D02*
X15390186Y-9843584D01*
G75*
G02*
X15370186Y-9863584I-20000J0D01*
G01*
X15330186Y-9863584D01*
G75*
G02*
X15310186Y-9843584I0J20000D01*
G01*
X15310186Y-9788584D01*
G75*
G02*
X15330186Y-9768584I20000J0D01*
G01*
X15370186Y-9768584D01*
G75*
G02*
X15390186Y-9788584I0J-20000D01*
G01*
G37*
G36*
G01*
X15225186Y-9788584D02*
X15225186Y-9843584D01*
G75*
G02*
X15205186Y-9863584I-20000J0D01*
G01*
X15165186Y-9863584D01*
G75*
G02*
X15145186Y-9843584I0J20000D01*
G01*
X15145186Y-9788584D01*
G75*
G02*
X15165186Y-9768584I20000J0D01*
G01*
X15205186Y-9768584D01*
G75*
G02*
X15225186Y-9788584I0J-20000D01*
G01*
G37*
G04 #@! TD*
G04 #@! TO.C,F1*
G36*
G01*
X15720386Y-9852181D02*
X15720386Y-9903431D01*
G75*
G02*
X15698511Y-9925306I-21875J0D01*
G01*
X15654761Y-9925306D01*
G75*
G02*
X15632886Y-9903431I0J21875D01*
G01*
X15632886Y-9852181D01*
G75*
G02*
X15654761Y-9830306I21875J0D01*
G01*
X15698511Y-9830306D01*
G75*
G02*
X15720386Y-9852181I0J-21875D01*
G01*
G37*
G36*
G01*
X15562886Y-9852181D02*
X15562886Y-9903431D01*
G75*
G02*
X15541011Y-9925306I-21875J0D01*
G01*
X15497261Y-9925306D01*
G75*
G02*
X15475386Y-9903431I0J21875D01*
G01*
X15475386Y-9852181D01*
G75*
G02*
X15497261Y-9830306I21875J0D01*
G01*
X15541011Y-9830306D01*
G75*
G02*
X15562886Y-9852181I0J-21875D01*
G01*
G37*
G04 #@! TD*
G04 #@! TO.C,JP1*
G36*
G01*
X12680116Y-9608126D02*
X12680116Y-9553126D01*
G75*
G02*
X12700116Y-9533126I20000J0D01*
G01*
X12740116Y-9533126D01*
G75*
G02*
X12760116Y-9553126I0J-20000D01*
G01*
X12760116Y-9608126D01*
G75*
G02*
X12740116Y-9628126I-20000J0D01*
G01*
X12700116Y-9628126D01*
G75*
G02*
X12680116Y-9608126I0J20000D01*
G01*
G37*
G36*
G01*
X12845116Y-9608126D02*
X12845116Y-9553126D01*
G75*
G02*
X12865116Y-9533126I20000J0D01*
G01*
X12905116Y-9533126D01*
G75*
G02*
X12925116Y-9553126I0J-20000D01*
G01*
X12925116Y-9608126D01*
G75*
G02*
X12905116Y-9628126I-20000J0D01*
G01*
X12865116Y-9628126D01*
G75*
G02*
X12845116Y-9608126I0J20000D01*
G01*
G37*
G36*
G01*
X13010116Y-9608126D02*
X13010116Y-9553126D01*
G75*
G02*
X13030116Y-9533126I20000J0D01*
G01*
X13070116Y-9533126D01*
G75*
G02*
X13090116Y-9553126I0J-20000D01*
G01*
X13090116Y-9608126D01*
G75*
G02*
X13070116Y-9628126I-20000J0D01*
G01*
X13030116Y-9628126D01*
G75*
G02*
X13010116Y-9608126I0J20000D01*
G01*
G37*
G04 #@! TD*
M02*
