%TF.GenerationSoftware,KiCad,Pcbnew,(5.1.10)-1*%
%TF.CreationDate,2021-07-16T00:37:00-05:00*%
%TF.ProjectId,temp sensor,74656d70-2073-4656-9e73-6f722e6b6963,0.2*%
%TF.SameCoordinates,Original*%
%TF.FileFunction,Copper,L2,Bot*%
%TF.FilePolarity,Positive*%
%FSLAX46Y46*%
G04 Gerber Fmt 4.6, Leading zero omitted, Abs format (unit mm)*
G04 Created by KiCad (PCBNEW (5.1.10)-1) date 2021-07-16 00:37:00*
%MOMM*%
%LPD*%
G01*
G04 APERTURE LIST*
%TA.AperFunction,ComponentPad*%
%ADD10C,0.100000*%
%TD*%
%TA.AperFunction,ComponentPad*%
%ADD11O,1.700000X1.700000*%
%TD*%
%TA.AperFunction,ComponentPad*%
%ADD12R,1.700000X1.700000*%
%TD*%
%TA.AperFunction,SMDPad,CuDef*%
%ADD13R,1.900000X1.500000*%
%TD*%
%TA.AperFunction,ComponentPad*%
%ADD14C,1.450000*%
%TD*%
%TA.AperFunction,SMDPad,CuDef*%
%ADD15R,1.350000X0.400000*%
%TD*%
%TA.AperFunction,ComponentPad*%
%ADD16O,1.900000X1.200000*%
%TD*%
%TA.AperFunction,SMDPad,CuDef*%
%ADD17R,1.900000X1.200000*%
%TD*%
%TA.AperFunction,ComponentPad*%
%ADD18O,1.600000X1.000000*%
%TD*%
%TA.AperFunction,ComponentPad*%
%ADD19C,0.650000*%
%TD*%
%TA.AperFunction,ComponentPad*%
%ADD20O,2.100000X1.000000*%
%TD*%
%TA.AperFunction,ViaPad*%
%ADD21C,0.800000*%
%TD*%
%TA.AperFunction,ViaPad*%
%ADD22C,0.700000*%
%TD*%
%TA.AperFunction,Conductor*%
%ADD23C,0.200000*%
%TD*%
%TA.AperFunction,Conductor*%
%ADD24C,0.250000*%
%TD*%
%TA.AperFunction,Conductor*%
%ADD25C,0.600000*%
%TD*%
%TA.AperFunction,Conductor*%
%ADD26C,0.152400*%
%TD*%
%TA.AperFunction,Conductor*%
%ADD27C,0.400000*%
%TD*%
%TA.AperFunction,Conductor*%
%ADD28C,0.100000*%
%TD*%
G04 APERTURE END LIST*
%TA.AperFunction,ComponentPad*%
D10*
%TO.P,SW1,MP*%
%TO.N,N/C*%
G36*
X120739168Y-99091064D02*
G01*
X121041051Y-99353488D01*
X121036083Y-99359203D01*
X121050519Y-99367454D01*
X121082526Y-99390179D01*
X121112151Y-99415932D01*
X121139110Y-99444465D01*
X121163142Y-99475503D01*
X121184016Y-99508747D01*
X121201531Y-99543877D01*
X121215518Y-99580555D01*
X121225844Y-99618426D01*
X121232407Y-99657128D01*
X121235145Y-99696286D01*
X121234032Y-99735524D01*
X121229078Y-99774465D01*
X121220331Y-99812732D01*
X121207876Y-99849958D01*
X121191832Y-99885784D01*
X121172353Y-99919864D01*
X121149628Y-99951871D01*
X121123875Y-99981496D01*
X121095342Y-100008455D01*
X121064304Y-100032487D01*
X121031060Y-100053361D01*
X120995930Y-100070876D01*
X120959252Y-100084863D01*
X120921381Y-100095189D01*
X120906433Y-100097724D01*
X121180645Y-100336093D01*
X120754207Y-100826654D01*
X119886291Y-100072187D01*
X120739168Y-99091064D01*
G37*
%TD.AperFunction*%
%TA.AperFunction,ComponentPad*%
G36*
X122916477Y-101845030D02*
G01*
X123190690Y-102083399D01*
X123191120Y-102068244D01*
X123196074Y-102029303D01*
X123204821Y-101991036D01*
X123217276Y-101953810D01*
X123233320Y-101917984D01*
X123252799Y-101883904D01*
X123275524Y-101851897D01*
X123301277Y-101822272D01*
X123329810Y-101795313D01*
X123360848Y-101771281D01*
X123394092Y-101750407D01*
X123429222Y-101732892D01*
X123465900Y-101718905D01*
X123503771Y-101708579D01*
X123542473Y-101702016D01*
X123581631Y-101699278D01*
X123620869Y-101700391D01*
X123659810Y-101705345D01*
X123698077Y-101714092D01*
X123735303Y-101726547D01*
X123771129Y-101742591D01*
X123805209Y-101762070D01*
X123837216Y-101784795D01*
X123866841Y-101810548D01*
X123893800Y-101839081D01*
X123903979Y-101852228D01*
X123908948Y-101846513D01*
X124210832Y-102108936D01*
X123357955Y-103090059D01*
X122490039Y-102335591D01*
X122916477Y-101845030D01*
G37*
%TD.AperFunction*%
%TD*%
D11*
%TO.P,J2,2*%
%TO.N,GND*%
X126832360Y-98966020D03*
D12*
%TO.P,J2,1*%
%TO.N,+3V3*%
X129372360Y-98966020D03*
%TD*%
D13*
%TO.P,J4,6*%
%TO.N,/Shield*%
X163262500Y-93650000D03*
D14*
X160562500Y-90150000D03*
D15*
%TO.P,J4,2*%
%TO.N,/D-*%
X160562500Y-92000000D03*
%TO.P,J4,1*%
%TO.N,/V_USB*%
X160562500Y-91350000D03*
%TO.P,J4,5*%
%TO.N,GND*%
X160562500Y-93950000D03*
%TO.P,J4,4*%
%TO.N,N/C*%
X160562500Y-93300000D03*
%TO.P,J4,3*%
%TO.N,/D+*%
X160562500Y-92650000D03*
D14*
%TO.P,J4,6*%
%TO.N,/Shield*%
X160562500Y-95150000D03*
D13*
X163262500Y-91650000D03*
D16*
X163262500Y-89150000D03*
X163262500Y-96150000D03*
D17*
X163262500Y-95550000D03*
X163262500Y-89750000D03*
%TD*%
D11*
%TO.P,J5,2*%
%TO.N,/RTX0*%
X149750780Y-87508080D03*
D12*
%TO.P,J5,1*%
%TO.N,/TDX0*%
X152290780Y-87508080D03*
%TD*%
D11*
%TO.P,J6,2*%
%TO.N,/RTS*%
X133285000Y-103650000D03*
D12*
%TO.P,J6,1*%
%TO.N,/DTR*%
X135825000Y-103650000D03*
%TD*%
%TA.AperFunction,ComponentPad*%
D10*
%TO.P,SW2,MP*%
%TO.N,N/C*%
G36*
X126287599Y-102909584D02*
G01*
X126685408Y-102951396D01*
X126684617Y-102958927D01*
X126701174Y-102957406D01*
X126740428Y-102957663D01*
X126779466Y-102961766D01*
X126817915Y-102969676D01*
X126855404Y-102981316D01*
X126891571Y-102996575D01*
X126926068Y-103015306D01*
X126958563Y-103037328D01*
X126988744Y-103062428D01*
X127016319Y-103090366D01*
X127041021Y-103120872D01*
X127062616Y-103153653D01*
X127080893Y-103188392D01*
X127095678Y-103224756D01*
X127106827Y-103262394D01*
X127114233Y-103300943D01*
X127117824Y-103340032D01*
X127117567Y-103379286D01*
X127113464Y-103418324D01*
X127105554Y-103456773D01*
X127093914Y-103494262D01*
X127078655Y-103530429D01*
X127059924Y-103564926D01*
X127037902Y-103597421D01*
X127012802Y-103627602D01*
X127002012Y-103638252D01*
X127363356Y-103676231D01*
X127295413Y-104322670D01*
X126151712Y-104202463D01*
X126287599Y-102909584D01*
G37*
%TD.AperFunction*%
%TA.AperFunction,ComponentPad*%
G36*
X129650757Y-103916647D02*
G01*
X130012101Y-103954626D01*
X130003761Y-103941964D01*
X129985484Y-103907225D01*
X129970699Y-103870861D01*
X129959550Y-103833223D01*
X129952144Y-103794674D01*
X129948553Y-103755585D01*
X129948810Y-103716331D01*
X129952913Y-103677293D01*
X129960823Y-103638844D01*
X129972463Y-103601355D01*
X129987722Y-103565188D01*
X130006453Y-103530691D01*
X130028475Y-103498196D01*
X130053575Y-103468015D01*
X130081513Y-103440440D01*
X130112019Y-103415738D01*
X130144800Y-103394143D01*
X130179539Y-103375866D01*
X130215903Y-103361081D01*
X130253541Y-103349932D01*
X130292090Y-103342526D01*
X130331179Y-103338935D01*
X130370433Y-103339192D01*
X130409471Y-103343295D01*
X130447920Y-103351205D01*
X130463800Y-103356135D01*
X130464592Y-103348604D01*
X130862400Y-103390415D01*
X130726513Y-104683294D01*
X129582813Y-104563086D01*
X129650757Y-103916647D01*
G37*
%TD.AperFunction*%
%TD*%
D18*
%TO.P,J1,S1*%
%TO.N,/Shield*%
X162146960Y-88323960D03*
D19*
%TO.P,J1,*%
%TO.N,*%
X158496960Y-89753960D03*
D18*
%TO.P,J1,S1*%
%TO.N,/Shield*%
X162146960Y-96963960D03*
D19*
%TO.P,J1,*%
%TO.N,*%
X158496960Y-95533960D03*
D20*
%TO.P,J1,S1*%
%TO.N,/Shield*%
X157966960Y-96963960D03*
X157966960Y-88323960D03*
%TD*%
D21*
%TO.N,GND*%
X144524000Y-88713000D03*
X138301000Y-90999000D03*
X142238000Y-90999000D03*
X139317000Y-92015000D03*
X159763460Y-102499160D03*
X144905000Y-91126000D03*
X139317000Y-94047000D03*
X141349000Y-92015000D03*
X144016000Y-94047000D03*
X130028995Y-91507005D03*
X141349000Y-88205000D03*
X144651000Y-95444000D03*
X142365000Y-88332000D03*
X145032000Y-93158000D03*
X144016000Y-92015000D03*
X136650000Y-92015000D03*
X136650000Y-90110000D03*
X137158000Y-88078000D03*
X141349000Y-89983000D03*
X143508000Y-88205000D03*
X139317000Y-89983000D03*
X142238000Y-95698000D03*
X140333000Y-90999000D03*
X142238000Y-93031000D03*
X138301000Y-93031000D03*
X140333000Y-88332000D03*
X138301000Y-88332000D03*
X136134000Y-88848000D03*
X141349000Y-94047000D03*
X140333000Y-93031000D03*
X144016000Y-90110000D03*
X139317000Y-88205000D03*
X131155440Y-101490780D03*
X143650000Y-100775000D03*
X119075200Y-87467440D03*
X131407000Y-87971000D03*
X124100000Y-89025000D03*
X118750080Y-96926400D03*
X125737620Y-101577140D03*
X125275000Y-102725000D03*
X131645660Y-103926640D03*
X142725000Y-103500000D03*
X144800000Y-103425000D03*
X147927060Y-97205800D03*
X152974040Y-89054940D03*
X147474940Y-90241120D03*
X148005800Y-87066120D03*
X154061160Y-87317580D03*
X157229659Y-101312840D03*
X157224178Y-102171889D03*
X162956240Y-99070160D03*
X160322260Y-97132140D03*
X119667020Y-98485960D03*
X150164800Y-103532940D03*
X153033000Y-101921000D03*
X156532580Y-97637600D03*
X161411920Y-100838000D03*
X163885880Y-97670620D03*
X155732480Y-103629460D03*
X153032460Y-103520240D03*
X153068020Y-99380040D03*
X149209340Y-103520660D03*
X133088380Y-93535500D03*
X133121400Y-91818460D03*
X133130000Y-87098000D03*
X155160980Y-93921580D03*
X154454860Y-96461580D03*
X152826739Y-94140001D03*
X128869498Y-91469502D03*
X123298000Y-92600000D03*
X131400000Y-98200000D03*
X146200000Y-98200000D03*
X156019000Y-88325010D03*
%TO.N,+3V3*%
X149125000Y-100250000D03*
X149125002Y-99400000D03*
X127475096Y-89499904D03*
X127731499Y-94078738D03*
X127731528Y-94964509D03*
X129606040Y-94376240D03*
%TO.N,/Boot_Option*%
X136025000Y-100300000D03*
X145525000Y-100225000D03*
%TO.N,/EN*%
X135387080Y-93685360D03*
X139661900Y-98549460D03*
D22*
%TO.N,/D-*%
X158199990Y-92321380D03*
%TO.N,/D+*%
X155924287Y-92882797D03*
D21*
%TO.N,Net-(R8-Pad1)*%
X158322534Y-101654722D03*
X147088860Y-102514400D03*
%TO.N,/IO32_pico*%
X119377460Y-90881200D03*
X135464125Y-97874560D03*
%TO.N,/IO33_pico*%
X123224975Y-97009514D03*
X136592730Y-97944014D03*
%TO.N,/IO26_pico*%
X122851096Y-94973904D03*
X137861889Y-98131245D03*
%TO.N,/IO13_pico*%
X141874840Y-98374989D03*
X129624994Y-89600000D03*
X127076821Y-93322817D03*
X132433112Y-92716990D03*
%TO.N,/IO2_pico*%
X132696000Y-90548000D03*
X143575000Y-97800000D03*
X128571254Y-89362980D03*
%TO.N,/V_USB*%
X155977898Y-90181974D03*
X159067500Y-90721180D03*
%TO.N,/CC1*%
X158545529Y-93963010D03*
X151008080Y-97629982D03*
%TD*%
D23*
%TO.N,GND*%
X159291020Y-94396560D02*
X159291020Y-96100900D01*
X160562500Y-93950000D02*
X159737580Y-93950000D01*
X159737580Y-93950000D02*
X159291020Y-94396560D01*
X159291020Y-96100900D02*
X160322260Y-97132140D01*
D24*
X152826739Y-94140001D02*
X152826739Y-96373261D01*
X155160980Y-93921580D02*
X155160980Y-92560980D01*
X155160980Y-92560980D02*
X154200000Y-91600000D01*
D25*
%TO.N,+3V3*%
X149125000Y-99400002D02*
X149125002Y-99400000D01*
X149125000Y-100250000D02*
X149125000Y-99400002D01*
X145242986Y-99275012D02*
X145242999Y-99274999D01*
X148149999Y-99274999D02*
X149125000Y-100250000D01*
X145242999Y-99274999D02*
X148149999Y-99274999D01*
X130480000Y-94555000D02*
X128378000Y-94555000D01*
X128609998Y-94555000D02*
X128378000Y-94555000D01*
D24*
X126351820Y-90623180D02*
X126351820Y-94150526D01*
D25*
X130480000Y-94555000D02*
X130003738Y-94078738D01*
X130003738Y-94078738D02*
X127731499Y-94078738D01*
D24*
X126351820Y-94150526D02*
X127165803Y-94964509D01*
X127475096Y-89499904D02*
X126351820Y-90623180D01*
X127165803Y-94964509D02*
X127731488Y-94964509D01*
D25*
X127731488Y-94964509D02*
X127731528Y-94964509D01*
X127968491Y-94964509D02*
X127731528Y-94964509D01*
X128378000Y-94555000D02*
X127968491Y-94964509D01*
X133993675Y-94555000D02*
X130480000Y-94555000D01*
X145242999Y-99274999D02*
X140354723Y-99274999D01*
X140354723Y-99274999D02*
X140109141Y-99520581D01*
X136032668Y-96593993D02*
X133993675Y-94555000D01*
X137755735Y-96593993D02*
X136032668Y-96593993D01*
X138761899Y-97600157D02*
X137755735Y-96593993D01*
X138761899Y-98981461D02*
X138761899Y-97600157D01*
X139301019Y-99520581D02*
X138761899Y-98981461D01*
X140109141Y-99520581D02*
X139301019Y-99520581D01*
X148559317Y-99400000D02*
X149125002Y-99400000D01*
X148434317Y-99275000D02*
X148559317Y-99400000D01*
X145550000Y-99275000D02*
X148434317Y-99275000D01*
D24*
%TO.N,/Boot_Option*%
X145349999Y-100049999D02*
X140461082Y-100049999D01*
X140211081Y-100300000D02*
X136025000Y-100300000D01*
X140461082Y-100049999D02*
X140211081Y-100300000D01*
X145525000Y-100225000D02*
X145349999Y-100049999D01*
D23*
%TO.N,/EN*%
X137395983Y-95993983D02*
X138004268Y-95993984D01*
X138004268Y-95993984D02*
X139421170Y-97410886D01*
X135387080Y-93985080D02*
X137395983Y-95993983D01*
X135387080Y-93685360D02*
X135387080Y-93985080D01*
X139421170Y-98308730D02*
X139421170Y-97790570D01*
X139661900Y-98549460D02*
X139421170Y-98308730D01*
X139421170Y-97790570D02*
X139421170Y-97892170D01*
X139421170Y-97410886D02*
X139421170Y-97790570D01*
%TO.N,/D-*%
X160562500Y-92000000D02*
X158521370Y-92000000D01*
X158521370Y-92000000D02*
X158199990Y-92321380D01*
D26*
%TO.N,/D+*%
X156274286Y-93232796D02*
X155924287Y-92882797D01*
X158344916Y-93232796D02*
X156274286Y-93232796D01*
X158927712Y-92650000D02*
X158344916Y-93232796D01*
X160562500Y-92650000D02*
X158927712Y-92650000D01*
D24*
%TO.N,Net-(R8-Pad1)*%
X156307010Y-104355410D02*
X148929870Y-104355410D01*
X148929870Y-104355410D02*
X147088860Y-102514400D01*
X158322534Y-102339886D02*
X156307010Y-104355410D01*
X158322534Y-101654722D02*
X158322534Y-102339886D01*
%TO.N,/IO32_pico*%
X134898440Y-97874560D02*
X135464125Y-97874560D01*
X122939687Y-95698906D02*
X123963378Y-96722597D01*
X119377460Y-92573272D02*
X122503094Y-95698906D01*
X133746477Y-96722597D02*
X134898440Y-97874560D01*
X123963378Y-96722597D02*
X133746477Y-96722597D01*
X122503094Y-95698906D02*
X122939687Y-95698906D01*
X119377460Y-90881200D02*
X119377460Y-92573272D01*
%TO.N,/IO33_pico*%
X123224975Y-97009514D02*
X123624974Y-97409513D01*
X132280368Y-97409513D02*
X133472334Y-98601479D01*
X133472334Y-98601479D02*
X135935265Y-98601479D01*
X135935265Y-98601479D02*
X136592730Y-97944014D01*
X123624974Y-97409513D02*
X132280368Y-97409513D01*
%TO.N,/IO26_pico*%
X135773780Y-97219004D02*
X136949648Y-97219004D01*
X136949648Y-97219004D02*
X137861889Y-98131245D01*
X134388664Y-95833888D02*
X135773780Y-97219004D01*
X122851096Y-94973904D02*
X123711080Y-95833888D01*
X123711080Y-95833888D02*
X134388664Y-95833888D01*
%TO.N,/IO13_pico*%
X127076821Y-92148173D02*
X127076821Y-93322817D01*
X132433112Y-92408118D02*
X132433112Y-92716990D01*
X136216841Y-92716990D02*
X132433112Y-92716990D01*
X141874840Y-98374989D02*
X136216841Y-92716990D01*
X129939887Y-89914893D02*
X132433112Y-92408118D01*
X129624994Y-89600000D02*
X129939887Y-89914893D01*
X129624994Y-89600000D02*
X129223837Y-90001157D01*
X129223837Y-90001157D02*
X127076821Y-92148173D01*
X129920040Y-89934740D02*
X129939887Y-89914893D01*
X129607000Y-89934740D02*
X129920040Y-89934740D01*
X129540583Y-90001157D02*
X129607000Y-89934740D01*
X129223837Y-90001157D02*
X129540583Y-90001157D01*
%TO.N,/IO2_pico*%
X132938413Y-90548000D02*
X132696000Y-90548000D01*
X132696000Y-90548000D02*
X131022998Y-88874998D01*
X131022998Y-88874998D02*
X129059236Y-88874998D01*
X129059236Y-88874998D02*
X128571254Y-89362980D01*
X133095999Y-90947999D02*
X132696000Y-90548000D01*
X137375001Y-91666999D02*
X136656001Y-90947999D01*
X141582171Y-97400001D02*
X137375001Y-93192831D01*
X136656001Y-90947999D02*
X133095999Y-90947999D01*
X143175001Y-97400001D02*
X141582171Y-97400001D01*
X137375001Y-93192831D02*
X137375001Y-91666999D01*
X143575000Y-97800000D02*
X143175001Y-97400001D01*
D27*
%TO.N,/Shield*%
X163262500Y-95550000D02*
X163262500Y-89150000D01*
D25*
%TO.N,/V_USB*%
X155977898Y-90181974D02*
X156517104Y-90721180D01*
X156517104Y-90721180D02*
X159067500Y-90721180D01*
D27*
X160562500Y-91350000D02*
X159696320Y-91350000D01*
X159696320Y-91350000D02*
X159067500Y-90721180D01*
D23*
%TO.N,/CC1*%
X154878557Y-97629982D02*
X151008080Y-97629982D01*
X158545529Y-93963010D02*
X154878557Y-97629982D01*
%TD*%
D28*
%TO.N,GND*%
X158403679Y-86191777D02*
X159364325Y-86956824D01*
X160229042Y-87843965D01*
X160304498Y-87934970D01*
X160335694Y-88023893D01*
X160387746Y-88112148D01*
X160455949Y-88188613D01*
X160537705Y-88250373D01*
X160629900Y-88295077D01*
X160729023Y-88321023D01*
X160736270Y-88322128D01*
X160894447Y-88345114D01*
X160910706Y-88510192D01*
X160965028Y-88689268D01*
X161053242Y-88854305D01*
X161171959Y-88998961D01*
X161316615Y-89117678D01*
X161481652Y-89205892D01*
X161660728Y-89260214D01*
X161800295Y-89273960D01*
X161860323Y-89273960D01*
X161860323Y-90350000D01*
X161869011Y-90438215D01*
X161894743Y-90523041D01*
X161936529Y-90601216D01*
X161956048Y-90625000D01*
X161936529Y-90648784D01*
X161894743Y-90726959D01*
X161869011Y-90811785D01*
X161860323Y-90900000D01*
X161860323Y-92400000D01*
X161869011Y-92488215D01*
X161894743Y-92573041D01*
X161935879Y-92650000D01*
X161894743Y-92726959D01*
X161869011Y-92811785D01*
X161860323Y-92900000D01*
X161860323Y-94400000D01*
X161869011Y-94488215D01*
X161894743Y-94573041D01*
X161936529Y-94651216D01*
X161956048Y-94675000D01*
X161936529Y-94698784D01*
X161894743Y-94776959D01*
X161869011Y-94861785D01*
X161860323Y-94950000D01*
X161860323Y-96013960D01*
X161800295Y-96013960D01*
X161660728Y-96027706D01*
X161481652Y-96082028D01*
X161316615Y-96170242D01*
X161171959Y-96288959D01*
X161053242Y-96433615D01*
X160965028Y-96598652D01*
X160910706Y-96777728D01*
X160892364Y-96963960D01*
X160910706Y-97150192D01*
X160965028Y-97329268D01*
X161053242Y-97494305D01*
X161171959Y-97638961D01*
X161316615Y-97757678D01*
X161481652Y-97845892D01*
X161660728Y-97900214D01*
X161800295Y-97913960D01*
X162493625Y-97913960D01*
X162633192Y-97900214D01*
X162812268Y-97845892D01*
X162977305Y-97757678D01*
X163121961Y-97638961D01*
X163240678Y-97494305D01*
X163328892Y-97329268D01*
X163368105Y-97200000D01*
X163664078Y-97200000D01*
X163818336Y-97184807D01*
X164016262Y-97124767D01*
X164198671Y-97027267D01*
X164241993Y-96991713D01*
X164241999Y-97066710D01*
X164239703Y-97090041D01*
X164242002Y-97113363D01*
X164242002Y-97113365D01*
X164248880Y-97183149D01*
X164248882Y-97183155D01*
X164248882Y-97183156D01*
X164276050Y-97272692D01*
X164306029Y-97328767D01*
X164320160Y-97355201D01*
X164320164Y-97355207D01*
X164343690Y-97383868D01*
X164379524Y-97427525D01*
X164379527Y-97427527D01*
X164379529Y-97427530D01*
X164410730Y-97453131D01*
X164451856Y-97486877D01*
X164451862Y-97486881D01*
X164466156Y-97494520D01*
X164168359Y-98158696D01*
X163476443Y-99326340D01*
X162656795Y-100408145D01*
X161719945Y-101390217D01*
X160677956Y-102259911D01*
X159544200Y-103006067D01*
X158333270Y-103619078D01*
X157575428Y-103900165D01*
X158709146Y-102766447D01*
X158731088Y-102748440D01*
X158765316Y-102706733D01*
X158802942Y-102660885D01*
X158856335Y-102560994D01*
X158864702Y-102533411D01*
X158889214Y-102452606D01*
X158897534Y-102368132D01*
X158897534Y-102368130D01*
X158900316Y-102339887D01*
X158897534Y-102311644D01*
X158897534Y-102281804D01*
X158982772Y-102196566D01*
X159075794Y-102057348D01*
X159139869Y-101902658D01*
X159172534Y-101738440D01*
X159172534Y-101571004D01*
X159139869Y-101406786D01*
X159075794Y-101252096D01*
X158982772Y-101112878D01*
X158864378Y-100994484D01*
X158725160Y-100901462D01*
X158570470Y-100837387D01*
X158406252Y-100804722D01*
X158238816Y-100804722D01*
X158074598Y-100837387D01*
X157919908Y-100901462D01*
X157780690Y-100994484D01*
X157662296Y-101112878D01*
X157569274Y-101252096D01*
X157505199Y-101406786D01*
X157472534Y-101571004D01*
X157472534Y-101738440D01*
X157505199Y-101902658D01*
X157569274Y-102057348D01*
X157658445Y-102190802D01*
X156068838Y-103780410D01*
X149168043Y-103780410D01*
X147938860Y-102551228D01*
X147938860Y-102430682D01*
X147906195Y-102266464D01*
X147842120Y-102111774D01*
X147749098Y-101972556D01*
X147630704Y-101854162D01*
X147491486Y-101761140D01*
X147336796Y-101697065D01*
X147172578Y-101664400D01*
X147005142Y-101664400D01*
X146840924Y-101697065D01*
X146686234Y-101761140D01*
X146547016Y-101854162D01*
X146428622Y-101972556D01*
X146335600Y-102111774D01*
X146271525Y-102266464D01*
X146238860Y-102430682D01*
X146238860Y-102598118D01*
X146271525Y-102762336D01*
X146335600Y-102917026D01*
X146428622Y-103056244D01*
X146547016Y-103174638D01*
X146686234Y-103267660D01*
X146840924Y-103331735D01*
X147005142Y-103364400D01*
X147125688Y-103364400D01*
X148381483Y-104620196D01*
X137109321Y-104618438D01*
X137118489Y-104588215D01*
X137127177Y-104500000D01*
X137127177Y-102800000D01*
X137118489Y-102711785D01*
X137092757Y-102626959D01*
X137050971Y-102548784D01*
X136994737Y-102480263D01*
X136926216Y-102424029D01*
X136848041Y-102382243D01*
X136763215Y-102356511D01*
X136675000Y-102347823D01*
X134975000Y-102347823D01*
X134886785Y-102356511D01*
X134801959Y-102382243D01*
X134723784Y-102424029D01*
X134655263Y-102480263D01*
X134599029Y-102548784D01*
X134557243Y-102626959D01*
X134531511Y-102711785D01*
X134522823Y-102800000D01*
X134522823Y-103241305D01*
X134437045Y-103034219D01*
X134294776Y-102821298D01*
X134113702Y-102640224D01*
X133900781Y-102497955D01*
X133664196Y-102399958D01*
X133413039Y-102350000D01*
X133156961Y-102350000D01*
X132905804Y-102399958D01*
X132669219Y-102497955D01*
X132456298Y-102640224D01*
X132275224Y-102821298D01*
X132132955Y-103034219D01*
X132034958Y-103270804D01*
X131985000Y-103521961D01*
X131985000Y-103778039D01*
X132034958Y-104029196D01*
X132132955Y-104265781D01*
X132275224Y-104478702D01*
X132414228Y-104617706D01*
X131188094Y-104617515D01*
X131312100Y-103437680D01*
X131312680Y-103349040D01*
X131295956Y-103261989D01*
X131262571Y-103179875D01*
X131213807Y-103105851D01*
X131151539Y-103042762D01*
X131078160Y-102993034D01*
X130996489Y-102958577D01*
X130909665Y-102940715D01*
X130511857Y-102898904D01*
X130484050Y-102898721D01*
X130476062Y-102897078D01*
X130398078Y-102888881D01*
X130309428Y-102888301D01*
X130231343Y-102895477D01*
X130144303Y-102912199D01*
X130069118Y-102934469D01*
X129986994Y-102967858D01*
X129917600Y-103004369D01*
X129843582Y-103053129D01*
X129782643Y-103102476D01*
X129719556Y-103164742D01*
X129669414Y-103225030D01*
X129619682Y-103298416D01*
X129582267Y-103367327D01*
X129547811Y-103448995D01*
X129538169Y-103480048D01*
X129522332Y-103483091D01*
X129440217Y-103516476D01*
X129366193Y-103565239D01*
X129303105Y-103627507D01*
X129253376Y-103700886D01*
X129218919Y-103782557D01*
X129201057Y-103869381D01*
X129133113Y-104515820D01*
X129132574Y-104598223D01*
X128346920Y-104572846D01*
X127717265Y-104480428D01*
X127727251Y-104456759D01*
X127745113Y-104369935D01*
X127813056Y-103723496D01*
X127813636Y-103634856D01*
X127796912Y-103547806D01*
X127763527Y-103465691D01*
X127714764Y-103391667D01*
X127652496Y-103328579D01*
X127579116Y-103278850D01*
X127564258Y-103272581D01*
X127561282Y-103240196D01*
X127544560Y-103153156D01*
X127522290Y-103077971D01*
X127488901Y-102995847D01*
X127452390Y-102926453D01*
X127403630Y-102852435D01*
X127354283Y-102791496D01*
X127292017Y-102728409D01*
X127231729Y-102678267D01*
X127158343Y-102628535D01*
X127089432Y-102591120D01*
X127007764Y-102556664D01*
X126932877Y-102533411D01*
X126846057Y-102515549D01*
X126768073Y-102507352D01*
X126759908Y-102507299D01*
X126732674Y-102501696D01*
X126334865Y-102459884D01*
X126246224Y-102459304D01*
X126159174Y-102476028D01*
X126077059Y-102509413D01*
X126003035Y-102558176D01*
X125939946Y-102620444D01*
X125890218Y-102693824D01*
X125855761Y-102775495D01*
X125837899Y-102862319D01*
X125714761Y-104033897D01*
X125692134Y-104027898D01*
X124428015Y-103533768D01*
X123840998Y-103223613D01*
X124552094Y-102405591D01*
X124603412Y-102333313D01*
X124639642Y-102252413D01*
X124659394Y-102166000D01*
X124661907Y-102077393D01*
X124647086Y-101989999D01*
X124615500Y-101907175D01*
X124568363Y-101832105D01*
X124507486Y-101767673D01*
X124205602Y-101505250D01*
X124182927Y-101489150D01*
X124177325Y-101483221D01*
X124118145Y-101431777D01*
X124045867Y-101380460D01*
X123977788Y-101341550D01*
X123896896Y-101305322D01*
X123822535Y-101280440D01*
X123736111Y-101260686D01*
X123658324Y-101250791D01*
X123569721Y-101248278D01*
X123491498Y-101253748D01*
X123404110Y-101268567D01*
X123328458Y-101289191D01*
X123245624Y-101320781D01*
X123175449Y-101355770D01*
X123100385Y-101402904D01*
X123074674Y-101422812D01*
X123059955Y-101416220D01*
X122973541Y-101396468D01*
X122884935Y-101393954D01*
X122797540Y-101408775D01*
X122714717Y-101440361D01*
X122639646Y-101487498D01*
X122575215Y-101548375D01*
X122148777Y-102038936D01*
X122097459Y-102111213D01*
X122092918Y-102121353D01*
X121080763Y-101246143D01*
X121026383Y-101187109D01*
X121031038Y-101184186D01*
X121095469Y-101123309D01*
X121521907Y-100632748D01*
X121573224Y-100560471D01*
X121609455Y-100479571D01*
X121629207Y-100393158D01*
X121631721Y-100304551D01*
X121616900Y-100217157D01*
X121585314Y-100134333D01*
X121576738Y-100120674D01*
X121592873Y-100092443D01*
X121629101Y-100011551D01*
X121653983Y-99937190D01*
X121673737Y-99850766D01*
X121683632Y-99772979D01*
X121686145Y-99684376D01*
X121680675Y-99606153D01*
X121665856Y-99518765D01*
X121645232Y-99443113D01*
X121613642Y-99360279D01*
X121580181Y-99293168D01*
X125725695Y-99293168D01*
X125810783Y-99502782D01*
X125935129Y-99691768D01*
X126093955Y-99852864D01*
X126281158Y-99979879D01*
X126489543Y-100067932D01*
X126505213Y-100072678D01*
X126682360Y-100033533D01*
X126682360Y-99116020D01*
X126982360Y-99116020D01*
X126982360Y-100033533D01*
X127159507Y-100072678D01*
X127175177Y-100067932D01*
X127383562Y-99979879D01*
X127570765Y-99852864D01*
X127729591Y-99691768D01*
X127853937Y-99502782D01*
X127939025Y-99293168D01*
X127900577Y-99116020D01*
X126982360Y-99116020D01*
X126682360Y-99116020D01*
X125764143Y-99116020D01*
X125725695Y-99293168D01*
X121580181Y-99293168D01*
X121578653Y-99290104D01*
X121531519Y-99215040D01*
X121483513Y-99153039D01*
X121422635Y-99088605D01*
X121363455Y-99037161D01*
X121356805Y-99032439D01*
X121337707Y-99012226D01*
X121035824Y-98749802D01*
X120963546Y-98698484D01*
X120882646Y-98662254D01*
X120796232Y-98642502D01*
X120707626Y-98639988D01*
X120620231Y-98654809D01*
X120537408Y-98686395D01*
X120462337Y-98733532D01*
X120397906Y-98794409D01*
X119692334Y-99606077D01*
X119360552Y-99151925D01*
X118689117Y-97972384D01*
X118155533Y-96724430D01*
X117766643Y-95424075D01*
X117527462Y-94088072D01*
X117441056Y-92733568D01*
X117508541Y-91377995D01*
X117604123Y-90797482D01*
X118527460Y-90797482D01*
X118527460Y-90964918D01*
X118560125Y-91129136D01*
X118624200Y-91283826D01*
X118717222Y-91423044D01*
X118802460Y-91508282D01*
X118802461Y-92545019D01*
X118799678Y-92573272D01*
X118810781Y-92685991D01*
X118843659Y-92794379D01*
X118897052Y-92894270D01*
X118933020Y-92938097D01*
X118968907Y-92981826D01*
X118990849Y-92999833D01*
X122076533Y-96085518D01*
X122094540Y-96107460D01*
X122116480Y-96125465D01*
X122182095Y-96179314D01*
X122281986Y-96232707D01*
X122390374Y-96265586D01*
X122474848Y-96273906D01*
X122474851Y-96273906D01*
X122503094Y-96276688D01*
X122531337Y-96273906D01*
X122701515Y-96273906D01*
X122739332Y-96311724D01*
X122683131Y-96349276D01*
X122564737Y-96467670D01*
X122471715Y-96606888D01*
X122407640Y-96761578D01*
X122374975Y-96925796D01*
X122374975Y-97093232D01*
X122407640Y-97257450D01*
X122471715Y-97412140D01*
X122564737Y-97551358D01*
X122683131Y-97669752D01*
X122822349Y-97762774D01*
X122977039Y-97826849D01*
X123141257Y-97859514D01*
X123266924Y-97859514D01*
X123303975Y-97889921D01*
X123392098Y-97937024D01*
X123403866Y-97943314D01*
X123512254Y-97976193D01*
X123596728Y-97984513D01*
X123596730Y-97984513D01*
X123624973Y-97987295D01*
X123653216Y-97984513D01*
X126233476Y-97984513D01*
X126093955Y-98079176D01*
X125935129Y-98240272D01*
X125810783Y-98429258D01*
X125725695Y-98638872D01*
X125764143Y-98816020D01*
X126682360Y-98816020D01*
X126682360Y-98796020D01*
X126982360Y-98796020D01*
X126982360Y-98816020D01*
X127900577Y-98816020D01*
X127939025Y-98638872D01*
X127853937Y-98429258D01*
X127729591Y-98240272D01*
X127570765Y-98079176D01*
X127431244Y-97984513D01*
X128092004Y-97984513D01*
X128078871Y-98027805D01*
X128070183Y-98116020D01*
X128070183Y-99816020D01*
X128078871Y-99904235D01*
X128104603Y-99989061D01*
X128146389Y-100067236D01*
X128202623Y-100135757D01*
X128271144Y-100191991D01*
X128349319Y-100233777D01*
X128434145Y-100259509D01*
X128522360Y-100268197D01*
X130222360Y-100268197D01*
X130310575Y-100259509D01*
X130395401Y-100233777D01*
X130473576Y-100191991D01*
X130542097Y-100135757D01*
X130598331Y-100067236D01*
X130640117Y-99989061D01*
X130665849Y-99904235D01*
X130674537Y-99816020D01*
X130674537Y-98116020D01*
X130665849Y-98027805D01*
X130652716Y-97984513D01*
X132042196Y-97984513D01*
X133045768Y-98988085D01*
X133063780Y-99010033D01*
X133126572Y-99061564D01*
X133151335Y-99081887D01*
X133169324Y-99091502D01*
X133251226Y-99135280D01*
X133359614Y-99168159D01*
X133444088Y-99176479D01*
X133444090Y-99176479D01*
X133472333Y-99179261D01*
X133500576Y-99176479D01*
X135907022Y-99176479D01*
X135935265Y-99179261D01*
X135963508Y-99176479D01*
X135963511Y-99176479D01*
X136047985Y-99168159D01*
X136156373Y-99135280D01*
X136256263Y-99081887D01*
X136343819Y-99010033D01*
X136361830Y-98988086D01*
X136555902Y-98794014D01*
X136676448Y-98794014D01*
X136840666Y-98761349D01*
X136995356Y-98697274D01*
X137134574Y-98604252D01*
X137147212Y-98591614D01*
X137201651Y-98673089D01*
X137320045Y-98791483D01*
X137459263Y-98884505D01*
X137613953Y-98948580D01*
X137778171Y-98981245D01*
X137945607Y-98981245D01*
X138009546Y-98968527D01*
X138008272Y-98981461D01*
X138011899Y-99018288D01*
X138011899Y-99018295D01*
X138022752Y-99128486D01*
X138065638Y-99269861D01*
X138135280Y-99400153D01*
X138229004Y-99514356D01*
X138257618Y-99537839D01*
X138444779Y-99725000D01*
X136652082Y-99725000D01*
X136566844Y-99639762D01*
X136427626Y-99546740D01*
X136272936Y-99482665D01*
X136108718Y-99450000D01*
X135941282Y-99450000D01*
X135777064Y-99482665D01*
X135622374Y-99546740D01*
X135483156Y-99639762D01*
X135364762Y-99758156D01*
X135271740Y-99897374D01*
X135207665Y-100052064D01*
X135175000Y-100216282D01*
X135175000Y-100383718D01*
X135207665Y-100547936D01*
X135271740Y-100702626D01*
X135364762Y-100841844D01*
X135483156Y-100960238D01*
X135622374Y-101053260D01*
X135777064Y-101117335D01*
X135941282Y-101150000D01*
X136108718Y-101150000D01*
X136272936Y-101117335D01*
X136427626Y-101053260D01*
X136566844Y-100960238D01*
X136652082Y-100875000D01*
X140182838Y-100875000D01*
X140211081Y-100877782D01*
X140239324Y-100875000D01*
X140239327Y-100875000D01*
X140323801Y-100866680D01*
X140432189Y-100833801D01*
X140532079Y-100780408D01*
X140619635Y-100708554D01*
X140637647Y-100686606D01*
X140699254Y-100624999D01*
X144770652Y-100624999D01*
X144771740Y-100627626D01*
X144864762Y-100766844D01*
X144983156Y-100885238D01*
X145122374Y-100978260D01*
X145277064Y-101042335D01*
X145441282Y-101075000D01*
X145608718Y-101075000D01*
X145772936Y-101042335D01*
X145927626Y-100978260D01*
X146066844Y-100885238D01*
X146185238Y-100766844D01*
X146278260Y-100627626D01*
X146342335Y-100472936D01*
X146375000Y-100308718D01*
X146375000Y-100141282D01*
X146351870Y-100025000D01*
X147839341Y-100025000D01*
X148306520Y-100492180D01*
X148307665Y-100497936D01*
X148371740Y-100652626D01*
X148464762Y-100791844D01*
X148583156Y-100910238D01*
X148722374Y-101003260D01*
X148877064Y-101067335D01*
X149041282Y-101100000D01*
X149208718Y-101100000D01*
X149372936Y-101067335D01*
X149527626Y-101003260D01*
X149666844Y-100910238D01*
X149785238Y-100791844D01*
X149878260Y-100652626D01*
X149942335Y-100497936D01*
X149975000Y-100333718D01*
X149975000Y-100166282D01*
X149942335Y-100002064D01*
X149878260Y-99847374D01*
X149875000Y-99842495D01*
X149875000Y-99807508D01*
X149878262Y-99802626D01*
X149942337Y-99647936D01*
X149975002Y-99483718D01*
X149975002Y-99316282D01*
X149942337Y-99152064D01*
X149878262Y-98997374D01*
X149785240Y-98858156D01*
X149666846Y-98739762D01*
X149527628Y-98646740D01*
X149372938Y-98582665D01*
X149208720Y-98550000D01*
X149041284Y-98550000D01*
X148877066Y-98582665D01*
X148794245Y-98616971D01*
X148722718Y-98578739D01*
X148581343Y-98535853D01*
X148471152Y-98525000D01*
X148471144Y-98525000D01*
X148434317Y-98521373D01*
X148397490Y-98525000D01*
X148186844Y-98525000D01*
X148186834Y-98524999D01*
X148186826Y-98524999D01*
X148149999Y-98521372D01*
X148113172Y-98524999D01*
X145279823Y-98524999D01*
X145242998Y-98521372D01*
X145206173Y-98524999D01*
X144019922Y-98524999D01*
X144116844Y-98460238D01*
X144235238Y-98341844D01*
X144328260Y-98202626D01*
X144392335Y-98047936D01*
X144425000Y-97883718D01*
X144425000Y-97716282D01*
X144392335Y-97552064D01*
X144328260Y-97397374D01*
X144235238Y-97258156D01*
X144116844Y-97139762D01*
X143977626Y-97046740D01*
X143822936Y-96982665D01*
X143658718Y-96950000D01*
X143533051Y-96950000D01*
X143495999Y-96919593D01*
X143396109Y-96866200D01*
X143287721Y-96833321D01*
X143203247Y-96825001D01*
X143203244Y-96825001D01*
X143175001Y-96822219D01*
X143146758Y-96825001D01*
X141820344Y-96825001D01*
X139695343Y-94700000D01*
X145350000Y-94700000D01*
X145350000Y-94900000D01*
X145350314Y-94905598D01*
X145367864Y-95061363D01*
X145370356Y-95072279D01*
X145422128Y-95220233D01*
X145426986Y-95230321D01*
X145510382Y-95363045D01*
X145517363Y-95371798D01*
X145628202Y-95482637D01*
X145636955Y-95489618D01*
X145769679Y-95573014D01*
X145779767Y-95577872D01*
X145927721Y-95629644D01*
X145938637Y-95632136D01*
X146094402Y-95649686D01*
X146100000Y-95650000D01*
X146494773Y-95650000D01*
X146682186Y-95668426D01*
X146860070Y-95722285D01*
X147026228Y-95810912D01*
X147720340Y-96273653D01*
X147724544Y-96276167D01*
X147897206Y-96368263D01*
X147906248Y-96372001D01*
X148093538Y-96428708D01*
X148103135Y-96430613D01*
X148297884Y-96449760D01*
X148302776Y-96450000D01*
X150496725Y-96450000D01*
X150616357Y-96465750D01*
X150724786Y-96510663D01*
X150817893Y-96582107D01*
X150889337Y-96675214D01*
X150932734Y-96779982D01*
X150924362Y-96779982D01*
X150760144Y-96812647D01*
X150605454Y-96876722D01*
X150466236Y-96969744D01*
X150347842Y-97088138D01*
X150254820Y-97227356D01*
X150190745Y-97382046D01*
X150158080Y-97546264D01*
X150158080Y-97713700D01*
X150190745Y-97877918D01*
X150254820Y-98032608D01*
X150347842Y-98171826D01*
X150466236Y-98290220D01*
X150605454Y-98383242D01*
X150760144Y-98447317D01*
X150924362Y-98479982D01*
X151091798Y-98479982D01*
X151256016Y-98447317D01*
X151410706Y-98383242D01*
X151549924Y-98290220D01*
X151660162Y-98179982D01*
X154851549Y-98179982D01*
X154878557Y-98182642D01*
X154905565Y-98179982D01*
X154905575Y-98179982D01*
X154986376Y-98172024D01*
X155090051Y-98140574D01*
X155185599Y-98089503D01*
X155269347Y-98020772D01*
X155286570Y-97999786D01*
X156477656Y-96808700D01*
X156462364Y-96963960D01*
X156480706Y-97150192D01*
X156535028Y-97329268D01*
X156623242Y-97494305D01*
X156741959Y-97638961D01*
X156886615Y-97757678D01*
X157051652Y-97845892D01*
X157230728Y-97900214D01*
X157370295Y-97913960D01*
X158563625Y-97913960D01*
X158703192Y-97900214D01*
X158882268Y-97845892D01*
X159047305Y-97757678D01*
X159191961Y-97638961D01*
X159310678Y-97494305D01*
X159398892Y-97329268D01*
X159453214Y-97150192D01*
X159471556Y-96963960D01*
X159453214Y-96777728D01*
X159398892Y-96598652D01*
X159310678Y-96433615D01*
X159191961Y-96288959D01*
X159047305Y-96170242D01*
X158987501Y-96138276D01*
X158990994Y-96135942D01*
X159098942Y-96027994D01*
X159183756Y-95901060D01*
X159242177Y-95760019D01*
X159271960Y-95610291D01*
X159271960Y-95457629D01*
X159242177Y-95307901D01*
X159183756Y-95166860D01*
X159098942Y-95039926D01*
X159093289Y-95034273D01*
X159387500Y-95034273D01*
X159387500Y-95265727D01*
X159432655Y-95492735D01*
X159521229Y-95706571D01*
X159649818Y-95899019D01*
X159813481Y-96062682D01*
X160005929Y-96191271D01*
X160219765Y-96279845D01*
X160446773Y-96325000D01*
X160678227Y-96325000D01*
X160905235Y-96279845D01*
X161119071Y-96191271D01*
X161311519Y-96062682D01*
X161475182Y-95899019D01*
X161603771Y-95706571D01*
X161692345Y-95492735D01*
X161737500Y-95265727D01*
X161737500Y-95034273D01*
X161692345Y-94807265D01*
X161603771Y-94593429D01*
X161475182Y-94400981D01*
X161446452Y-94372251D01*
X161450079Y-94369369D01*
X161488791Y-94323682D01*
X161517846Y-94271320D01*
X161536128Y-94214296D01*
X161541500Y-94176000D01*
X161465500Y-94100000D01*
X161097997Y-94100000D01*
X160905235Y-94020155D01*
X160678227Y-93975000D01*
X160446773Y-93975000D01*
X160219765Y-94020155D01*
X160027003Y-94100000D01*
X159659500Y-94100000D01*
X159583500Y-94176000D01*
X159588872Y-94214296D01*
X159607154Y-94271320D01*
X159636209Y-94323682D01*
X159674921Y-94369369D01*
X159678548Y-94372251D01*
X159649818Y-94400981D01*
X159521229Y-94593429D01*
X159432655Y-94807265D01*
X159387500Y-95034273D01*
X159093289Y-95034273D01*
X158990994Y-94931978D01*
X158864060Y-94847164D01*
X158732176Y-94792536D01*
X158793465Y-94780345D01*
X158948155Y-94716270D01*
X159087373Y-94623248D01*
X159205767Y-94504854D01*
X159298789Y-94365636D01*
X159362864Y-94210946D01*
X159395529Y-94046728D01*
X159395529Y-93879292D01*
X159362864Y-93715074D01*
X159335909Y-93650000D01*
X159462754Y-93650000D01*
X159469743Y-93673041D01*
X159511529Y-93751216D01*
X159567763Y-93819737D01*
X159636284Y-93875971D01*
X159714459Y-93917757D01*
X159799285Y-93943489D01*
X159887500Y-93952177D01*
X161237500Y-93952177D01*
X161325715Y-93943489D01*
X161410541Y-93917757D01*
X161488716Y-93875971D01*
X161557237Y-93819737D01*
X161613471Y-93751216D01*
X161655257Y-93673041D01*
X161680989Y-93588215D01*
X161689677Y-93500000D01*
X161689677Y-93100000D01*
X161680989Y-93011785D01*
X161669830Y-92975000D01*
X161680989Y-92938215D01*
X161689677Y-92850000D01*
X161689677Y-92450000D01*
X161680989Y-92361785D01*
X161669830Y-92325000D01*
X161680989Y-92288215D01*
X161689677Y-92200000D01*
X161689677Y-91800000D01*
X161680989Y-91711785D01*
X161669830Y-91675000D01*
X161680989Y-91638215D01*
X161689677Y-91550000D01*
X161689677Y-91150000D01*
X161680989Y-91061785D01*
X161655257Y-90976959D01*
X161613471Y-90898784D01*
X161557237Y-90830263D01*
X161533913Y-90811121D01*
X161603771Y-90706571D01*
X161692345Y-90492735D01*
X161737500Y-90265727D01*
X161737500Y-90034273D01*
X161692345Y-89807265D01*
X161603771Y-89593429D01*
X161475182Y-89400981D01*
X161311519Y-89237318D01*
X161119071Y-89108729D01*
X160905235Y-89020155D01*
X160678227Y-88975000D01*
X160446773Y-88975000D01*
X160219765Y-89020155D01*
X160005929Y-89108729D01*
X159813481Y-89237318D01*
X159649818Y-89400981D01*
X159521229Y-89593429D01*
X159432655Y-89807265D01*
X159405983Y-89941351D01*
X159315436Y-89903845D01*
X159259541Y-89892727D01*
X159271960Y-89830291D01*
X159271960Y-89677629D01*
X159242177Y-89527901D01*
X159183756Y-89386860D01*
X159098942Y-89259926D01*
X158990994Y-89151978D01*
X158987501Y-89149644D01*
X159047305Y-89117678D01*
X159191961Y-88998961D01*
X159310678Y-88854305D01*
X159398892Y-88689268D01*
X159453214Y-88510192D01*
X159471556Y-88323960D01*
X159453214Y-88137728D01*
X159398892Y-87958652D01*
X159310678Y-87793615D01*
X159191961Y-87648959D01*
X159047305Y-87530242D01*
X158882268Y-87442028D01*
X158703192Y-87387706D01*
X158563625Y-87373960D01*
X157370295Y-87373960D01*
X157230728Y-87387706D01*
X157051652Y-87442028D01*
X156886615Y-87530242D01*
X156741959Y-87648959D01*
X156623242Y-87793615D01*
X156535028Y-87958652D01*
X156480706Y-88137728D01*
X156462364Y-88323960D01*
X156480706Y-88510192D01*
X156535028Y-88689268D01*
X156623242Y-88854305D01*
X156741959Y-88998961D01*
X156886615Y-89117678D01*
X157051652Y-89205892D01*
X157230728Y-89260214D01*
X157370295Y-89273960D01*
X157885601Y-89273960D01*
X157810164Y-89386860D01*
X157751743Y-89527901D01*
X157721960Y-89677629D01*
X157721960Y-89830291D01*
X157749985Y-89971180D01*
X156827764Y-89971180D01*
X156796378Y-89939794D01*
X156795233Y-89934038D01*
X156731158Y-89779348D01*
X156638136Y-89640130D01*
X156519742Y-89521736D01*
X156380524Y-89428714D01*
X156225834Y-89364639D01*
X156061616Y-89331974D01*
X155894180Y-89331974D01*
X155729962Y-89364639D01*
X155575272Y-89428714D01*
X155436054Y-89521736D01*
X155317660Y-89640130D01*
X155224638Y-89779348D01*
X155160563Y-89934038D01*
X155127898Y-90098256D01*
X155127898Y-90265692D01*
X155160563Y-90429910D01*
X155224638Y-90584600D01*
X155317660Y-90723818D01*
X155436054Y-90842212D01*
X155575272Y-90935234D01*
X155610920Y-90950000D01*
X155300000Y-90950000D01*
X155294402Y-90950314D01*
X155138637Y-90967864D01*
X155127721Y-90970356D01*
X154979767Y-91022128D01*
X154969679Y-91026986D01*
X154836955Y-91110382D01*
X154828202Y-91117363D01*
X154717363Y-91228202D01*
X154710382Y-91236955D01*
X154626986Y-91369679D01*
X154622128Y-91379767D01*
X154570356Y-91527721D01*
X154567864Y-91538637D01*
X154533395Y-91844571D01*
X154485345Y-91981887D01*
X154407942Y-92105073D01*
X154305073Y-92207942D01*
X154181887Y-92285345D01*
X154044571Y-92333395D01*
X153897189Y-92350000D01*
X153402811Y-92350000D01*
X153233177Y-92330887D01*
X153074725Y-92275442D01*
X152932578Y-92186125D01*
X152813875Y-92067422D01*
X152724558Y-91925275D01*
X152669113Y-91766823D01*
X152629628Y-91416385D01*
X152627136Y-91405469D01*
X152567969Y-91236379D01*
X152563111Y-91226291D01*
X152467801Y-91074606D01*
X152460820Y-91065853D01*
X152334147Y-90939180D01*
X152325394Y-90932199D01*
X152173709Y-90836889D01*
X152163621Y-90832031D01*
X151994531Y-90772864D01*
X151983615Y-90770372D01*
X151805598Y-90750314D01*
X151794402Y-90750314D01*
X151616385Y-90770372D01*
X151605469Y-90772864D01*
X151436379Y-90832031D01*
X151426291Y-90836889D01*
X151274606Y-90932199D01*
X151265853Y-90939180D01*
X151139180Y-91065853D01*
X151132199Y-91074606D01*
X151036889Y-91226291D01*
X151032031Y-91236379D01*
X150972864Y-91405469D01*
X150970372Y-91416385D01*
X150950314Y-91594402D01*
X150950000Y-91600000D01*
X150950000Y-91997546D01*
X150931509Y-92185288D01*
X150877463Y-92363456D01*
X150789697Y-92527655D01*
X150671580Y-92671580D01*
X150527655Y-92789697D01*
X150363456Y-92877463D01*
X150185288Y-92931509D01*
X149997546Y-92950000D01*
X148362050Y-92950000D01*
X148356273Y-92950335D01*
X148126758Y-92977030D01*
X148115514Y-92979681D01*
X147898253Y-93058340D01*
X147887917Y-93063502D01*
X147694509Y-93189927D01*
X147689857Y-93193368D01*
X147048352Y-93727954D01*
X146862238Y-93849611D01*
X146655910Y-93924312D01*
X146435053Y-93950000D01*
X146100000Y-93950000D01*
X146094402Y-93950314D01*
X145938637Y-93967864D01*
X145927721Y-93970356D01*
X145779767Y-94022128D01*
X145769679Y-94026986D01*
X145636955Y-94110382D01*
X145628202Y-94117363D01*
X145517363Y-94228202D01*
X145510382Y-94236955D01*
X145426986Y-94369679D01*
X145422128Y-94379767D01*
X145370356Y-94527721D01*
X145367864Y-94538637D01*
X145350314Y-94694402D01*
X145350000Y-94700000D01*
X139695343Y-94700000D01*
X137950001Y-92954659D01*
X137950001Y-91695242D01*
X137952783Y-91666999D01*
X137948839Y-91626959D01*
X137941681Y-91554279D01*
X137908802Y-91445891D01*
X137855409Y-91346001D01*
X137783555Y-91258445D01*
X137761613Y-91240438D01*
X137082566Y-90561392D01*
X137064555Y-90539445D01*
X136976999Y-90467591D01*
X136877109Y-90414198D01*
X136768721Y-90381319D01*
X136684247Y-90372999D01*
X136684244Y-90372999D01*
X136656001Y-90370217D01*
X136627758Y-90372999D01*
X133527843Y-90372999D01*
X133513335Y-90300064D01*
X133449260Y-90145374D01*
X133356238Y-90006156D01*
X133237844Y-89887762D01*
X133098626Y-89794740D01*
X132943936Y-89730665D01*
X132779718Y-89698000D01*
X132659173Y-89698000D01*
X131449563Y-88488391D01*
X131431552Y-88466444D01*
X131343996Y-88394590D01*
X131244106Y-88341197D01*
X131135718Y-88308318D01*
X131051244Y-88299998D01*
X131051241Y-88299998D01*
X131022998Y-88297216D01*
X130994755Y-88299998D01*
X129087479Y-88299998D01*
X129059236Y-88297216D01*
X129030993Y-88299998D01*
X129030990Y-88299998D01*
X128946516Y-88308318D01*
X128848305Y-88338110D01*
X128838128Y-88341197D01*
X128738237Y-88394590D01*
X128692389Y-88432216D01*
X128650682Y-88466444D01*
X128632675Y-88488386D01*
X128608081Y-88512980D01*
X128487536Y-88512980D01*
X128323318Y-88545645D01*
X128168628Y-88609720D01*
X128029410Y-88702742D01*
X127942335Y-88789817D01*
X127877722Y-88746644D01*
X127723032Y-88682569D01*
X127558814Y-88649904D01*
X127391378Y-88649904D01*
X127227160Y-88682569D01*
X127072470Y-88746644D01*
X126933252Y-88839666D01*
X126814858Y-88958060D01*
X126721836Y-89097278D01*
X126657761Y-89251968D01*
X126625096Y-89416186D01*
X126625096Y-89536731D01*
X125965213Y-90196615D01*
X125943266Y-90214626D01*
X125901330Y-90265727D01*
X125871412Y-90302182D01*
X125831212Y-90377391D01*
X125818019Y-90402073D01*
X125785140Y-90510461D01*
X125778265Y-90580263D01*
X125774038Y-90623180D01*
X125776820Y-90651423D01*
X125776821Y-94122273D01*
X125774038Y-94150526D01*
X125781449Y-94225763D01*
X125785141Y-94263246D01*
X125787206Y-94270052D01*
X125818019Y-94371633D01*
X125871412Y-94471524D01*
X125914335Y-94523826D01*
X125943267Y-94559080D01*
X125965209Y-94577087D01*
X126647009Y-95258888D01*
X123949253Y-95258888D01*
X123701096Y-95010731D01*
X123701096Y-94890186D01*
X123668431Y-94725968D01*
X123604356Y-94571278D01*
X123511334Y-94432060D01*
X123392940Y-94313666D01*
X123253722Y-94220644D01*
X123099032Y-94156569D01*
X122934814Y-94123904D01*
X122767378Y-94123904D01*
X122603160Y-94156569D01*
X122448470Y-94220644D01*
X122309252Y-94313666D01*
X122190858Y-94432060D01*
X122134206Y-94516846D01*
X119952460Y-92335100D01*
X119952460Y-91508282D01*
X120037698Y-91423044D01*
X120130720Y-91283826D01*
X120194795Y-91129136D01*
X120227460Y-90964918D01*
X120227460Y-90797482D01*
X120194795Y-90633264D01*
X120130720Y-90478574D01*
X120037698Y-90339356D01*
X119919304Y-90220962D01*
X119780086Y-90127940D01*
X119625396Y-90063865D01*
X119461178Y-90031200D01*
X119293742Y-90031200D01*
X119129524Y-90063865D01*
X118974834Y-90127940D01*
X118835616Y-90220962D01*
X118717222Y-90339356D01*
X118624200Y-90478574D01*
X118560125Y-90633264D01*
X118527460Y-90797482D01*
X117604123Y-90797482D01*
X117729047Y-90038772D01*
X118099742Y-88733119D01*
X118615851Y-87477834D01*
X119270749Y-86289037D01*
X119409471Y-86093476D01*
X119884652Y-86093049D01*
X119865882Y-86346762D01*
X119867019Y-86394323D01*
X119867491Y-86441910D01*
X119868329Y-86449193D01*
X119903515Y-86737060D01*
X119913868Y-86783495D01*
X119923575Y-86830088D01*
X119925813Y-86837069D01*
X120016244Y-87112621D01*
X120035410Y-87156140D01*
X120053989Y-87199977D01*
X120057540Y-87206390D01*
X120199769Y-87459130D01*
X120227044Y-87498128D01*
X120253765Y-87537493D01*
X120258488Y-87543087D01*
X120258493Y-87543094D01*
X120258499Y-87543099D01*
X120447105Y-87763394D01*
X120481430Y-87796345D01*
X120515293Y-87829776D01*
X120521019Y-87834352D01*
X120748828Y-88013822D01*
X120788881Y-88039468D01*
X120828612Y-88065697D01*
X120835118Y-88069074D01*
X121093448Y-88200876D01*
X121137753Y-88218267D01*
X121181787Y-88236265D01*
X121188825Y-88238314D01*
X121467835Y-88317431D01*
X121514657Y-88325882D01*
X121561368Y-88334988D01*
X121568670Y-88335631D01*
X121857735Y-88359047D01*
X121905308Y-88358242D01*
X121952894Y-88358102D01*
X121960182Y-88357315D01*
X122248289Y-88324138D01*
X122348449Y-88302540D01*
X122442506Y-88261899D01*
X122526878Y-88203763D01*
X122598351Y-88130346D01*
X122654203Y-88044444D01*
X122688845Y-87957968D01*
X123385743Y-87191006D01*
X124319016Y-86392783D01*
X124781309Y-86088650D01*
X130969355Y-86083090D01*
X130974873Y-86139116D01*
X131002034Y-86228654D01*
X131039021Y-86297853D01*
X131046141Y-86311173D01*
X131105499Y-86383501D01*
X131177827Y-86442859D01*
X131260346Y-86486966D01*
X131349884Y-86514127D01*
X131443000Y-86523298D01*
X131466332Y-86521000D01*
X148899382Y-86521000D01*
X148741004Y-86679378D01*
X148598735Y-86892299D01*
X148500738Y-87128884D01*
X148450780Y-87380041D01*
X148450780Y-87636119D01*
X148500738Y-87887276D01*
X148598735Y-88123861D01*
X148741004Y-88336782D01*
X148922078Y-88517856D01*
X149134999Y-88660125D01*
X149371584Y-88758122D01*
X149622741Y-88808080D01*
X149878819Y-88808080D01*
X150129976Y-88758122D01*
X150366561Y-88660125D01*
X150579482Y-88517856D01*
X150760556Y-88336782D01*
X150902825Y-88123861D01*
X150988603Y-87916775D01*
X150988603Y-88358080D01*
X150997291Y-88446295D01*
X151023023Y-88531121D01*
X151064809Y-88609296D01*
X151121043Y-88677817D01*
X151189564Y-88734051D01*
X151267739Y-88775837D01*
X151352565Y-88801569D01*
X151440780Y-88810257D01*
X153140780Y-88810257D01*
X153228995Y-88801569D01*
X153313821Y-88775837D01*
X153391996Y-88734051D01*
X153460517Y-88677817D01*
X153516751Y-88609296D01*
X153558537Y-88531121D01*
X153584269Y-88446295D01*
X153592957Y-88358080D01*
X153592957Y-86658080D01*
X153584269Y-86569865D01*
X153558537Y-86485039D01*
X153516751Y-86406864D01*
X153460517Y-86338343D01*
X153391996Y-86282109D01*
X153313821Y-86240323D01*
X153228995Y-86214591D01*
X153140780Y-86205903D01*
X151440780Y-86205903D01*
X151352565Y-86214591D01*
X151267739Y-86240323D01*
X151189564Y-86282109D01*
X151121043Y-86338343D01*
X151064809Y-86406864D01*
X151023023Y-86485039D01*
X150997291Y-86569865D01*
X150988603Y-86658080D01*
X150988603Y-87099385D01*
X150902825Y-86892299D01*
X150760556Y-86679378D01*
X150579482Y-86498304D01*
X150366561Y-86356035D01*
X150129976Y-86258038D01*
X149878819Y-86208080D01*
X149670207Y-86208080D01*
X149691127Y-86139116D01*
X149698000Y-86069332D01*
X149698000Y-86069331D01*
X149698302Y-86066263D01*
X158184992Y-86058639D01*
X158403679Y-86191777D01*
%TA.AperFunction,Conductor*%
G36*
X158403679Y-86191777D02*
G01*
X159364325Y-86956824D01*
X160229042Y-87843965D01*
X160304498Y-87934970D01*
X160335694Y-88023893D01*
X160387746Y-88112148D01*
X160455949Y-88188613D01*
X160537705Y-88250373D01*
X160629900Y-88295077D01*
X160729023Y-88321023D01*
X160736270Y-88322128D01*
X160894447Y-88345114D01*
X160910706Y-88510192D01*
X160965028Y-88689268D01*
X161053242Y-88854305D01*
X161171959Y-88998961D01*
X161316615Y-89117678D01*
X161481652Y-89205892D01*
X161660728Y-89260214D01*
X161800295Y-89273960D01*
X161860323Y-89273960D01*
X161860323Y-90350000D01*
X161869011Y-90438215D01*
X161894743Y-90523041D01*
X161936529Y-90601216D01*
X161956048Y-90625000D01*
X161936529Y-90648784D01*
X161894743Y-90726959D01*
X161869011Y-90811785D01*
X161860323Y-90900000D01*
X161860323Y-92400000D01*
X161869011Y-92488215D01*
X161894743Y-92573041D01*
X161935879Y-92650000D01*
X161894743Y-92726959D01*
X161869011Y-92811785D01*
X161860323Y-92900000D01*
X161860323Y-94400000D01*
X161869011Y-94488215D01*
X161894743Y-94573041D01*
X161936529Y-94651216D01*
X161956048Y-94675000D01*
X161936529Y-94698784D01*
X161894743Y-94776959D01*
X161869011Y-94861785D01*
X161860323Y-94950000D01*
X161860323Y-96013960D01*
X161800295Y-96013960D01*
X161660728Y-96027706D01*
X161481652Y-96082028D01*
X161316615Y-96170242D01*
X161171959Y-96288959D01*
X161053242Y-96433615D01*
X160965028Y-96598652D01*
X160910706Y-96777728D01*
X160892364Y-96963960D01*
X160910706Y-97150192D01*
X160965028Y-97329268D01*
X161053242Y-97494305D01*
X161171959Y-97638961D01*
X161316615Y-97757678D01*
X161481652Y-97845892D01*
X161660728Y-97900214D01*
X161800295Y-97913960D01*
X162493625Y-97913960D01*
X162633192Y-97900214D01*
X162812268Y-97845892D01*
X162977305Y-97757678D01*
X163121961Y-97638961D01*
X163240678Y-97494305D01*
X163328892Y-97329268D01*
X163368105Y-97200000D01*
X163664078Y-97200000D01*
X163818336Y-97184807D01*
X164016262Y-97124767D01*
X164198671Y-97027267D01*
X164241993Y-96991713D01*
X164241999Y-97066710D01*
X164239703Y-97090041D01*
X164242002Y-97113363D01*
X164242002Y-97113365D01*
X164248880Y-97183149D01*
X164248882Y-97183155D01*
X164248882Y-97183156D01*
X164276050Y-97272692D01*
X164306029Y-97328767D01*
X164320160Y-97355201D01*
X164320164Y-97355207D01*
X164343690Y-97383868D01*
X164379524Y-97427525D01*
X164379527Y-97427527D01*
X164379529Y-97427530D01*
X164410730Y-97453131D01*
X164451856Y-97486877D01*
X164451862Y-97486881D01*
X164466156Y-97494520D01*
X164168359Y-98158696D01*
X163476443Y-99326340D01*
X162656795Y-100408145D01*
X161719945Y-101390217D01*
X160677956Y-102259911D01*
X159544200Y-103006067D01*
X158333270Y-103619078D01*
X157575428Y-103900165D01*
X158709146Y-102766447D01*
X158731088Y-102748440D01*
X158765316Y-102706733D01*
X158802942Y-102660885D01*
X158856335Y-102560994D01*
X158864702Y-102533411D01*
X158889214Y-102452606D01*
X158897534Y-102368132D01*
X158897534Y-102368130D01*
X158900316Y-102339887D01*
X158897534Y-102311644D01*
X158897534Y-102281804D01*
X158982772Y-102196566D01*
X159075794Y-102057348D01*
X159139869Y-101902658D01*
X159172534Y-101738440D01*
X159172534Y-101571004D01*
X159139869Y-101406786D01*
X159075794Y-101252096D01*
X158982772Y-101112878D01*
X158864378Y-100994484D01*
X158725160Y-100901462D01*
X158570470Y-100837387D01*
X158406252Y-100804722D01*
X158238816Y-100804722D01*
X158074598Y-100837387D01*
X157919908Y-100901462D01*
X157780690Y-100994484D01*
X157662296Y-101112878D01*
X157569274Y-101252096D01*
X157505199Y-101406786D01*
X157472534Y-101571004D01*
X157472534Y-101738440D01*
X157505199Y-101902658D01*
X157569274Y-102057348D01*
X157658445Y-102190802D01*
X156068838Y-103780410D01*
X149168043Y-103780410D01*
X147938860Y-102551228D01*
X147938860Y-102430682D01*
X147906195Y-102266464D01*
X147842120Y-102111774D01*
X147749098Y-101972556D01*
X147630704Y-101854162D01*
X147491486Y-101761140D01*
X147336796Y-101697065D01*
X147172578Y-101664400D01*
X147005142Y-101664400D01*
X146840924Y-101697065D01*
X146686234Y-101761140D01*
X146547016Y-101854162D01*
X146428622Y-101972556D01*
X146335600Y-102111774D01*
X146271525Y-102266464D01*
X146238860Y-102430682D01*
X146238860Y-102598118D01*
X146271525Y-102762336D01*
X146335600Y-102917026D01*
X146428622Y-103056244D01*
X146547016Y-103174638D01*
X146686234Y-103267660D01*
X146840924Y-103331735D01*
X147005142Y-103364400D01*
X147125688Y-103364400D01*
X148381483Y-104620196D01*
X137109321Y-104618438D01*
X137118489Y-104588215D01*
X137127177Y-104500000D01*
X137127177Y-102800000D01*
X137118489Y-102711785D01*
X137092757Y-102626959D01*
X137050971Y-102548784D01*
X136994737Y-102480263D01*
X136926216Y-102424029D01*
X136848041Y-102382243D01*
X136763215Y-102356511D01*
X136675000Y-102347823D01*
X134975000Y-102347823D01*
X134886785Y-102356511D01*
X134801959Y-102382243D01*
X134723784Y-102424029D01*
X134655263Y-102480263D01*
X134599029Y-102548784D01*
X134557243Y-102626959D01*
X134531511Y-102711785D01*
X134522823Y-102800000D01*
X134522823Y-103241305D01*
X134437045Y-103034219D01*
X134294776Y-102821298D01*
X134113702Y-102640224D01*
X133900781Y-102497955D01*
X133664196Y-102399958D01*
X133413039Y-102350000D01*
X133156961Y-102350000D01*
X132905804Y-102399958D01*
X132669219Y-102497955D01*
X132456298Y-102640224D01*
X132275224Y-102821298D01*
X132132955Y-103034219D01*
X132034958Y-103270804D01*
X131985000Y-103521961D01*
X131985000Y-103778039D01*
X132034958Y-104029196D01*
X132132955Y-104265781D01*
X132275224Y-104478702D01*
X132414228Y-104617706D01*
X131188094Y-104617515D01*
X131312100Y-103437680D01*
X131312680Y-103349040D01*
X131295956Y-103261989D01*
X131262571Y-103179875D01*
X131213807Y-103105851D01*
X131151539Y-103042762D01*
X131078160Y-102993034D01*
X130996489Y-102958577D01*
X130909665Y-102940715D01*
X130511857Y-102898904D01*
X130484050Y-102898721D01*
X130476062Y-102897078D01*
X130398078Y-102888881D01*
X130309428Y-102888301D01*
X130231343Y-102895477D01*
X130144303Y-102912199D01*
X130069118Y-102934469D01*
X129986994Y-102967858D01*
X129917600Y-103004369D01*
X129843582Y-103053129D01*
X129782643Y-103102476D01*
X129719556Y-103164742D01*
X129669414Y-103225030D01*
X129619682Y-103298416D01*
X129582267Y-103367327D01*
X129547811Y-103448995D01*
X129538169Y-103480048D01*
X129522332Y-103483091D01*
X129440217Y-103516476D01*
X129366193Y-103565239D01*
X129303105Y-103627507D01*
X129253376Y-103700886D01*
X129218919Y-103782557D01*
X129201057Y-103869381D01*
X129133113Y-104515820D01*
X129132574Y-104598223D01*
X128346920Y-104572846D01*
X127717265Y-104480428D01*
X127727251Y-104456759D01*
X127745113Y-104369935D01*
X127813056Y-103723496D01*
X127813636Y-103634856D01*
X127796912Y-103547806D01*
X127763527Y-103465691D01*
X127714764Y-103391667D01*
X127652496Y-103328579D01*
X127579116Y-103278850D01*
X127564258Y-103272581D01*
X127561282Y-103240196D01*
X127544560Y-103153156D01*
X127522290Y-103077971D01*
X127488901Y-102995847D01*
X127452390Y-102926453D01*
X127403630Y-102852435D01*
X127354283Y-102791496D01*
X127292017Y-102728409D01*
X127231729Y-102678267D01*
X127158343Y-102628535D01*
X127089432Y-102591120D01*
X127007764Y-102556664D01*
X126932877Y-102533411D01*
X126846057Y-102515549D01*
X126768073Y-102507352D01*
X126759908Y-102507299D01*
X126732674Y-102501696D01*
X126334865Y-102459884D01*
X126246224Y-102459304D01*
X126159174Y-102476028D01*
X126077059Y-102509413D01*
X126003035Y-102558176D01*
X125939946Y-102620444D01*
X125890218Y-102693824D01*
X125855761Y-102775495D01*
X125837899Y-102862319D01*
X125714761Y-104033897D01*
X125692134Y-104027898D01*
X124428015Y-103533768D01*
X123840998Y-103223613D01*
X124552094Y-102405591D01*
X124603412Y-102333313D01*
X124639642Y-102252413D01*
X124659394Y-102166000D01*
X124661907Y-102077393D01*
X124647086Y-101989999D01*
X124615500Y-101907175D01*
X124568363Y-101832105D01*
X124507486Y-101767673D01*
X124205602Y-101505250D01*
X124182927Y-101489150D01*
X124177325Y-101483221D01*
X124118145Y-101431777D01*
X124045867Y-101380460D01*
X123977788Y-101341550D01*
X123896896Y-101305322D01*
X123822535Y-101280440D01*
X123736111Y-101260686D01*
X123658324Y-101250791D01*
X123569721Y-101248278D01*
X123491498Y-101253748D01*
X123404110Y-101268567D01*
X123328458Y-101289191D01*
X123245624Y-101320781D01*
X123175449Y-101355770D01*
X123100385Y-101402904D01*
X123074674Y-101422812D01*
X123059955Y-101416220D01*
X122973541Y-101396468D01*
X122884935Y-101393954D01*
X122797540Y-101408775D01*
X122714717Y-101440361D01*
X122639646Y-101487498D01*
X122575215Y-101548375D01*
X122148777Y-102038936D01*
X122097459Y-102111213D01*
X122092918Y-102121353D01*
X121080763Y-101246143D01*
X121026383Y-101187109D01*
X121031038Y-101184186D01*
X121095469Y-101123309D01*
X121521907Y-100632748D01*
X121573224Y-100560471D01*
X121609455Y-100479571D01*
X121629207Y-100393158D01*
X121631721Y-100304551D01*
X121616900Y-100217157D01*
X121585314Y-100134333D01*
X121576738Y-100120674D01*
X121592873Y-100092443D01*
X121629101Y-100011551D01*
X121653983Y-99937190D01*
X121673737Y-99850766D01*
X121683632Y-99772979D01*
X121686145Y-99684376D01*
X121680675Y-99606153D01*
X121665856Y-99518765D01*
X121645232Y-99443113D01*
X121613642Y-99360279D01*
X121580181Y-99293168D01*
X125725695Y-99293168D01*
X125810783Y-99502782D01*
X125935129Y-99691768D01*
X126093955Y-99852864D01*
X126281158Y-99979879D01*
X126489543Y-100067932D01*
X126505213Y-100072678D01*
X126682360Y-100033533D01*
X126682360Y-99116020D01*
X126982360Y-99116020D01*
X126982360Y-100033533D01*
X127159507Y-100072678D01*
X127175177Y-100067932D01*
X127383562Y-99979879D01*
X127570765Y-99852864D01*
X127729591Y-99691768D01*
X127853937Y-99502782D01*
X127939025Y-99293168D01*
X127900577Y-99116020D01*
X126982360Y-99116020D01*
X126682360Y-99116020D01*
X125764143Y-99116020D01*
X125725695Y-99293168D01*
X121580181Y-99293168D01*
X121578653Y-99290104D01*
X121531519Y-99215040D01*
X121483513Y-99153039D01*
X121422635Y-99088605D01*
X121363455Y-99037161D01*
X121356805Y-99032439D01*
X121337707Y-99012226D01*
X121035824Y-98749802D01*
X120963546Y-98698484D01*
X120882646Y-98662254D01*
X120796232Y-98642502D01*
X120707626Y-98639988D01*
X120620231Y-98654809D01*
X120537408Y-98686395D01*
X120462337Y-98733532D01*
X120397906Y-98794409D01*
X119692334Y-99606077D01*
X119360552Y-99151925D01*
X118689117Y-97972384D01*
X118155533Y-96724430D01*
X117766643Y-95424075D01*
X117527462Y-94088072D01*
X117441056Y-92733568D01*
X117508541Y-91377995D01*
X117604123Y-90797482D01*
X118527460Y-90797482D01*
X118527460Y-90964918D01*
X118560125Y-91129136D01*
X118624200Y-91283826D01*
X118717222Y-91423044D01*
X118802460Y-91508282D01*
X118802461Y-92545019D01*
X118799678Y-92573272D01*
X118810781Y-92685991D01*
X118843659Y-92794379D01*
X118897052Y-92894270D01*
X118933020Y-92938097D01*
X118968907Y-92981826D01*
X118990849Y-92999833D01*
X122076533Y-96085518D01*
X122094540Y-96107460D01*
X122116480Y-96125465D01*
X122182095Y-96179314D01*
X122281986Y-96232707D01*
X122390374Y-96265586D01*
X122474848Y-96273906D01*
X122474851Y-96273906D01*
X122503094Y-96276688D01*
X122531337Y-96273906D01*
X122701515Y-96273906D01*
X122739332Y-96311724D01*
X122683131Y-96349276D01*
X122564737Y-96467670D01*
X122471715Y-96606888D01*
X122407640Y-96761578D01*
X122374975Y-96925796D01*
X122374975Y-97093232D01*
X122407640Y-97257450D01*
X122471715Y-97412140D01*
X122564737Y-97551358D01*
X122683131Y-97669752D01*
X122822349Y-97762774D01*
X122977039Y-97826849D01*
X123141257Y-97859514D01*
X123266924Y-97859514D01*
X123303975Y-97889921D01*
X123392098Y-97937024D01*
X123403866Y-97943314D01*
X123512254Y-97976193D01*
X123596728Y-97984513D01*
X123596730Y-97984513D01*
X123624973Y-97987295D01*
X123653216Y-97984513D01*
X126233476Y-97984513D01*
X126093955Y-98079176D01*
X125935129Y-98240272D01*
X125810783Y-98429258D01*
X125725695Y-98638872D01*
X125764143Y-98816020D01*
X126682360Y-98816020D01*
X126682360Y-98796020D01*
X126982360Y-98796020D01*
X126982360Y-98816020D01*
X127900577Y-98816020D01*
X127939025Y-98638872D01*
X127853937Y-98429258D01*
X127729591Y-98240272D01*
X127570765Y-98079176D01*
X127431244Y-97984513D01*
X128092004Y-97984513D01*
X128078871Y-98027805D01*
X128070183Y-98116020D01*
X128070183Y-99816020D01*
X128078871Y-99904235D01*
X128104603Y-99989061D01*
X128146389Y-100067236D01*
X128202623Y-100135757D01*
X128271144Y-100191991D01*
X128349319Y-100233777D01*
X128434145Y-100259509D01*
X128522360Y-100268197D01*
X130222360Y-100268197D01*
X130310575Y-100259509D01*
X130395401Y-100233777D01*
X130473576Y-100191991D01*
X130542097Y-100135757D01*
X130598331Y-100067236D01*
X130640117Y-99989061D01*
X130665849Y-99904235D01*
X130674537Y-99816020D01*
X130674537Y-98116020D01*
X130665849Y-98027805D01*
X130652716Y-97984513D01*
X132042196Y-97984513D01*
X133045768Y-98988085D01*
X133063780Y-99010033D01*
X133126572Y-99061564D01*
X133151335Y-99081887D01*
X133169324Y-99091502D01*
X133251226Y-99135280D01*
X133359614Y-99168159D01*
X133444088Y-99176479D01*
X133444090Y-99176479D01*
X133472333Y-99179261D01*
X133500576Y-99176479D01*
X135907022Y-99176479D01*
X135935265Y-99179261D01*
X135963508Y-99176479D01*
X135963511Y-99176479D01*
X136047985Y-99168159D01*
X136156373Y-99135280D01*
X136256263Y-99081887D01*
X136343819Y-99010033D01*
X136361830Y-98988086D01*
X136555902Y-98794014D01*
X136676448Y-98794014D01*
X136840666Y-98761349D01*
X136995356Y-98697274D01*
X137134574Y-98604252D01*
X137147212Y-98591614D01*
X137201651Y-98673089D01*
X137320045Y-98791483D01*
X137459263Y-98884505D01*
X137613953Y-98948580D01*
X137778171Y-98981245D01*
X137945607Y-98981245D01*
X138009546Y-98968527D01*
X138008272Y-98981461D01*
X138011899Y-99018288D01*
X138011899Y-99018295D01*
X138022752Y-99128486D01*
X138065638Y-99269861D01*
X138135280Y-99400153D01*
X138229004Y-99514356D01*
X138257618Y-99537839D01*
X138444779Y-99725000D01*
X136652082Y-99725000D01*
X136566844Y-99639762D01*
X136427626Y-99546740D01*
X136272936Y-99482665D01*
X136108718Y-99450000D01*
X135941282Y-99450000D01*
X135777064Y-99482665D01*
X135622374Y-99546740D01*
X135483156Y-99639762D01*
X135364762Y-99758156D01*
X135271740Y-99897374D01*
X135207665Y-100052064D01*
X135175000Y-100216282D01*
X135175000Y-100383718D01*
X135207665Y-100547936D01*
X135271740Y-100702626D01*
X135364762Y-100841844D01*
X135483156Y-100960238D01*
X135622374Y-101053260D01*
X135777064Y-101117335D01*
X135941282Y-101150000D01*
X136108718Y-101150000D01*
X136272936Y-101117335D01*
X136427626Y-101053260D01*
X136566844Y-100960238D01*
X136652082Y-100875000D01*
X140182838Y-100875000D01*
X140211081Y-100877782D01*
X140239324Y-100875000D01*
X140239327Y-100875000D01*
X140323801Y-100866680D01*
X140432189Y-100833801D01*
X140532079Y-100780408D01*
X140619635Y-100708554D01*
X140637647Y-100686606D01*
X140699254Y-100624999D01*
X144770652Y-100624999D01*
X144771740Y-100627626D01*
X144864762Y-100766844D01*
X144983156Y-100885238D01*
X145122374Y-100978260D01*
X145277064Y-101042335D01*
X145441282Y-101075000D01*
X145608718Y-101075000D01*
X145772936Y-101042335D01*
X145927626Y-100978260D01*
X146066844Y-100885238D01*
X146185238Y-100766844D01*
X146278260Y-100627626D01*
X146342335Y-100472936D01*
X146375000Y-100308718D01*
X146375000Y-100141282D01*
X146351870Y-100025000D01*
X147839341Y-100025000D01*
X148306520Y-100492180D01*
X148307665Y-100497936D01*
X148371740Y-100652626D01*
X148464762Y-100791844D01*
X148583156Y-100910238D01*
X148722374Y-101003260D01*
X148877064Y-101067335D01*
X149041282Y-101100000D01*
X149208718Y-101100000D01*
X149372936Y-101067335D01*
X149527626Y-101003260D01*
X149666844Y-100910238D01*
X149785238Y-100791844D01*
X149878260Y-100652626D01*
X149942335Y-100497936D01*
X149975000Y-100333718D01*
X149975000Y-100166282D01*
X149942335Y-100002064D01*
X149878260Y-99847374D01*
X149875000Y-99842495D01*
X149875000Y-99807508D01*
X149878262Y-99802626D01*
X149942337Y-99647936D01*
X149975002Y-99483718D01*
X149975002Y-99316282D01*
X149942337Y-99152064D01*
X149878262Y-98997374D01*
X149785240Y-98858156D01*
X149666846Y-98739762D01*
X149527628Y-98646740D01*
X149372938Y-98582665D01*
X149208720Y-98550000D01*
X149041284Y-98550000D01*
X148877066Y-98582665D01*
X148794245Y-98616971D01*
X148722718Y-98578739D01*
X148581343Y-98535853D01*
X148471152Y-98525000D01*
X148471144Y-98525000D01*
X148434317Y-98521373D01*
X148397490Y-98525000D01*
X148186844Y-98525000D01*
X148186834Y-98524999D01*
X148186826Y-98524999D01*
X148149999Y-98521372D01*
X148113172Y-98524999D01*
X145279823Y-98524999D01*
X145242998Y-98521372D01*
X145206173Y-98524999D01*
X144019922Y-98524999D01*
X144116844Y-98460238D01*
X144235238Y-98341844D01*
X144328260Y-98202626D01*
X144392335Y-98047936D01*
X144425000Y-97883718D01*
X144425000Y-97716282D01*
X144392335Y-97552064D01*
X144328260Y-97397374D01*
X144235238Y-97258156D01*
X144116844Y-97139762D01*
X143977626Y-97046740D01*
X143822936Y-96982665D01*
X143658718Y-96950000D01*
X143533051Y-96950000D01*
X143495999Y-96919593D01*
X143396109Y-96866200D01*
X143287721Y-96833321D01*
X143203247Y-96825001D01*
X143203244Y-96825001D01*
X143175001Y-96822219D01*
X143146758Y-96825001D01*
X141820344Y-96825001D01*
X139695343Y-94700000D01*
X145350000Y-94700000D01*
X145350000Y-94900000D01*
X145350314Y-94905598D01*
X145367864Y-95061363D01*
X145370356Y-95072279D01*
X145422128Y-95220233D01*
X145426986Y-95230321D01*
X145510382Y-95363045D01*
X145517363Y-95371798D01*
X145628202Y-95482637D01*
X145636955Y-95489618D01*
X145769679Y-95573014D01*
X145779767Y-95577872D01*
X145927721Y-95629644D01*
X145938637Y-95632136D01*
X146094402Y-95649686D01*
X146100000Y-95650000D01*
X146494773Y-95650000D01*
X146682186Y-95668426D01*
X146860070Y-95722285D01*
X147026228Y-95810912D01*
X147720340Y-96273653D01*
X147724544Y-96276167D01*
X147897206Y-96368263D01*
X147906248Y-96372001D01*
X148093538Y-96428708D01*
X148103135Y-96430613D01*
X148297884Y-96449760D01*
X148302776Y-96450000D01*
X150496725Y-96450000D01*
X150616357Y-96465750D01*
X150724786Y-96510663D01*
X150817893Y-96582107D01*
X150889337Y-96675214D01*
X150932734Y-96779982D01*
X150924362Y-96779982D01*
X150760144Y-96812647D01*
X150605454Y-96876722D01*
X150466236Y-96969744D01*
X150347842Y-97088138D01*
X150254820Y-97227356D01*
X150190745Y-97382046D01*
X150158080Y-97546264D01*
X150158080Y-97713700D01*
X150190745Y-97877918D01*
X150254820Y-98032608D01*
X150347842Y-98171826D01*
X150466236Y-98290220D01*
X150605454Y-98383242D01*
X150760144Y-98447317D01*
X150924362Y-98479982D01*
X151091798Y-98479982D01*
X151256016Y-98447317D01*
X151410706Y-98383242D01*
X151549924Y-98290220D01*
X151660162Y-98179982D01*
X154851549Y-98179982D01*
X154878557Y-98182642D01*
X154905565Y-98179982D01*
X154905575Y-98179982D01*
X154986376Y-98172024D01*
X155090051Y-98140574D01*
X155185599Y-98089503D01*
X155269347Y-98020772D01*
X155286570Y-97999786D01*
X156477656Y-96808700D01*
X156462364Y-96963960D01*
X156480706Y-97150192D01*
X156535028Y-97329268D01*
X156623242Y-97494305D01*
X156741959Y-97638961D01*
X156886615Y-97757678D01*
X157051652Y-97845892D01*
X157230728Y-97900214D01*
X157370295Y-97913960D01*
X158563625Y-97913960D01*
X158703192Y-97900214D01*
X158882268Y-97845892D01*
X159047305Y-97757678D01*
X159191961Y-97638961D01*
X159310678Y-97494305D01*
X159398892Y-97329268D01*
X159453214Y-97150192D01*
X159471556Y-96963960D01*
X159453214Y-96777728D01*
X159398892Y-96598652D01*
X159310678Y-96433615D01*
X159191961Y-96288959D01*
X159047305Y-96170242D01*
X158987501Y-96138276D01*
X158990994Y-96135942D01*
X159098942Y-96027994D01*
X159183756Y-95901060D01*
X159242177Y-95760019D01*
X159271960Y-95610291D01*
X159271960Y-95457629D01*
X159242177Y-95307901D01*
X159183756Y-95166860D01*
X159098942Y-95039926D01*
X159093289Y-95034273D01*
X159387500Y-95034273D01*
X159387500Y-95265727D01*
X159432655Y-95492735D01*
X159521229Y-95706571D01*
X159649818Y-95899019D01*
X159813481Y-96062682D01*
X160005929Y-96191271D01*
X160219765Y-96279845D01*
X160446773Y-96325000D01*
X160678227Y-96325000D01*
X160905235Y-96279845D01*
X161119071Y-96191271D01*
X161311519Y-96062682D01*
X161475182Y-95899019D01*
X161603771Y-95706571D01*
X161692345Y-95492735D01*
X161737500Y-95265727D01*
X161737500Y-95034273D01*
X161692345Y-94807265D01*
X161603771Y-94593429D01*
X161475182Y-94400981D01*
X161446452Y-94372251D01*
X161450079Y-94369369D01*
X161488791Y-94323682D01*
X161517846Y-94271320D01*
X161536128Y-94214296D01*
X161541500Y-94176000D01*
X161465500Y-94100000D01*
X161097997Y-94100000D01*
X160905235Y-94020155D01*
X160678227Y-93975000D01*
X160446773Y-93975000D01*
X160219765Y-94020155D01*
X160027003Y-94100000D01*
X159659500Y-94100000D01*
X159583500Y-94176000D01*
X159588872Y-94214296D01*
X159607154Y-94271320D01*
X159636209Y-94323682D01*
X159674921Y-94369369D01*
X159678548Y-94372251D01*
X159649818Y-94400981D01*
X159521229Y-94593429D01*
X159432655Y-94807265D01*
X159387500Y-95034273D01*
X159093289Y-95034273D01*
X158990994Y-94931978D01*
X158864060Y-94847164D01*
X158732176Y-94792536D01*
X158793465Y-94780345D01*
X158948155Y-94716270D01*
X159087373Y-94623248D01*
X159205767Y-94504854D01*
X159298789Y-94365636D01*
X159362864Y-94210946D01*
X159395529Y-94046728D01*
X159395529Y-93879292D01*
X159362864Y-93715074D01*
X159335909Y-93650000D01*
X159462754Y-93650000D01*
X159469743Y-93673041D01*
X159511529Y-93751216D01*
X159567763Y-93819737D01*
X159636284Y-93875971D01*
X159714459Y-93917757D01*
X159799285Y-93943489D01*
X159887500Y-93952177D01*
X161237500Y-93952177D01*
X161325715Y-93943489D01*
X161410541Y-93917757D01*
X161488716Y-93875971D01*
X161557237Y-93819737D01*
X161613471Y-93751216D01*
X161655257Y-93673041D01*
X161680989Y-93588215D01*
X161689677Y-93500000D01*
X161689677Y-93100000D01*
X161680989Y-93011785D01*
X161669830Y-92975000D01*
X161680989Y-92938215D01*
X161689677Y-92850000D01*
X161689677Y-92450000D01*
X161680989Y-92361785D01*
X161669830Y-92325000D01*
X161680989Y-92288215D01*
X161689677Y-92200000D01*
X161689677Y-91800000D01*
X161680989Y-91711785D01*
X161669830Y-91675000D01*
X161680989Y-91638215D01*
X161689677Y-91550000D01*
X161689677Y-91150000D01*
X161680989Y-91061785D01*
X161655257Y-90976959D01*
X161613471Y-90898784D01*
X161557237Y-90830263D01*
X161533913Y-90811121D01*
X161603771Y-90706571D01*
X161692345Y-90492735D01*
X161737500Y-90265727D01*
X161737500Y-90034273D01*
X161692345Y-89807265D01*
X161603771Y-89593429D01*
X161475182Y-89400981D01*
X161311519Y-89237318D01*
X161119071Y-89108729D01*
X160905235Y-89020155D01*
X160678227Y-88975000D01*
X160446773Y-88975000D01*
X160219765Y-89020155D01*
X160005929Y-89108729D01*
X159813481Y-89237318D01*
X159649818Y-89400981D01*
X159521229Y-89593429D01*
X159432655Y-89807265D01*
X159405983Y-89941351D01*
X159315436Y-89903845D01*
X159259541Y-89892727D01*
X159271960Y-89830291D01*
X159271960Y-89677629D01*
X159242177Y-89527901D01*
X159183756Y-89386860D01*
X159098942Y-89259926D01*
X158990994Y-89151978D01*
X158987501Y-89149644D01*
X159047305Y-89117678D01*
X159191961Y-88998961D01*
X159310678Y-88854305D01*
X159398892Y-88689268D01*
X159453214Y-88510192D01*
X159471556Y-88323960D01*
X159453214Y-88137728D01*
X159398892Y-87958652D01*
X159310678Y-87793615D01*
X159191961Y-87648959D01*
X159047305Y-87530242D01*
X158882268Y-87442028D01*
X158703192Y-87387706D01*
X158563625Y-87373960D01*
X157370295Y-87373960D01*
X157230728Y-87387706D01*
X157051652Y-87442028D01*
X156886615Y-87530242D01*
X156741959Y-87648959D01*
X156623242Y-87793615D01*
X156535028Y-87958652D01*
X156480706Y-88137728D01*
X156462364Y-88323960D01*
X156480706Y-88510192D01*
X156535028Y-88689268D01*
X156623242Y-88854305D01*
X156741959Y-88998961D01*
X156886615Y-89117678D01*
X157051652Y-89205892D01*
X157230728Y-89260214D01*
X157370295Y-89273960D01*
X157885601Y-89273960D01*
X157810164Y-89386860D01*
X157751743Y-89527901D01*
X157721960Y-89677629D01*
X157721960Y-89830291D01*
X157749985Y-89971180D01*
X156827764Y-89971180D01*
X156796378Y-89939794D01*
X156795233Y-89934038D01*
X156731158Y-89779348D01*
X156638136Y-89640130D01*
X156519742Y-89521736D01*
X156380524Y-89428714D01*
X156225834Y-89364639D01*
X156061616Y-89331974D01*
X155894180Y-89331974D01*
X155729962Y-89364639D01*
X155575272Y-89428714D01*
X155436054Y-89521736D01*
X155317660Y-89640130D01*
X155224638Y-89779348D01*
X155160563Y-89934038D01*
X155127898Y-90098256D01*
X155127898Y-90265692D01*
X155160563Y-90429910D01*
X155224638Y-90584600D01*
X155317660Y-90723818D01*
X155436054Y-90842212D01*
X155575272Y-90935234D01*
X155610920Y-90950000D01*
X155300000Y-90950000D01*
X155294402Y-90950314D01*
X155138637Y-90967864D01*
X155127721Y-90970356D01*
X154979767Y-91022128D01*
X154969679Y-91026986D01*
X154836955Y-91110382D01*
X154828202Y-91117363D01*
X154717363Y-91228202D01*
X154710382Y-91236955D01*
X154626986Y-91369679D01*
X154622128Y-91379767D01*
X154570356Y-91527721D01*
X154567864Y-91538637D01*
X154533395Y-91844571D01*
X154485345Y-91981887D01*
X154407942Y-92105073D01*
X154305073Y-92207942D01*
X154181887Y-92285345D01*
X154044571Y-92333395D01*
X153897189Y-92350000D01*
X153402811Y-92350000D01*
X153233177Y-92330887D01*
X153074725Y-92275442D01*
X152932578Y-92186125D01*
X152813875Y-92067422D01*
X152724558Y-91925275D01*
X152669113Y-91766823D01*
X152629628Y-91416385D01*
X152627136Y-91405469D01*
X152567969Y-91236379D01*
X152563111Y-91226291D01*
X152467801Y-91074606D01*
X152460820Y-91065853D01*
X152334147Y-90939180D01*
X152325394Y-90932199D01*
X152173709Y-90836889D01*
X152163621Y-90832031D01*
X151994531Y-90772864D01*
X151983615Y-90770372D01*
X151805598Y-90750314D01*
X151794402Y-90750314D01*
X151616385Y-90770372D01*
X151605469Y-90772864D01*
X151436379Y-90832031D01*
X151426291Y-90836889D01*
X151274606Y-90932199D01*
X151265853Y-90939180D01*
X151139180Y-91065853D01*
X151132199Y-91074606D01*
X151036889Y-91226291D01*
X151032031Y-91236379D01*
X150972864Y-91405469D01*
X150970372Y-91416385D01*
X150950314Y-91594402D01*
X150950000Y-91600000D01*
X150950000Y-91997546D01*
X150931509Y-92185288D01*
X150877463Y-92363456D01*
X150789697Y-92527655D01*
X150671580Y-92671580D01*
X150527655Y-92789697D01*
X150363456Y-92877463D01*
X150185288Y-92931509D01*
X149997546Y-92950000D01*
X148362050Y-92950000D01*
X148356273Y-92950335D01*
X148126758Y-92977030D01*
X148115514Y-92979681D01*
X147898253Y-93058340D01*
X147887917Y-93063502D01*
X147694509Y-93189927D01*
X147689857Y-93193368D01*
X147048352Y-93727954D01*
X146862238Y-93849611D01*
X146655910Y-93924312D01*
X146435053Y-93950000D01*
X146100000Y-93950000D01*
X146094402Y-93950314D01*
X145938637Y-93967864D01*
X145927721Y-93970356D01*
X145779767Y-94022128D01*
X145769679Y-94026986D01*
X145636955Y-94110382D01*
X145628202Y-94117363D01*
X145517363Y-94228202D01*
X145510382Y-94236955D01*
X145426986Y-94369679D01*
X145422128Y-94379767D01*
X145370356Y-94527721D01*
X145367864Y-94538637D01*
X145350314Y-94694402D01*
X145350000Y-94700000D01*
X139695343Y-94700000D01*
X137950001Y-92954659D01*
X137950001Y-91695242D01*
X137952783Y-91666999D01*
X137948839Y-91626959D01*
X137941681Y-91554279D01*
X137908802Y-91445891D01*
X137855409Y-91346001D01*
X137783555Y-91258445D01*
X137761613Y-91240438D01*
X137082566Y-90561392D01*
X137064555Y-90539445D01*
X136976999Y-90467591D01*
X136877109Y-90414198D01*
X136768721Y-90381319D01*
X136684247Y-90372999D01*
X136684244Y-90372999D01*
X136656001Y-90370217D01*
X136627758Y-90372999D01*
X133527843Y-90372999D01*
X133513335Y-90300064D01*
X133449260Y-90145374D01*
X133356238Y-90006156D01*
X133237844Y-89887762D01*
X133098626Y-89794740D01*
X132943936Y-89730665D01*
X132779718Y-89698000D01*
X132659173Y-89698000D01*
X131449563Y-88488391D01*
X131431552Y-88466444D01*
X131343996Y-88394590D01*
X131244106Y-88341197D01*
X131135718Y-88308318D01*
X131051244Y-88299998D01*
X131051241Y-88299998D01*
X131022998Y-88297216D01*
X130994755Y-88299998D01*
X129087479Y-88299998D01*
X129059236Y-88297216D01*
X129030993Y-88299998D01*
X129030990Y-88299998D01*
X128946516Y-88308318D01*
X128848305Y-88338110D01*
X128838128Y-88341197D01*
X128738237Y-88394590D01*
X128692389Y-88432216D01*
X128650682Y-88466444D01*
X128632675Y-88488386D01*
X128608081Y-88512980D01*
X128487536Y-88512980D01*
X128323318Y-88545645D01*
X128168628Y-88609720D01*
X128029410Y-88702742D01*
X127942335Y-88789817D01*
X127877722Y-88746644D01*
X127723032Y-88682569D01*
X127558814Y-88649904D01*
X127391378Y-88649904D01*
X127227160Y-88682569D01*
X127072470Y-88746644D01*
X126933252Y-88839666D01*
X126814858Y-88958060D01*
X126721836Y-89097278D01*
X126657761Y-89251968D01*
X126625096Y-89416186D01*
X126625096Y-89536731D01*
X125965213Y-90196615D01*
X125943266Y-90214626D01*
X125901330Y-90265727D01*
X125871412Y-90302182D01*
X125831212Y-90377391D01*
X125818019Y-90402073D01*
X125785140Y-90510461D01*
X125778265Y-90580263D01*
X125774038Y-90623180D01*
X125776820Y-90651423D01*
X125776821Y-94122273D01*
X125774038Y-94150526D01*
X125781449Y-94225763D01*
X125785141Y-94263246D01*
X125787206Y-94270052D01*
X125818019Y-94371633D01*
X125871412Y-94471524D01*
X125914335Y-94523826D01*
X125943267Y-94559080D01*
X125965209Y-94577087D01*
X126647009Y-95258888D01*
X123949253Y-95258888D01*
X123701096Y-95010731D01*
X123701096Y-94890186D01*
X123668431Y-94725968D01*
X123604356Y-94571278D01*
X123511334Y-94432060D01*
X123392940Y-94313666D01*
X123253722Y-94220644D01*
X123099032Y-94156569D01*
X122934814Y-94123904D01*
X122767378Y-94123904D01*
X122603160Y-94156569D01*
X122448470Y-94220644D01*
X122309252Y-94313666D01*
X122190858Y-94432060D01*
X122134206Y-94516846D01*
X119952460Y-92335100D01*
X119952460Y-91508282D01*
X120037698Y-91423044D01*
X120130720Y-91283826D01*
X120194795Y-91129136D01*
X120227460Y-90964918D01*
X120227460Y-90797482D01*
X120194795Y-90633264D01*
X120130720Y-90478574D01*
X120037698Y-90339356D01*
X119919304Y-90220962D01*
X119780086Y-90127940D01*
X119625396Y-90063865D01*
X119461178Y-90031200D01*
X119293742Y-90031200D01*
X119129524Y-90063865D01*
X118974834Y-90127940D01*
X118835616Y-90220962D01*
X118717222Y-90339356D01*
X118624200Y-90478574D01*
X118560125Y-90633264D01*
X118527460Y-90797482D01*
X117604123Y-90797482D01*
X117729047Y-90038772D01*
X118099742Y-88733119D01*
X118615851Y-87477834D01*
X119270749Y-86289037D01*
X119409471Y-86093476D01*
X119884652Y-86093049D01*
X119865882Y-86346762D01*
X119867019Y-86394323D01*
X119867491Y-86441910D01*
X119868329Y-86449193D01*
X119903515Y-86737060D01*
X119913868Y-86783495D01*
X119923575Y-86830088D01*
X119925813Y-86837069D01*
X120016244Y-87112621D01*
X120035410Y-87156140D01*
X120053989Y-87199977D01*
X120057540Y-87206390D01*
X120199769Y-87459130D01*
X120227044Y-87498128D01*
X120253765Y-87537493D01*
X120258488Y-87543087D01*
X120258493Y-87543094D01*
X120258499Y-87543099D01*
X120447105Y-87763394D01*
X120481430Y-87796345D01*
X120515293Y-87829776D01*
X120521019Y-87834352D01*
X120748828Y-88013822D01*
X120788881Y-88039468D01*
X120828612Y-88065697D01*
X120835118Y-88069074D01*
X121093448Y-88200876D01*
X121137753Y-88218267D01*
X121181787Y-88236265D01*
X121188825Y-88238314D01*
X121467835Y-88317431D01*
X121514657Y-88325882D01*
X121561368Y-88334988D01*
X121568670Y-88335631D01*
X121857735Y-88359047D01*
X121905308Y-88358242D01*
X121952894Y-88358102D01*
X121960182Y-88357315D01*
X122248289Y-88324138D01*
X122348449Y-88302540D01*
X122442506Y-88261899D01*
X122526878Y-88203763D01*
X122598351Y-88130346D01*
X122654203Y-88044444D01*
X122688845Y-87957968D01*
X123385743Y-87191006D01*
X124319016Y-86392783D01*
X124781309Y-86088650D01*
X130969355Y-86083090D01*
X130974873Y-86139116D01*
X131002034Y-86228654D01*
X131039021Y-86297853D01*
X131046141Y-86311173D01*
X131105499Y-86383501D01*
X131177827Y-86442859D01*
X131260346Y-86486966D01*
X131349884Y-86514127D01*
X131443000Y-86523298D01*
X131466332Y-86521000D01*
X148899382Y-86521000D01*
X148741004Y-86679378D01*
X148598735Y-86892299D01*
X148500738Y-87128884D01*
X148450780Y-87380041D01*
X148450780Y-87636119D01*
X148500738Y-87887276D01*
X148598735Y-88123861D01*
X148741004Y-88336782D01*
X148922078Y-88517856D01*
X149134999Y-88660125D01*
X149371584Y-88758122D01*
X149622741Y-88808080D01*
X149878819Y-88808080D01*
X150129976Y-88758122D01*
X150366561Y-88660125D01*
X150579482Y-88517856D01*
X150760556Y-88336782D01*
X150902825Y-88123861D01*
X150988603Y-87916775D01*
X150988603Y-88358080D01*
X150997291Y-88446295D01*
X151023023Y-88531121D01*
X151064809Y-88609296D01*
X151121043Y-88677817D01*
X151189564Y-88734051D01*
X151267739Y-88775837D01*
X151352565Y-88801569D01*
X151440780Y-88810257D01*
X153140780Y-88810257D01*
X153228995Y-88801569D01*
X153313821Y-88775837D01*
X153391996Y-88734051D01*
X153460517Y-88677817D01*
X153516751Y-88609296D01*
X153558537Y-88531121D01*
X153584269Y-88446295D01*
X153592957Y-88358080D01*
X153592957Y-86658080D01*
X153584269Y-86569865D01*
X153558537Y-86485039D01*
X153516751Y-86406864D01*
X153460517Y-86338343D01*
X153391996Y-86282109D01*
X153313821Y-86240323D01*
X153228995Y-86214591D01*
X153140780Y-86205903D01*
X151440780Y-86205903D01*
X151352565Y-86214591D01*
X151267739Y-86240323D01*
X151189564Y-86282109D01*
X151121043Y-86338343D01*
X151064809Y-86406864D01*
X151023023Y-86485039D01*
X150997291Y-86569865D01*
X150988603Y-86658080D01*
X150988603Y-87099385D01*
X150902825Y-86892299D01*
X150760556Y-86679378D01*
X150579482Y-86498304D01*
X150366561Y-86356035D01*
X150129976Y-86258038D01*
X149878819Y-86208080D01*
X149670207Y-86208080D01*
X149691127Y-86139116D01*
X149698000Y-86069332D01*
X149698000Y-86069331D01*
X149698302Y-86066263D01*
X158184992Y-86058639D01*
X158403679Y-86191777D01*
G37*
%TD.AperFunction*%
X131634844Y-92423023D02*
X131615777Y-92469054D01*
X131583112Y-92633272D01*
X131583112Y-92800708D01*
X131615777Y-92964926D01*
X131679852Y-93119616D01*
X131772874Y-93258834D01*
X131891268Y-93377228D01*
X132030486Y-93470250D01*
X132185176Y-93534325D01*
X132349394Y-93566990D01*
X132516830Y-93566990D01*
X132681048Y-93534325D01*
X132835738Y-93470250D01*
X132974956Y-93377228D01*
X133060194Y-93291990D01*
X134629986Y-93291990D01*
X134569745Y-93437424D01*
X134537080Y-93601642D01*
X134537080Y-93769078D01*
X134569745Y-93933296D01*
X134633820Y-94087986D01*
X134726842Y-94227204D01*
X134845236Y-94345598D01*
X134984454Y-94438620D01*
X135118204Y-94494022D01*
X136468175Y-95843993D01*
X136343328Y-95843993D01*
X134550051Y-94050717D01*
X134526570Y-94022105D01*
X134412368Y-93928381D01*
X134282076Y-93858739D01*
X134140701Y-93815853D01*
X134030510Y-93805000D01*
X134030502Y-93805000D01*
X133993675Y-93801373D01*
X133956848Y-93805000D01*
X130790659Y-93805000D01*
X130560117Y-93574458D01*
X130536633Y-93545843D01*
X130422431Y-93452119D01*
X130292139Y-93382477D01*
X130150764Y-93339591D01*
X130040573Y-93328738D01*
X130040565Y-93328738D01*
X130003738Y-93325111D01*
X129966911Y-93328738D01*
X128139004Y-93328738D01*
X128134125Y-93325478D01*
X127979435Y-93261403D01*
X127926821Y-93250937D01*
X127926821Y-93239099D01*
X127894156Y-93074881D01*
X127830081Y-92920191D01*
X127737059Y-92780973D01*
X127651821Y-92695735D01*
X127651821Y-92386345D01*
X129462010Y-90576157D01*
X129512340Y-90576157D01*
X129540583Y-90578939D01*
X129568826Y-90576157D01*
X129568829Y-90576157D01*
X129653303Y-90567837D01*
X129750250Y-90538428D01*
X131634844Y-92423023D01*
%TA.AperFunction,Conductor*%
G36*
X131634844Y-92423023D02*
G01*
X131615777Y-92469054D01*
X131583112Y-92633272D01*
X131583112Y-92800708D01*
X131615777Y-92964926D01*
X131679852Y-93119616D01*
X131772874Y-93258834D01*
X131891268Y-93377228D01*
X132030486Y-93470250D01*
X132185176Y-93534325D01*
X132349394Y-93566990D01*
X132516830Y-93566990D01*
X132681048Y-93534325D01*
X132835738Y-93470250D01*
X132974956Y-93377228D01*
X133060194Y-93291990D01*
X134629986Y-93291990D01*
X134569745Y-93437424D01*
X134537080Y-93601642D01*
X134537080Y-93769078D01*
X134569745Y-93933296D01*
X134633820Y-94087986D01*
X134726842Y-94227204D01*
X134845236Y-94345598D01*
X134984454Y-94438620D01*
X135118204Y-94494022D01*
X136468175Y-95843993D01*
X136343328Y-95843993D01*
X134550051Y-94050717D01*
X134526570Y-94022105D01*
X134412368Y-93928381D01*
X134282076Y-93858739D01*
X134140701Y-93815853D01*
X134030510Y-93805000D01*
X134030502Y-93805000D01*
X133993675Y-93801373D01*
X133956848Y-93805000D01*
X130790659Y-93805000D01*
X130560117Y-93574458D01*
X130536633Y-93545843D01*
X130422431Y-93452119D01*
X130292139Y-93382477D01*
X130150764Y-93339591D01*
X130040573Y-93328738D01*
X130040565Y-93328738D01*
X130003738Y-93325111D01*
X129966911Y-93328738D01*
X128139004Y-93328738D01*
X128134125Y-93325478D01*
X127979435Y-93261403D01*
X127926821Y-93250937D01*
X127926821Y-93239099D01*
X127894156Y-93074881D01*
X127830081Y-92920191D01*
X127737059Y-92780973D01*
X127651821Y-92695735D01*
X127651821Y-92386345D01*
X129462010Y-90576157D01*
X129512340Y-90576157D01*
X129540583Y-90578939D01*
X129568826Y-90576157D01*
X129568829Y-90576157D01*
X129653303Y-90567837D01*
X129750250Y-90538428D01*
X131634844Y-92423023D01*
G37*
%TD.AperFunction*%
X131846000Y-90511173D02*
X131846000Y-90631718D01*
X131878665Y-90795936D01*
X131942740Y-90950626D01*
X132035762Y-91089844D01*
X132154156Y-91208238D01*
X132293374Y-91301260D01*
X132448064Y-91365335D01*
X132612282Y-91398000D01*
X132737949Y-91398000D01*
X132775000Y-91428407D01*
X132874891Y-91481800D01*
X132983279Y-91514679D01*
X133067753Y-91522999D01*
X133067755Y-91522999D01*
X133095998Y-91525781D01*
X133124241Y-91522999D01*
X136417829Y-91522999D01*
X136800002Y-91905173D01*
X136800001Y-92486978D01*
X136643407Y-92330384D01*
X136625395Y-92308436D01*
X136537839Y-92236582D01*
X136437949Y-92183189D01*
X136329561Y-92150310D01*
X136245087Y-92141990D01*
X136245084Y-92141990D01*
X136216841Y-92139208D01*
X136188598Y-92141990D01*
X133060194Y-92141990D01*
X132974956Y-92056752D01*
X132835738Y-91963730D01*
X132777968Y-91939801D01*
X130474994Y-89636828D01*
X130474994Y-89516282D01*
X130461809Y-89449998D01*
X130784826Y-89449998D01*
X131846000Y-90511173D01*
%TA.AperFunction,Conductor*%
G36*
X131846000Y-90511173D02*
G01*
X131846000Y-90631718D01*
X131878665Y-90795936D01*
X131942740Y-90950626D01*
X132035762Y-91089844D01*
X132154156Y-91208238D01*
X132293374Y-91301260D01*
X132448064Y-91365335D01*
X132612282Y-91398000D01*
X132737949Y-91398000D01*
X132775000Y-91428407D01*
X132874891Y-91481800D01*
X132983279Y-91514679D01*
X133067753Y-91522999D01*
X133067755Y-91522999D01*
X133095998Y-91525781D01*
X133124241Y-91522999D01*
X136417829Y-91522999D01*
X136800002Y-91905173D01*
X136800001Y-92486978D01*
X136643407Y-92330384D01*
X136625395Y-92308436D01*
X136537839Y-92236582D01*
X136437949Y-92183189D01*
X136329561Y-92150310D01*
X136245087Y-92141990D01*
X136245084Y-92141990D01*
X136216841Y-92139208D01*
X136188598Y-92141990D01*
X133060194Y-92141990D01*
X132974956Y-92056752D01*
X132835738Y-91963730D01*
X132777968Y-91939801D01*
X130474994Y-89636828D01*
X130474994Y-89516282D01*
X130461809Y-89449998D01*
X130784826Y-89449998D01*
X131846000Y-90511173D01*
G37*
%TD.AperFunction*%
X154650740Y-97079982D02*
X152341810Y-97079982D01*
X152373014Y-97030321D01*
X152377872Y-97020233D01*
X152429644Y-96872279D01*
X152432136Y-96861363D01*
X152449686Y-96705598D01*
X152450000Y-96700000D01*
X152450000Y-96602811D01*
X152469113Y-96433177D01*
X152524558Y-96274725D01*
X152613875Y-96132578D01*
X152732578Y-96013875D01*
X152874725Y-95924558D01*
X153033177Y-95869113D01*
X153202811Y-95850000D01*
X155585786Y-95850000D01*
X155590687Y-95849759D01*
X155785778Y-95830544D01*
X155795391Y-95828632D01*
X155948550Y-95782172D01*
X154650740Y-97079982D01*
%TA.AperFunction,Conductor*%
G36*
X154650740Y-97079982D02*
G01*
X152341810Y-97079982D01*
X152373014Y-97030321D01*
X152377872Y-97020233D01*
X152429644Y-96872279D01*
X152432136Y-96861363D01*
X152449686Y-96705598D01*
X152450000Y-96700000D01*
X152450000Y-96602811D01*
X152469113Y-96433177D01*
X152524558Y-96274725D01*
X152613875Y-96132578D01*
X152732578Y-96013875D01*
X152874725Y-95924558D01*
X153033177Y-95869113D01*
X153202811Y-95850000D01*
X155585786Y-95850000D01*
X155590687Y-95849759D01*
X155785778Y-95830544D01*
X155795391Y-95828632D01*
X155948550Y-95782172D01*
X154650740Y-97079982D01*
G37*
%TD.AperFunction*%
%TD*%
M02*
