G04 #@! TF.GenerationSoftware,KiCad,Pcbnew,(6.0.0)*
G04 #@! TF.CreationDate,2022-02-21T15:34:57-06:00*
G04 #@! TF.ProjectId,temp sensor,74656d70-2073-4656-9e73-6f722e6b6963,0.3*
G04 #@! TF.SameCoordinates,Original*
G04 #@! TF.FileFunction,Other,User*
%FSLAX45Y45*%
G04 Gerber Fmt 4.5, Leading zero omitted, Abs format (unit mm)*
G04 Created by KiCad (PCBNEW (6.0.0)) date 2022-02-21 15:34:57*
%MOMM*%
%LPD*%
G01*
G04 APERTURE LIST*
%ADD10C,0.050000*%
%ADD11C,0.120000*%
%ADD12C,0.100000*%
G04 APERTURE END LIST*
D10*
G04 #@! TO.C,U5*
X15481308Y-9594002D02*
X15481308Y-9234002D01*
X15481308Y-9234002D02*
X15101308Y-9234002D01*
X15101308Y-9594002D02*
X15481308Y-9594002D01*
X15101308Y-9234002D02*
X15101308Y-9594002D01*
G04 #@! TO.C,U3*
X13004200Y-8996700D02*
X13004200Y-9304700D01*
X12722200Y-8996700D02*
X13004200Y-8996700D01*
X12722200Y-9304700D02*
X12722200Y-8996700D01*
X13004200Y-9304700D02*
X12722200Y-9304700D01*
G04 #@! TO.C,C2*
X14386800Y-10378000D02*
X14386800Y-10082000D01*
X14532800Y-10082000D02*
X14532800Y-10378000D01*
X14386800Y-10082000D02*
X14532800Y-10082000D01*
X14532800Y-10378000D02*
X14386800Y-10378000D01*
G04 #@! TO.C,L2*
X15078300Y-10417100D02*
X15528300Y-10417100D01*
X15528300Y-9967100D02*
X15078300Y-9967100D01*
X15078300Y-9967100D02*
X15078300Y-10417100D01*
X15528300Y-10417100D02*
X15528300Y-9967100D01*
G04 #@! TO.C,R8*
X14847800Y-10081200D02*
X14847800Y-10227200D01*
X14551800Y-10081200D02*
X14847800Y-10081200D01*
X14551800Y-10227200D02*
X14551800Y-10081200D01*
X14847800Y-10227200D02*
X14551800Y-10227200D01*
G04 #@! TO.C,R1*
X14962776Y-9081222D02*
X14962776Y-8935222D01*
X14962776Y-8935222D02*
X15258776Y-8935222D01*
X15258776Y-8935222D02*
X15258776Y-9081222D01*
X15258776Y-9081222D02*
X14962776Y-9081222D01*
G04 #@! TO.C,R3*
X12095500Y-9538000D02*
X11949500Y-9538000D01*
X11949500Y-9242000D02*
X12095500Y-9242000D01*
X12095500Y-9242000D02*
X12095500Y-9538000D01*
X11949500Y-9538000D02*
X11949500Y-9242000D01*
G04 #@! TO.C,R15*
X11949500Y-9238000D02*
X11949500Y-8942000D01*
X12095500Y-9238000D02*
X11949500Y-9238000D01*
X12095500Y-8942000D02*
X12095500Y-9238000D01*
X11949500Y-8942000D02*
X12095500Y-8942000D01*
G04 #@! TO.C,R13*
X14800662Y-9483496D02*
X15096662Y-9483496D01*
X14800662Y-9629496D02*
X14800662Y-9483496D01*
X15096662Y-9483496D02*
X15096662Y-9629496D01*
X15096662Y-9629496D02*
X14800662Y-9629496D01*
G04 #@! TO.C,D1*
X13077500Y-9002500D02*
X13077500Y-8602500D01*
X13077500Y-9002500D02*
X13267500Y-9002500D01*
X13077500Y-8602500D02*
X13267500Y-8602500D01*
X13267500Y-9002500D02*
X13267500Y-8602500D01*
G04 #@! TO.C,U2*
X15912600Y-10353970D02*
X15532600Y-10353970D01*
X15532600Y-10353970D02*
X15532600Y-9993970D01*
X15532600Y-9993970D02*
X15912600Y-9993970D01*
X15912600Y-9993970D02*
X15912600Y-10353970D01*
G04 #@! TO.C,U1*
X13267600Y-9295700D02*
X13267600Y-9005700D01*
X13267600Y-9005700D02*
X13017600Y-9005700D01*
X13017600Y-9005700D02*
X13017600Y-9295700D01*
X13017600Y-9295700D02*
X13267600Y-9295700D01*
G04 #@! TO.C,C8*
X16090720Y-9992824D02*
X15750720Y-9992824D01*
X16090720Y-9796824D02*
X16090720Y-9992824D01*
X15750720Y-9992824D02*
X15750720Y-9796824D01*
X15750720Y-9796824D02*
X16090720Y-9796824D01*
G04 #@! TO.C,R11*
X15101144Y-9594240D02*
X15397144Y-9594240D01*
X15397144Y-9740240D02*
X15101144Y-9740240D01*
X15101144Y-9740240D02*
X15101144Y-9594240D01*
X15397144Y-9594240D02*
X15397144Y-9740240D01*
G04 #@! TO.C,R14*
X11947000Y-9544500D02*
X12243000Y-9544500D01*
X12243000Y-9544500D02*
X12243000Y-9690500D01*
X12243000Y-9690500D02*
X11947000Y-9690500D01*
X11947000Y-9690500D02*
X11947000Y-9544500D01*
G04 #@! TO.C,R12*
X15097424Y-9452966D02*
X14801424Y-9452966D01*
X14801424Y-9452966D02*
X14801424Y-9306966D01*
X14801424Y-9306966D02*
X15097424Y-9306966D01*
X15097424Y-9306966D02*
X15097424Y-9452966D01*
G04 #@! TO.C,JP1*
X13096800Y-9527000D02*
X13096800Y-9673000D01*
X12641800Y-9527000D02*
X13096800Y-9527000D01*
X12641800Y-9673000D02*
X12641800Y-9527000D01*
X13096800Y-9673000D02*
X12641800Y-9673000D01*
G04 #@! TO.C,R17*
X12775600Y-8596300D02*
X12921600Y-8596300D01*
X12921600Y-8596300D02*
X12921600Y-8892300D01*
X12921600Y-8892300D02*
X12775600Y-8892300D01*
X12775600Y-8892300D02*
X12775600Y-8596300D01*
G04 #@! TO.C,R2*
X14946276Y-8935222D02*
X14946276Y-9231222D01*
X14946276Y-9231222D02*
X14800276Y-9231222D01*
X14800276Y-8935222D02*
X14946276Y-8935222D01*
X14800276Y-9231222D02*
X14800276Y-8935222D01*
G04 #@! TO.C,C4*
X13122000Y-9798000D02*
X13122000Y-9502000D01*
X13268000Y-9798000D02*
X13122000Y-9798000D01*
X13122000Y-9502000D02*
X13268000Y-9502000D01*
X13268000Y-9502000D02*
X13268000Y-9798000D01*
G04 #@! TO.C,J1*
X16524696Y-9796396D02*
X16524696Y-8732396D01*
X15582696Y-9796396D02*
X15582696Y-8732396D01*
X15582696Y-8732396D02*
X16524696Y-8732396D01*
X15582696Y-9796396D02*
X16524696Y-9796396D01*
G04 #@! TO.C,R5*
X12677800Y-9712000D02*
X12677800Y-10008000D01*
X12677800Y-10008000D02*
X12531800Y-10008000D01*
X12531800Y-9712000D02*
X12677800Y-9712000D01*
X12531800Y-10008000D02*
X12531800Y-9712000D01*
G04 #@! TO.C,R7*
X12969500Y-9307000D02*
X13265500Y-9307000D01*
X12969500Y-9453000D02*
X12969500Y-9307000D01*
X13265500Y-9307000D02*
X13265500Y-9453000D01*
X13265500Y-9453000D02*
X12969500Y-9453000D01*
G04 #@! TO.C,R19*
X15266498Y-9080856D02*
X15266498Y-8934856D01*
X15266498Y-8934856D02*
X15562498Y-8934856D01*
X15562498Y-8934856D02*
X15562498Y-9080856D01*
X15562498Y-9080856D02*
X15266498Y-9080856D01*
G04 #@! TO.C,C6*
X14801800Y-9775384D02*
X15097800Y-9775384D01*
X15097800Y-9921384D02*
X14801800Y-9921384D01*
X14801800Y-9921384D02*
X14801800Y-9775384D01*
X15097800Y-9775384D02*
X15097800Y-9921384D01*
G04 #@! TO.C,SW2*
X12599151Y-10065629D02*
X13162050Y-10124792D01*
X13162050Y-10124792D02*
X13116581Y-10557409D01*
X12599151Y-10065629D02*
X12553681Y-10498246D01*
X12553681Y-10498246D02*
X13116581Y-10557409D01*
G04 #@! TO.C,R4*
X12971800Y-9712000D02*
X13117800Y-9712000D01*
X13117800Y-9712000D02*
X13117800Y-10008000D01*
X13117800Y-10008000D02*
X12971800Y-10008000D01*
X12971800Y-10008000D02*
X12971800Y-9712000D01*
G04 #@! TO.C,C5*
X12439500Y-8592000D02*
X12585500Y-8592000D01*
X12585500Y-8592000D02*
X12585500Y-8888000D01*
X12439500Y-8888000D02*
X12439500Y-8592000D01*
X12585500Y-8888000D02*
X12439500Y-8888000D01*
G04 #@! TO.C,R9*
X14551800Y-10233600D02*
X14847800Y-10233600D01*
X14847800Y-10379600D02*
X14551800Y-10379600D01*
X14847800Y-10233600D02*
X14847800Y-10379600D01*
X14551800Y-10379600D02*
X14551800Y-10233600D01*
G04 #@! TO.C,Q1*
X12964800Y-9705000D02*
X12684800Y-9705000D01*
X12684800Y-10025000D02*
X12684800Y-9705000D01*
X12964800Y-10025000D02*
X12964800Y-9705000D01*
X12684800Y-10025000D02*
X12964800Y-10025000D01*
G04 #@! TO.C,D2*
X11923000Y-9003000D02*
X11923000Y-9523000D01*
X11923000Y-9523000D02*
X11723000Y-9523000D01*
X11923000Y-9003000D02*
X11723000Y-9003000D01*
X11723000Y-9523000D02*
X11723000Y-9003000D01*
G04 #@! TO.C,C1*
X12492800Y-9718000D02*
X12346800Y-9718000D01*
X12492800Y-9422000D02*
X12492800Y-9718000D01*
X12346800Y-9422000D02*
X12492800Y-9422000D01*
X12346800Y-9718000D02*
X12346800Y-9422000D01*
G04 #@! TO.C,U4*
X12358000Y-9373400D02*
X12708000Y-9373400D01*
X12708000Y-9373400D02*
X12708000Y-8953400D01*
X12708000Y-8953400D02*
X12358000Y-8953400D01*
X12358000Y-8953400D02*
X12358000Y-9373400D01*
G04 #@! TO.C,R16*
X12769200Y-8596300D02*
X12769200Y-8892300D01*
X12769200Y-8892300D02*
X12623200Y-8892300D01*
X12623200Y-8596300D02*
X12769200Y-8596300D01*
X12623200Y-8892300D02*
X12623200Y-8596300D01*
G04 #@! TO.C,R6*
X14424054Y-10074292D02*
X14424054Y-9928292D01*
X14720054Y-9928292D02*
X14720054Y-10074292D01*
X14424054Y-9928292D02*
X14720054Y-9928292D01*
X14720054Y-10074292D02*
X14424054Y-10074292D01*
G04 #@! TO.C,SW1*
X12178906Y-9707545D02*
X12606072Y-10078874D01*
X12606072Y-10078874D02*
X12320686Y-10407173D01*
X12178906Y-9707545D02*
X11893521Y-10035843D01*
X11893521Y-10035843D02*
X12320686Y-10407173D01*
G04 #@! TO.C,R10*
X15407812Y-9085986D02*
X15407812Y-9231986D01*
X15111812Y-9085986D02*
X15407812Y-9085986D01*
X15111812Y-9231986D02*
X15111812Y-9085986D01*
X15407812Y-9231986D02*
X15111812Y-9231986D01*
G04 #@! TO.C,R20*
X15415686Y-9889084D02*
X15119686Y-9889084D01*
X15415686Y-9743084D02*
X15415686Y-9889084D01*
X15119686Y-9743084D02*
X15415686Y-9743084D01*
X15119686Y-9889084D02*
X15119686Y-9743084D01*
D11*
G04 #@! TO.C,D3*
X11948000Y-9487000D02*
X11948000Y-9037000D01*
X11783000Y-9487000D02*
X11948000Y-9487000D01*
X11783000Y-9037000D02*
X11948000Y-9037000D01*
X11783000Y-9487000D02*
X11783000Y-9037000D01*
D12*
G04 #@! TO.C,IC1*
X13273000Y-7964000D02*
X14793000Y-7964000D01*
X14793000Y-7964000D02*
X14793000Y-9824000D01*
X13273000Y-9824000D02*
X13273000Y-7964000D01*
X14793000Y-9824000D02*
X13273000Y-9824000D01*
D10*
G04 #@! TO.C,R21*
X14417800Y-9887000D02*
X14417800Y-10033000D01*
X14121800Y-10033000D02*
X14121800Y-9887000D01*
X14121800Y-9887000D02*
X14417800Y-9887000D01*
X14417800Y-10033000D02*
X14121800Y-10033000D01*
G04 #@! TO.C,H3*
X14353000Y-10306600D02*
G75*
G03*
X14353000Y-10306600I-200000J0D01*
G01*
G04 #@! TO.C,H2*
X15940200Y-8300000D02*
G75*
G03*
X15940200Y-8300000I-200000J0D01*
G01*
G04 #@! TO.C,H1*
X12739800Y-8300000D02*
G75*
G03*
X12739800Y-8300000I-200000J0D01*
G01*
G04 #@! TO.C,C3*
X12321800Y-9139012D02*
X12097800Y-9139012D01*
X12321800Y-8649012D02*
X12321800Y-9139012D01*
X12097800Y-9139012D02*
X12097800Y-8649012D01*
X12097800Y-8649012D02*
X12321800Y-8649012D01*
G04 #@! TO.C,C9*
X14847800Y-10415000D02*
X14847800Y-9925000D01*
X15071800Y-9925000D02*
X15071800Y-10415000D01*
X15071800Y-10415000D02*
X14847800Y-10415000D01*
X14847800Y-9925000D02*
X15071800Y-9925000D01*
G04 #@! TD*
M02*
