M48
; DRILL file {KiCad (5.1.10)-1} date 05/15/21 21:05:17
; FORMAT={-:-/ absolute / inch / decimal}
; #@! TF.CreationDate,2021-05-15T21:05:17-05:00
; #@! TF.GenerationSoftware,Kicad,Pcbnew,(5.1.10)-1
; #@! TF.FileFunction,Plated,1,2,PTH
FMAT,2
INCH
T1C0.0157
T2C0.0236
T3C0.0335
T4C0.0394
%
G90
G05
T1
X2.185Y-2.17
X2.22Y-1.765
X2.275Y-2.315
X2.2785Y-1.944
X2.2798Y-2.0752
X2.28Y-1.89
X2.295Y-1.765
X2.37Y-1.985
X2.425Y-1.85
X2.44Y-2.215
X2.47Y-1.85
X2.485Y-2.43
X2.4999Y-2.0546
X2.5098Y-1.8902
X2.56Y-2.2165
X2.57Y-2.075
X2.57Y-2.44
X2.575Y-2.04
X2.575Y-2.14
X2.585Y-1.87
X2.6229Y-1.8844
X2.635Y-1.955
X2.645Y-2.055
X2.67Y-2.44
X2.705Y-1.8158
X2.705Y-2.1446
X2.7099Y-2.2974
X2.74Y-1.995
X2.74Y-1.9172
X2.7462Y-1.8188
X2.79Y-2.32
X2.8142Y-2.2254
X2.8349Y-2.3002
X2.835Y-2.07
X2.8534Y-2.2289
X2.8547Y-1.8503
X2.875Y-1.9
X2.875Y-1.975
X2.875Y-2.055
X2.894Y-2.124
X2.895Y-1.82
X2.94Y-1.83
X2.94Y-1.935
X2.94Y-2.015
X2.957Y-2.228
X2.98Y-1.825
X2.98Y-1.895
X2.98Y-1.975
X2.98Y-2.055
X3.02Y-1.83
X3.02Y-1.935
X3.02Y-2.015
X3.06Y-1.825
X3.06Y-1.895
X3.06Y-1.975
X3.06Y-2.055
X3.095Y-1.935
X3.095Y-2.015
X3.095Y-2.12
X3.1Y-1.83
X3.145Y-1.825
X3.165Y-1.9
X3.165Y-1.975
X3.165Y-2.055
X3.1801Y-2.2199
X3.185Y-1.845
X3.19Y-2.11
X3.2Y-1.94
X3.205Y-2.02
X3.235Y-2.46
X3.3Y-1.845
X3.3Y-2.12
X3.325Y-2.33
X3.325Y-2.36
X3.385Y-2.06
X3.385Y-2.175
X3.4Y-1.855
X3.41Y-2.42
X3.47Y-1.91
X3.48Y-2.065
X3.49Y-2.23
X3.525Y-1.87
X3.54Y-2.17
X3.64Y-2.41
X3.65Y-2.105
X3.655Y-1.96
X3.685Y-2.345
X3.6867Y-2.3168
X3.715Y-2.06
X3.74Y-1.96
X3.77Y-2.4
X3.8Y-2.31
X3.87Y-2.305
T3
X3.8164Y-1.9016
X3.8164Y-2.0984
T4
X2.76Y-2.39
X2.86Y-2.39
X2.96Y-2.39
X3.06Y-2.39
X3.16Y-2.39
X3.355Y-1.8
X3.455Y-1.8
X3.555Y-1.8
X3.655Y-1.8
T2
G00X3.909Y-1.8622
M15
G01X3.9365Y-1.8622
M16
G05
G00X3.9365Y-2.1378
M15
G01X3.909Y-2.1378
M16
G05
T0
M30
