G04 #@! TF.GenerationSoftware,KiCad,Pcbnew,(6.0.0)*
G04 #@! TF.CreationDate,2022-03-23T01:08:54-05:00*
G04 #@! TF.ProjectId,temp sensor,74656d70-2073-4656-9e73-6f722e6b6963,0.3*
G04 #@! TF.SameCoordinates,Original*
G04 #@! TF.FileFunction,Other,User*
%FSLAX45Y45*%
G04 Gerber Fmt 4.5, Leading zero omitted, Abs format (unit mm)*
G04 Created by KiCad (PCBNEW (6.0.0)) date 2022-03-23 01:08:54*
%MOMM*%
%LPD*%
G01*
G04 APERTURE LIST*
%ADD10C,0.050000*%
%ADD11C,0.100000*%
G04 APERTURE END LIST*
D10*
G04 #@! TO.C,U5*
X15496308Y-9244002D02*
X15086308Y-9244002D01*
X15086308Y-9244002D02*
X15086308Y-9584002D01*
X15086308Y-9584002D02*
X15496308Y-9584002D01*
X15496308Y-9584002D02*
X15496308Y-9244002D01*
G04 #@! TO.C,U3*
X12722200Y-9317000D02*
X12722200Y-9009000D01*
X13004200Y-9009000D02*
X13004200Y-9317000D01*
X13004200Y-9317000D02*
X12722200Y-9317000D01*
X12722200Y-9009000D02*
X13004200Y-9009000D01*
G04 #@! TO.C,C2*
X14512800Y-10148000D02*
X14512800Y-10330000D01*
X14420800Y-10148000D02*
X14512800Y-10148000D01*
X14420800Y-10330000D02*
X14420800Y-10148000D01*
X14512800Y-10330000D02*
X14420800Y-10330000D01*
G04 #@! TO.C,L2*
X15078300Y-9967100D02*
X15078300Y-10417100D01*
X15528300Y-9967100D02*
X15078300Y-9967100D01*
X15078300Y-10417100D02*
X15528300Y-10417100D01*
X15528300Y-10417100D02*
X15528300Y-9967100D01*
G04 #@! TO.C,R8*
X14840800Y-10064000D02*
X14840800Y-10158000D01*
X14654800Y-10158000D02*
X14654800Y-10064000D01*
X14654800Y-10064000D02*
X14840800Y-10064000D01*
X14840800Y-10158000D02*
X14654800Y-10158000D01*
G04 #@! TO.C,R1*
X15017776Y-9055222D02*
X15017776Y-8961222D01*
X15203776Y-9055222D02*
X15017776Y-9055222D01*
X15017776Y-8961222D02*
X15203776Y-8961222D01*
X15203776Y-8961222D02*
X15203776Y-9055222D01*
G04 #@! TO.C,R3*
X11931800Y-9450000D02*
X12117800Y-9450000D01*
X11931800Y-9544000D02*
X11931800Y-9450000D01*
X12117800Y-9544000D02*
X11931800Y-9544000D01*
X12117800Y-9450000D02*
X12117800Y-9544000D01*
G04 #@! TO.C,R15*
X11944800Y-8972000D02*
X11850800Y-8972000D01*
X11850800Y-8786000D02*
X11944800Y-8786000D01*
X11850800Y-8972000D02*
X11850800Y-8786000D01*
X11944800Y-8786000D02*
X11944800Y-8972000D01*
G04 #@! TO.C,R13*
X15042800Y-9471000D02*
X15042800Y-9565000D01*
X14856800Y-9471000D02*
X15042800Y-9471000D01*
X14856800Y-9565000D02*
X14856800Y-9471000D01*
X15042800Y-9565000D02*
X14856800Y-9565000D01*
G04 #@! TO.C,U2*
X15530800Y-9993000D02*
X15530800Y-10333000D01*
X15940800Y-10333000D02*
X15940800Y-9993000D01*
X15530800Y-10333000D02*
X15940800Y-10333000D01*
X15940800Y-9993000D02*
X15530800Y-9993000D01*
G04 #@! TO.C,U1*
X13015800Y-9019000D02*
X13015800Y-9309000D01*
X13265800Y-9309000D02*
X13265800Y-9019000D01*
X13265800Y-9019000D02*
X13015800Y-9019000D01*
X13015800Y-9309000D02*
X13265800Y-9309000D01*
G04 #@! TO.C,C8*
X15750720Y-9992824D02*
X15750720Y-9796824D01*
X15750720Y-9796824D02*
X16090720Y-9796824D01*
X16090720Y-9796824D02*
X16090720Y-9992824D01*
X16090720Y-9992824D02*
X15750720Y-9992824D01*
G04 #@! TO.C,R11*
X15342144Y-9620240D02*
X15342144Y-9714240D01*
X15156144Y-9620240D02*
X15342144Y-9620240D01*
X15156144Y-9714240D02*
X15156144Y-9620240D01*
X15342144Y-9714240D02*
X15156144Y-9714240D01*
G04 #@! TO.C,R14*
X12119800Y-9683000D02*
X11933800Y-9683000D01*
X12119800Y-9589000D02*
X12119800Y-9683000D01*
X11933800Y-9683000D02*
X11933800Y-9589000D01*
X11933800Y-9589000D02*
X12119800Y-9589000D01*
G04 #@! TO.C,R12*
X14856424Y-9332966D02*
X15042424Y-9332966D01*
X15042424Y-9426966D02*
X14856424Y-9426966D01*
X14856424Y-9426966D02*
X14856424Y-9332966D01*
X15042424Y-9332966D02*
X15042424Y-9426966D01*
G04 #@! TO.C,R17*
X12983800Y-8834000D02*
X12797800Y-8834000D01*
X12797800Y-8740000D02*
X12983800Y-8740000D01*
X12983800Y-8740000D02*
X12983800Y-8834000D01*
X12797800Y-8834000D02*
X12797800Y-8740000D01*
G04 #@! TO.C,R2*
X15009800Y-9145000D02*
X14823800Y-9145000D01*
X14823800Y-9145000D02*
X14823800Y-9051000D01*
X15009800Y-9051000D02*
X15009800Y-9145000D01*
X14823800Y-9051000D02*
X15009800Y-9051000D01*
G04 #@! TO.C,C4*
X12333800Y-9756000D02*
X12333800Y-9664000D01*
X12333800Y-9664000D02*
X12515800Y-9664000D01*
X12515800Y-9664000D02*
X12515800Y-9756000D01*
X12515800Y-9756000D02*
X12333800Y-9756000D01*
G04 #@! TO.C,J1*
X16524696Y-9796396D02*
X16524696Y-8732396D01*
X15582696Y-9796396D02*
X15582696Y-8732396D01*
X15582696Y-8732396D02*
X16524696Y-8732396D01*
X15582696Y-9796396D02*
X16524696Y-9796396D01*
G04 #@! TO.C,R5*
X12634800Y-10004000D02*
X12540800Y-10004000D01*
X12540800Y-9818000D02*
X12634800Y-9818000D01*
X12634800Y-9818000D02*
X12634800Y-10004000D01*
X12540800Y-10004000D02*
X12540800Y-9818000D01*
G04 #@! TO.C,R7*
X13030800Y-9363000D02*
X13216800Y-9363000D01*
X13216800Y-9457000D02*
X13030800Y-9457000D01*
X13030800Y-9457000D02*
X13030800Y-9363000D01*
X13216800Y-9363000D02*
X13216800Y-9457000D01*
G04 #@! TO.C,R19*
X15348800Y-9080000D02*
X15348800Y-8986000D01*
X15534800Y-8986000D02*
X15534800Y-9080000D01*
X15348800Y-8986000D02*
X15534800Y-8986000D01*
X15534800Y-9080000D02*
X15348800Y-9080000D01*
G04 #@! TO.C,C6*
X14858800Y-9894384D02*
X14858800Y-9802384D01*
X14858800Y-9802384D02*
X15040800Y-9802384D01*
X15040800Y-9802384D02*
X15040800Y-9894384D01*
X15040800Y-9894384D02*
X14858800Y-9894384D01*
G04 #@! TO.C,SW2*
X13162050Y-10124792D02*
X13116581Y-10557409D01*
X12553681Y-10498246D02*
X13116581Y-10557409D01*
X12599151Y-10065629D02*
X12553681Y-10498246D01*
X12599151Y-10065629D02*
X13162050Y-10124792D01*
G04 #@! TO.C,R4*
X12970800Y-9767000D02*
X13064800Y-9767000D01*
X12970800Y-9953000D02*
X12970800Y-9767000D01*
X13064800Y-9767000D02*
X13064800Y-9953000D01*
X13064800Y-9953000D02*
X12970800Y-9953000D01*
G04 #@! TO.C,C5*
X13138800Y-8675000D02*
X13230800Y-8675000D01*
X13230800Y-8675000D02*
X13230800Y-8857000D01*
X13230800Y-8857000D02*
X13138800Y-8857000D01*
X13138800Y-8857000D02*
X13138800Y-8675000D01*
G04 #@! TO.C,R9*
X14824800Y-10293000D02*
X14824800Y-10387000D01*
X14638800Y-10387000D02*
X14638800Y-10293000D01*
X14824800Y-10387000D02*
X14638800Y-10387000D01*
X14638800Y-10293000D02*
X14824800Y-10293000D01*
G04 #@! TO.C,Q1*
X12684800Y-10025000D02*
X12684800Y-9705000D01*
X12684800Y-10025000D02*
X12964800Y-10025000D01*
X12964800Y-9705000D02*
X12684800Y-9705000D01*
X12964800Y-10025000D02*
X12964800Y-9705000D01*
G04 #@! TO.C,D2*
X11923000Y-9523000D02*
X11723000Y-9523000D01*
X11723000Y-9523000D02*
X11723000Y-9003000D01*
X11923000Y-9003000D02*
X11923000Y-9523000D01*
X11923000Y-9003000D02*
X11723000Y-9003000D01*
G04 #@! TO.C,C1*
X12135800Y-8905000D02*
X11953800Y-8905000D01*
X11953800Y-8813000D02*
X12135800Y-8813000D01*
X11953800Y-8905000D02*
X11953800Y-8813000D01*
X12135800Y-8813000D02*
X12135800Y-8905000D01*
G04 #@! TO.C,R16*
X12602800Y-8838000D02*
X12602800Y-8744000D01*
X12788800Y-8744000D02*
X12788800Y-8838000D01*
X12602800Y-8744000D02*
X12788800Y-8744000D01*
X12788800Y-8838000D02*
X12602800Y-8838000D01*
G04 #@! TO.C,R6*
X14546800Y-10019000D02*
X14640800Y-10019000D01*
X14640800Y-10205000D02*
X14546800Y-10205000D01*
X14640800Y-10019000D02*
X14640800Y-10205000D01*
X14546800Y-10205000D02*
X14546800Y-10019000D01*
G04 #@! TO.C,SW1*
X12178906Y-9707545D02*
X12606072Y-10078874D01*
X12178906Y-9707545D02*
X11893521Y-10035843D01*
X12606072Y-10078874D02*
X12320686Y-10407173D01*
X11893521Y-10035843D02*
X12320686Y-10407173D01*
G04 #@! TO.C,R10*
X15154800Y-9110000D02*
X15340800Y-9110000D01*
X15154800Y-9204000D02*
X15154800Y-9110000D01*
X15340800Y-9110000D02*
X15340800Y-9204000D01*
X15340800Y-9204000D02*
X15154800Y-9204000D01*
G04 #@! TO.C,R20*
X15360686Y-9863084D02*
X15174686Y-9863084D01*
X15174686Y-9863084D02*
X15174686Y-9769084D01*
X15174686Y-9769084D02*
X15360686Y-9769084D01*
X15360686Y-9769084D02*
X15360686Y-9863084D01*
D11*
G04 #@! TO.C,IC1*
X14793000Y-7964000D02*
X14793000Y-9824000D01*
X14793000Y-9824000D02*
X13273000Y-9824000D01*
X13273000Y-7964000D02*
X14793000Y-7964000D01*
X13273000Y-9824000D02*
X13273000Y-7964000D01*
D10*
G04 #@! TO.C,R21*
X14260800Y-9848000D02*
X14446800Y-9848000D01*
X14260800Y-9942000D02*
X14260800Y-9848000D01*
X14446800Y-9942000D02*
X14260800Y-9942000D01*
X14446800Y-9848000D02*
X14446800Y-9942000D01*
G04 #@! TO.C,H3*
X14353000Y-10306600D02*
G75*
G03*
X14353000Y-10306600I-200000J0D01*
G01*
G04 #@! TO.C,H2*
X15940200Y-8300000D02*
G75*
G03*
X15940200Y-8300000I-200000J0D01*
G01*
G04 #@! TO.C,H1*
X12739800Y-8300000D02*
G75*
G03*
X12739800Y-8300000I-200000J0D01*
G01*
G04 #@! TO.C,C3*
X12442800Y-8564000D02*
X12442800Y-8788000D01*
X11952800Y-8564000D02*
X12442800Y-8564000D01*
X12442800Y-8788000D02*
X11952800Y-8788000D01*
X11952800Y-8788000D02*
X11952800Y-8564000D01*
G04 #@! TO.C,C9*
X14847800Y-10415000D02*
X14847800Y-9925000D01*
X15071800Y-9925000D02*
X15071800Y-10415000D01*
X15071800Y-10415000D02*
X14847800Y-10415000D01*
X14847800Y-9925000D02*
X15071800Y-9925000D01*
G04 #@! TO.C,C10*
X12363800Y-9032000D02*
X12181800Y-9032000D01*
X12181800Y-8940000D02*
X12363800Y-8940000D01*
X12181800Y-9032000D02*
X12181800Y-8940000D01*
X12363800Y-8940000D02*
X12363800Y-9032000D01*
G04 #@! TO.C,U6*
X12355800Y-9288000D02*
X12715800Y-9288000D01*
X12715800Y-9038000D02*
X12355800Y-9038000D01*
X12715800Y-9288000D02*
X12715800Y-9038000D01*
X12355800Y-9038000D02*
X12355800Y-9288000D01*
G04 #@! TO.C,C7*
X12597800Y-8792000D02*
X12597800Y-8938000D01*
X12301800Y-8938000D02*
X12301800Y-8792000D01*
X12597800Y-8938000D02*
X12301800Y-8938000D01*
X12301800Y-8792000D02*
X12597800Y-8792000D01*
G04 #@! TO.C,U4*
X12349800Y-9313000D02*
X12349800Y-9033000D01*
X12029800Y-9033000D02*
X12349800Y-9033000D01*
X12029800Y-9033000D02*
X12029800Y-9313000D01*
X12029800Y-9313000D02*
X12349800Y-9313000D01*
G04 #@! TD*
M02*
