%TF.GenerationSoftware,KiCad,Pcbnew,(5.1.10)-1*%
%TF.CreationDate,2021-07-16T00:37:02-05:00*%
%TF.ProjectId,temp sensor,74656d70-2073-4656-9e73-6f722e6b6963,0.2*%
%TF.SameCoordinates,Original*%
%TF.FileFunction,Profile,NP*%
%FSLAX46Y46*%
G04 Gerber Fmt 4.6, Leading zero omitted, Abs format (unit mm)*
G04 Created by KiCad (PCBNEW (5.1.10)-1) date 2021-07-16 00:37:02*
%MOMM*%
%LPD*%
G01*
G04 APERTURE LIST*
%TA.AperFunction,Profile*%
%ADD10C,0.150000*%
%TD*%
%TA.AperFunction,Profile*%
%ADD11C,0.050000*%
%TD*%
G04 APERTURE END LIST*
D10*
X120737217Y-85394193D02*
G75*
G03*
X122188231Y-87802585I1137783J-955807D01*
G01*
X129100367Y-84012532D02*
G75*
G03*
X127650716Y-81605092I-1125367J962532D01*
G01*
D11*
X120739672Y-85396257D02*
G75*
G02*
X127650716Y-81605092I8011044J-6408835D01*
G01*
X122188231Y-87802585D02*
G75*
G02*
X129100367Y-84012532I8007812J-6406249D01*
G01*
X160811769Y-87802585D02*
G75*
G03*
X153899633Y-84012532I-8007812J-6406249D01*
G01*
X162260328Y-85396257D02*
G75*
G03*
X155349284Y-81605092I-8011044J-6408835D01*
G01*
D10*
X162262783Y-85394193D02*
G75*
G02*
X160811769Y-87802585I-1137783J-955807D01*
G01*
X153899633Y-84012532D02*
G75*
G02*
X155349284Y-81605092I1125367J962532D01*
G01*
D11*
X165168109Y-97089961D02*
G75*
G02*
X153541000Y-105096000I-11627109J4439961D01*
G01*
X149223000Y-86046000D02*
X131443000Y-86046000D01*
X131443000Y-86046000D02*
X131443000Y-80204000D01*
X165164364Y-88200244D02*
X164716364Y-88200244D01*
X164717000Y-97090000D02*
X164716364Y-88200244D01*
X165164364Y-88200244D02*
G75*
G03*
X153541000Y-80204000I-11623364J-4449756D01*
G01*
X153541000Y-105096000D02*
X129715083Y-105092285D01*
X149223000Y-80204000D02*
X149223000Y-86046000D01*
X131443000Y-80204000D02*
X129411000Y-80204000D01*
X153541000Y-80204000D02*
X149223000Y-80204000D01*
X164717000Y-97090000D02*
X165168109Y-97089961D01*
X129715083Y-105092285D02*
G75*
G02*
X129411000Y-80204000I-304083J12442285D01*
G01*
M02*
