%TF.GenerationSoftware,KiCad,Pcbnew,(5.1.10)-1*%
%TF.CreationDate,2021-07-16T00:37:02-05:00*%
%TF.ProjectId,temp sensor,74656d70-2073-4656-9e73-6f722e6b6963,0.2*%
%TF.SameCoordinates,Original*%
%TF.FileFunction,Soldermask,Bot*%
%TF.FilePolarity,Negative*%
%FSLAX46Y46*%
G04 Gerber Fmt 4.6, Leading zero omitted, Abs format (unit mm)*
G04 Created by KiCad (PCBNEW (5.1.10)-1) date 2021-07-16 00:37:02*
%MOMM*%
%LPD*%
G01*
G04 APERTURE LIST*
%ADD10C,0.100000*%
%ADD11O,1.700000X1.700000*%
%ADD12R,1.700000X1.700000*%
%ADD13R,1.900000X1.500000*%
%ADD14C,1.450000*%
%ADD15R,1.350000X0.400000*%
%ADD16O,1.900000X1.200000*%
%ADD17R,1.900000X1.200000*%
%ADD18O,1.600000X1.000000*%
%ADD19C,0.650000*%
%ADD20O,2.100000X1.000000*%
G04 APERTURE END LIST*
D10*
%TO.C,SW1*%
G36*
X120739168Y-99091064D02*
G01*
X121041051Y-99353488D01*
X121036083Y-99359203D01*
X121050519Y-99367454D01*
X121082526Y-99390179D01*
X121112151Y-99415932D01*
X121139110Y-99444465D01*
X121163142Y-99475503D01*
X121184016Y-99508747D01*
X121201531Y-99543877D01*
X121215518Y-99580555D01*
X121225844Y-99618426D01*
X121232407Y-99657128D01*
X121235145Y-99696286D01*
X121234032Y-99735524D01*
X121229078Y-99774465D01*
X121220331Y-99812732D01*
X121207876Y-99849958D01*
X121191832Y-99885784D01*
X121172353Y-99919864D01*
X121149628Y-99951871D01*
X121123875Y-99981496D01*
X121095342Y-100008455D01*
X121064304Y-100032487D01*
X121031060Y-100053361D01*
X120995930Y-100070876D01*
X120959252Y-100084863D01*
X120921381Y-100095189D01*
X120906433Y-100097724D01*
X121180645Y-100336093D01*
X120754207Y-100826654D01*
X119886291Y-100072187D01*
X120739168Y-99091064D01*
G37*
G36*
X122916477Y-101845030D02*
G01*
X123190690Y-102083399D01*
X123191120Y-102068244D01*
X123196074Y-102029303D01*
X123204821Y-101991036D01*
X123217276Y-101953810D01*
X123233320Y-101917984D01*
X123252799Y-101883904D01*
X123275524Y-101851897D01*
X123301277Y-101822272D01*
X123329810Y-101795313D01*
X123360848Y-101771281D01*
X123394092Y-101750407D01*
X123429222Y-101732892D01*
X123465900Y-101718905D01*
X123503771Y-101708579D01*
X123542473Y-101702016D01*
X123581631Y-101699278D01*
X123620869Y-101700391D01*
X123659810Y-101705345D01*
X123698077Y-101714092D01*
X123735303Y-101726547D01*
X123771129Y-101742591D01*
X123805209Y-101762070D01*
X123837216Y-101784795D01*
X123866841Y-101810548D01*
X123893800Y-101839081D01*
X123903979Y-101852228D01*
X123908948Y-101846513D01*
X124210832Y-102108936D01*
X123357955Y-103090059D01*
X122490039Y-102335591D01*
X122916477Y-101845030D01*
G37*
%TD*%
D11*
%TO.C,J2*%
X126832360Y-98966020D03*
D12*
X129372360Y-98966020D03*
%TD*%
D13*
%TO.C,J4*%
X163262500Y-93650000D03*
D14*
X160562500Y-90150000D03*
D15*
X160562500Y-92000000D03*
X160562500Y-91350000D03*
X160562500Y-93950000D03*
X160562500Y-93300000D03*
X160562500Y-92650000D03*
D14*
X160562500Y-95150000D03*
D13*
X163262500Y-91650000D03*
D16*
X163262500Y-89150000D03*
X163262500Y-96150000D03*
D17*
X163262500Y-95550000D03*
X163262500Y-89750000D03*
%TD*%
D11*
%TO.C,J5*%
X149750780Y-87508080D03*
D12*
X152290780Y-87508080D03*
%TD*%
D11*
%TO.C,J6*%
X133285000Y-103650000D03*
D12*
X135825000Y-103650000D03*
%TD*%
D10*
%TO.C,SW2*%
G36*
X126287599Y-102909584D02*
G01*
X126685408Y-102951396D01*
X126684617Y-102958927D01*
X126701174Y-102957406D01*
X126740428Y-102957663D01*
X126779466Y-102961766D01*
X126817915Y-102969676D01*
X126855404Y-102981316D01*
X126891571Y-102996575D01*
X126926068Y-103015306D01*
X126958563Y-103037328D01*
X126988744Y-103062428D01*
X127016319Y-103090366D01*
X127041021Y-103120872D01*
X127062616Y-103153653D01*
X127080893Y-103188392D01*
X127095678Y-103224756D01*
X127106827Y-103262394D01*
X127114233Y-103300943D01*
X127117824Y-103340032D01*
X127117567Y-103379286D01*
X127113464Y-103418324D01*
X127105554Y-103456773D01*
X127093914Y-103494262D01*
X127078655Y-103530429D01*
X127059924Y-103564926D01*
X127037902Y-103597421D01*
X127012802Y-103627602D01*
X127002012Y-103638252D01*
X127363356Y-103676231D01*
X127295413Y-104322670D01*
X126151712Y-104202463D01*
X126287599Y-102909584D01*
G37*
G36*
X129650757Y-103916647D02*
G01*
X130012101Y-103954626D01*
X130003761Y-103941964D01*
X129985484Y-103907225D01*
X129970699Y-103870861D01*
X129959550Y-103833223D01*
X129952144Y-103794674D01*
X129948553Y-103755585D01*
X129948810Y-103716331D01*
X129952913Y-103677293D01*
X129960823Y-103638844D01*
X129972463Y-103601355D01*
X129987722Y-103565188D01*
X130006453Y-103530691D01*
X130028475Y-103498196D01*
X130053575Y-103468015D01*
X130081513Y-103440440D01*
X130112019Y-103415738D01*
X130144800Y-103394143D01*
X130179539Y-103375866D01*
X130215903Y-103361081D01*
X130253541Y-103349932D01*
X130292090Y-103342526D01*
X130331179Y-103338935D01*
X130370433Y-103339192D01*
X130409471Y-103343295D01*
X130447920Y-103351205D01*
X130463800Y-103356135D01*
X130464592Y-103348604D01*
X130862400Y-103390415D01*
X130726513Y-104683294D01*
X129582813Y-104563086D01*
X129650757Y-103916647D01*
G37*
%TD*%
D18*
%TO.C,J1*%
X162146960Y-88323960D03*
D19*
X158496960Y-89753960D03*
D18*
X162146960Y-96963960D03*
D19*
X158496960Y-95533960D03*
D20*
X157966960Y-96963960D03*
X157966960Y-88323960D03*
%TD*%
M02*
