M48
; DRILL file {KiCad (6.0.0)} date Mon Feb 21 14:52:49 2022
; FORMAT={-:-/ absolute / inch / decimal}
; #@! TF.CreationDate,2022-02-21T14:52:49-06:00
; #@! TF.GenerationSoftware,Kicad,Pcbnew,(6.0.0)
; #@! TF.FileFunction,Plated,1,2,PTH
FMAT,2
INCH
; #@! TA.AperFunction,Plated,PTH,ViaDrill
T1C0.0157
; #@! TA.AperFunction,Plated,PTH,ComponentDrill
T2C0.0236
; #@! TA.AperFunction,Plated,PTH,ComponentDrill
T3C0.0335
%
G90
G05
T1
X4.6773Y-3.4775
X4.7012Y-3.5244
X4.7106Y-3.4142
X4.7113Y-3.8774
X4.7574Y-3.7425
X4.761Y-3.4992
X4.8421Y-3.8271
X4.8543Y-3.6457
X4.8628Y-3.6004
X4.8631Y-3.5533
X4.8681Y-3.4052
X4.8858Y-3.5049
X4.9256Y-3.5078
X4.9321Y-4.0443
X4.9487Y-3.7835
X4.9503Y-3.9991
X5.003Y-3.6741
X5.0187Y-3.5236
X5.0288Y-3.7039
X5.0288Y-3.7388
X5.0619Y-3.5182
X5.0736Y-3.6012
X5.1023Y-3.8386
X5.1026Y-3.7156
X5.1033Y-3.5276
X5.1193Y-3.6026
X5.1636Y-3.9957
X5.1829Y-4.0916
X5.1968Y-3.874
X5.2315Y-3.648
X5.2357Y-3.5764
X5.244Y-3.4173
X5.2479Y-3.7362
X5.2558Y-3.9173
X5.2854Y-3.9587
X5.3457Y-3.4693
X5.4071Y-3.4697
X5.4377Y-4.1004
X5.4452Y-3.5709
X5.4452Y-3.6509
X5.4852Y-3.5309
X5.4852Y-3.6109
X5.4852Y-3.6909
X5.5111Y-4.1004
X5.5243Y-3.7803
X5.5244Y-3.4673
X5.5252Y-3.5709
X5.5252Y-3.6509
X5.5369Y-3.9177
X5.5395Y-3.8571
X5.5652Y-3.5309
X5.5652Y-3.6109
X5.5652Y-3.6909
X5.5791Y-3.7648
X5.6002Y-3.5709
X5.6002Y-3.6509
X5.6217Y-3.4689
X5.622Y-3.8571
X5.636Y-4.0981
X5.687Y-3.6102
X5.6882Y-3.7331
X5.6944Y-4.101
X5.6965Y-3.4724
X5.7339Y-4.0283
X5.7681Y-4.1091
X5.8098Y-3.5114
X5.8114Y-3.6504
X5.8135Y-3.9505
X5.8239Y-3.827
X5.827Y-3.4278
X5.8362Y-3.9275
X5.8543Y-3.5039
X5.8758Y-4.0147
X5.898Y-3.8248
X5.9105Y-4.0159
X5.9169Y-3.6118
X5.9802Y-3.5
X5.9924Y-3.8453
X6.0168Y-3.7063
X6.0226Y-3.5061
X6.0249Y-4.0756
X6.0249Y-4.0126
X6.0263Y-3.9126
X6.0809Y-3.7977
X6.1087Y-3.6977
X6.1388Y-3.6568
X6.1409Y-3.5505
X6.1425Y-3.4774
X6.1627Y-3.844
X6.1899Y-4.0225
X6.1901Y-3.9887
X6.2332Y-4.0022
X6.2419Y-3.6993
X6.2449Y-3.6283
X6.2625Y-3.5717
X6.2899Y-4.0354
X6.3119Y-3.8241
X6.3548Y-3.97
X6.4156Y-3.9004
X6.4522Y-3.8453
T2
X4.7573Y-3.9254
X4.8657Y-4.0197
X4.9889Y-4.0692
X5.1318Y-4.0842
T3
X6.3214Y-3.5492
X6.3214Y-3.7461
T2
G00X6.1975Y-3.4773
M15
G01X6.2408Y-3.4773
M16
G05
G00X6.1975Y-3.8175
M15
G01X6.2408Y-3.8175
M16
G05
G00X6.3719Y-3.4773
M15
G01X6.3955Y-3.4773
M16
G05
G00X6.3719Y-3.8175
M15
G01X6.3955Y-3.8175
M16
G05
G00X6.4139Y-3.5098
M15
G01X6.4414Y-3.5098
M16
G05
G00X6.4414Y-3.7854
M15
G01X6.4139Y-3.7854
M16
G05
T0
M30
