G04 #@! TF.GenerationSoftware,KiCad,Pcbnew,(5.1.10)-1*
G04 #@! TF.CreationDate,2021-10-06T20:45:53-05:00*
G04 #@! TF.ProjectId,temp sensor,74656d70-2073-4656-9e73-6f722e6b6963,0.2*
G04 #@! TF.SameCoordinates,Original*
G04 #@! TF.FileFunction,Legend,Top*
G04 #@! TF.FilePolarity,Positive*
%FSLAX45Y45*%
G04 Gerber Fmt 4.5, Leading zero omitted, Abs format (unit mm)*
G04 Created by KiCad (PCBNEW (5.1.10)-1) date 2021-10-06 20:45:53*
%MOMM*%
%LPD*%
G01*
G04 APERTURE LIST*
%ADD10C,0.187500*%
%ADD11C,0.120000*%
%ADD12C,0.100000*%
%ADD13C,0.200000*%
G04 APERTURE END LIST*
D10*
X15094762Y-8087619D02*
X14994762Y-8120952D01*
X15094762Y-8154286D01*
X15094762Y-8206667D02*
X15094762Y-8216190D01*
X15090000Y-8225714D01*
X15085238Y-8230476D01*
X15075714Y-8235238D01*
X15056667Y-8240000D01*
X15032857Y-8240000D01*
X15013809Y-8235238D01*
X15004286Y-8230476D01*
X14999524Y-8225714D01*
X14994762Y-8216190D01*
X14994762Y-8206667D01*
X14999524Y-8197143D01*
X15004286Y-8192381D01*
X15013809Y-8187619D01*
X15032857Y-8182857D01*
X15056667Y-8182857D01*
X15075714Y-8187619D01*
X15085238Y-8192381D01*
X15090000Y-8197143D01*
X15094762Y-8206667D01*
X15004286Y-8282857D02*
X14999524Y-8287619D01*
X14994762Y-8282857D01*
X14999524Y-8278095D01*
X15004286Y-8282857D01*
X14994762Y-8282857D01*
X15085238Y-8325714D02*
X15090000Y-8330476D01*
X15094762Y-8340000D01*
X15094762Y-8363809D01*
X15090000Y-8373333D01*
X15085238Y-8378095D01*
X15075714Y-8382857D01*
X15066190Y-8382857D01*
X15051905Y-8378095D01*
X14994762Y-8320952D01*
X14994762Y-8382857D01*
D11*
G04 #@! TO.C,R10*
X15236086Y-9106736D02*
X15283538Y-9106736D01*
X15236086Y-9211236D02*
X15283538Y-9211236D01*
G04 #@! TO.C,SW1*
X12492253Y-10052809D02*
X12537536Y-10092172D01*
X12537536Y-10092172D02*
X12471930Y-10167643D01*
X12220558Y-9816628D02*
X12175275Y-9777264D01*
X12175275Y-9777264D02*
X12109670Y-9852735D01*
X12097238Y-10080431D02*
X12248180Y-10211643D01*
G04 #@! TO.C,J2*
X12550236Y-9763602D02*
X12550236Y-10029602D01*
X12810236Y-9763602D02*
X12550236Y-9763602D01*
X12810236Y-10029602D02*
X12550236Y-10029602D01*
X12810236Y-9763602D02*
X12810236Y-10029602D01*
X12937236Y-9763602D02*
X13070236Y-9763602D01*
X13070236Y-9763602D02*
X13070236Y-9896602D01*
G04 #@! TO.C,J3*
X13811500Y-10312000D02*
X13811500Y-10173000D01*
X14523500Y-10312000D02*
X14523500Y-10173000D01*
X13923500Y-10173000D02*
X14011500Y-10173000D01*
X14123500Y-10173000D02*
X14211500Y-10173000D01*
X14323500Y-10173000D02*
X14411500Y-10173000D01*
X13811500Y-10173000D02*
X13811500Y-10073500D01*
X13811500Y-10173000D02*
X13811500Y-10173000D01*
X14523500Y-10312000D02*
X14523500Y-10312000D01*
X13811500Y-10312000D02*
X13911500Y-10312000D01*
X13823500Y-10312000D02*
X13911500Y-10312000D01*
X14023500Y-10312000D02*
X14111500Y-10312000D01*
X14223500Y-10312000D02*
X14311500Y-10312000D01*
X14423500Y-10312000D02*
X14523500Y-10312000D01*
G04 #@! TO.C,R6*
X14701274Y-9950250D02*
X14748726Y-9950250D01*
X14701274Y-10054750D02*
X14748726Y-10054750D01*
G04 #@! TO.C,C5*
X12563500Y-8725942D02*
X12563500Y-8754058D01*
X12461500Y-8725942D02*
X12461500Y-8754058D01*
G04 #@! TO.C,R15*
X12074750Y-9066274D02*
X12074750Y-9113726D01*
X11970250Y-9066274D02*
X11970250Y-9113726D01*
G04 #@! TO.C,R16*
X12643950Y-8768026D02*
X12643950Y-8720574D01*
X12748450Y-8768026D02*
X12748450Y-8720574D01*
G04 #@! TO.C,C4*
X13144000Y-9621558D02*
X13144000Y-9593442D01*
X13246000Y-9621558D02*
X13246000Y-9593442D01*
G04 #@! TO.C,R13*
X14972388Y-9608746D02*
X14924936Y-9608746D01*
X14972388Y-9504246D02*
X14924936Y-9504246D01*
G04 #@! TO.C,R3*
X11970250Y-9413726D02*
X11970250Y-9366274D01*
X12074750Y-9413726D02*
X12074750Y-9366274D01*
G04 #@! TO.C,R2*
X14821026Y-9106948D02*
X14821026Y-9059496D01*
X14925526Y-9106948D02*
X14925526Y-9059496D01*
G04 #@! TO.C,R11*
X15272870Y-9719490D02*
X15225418Y-9719490D01*
X15272870Y-9614990D02*
X15225418Y-9614990D01*
G04 #@! TO.C,R4*
X13744750Y-9996274D02*
X13744750Y-10043726D01*
X13640250Y-9996274D02*
X13640250Y-10043726D01*
G04 #@! TO.C,R7*
X13141226Y-9432250D02*
X13093774Y-9432250D01*
X13141226Y-9327750D02*
X13093774Y-9327750D01*
G04 #@! TO.C,U2*
X15632600Y-10334970D02*
X15812600Y-10334970D01*
X15812600Y-10012970D02*
X15567600Y-10012970D01*
G04 #@! TO.C,C3*
X12318500Y-9023875D02*
X12318500Y-9076125D01*
X12171500Y-9023875D02*
X12171500Y-9076125D01*
G04 #@! TO.C,Q1*
X13351500Y-9955000D02*
X13351500Y-10145000D01*
X13583500Y-10095000D02*
X13583500Y-9955000D01*
G04 #@! TO.C,D1*
X13087500Y-8992500D02*
X13257500Y-8992500D01*
X13257500Y-8992500D02*
X13257500Y-8677500D01*
X13087500Y-8992500D02*
X13087500Y-8677500D01*
G04 #@! TO.C,U4*
X12694000Y-9163400D02*
X12694000Y-9313400D01*
X12372000Y-9013400D02*
X12372000Y-9313400D01*
G04 #@! TO.C,D2*
X11783500Y-9019000D02*
X11737500Y-9019000D01*
X11737500Y-9019000D02*
X11737500Y-9511000D01*
X11909500Y-9030000D02*
X11909500Y-9511000D01*
X11909500Y-9511000D02*
X11737500Y-9511000D01*
G04 #@! TO.C,R12*
X14973150Y-9432216D02*
X14925698Y-9432216D01*
X14973150Y-9327716D02*
X14925698Y-9327716D01*
G04 #@! TO.C,C9*
X15048832Y-10135399D02*
X15048832Y-10187649D01*
X14901832Y-10135399D02*
X14901832Y-10187649D01*
G04 #@! TO.C,R1*
X15087050Y-8955972D02*
X15134502Y-8955972D01*
X15087050Y-9060472D02*
X15134502Y-9060472D01*
G04 #@! TO.C,R9*
X14746226Y-10374750D02*
X14698774Y-10374750D01*
X14746226Y-10270250D02*
X14698774Y-10270250D01*
G04 #@! TO.C,C1*
X12621206Y-9550566D02*
X12621206Y-9578682D01*
X12519206Y-9550566D02*
X12519206Y-9578682D01*
G04 #@! TO.C,R17*
X12796350Y-8768026D02*
X12796350Y-8720574D01*
X12900850Y-8768026D02*
X12900850Y-8720574D01*
G04 #@! TO.C,R14*
X12118726Y-9669750D02*
X12071274Y-9669750D01*
X12118726Y-9565250D02*
X12071274Y-9565250D01*
G04 #@! TO.C,C8*
X15894595Y-9821324D02*
X15946845Y-9821324D01*
X15894595Y-9968324D02*
X15946845Y-9968324D01*
G04 #@! TO.C,R8*
X14698774Y-10115250D02*
X14746226Y-10115250D01*
X14698774Y-10219750D02*
X14746226Y-10219750D01*
G04 #@! TO.C,L2*
X15503300Y-10402100D02*
X15103300Y-10402100D01*
X15503300Y-9982100D02*
X15103300Y-9982100D01*
G04 #@! TO.C,J5*
X14842078Y-8617808D02*
X14842078Y-8883808D01*
X15102078Y-8617808D02*
X14842078Y-8617808D01*
X15102078Y-8883808D02*
X14842078Y-8883808D01*
X15102078Y-8617808D02*
X15102078Y-8883808D01*
X15229078Y-8617808D02*
X15362078Y-8617808D01*
X15362078Y-8617808D02*
X15362078Y-8750808D01*
G04 #@! TO.C,C2*
X14441558Y-9991000D02*
X14413442Y-9991000D01*
X14441558Y-9889000D02*
X14413442Y-9889000D01*
G04 #@! TO.C,J6*
X13195500Y-10232000D02*
X13195500Y-10498000D01*
X13455500Y-10232000D02*
X13195500Y-10232000D01*
X13455500Y-10498000D02*
X13195500Y-10498000D01*
X13455500Y-10232000D02*
X13455500Y-10498000D01*
X13582500Y-10232000D02*
X13715500Y-10232000D01*
X13715500Y-10232000D02*
X13715500Y-10365000D01*
G04 #@! TO.C,R5*
X13195250Y-10043726D02*
X13195250Y-9996274D01*
X13299750Y-10043726D02*
X13299750Y-9996274D01*
D12*
G04 #@! TO.C,U3*
X12728200Y-9286700D02*
X12743200Y-9286700D01*
X12728200Y-9285700D02*
X12728200Y-9270700D01*
X12998200Y-9285700D02*
X12998200Y-9270700D01*
X12998200Y-9285700D02*
X12983200Y-9285700D01*
X12983200Y-9015700D02*
X12998200Y-9015700D01*
X12998200Y-9015700D02*
X12998200Y-9030700D01*
X12728200Y-9030700D02*
X12728200Y-9005700D01*
D11*
G04 #@! TO.C,L1*
X13051000Y-8753722D02*
X13051000Y-8786278D01*
X12949000Y-8753722D02*
X12949000Y-8786278D01*
G04 #@! TO.C,U5*
X15201308Y-9575002D02*
X15381308Y-9575002D01*
X15381308Y-9253002D02*
X15136308Y-9253002D01*
G04 #@! TO.C,U1*
X13031600Y-9150700D02*
X13031600Y-9050700D01*
X13253600Y-9250700D02*
X13253600Y-9050700D01*
G04 #@! TO.C,SW2*
X13053866Y-10168725D02*
X13113537Y-10174996D01*
X13113537Y-10174996D02*
X13103084Y-10274448D01*
X12695838Y-10131094D02*
X12636166Y-10124823D01*
X12636166Y-10124823D02*
X12625714Y-10224275D01*
X12746132Y-10417923D02*
X12945036Y-10438828D01*
D13*
G04 #@! TO.C,IC1*
X13313300Y-8804800D02*
X13313300Y-8804800D01*
X13323300Y-8804800D02*
X13323300Y-8804800D01*
X13313300Y-8804800D02*
X13313300Y-8804800D01*
X14693300Y-8604800D02*
X14693300Y-8104800D01*
X14693300Y-8604800D02*
X14693300Y-8604800D01*
X14693300Y-8104800D02*
X14693300Y-8604800D01*
X14693300Y-8104800D02*
X14693300Y-8104800D01*
X13373300Y-8104800D02*
X13373300Y-8104800D01*
X14693300Y-8104800D02*
X13373300Y-8104800D01*
X14693300Y-8104800D02*
X14693300Y-8104800D01*
X13373300Y-9764800D02*
X14693300Y-9764800D01*
X13373300Y-8104800D02*
X13373300Y-8604800D01*
X13373300Y-8104800D02*
X13373300Y-8104800D01*
X13373300Y-8604800D02*
X13373300Y-8104800D01*
X13373300Y-8604800D02*
X13373300Y-8604800D01*
X13323300Y-8804800D02*
G75*
G02*
X13313300Y-8804800I-5000J0D01*
G01*
X13313300Y-8804800D02*
G75*
G02*
X13323300Y-8804800I5000J0D01*
G01*
X13323300Y-8804800D02*
G75*
G02*
X13313300Y-8804800I-5000J0D01*
G01*
D11*
G04 #@! TO.C,C6*
X15720910Y-8709352D02*
X15692794Y-8709352D01*
X15720910Y-8607352D02*
X15692794Y-8607352D01*
G04 #@! TO.C,J1*
X16309696Y-9734396D02*
X16499696Y-9734396D01*
X15919696Y-9734396D02*
X16119696Y-9734396D01*
X16309696Y-8794396D02*
X16499696Y-8794396D01*
X15919696Y-8794396D02*
X16119696Y-8794396D01*
X16499696Y-9734396D02*
X16499696Y-8794396D01*
G04 #@! TO.C,R18*
X15431590Y-8709048D02*
X15431590Y-8756500D01*
X15536090Y-8709048D02*
X15536090Y-8756500D01*
G04 #@! TO.C,R19*
X15390772Y-8955606D02*
X15438224Y-8955606D01*
X15390772Y-9060106D02*
X15438224Y-9060106D01*
G04 #@! TO.C,R20*
X15291412Y-9868334D02*
X15243960Y-9868334D01*
X15291412Y-9763834D02*
X15243960Y-9763834D01*
G04 #@! TO.C,F1*
X15614164Y-9826806D02*
X15581608Y-9826806D01*
X15614164Y-9928806D02*
X15581608Y-9928806D01*
G04 #@! TO.C,JP1*
X12778890Y-9632876D02*
X12826342Y-9632876D01*
X12778890Y-9528376D02*
X12826342Y-9528376D01*
G04 #@! TO.C,R10*
X15458740Y-9183009D02*
X15433740Y-9147294D01*
X15415882Y-9183009D02*
X15415882Y-9108009D01*
X15444454Y-9108009D01*
X15451597Y-9111580D01*
X15455168Y-9115151D01*
X15458740Y-9122294D01*
X15458740Y-9133009D01*
X15455168Y-9140151D01*
X15451597Y-9143723D01*
X15444454Y-9147294D01*
X15415882Y-9147294D01*
X15530168Y-9183009D02*
X15487311Y-9183009D01*
X15508740Y-9183009D02*
X15508740Y-9108009D01*
X15501597Y-9118723D01*
X15494454Y-9125866D01*
X15487311Y-9129437D01*
X15576597Y-9108009D02*
X15583740Y-9108009D01*
X15590882Y-9111580D01*
X15594454Y-9115151D01*
X15598025Y-9122294D01*
X15601597Y-9136580D01*
X15601597Y-9154437D01*
X15598025Y-9168723D01*
X15594454Y-9175866D01*
X15590882Y-9179437D01*
X15583740Y-9183009D01*
X15576597Y-9183009D01*
X15569454Y-9179437D01*
X15565882Y-9175866D01*
X15562311Y-9168723D01*
X15558740Y-9154437D01*
X15558740Y-9136580D01*
X15562311Y-9122294D01*
X15565882Y-9115151D01*
X15569454Y-9111580D01*
X15576597Y-9108009D01*
G04 #@! TO.C,SW1*
X11972267Y-9911979D02*
X11981991Y-9906236D01*
X11993707Y-9892759D01*
X11995698Y-9885025D01*
X11995345Y-9879987D01*
X11992297Y-9872605D01*
X11986907Y-9867919D01*
X11979173Y-9865928D01*
X11974134Y-9866281D01*
X11966753Y-9869328D01*
X11954685Y-9877767D01*
X11947304Y-9880815D01*
X11942265Y-9881167D01*
X11934531Y-9879176D01*
X11929141Y-9874490D01*
X11926093Y-9867108D01*
X11925741Y-9862070D01*
X11927731Y-9854336D01*
X11939447Y-9840859D01*
X11949171Y-9835116D01*
X11962877Y-9813905D02*
X12031196Y-9849633D01*
X12000137Y-9803705D01*
X12049940Y-9828070D01*
X12005053Y-9765388D01*
X12106174Y-9763380D02*
X12078057Y-9795725D01*
X12092116Y-9779553D02*
X12035512Y-9730348D01*
X12038912Y-9742768D01*
X12039617Y-9752845D01*
X12037626Y-9760579D01*
G04 #@! TO.C,J2*
X12942236Y-9640531D02*
X12942236Y-9694102D01*
X12938664Y-9704816D01*
X12931522Y-9711959D01*
X12920807Y-9715531D01*
X12913664Y-9715531D01*
X12974379Y-9647673D02*
X12977950Y-9644102D01*
X12985093Y-9640531D01*
X13002950Y-9640531D01*
X13010093Y-9644102D01*
X13013664Y-9647673D01*
X13017236Y-9654816D01*
X13017236Y-9661959D01*
X13013664Y-9672673D01*
X12970807Y-9715531D01*
X13017236Y-9715531D01*
G04 #@! TO.C,J3*
X14465000Y-10386429D02*
X14465000Y-10440000D01*
X14461428Y-10450714D01*
X14454286Y-10457857D01*
X14443571Y-10461429D01*
X14436428Y-10461429D01*
X14493571Y-10386429D02*
X14540000Y-10386429D01*
X14515000Y-10415000D01*
X14525714Y-10415000D01*
X14532857Y-10418571D01*
X14536428Y-10422143D01*
X14540000Y-10429286D01*
X14540000Y-10447143D01*
X14536428Y-10454286D01*
X14532857Y-10457857D01*
X14525714Y-10461429D01*
X14504286Y-10461429D01*
X14497143Y-10457857D01*
X14493571Y-10454286D01*
G04 #@! TO.C,R6*
X14714166Y-9920117D02*
X14689166Y-9884402D01*
X14671309Y-9920117D02*
X14671309Y-9845117D01*
X14699880Y-9845117D01*
X14707023Y-9848688D01*
X14710594Y-9852259D01*
X14714166Y-9859402D01*
X14714166Y-9870117D01*
X14710594Y-9877259D01*
X14707023Y-9880831D01*
X14699880Y-9884402D01*
X14671309Y-9884402D01*
X14778452Y-9845117D02*
X14764166Y-9845117D01*
X14757023Y-9848688D01*
X14753452Y-9852259D01*
X14746309Y-9862974D01*
X14742737Y-9877259D01*
X14742737Y-9905831D01*
X14746309Y-9912974D01*
X14749880Y-9916545D01*
X14757023Y-9920117D01*
X14771309Y-9920117D01*
X14778452Y-9916545D01*
X14782023Y-9912974D01*
X14785594Y-9905831D01*
X14785594Y-9887974D01*
X14782023Y-9880831D01*
X14778452Y-9877259D01*
X14771309Y-9873688D01*
X14757023Y-9873688D01*
X14749880Y-9877259D01*
X14746309Y-9880831D01*
X14742737Y-9887974D01*
G04 #@! TO.C,C5*
X12401158Y-8787184D02*
X12404729Y-8790755D01*
X12408300Y-8801470D01*
X12408300Y-8808613D01*
X12404729Y-8819327D01*
X12397586Y-8826470D01*
X12390443Y-8830041D01*
X12376158Y-8833613D01*
X12365443Y-8833613D01*
X12351158Y-8830041D01*
X12344015Y-8826470D01*
X12336872Y-8819327D01*
X12333300Y-8808613D01*
X12333300Y-8801470D01*
X12336872Y-8790755D01*
X12340443Y-8787184D01*
X12333300Y-8719327D02*
X12333300Y-8755041D01*
X12369015Y-8758613D01*
X12365443Y-8755041D01*
X12361872Y-8747898D01*
X12361872Y-8730041D01*
X12365443Y-8722898D01*
X12369015Y-8719327D01*
X12376158Y-8715755D01*
X12394015Y-8715755D01*
X12401158Y-8719327D01*
X12404729Y-8722898D01*
X12408300Y-8730041D01*
X12408300Y-8747898D01*
X12404729Y-8755041D01*
X12401158Y-8758613D01*
G04 #@! TO.C,R15*
X12006428Y-8838214D02*
X11970714Y-8863214D01*
X12006428Y-8881071D02*
X11931428Y-8881071D01*
X11931428Y-8852500D01*
X11935000Y-8845357D01*
X11938571Y-8841786D01*
X11945714Y-8838214D01*
X11956428Y-8838214D01*
X11963571Y-8841786D01*
X11967143Y-8845357D01*
X11970714Y-8852500D01*
X11970714Y-8881071D01*
X12006428Y-8766786D02*
X12006428Y-8809643D01*
X12006428Y-8788214D02*
X11931428Y-8788214D01*
X11942143Y-8795357D01*
X11949286Y-8802500D01*
X11952857Y-8809643D01*
X11931428Y-8698929D02*
X11931428Y-8734643D01*
X11967143Y-8738214D01*
X11963571Y-8734643D01*
X11960000Y-8727500D01*
X11960000Y-8709643D01*
X11963571Y-8702500D01*
X11967143Y-8698929D01*
X11974286Y-8695357D01*
X11992143Y-8695357D01*
X11999286Y-8698929D01*
X12002857Y-8702500D01*
X12006428Y-8709643D01*
X12006428Y-8727500D01*
X12002857Y-8734643D01*
X11999286Y-8738214D01*
G04 #@! TO.C,R16*
X12660930Y-8570869D02*
X12635930Y-8535154D01*
X12618072Y-8570869D02*
X12618072Y-8495869D01*
X12646644Y-8495869D01*
X12653787Y-8499440D01*
X12657358Y-8503011D01*
X12660930Y-8510154D01*
X12660930Y-8520869D01*
X12657358Y-8528011D01*
X12653787Y-8531583D01*
X12646644Y-8535154D01*
X12618072Y-8535154D01*
X12732358Y-8570869D02*
X12689501Y-8570869D01*
X12710930Y-8570869D02*
X12710930Y-8495869D01*
X12703787Y-8506583D01*
X12696644Y-8513726D01*
X12689501Y-8517297D01*
X12796644Y-8495869D02*
X12782358Y-8495869D01*
X12775215Y-8499440D01*
X12771644Y-8503011D01*
X12764501Y-8513726D01*
X12760930Y-8528011D01*
X12760930Y-8556583D01*
X12764501Y-8563726D01*
X12768072Y-8567297D01*
X12775215Y-8570869D01*
X12789501Y-8570869D01*
X12796644Y-8567297D01*
X12800215Y-8563726D01*
X12803787Y-8556583D01*
X12803787Y-8538726D01*
X12800215Y-8531583D01*
X12796644Y-8528011D01*
X12789501Y-8524440D01*
X12775215Y-8524440D01*
X12768072Y-8528011D01*
X12764501Y-8531583D01*
X12760930Y-8538726D01*
G04 #@! TO.C,C4*
X13339942Y-9617764D02*
X13343513Y-9621335D01*
X13347084Y-9632050D01*
X13347084Y-9639193D01*
X13343513Y-9649907D01*
X13336370Y-9657050D01*
X13329227Y-9660621D01*
X13314942Y-9664193D01*
X13304227Y-9664193D01*
X13289942Y-9660621D01*
X13282799Y-9657050D01*
X13275656Y-9649907D01*
X13272084Y-9639193D01*
X13272084Y-9632050D01*
X13275656Y-9621335D01*
X13279227Y-9617764D01*
X13297084Y-9553478D02*
X13347084Y-9553478D01*
X13268513Y-9571335D02*
X13322084Y-9589193D01*
X13322084Y-9542764D01*
G04 #@! TO.C,R13*
X14773648Y-9730029D02*
X14748648Y-9694314D01*
X14730790Y-9730029D02*
X14730790Y-9655029D01*
X14759362Y-9655029D01*
X14766505Y-9658600D01*
X14770076Y-9662171D01*
X14773648Y-9669314D01*
X14773648Y-9680029D01*
X14770076Y-9687171D01*
X14766505Y-9690743D01*
X14759362Y-9694314D01*
X14730790Y-9694314D01*
X14845076Y-9730029D02*
X14802219Y-9730029D01*
X14823648Y-9730029D02*
X14823648Y-9655029D01*
X14816505Y-9665743D01*
X14809362Y-9672886D01*
X14802219Y-9676457D01*
X14870076Y-9655029D02*
X14916505Y-9655029D01*
X14891505Y-9683600D01*
X14902219Y-9683600D01*
X14909362Y-9687171D01*
X14912933Y-9690743D01*
X14916505Y-9697886D01*
X14916505Y-9715743D01*
X14912933Y-9722886D01*
X14909362Y-9726457D01*
X14902219Y-9730029D01*
X14880790Y-9730029D01*
X14873648Y-9726457D01*
X14870076Y-9722886D01*
G04 #@! TO.C,R3*
X12208828Y-9402500D02*
X12173114Y-9427500D01*
X12208828Y-9445357D02*
X12133828Y-9445357D01*
X12133828Y-9416786D01*
X12137400Y-9409643D01*
X12140971Y-9406071D01*
X12148114Y-9402500D01*
X12158828Y-9402500D01*
X12165971Y-9406071D01*
X12169543Y-9409643D01*
X12173114Y-9416786D01*
X12173114Y-9445357D01*
X12133828Y-9377500D02*
X12133828Y-9331071D01*
X12162400Y-9356071D01*
X12162400Y-9345357D01*
X12165971Y-9338214D01*
X12169543Y-9334643D01*
X12176686Y-9331071D01*
X12194543Y-9331071D01*
X12201686Y-9334643D01*
X12205257Y-9338214D01*
X12208828Y-9345357D01*
X12208828Y-9366786D01*
X12205257Y-9373929D01*
X12201686Y-9377500D01*
G04 #@! TO.C,R2*
X15026786Y-9259624D02*
X14991072Y-9284624D01*
X15026786Y-9302481D02*
X14951786Y-9302481D01*
X14951786Y-9273910D01*
X14955358Y-9266767D01*
X14958929Y-9263195D01*
X14966072Y-9259624D01*
X14976786Y-9259624D01*
X14983929Y-9263195D01*
X14987501Y-9266767D01*
X14991072Y-9273910D01*
X14991072Y-9302481D01*
X14958929Y-9231053D02*
X14955358Y-9227481D01*
X14951786Y-9220338D01*
X14951786Y-9202481D01*
X14955358Y-9195338D01*
X14958929Y-9191767D01*
X14966072Y-9188195D01*
X14973215Y-9188195D01*
X14983929Y-9191767D01*
X15026786Y-9234624D01*
X15026786Y-9188195D01*
G04 #@! TO.C,R11*
X15472456Y-9708789D02*
X15447456Y-9673074D01*
X15429598Y-9708789D02*
X15429598Y-9633789D01*
X15458170Y-9633789D01*
X15465313Y-9637360D01*
X15468884Y-9640931D01*
X15472456Y-9648074D01*
X15472456Y-9658789D01*
X15468884Y-9665931D01*
X15465313Y-9669503D01*
X15458170Y-9673074D01*
X15429598Y-9673074D01*
X15543884Y-9708789D02*
X15501027Y-9708789D01*
X15522456Y-9708789D02*
X15522456Y-9633789D01*
X15515313Y-9644503D01*
X15508170Y-9651646D01*
X15501027Y-9655217D01*
X15615313Y-9708789D02*
X15572456Y-9708789D01*
X15593884Y-9708789D02*
X15593884Y-9633789D01*
X15586741Y-9644503D01*
X15579598Y-9651646D01*
X15572456Y-9655217D01*
G04 #@! TO.C,R4*
X13883928Y-9880000D02*
X13848214Y-9905000D01*
X13883928Y-9922857D02*
X13808928Y-9922857D01*
X13808928Y-9894286D01*
X13812500Y-9887143D01*
X13816071Y-9883571D01*
X13823214Y-9880000D01*
X13833928Y-9880000D01*
X13841071Y-9883571D01*
X13844643Y-9887143D01*
X13848214Y-9894286D01*
X13848214Y-9922857D01*
X13833928Y-9815714D02*
X13883928Y-9815714D01*
X13805357Y-9833571D02*
X13858928Y-9851429D01*
X13858928Y-9805000D01*
G04 #@! TO.C,R7*
X13193900Y-9845729D02*
X13168900Y-9810014D01*
X13151043Y-9845729D02*
X13151043Y-9770729D01*
X13179614Y-9770729D01*
X13186757Y-9774300D01*
X13190328Y-9777871D01*
X13193900Y-9785014D01*
X13193900Y-9795729D01*
X13190328Y-9802871D01*
X13186757Y-9806443D01*
X13179614Y-9810014D01*
X13151043Y-9810014D01*
X13218900Y-9770729D02*
X13268900Y-9770729D01*
X13236757Y-9845729D01*
G04 #@! TO.C,U2*
X15951969Y-10140773D02*
X15951969Y-10201487D01*
X15955540Y-10208630D01*
X15959112Y-10212201D01*
X15966255Y-10215773D01*
X15980540Y-10215773D01*
X15987683Y-10212201D01*
X15991255Y-10208630D01*
X15994826Y-10201487D01*
X15994826Y-10140773D01*
X16026969Y-10147915D02*
X16030540Y-10144344D01*
X16037683Y-10140773D01*
X16055540Y-10140773D01*
X16062683Y-10144344D01*
X16066255Y-10147915D01*
X16069826Y-10155058D01*
X16069826Y-10162201D01*
X16066255Y-10172915D01*
X16023398Y-10215773D01*
X16069826Y-10215773D01*
G04 #@! TO.C,C3*
X12325466Y-9329982D02*
X12329037Y-9333553D01*
X12332608Y-9344268D01*
X12332608Y-9351411D01*
X12329037Y-9362125D01*
X12321894Y-9369268D01*
X12314751Y-9372839D01*
X12300466Y-9376411D01*
X12289751Y-9376411D01*
X12275466Y-9372839D01*
X12268323Y-9369268D01*
X12261180Y-9362125D01*
X12257608Y-9351411D01*
X12257608Y-9344268D01*
X12261180Y-9333553D01*
X12264751Y-9329982D01*
X12257608Y-9304982D02*
X12257608Y-9258553D01*
X12286180Y-9283553D01*
X12286180Y-9272839D01*
X12289751Y-9265696D01*
X12293323Y-9262125D01*
X12300466Y-9258553D01*
X12318323Y-9258553D01*
X12325466Y-9262125D01*
X12329037Y-9265696D01*
X12332608Y-9272839D01*
X12332608Y-9294268D01*
X12329037Y-9301411D01*
X12325466Y-9304982D01*
G04 #@! TO.C,Q1*
X13454857Y-10064927D02*
X13447714Y-10061356D01*
X13440571Y-10054213D01*
X13429857Y-10043499D01*
X13422714Y-10039927D01*
X13415571Y-10039927D01*
X13419143Y-10057785D02*
X13412000Y-10054213D01*
X13404857Y-10047070D01*
X13401286Y-10032785D01*
X13401286Y-10007785D01*
X13404857Y-9993499D01*
X13412000Y-9986356D01*
X13419143Y-9982785D01*
X13433428Y-9982785D01*
X13440571Y-9986356D01*
X13447714Y-9993499D01*
X13451286Y-10007785D01*
X13451286Y-10032785D01*
X13447714Y-10047070D01*
X13440571Y-10054213D01*
X13433428Y-10057785D01*
X13419143Y-10057785D01*
X13522714Y-10057785D02*
X13479857Y-10057785D01*
X13501286Y-10057785D02*
X13501286Y-9982785D01*
X13494143Y-9993499D01*
X13487000Y-10000642D01*
X13479857Y-10004213D01*
G04 #@! TO.C,D1*
X13123818Y-8448787D02*
X13048818Y-8448787D01*
X13048818Y-8430930D01*
X13052390Y-8420216D01*
X13059533Y-8413073D01*
X13066676Y-8409501D01*
X13080961Y-8405930D01*
X13091676Y-8405930D01*
X13105961Y-8409501D01*
X13113104Y-8413073D01*
X13120247Y-8420216D01*
X13123818Y-8430930D01*
X13123818Y-8448787D01*
X13123818Y-8334501D02*
X13123818Y-8377358D01*
X13123818Y-8355930D02*
X13048818Y-8355930D01*
X13059533Y-8363073D01*
X13066676Y-8370216D01*
X13070247Y-8377358D01*
G04 #@! TO.C,U4*
X12338565Y-9426525D02*
X12338565Y-9487239D01*
X12342136Y-9494382D01*
X12345708Y-9497953D01*
X12352851Y-9501525D01*
X12367136Y-9501525D01*
X12374279Y-9497953D01*
X12377851Y-9494382D01*
X12381422Y-9487239D01*
X12381422Y-9426525D01*
X12449279Y-9451525D02*
X12449279Y-9501525D01*
X12431422Y-9422953D02*
X12413565Y-9476525D01*
X12459994Y-9476525D01*
G04 #@! TO.C,D2*
X11895528Y-9688657D02*
X11820528Y-9688657D01*
X11820528Y-9670800D01*
X11824100Y-9660086D01*
X11831243Y-9652943D01*
X11838386Y-9649371D01*
X11852671Y-9645800D01*
X11863386Y-9645800D01*
X11877671Y-9649371D01*
X11884814Y-9652943D01*
X11891957Y-9660086D01*
X11895528Y-9670800D01*
X11895528Y-9688657D01*
X11827671Y-9617229D02*
X11824100Y-9613657D01*
X11820528Y-9606514D01*
X11820528Y-9588657D01*
X11824100Y-9581514D01*
X11827671Y-9577943D01*
X11834814Y-9574371D01*
X11841957Y-9574371D01*
X11852671Y-9577943D01*
X11895528Y-9620800D01*
X11895528Y-9574371D01*
G04 #@! TO.C,R12*
X14773194Y-9308993D02*
X14748194Y-9273278D01*
X14730336Y-9308993D02*
X14730336Y-9233993D01*
X14758908Y-9233993D01*
X14766051Y-9237564D01*
X14769622Y-9241135D01*
X14773194Y-9248278D01*
X14773194Y-9258993D01*
X14769622Y-9266135D01*
X14766051Y-9269707D01*
X14758908Y-9273278D01*
X14730336Y-9273278D01*
X14844622Y-9308993D02*
X14801765Y-9308993D01*
X14823194Y-9308993D02*
X14823194Y-9233993D01*
X14816051Y-9244707D01*
X14808908Y-9251850D01*
X14801765Y-9255421D01*
X14873194Y-9241135D02*
X14876765Y-9237564D01*
X14883908Y-9233993D01*
X14901765Y-9233993D01*
X14908908Y-9237564D01*
X14912479Y-9241135D01*
X14916051Y-9248278D01*
X14916051Y-9255421D01*
X14912479Y-9266135D01*
X14869622Y-9308993D01*
X14916051Y-9308993D01*
G04 #@! TO.C,C9*
X14955332Y-10408310D02*
X14951760Y-10411881D01*
X14941046Y-10415453D01*
X14933903Y-10415453D01*
X14923189Y-10411881D01*
X14916046Y-10404738D01*
X14912475Y-10397595D01*
X14908903Y-10383310D01*
X14908903Y-10372595D01*
X14912475Y-10358310D01*
X14916046Y-10351167D01*
X14923189Y-10344024D01*
X14933903Y-10340453D01*
X14941046Y-10340453D01*
X14951760Y-10344024D01*
X14955332Y-10347595D01*
X14991046Y-10415453D02*
X15005332Y-10415453D01*
X15012475Y-10411881D01*
X15016046Y-10408310D01*
X15023189Y-10397595D01*
X15026760Y-10383310D01*
X15026760Y-10354738D01*
X15023189Y-10347595D01*
X15019618Y-10344024D01*
X15012475Y-10340453D01*
X14998189Y-10340453D01*
X14991046Y-10344024D01*
X14987475Y-10347595D01*
X14983903Y-10354738D01*
X14983903Y-10372595D01*
X14987475Y-10379738D01*
X14991046Y-10383310D01*
X14998189Y-10386881D01*
X15012475Y-10386881D01*
X15019618Y-10383310D01*
X15023189Y-10379738D01*
X15026760Y-10372595D01*
G04 #@! TO.C,R1*
X15026078Y-9168785D02*
X15001078Y-9133070D01*
X14983221Y-9168785D02*
X14983221Y-9093785D01*
X15011792Y-9093785D01*
X15018935Y-9097356D01*
X15022506Y-9100927D01*
X15026078Y-9108070D01*
X15026078Y-9118785D01*
X15022506Y-9125927D01*
X15018935Y-9129499D01*
X15011792Y-9133070D01*
X14983221Y-9133070D01*
X15097506Y-9168785D02*
X15054649Y-9168785D01*
X15076078Y-9168785D02*
X15076078Y-9093785D01*
X15068935Y-9104499D01*
X15061792Y-9111642D01*
X15054649Y-9115213D01*
G04 #@! TO.C,R9*
X14709848Y-10483997D02*
X14684848Y-10448282D01*
X14666991Y-10483997D02*
X14666991Y-10408997D01*
X14695562Y-10408997D01*
X14702705Y-10412568D01*
X14706276Y-10416139D01*
X14709848Y-10423282D01*
X14709848Y-10433997D01*
X14706276Y-10441139D01*
X14702705Y-10444711D01*
X14695562Y-10448282D01*
X14666991Y-10448282D01*
X14745562Y-10483997D02*
X14759848Y-10483997D01*
X14766991Y-10480425D01*
X14770562Y-10476854D01*
X14777705Y-10466139D01*
X14781276Y-10451854D01*
X14781276Y-10423282D01*
X14777705Y-10416139D01*
X14774134Y-10412568D01*
X14766991Y-10408997D01*
X14752705Y-10408997D01*
X14745562Y-10412568D01*
X14741991Y-10416139D01*
X14738419Y-10423282D01*
X14738419Y-10441139D01*
X14741991Y-10448282D01*
X14745562Y-10451854D01*
X14752705Y-10455425D01*
X14766991Y-10455425D01*
X14774134Y-10451854D01*
X14777705Y-10448282D01*
X14781276Y-10441139D01*
G04 #@! TO.C,C1*
X12596992Y-9818424D02*
X12600563Y-9821995D01*
X12604134Y-9832710D01*
X12604134Y-9839853D01*
X12600563Y-9850567D01*
X12593420Y-9857710D01*
X12586277Y-9861281D01*
X12571992Y-9864853D01*
X12561277Y-9864853D01*
X12546992Y-9861281D01*
X12539849Y-9857710D01*
X12532706Y-9850567D01*
X12529134Y-9839853D01*
X12529134Y-9832710D01*
X12532706Y-9821995D01*
X12536277Y-9818424D01*
X12604134Y-9746995D02*
X12604134Y-9789853D01*
X12604134Y-9768424D02*
X12529134Y-9768424D01*
X12539849Y-9775567D01*
X12546992Y-9782710D01*
X12550563Y-9789853D01*
G04 #@! TO.C,R17*
X12880386Y-8569853D02*
X12855386Y-8534138D01*
X12837528Y-8569853D02*
X12837528Y-8494853D01*
X12866100Y-8494853D01*
X12873243Y-8498424D01*
X12876814Y-8501995D01*
X12880386Y-8509138D01*
X12880386Y-8519853D01*
X12876814Y-8526995D01*
X12873243Y-8530567D01*
X12866100Y-8534138D01*
X12837528Y-8534138D01*
X12951814Y-8569853D02*
X12908957Y-8569853D01*
X12930386Y-8569853D02*
X12930386Y-8494853D01*
X12923243Y-8505567D01*
X12916100Y-8512710D01*
X12908957Y-8516281D01*
X12976814Y-8494853D02*
X13026814Y-8494853D01*
X12994671Y-8569853D01*
G04 #@! TO.C,R14*
X12304568Y-9646813D02*
X12279568Y-9611098D01*
X12261710Y-9646813D02*
X12261710Y-9571813D01*
X12290282Y-9571813D01*
X12297425Y-9575384D01*
X12300996Y-9578955D01*
X12304568Y-9586098D01*
X12304568Y-9596813D01*
X12300996Y-9603955D01*
X12297425Y-9607527D01*
X12290282Y-9611098D01*
X12261710Y-9611098D01*
X12375996Y-9646813D02*
X12333139Y-9646813D01*
X12354568Y-9646813D02*
X12354568Y-9571813D01*
X12347425Y-9582527D01*
X12340282Y-9589670D01*
X12333139Y-9593241D01*
X12440282Y-9596813D02*
X12440282Y-9646813D01*
X12422425Y-9568241D02*
X12404568Y-9621813D01*
X12450996Y-9621813D01*
G04 #@! TO.C,C8*
X16157140Y-9922626D02*
X16153568Y-9926197D01*
X16142854Y-9929769D01*
X16135711Y-9929769D01*
X16124997Y-9926197D01*
X16117854Y-9919054D01*
X16114283Y-9911911D01*
X16110711Y-9897626D01*
X16110711Y-9886911D01*
X16114283Y-9872626D01*
X16117854Y-9865483D01*
X16124997Y-9858340D01*
X16135711Y-9854769D01*
X16142854Y-9854769D01*
X16153568Y-9858340D01*
X16157140Y-9861911D01*
X16199997Y-9886911D02*
X16192854Y-9883340D01*
X16189283Y-9879769D01*
X16185711Y-9872626D01*
X16185711Y-9869054D01*
X16189283Y-9861911D01*
X16192854Y-9858340D01*
X16199997Y-9854769D01*
X16214283Y-9854769D01*
X16221426Y-9858340D01*
X16224997Y-9861911D01*
X16228568Y-9869054D01*
X16228568Y-9872626D01*
X16224997Y-9879769D01*
X16221426Y-9883340D01*
X16214283Y-9886911D01*
X16199997Y-9886911D01*
X16192854Y-9890483D01*
X16189283Y-9894054D01*
X16185711Y-9901197D01*
X16185711Y-9915483D01*
X16189283Y-9922626D01*
X16192854Y-9926197D01*
X16199997Y-9929769D01*
X16214283Y-9929769D01*
X16221426Y-9926197D01*
X16224997Y-9922626D01*
X16228568Y-9915483D01*
X16228568Y-9901197D01*
X16224997Y-9894054D01*
X16221426Y-9890483D01*
X16214283Y-9886911D01*
G04 #@! TO.C,R8*
X14967912Y-9973965D02*
X14942912Y-9938250D01*
X14925055Y-9973965D02*
X14925055Y-9898965D01*
X14953626Y-9898965D01*
X14960769Y-9902536D01*
X14964340Y-9906107D01*
X14967912Y-9913250D01*
X14967912Y-9923965D01*
X14964340Y-9931107D01*
X14960769Y-9934679D01*
X14953626Y-9938250D01*
X14925055Y-9938250D01*
X15010769Y-9931107D02*
X15003626Y-9927536D01*
X15000055Y-9923965D01*
X14996483Y-9916822D01*
X14996483Y-9913250D01*
X15000055Y-9906107D01*
X15003626Y-9902536D01*
X15010769Y-9898965D01*
X15025055Y-9898965D01*
X15032198Y-9902536D01*
X15035769Y-9906107D01*
X15039340Y-9913250D01*
X15039340Y-9916822D01*
X15035769Y-9923965D01*
X15032198Y-9927536D01*
X15025055Y-9931107D01*
X15010769Y-9931107D01*
X15003626Y-9934679D01*
X15000055Y-9938250D01*
X14996483Y-9945393D01*
X14996483Y-9959679D01*
X15000055Y-9966822D01*
X15003626Y-9970393D01*
X15010769Y-9973965D01*
X15025055Y-9973965D01*
X15032198Y-9970393D01*
X15035769Y-9966822D01*
X15039340Y-9959679D01*
X15039340Y-9945393D01*
X15035769Y-9938250D01*
X15032198Y-9934679D01*
X15025055Y-9931107D01*
G04 #@! TO.C,L2*
X15341746Y-10198916D02*
X15341746Y-10234630D01*
X15266746Y-10234630D01*
X15273889Y-10177487D02*
X15270318Y-10173916D01*
X15266746Y-10166773D01*
X15266746Y-10148916D01*
X15270318Y-10141773D01*
X15273889Y-10138202D01*
X15281032Y-10134630D01*
X15288175Y-10134630D01*
X15298889Y-10138202D01*
X15341746Y-10181059D01*
X15341746Y-10134630D01*
G04 #@! TO.C,J5*
X14993258Y-8485963D02*
X14993258Y-8539534D01*
X14989686Y-8550248D01*
X14982544Y-8557391D01*
X14971829Y-8560963D01*
X14964686Y-8560963D01*
X15064686Y-8485963D02*
X15028972Y-8485963D01*
X15025401Y-8521677D01*
X15028972Y-8518105D01*
X15036115Y-8514534D01*
X15053972Y-8514534D01*
X15061115Y-8518105D01*
X15064686Y-8521677D01*
X15068258Y-8528820D01*
X15068258Y-8546677D01*
X15064686Y-8553820D01*
X15061115Y-8557391D01*
X15053972Y-8560963D01*
X15036115Y-8560963D01*
X15028972Y-8557391D01*
X15025401Y-8553820D01*
G04 #@! TO.C,C2*
X14167304Y-9966314D02*
X14163732Y-9969885D01*
X14153018Y-9973457D01*
X14145875Y-9973457D01*
X14135161Y-9969885D01*
X14128018Y-9962742D01*
X14124447Y-9955599D01*
X14120875Y-9941314D01*
X14120875Y-9930599D01*
X14124447Y-9916314D01*
X14128018Y-9909171D01*
X14135161Y-9902028D01*
X14145875Y-9898457D01*
X14153018Y-9898457D01*
X14163732Y-9902028D01*
X14167304Y-9905599D01*
X14195875Y-9905599D02*
X14199447Y-9902028D01*
X14206590Y-9898457D01*
X14224447Y-9898457D01*
X14231590Y-9902028D01*
X14235161Y-9905599D01*
X14238732Y-9912742D01*
X14238732Y-9919885D01*
X14235161Y-9930599D01*
X14192304Y-9973457D01*
X14238732Y-9973457D01*
G04 #@! TO.C,J6*
X13766428Y-10430000D02*
X13820000Y-10430000D01*
X13830714Y-10433571D01*
X13837857Y-10440714D01*
X13841428Y-10451429D01*
X13841428Y-10458571D01*
X13766428Y-10362143D02*
X13766428Y-10376429D01*
X13770000Y-10383571D01*
X13773571Y-10387143D01*
X13784286Y-10394286D01*
X13798571Y-10397857D01*
X13827143Y-10397857D01*
X13834286Y-10394286D01*
X13837857Y-10390714D01*
X13841428Y-10383571D01*
X13841428Y-10369286D01*
X13837857Y-10362143D01*
X13834286Y-10358571D01*
X13827143Y-10355000D01*
X13809286Y-10355000D01*
X13802143Y-10358571D01*
X13798571Y-10362143D01*
X13795000Y-10369286D01*
X13795000Y-10383571D01*
X13798571Y-10390714D01*
X13802143Y-10394286D01*
X13809286Y-10397857D01*
G04 #@! TO.C,R5*
X13159378Y-10012480D02*
X13123664Y-10037480D01*
X13159378Y-10055337D02*
X13084378Y-10055337D01*
X13084378Y-10026766D01*
X13087950Y-10019623D01*
X13091521Y-10016051D01*
X13098664Y-10012480D01*
X13109378Y-10012480D01*
X13116521Y-10016051D01*
X13120093Y-10019623D01*
X13123664Y-10026766D01*
X13123664Y-10055337D01*
X13084378Y-9944623D02*
X13084378Y-9980337D01*
X13120093Y-9983909D01*
X13116521Y-9980337D01*
X13112950Y-9973194D01*
X13112950Y-9955337D01*
X13116521Y-9948194D01*
X13120093Y-9944623D01*
X13127236Y-9941051D01*
X13145093Y-9941051D01*
X13152236Y-9944623D01*
X13155807Y-9948194D01*
X13159378Y-9955337D01*
X13159378Y-9973194D01*
X13155807Y-9980337D01*
X13152236Y-9983909D01*
G04 #@! TO.C,U3*
X12783573Y-8907857D02*
X12783573Y-8968571D01*
X12787144Y-8975714D01*
X12790716Y-8979285D01*
X12797859Y-8982857D01*
X12812144Y-8982857D01*
X12819287Y-8979285D01*
X12822859Y-8975714D01*
X12826430Y-8968571D01*
X12826430Y-8907857D01*
X12855002Y-8907857D02*
X12901430Y-8907857D01*
X12876430Y-8936428D01*
X12887144Y-8936428D01*
X12894287Y-8939999D01*
X12897859Y-8943571D01*
X12901430Y-8950714D01*
X12901430Y-8968571D01*
X12897859Y-8975714D01*
X12894287Y-8979285D01*
X12887144Y-8982857D01*
X12865716Y-8982857D01*
X12858573Y-8979285D01*
X12855002Y-8975714D01*
G04 #@! TO.C,L1*
X13032632Y-8409740D02*
X13032632Y-8445454D01*
X12957632Y-8445454D01*
X13032632Y-8345454D02*
X13032632Y-8388311D01*
X13032632Y-8366883D02*
X12957632Y-8366883D01*
X12968347Y-8374026D01*
X12975490Y-8381168D01*
X12979061Y-8388311D01*
G04 #@! TO.C,U5*
X14929365Y-9372931D02*
X14929365Y-9433645D01*
X14932936Y-9440788D01*
X14936508Y-9444359D01*
X14943651Y-9447931D01*
X14957936Y-9447931D01*
X14965079Y-9444359D01*
X14968651Y-9440788D01*
X14972222Y-9433645D01*
X14972222Y-9372931D01*
X15043651Y-9372931D02*
X15007936Y-9372931D01*
X15004365Y-9408645D01*
X15007936Y-9405073D01*
X15015079Y-9401502D01*
X15032936Y-9401502D01*
X15040079Y-9405073D01*
X15043651Y-9408645D01*
X15047222Y-9415788D01*
X15047222Y-9433645D01*
X15043651Y-9440788D01*
X15040079Y-9444359D01*
X15032936Y-9447931D01*
X15015079Y-9447931D01*
X15007936Y-9444359D01*
X15004365Y-9440788D01*
G04 #@! TO.C,U1*
X12958579Y-8917763D02*
X12958579Y-8978477D01*
X12962150Y-8985620D01*
X12965722Y-8989191D01*
X12972865Y-8992763D01*
X12987150Y-8992763D01*
X12994293Y-8989191D01*
X12997865Y-8985620D01*
X13001436Y-8978477D01*
X13001436Y-8917763D01*
X13076436Y-8992763D02*
X13033579Y-8992763D01*
X13055008Y-8992763D02*
X13055008Y-8917763D01*
X13047865Y-8928477D01*
X13040722Y-8935620D01*
X13033579Y-8939191D01*
G04 #@! TO.C,SW2*
X12539906Y-10426963D02*
X12544578Y-10416681D01*
X12546444Y-10398922D01*
X12543639Y-10391445D01*
X12540461Y-10387520D01*
X12533730Y-10383221D01*
X12526626Y-10382474D01*
X12519149Y-10385280D01*
X12515224Y-10388458D01*
X12510926Y-10395189D01*
X12505881Y-10409023D01*
X12501582Y-10415753D01*
X12497657Y-10418932D01*
X12490180Y-10421737D01*
X12483076Y-10420990D01*
X12476346Y-10416692D01*
X12473167Y-10412767D01*
X12470362Y-10405290D01*
X12472228Y-10387530D01*
X12476900Y-10377248D01*
X12475962Y-10352012D02*
X12552417Y-10342092D01*
X12500633Y-10322285D01*
X12555404Y-10313677D01*
X12482681Y-10288078D01*
X12492398Y-10263962D02*
X12489220Y-10260036D01*
X12486414Y-10252559D01*
X12488281Y-10234800D01*
X12492580Y-10228070D01*
X12496505Y-10224891D01*
X12503982Y-10222086D01*
X12511085Y-10222833D01*
X12521368Y-10227504D01*
X12559510Y-10274607D01*
X12564363Y-10228432D01*
G04 #@! TO.C,IC1*
X13941236Y-9898019D02*
X13941236Y-9823019D01*
X14019807Y-9890876D02*
X14016236Y-9894447D01*
X14005521Y-9898019D01*
X13998378Y-9898019D01*
X13987664Y-9894447D01*
X13980521Y-9887304D01*
X13976950Y-9880161D01*
X13973378Y-9865876D01*
X13973378Y-9855161D01*
X13976950Y-9840876D01*
X13980521Y-9833733D01*
X13987664Y-9826590D01*
X13998378Y-9823019D01*
X14005521Y-9823019D01*
X14016236Y-9826590D01*
X14019807Y-9830161D01*
X14091236Y-9898019D02*
X14048378Y-9898019D01*
X14069807Y-9898019D02*
X14069807Y-9823019D01*
X14062664Y-9833733D01*
X14055521Y-9840876D01*
X14048378Y-9844447D01*
G04 #@! TO.C,C6*
X15562526Y-8556360D02*
X15558954Y-8559931D01*
X15548240Y-8563503D01*
X15541097Y-8563503D01*
X15530383Y-8559931D01*
X15523240Y-8552788D01*
X15519669Y-8545645D01*
X15516097Y-8531360D01*
X15516097Y-8520645D01*
X15519669Y-8506360D01*
X15523240Y-8499217D01*
X15530383Y-8492074D01*
X15541097Y-8488503D01*
X15548240Y-8488503D01*
X15558954Y-8492074D01*
X15562526Y-8495645D01*
X15626812Y-8488503D02*
X15612526Y-8488503D01*
X15605383Y-8492074D01*
X15601812Y-8495645D01*
X15594669Y-8506360D01*
X15591097Y-8520645D01*
X15591097Y-8549217D01*
X15594669Y-8556360D01*
X15598240Y-8559931D01*
X15605383Y-8563503D01*
X15619669Y-8563503D01*
X15626812Y-8559931D01*
X15630383Y-8556360D01*
X15633954Y-8549217D01*
X15633954Y-8531360D01*
X15630383Y-8524217D01*
X15626812Y-8520645D01*
X15619669Y-8517074D01*
X15605383Y-8517074D01*
X15598240Y-8520645D01*
X15594669Y-8524217D01*
X15591097Y-8531360D01*
G04 #@! TO.C,J1*
X15501950Y-9321654D02*
X15555522Y-9321654D01*
X15566236Y-9325225D01*
X15573379Y-9332368D01*
X15576950Y-9343083D01*
X15576950Y-9350225D01*
X15576950Y-9246654D02*
X15576950Y-9289511D01*
X15576950Y-9268083D02*
X15501950Y-9268083D01*
X15512665Y-9275225D01*
X15519808Y-9282368D01*
X15523379Y-9289511D01*
G04 #@! TO.C,R18*
X15325744Y-8357316D02*
X15290030Y-8382316D01*
X15325744Y-8400173D02*
X15250744Y-8400173D01*
X15250744Y-8371602D01*
X15254316Y-8364459D01*
X15257887Y-8360888D01*
X15265030Y-8357316D01*
X15275744Y-8357316D01*
X15282887Y-8360888D01*
X15286459Y-8364459D01*
X15290030Y-8371602D01*
X15290030Y-8400173D01*
X15325744Y-8285888D02*
X15325744Y-8328745D01*
X15325744Y-8307316D02*
X15250744Y-8307316D01*
X15261459Y-8314459D01*
X15268602Y-8321602D01*
X15272173Y-8328745D01*
X15282887Y-8243030D02*
X15279316Y-8250173D01*
X15275744Y-8253745D01*
X15268602Y-8257316D01*
X15265030Y-8257316D01*
X15257887Y-8253745D01*
X15254316Y-8250173D01*
X15250744Y-8243030D01*
X15250744Y-8228745D01*
X15254316Y-8221602D01*
X15257887Y-8218030D01*
X15265030Y-8214459D01*
X15268602Y-8214459D01*
X15275744Y-8218030D01*
X15279316Y-8221602D01*
X15282887Y-8228745D01*
X15282887Y-8243030D01*
X15286459Y-8250173D01*
X15290030Y-8253745D01*
X15297173Y-8257316D01*
X15311459Y-8257316D01*
X15318602Y-8253745D01*
X15322173Y-8250173D01*
X15325744Y-8243030D01*
X15325744Y-8228745D01*
X15322173Y-8221602D01*
X15318602Y-8218030D01*
X15311459Y-8214459D01*
X15297173Y-8214459D01*
X15290030Y-8218030D01*
X15286459Y-8221602D01*
X15282887Y-8228745D01*
G04 #@! TO.C,R19*
X15176038Y-8520323D02*
X15151038Y-8484608D01*
X15133180Y-8520323D02*
X15133180Y-8445323D01*
X15161752Y-8445323D01*
X15168895Y-8448894D01*
X15172466Y-8452465D01*
X15176038Y-8459608D01*
X15176038Y-8470323D01*
X15172466Y-8477465D01*
X15168895Y-8481037D01*
X15161752Y-8484608D01*
X15133180Y-8484608D01*
X15247466Y-8520323D02*
X15204609Y-8520323D01*
X15226038Y-8520323D02*
X15226038Y-8445323D01*
X15218895Y-8456037D01*
X15211752Y-8463180D01*
X15204609Y-8466751D01*
X15283180Y-8520323D02*
X15297466Y-8520323D01*
X15304609Y-8516751D01*
X15308180Y-8513180D01*
X15315323Y-8502465D01*
X15318895Y-8488180D01*
X15318895Y-8459608D01*
X15315323Y-8452465D01*
X15311752Y-8448894D01*
X15304609Y-8445323D01*
X15290323Y-8445323D01*
X15283180Y-8448894D01*
X15279609Y-8452465D01*
X15276038Y-8459608D01*
X15276038Y-8477465D01*
X15279609Y-8484608D01*
X15283180Y-8488180D01*
X15290323Y-8491751D01*
X15304609Y-8491751D01*
X15311752Y-8488180D01*
X15315323Y-8484608D01*
X15318895Y-8477465D01*
G04 #@! TO.C,R20*
X14962424Y-9875159D02*
X14937424Y-9839444D01*
X14919566Y-9875159D02*
X14919566Y-9800159D01*
X14948138Y-9800159D01*
X14955281Y-9803730D01*
X14958852Y-9807301D01*
X14962424Y-9814444D01*
X14962424Y-9825159D01*
X14958852Y-9832301D01*
X14955281Y-9835873D01*
X14948138Y-9839444D01*
X14919566Y-9839444D01*
X14990995Y-9807301D02*
X14994566Y-9803730D01*
X15001709Y-9800159D01*
X15019566Y-9800159D01*
X15026709Y-9803730D01*
X15030281Y-9807301D01*
X15033852Y-9814444D01*
X15033852Y-9821587D01*
X15030281Y-9832301D01*
X14987424Y-9875159D01*
X15033852Y-9875159D01*
X15080281Y-9800159D02*
X15087424Y-9800159D01*
X15094566Y-9803730D01*
X15098138Y-9807301D01*
X15101709Y-9814444D01*
X15105281Y-9828730D01*
X15105281Y-9846587D01*
X15101709Y-9860873D01*
X15098138Y-9868016D01*
X15094566Y-9871587D01*
X15087424Y-9875159D01*
X15080281Y-9875159D01*
X15073138Y-9871587D01*
X15069566Y-9868016D01*
X15065995Y-9860873D01*
X15062424Y-9846587D01*
X15062424Y-9828730D01*
X15065995Y-9814444D01*
X15069566Y-9807301D01*
X15073138Y-9803730D01*
X15080281Y-9800159D01*
G04 #@! TO.C,F1*
X15572886Y-10015449D02*
X15547886Y-10015449D01*
X15547886Y-10054735D02*
X15547886Y-9979735D01*
X15583600Y-9979735D01*
X15651457Y-10054735D02*
X15608600Y-10054735D01*
X15630029Y-10054735D02*
X15630029Y-9979735D01*
X15622886Y-9990449D01*
X15615743Y-9997592D01*
X15608600Y-10001163D01*
G04 #@! TO.C,JP1*
X12740116Y-9396555D02*
X12740116Y-9450126D01*
X12736544Y-9460840D01*
X12729402Y-9467983D01*
X12718687Y-9471555D01*
X12711544Y-9471555D01*
X12775830Y-9471555D02*
X12775830Y-9396555D01*
X12804402Y-9396555D01*
X12811544Y-9400126D01*
X12815116Y-9403697D01*
X12818687Y-9410840D01*
X12818687Y-9421555D01*
X12815116Y-9428697D01*
X12811544Y-9432269D01*
X12804402Y-9435840D01*
X12775830Y-9435840D01*
X12890116Y-9471555D02*
X12847259Y-9471555D01*
X12868687Y-9471555D02*
X12868687Y-9396555D01*
X12861544Y-9407269D01*
X12854402Y-9414412D01*
X12847259Y-9417983D01*
G04 #@! TD*
M02*
