M48
; DRILL file {KiCad (5.1.10)-1} date 10/24/21 01:26:57
; FORMAT={-:-/ absolute / inch / decimal}
; #@! TF.CreationDate,2021-10-24T01:26:57-05:00
; #@! TF.GenerationSoftware,Kicad,Pcbnew,(5.1.10)-1
; #@! TF.FileFunction,Plated,1,2,PTH
FMAT,2
INCH
T1C0.0157
T2C0.0236
T3C0.0256
T4C0.0335
T5C0.0394
%
G90
G05
T1
X4.688Y-3.4436
X4.7012Y-3.5244
X4.7113Y-3.8774
X4.8367Y-3.7391
X4.8441Y-3.4142
X4.8514Y-3.8193
X4.8543Y-3.6457
X4.8858Y-3.5049
X4.9321Y-4.0443
X4.9503Y-3.9991
X5.003Y-3.6741
X5.0187Y-3.5236
X5.0288Y-3.7039
X5.0288Y-3.7388
X5.0619Y-3.5182
X5.0736Y-3.6012
X5.1026Y-3.7156
X5.1033Y-3.5276
X5.1193Y-3.6026
X5.1636Y-3.9957
X5.1732Y-3.8661
X5.1735Y-3.4634
X5.1829Y-4.0916
X5.2243Y-3.5649
X5.2315Y-3.6583
X5.241Y-3.6149
X5.2413Y-3.4291
X5.3332Y-3.8533
X5.3425Y-3.687
X5.3457Y-3.4693
X5.3553Y-3.9488
X5.3777Y-3.8561
X5.3799Y-3.6226
X5.4071Y-3.4697
X5.4276Y-3.8634
X5.4425Y-4.0823
X5.4449Y-3.5826
X5.4449Y-3.6626
X5.4849Y-3.5426
X5.4849Y-3.6226
X5.4849Y-3.7026
X5.4985Y-3.8799
X5.5244Y-3.4673
X5.5249Y-3.5826
X5.5249Y-3.6626
X5.5649Y-3.5426
X5.5649Y-3.6226
X5.5649Y-3.7026
X5.5856Y-3.873
X5.5999Y-3.5826
X5.5999Y-3.6626
X5.6191Y-4.0748
X5.6217Y-3.4689
X5.6476Y-3.8654
X5.6555Y-3.9675
X5.687Y-3.6102
X5.6882Y-3.7331
X5.6965Y-3.4724
X5.7008Y-4.0719
X5.7293Y-3.9459
X5.7559Y-3.8661
X5.7909Y-4.036
X5.8098Y-3.5114
X5.8114Y-3.6504
X5.8239Y-3.827
X5.827Y-3.4278
X5.8711Y-3.9469
X5.8711Y-3.9134
X5.8744Y-4.0756
X5.898Y-3.8248
X5.912Y-4.0761
X5.9169Y-3.6118
X5.9452Y-3.8437
X6.0168Y-3.7063
X6.0226Y-3.5061
X6.0249Y-4.0756
X6.0249Y-4.0126
X6.0263Y-3.9126
X6.0654Y-3.4377
X6.0809Y-3.7977
X6.1087Y-3.6977
X6.1312Y-4.0799
X6.1388Y-3.6568
X6.1409Y-3.5505
X6.1425Y-3.4774
X6.1627Y-3.844
X6.1899Y-4.0225
X6.1901Y-3.9887
X6.2332Y-4.0022
X6.2419Y-3.6993
X6.2449Y-3.6283
X6.2625Y-3.5717
X6.2899Y-4.0354
X6.3119Y-3.8241
X6.3548Y-3.97
X6.4156Y-3.9004
X6.4522Y-3.8453
T2
X4.7573Y-3.9254
X4.8657Y-4.0197
X4.9889Y-4.0692
X5.1318Y-4.0842
T3
X6.24Y-3.5336
X6.24Y-3.7612
T4
X6.3214Y-3.5492
X6.3214Y-3.7461
T5
X4.9934Y-3.8963
X5.0934Y-3.8963
X5.2474Y-4.0807
X5.3474Y-4.0807
X5.8957Y-3.4452
X5.9957Y-3.4452
T2
G00X6.1975Y-3.4773
M15
G01X6.2408Y-3.4773
M16
G05
G00X6.1975Y-3.8175
M15
G01X6.2408Y-3.8175
M16
G05
G00X6.3719Y-3.4773
M15
G01X6.3955Y-3.4773
M16
G05
G00X6.3719Y-3.8175
M15
G01X6.3955Y-3.8175
M16
G05
G00X6.4139Y-3.5098
M15
G01X6.4414Y-3.5098
M16
G05
G00X6.4414Y-3.7854
M15
G01X6.4139Y-3.7854
M16
G05
T0
M30
