G04 #@! TF.GenerationSoftware,KiCad,Pcbnew,(5.1.10)-1*
G04 #@! TF.CreationDate,2021-07-19T19:08:23-05:00*
G04 #@! TF.ProjectId,temp sensor,74656d70-2073-4656-9e73-6f722e6b6963,0.2*
G04 #@! TF.SameCoordinates,Original*
G04 #@! TF.FileFunction,Profile,NP*
%FSLAX45Y45*%
G04 Gerber Fmt 4.5, Leading zero omitted, Abs format (unit mm)*
G04 Created by KiCad (PCBNEW (5.1.10)-1) date 2021-07-19 19:08:23*
%MOMM*%
%LPD*%
G01*
G04 APERTURE LIST*
G04 #@! TA.AperFunction,Profile*
%ADD10C,0.050000*%
G04 #@! TD*
G04 APERTURE END LIST*
D10*
X16184772Y-8491207D02*
X16198780Y-8509421D01*
X16040922Y-8733070D02*
X16053677Y-8750259D01*
X15390146Y-8401150D02*
X15396000Y-8402000D01*
X15526000Y-8159000D02*
X15534928Y-8160509D01*
X12744000Y-8165000D02*
X12765072Y-8160509D01*
X12218837Y-8780270D02*
X12225000Y-8774000D01*
X12065735Y-8549803D02*
X12080237Y-8535005D01*
X12065735Y-8549803D02*
G75*
G03*
X12218837Y-8780270I121765J-85197D01*
G01*
X12927997Y-8374998D02*
G75*
G03*
X12765072Y-8160509I-130497J69998D01*
G01*
X12080237Y-8535005D02*
G75*
G02*
X12744000Y-8165000I794835J-645505D01*
G01*
X12906088Y-8386599D02*
G75*
G03*
X12225000Y-8774000I48912J-878401D01*
G01*
X12906088Y-8386599D02*
X12927997Y-8374998D01*
X15390146Y-8401150D02*
G75*
G02*
X15526000Y-8159000I112354J96150D01*
G01*
X16040922Y-8733070D02*
G75*
G03*
X15396000Y-8402000I-760527J-687813D01*
G01*
X16198780Y-8509421D02*
G75*
G02*
X16053677Y-8750259I-113780J-95579D01*
G01*
X16184772Y-8491207D02*
G75*
G03*
X15534928Y-8160509I-759844J-689302D01*
G01*
X16516811Y-9708996D02*
G75*
G02*
X15354100Y-10509600I-1162711J443996D01*
G01*
X14922300Y-8604600D02*
X13144300Y-8604600D01*
X13144300Y-8604600D02*
X13144300Y-8020400D01*
X16516436Y-8820024D02*
X16471636Y-8820024D01*
X16471700Y-9709000D02*
X16471636Y-8820024D01*
X16516436Y-8820024D02*
G75*
G03*
X15354100Y-8020400I-1162336J-444976D01*
G01*
X15354100Y-10509600D02*
X12971508Y-10509229D01*
X14922300Y-8020400D02*
X14922300Y-8604600D01*
X13144300Y-8020400D02*
X12941100Y-8020400D01*
X15354100Y-8020400D02*
X14922300Y-8020400D01*
X16471700Y-9709000D02*
X16516811Y-9708996D01*
X12971508Y-10509229D02*
G75*
G02*
X12941100Y-8020400I-30408J1244229D01*
G01*
M02*
