G04 #@! TF.GenerationSoftware,KiCad,Pcbnew,(6.0.0)*
G04 #@! TF.CreationDate,2022-02-21T14:52:46-06:00*
G04 #@! TF.ProjectId,temp sensor,74656d70-2073-4656-9e73-6f722e6b6963,0.3*
G04 #@! TF.SameCoordinates,Original*
G04 #@! TF.FileFunction,Soldermask,Bot*
G04 #@! TF.FilePolarity,Negative*
%FSLAX45Y45*%
G04 Gerber Fmt 4.5, Leading zero omitted, Abs format (unit mm)*
G04 Created by KiCad (PCBNEW (6.0.0)) date 2022-02-21 14:52:46*
%MOMM*%
%LPD*%
G01*
G04 APERTURE LIST*
%ADD10C,0.150000*%
%ADD11C,0.650000*%
%ADD12O,1.600000X1.000000*%
%ADD13O,2.100000X1.000000*%
%ADD14C,1.650000*%
%ADD15R,1.350000X0.400000*%
%ADD16R,1.900000X1.200000*%
%ADD17O,1.900000X1.200000*%
%ADD18C,1.450000*%
%ADD19R,1.900000X1.500000*%
%ADD20R,0.600000X1.750000*%
%ADD21R,2.510000X1.000000*%
G04 APERTURE END LIST*
D10*
G04 #@! TO.C,D3*
X11836238Y-9187190D02*
X11736238Y-9187190D01*
X11736238Y-9211000D01*
X11741000Y-9225286D01*
X11750524Y-9234810D01*
X11760048Y-9239571D01*
X11779095Y-9244333D01*
X11793381Y-9244333D01*
X11812428Y-9239571D01*
X11821952Y-9234810D01*
X11831476Y-9225286D01*
X11836238Y-9211000D01*
X11836238Y-9187190D01*
X11736238Y-9277667D02*
X11736238Y-9339571D01*
X11774333Y-9306238D01*
X11774333Y-9320524D01*
X11779095Y-9330048D01*
X11783857Y-9334810D01*
X11793381Y-9339571D01*
X11817190Y-9339571D01*
X11826714Y-9334810D01*
X11831476Y-9330048D01*
X11836238Y-9320524D01*
X11836238Y-9291952D01*
X11831476Y-9282429D01*
X11826714Y-9277667D01*
G04 #@! TD*
D11*
G04 #@! TO.C,J1*
X15849696Y-9553396D03*
X15849696Y-8975396D03*
D12*
X16214696Y-8832396D03*
X16214696Y-9696396D03*
D13*
X15796696Y-9696396D03*
X15796696Y-8832396D03*
G04 #@! TD*
D14*
G04 #@! TO.C,H3*
X14153000Y-10306600D03*
G04 #@! TD*
G04 #@! TO.C,H2*
X15740200Y-8300000D03*
G04 #@! TD*
G04 #@! TO.C,H1*
X12539800Y-8300000D03*
G04 #@! TD*
D15*
G04 #@! TO.C,J4*
X16056250Y-9135000D03*
X16056250Y-9200000D03*
X16056250Y-9265000D03*
X16056250Y-9330000D03*
X16056250Y-9395000D03*
D16*
X16326250Y-9555000D03*
D17*
X16326250Y-9615000D03*
X16326250Y-8915000D03*
D18*
X16056250Y-9015000D03*
X16056250Y-9515000D03*
D19*
X16326250Y-9365000D03*
X16326250Y-9165000D03*
D16*
X16326250Y-8975000D03*
G04 #@! TD*
D20*
G04 #@! TO.C,J3*
X13971000Y-9824500D03*
X14071000Y-9649500D03*
X14171000Y-9824500D03*
X14271000Y-9649500D03*
X14371000Y-9824500D03*
X14471000Y-9649500D03*
X14571000Y-9824500D03*
G04 #@! TD*
D21*
G04 #@! TO.C,J2*
X13685300Y-9993000D03*
X13354300Y-10247000D03*
G04 #@! TD*
G04 #@! TO.C,J6*
X12990300Y-9683000D03*
X12659300Y-9937000D03*
G04 #@! TD*
G04 #@! TO.C,J5*
X15265300Y-8763000D03*
X14934300Y-9017000D03*
G04 #@! TD*
M02*
