G04 #@! TF.GenerationSoftware,KiCad,Pcbnew,(5.1.10)-1*
G04 #@! TF.CreationDate,2021-07-14T09:56:37-05:00*
G04 #@! TF.ProjectId,temp sensor,74656d70-2073-4656-9e73-6f722e6b6963,0.2*
G04 #@! TF.SameCoordinates,Original*
G04 #@! TF.FileFunction,Legend,Bot*
G04 #@! TF.FilePolarity,Positive*
%FSLAX45Y45*%
G04 Gerber Fmt 4.5, Leading zero omitted, Abs format (unit mm)*
G04 Created by KiCad (PCBNEW (5.1.10)-1) date 2021-07-14 09:56:37*
%MOMM*%
%LPD*%
G01*
G04 APERTURE LIST*
%ADD10C,0.045000*%
%ADD11C,0.300000*%
%ADD12C,0.120000*%
%ADD13C,0.150000*%
%ADD14C,0.010000*%
G04 APERTURE END LIST*
D10*
X15923503Y-10041646D02*
G75*
G03*
X15926105Y-10042587I4482J8320D01*
G01*
X15916789Y-10022637D02*
G75*
G03*
X15916595Y-10026992I42473J-4071D01*
G01*
X16099465Y-10041646D02*
G75*
G03*
X16101478Y-10040346I-8085J14733D01*
G01*
X15917370Y-10019554D02*
G75*
G03*
X15916789Y-10022637I15218J-4465D01*
G01*
X15919938Y-10015129D02*
G75*
G03*
X15917370Y-10019554I8749J-8034D01*
G01*
X15929363Y-10011155D02*
G75*
G03*
X15926105Y-10011476I-142J-15256D01*
G01*
X15938802Y-10015129D02*
G75*
G03*
X15937280Y-10013753I-8267J-7619D01*
G01*
X15942159Y-10026992D02*
G75*
G03*
X15941963Y-10022637I-42279J284D01*
G01*
X15941963Y-10022636D02*
G75*
G03*
X15941378Y-10019554I-15669J-1381D01*
G01*
X16103001Y-10038956D02*
G75*
G03*
X16105576Y-10034531I-8811J8089D01*
G01*
X16085673Y-10040346D02*
G75*
G03*
X16087702Y-10041646I10183J13654D01*
G01*
X16034965Y-10066542D02*
G75*
G03*
X16032993Y-10066420I-1891J-14572D01*
G01*
X15923503Y-10012439D02*
G75*
G03*
X15921475Y-10013753I8937J-16012D01*
G01*
X15935266Y-10012439D02*
G75*
G03*
X15932660Y-10011476I-4456J-8051D01*
G01*
X15917370Y-10034531D02*
G75*
G03*
X15919938Y-10038956I11317J3609D01*
G01*
X15926105Y-10042587D02*
G75*
G03*
X15929363Y-10042901I3116J15279D01*
G01*
X16028330Y-10067367D02*
G75*
G03*
X16027172Y-10068636I1710J-2724D01*
G01*
X16038878Y-10091657D02*
G75*
G03*
X16042130Y-10089659I-2731J8094D01*
G01*
X15937280Y-10040346D02*
G75*
G03*
X15938802Y-10038956I-6420J8560D01*
G01*
X16032993Y-10066420D02*
G75*
G03*
X16030270Y-10066628I-404J-12631D01*
G01*
X16105576Y-10034531D02*
G75*
G03*
X16106162Y-10031423I-15132J4465D01*
G01*
X16029521Y-10091625D02*
G75*
G03*
X16031659Y-10092206I3508J8684D01*
G01*
X16034370Y-10092399D02*
G75*
G03*
X16038878Y-10091657I-75J14514D01*
G01*
X16090303Y-10042587D02*
G75*
G03*
X16093562Y-10042901I3116J15278D01*
G01*
X16026795Y-10089301D02*
X16026925Y-10089301D01*
X16026795Y-10073722D02*
X16026795Y-10070437D01*
X15941963Y-10031423D02*
G75*
G03*
X15942159Y-10026992I-43420J4136D01*
G01*
X16080988Y-10031423D02*
G75*
G03*
X16081569Y-10034531I15849J1355D01*
G01*
X16087702Y-10041646D02*
G75*
G03*
X16090303Y-10042587I4482J8320D01*
G01*
X16030270Y-10066628D02*
G75*
G03*
X16028330Y-10067367I985J-5504D01*
G01*
X16035202Y-10073722D02*
X16026795Y-10073722D01*
X16096859Y-10042587D02*
G75*
G03*
X16099465Y-10041646I-1834J9153D01*
G01*
X15926105Y-10011476D02*
G75*
G03*
X15923503Y-10012439I1896J-9121D01*
G01*
X16106358Y-10026992D02*
X16106358Y-10026992D01*
X16084137Y-10038956D02*
G75*
G03*
X16085674Y-10040346I8012J7315D01*
G01*
X16039455Y-10074421D02*
G75*
G03*
X16035202Y-10073722I-4170J-12078D01*
G01*
X16026925Y-10089301D02*
G75*
G03*
X16029521Y-10091625I4443J2351D01*
G01*
X15941378Y-10034531D02*
G75*
G03*
X15941963Y-10031423I-15133J4461D01*
G01*
X15916595Y-10026992D02*
G75*
G03*
X15916789Y-10031423I44016J-295D01*
G01*
X15938802Y-10038956D02*
G75*
G03*
X15941378Y-10034531I-8811J8089D01*
G01*
X15921475Y-10040346D02*
G75*
G03*
X15923503Y-10041646I10183J13654D01*
G01*
X16080794Y-10026992D02*
G75*
G03*
X16080988Y-10031423I44016J-296D01*
G01*
X15916789Y-10031423D02*
G75*
G03*
X15917370Y-10034531I15849J1356D01*
G01*
X16081569Y-10034531D02*
G75*
G03*
X16084137Y-10038956I11317J3609D01*
G01*
X16101478Y-10040346D02*
G75*
G03*
X16103001Y-10038956I-6420J8561D01*
G01*
X16106162Y-10031423D02*
G75*
G03*
X16106358Y-10026992I-43420J4135D01*
G01*
X15929363Y-10042901D02*
G75*
G03*
X15932660Y-10042587I150J15898D01*
G01*
X15921475Y-10013753D02*
G75*
G03*
X15919938Y-10015129I6807J-9153D01*
G01*
X16044379Y-10079356D02*
G75*
G03*
X16042518Y-10076404I-8307J-3175D01*
G01*
X15942159Y-10026992D02*
X15942159Y-10026992D01*
X16027172Y-10068636D02*
G75*
G03*
X16026795Y-10070437I3538J-1679D01*
G01*
X16042518Y-10076404D02*
G75*
G03*
X16039455Y-10074421I-5666J-5394D01*
G01*
X15937280Y-10013753D02*
G75*
G03*
X15935266Y-10012439I-10870J-14458D01*
G01*
X15932660Y-10011476D02*
G75*
G03*
X15929363Y-10011155I-3147J-15233D01*
G01*
X16093562Y-10042901D02*
G75*
G03*
X16096859Y-10042587I151J15901D01*
G01*
X15941377Y-10019554D02*
G75*
G03*
X15938802Y-10015129I-11386J-3664D01*
G01*
X16044999Y-10082931D02*
G75*
G03*
X16044379Y-10079356I-9983J109D01*
G01*
X16044282Y-10086658D02*
G75*
G03*
X16044999Y-10082931I-8687J3604D01*
G01*
X16042130Y-10089659D02*
G75*
G03*
X16044282Y-10086658I-5823J6447D01*
G01*
X16031659Y-10092206D02*
G75*
G03*
X16034370Y-10092399I2583J17083D01*
G01*
X16026795Y-10092041D02*
X16026795Y-10089301D01*
X15919938Y-10038956D02*
G75*
G03*
X15921475Y-10040346I8012J7316D01*
G01*
X15932660Y-10042587D02*
G75*
G03*
X15935266Y-10041646I-1834J9153D01*
G01*
X15935266Y-10041646D02*
G75*
G03*
X15937280Y-10040346I-8085J14737D01*
G01*
X16034919Y-10036569D02*
G75*
G03*
X16037286Y-10035133I-2343J6529D01*
G01*
X15932408Y-10082630D02*
X15932278Y-10082630D01*
X16025164Y-10034050D02*
X16020645Y-10037909D01*
X16093562Y-10011155D02*
G75*
G03*
X16090303Y-10011476I-142J-15255D01*
G01*
X16037286Y-10035133D02*
G75*
G03*
X16038846Y-10032739I-4051J4345D01*
G01*
X16025838Y-10041753D02*
G75*
G03*
X16031863Y-10042901I5979J14998D01*
G01*
X16028345Y-10036299D02*
G75*
G03*
X16031978Y-10037048I3580J8171D01*
G01*
X16020043Y-10029388D02*
X16039366Y-10029388D01*
X16031863Y-10042901D02*
G75*
G03*
X16036567Y-10042128I-11J14763D01*
G01*
X15941761Y-10070221D02*
X15948245Y-10091926D01*
X16032810Y-10011155D02*
G75*
G03*
X16028022Y-10012041I-95J-12871D01*
G01*
X16044486Y-10035099D02*
G75*
G03*
X16045326Y-10031529I-17408J5983D01*
G01*
X16028023Y-10012041D02*
G75*
G03*
X16023873Y-10014698I4991J-12362D01*
G01*
X16044572Y-10019484D02*
G75*
G03*
X16043278Y-10016702I-11762J-3775D01*
G01*
X16036567Y-10042128D02*
G75*
G03*
X16041123Y-10039810I-5882J17195D01*
G01*
X15932278Y-10082630D02*
X15926340Y-10060897D01*
X15929653Y-10091926D02*
X15935147Y-10091926D01*
X16080988Y-10022637D02*
G75*
G03*
X16080794Y-10026992I42473J-4070D01*
G01*
X16096859Y-10011476D02*
G75*
G03*
X16093562Y-10011155I-3148J-15237D01*
G01*
X16105576Y-10019554D02*
G75*
G03*
X16103001Y-10015129I-11386J-3663D01*
G01*
X16020646Y-10037909D02*
G75*
G03*
X16023099Y-10040218I11418J9670D01*
G01*
X15941646Y-10070221D02*
X15941761Y-10070221D01*
X15935147Y-10091926D02*
X15935147Y-10091926D01*
X15948245Y-10091926D02*
X15953753Y-10091926D01*
X15979775Y-10066779D02*
X15979775Y-10066779D01*
X16045606Y-10027150D02*
G75*
G03*
X16045348Y-10022967I-31374J159D01*
G01*
X16106162Y-10022636D02*
G75*
G03*
X16105576Y-10019554I-15669J-1384D01*
G01*
X15976295Y-10067564D02*
G75*
G03*
X15974547Y-10069920I1979J-3295D01*
G01*
X16084137Y-10015129D02*
G75*
G03*
X16081569Y-10019554I8749J-8034D01*
G01*
X15943970Y-10060897D02*
X15939423Y-10060897D01*
X16103001Y-10015129D02*
G75*
G03*
X16101478Y-10013753I-8267J-7620D01*
G01*
X16041123Y-10039810D02*
G75*
G03*
X16043085Y-10037859I-4542J6528D01*
G01*
X16038846Y-10032739D02*
G75*
G03*
X16039366Y-10029388I-9312J3161D01*
G01*
X15963666Y-10060897D02*
X15957067Y-10060897D01*
X16043278Y-10016702D02*
G75*
G03*
X16041468Y-10014619I-7624J-4801D01*
G01*
X16031978Y-10037048D02*
G75*
G03*
X16034919Y-10036569I107J8612D01*
G01*
X15919727Y-10060897D02*
X15929653Y-10091926D01*
X15935147Y-10091926D02*
X15941646Y-10070221D01*
X16043085Y-10037859D02*
G75*
G03*
X16044486Y-10035099I-9101J6355D01*
G01*
X16025164Y-10034050D02*
G75*
G03*
X16028345Y-10036299I7430J7137D01*
G01*
X16099465Y-10012439D02*
G75*
G03*
X16096859Y-10011476I-4456J-8051D01*
G01*
X16020043Y-10024252D02*
X16020043Y-10029388D01*
X15950999Y-10082630D02*
X15943970Y-10060897D01*
X16041468Y-10014619D02*
G75*
G03*
X16037234Y-10012021I-10245J-11945D01*
G01*
X16023099Y-10040219D02*
G75*
G03*
X16025838Y-10041753I7252J9732D01*
G01*
X15951114Y-10082630D02*
X15950999Y-10082630D01*
X16081569Y-10019554D02*
G75*
G03*
X16080988Y-10022637I15218J-4464D01*
G01*
X16101478Y-10013753D02*
G75*
G03*
X16099465Y-10012439I-10870J-14454D01*
G01*
X15926340Y-10060897D02*
X15919727Y-10060897D01*
X15977819Y-10066975D02*
G75*
G03*
X15976295Y-10067564I1065J-5022D01*
G01*
X16020043Y-10029388D02*
X16020043Y-10029388D01*
X16021001Y-10018858D02*
G75*
G03*
X16020043Y-10024252I13431J-5166D01*
G01*
X15939423Y-10060897D02*
X15932408Y-10082630D01*
X15957067Y-10060897D02*
X15951114Y-10082630D01*
X16045326Y-10031529D02*
G75*
G03*
X16045606Y-10027150I-31219J4196D01*
G01*
X15953753Y-10091926D02*
X15963666Y-10060897D01*
X16085673Y-10013753D02*
G75*
G03*
X16084137Y-10015129I6807J-9152D01*
G01*
X16087702Y-10012439D02*
G75*
G03*
X16085674Y-10013753I8937J-16012D01*
G01*
X16045348Y-10022967D02*
G75*
G03*
X16044572Y-10019484I-19226J-2456D01*
G01*
X16090303Y-10011476D02*
G75*
G03*
X16087702Y-10012439I1896J-9121D01*
G01*
X16106358Y-10026992D02*
G75*
G03*
X16106162Y-10022637I-42279J285D01*
G01*
X15979775Y-10066779D02*
G75*
G03*
X15977819Y-10066975I-93J-8915D01*
G01*
X16023873Y-10014698D02*
G75*
G03*
X16021001Y-10018858I7684J-8378D01*
G01*
X16037234Y-10012021D02*
G75*
G03*
X16032810Y-10011155I-4439J-10943D01*
G01*
X15880720Y-10073277D02*
X15880720Y-10091926D01*
X15880253Y-10070331D02*
G75*
G03*
X15878848Y-10068321I-4415J-1589D01*
G01*
X15874681Y-10066778D02*
G75*
G03*
X15872601Y-10067162I20J-5932D01*
G01*
X15872529Y-10060538D02*
G75*
G03*
X15869202Y-10061137I-3J-9528D01*
G01*
X15880720Y-10064211D02*
X15880605Y-10064211D01*
X15880605Y-10064211D02*
G75*
G03*
X15877130Y-10061456I-7364J-5722D01*
G01*
X15866045Y-10062934D02*
X15870550Y-10068313D01*
X15981764Y-10085884D02*
G75*
G03*
X15983310Y-10085318I-1053J5271D01*
G01*
X15974547Y-10069920D02*
G75*
G03*
X15973664Y-10076376I22881J-6415D01*
G01*
X15973664Y-10076376D02*
G75*
G03*
X15974547Y-10082931I24134J-89D01*
G01*
X15974547Y-10082931D02*
G75*
G03*
X15976295Y-10085288I3727J938D01*
G01*
X15976295Y-10085288D02*
G75*
G03*
X15977819Y-10085877I2589J4433D01*
G01*
X15886961Y-10091926D02*
X15886961Y-10060897D01*
X15977819Y-10085877D02*
G75*
G03*
X15979775Y-10086073I1863J8719D01*
G01*
X15979775Y-10086073D02*
G75*
G03*
X15981764Y-10085884I96J9556D01*
G01*
X15983310Y-10085318D02*
G75*
G03*
X15985075Y-10083053I-1803J3226D01*
G01*
X15985075Y-10083053D02*
G75*
G03*
X15985958Y-10076376I-22875J6420D01*
G01*
X15983310Y-10067533D02*
G75*
G03*
X15981764Y-10066967I-2600J-4705D01*
G01*
X15878848Y-10068321D02*
G75*
G03*
X15874681Y-10066779I-4165J-4852D01*
G01*
X15880720Y-10060897D02*
X15880720Y-10064211D01*
X15981764Y-10066967D02*
G75*
G03*
X15979775Y-10066779I-1892J-9367D01*
G01*
X15886961Y-10060897D02*
X15880720Y-10060897D01*
X15985958Y-10076376D02*
G75*
G03*
X15985075Y-10069798I-23373J213D01*
G01*
X15880720Y-10073277D02*
G75*
G03*
X15880253Y-10070331I-8337J188D01*
G01*
X15985075Y-10069798D02*
G75*
G03*
X15983310Y-10067533I-3569J-961D01*
G01*
X15872601Y-10067162D02*
G75*
G03*
X15870550Y-10068313I2911J-7592D01*
G01*
X15869202Y-10061137D02*
G75*
G03*
X15866045Y-10062934I4176J-11007D01*
G01*
X15877131Y-10061456D02*
G75*
G03*
X15872529Y-10060538I-4404J-10083D01*
G01*
X15886961Y-10091926D02*
X15886961Y-10091926D01*
X15880720Y-10091926D02*
X15886961Y-10091926D01*
X16042484Y-9871342D02*
G75*
G03*
X16043585Y-9872241I1386J574D01*
G01*
X15972154Y-9778317D02*
G75*
G03*
X15970681Y-9777102I-1473J-284D01*
G01*
X16028596Y-9801090D02*
G75*
G03*
X16026695Y-9800909I-1061J-1061D01*
G01*
X16032958Y-9846584D02*
G75*
G03*
X16032815Y-9847999I1242J-841D01*
G01*
X16072670Y-9879090D02*
G75*
G03*
X16071454Y-9877617I-1500J0D01*
G01*
X16043585Y-9914344D02*
X16071454Y-9908967D01*
X16026695Y-9800909D02*
X16003187Y-9816813D01*
X16048681Y-9821175D02*
X16028596Y-9801091D01*
X16072670Y-9907494D02*
X16072670Y-9879090D01*
X16071454Y-9908967D02*
G75*
G03*
X16072670Y-9907494I-284J1473D01*
G01*
X16043585Y-9914344D02*
G75*
G03*
X16042484Y-9915242I284J-1473D01*
G01*
X16032815Y-9938585D02*
G75*
G03*
X16032958Y-9940000I1386J-574D01*
G01*
X15909771Y-9816813D02*
X15886264Y-9800909D01*
X16028596Y-9985494D02*
X16048681Y-9965409D01*
X15934529Y-9807287D02*
G75*
G03*
X15935428Y-9806186I-574J1386D01*
G01*
X15977530Y-9806186D02*
G75*
G03*
X15978429Y-9807287I1473J284D01*
G01*
X16001772Y-9816956D02*
X15978429Y-9807287D01*
X16048862Y-9823077D02*
G75*
G03*
X16048681Y-9821175I-1242J841D01*
G01*
X16032815Y-9938585D02*
X16042484Y-9915242D01*
X16026695Y-9985675D02*
G75*
G03*
X16028596Y-9985494I841J1242D01*
G01*
X16032958Y-9846584D02*
X16048862Y-9823077D01*
X16042484Y-9871342D02*
X16032815Y-9847999D01*
X16003187Y-9969771D02*
X16026695Y-9985675D01*
X15977530Y-9806186D02*
X15972154Y-9778317D01*
X16048681Y-9965409D02*
G75*
G03*
X16048862Y-9963508I-1061J1061D01*
G01*
X15864278Y-9821175D02*
G75*
G03*
X15864096Y-9823077I1061J-1061D01*
G01*
X15884362Y-9801091D02*
X15864278Y-9821175D01*
X15886263Y-9800909D02*
G75*
G03*
X15884362Y-9801091I-841J-1242D01*
G01*
X15909771Y-9816813D02*
G75*
G03*
X15911186Y-9816956I841J1242D01*
G01*
X15934529Y-9807287D02*
X15911186Y-9816956D01*
X15940804Y-9778317D02*
X15935428Y-9806186D01*
X15942277Y-9777102D02*
G75*
G03*
X15940804Y-9778317I0J-1500D01*
G01*
X15970681Y-9777102D02*
X15942277Y-9777102D01*
X16001772Y-9816956D02*
G75*
G03*
X16003187Y-9816813I574J1386D01*
G01*
X16048862Y-9963508D02*
X16032958Y-9940000D01*
X16071454Y-9877617D02*
X16043585Y-9872241D01*
X16056530Y-10091926D02*
X16056530Y-10073449D01*
X16050289Y-10071297D02*
X16050289Y-10091926D01*
X16060804Y-10042901D02*
G75*
G03*
X16065158Y-10041918I154J9455D01*
G01*
X16051130Y-10066662D02*
G75*
G03*
X16050500Y-10068822I9536J-3956D01*
G01*
X16057080Y-10061225D02*
G75*
G03*
X16053653Y-10063285I4871J-11980D01*
G01*
X16075063Y-10011514D02*
X16068823Y-10011514D01*
X16060632Y-10060538D02*
G75*
G03*
X16057080Y-10061225I18J-9623D01*
G01*
X16068823Y-10039257D02*
X16068823Y-10064211D01*
X16050404Y-10031905D02*
G75*
G03*
X16050748Y-10035011I22859J962D01*
G01*
X16068823Y-10014770D02*
G75*
G03*
X16065190Y-10012059I-8213J-7216D01*
G01*
X16068823Y-10011514D02*
X16068823Y-10014770D01*
X16065190Y-10012059D02*
G75*
G03*
X16060804Y-10011155I-4273J-9644D01*
G01*
X15970203Y-9923110D02*
G75*
G03*
X15969442Y-9925040I627J-1363D01*
G01*
X16003187Y-9969771D02*
G75*
G03*
X16001772Y-9969628I-841J-1242D01*
G01*
X15991083Y-9974055D02*
X16001772Y-9969628D01*
X15989121Y-9973237D02*
G75*
G03*
X15991083Y-9974055I1389J567D01*
G01*
X16056967Y-10070652D02*
G75*
G03*
X16056530Y-10073449I7860J-2661D01*
G01*
X16068823Y-10064211D02*
X16068708Y-10064211D01*
X16052498Y-10038899D02*
G75*
G03*
X16055905Y-10041782I8388J6457D01*
G01*
X16050748Y-10035011D02*
G75*
G03*
X16052498Y-10038899I9043J1733D01*
G01*
X16075063Y-10091926D02*
X16075063Y-10011514D01*
X15823505Y-10018894D02*
G75*
G03*
X15821432Y-10017501I-4362J-4252D01*
G01*
X16050748Y-10019088D02*
G75*
G03*
X16050404Y-10022194I22330J-4047D01*
G01*
X15821432Y-10017501D02*
G75*
G03*
X15818886Y-10017036I-2465J-6299D01*
G01*
X16060804Y-10011155D02*
G75*
G03*
X16058159Y-10011442I-82J-11581D01*
G01*
X16058159Y-10042621D02*
G75*
G03*
X16060804Y-10042901I2563J11586D01*
G01*
X15824907Y-10021162D02*
G75*
G03*
X15823505Y-10018894I-5806J-2021D01*
G01*
X16065233Y-10061456D02*
G75*
G03*
X16060632Y-10060538I-4404J-10083D01*
G01*
X16050289Y-10027064D02*
X16050404Y-10031905D01*
X15969442Y-9925040D02*
X15989121Y-9973237D01*
X15970203Y-9923110D02*
G75*
G03*
X15942755Y-9923110I-13724J29818D01*
G01*
X16068386Y-10070652D02*
G75*
G03*
X16067073Y-10068543I-5330J-1855D01*
G01*
X16075063Y-10091926D02*
X16075063Y-10091926D01*
X16068823Y-10073449D02*
G75*
G03*
X16068386Y-10070652I-8297J137D01*
G01*
X16052498Y-10015186D02*
G75*
G03*
X16050748Y-10019088I7504J-5709D01*
G01*
X16068708Y-10064211D02*
G75*
G03*
X16065233Y-10061456I-7365J-5722D01*
G01*
X16050404Y-10022194D02*
X16050289Y-10027064D01*
X16065158Y-10041918D02*
G75*
G03*
X16068823Y-10039257I-7015J13517D01*
G01*
X15825442Y-10024252D02*
X15825442Y-10024252D01*
X16068823Y-10091926D02*
X16075063Y-10091926D01*
X16060245Y-10067220D02*
G75*
G03*
X16058280Y-10068543I2208J-5401D01*
G01*
X16068823Y-10073449D02*
X16068823Y-10091926D01*
X16058159Y-10011442D02*
G75*
G03*
X16055905Y-10012303I1932J-8439D01*
G01*
X16050500Y-10068822D02*
G75*
G03*
X16050289Y-10071297I13652J-2406D01*
G01*
X15825442Y-10024252D02*
G75*
G03*
X15824907Y-10021163I-9914J-123D01*
G01*
X16050289Y-10091926D02*
X16056530Y-10091926D01*
X16055905Y-10041782D02*
G75*
G03*
X16058159Y-10042621I4167J7744D01*
G01*
X16053653Y-10063285D02*
G75*
G03*
X16051130Y-10066662I5408J-6672D01*
G01*
X16067073Y-10068543D02*
G75*
G03*
X16065090Y-10067220I-4135J-4049D01*
G01*
X16065090Y-10067220D02*
G75*
G03*
X16062641Y-10066779I-2368J-6126D01*
G01*
X16062641Y-10066778D02*
G75*
G03*
X16060245Y-10067220I-73J-6329D01*
G01*
X16058280Y-10068543D02*
G75*
G03*
X16056967Y-10070652I4017J-3964D01*
G01*
X15818886Y-10017036D02*
G75*
G03*
X15816374Y-10017501I-77J-6608D01*
G01*
X16055905Y-10012303D02*
G75*
G03*
X16052498Y-10015186I5310J-9729D01*
G01*
X15950882Y-10024975D02*
G75*
G03*
X15948112Y-10027042I2641J-6427D01*
G01*
X15946959Y-10037414D02*
G75*
G03*
X15949762Y-10040419I7236J3939D01*
G01*
X15946547Y-10029945D02*
G75*
G03*
X15946024Y-10033361I10307J-3324D01*
G01*
X15960155Y-10023707D02*
G75*
G03*
X15962147Y-10023361I-474J8636D01*
G01*
X15816374Y-10017501D02*
G75*
G03*
X15814317Y-10018894I2313J-5632D01*
G01*
X15814317Y-10018894D02*
G75*
G03*
X15812910Y-10021163I4502J-4364D01*
G01*
X15812909Y-10021162D02*
G75*
G03*
X15812345Y-10024252I9566J-3345D01*
G01*
X15949762Y-10040419D02*
G75*
G03*
X15953909Y-10042281I7798J11823D01*
G01*
X15825442Y-10024252D02*
X15812345Y-10024252D01*
X15972534Y-10037378D02*
X15972534Y-10037378D01*
X15953909Y-10042281D02*
G75*
G03*
X15958878Y-10042901I4802J18251D01*
G01*
X15966165Y-10041520D02*
G75*
G03*
X15972534Y-10037378I-7891J19100D01*
G01*
X15958877Y-10042901D02*
G75*
G03*
X15966165Y-10041520I127J19252D01*
G01*
X15946024Y-10033361D02*
G75*
G03*
X15946959Y-10037414I8529J-167D01*
G01*
X15948112Y-10027042D02*
G75*
G03*
X15946547Y-10029945I7394J-5860D01*
G01*
X15955019Y-10024066D02*
G75*
G03*
X15952779Y-10024375I974J-15288D01*
G01*
X15952779Y-10024375D02*
G75*
G03*
X15950882Y-10024975I2188J-10232D01*
G01*
X15960155Y-10023707D02*
X15955019Y-10024066D01*
X15962147Y-10023361D02*
G75*
G03*
X15963389Y-10022667I-824J2933D01*
G01*
X15963389Y-10022667D02*
G75*
G03*
X15964040Y-10021761I-2198J2267D01*
G01*
X15964040Y-10021761D02*
G75*
G03*
X15964258Y-10020781I-2104J981D01*
G01*
X15964258Y-10020781D02*
G75*
G03*
X15963088Y-10018098I-3467J85D01*
G01*
X15961466Y-10017302D02*
G75*
G03*
X15958935Y-10017036I-2338J-10097D01*
G01*
X15958935Y-10017036D02*
G75*
G03*
X15954452Y-10017847I-198J-11706D01*
G01*
X15963088Y-10018098D02*
G75*
G03*
X15961466Y-10017302I-2419J-2878D01*
G01*
X15954452Y-10017847D02*
G75*
G03*
X15950629Y-10019920I7958J-19239D01*
G01*
X15946771Y-10015372D02*
X15950629Y-10019920D01*
X15951971Y-10012303D02*
G75*
G03*
X15946771Y-10015372I6824J-17498D01*
G01*
X16062698Y-10036690D02*
G75*
G03*
X16064673Y-10036494I95J9111D01*
G01*
X15814098Y-10012041D02*
G75*
G03*
X15809950Y-10014698I4992J-12361D01*
G01*
X15820995Y-10036569D02*
G75*
G03*
X15823362Y-10035133I-2343J6529D01*
G01*
X16062698Y-10036690D02*
X16062698Y-10036690D01*
X15807077Y-10018858D02*
G75*
G03*
X15806119Y-10024252I13431J-5166D01*
G01*
X15823310Y-10012021D02*
G75*
G03*
X15818886Y-10011155I-4439J-10943D01*
G01*
X15822643Y-10042128D02*
G75*
G03*
X15827200Y-10039810I-5882J17195D01*
G01*
X16067955Y-10020537D02*
G75*
G03*
X16066207Y-10018181I-3697J-916D01*
G01*
X15806119Y-10029388D02*
X15825442Y-10029388D01*
X15953215Y-10030944D02*
G75*
G03*
X15952502Y-10031853I1500J-1909D01*
G01*
X15829161Y-10037859D02*
G75*
G03*
X15830562Y-10035099I-9101J6356D01*
G01*
X15967958Y-10026971D02*
G75*
G03*
X15969863Y-10024286I-4692J5346D01*
G01*
X15956066Y-10030019D02*
G75*
G03*
X15954403Y-10030333I554J-7504D01*
G01*
X15952502Y-10031853D02*
G75*
G03*
X15952264Y-10033060I2678J-1155D01*
G01*
X16066207Y-10035908D02*
G75*
G03*
X16067955Y-10033562I-1932J3264D01*
G01*
X15824922Y-10032739D02*
G75*
G03*
X15825442Y-10029388I-9312J3160D01*
G01*
X15963690Y-10036051D02*
G75*
G03*
X15968173Y-10033060I-5312J12818D01*
G01*
X15831682Y-10027150D02*
G75*
G03*
X15831424Y-10022967I-31374J165D01*
G01*
X15817940Y-10042901D02*
G75*
G03*
X15822643Y-10042128I-11J14763D01*
G01*
X15818055Y-10037048D02*
G75*
G03*
X15820995Y-10036569I107J8612D01*
G01*
X15818886Y-10011155D02*
G75*
G03*
X15814098Y-10012041I-95J-12871D01*
G01*
X15809175Y-10040218D02*
G75*
G03*
X15811914Y-10041753I7252J9731D01*
G01*
X15823362Y-10035133D02*
G75*
G03*
X15824922Y-10032739I-4051J4345D01*
G01*
X15806119Y-10029388D02*
X15806119Y-10029388D01*
X15831402Y-10031529D02*
G75*
G03*
X15831682Y-10027150I-31219J4195D01*
G01*
X16064673Y-10036494D02*
G75*
G03*
X16066207Y-10035908I-1062J5081D01*
G01*
X15827200Y-10039810D02*
G75*
G03*
X15829161Y-10037859I-4542J6528D01*
G01*
X15952699Y-10034796D02*
G75*
G03*
X15954001Y-10036044I2969J1794D01*
G01*
X15958390Y-10037048D02*
G75*
G03*
X15963690Y-10036051I128J13907D01*
G01*
X15831424Y-10022967D02*
G75*
G03*
X15830647Y-10019484I-19227J-2460D01*
G01*
X16067955Y-10033562D02*
G75*
G03*
X16068823Y-10027064I-23320J6422D01*
G01*
X15830562Y-10035099D02*
G75*
G03*
X15831402Y-10031529I-17408J5980D01*
G01*
X15972534Y-10037378D02*
X15968173Y-10033060D01*
X15829355Y-10016702D02*
G75*
G03*
X15827544Y-10014619I-7625J-4801D01*
G01*
X15811240Y-10034050D02*
X15806722Y-10037909D01*
X15811914Y-10041753D02*
G75*
G03*
X15817940Y-10042901I5979J14999D01*
G01*
X15954001Y-10036044D02*
G75*
G03*
X15955965Y-10036797I3470J6112D01*
G01*
X16068823Y-10027064D02*
G75*
G03*
X16067955Y-10020537I-24400J77D01*
G01*
X15967184Y-10013579D02*
G75*
G03*
X15963464Y-10011761I-7029J-9663D01*
G01*
X15969669Y-10016577D02*
G75*
G03*
X15967184Y-10013579I-6960J-3240D01*
G01*
X15965089Y-10028726D02*
G75*
G03*
X15967958Y-10026971I-3533J8996D01*
G01*
X15952264Y-10033060D02*
G75*
G03*
X15952699Y-10034796I3389J-74D01*
G01*
X15827544Y-10014619D02*
G75*
G03*
X15823310Y-10012021I-10245J-11946D01*
G01*
X15830647Y-10019484D02*
G75*
G03*
X15829355Y-10016702I-11761J-3773D01*
G01*
X15955164Y-10011442D02*
G75*
G03*
X15951971Y-10012303I2431J-15370D01*
G01*
X15811240Y-10034050D02*
G75*
G03*
X15814422Y-10036299I7430J7137D01*
G01*
X15956066Y-10030019D02*
X15961560Y-10029503D01*
X15809950Y-10014698D02*
G75*
G03*
X15807077Y-10018858I7684J-8378D01*
G01*
X15958935Y-10011155D02*
G75*
G03*
X15955164Y-10011442I-130J-23233D01*
G01*
X15963464Y-10011761D02*
G75*
G03*
X15958935Y-10011155I-4367J-15408D01*
G01*
X15961560Y-10029502D02*
G75*
G03*
X15965089Y-10028726I-774J11925D01*
G01*
X15969863Y-10024286D02*
G75*
G03*
X15970497Y-10020723I-8763J3398D01*
G01*
X15806119Y-10024252D02*
X15806119Y-10029388D01*
X15814422Y-10036299D02*
G75*
G03*
X15818055Y-10037048I3580J8171D01*
G01*
X15970497Y-10020723D02*
G75*
G03*
X15969669Y-10016577I-9756J207D01*
G01*
X15954403Y-10030333D02*
G75*
G03*
X15953215Y-10030944I1082J-3562D01*
G01*
X15955965Y-10036797D02*
G75*
G03*
X15958390Y-10037048I2326J10632D01*
G01*
X15806721Y-10037909D02*
G75*
G03*
X15809175Y-10040218I11418J9670D01*
G01*
X15861295Y-10011754D02*
G75*
G03*
X15858139Y-10013551I4176J-11007D01*
G01*
X15892379Y-10042542D02*
X15892379Y-10039257D01*
X15858139Y-10013551D02*
X15862643Y-10018930D01*
X15973664Y-10091926D02*
X15973664Y-10088698D01*
X15895958Y-10041990D02*
G75*
G03*
X15900513Y-10042901I4362J9967D01*
G01*
X15870942Y-10018937D02*
G75*
G03*
X15866775Y-10017395I-4165J-4852D01*
G01*
X15910074Y-10036795D02*
G75*
G03*
X15910704Y-10034629I-9582J3960D01*
G01*
X16059174Y-10035935D02*
G75*
G03*
X16060716Y-10036501I2594J4681D01*
G01*
X15992087Y-10081253D02*
X15992198Y-10076376D01*
X15864695Y-10017779D02*
G75*
G03*
X15862643Y-10018930I2911J-7592D01*
G01*
X15869224Y-10012073D02*
G75*
G03*
X15864623Y-10011155I-4404J-10083D01*
G01*
X15892379Y-10039257D02*
X15892508Y-10039257D01*
X15892508Y-10039257D02*
G75*
G03*
X15895958Y-10041990I7331J5712D01*
G01*
X15907556Y-10040168D02*
G75*
G03*
X15910074Y-10036795I-5361J6627D01*
G01*
X15892379Y-10011514D02*
X15886139Y-10011514D01*
X15986618Y-10061686D02*
G75*
G03*
X15984351Y-10060825I-4191J-7621D01*
G01*
X15872347Y-10020947D02*
G75*
G03*
X15870942Y-10018937I-4415J-1589D01*
G01*
X15989989Y-10088282D02*
G75*
G03*
X15991754Y-10084380I-6985J5509D01*
G01*
X15872699Y-10014827D02*
G75*
G03*
X15869224Y-10012073I-7365J-5722D01*
G01*
X16066207Y-10018181D02*
G75*
G03*
X16064673Y-10017591I-2599J-4477D01*
G01*
X15973664Y-10064211D02*
X15973664Y-10048374D01*
X15872814Y-10042542D02*
X15879054Y-10042542D01*
X15904117Y-10042218D02*
G75*
G03*
X15907556Y-10040168I-4754J11887D01*
G01*
X16057412Y-10033670D02*
G75*
G03*
X16059174Y-10035935I3572J962D01*
G01*
X16057412Y-10020436D02*
G75*
G03*
X16056529Y-10027064I22828J-6411D01*
G01*
X15892379Y-10030019D02*
G75*
G03*
X15892816Y-10032834I8375J-142D01*
G01*
X16059174Y-10018155D02*
G75*
G03*
X16057412Y-10020436I1834J-3239D01*
G01*
X15973664Y-10088698D02*
G75*
G03*
X15977304Y-10091388I8217J7313D01*
G01*
X15879054Y-10042542D02*
X15879054Y-10042542D01*
X15977304Y-10091388D02*
G75*
G03*
X15981683Y-10092284I4268J9704D01*
G01*
X16056529Y-10027064D02*
G75*
G03*
X16057412Y-10033670I23482J-226D01*
G01*
X15967424Y-10048374D02*
X15967424Y-10091926D01*
X15967424Y-10091926D02*
X15973664Y-10091926D01*
X15879054Y-10042542D02*
X15879054Y-10011514D01*
X15989989Y-10064569D02*
G75*
G03*
X15986618Y-10061686I-8401J-6410D01*
G01*
X15886139Y-10011514D02*
X15886139Y-10042542D01*
X15977344Y-10061557D02*
G75*
G03*
X15973664Y-10064211I7789J-14678D01*
G01*
X15991753Y-10084380D02*
G75*
G03*
X15992087Y-10081253I-23541J4090D01*
G01*
X15910704Y-10034629D02*
G75*
G03*
X15910913Y-10032142I-13801J2414D01*
G01*
X15872814Y-10023894D02*
X15872814Y-10042542D01*
X15991754Y-10068471D02*
G75*
G03*
X15989989Y-10064569I-8939J-1693D01*
G01*
X15992087Y-10071559D02*
G75*
G03*
X15991754Y-10068471I-23283J-951D01*
G01*
X15986618Y-10091166D02*
G75*
G03*
X15989989Y-10088282I-4727J8939D01*
G01*
X15864623Y-10011155D02*
G75*
G03*
X15861295Y-10011754I-3J-9528D01*
G01*
X15872814Y-10014827D02*
X15872699Y-10014827D01*
X15886139Y-10042542D02*
X15892379Y-10042542D01*
X15866775Y-10017395D02*
G75*
G03*
X15864695Y-10017779I20J-5932D01*
G01*
X16064673Y-10017591D02*
G75*
G03*
X16062698Y-10017395I-1880J-8875D01*
G01*
X16062698Y-10017395D02*
G75*
G03*
X16060716Y-10017585I-95J-9430D01*
G01*
X15984351Y-10060825D02*
G75*
G03*
X15981683Y-10060538I-2583J-11478D01*
G01*
X16060716Y-10017585D02*
G75*
G03*
X16059174Y-10018155I1055J-5222D01*
G01*
X15992198Y-10076376D02*
X15992087Y-10071559D01*
X16060716Y-10036501D02*
G75*
G03*
X16062698Y-10036690I1886J9307D01*
G01*
X15872814Y-10023894D02*
G75*
G03*
X15872347Y-10020947I-8337J188D01*
G01*
X15973664Y-10091926D02*
X15973664Y-10091926D01*
X15973664Y-10048374D02*
X15967424Y-10048374D01*
X15872814Y-10011514D02*
X15872814Y-10014827D01*
X15981683Y-10060538D02*
G75*
G03*
X15977344Y-10061557I-129J-9204D01*
G01*
X15892379Y-10030019D02*
X15892379Y-10011514D01*
X15900513Y-10042901D02*
G75*
G03*
X15904117Y-10042218I-7J9886D01*
G01*
X15910913Y-10032142D02*
X15910913Y-10032142D01*
X15984351Y-10092005D02*
G75*
G03*
X15986618Y-10091166I-1905J8627D01*
G01*
X15981683Y-10092284D02*
G75*
G03*
X15984351Y-10092005I85J12054D01*
G01*
X15879054Y-10011514D02*
X15872814Y-10011514D01*
X16006805Y-10070331D02*
G75*
G03*
X16005401Y-10068321I-4415J-1589D01*
G01*
X15865389Y-10072350D02*
G75*
G03*
X15864612Y-10068868I-19227J-2460D01*
G01*
X16007158Y-10064211D02*
G75*
G03*
X16003683Y-10061456I-7364J-5722D01*
G01*
X15855397Y-10066884D02*
G75*
G03*
X15852851Y-10066420I-2465J-6299D01*
G01*
X15907154Y-10086546D02*
G75*
G03*
X15909754Y-10086242I179J9712D01*
G01*
X16013513Y-10091926D02*
X16013513Y-10091926D01*
X15999081Y-10060538D02*
G75*
G03*
X15995754Y-10061137I-3J-9528D01*
G01*
X16007273Y-10060897D02*
X16007273Y-10064211D01*
X16001233Y-10066778D02*
G75*
G03*
X15999154Y-10067162I20J-5932D01*
G01*
X15840084Y-10078771D02*
X15840084Y-10078771D01*
X15900940Y-10036252D02*
G75*
G03*
X15902923Y-10034939I-2137J5383D01*
G01*
X15846874Y-10070546D02*
G75*
G03*
X15846310Y-10073636I9566J-3345D01*
G01*
X15910913Y-10011514D02*
X15904673Y-10011514D01*
X15909754Y-10086242D02*
G75*
G03*
X15911500Y-10085327I-1019J4070D01*
G01*
X15911500Y-10085327D02*
G75*
G03*
X15912523Y-10084079I-2528J3115D01*
G01*
X15912562Y-10081039D02*
G75*
G03*
X15911586Y-10079879I-2661J-1250D01*
G01*
X16005401Y-10068321D02*
G75*
G03*
X16001233Y-10066779I-4165J-4852D01*
G01*
X16013513Y-10060897D02*
X16007273Y-10060897D01*
X15864612Y-10068868D02*
G75*
G03*
X15863320Y-10066085I-11761J-3773D01*
G01*
X15852851Y-10066420D02*
G75*
G03*
X15850339Y-10066884I-77J-6608D01*
G01*
X15848282Y-10068278D02*
G75*
G03*
X15846875Y-10070546I4502J-4364D01*
G01*
X15840084Y-10073636D02*
X15840084Y-10078771D01*
X15859407Y-10073636D02*
X15846310Y-10073636D01*
X16013513Y-10091926D02*
X16013513Y-10060897D01*
X15843915Y-10064082D02*
G75*
G03*
X15841042Y-10068242I7684J-8378D01*
G01*
X15999154Y-10067162D02*
G75*
G03*
X15997102Y-10068313I2911J-7592D01*
G01*
X15892816Y-10032834D02*
G75*
G03*
X15894129Y-10034939I5267J1823D01*
G01*
X15857275Y-10061404D02*
G75*
G03*
X15852851Y-10060538I-4439J-10943D01*
G01*
X15894129Y-10034939D02*
G75*
G03*
X15896095Y-10036252I4158J4098D01*
G01*
X15900340Y-10078857D02*
X15907613Y-10078857D01*
X15896095Y-10036252D02*
G75*
G03*
X15898490Y-10036690I2322J5937D01*
G01*
X15898490Y-10036690D02*
G75*
G03*
X15900940Y-10036252I82J6615D01*
G01*
X15903901Y-10086342D02*
G75*
G03*
X15907154Y-10086546I2739J17608D01*
G01*
X15858872Y-10070546D02*
G75*
G03*
X15857470Y-10068278I-5806J-2021D01*
G01*
X15992598Y-10062934D02*
X15997102Y-10068313D01*
X15900699Y-10084007D02*
G75*
G03*
X15901147Y-10084968I3644J1113D01*
G01*
X15912523Y-10084079D02*
G75*
G03*
X15912863Y-10082630I-2827J1429D01*
G01*
X15841042Y-10068242D02*
G75*
G03*
X15840084Y-10073636I13431J-5166D01*
G01*
X15900340Y-10081138D02*
X15900340Y-10081138D01*
X15861509Y-10064003D02*
G75*
G03*
X15857275Y-10061404I-10245J-11946D01*
G01*
X15904673Y-10011514D02*
X15904673Y-10030019D01*
X15900340Y-10081138D02*
X15900340Y-10078857D01*
X16007273Y-10073277D02*
X16007273Y-10091926D01*
X15859407Y-10073636D02*
X15859407Y-10073636D01*
X16007273Y-10073277D02*
G75*
G03*
X16006805Y-10070331I-8337J188D01*
G01*
X15863320Y-10066085D02*
G75*
G03*
X15861509Y-10064003I-7625J-4801D01*
G01*
X15912863Y-10082630D02*
G75*
G03*
X15912562Y-10081039I-3567J149D01*
G01*
X15995754Y-10061137D02*
G75*
G03*
X15992598Y-10062934I4176J-11007D01*
G01*
X16003683Y-10061456D02*
G75*
G03*
X15999081Y-10060538I-4404J-10083D01*
G01*
X15852851Y-10060538D02*
G75*
G03*
X15848063Y-10061424I-95J-12871D01*
G01*
X15902923Y-10034939D02*
G75*
G03*
X15904236Y-10032834I-3954J3928D01*
G01*
X15909936Y-10079152D02*
G75*
G03*
X15907613Y-10078857I-2498J-10374D01*
G01*
X15859407Y-10073636D02*
G75*
G03*
X15858872Y-10070546I-9914J-123D01*
G01*
X16007273Y-10091926D02*
X16013513Y-10091926D01*
X15857470Y-10068278D02*
G75*
G03*
X15855397Y-10066884I-4362J-4252D01*
G01*
X15850339Y-10066884D02*
G75*
G03*
X15848282Y-10068278I2313J-5632D01*
G01*
X15904236Y-10032834D02*
G75*
G03*
X15904673Y-10030019I-7938J2674D01*
G01*
X15910913Y-10032142D02*
X15910913Y-10011514D01*
X15900340Y-10081138D02*
G75*
G03*
X15900699Y-10084007I9583J-258D01*
G01*
X15901147Y-10084968D02*
G75*
G03*
X15901775Y-10085614I1965J1283D01*
G01*
X15901775Y-10085614D02*
G75*
G03*
X15903901Y-10086342I2930J5087D01*
G01*
X15848063Y-10061424D02*
G75*
G03*
X15843915Y-10064082I4992J-12361D01*
G01*
X15911586Y-10079879D02*
G75*
G03*
X15909936Y-10079152I-2765J-4038D01*
G01*
X16007273Y-10064211D02*
X16007158Y-10064211D01*
X15894543Y-10068175D02*
G75*
G03*
X15894300Y-10070795I15212J-2728D01*
G01*
X15917023Y-10065086D02*
G75*
G03*
X15912741Y-10061639I-8638J-6349D01*
G01*
X16004613Y-10017836D02*
G75*
G03*
X16002164Y-10017395I-2368J-6126D01*
G01*
X15895196Y-10065964D02*
G75*
G03*
X15894543Y-10068174I9582J-4036D01*
G01*
X15909992Y-10060806D02*
G75*
G03*
X15906838Y-10060567I-2790J-15859D01*
G01*
X15915675Y-10089659D02*
G75*
G03*
X15917827Y-10086658I-5823J6447D01*
G01*
X16007909Y-10021268D02*
G75*
G03*
X16006596Y-10019160I-5330J-1855D01*
G01*
X15999768Y-10017836D02*
G75*
G03*
X15997803Y-10019160I2208J-5401D01*
G01*
X15906537Y-10066420D02*
G75*
G03*
X15903815Y-10066628I-404J-12631D01*
G01*
X15996053Y-10042542D02*
X15996053Y-10024066D01*
X15918544Y-10082931D02*
G75*
G03*
X15917923Y-10079356I-9983J109D01*
G01*
X15840084Y-10078771D02*
X15859407Y-10078771D01*
X15917827Y-10086658D02*
G75*
G03*
X15918544Y-10082931I-8687J3604D01*
G01*
X15917923Y-10079356D02*
G75*
G03*
X15916062Y-10076404I-8307J-3175D01*
G01*
X15851905Y-10092285D02*
G75*
G03*
X15856608Y-10091512I-11J14763D01*
G01*
X15864527Y-10084482D02*
G75*
G03*
X15865367Y-10080913I-17408J5980D01*
G01*
X15865647Y-10076533D02*
G75*
G03*
X15865389Y-10072350I-31374J164D01*
G01*
X15997803Y-10019160D02*
G75*
G03*
X15996490Y-10021268I4017J-3964D01*
G01*
X15865367Y-10080913D02*
G75*
G03*
X15865647Y-10076533I-31219J4195D01*
G01*
X15863126Y-10087243D02*
G75*
G03*
X15864527Y-10084482I-9101J6355D01*
G01*
X15906838Y-10060567D02*
G75*
G03*
X15901738Y-10061091I-447J-20744D01*
G01*
X15910123Y-10066908D02*
G75*
G03*
X15908509Y-10066542I-2707J-8203D01*
G01*
X15912422Y-10091657D02*
G75*
G03*
X15915675Y-10089659I-2731J8094D01*
G01*
X15996490Y-10021268D02*
G75*
G03*
X15996053Y-10024066I7860J-2661D01*
G01*
X15900469Y-10089301D02*
G75*
G03*
X15903065Y-10091625I4443J2351D01*
G01*
X15861165Y-10089193D02*
G75*
G03*
X15863126Y-10087243I-4542J6528D01*
G01*
X15900716Y-10068636D02*
G75*
G03*
X15900340Y-10070437I3538J-1679D01*
G01*
X15900340Y-10089301D02*
X15900469Y-10089301D01*
X15908509Y-10066542D02*
G75*
G03*
X15906537Y-10066420I-1891J-14572D01*
G01*
X15916062Y-10076404D02*
G75*
G03*
X15912999Y-10074421I-5667J-5394D01*
G01*
X15912246Y-10068844D02*
X15917023Y-10065086D01*
X15903065Y-10091625D02*
G75*
G03*
X15905203Y-10092206I3508J8684D01*
G01*
X15854960Y-10085953D02*
G75*
G03*
X15857327Y-10084517I-2343J6529D01*
G01*
X15897743Y-10062776D02*
G75*
G03*
X15895196Y-10065964I4234J-5993D01*
G01*
X15903815Y-10066628D02*
G75*
G03*
X15901875Y-10067367I985J-5504D01*
G01*
X15856608Y-10091512D02*
G75*
G03*
X15861165Y-10089193I-5882J17195D01*
G01*
X15845879Y-10091137D02*
G75*
G03*
X15851905Y-10092284I5979J14999D01*
G01*
X15843140Y-10089602D02*
G75*
G03*
X15845879Y-10091137I7252J9730D01*
G01*
X15840687Y-10087292D02*
G75*
G03*
X15843140Y-10089602I11418J9670D01*
G01*
X15845205Y-10083433D02*
X15840687Y-10087292D01*
X15900340Y-10073722D02*
X15900340Y-10070437D01*
X16008346Y-10042542D02*
X16014586Y-10042542D01*
X15901738Y-10061091D02*
G75*
G03*
X15897743Y-10062776I2834J-12292D01*
G01*
X15901875Y-10067367D02*
G75*
G03*
X15900716Y-10068636I1710J-2724D01*
G01*
X15912741Y-10061639D02*
G75*
G03*
X15909992Y-10060806I-4851J-11055D01*
G01*
X15907914Y-10092399D02*
G75*
G03*
X15912422Y-10091657I-75J14514D01*
G01*
X15848387Y-10085682D02*
G75*
G03*
X15852020Y-10086432I3580J8171D01*
G01*
X15912999Y-10074421D02*
G75*
G03*
X15908746Y-10073722I-4170J-12078D01*
G01*
X15905203Y-10092206D02*
G75*
G03*
X15907914Y-10092399I2583J17083D01*
G01*
X16006596Y-10019160D02*
G75*
G03*
X16004613Y-10017836I-4135J-4049D01*
G01*
X16014586Y-10042542D02*
X16014586Y-10042542D01*
X16008346Y-10024066D02*
X16008346Y-10042542D01*
X15900340Y-10092041D02*
X15900340Y-10092041D01*
X15858887Y-10082123D02*
G75*
G03*
X15859407Y-10078771I-9312J3160D01*
G01*
X15912246Y-10068844D02*
G75*
G03*
X15910123Y-10066908I-3873J-2114D01*
G01*
X15894300Y-10070795D02*
X15894300Y-10092041D01*
X15845205Y-10083433D02*
G75*
G03*
X15848387Y-10085682I7430J7137D01*
G01*
X15852020Y-10086432D02*
G75*
G03*
X15854960Y-10085953I107J8612D01*
G01*
X15857327Y-10084517D02*
G75*
G03*
X15858887Y-10082123I-4051J4345D01*
G01*
X15894300Y-10092041D02*
X15900340Y-10092041D01*
X15908746Y-10073722D02*
X15900340Y-10073722D01*
X15900340Y-10092041D02*
X15900340Y-10089301D01*
X16008346Y-10024066D02*
G75*
G03*
X16007909Y-10021268I-8297J137D01*
G01*
X16002163Y-10017395D02*
G75*
G03*
X15999768Y-10017836I-73J-6329D01*
G01*
X15934383Y-10034409D02*
G75*
G03*
X15935589Y-10031798I-5657J4196D01*
G01*
X15935905Y-10026992D02*
X15935826Y-10029901D01*
X16088541Y-10034409D02*
G75*
G03*
X16090614Y-10036119I4180J2953D01*
G01*
X15935826Y-10024163D02*
G75*
G03*
X15935589Y-10022301I-12435J-637D01*
G01*
X15929363Y-10017395D02*
G75*
G03*
X15926415Y-10017965I-162J-7070D01*
G01*
X16087006Y-10027064D02*
X16087092Y-10024180D01*
X15924342Y-10019676D02*
G75*
G03*
X15923151Y-10022301I6755J-4647D01*
G01*
X15923151Y-10022301D02*
G75*
G03*
X15922893Y-10024180I11264J-2504D01*
G01*
X16087092Y-10029936D02*
G75*
G03*
X16087350Y-10031812I11509J628D01*
G01*
X16099788Y-10031798D02*
G75*
G03*
X16100024Y-10029901I-12523J2526D01*
G01*
X16088541Y-10019676D02*
G75*
G03*
X16087350Y-10022301I6755J-4647D01*
G01*
X15934383Y-10019676D02*
G75*
G03*
X15932332Y-10017965I-4088J-2817D01*
G01*
X16087350Y-10022301D02*
G75*
G03*
X16087092Y-10024180I11264J-2505D01*
G01*
X16090614Y-10017965D02*
G75*
G03*
X16088541Y-10019676I2107J-4664D01*
G01*
X15923151Y-10031812D02*
G75*
G03*
X15924342Y-10034409I7637J1931D01*
G01*
X16014586Y-10042542D02*
X16014586Y-10011514D01*
X15989812Y-10042542D02*
X15996053Y-10042542D01*
X15989812Y-10021914D02*
X15989812Y-10042542D01*
X16008231Y-10014827D02*
G75*
G03*
X16004756Y-10012073I-7365J-5722D01*
G01*
X15990023Y-10019439D02*
G75*
G03*
X15989812Y-10021914I13652J-2406D01*
G01*
X16087092Y-10029937D02*
X16087006Y-10027064D01*
X15990653Y-10017279D02*
G75*
G03*
X15990023Y-10019439I9536J-3956D01*
G01*
X16096531Y-10036119D02*
G75*
G03*
X16098583Y-10034409I-2037J4528D01*
G01*
X15838120Y-10033419D02*
X15838120Y-10033419D01*
X15847965Y-10036088D02*
G75*
G03*
X15850489Y-10034283I-2257J5823D01*
G01*
X15996603Y-10011842D02*
G75*
G03*
X15993176Y-10013902I4871J-11980D01*
G01*
X16100024Y-10024163D02*
G75*
G03*
X16099788Y-10022301I-12435J-636D01*
G01*
X15850489Y-10034283D02*
G75*
G03*
X15852003Y-10031275I-6169J4990D01*
G01*
X16098583Y-10034409D02*
G75*
G03*
X16099788Y-10031798I-5658J4195D01*
G01*
X16093562Y-10017395D02*
G75*
G03*
X16090614Y-10017965I-162J-7070D01*
G01*
X16090614Y-10036119D02*
G75*
G03*
X16093562Y-10036690I2786J6500D01*
G01*
X15844432Y-10036690D02*
G75*
G03*
X15847965Y-10036088I195J9532D01*
G01*
X15935826Y-10024162D02*
X15935905Y-10026992D01*
X15922807Y-10027064D02*
X15922893Y-10024180D01*
X16100103Y-10026992D02*
X16100024Y-10029901D01*
X16000155Y-10011155D02*
G75*
G03*
X15996603Y-10011842I18J-9623D01*
G01*
X16004756Y-10012073D02*
G75*
G03*
X16000155Y-10011155I-4404J-10083D01*
G01*
X15922893Y-10029937D02*
X15922807Y-10027064D01*
X15926415Y-10036119D02*
G75*
G03*
X15929363Y-10036690I2787J6500D01*
G01*
X15924342Y-10034409D02*
G75*
G03*
X15926415Y-10036119I4180J2954D01*
G01*
X16099788Y-10022301D02*
G75*
G03*
X16098583Y-10019676I-7124J-1681D01*
G01*
X15852003Y-10022834D02*
G75*
G03*
X15850489Y-10019812I-7733J-1984D01*
G01*
X16087006Y-10027064D02*
X16087006Y-10027064D01*
X16100024Y-10024162D02*
X16100103Y-10026992D01*
X16087350Y-10031812D02*
G75*
G03*
X16088541Y-10034409I7637J1931D01*
G01*
X15838120Y-10033419D02*
G75*
G03*
X15841002Y-10035872I7174J5511D01*
G01*
X16014586Y-10011514D02*
X16008346Y-10011514D01*
X15935589Y-10031798D02*
G75*
G03*
X15935826Y-10029901I-12523J2527D01*
G01*
X15993176Y-10013902D02*
G75*
G03*
X15990653Y-10017279I5408J-6672D01*
G01*
X16096531Y-10017965D02*
G75*
G03*
X16093562Y-10017395I-2799J-6557D01*
G01*
X15852508Y-10027064D02*
G75*
G03*
X15852003Y-10022834I-15848J253D01*
G01*
X15841002Y-10035872D02*
G75*
G03*
X15844432Y-10036690I3368J6524D01*
G01*
X15932332Y-10017965D02*
G75*
G03*
X15929363Y-10017395I-2798J-6556D01*
G01*
X15935589Y-10022301D02*
G75*
G03*
X15934383Y-10019676I-7124J-1682D01*
G01*
X16093562Y-10036690D02*
G75*
G03*
X16096531Y-10036119I171J7127D01*
G01*
X15926415Y-10017965D02*
G75*
G03*
X15924342Y-10019676I2107J-4664D01*
G01*
X16008346Y-10014827D02*
X16008231Y-10014827D01*
X16008346Y-10011514D02*
X16008346Y-10014827D01*
X15922807Y-10027064D02*
X15922807Y-10027064D01*
X15922893Y-10029936D02*
G75*
G03*
X15923151Y-10031812I11509J627D01*
G01*
X15929363Y-10036690D02*
G75*
G03*
X15932332Y-10036119I171J7126D01*
G01*
X15932332Y-10036119D02*
G75*
G03*
X15934383Y-10034409I-2037J4527D01*
G01*
X15852003Y-10031275D02*
G75*
G03*
X15852508Y-10027064I-15206J3959D01*
G01*
X16098583Y-10019676D02*
G75*
G03*
X16096531Y-10017965I-4089J-2818D01*
G01*
X16026795Y-10092041D02*
X16026795Y-10092041D01*
X16037956Y-10085327D02*
G75*
G03*
X16038979Y-10084079I-2528J3115D01*
G01*
X16039366Y-10024252D02*
X16039366Y-10024252D01*
X16028194Y-10061091D02*
G75*
G03*
X16024199Y-10062776I2834J-12292D01*
G01*
X16026795Y-10081138D02*
X16026795Y-10081138D01*
X16030298Y-10017501D02*
G75*
G03*
X16028241Y-10018894I2314J-5630D01*
G01*
X16038702Y-10068844D02*
G75*
G03*
X16036579Y-10066908I-3873J-2114D01*
G01*
X16027154Y-10084007D02*
G75*
G03*
X16027602Y-10084968I3644J1113D01*
G01*
X16020756Y-10070795D02*
X16020756Y-10092041D01*
X15857661Y-10034369D02*
G75*
G03*
X15858477Y-10031020I-16716J5843D01*
G01*
X16035357Y-10017501D02*
G75*
G03*
X16032810Y-10017036I-2465J-6300D01*
G01*
X16043479Y-10065086D02*
G75*
G03*
X16039197Y-10061639I-8638J-6349D01*
G01*
X15854401Y-10014849D02*
G75*
G03*
X15849797Y-10012078I-10291J-11892D01*
G01*
X15858477Y-10031020D02*
G75*
G03*
X15858748Y-10027064I-26676J3820D01*
G01*
X15849797Y-10041987D02*
G75*
G03*
X15854401Y-10039243I-5646J14711D01*
G01*
X16036210Y-10086242D02*
G75*
G03*
X16037956Y-10085327I-1019J4070D01*
G01*
X16028230Y-10085614D02*
G75*
G03*
X16030357Y-10086342I2930J5087D01*
G01*
X16027602Y-10084968D02*
G75*
G03*
X16028230Y-10085614I1965J1283D01*
G01*
X16020756Y-10092041D02*
X16026795Y-10092041D01*
X16039366Y-10024252D02*
G75*
G03*
X16038832Y-10021163I-9914J-123D01*
G01*
X16037429Y-10018894D02*
G75*
G03*
X16035357Y-10017501I-4362J-4251D01*
G01*
X16032810Y-10017037D02*
G75*
G03*
X16030298Y-10017501I-77J-6609D01*
G01*
X16020998Y-10068175D02*
G75*
G03*
X16020756Y-10070795I15212J-2728D01*
G01*
X16033294Y-10060567D02*
G75*
G03*
X16028194Y-10061091I-447J-20744D01*
G01*
X16039197Y-10061639D02*
G75*
G03*
X16036448Y-10060806I-4851J-11055D01*
G01*
X16038702Y-10068844D02*
X16043479Y-10065086D01*
X15850489Y-10019812D02*
G75*
G03*
X15847965Y-10017999I-4791J-4007D01*
G01*
X15847965Y-10017999D02*
G75*
G03*
X15844432Y-10017395I-3339J-8890D01*
G01*
X15844432Y-10017395D02*
G75*
G03*
X15841017Y-10018206I-55J-7364D01*
G01*
X16039319Y-10082630D02*
G75*
G03*
X16039018Y-10081039I-3567J149D01*
G01*
X15841329Y-10011535D02*
G75*
G03*
X15838349Y-10012676I2819J-11831D01*
G01*
X15858748Y-10027064D02*
G75*
G03*
X15858477Y-10023105I-26994J136D01*
G01*
X16026795Y-10081138D02*
G75*
G03*
X16027154Y-10084007I9583J-258D01*
G01*
X16026795Y-10078857D02*
X16034069Y-10078857D01*
X16021652Y-10065964D02*
G75*
G03*
X16020999Y-10068174I9582J-4036D01*
G01*
X15833514Y-10037550D02*
G75*
G03*
X15838349Y-10041395I12889J11246D01*
G01*
X16030357Y-10086342D02*
G75*
G03*
X16033610Y-10086546I2739J17608D01*
G01*
X15841017Y-10018206D02*
G75*
G03*
X15838120Y-10020637I4322J-8093D01*
G01*
X15858477Y-10023105D02*
G75*
G03*
X15857661Y-10019750I-17631J-2507D01*
G01*
X15841329Y-10042524D02*
G75*
G03*
X15844675Y-10042901I3273J14029D01*
G01*
X15838349Y-10012675D02*
G75*
G03*
X15833514Y-10016534I8215J-15250D01*
G01*
X16039018Y-10081039D02*
G75*
G03*
X16038042Y-10079879I-2661J-1250D01*
G01*
X16026834Y-10021162D02*
G75*
G03*
X16026269Y-10024252I9566J-3345D01*
G01*
X15854401Y-10039243D02*
G75*
G03*
X15856304Y-10037110I-6535J7743D01*
G01*
X16039366Y-10024252D02*
X16026269Y-10024252D01*
X16038042Y-10079879D02*
G75*
G03*
X16036392Y-10079152I-2765J-4038D01*
G01*
X15856304Y-10016997D02*
G75*
G03*
X15854401Y-10014849I-8555J-5658D01*
G01*
X16033610Y-10086546D02*
G75*
G03*
X16036210Y-10086242I179J9712D01*
G01*
X16024199Y-10062776D02*
G75*
G03*
X16021652Y-10065964I4234J-5993D01*
G01*
X16038979Y-10084079D02*
G75*
G03*
X16039319Y-10082630I-2827J1429D01*
G01*
X16036392Y-10079152D02*
G75*
G03*
X16034069Y-10078857I-2497J-10374D01*
G01*
X16026795Y-10081138D02*
X16026795Y-10078857D01*
X16028241Y-10018894D02*
G75*
G03*
X16026834Y-10021163I4502J-4365D01*
G01*
X16036579Y-10066908D02*
G75*
G03*
X16034965Y-10066542I-2708J-8203D01*
G01*
X16038832Y-10021163D02*
G75*
G03*
X16037429Y-10018894I-5806J-2022D01*
G01*
X16036448Y-10060806D02*
G75*
G03*
X16033294Y-10060567I-2790J-15859D01*
G01*
X15833514Y-10016534D02*
X15838120Y-10020637D01*
X15844675Y-10011155D02*
G75*
G03*
X15841329Y-10011535I-73J-14275D01*
G01*
X15849797Y-10012078D02*
G75*
G03*
X15844675Y-10011155I-5057J-13380D01*
G01*
X15857661Y-10019750D02*
G75*
G03*
X15856304Y-10016997I-11828J-4125D01*
G01*
X15856304Y-10037110D02*
G75*
G03*
X15857661Y-10034369I-10351J6835D01*
G01*
X15844675Y-10042901D02*
G75*
G03*
X15849797Y-10041987I67J14429D01*
G01*
X15838349Y-10041395D02*
G75*
G03*
X15841329Y-10042524I5789J10776D01*
G01*
X15838120Y-10033419D02*
X15833514Y-10037550D01*
X15869373Y-9872241D02*
G75*
G03*
X15870474Y-9871342I-284J1473D01*
G01*
X15880000Y-9940000D02*
G75*
G03*
X15880143Y-9938585I-1242J841D01*
G01*
X15921875Y-9974055D02*
G75*
G03*
X15923837Y-9973237I574J1386D01*
G01*
X15864278Y-9965409D02*
X15884362Y-9985494D01*
X15870474Y-9915242D02*
G75*
G03*
X15869373Y-9914344I-1386J-574D01*
G01*
X15923837Y-9973237D02*
X15943516Y-9925040D01*
X15943516Y-9925040D02*
G75*
G03*
X15942755Y-9923110I-1389J567D01*
G01*
X15869373Y-9872241D02*
X15841504Y-9877617D01*
X15840288Y-9907494D02*
G75*
G03*
X15841504Y-9908967I1500J0D01*
G01*
X15911186Y-9969628D02*
G75*
G03*
X15909771Y-9969771I-574J-1386D01*
G01*
X15841504Y-9908967D02*
X15869373Y-9914344D01*
X15880143Y-9847999D02*
G75*
G03*
X15880000Y-9846584I-1386J574D01*
G01*
X15864096Y-9963508D02*
G75*
G03*
X15864278Y-9965409I1242J-841D01*
G01*
X15870474Y-9915242D02*
X15880143Y-9938585D01*
X15840288Y-9879090D02*
X15840288Y-9907494D01*
X15884362Y-9985494D02*
G75*
G03*
X15886264Y-9985675I1061J1061D01*
G01*
X15864096Y-9823077D02*
X15880000Y-9846584D01*
X15911186Y-9969628D02*
X15921875Y-9974055D01*
X15841504Y-9877617D02*
G75*
G03*
X15840288Y-9879090I284J-1473D01*
G01*
X15880143Y-9847999D02*
X15870474Y-9871342D01*
X15886264Y-9985675D02*
X15909771Y-9969771D01*
X15880000Y-9940000D02*
X15864096Y-9963508D01*
D11*
X15537857Y-9877857D02*
X15537857Y-9985000D01*
X15545000Y-10006429D01*
X15559286Y-10020714D01*
X15580714Y-10027857D01*
X15595000Y-10027857D01*
X15402143Y-9927857D02*
X15402143Y-10027857D01*
X15466428Y-9927857D02*
X15466428Y-10006429D01*
X15459286Y-10020714D01*
X15445000Y-10027857D01*
X15423571Y-10027857D01*
X15409286Y-10020714D01*
X15402143Y-10013571D01*
X15330714Y-9927857D02*
X15330714Y-10027857D01*
X15330714Y-9942143D02*
X15323571Y-9935000D01*
X15309286Y-9927857D01*
X15287857Y-9927857D01*
X15273571Y-9935000D01*
X15266428Y-9949286D01*
X15266428Y-10027857D01*
X15195000Y-10027857D02*
X15195000Y-9927857D01*
X15195000Y-9877857D02*
X15202143Y-9885000D01*
X15195000Y-9892143D01*
X15187857Y-9885000D01*
X15195000Y-9877857D01*
X15195000Y-9892143D01*
X15123571Y-9927857D02*
X15123571Y-10077857D01*
X15123571Y-9935000D02*
X15109286Y-9927857D01*
X15080714Y-9927857D01*
X15066428Y-9935000D01*
X15059286Y-9942143D01*
X15052143Y-9956429D01*
X15052143Y-9999286D01*
X15059286Y-10013571D01*
X15066428Y-10020714D01*
X15080714Y-10027857D01*
X15109286Y-10027857D01*
X15123571Y-10020714D01*
X14930714Y-10020714D02*
X14945000Y-10027857D01*
X14973571Y-10027857D01*
X14987857Y-10020714D01*
X14995000Y-10006429D01*
X14995000Y-9949286D01*
X14987857Y-9935000D01*
X14973571Y-9927857D01*
X14945000Y-9927857D01*
X14930714Y-9935000D01*
X14923571Y-9949286D01*
X14923571Y-9963571D01*
X14995000Y-9977857D01*
X14859286Y-10027857D02*
X14859286Y-9927857D01*
X14859286Y-9956429D02*
X14852143Y-9942143D01*
X14845000Y-9935000D01*
X14830714Y-9927857D01*
X14816428Y-9927857D01*
X14787857Y-9877857D02*
X14702143Y-9877857D01*
X14745000Y-10027857D02*
X14745000Y-9877857D01*
X14595000Y-10020714D02*
X14609286Y-10027857D01*
X14637857Y-10027857D01*
X14652143Y-10020714D01*
X14659286Y-10006429D01*
X14659286Y-9949286D01*
X14652143Y-9935000D01*
X14637857Y-9927857D01*
X14609286Y-9927857D01*
X14595000Y-9935000D01*
X14587857Y-9949286D01*
X14587857Y-9963571D01*
X14659286Y-9977857D01*
X14459286Y-10020714D02*
X14473571Y-10027857D01*
X14502143Y-10027857D01*
X14516428Y-10020714D01*
X14523571Y-10013571D01*
X14530714Y-9999286D01*
X14530714Y-9956429D01*
X14523571Y-9942143D01*
X14516428Y-9935000D01*
X14502143Y-9927857D01*
X14473571Y-9927857D01*
X14459286Y-9935000D01*
X14395000Y-10027857D02*
X14395000Y-9877857D01*
X14330714Y-10027857D02*
X14330714Y-9949286D01*
X14337857Y-9935000D01*
X14352143Y-9927857D01*
X14373571Y-9927857D01*
X14387857Y-9935000D01*
X14395000Y-9942143D01*
X14259286Y-9927857D02*
X14259286Y-10027857D01*
X14259286Y-9942143D02*
X14252143Y-9935000D01*
X14237857Y-9927857D01*
X14216428Y-9927857D01*
X14202143Y-9935000D01*
X14195000Y-9949286D01*
X14195000Y-10027857D01*
X14102143Y-10027857D02*
X14116428Y-10020714D01*
X14123571Y-10013571D01*
X14130714Y-9999286D01*
X14130714Y-9956429D01*
X14123571Y-9942143D01*
X14116428Y-9935000D01*
X14102143Y-9927857D01*
X14080714Y-9927857D01*
X14066428Y-9935000D01*
X14059286Y-9942143D01*
X14052143Y-9956429D01*
X14052143Y-9999286D01*
X14059286Y-10013571D01*
X14066428Y-10020714D01*
X14080714Y-10027857D01*
X14102143Y-10027857D01*
X13966428Y-10027857D02*
X13980714Y-10020714D01*
X13987857Y-10006429D01*
X13987857Y-9877857D01*
X13887857Y-10027857D02*
X13902143Y-10020714D01*
X13909286Y-10013571D01*
X13916428Y-9999286D01*
X13916428Y-9956429D01*
X13909286Y-9942143D01*
X13902143Y-9935000D01*
X13887857Y-9927857D01*
X13866428Y-9927857D01*
X13852143Y-9935000D01*
X13845000Y-9942143D01*
X13837857Y-9956429D01*
X13837857Y-9999286D01*
X13845000Y-10013571D01*
X13852143Y-10020714D01*
X13866428Y-10027857D01*
X13887857Y-10027857D01*
X13709286Y-9927857D02*
X13709286Y-10049286D01*
X13716428Y-10063571D01*
X13723571Y-10070714D01*
X13737857Y-10077857D01*
X13759286Y-10077857D01*
X13773571Y-10070714D01*
X13709286Y-10020714D02*
X13723571Y-10027857D01*
X13752143Y-10027857D01*
X13766428Y-10020714D01*
X13773571Y-10013571D01*
X13780714Y-9999286D01*
X13780714Y-9956429D01*
X13773571Y-9942143D01*
X13766428Y-9935000D01*
X13752143Y-9927857D01*
X13723571Y-9927857D01*
X13709286Y-9935000D01*
X13652143Y-9927857D02*
X13616428Y-10027857D01*
X13580714Y-9927857D02*
X13616428Y-10027857D01*
X13630714Y-10063571D01*
X13637857Y-10070714D01*
X13652143Y-10077857D01*
X13523571Y-10013571D02*
X13516428Y-10020714D01*
X13523571Y-10027857D01*
X13530714Y-10020714D01*
X13523571Y-10013571D01*
X13523571Y-10027857D01*
X13387857Y-10020714D02*
X13402143Y-10027857D01*
X13430714Y-10027857D01*
X13445000Y-10020714D01*
X13452143Y-10013571D01*
X13459286Y-9999286D01*
X13459286Y-9956429D01*
X13452143Y-9942143D01*
X13445000Y-9935000D01*
X13430714Y-9927857D01*
X13402143Y-9927857D01*
X13387857Y-9935000D01*
X13302143Y-10027857D02*
X13316428Y-10020714D01*
X13323571Y-10013571D01*
X13330714Y-9999286D01*
X13330714Y-9956429D01*
X13323571Y-9942143D01*
X13316428Y-9935000D01*
X13302143Y-9927857D01*
X13280714Y-9927857D01*
X13266428Y-9935000D01*
X13259286Y-9942143D01*
X13252143Y-9956429D01*
X13252143Y-9999286D01*
X13259286Y-10013571D01*
X13266428Y-10020714D01*
X13280714Y-10027857D01*
X13302143Y-10027857D01*
D12*
X12961788Y-10205312D02*
X12950759Y-10207744D01*
X12946834Y-10210922D01*
X12942535Y-10217653D01*
X12941415Y-10228308D01*
X12944221Y-10235785D01*
X12947399Y-10239710D01*
X12954130Y-10244009D01*
X12982545Y-10246995D01*
X12990384Y-10172406D01*
X12965521Y-10169793D01*
X12958044Y-10172598D01*
X12954119Y-10175777D01*
X12949820Y-10182507D01*
X12949074Y-10189611D01*
X12951879Y-10197088D01*
X12955058Y-10201013D01*
X12961788Y-10205312D01*
X12986651Y-10207925D01*
X12901588Y-10163073D02*
X12887380Y-10161580D01*
X12879903Y-10164385D01*
X12872053Y-10170742D01*
X12867008Y-10184577D01*
X12864394Y-10209440D01*
X12866453Y-10224020D01*
X12872810Y-10231871D01*
X12879541Y-10236169D01*
X12893748Y-10237663D01*
X12901225Y-10234857D01*
X12909075Y-10228500D01*
X12914121Y-10214666D01*
X12916734Y-10189803D01*
X12914675Y-10175222D01*
X12908318Y-10167372D01*
X12901588Y-10163073D01*
X12823447Y-10154860D02*
X12809239Y-10153367D01*
X12801762Y-10156172D01*
X12793912Y-10162529D01*
X12788867Y-10176364D01*
X12786253Y-10201227D01*
X12788312Y-10215807D01*
X12794669Y-10223658D01*
X12801400Y-10227956D01*
X12815607Y-10229450D01*
X12823084Y-10226644D01*
X12830934Y-10220287D01*
X12835979Y-10206453D01*
X12838593Y-10181590D01*
X12836534Y-10167009D01*
X12830177Y-10159159D01*
X12823447Y-10154860D01*
X12770169Y-10149261D02*
X12727546Y-10144781D01*
X12741018Y-10221610D02*
X12748857Y-10147021D01*
X12328738Y-10032551D02*
X12371036Y-10021999D01*
X12361082Y-10060668D02*
X12410287Y-10004065D01*
X12388724Y-9985321D01*
X12380990Y-9983330D01*
X12375951Y-9983682D01*
X12368570Y-9986730D01*
X12361541Y-9994816D01*
X12359550Y-10002550D01*
X12359902Y-10007588D01*
X12362950Y-10014970D01*
X12384513Y-10033714D01*
X12309518Y-10011112D02*
X12299088Y-10006778D01*
X12285611Y-9995062D01*
X12282564Y-9987681D01*
X12282211Y-9982642D01*
X12284202Y-9974909D01*
X12288888Y-9969518D01*
X12296270Y-9966470D01*
X12301308Y-9966118D01*
X12309042Y-9968108D01*
X12322167Y-9974785D01*
X12329901Y-9976776D01*
X12334939Y-9976424D01*
X12342321Y-9973376D01*
X12347007Y-9967985D01*
X12348998Y-9960251D01*
X12348645Y-9955213D01*
X12345597Y-9947831D01*
X12332121Y-9936116D01*
X12321691Y-9931782D01*
X12307862Y-9915029D02*
X12275517Y-9886912D01*
X12242485Y-9957573D02*
X12291690Y-9900970D01*
X13651071Y-10213929D02*
X13651071Y-10138929D01*
X13633214Y-10138929D01*
X13622500Y-10142500D01*
X13615357Y-10149643D01*
X13611786Y-10156786D01*
X13608214Y-10171071D01*
X13608214Y-10181786D01*
X13611786Y-10196071D01*
X13615357Y-10203214D01*
X13622500Y-10210357D01*
X13633214Y-10213929D01*
X13651071Y-10213929D01*
X13586786Y-10138929D02*
X13543928Y-10138929D01*
X13565357Y-10213929D02*
X13565357Y-10138929D01*
X13476071Y-10213929D02*
X13501071Y-10178214D01*
X13518928Y-10213929D02*
X13518928Y-10138929D01*
X13490357Y-10138929D01*
X13483214Y-10142500D01*
X13479643Y-10146071D01*
X13476071Y-10153214D01*
X13476071Y-10163929D01*
X13479643Y-10171071D01*
X13483214Y-10174643D01*
X13490357Y-10178214D01*
X13518928Y-10178214D01*
X13461786Y-10221071D02*
X13404643Y-10221071D01*
X13343928Y-10213929D02*
X13368928Y-10178214D01*
X13386786Y-10213929D02*
X13386786Y-10138929D01*
X13358214Y-10138929D01*
X13351071Y-10142500D01*
X13347500Y-10146071D01*
X13343928Y-10153214D01*
X13343928Y-10163929D01*
X13347500Y-10171071D01*
X13351071Y-10174643D01*
X13358214Y-10178214D01*
X13386786Y-10178214D01*
X13315357Y-10210357D02*
X13304643Y-10213929D01*
X13286786Y-10213929D01*
X13279643Y-10210357D01*
X13276071Y-10206786D01*
X13272500Y-10199643D01*
X13272500Y-10192500D01*
X13276071Y-10185357D01*
X13279643Y-10181786D01*
X13286786Y-10178214D01*
X13301071Y-10174643D01*
X13308214Y-10171071D01*
X13311786Y-10167500D01*
X13315357Y-10160357D01*
X13315357Y-10153214D01*
X13311786Y-10146071D01*
X13308214Y-10142500D01*
X13301071Y-10138929D01*
X13283214Y-10138929D01*
X13272500Y-10142500D01*
X13251071Y-10138929D02*
X13208214Y-10138929D01*
X13229643Y-10213929D02*
X13229643Y-10138929D01*
X13017143Y-9596429D02*
X12970714Y-9596429D01*
X12995714Y-9625000D01*
X12985000Y-9625000D01*
X12977857Y-9628571D01*
X12974286Y-9632143D01*
X12970714Y-9639286D01*
X12970714Y-9657143D01*
X12974286Y-9664286D01*
X12977857Y-9667857D01*
X12985000Y-9671429D01*
X13006428Y-9671429D01*
X13013571Y-9667857D01*
X13017143Y-9664286D01*
X12945714Y-9621429D02*
X12927857Y-9671429D01*
X12910000Y-9621429D01*
X12888571Y-9596429D02*
X12842143Y-9596429D01*
X12867143Y-9625000D01*
X12856428Y-9625000D01*
X12849286Y-9628571D01*
X12845714Y-9632143D01*
X12842143Y-9639286D01*
X12842143Y-9657143D01*
X12845714Y-9664286D01*
X12849286Y-9667857D01*
X12856428Y-9671429D01*
X12877857Y-9671429D01*
X12885000Y-9667857D01*
X12888571Y-9664286D01*
X12827857Y-9678571D02*
X12770714Y-9678571D01*
X12720714Y-9621429D02*
X12720714Y-9682143D01*
X12724286Y-9689286D01*
X12727857Y-9692857D01*
X12735000Y-9696429D01*
X12745714Y-9696429D01*
X12752857Y-9692857D01*
X12720714Y-9667857D02*
X12727857Y-9671429D01*
X12742143Y-9671429D01*
X12749286Y-9667857D01*
X12752857Y-9664286D01*
X12756428Y-9657143D01*
X12756428Y-9635714D01*
X12752857Y-9628571D01*
X12749286Y-9625000D01*
X12742143Y-9621429D01*
X12727857Y-9621429D01*
X12720714Y-9625000D01*
X12685000Y-9621429D02*
X12685000Y-9671429D01*
X12685000Y-9628571D02*
X12681428Y-9625000D01*
X12674286Y-9621429D01*
X12663571Y-9621429D01*
X12656428Y-9625000D01*
X12652857Y-9632143D01*
X12652857Y-9671429D01*
X12585000Y-9671429D02*
X12585000Y-9596429D01*
X12585000Y-9667857D02*
X12592143Y-9671429D01*
X12606428Y-9671429D01*
X12613571Y-9667857D01*
X12617143Y-9664286D01*
X12620714Y-9657143D01*
X12620714Y-9635714D01*
X12617143Y-9628571D01*
X12613571Y-9625000D01*
X12606428Y-9621429D01*
X12592143Y-9621429D01*
X12585000Y-9625000D01*
D13*
X15291548Y-8513571D02*
X15253452Y-8513571D01*
X15277262Y-8480238D02*
X15277262Y-8565952D01*
X15272500Y-8575476D01*
X15262976Y-8580238D01*
X15253452Y-8580238D01*
X15229643Y-8580238D02*
X15177262Y-8513571D01*
X15229643Y-8513571D02*
X15177262Y-8580238D01*
X15162976Y-8589762D02*
X15086786Y-8589762D01*
X15062976Y-8580238D02*
X15062976Y-8513571D01*
X15062976Y-8532619D02*
X15058214Y-8523095D01*
X15053452Y-8518333D01*
X15043928Y-8513571D01*
X15034405Y-8513571D01*
X15010595Y-8580238D02*
X14958214Y-8513571D01*
X15010595Y-8513571D02*
X14958214Y-8580238D01*
D14*
G04 #@! TO.C,Ref\u002A\u002A*
G36*
X13772946Y-9251612D02*
G01*
X13767467Y-9258125D01*
X13767467Y-9475026D01*
X13767463Y-9510925D01*
X13767462Y-9542831D01*
X13767475Y-9570983D01*
X13767518Y-9595620D01*
X13767602Y-9616983D01*
X13767742Y-9635311D01*
X13767952Y-9650843D01*
X13768243Y-9663819D01*
X13768631Y-9674479D01*
X13769127Y-9683063D01*
X13769747Y-9689810D01*
X13770502Y-9694959D01*
X13771407Y-9698751D01*
X13772475Y-9701425D01*
X13773719Y-9703221D01*
X13775153Y-9704378D01*
X13776790Y-9705136D01*
X13778644Y-9705735D01*
X13780418Y-9706304D01*
X13787854Y-9707879D01*
X13797425Y-9708546D01*
X13807582Y-9708341D01*
X13816778Y-9707300D01*
X13823468Y-9705459D01*
X13823806Y-9705299D01*
X13829116Y-9701505D01*
X13832757Y-9696878D01*
X13832802Y-9696781D01*
X13833226Y-9694504D01*
X13833604Y-9689541D01*
X13833937Y-9681746D01*
X13834228Y-9670973D01*
X13834477Y-9657079D01*
X13834687Y-9639916D01*
X13834858Y-9619341D01*
X13834993Y-9595207D01*
X13835093Y-9567369D01*
X13835159Y-9535683D01*
X13835194Y-9500002D01*
X13835200Y-9474821D01*
X13835200Y-9258125D01*
X13824240Y-9245100D01*
X13778426Y-9245100D01*
X13772946Y-9251612D01*
G37*
X13772946Y-9251612D02*
X13767467Y-9258125D01*
X13767467Y-9475026D01*
X13767463Y-9510925D01*
X13767462Y-9542831D01*
X13767475Y-9570983D01*
X13767518Y-9595620D01*
X13767602Y-9616983D01*
X13767742Y-9635311D01*
X13767952Y-9650843D01*
X13768243Y-9663819D01*
X13768631Y-9674479D01*
X13769127Y-9683063D01*
X13769747Y-9689810D01*
X13770502Y-9694959D01*
X13771407Y-9698751D01*
X13772475Y-9701425D01*
X13773719Y-9703221D01*
X13775153Y-9704378D01*
X13776790Y-9705136D01*
X13778644Y-9705735D01*
X13780418Y-9706304D01*
X13787854Y-9707879D01*
X13797425Y-9708546D01*
X13807582Y-9708341D01*
X13816778Y-9707300D01*
X13823468Y-9705459D01*
X13823806Y-9705299D01*
X13829116Y-9701505D01*
X13832757Y-9696878D01*
X13832802Y-9696781D01*
X13833226Y-9694504D01*
X13833604Y-9689541D01*
X13833937Y-9681746D01*
X13834228Y-9670973D01*
X13834477Y-9657079D01*
X13834687Y-9639916D01*
X13834858Y-9619341D01*
X13834993Y-9595207D01*
X13835093Y-9567369D01*
X13835159Y-9535683D01*
X13835194Y-9500002D01*
X13835200Y-9474821D01*
X13835200Y-9258125D01*
X13824240Y-9245100D01*
X13778426Y-9245100D01*
X13772946Y-9251612D01*
G36*
X13934806Y-9245310D02*
G01*
X13926878Y-9245872D01*
X13921417Y-9246688D01*
X13919950Y-9247172D01*
X13918364Y-9248032D01*
X13916992Y-9248974D01*
X13915868Y-9250235D01*
X13915029Y-9252054D01*
X13914511Y-9254670D01*
X13914349Y-9258321D01*
X13914579Y-9263246D01*
X13915238Y-9269683D01*
X13916360Y-9277872D01*
X13917982Y-9288050D01*
X13920140Y-9300457D01*
X13922869Y-9315330D01*
X13926206Y-9332909D01*
X13930185Y-9353432D01*
X13934843Y-9377137D01*
X13940216Y-9404264D01*
X13946340Y-9435050D01*
X13953249Y-9469735D01*
X13953722Y-9472109D01*
X13961697Y-9512006D01*
X13968901Y-9547785D01*
X13975346Y-9579489D01*
X13981038Y-9607161D01*
X13985989Y-9630845D01*
X13990207Y-9650583D01*
X13993700Y-9666418D01*
X13996479Y-9678393D01*
X13998552Y-9686553D01*
X13999929Y-9690938D01*
X14000127Y-9691378D01*
X14003831Y-9697747D01*
X14007901Y-9702215D01*
X14013147Y-9705107D01*
X14020377Y-9706749D01*
X14030401Y-9707465D01*
X14040424Y-9707592D01*
X14053688Y-9707327D01*
X14063516Y-9706323D01*
X14070682Y-9704263D01*
X14075962Y-9700833D01*
X14080131Y-9695718D01*
X14083192Y-9690188D01*
X14084716Y-9686213D01*
X14087221Y-9678579D01*
X14090579Y-9667710D01*
X14094667Y-9654034D01*
X14099359Y-9637975D01*
X14104529Y-9619962D01*
X14110052Y-9600419D01*
X14115803Y-9579774D01*
X14117753Y-9572706D01*
X14123414Y-9552252D01*
X14128767Y-9533132D01*
X14133704Y-9515714D01*
X14138118Y-9500370D01*
X14141901Y-9487469D01*
X14144945Y-9477382D01*
X14147142Y-9470478D01*
X14148384Y-9467127D01*
X14148599Y-9466873D01*
X14149392Y-9469155D01*
X14151187Y-9475134D01*
X14153873Y-9484424D01*
X14157342Y-9496637D01*
X14161484Y-9511386D01*
X14166191Y-9528284D01*
X14171353Y-9546944D01*
X14176861Y-9566977D01*
X14178851Y-9574242D01*
X14184568Y-9594985D01*
X14190093Y-9614742D01*
X14195302Y-9633086D01*
X14200070Y-9649593D01*
X14204273Y-9663834D01*
X14207785Y-9675385D01*
X14210482Y-9683818D01*
X14212239Y-9688708D01*
X14212545Y-9689381D01*
X14216868Y-9696827D01*
X14221526Y-9701959D01*
X14227417Y-9705213D01*
X14235442Y-9707030D01*
X14246500Y-9707847D01*
X14250684Y-9707966D01*
X14260642Y-9708000D01*
X14269731Y-9707703D01*
X14276651Y-9707133D01*
X14279158Y-9706699D01*
X14285331Y-9704611D01*
X14289727Y-9701413D01*
X14293379Y-9696064D01*
X14296663Y-9689063D01*
X14297631Y-9685710D01*
X14299344Y-9678550D01*
X14301731Y-9667930D01*
X14304721Y-9654195D01*
X14308245Y-9637693D01*
X14312233Y-9618771D01*
X14316614Y-9597775D01*
X14321319Y-9575053D01*
X14326277Y-9550950D01*
X14331418Y-9525815D01*
X14336673Y-9499993D01*
X14341971Y-9473832D01*
X14347242Y-9447677D01*
X14352416Y-9421877D01*
X14357423Y-9396778D01*
X14362193Y-9372726D01*
X14366656Y-9350069D01*
X14370741Y-9329153D01*
X14374379Y-9310324D01*
X14377500Y-9293931D01*
X14380033Y-9280319D01*
X14381909Y-9269836D01*
X14383057Y-9262828D01*
X14383410Y-9259756D01*
X14381906Y-9254413D01*
X14378518Y-9249702D01*
X14375807Y-9247570D01*
X14372516Y-9246215D01*
X14367676Y-9245466D01*
X14360316Y-9245152D01*
X14352368Y-9245100D01*
X14342498Y-9245184D01*
X14335867Y-9245561D01*
X14331483Y-9246418D01*
X14328354Y-9247942D01*
X14325689Y-9250132D01*
X14321227Y-9255889D01*
X14318341Y-9262303D01*
X14317669Y-9265452D01*
X14316298Y-9272442D01*
X14314286Y-9282948D01*
X14311696Y-9296646D01*
X14308587Y-9313212D01*
X14305020Y-9332322D01*
X14301055Y-9353653D01*
X14296754Y-9376879D01*
X14292177Y-9401677D01*
X14287384Y-9427723D01*
X14284890Y-9441302D01*
X14280050Y-9467635D01*
X14275422Y-9492723D01*
X14271063Y-9516260D01*
X14267031Y-9537941D01*
X14263383Y-9557461D01*
X14260176Y-9574514D01*
X14257468Y-9588796D01*
X14255316Y-9599999D01*
X14253777Y-9607821D01*
X14252909Y-9611954D01*
X14252738Y-9612543D01*
X14252077Y-9610449D01*
X14250385Y-9604627D01*
X14247761Y-9595427D01*
X14244303Y-9583200D01*
X14240111Y-9568299D01*
X14235283Y-9551074D01*
X14229917Y-9531875D01*
X14224114Y-9511055D01*
X14217971Y-9488965D01*
X14217398Y-9486903D01*
X14211181Y-9464581D01*
X14205247Y-9443396D01*
X14199700Y-9423714D01*
X14194644Y-9405900D01*
X14190185Y-9390319D01*
X14186426Y-9377336D01*
X14183473Y-9367317D01*
X14181429Y-9360626D01*
X14180400Y-9357630D01*
X14180373Y-9357575D01*
X14177187Y-9352924D01*
X14172967Y-9349775D01*
X14166903Y-9347866D01*
X14158185Y-9346930D01*
X14147157Y-9346700D01*
X14125622Y-9346700D01*
X14119582Y-9353645D01*
X14118199Y-9355539D01*
X14116699Y-9358309D01*
X14114989Y-9362260D01*
X14112973Y-9367698D01*
X14110559Y-9374928D01*
X14107652Y-9384256D01*
X14104159Y-9395989D01*
X14099984Y-9410431D01*
X14095035Y-9427889D01*
X14089217Y-9448668D01*
X14082435Y-9473074D01*
X14078628Y-9486829D01*
X14072460Y-9509092D01*
X14066622Y-9530087D01*
X14061213Y-9549467D01*
X14056329Y-9566887D01*
X14052068Y-9582002D01*
X14048527Y-9594467D01*
X14045804Y-9603935D01*
X14043996Y-9610063D01*
X14043201Y-9612504D01*
X14043176Y-9612531D01*
X14042719Y-9610417D01*
X14041554Y-9604443D01*
X14039737Y-9594910D01*
X14037323Y-9582124D01*
X14034371Y-9566385D01*
X14030936Y-9547997D01*
X14027075Y-9527264D01*
X14022844Y-9504488D01*
X14018301Y-9479972D01*
X14013502Y-9454019D01*
X14009875Y-9434367D01*
X13977113Y-9256742D01*
X13970681Y-9250921D01*
X13967407Y-9248203D01*
X13964165Y-9246495D01*
X13959889Y-9245564D01*
X13953510Y-9245177D01*
X13944036Y-9245100D01*
X13934806Y-9245310D01*
G37*
X13934806Y-9245310D02*
X13926878Y-9245872D01*
X13921417Y-9246688D01*
X13919950Y-9247172D01*
X13918364Y-9248032D01*
X13916992Y-9248974D01*
X13915868Y-9250235D01*
X13915029Y-9252054D01*
X13914511Y-9254670D01*
X13914349Y-9258321D01*
X13914579Y-9263246D01*
X13915238Y-9269683D01*
X13916360Y-9277872D01*
X13917982Y-9288050D01*
X13920140Y-9300457D01*
X13922869Y-9315330D01*
X13926206Y-9332909D01*
X13930185Y-9353432D01*
X13934843Y-9377137D01*
X13940216Y-9404264D01*
X13946340Y-9435050D01*
X13953249Y-9469735D01*
X13953722Y-9472109D01*
X13961697Y-9512006D01*
X13968901Y-9547785D01*
X13975346Y-9579489D01*
X13981038Y-9607161D01*
X13985989Y-9630845D01*
X13990207Y-9650583D01*
X13993700Y-9666418D01*
X13996479Y-9678393D01*
X13998552Y-9686553D01*
X13999929Y-9690938D01*
X14000127Y-9691378D01*
X14003831Y-9697747D01*
X14007901Y-9702215D01*
X14013147Y-9705107D01*
X14020377Y-9706749D01*
X14030401Y-9707465D01*
X14040424Y-9707592D01*
X14053688Y-9707327D01*
X14063516Y-9706323D01*
X14070682Y-9704263D01*
X14075962Y-9700833D01*
X14080131Y-9695718D01*
X14083192Y-9690188D01*
X14084716Y-9686213D01*
X14087221Y-9678579D01*
X14090579Y-9667710D01*
X14094667Y-9654034D01*
X14099359Y-9637975D01*
X14104529Y-9619962D01*
X14110052Y-9600419D01*
X14115803Y-9579774D01*
X14117753Y-9572706D01*
X14123414Y-9552252D01*
X14128767Y-9533132D01*
X14133704Y-9515714D01*
X14138118Y-9500370D01*
X14141901Y-9487469D01*
X14144945Y-9477382D01*
X14147142Y-9470478D01*
X14148384Y-9467127D01*
X14148599Y-9466873D01*
X14149392Y-9469155D01*
X14151187Y-9475134D01*
X14153873Y-9484424D01*
X14157342Y-9496637D01*
X14161484Y-9511386D01*
X14166191Y-9528284D01*
X14171353Y-9546944D01*
X14176861Y-9566977D01*
X14178851Y-9574242D01*
X14184568Y-9594985D01*
X14190093Y-9614742D01*
X14195302Y-9633086D01*
X14200070Y-9649593D01*
X14204273Y-9663834D01*
X14207785Y-9675385D01*
X14210482Y-9683818D01*
X14212239Y-9688708D01*
X14212545Y-9689381D01*
X14216868Y-9696827D01*
X14221526Y-9701959D01*
X14227417Y-9705213D01*
X14235442Y-9707030D01*
X14246500Y-9707847D01*
X14250684Y-9707966D01*
X14260642Y-9708000D01*
X14269731Y-9707703D01*
X14276651Y-9707133D01*
X14279158Y-9706699D01*
X14285331Y-9704611D01*
X14289727Y-9701413D01*
X14293379Y-9696064D01*
X14296663Y-9689063D01*
X14297631Y-9685710D01*
X14299344Y-9678550D01*
X14301731Y-9667930D01*
X14304721Y-9654195D01*
X14308245Y-9637693D01*
X14312233Y-9618771D01*
X14316614Y-9597775D01*
X14321319Y-9575053D01*
X14326277Y-9550950D01*
X14331418Y-9525815D01*
X14336673Y-9499993D01*
X14341971Y-9473832D01*
X14347242Y-9447677D01*
X14352416Y-9421877D01*
X14357423Y-9396778D01*
X14362193Y-9372726D01*
X14366656Y-9350069D01*
X14370741Y-9329153D01*
X14374379Y-9310324D01*
X14377500Y-9293931D01*
X14380033Y-9280319D01*
X14381909Y-9269836D01*
X14383057Y-9262828D01*
X14383410Y-9259756D01*
X14381906Y-9254413D01*
X14378518Y-9249702D01*
X14375807Y-9247570D01*
X14372516Y-9246215D01*
X14367676Y-9245466D01*
X14360316Y-9245152D01*
X14352368Y-9245100D01*
X14342498Y-9245184D01*
X14335867Y-9245561D01*
X14331483Y-9246418D01*
X14328354Y-9247942D01*
X14325689Y-9250132D01*
X14321227Y-9255889D01*
X14318341Y-9262303D01*
X14317669Y-9265452D01*
X14316298Y-9272442D01*
X14314286Y-9282948D01*
X14311696Y-9296646D01*
X14308587Y-9313212D01*
X14305020Y-9332322D01*
X14301055Y-9353653D01*
X14296754Y-9376879D01*
X14292177Y-9401677D01*
X14287384Y-9427723D01*
X14284890Y-9441302D01*
X14280050Y-9467635D01*
X14275422Y-9492723D01*
X14271063Y-9516260D01*
X14267031Y-9537941D01*
X14263383Y-9557461D01*
X14260176Y-9574514D01*
X14257468Y-9588796D01*
X14255316Y-9599999D01*
X14253777Y-9607821D01*
X14252909Y-9611954D01*
X14252738Y-9612543D01*
X14252077Y-9610449D01*
X14250385Y-9604627D01*
X14247761Y-9595427D01*
X14244303Y-9583200D01*
X14240111Y-9568299D01*
X14235283Y-9551074D01*
X14229917Y-9531875D01*
X14224114Y-9511055D01*
X14217971Y-9488965D01*
X14217398Y-9486903D01*
X14211181Y-9464581D01*
X14205247Y-9443396D01*
X14199700Y-9423714D01*
X14194644Y-9405900D01*
X14190185Y-9390319D01*
X14186426Y-9377336D01*
X14183473Y-9367317D01*
X14181429Y-9360626D01*
X14180400Y-9357630D01*
X14180373Y-9357575D01*
X14177187Y-9352924D01*
X14172967Y-9349775D01*
X14166903Y-9347866D01*
X14158185Y-9346930D01*
X14147157Y-9346700D01*
X14125622Y-9346700D01*
X14119582Y-9353645D01*
X14118199Y-9355539D01*
X14116699Y-9358309D01*
X14114989Y-9362260D01*
X14112973Y-9367698D01*
X14110559Y-9374928D01*
X14107652Y-9384256D01*
X14104159Y-9395989D01*
X14099984Y-9410431D01*
X14095035Y-9427889D01*
X14089217Y-9448668D01*
X14082435Y-9473074D01*
X14078628Y-9486829D01*
X14072460Y-9509092D01*
X14066622Y-9530087D01*
X14061213Y-9549467D01*
X14056329Y-9566887D01*
X14052068Y-9582002D01*
X14048527Y-9594467D01*
X14045804Y-9603935D01*
X14043996Y-9610063D01*
X14043201Y-9612504D01*
X14043176Y-9612531D01*
X14042719Y-9610417D01*
X14041554Y-9604443D01*
X14039737Y-9594910D01*
X14037323Y-9582124D01*
X14034371Y-9566385D01*
X14030936Y-9547997D01*
X14027075Y-9527264D01*
X14022844Y-9504488D01*
X14018301Y-9479972D01*
X14013502Y-9454019D01*
X14009875Y-9434367D01*
X13977113Y-9256742D01*
X13970681Y-9250921D01*
X13967407Y-9248203D01*
X13964165Y-9246495D01*
X13959889Y-9245564D01*
X13953510Y-9245177D01*
X13944036Y-9245100D01*
X13934806Y-9245310D01*
G36*
X14426397Y-9250207D02*
G01*
X14423557Y-9252933D01*
X14421749Y-9255873D01*
X14420686Y-9260074D01*
X14420081Y-9266585D01*
X14419719Y-9274550D01*
X14418979Y-9293785D01*
X14433793Y-9308600D01*
X14559013Y-9308600D01*
X14559586Y-9502228D01*
X14560158Y-9695855D01*
X14566024Y-9701723D01*
X14569122Y-9704519D01*
X14572344Y-9706292D01*
X14576765Y-9707315D01*
X14583460Y-9707860D01*
X14591424Y-9708140D01*
X14602426Y-9708191D01*
X14610110Y-9707552D01*
X14615349Y-9706131D01*
X14616726Y-9705455D01*
X14621616Y-9701813D01*
X14624663Y-9698166D01*
X14625093Y-9695206D01*
X14625476Y-9688032D01*
X14625812Y-9676664D01*
X14626100Y-9661120D01*
X14626342Y-9641419D01*
X14626535Y-9617581D01*
X14626680Y-9589624D01*
X14626778Y-9557569D01*
X14626827Y-9521433D01*
X14626833Y-9501356D01*
X14626833Y-9308600D01*
X14753509Y-9308600D01*
X14760021Y-9303120D01*
X14762984Y-9300484D01*
X14764876Y-9297942D01*
X14765938Y-9294519D01*
X14766409Y-9289233D01*
X14766529Y-9281108D01*
X14766533Y-9276566D01*
X14766456Y-9266793D01*
X14766094Y-9260266D01*
X14765251Y-9256000D01*
X14763734Y-9253008D01*
X14761347Y-9250305D01*
X14756142Y-9245100D01*
X14432336Y-9245100D01*
X14426397Y-9250207D01*
G37*
X14426397Y-9250207D02*
X14423557Y-9252933D01*
X14421749Y-9255873D01*
X14420686Y-9260074D01*
X14420081Y-9266585D01*
X14419719Y-9274550D01*
X14418979Y-9293785D01*
X14433793Y-9308600D01*
X14559013Y-9308600D01*
X14559586Y-9502228D01*
X14560158Y-9695855D01*
X14566024Y-9701723D01*
X14569122Y-9704519D01*
X14572344Y-9706292D01*
X14576765Y-9707315D01*
X14583460Y-9707860D01*
X14591424Y-9708140D01*
X14602426Y-9708191D01*
X14610110Y-9707552D01*
X14615349Y-9706131D01*
X14616726Y-9705455D01*
X14621616Y-9701813D01*
X14624663Y-9698166D01*
X14625093Y-9695206D01*
X14625476Y-9688032D01*
X14625812Y-9676664D01*
X14626100Y-9661120D01*
X14626342Y-9641419D01*
X14626535Y-9617581D01*
X14626680Y-9589624D01*
X14626778Y-9557569D01*
X14626827Y-9521433D01*
X14626833Y-9501356D01*
X14626833Y-9308600D01*
X14753509Y-9308600D01*
X14760021Y-9303120D01*
X14762984Y-9300484D01*
X14764876Y-9297942D01*
X14765938Y-9294519D01*
X14766409Y-9289233D01*
X14766529Y-9281108D01*
X14766533Y-9276566D01*
X14766456Y-9266793D01*
X14766094Y-9260266D01*
X14765251Y-9256000D01*
X14763734Y-9253008D01*
X14761347Y-9250305D01*
X14756142Y-9245100D01*
X14432336Y-9245100D01*
X14426397Y-9250207D01*
G36*
X13476135Y-9238666D02*
G01*
X13462317Y-9239174D01*
X13450725Y-9240091D01*
X13445469Y-9240817D01*
X13418011Y-9247519D01*
X13392237Y-9257662D01*
X13368657Y-9270997D01*
X13347782Y-9287271D01*
X13344515Y-9290336D01*
X13333992Y-9301698D01*
X13324681Y-9314095D01*
X13316820Y-9326949D01*
X13310648Y-9339683D01*
X13306403Y-9351720D01*
X13304322Y-9362481D01*
X13304645Y-9371390D01*
X13307610Y-9377868D01*
X13308150Y-9378450D01*
X13310505Y-9380336D01*
X13313639Y-9381568D01*
X13318426Y-9382281D01*
X13325741Y-9382608D01*
X13335806Y-9382683D01*
X13345684Y-9382506D01*
X13354253Y-9382024D01*
X13360468Y-9381317D01*
X13363034Y-9380647D01*
X13365842Y-9377946D01*
X13369946Y-9372564D01*
X13374587Y-9365524D01*
X13375934Y-9363301D01*
X13384299Y-9351043D01*
X13394454Y-9338991D01*
X13405459Y-9328092D01*
X13416375Y-9319290D01*
X13424685Y-9314259D01*
X13441882Y-9307829D01*
X13462007Y-9303812D01*
X13484425Y-9302329D01*
X13485950Y-9302324D01*
X13510016Y-9303830D01*
X13531394Y-9308430D01*
X13550405Y-9316238D01*
X13567373Y-9327373D01*
X13576054Y-9335058D01*
X13586531Y-9346707D01*
X13594636Y-9359265D01*
X13601047Y-9373940D01*
X13605022Y-9386590D01*
X13606253Y-9391282D01*
X13607238Y-9395887D01*
X13608004Y-9400933D01*
X13608579Y-9406949D01*
X13608991Y-9414464D01*
X13609267Y-9424007D01*
X13609435Y-9436107D01*
X13609522Y-9451292D01*
X13609555Y-9470091D01*
X13609558Y-9473700D01*
X13609537Y-9493962D01*
X13609436Y-9510507D01*
X13609234Y-9523849D01*
X13608909Y-9534505D01*
X13608440Y-9542989D01*
X13607807Y-9549817D01*
X13606988Y-9555505D01*
X13606028Y-9560284D01*
X13599157Y-9582106D01*
X13589180Y-9601098D01*
X13576192Y-9617164D01*
X13560288Y-9630205D01*
X13541566Y-9640121D01*
X13522499Y-9646265D01*
X13511079Y-9648140D01*
X13497227Y-9649091D01*
X13482182Y-9649161D01*
X13467184Y-9648389D01*
X13453470Y-9646817D01*
X13442280Y-9644483D01*
X13439336Y-9643547D01*
X13418700Y-9634472D01*
X13401586Y-9623217D01*
X13387893Y-9609634D01*
X13377521Y-9593576D01*
X13370371Y-9574892D01*
X13366344Y-9553434D01*
X13365300Y-9533187D01*
X13365300Y-9514134D01*
X13414998Y-9513496D01*
X13464695Y-9512858D01*
X13470560Y-9506990D01*
X13473513Y-9503652D01*
X13475330Y-9500110D01*
X13476342Y-9495180D01*
X13476877Y-9487674D01*
X13477031Y-9483707D01*
X13477003Y-9472240D01*
X13475762Y-9464049D01*
X13472973Y-9458265D01*
X13468300Y-9454023D01*
X13464754Y-9452007D01*
X13462329Y-9450978D01*
X13459293Y-9450156D01*
X13455172Y-9449521D01*
X13449494Y-9449047D01*
X13441786Y-9448714D01*
X13431576Y-9448497D01*
X13418392Y-9448374D01*
X13401761Y-9448322D01*
X13388583Y-9448315D01*
X13369191Y-9448387D01*
X13351894Y-9448591D01*
X13337111Y-9448913D01*
X13325264Y-9449343D01*
X13316774Y-9449867D01*
X13312061Y-9450475D01*
X13311858Y-9450527D01*
X13307567Y-9451932D01*
X13304201Y-9453809D01*
X13301660Y-9456638D01*
X13299845Y-9460901D01*
X13298656Y-9467077D01*
X13297993Y-9475648D01*
X13297757Y-9487095D01*
X13297847Y-9501897D01*
X13298095Y-9516869D01*
X13298587Y-9536735D01*
X13299336Y-9553114D01*
X13300482Y-9566749D01*
X13302165Y-9578386D01*
X13304523Y-9588768D01*
X13307695Y-9598639D01*
X13311821Y-9608744D01*
X13317039Y-9619827D01*
X13317523Y-9620808D01*
X13330637Y-9642717D01*
X13346875Y-9661944D01*
X13365994Y-9678375D01*
X13387751Y-9691892D01*
X13411902Y-9702381D01*
X13438206Y-9709726D01*
X13466418Y-9713812D01*
X13496296Y-9714522D01*
X13512408Y-9713519D01*
X13539524Y-9709467D01*
X13564854Y-9702497D01*
X13587762Y-9692818D01*
X13602375Y-9684303D01*
X13620706Y-9669653D01*
X13636944Y-9651666D01*
X13650785Y-9630842D01*
X13661924Y-9607681D01*
X13670057Y-9582682D01*
X13673211Y-9567920D01*
X13675070Y-9554174D01*
X13676474Y-9537398D01*
X13677433Y-9518306D01*
X13677958Y-9497614D01*
X13678060Y-9476039D01*
X13677751Y-9454294D01*
X13677041Y-9433097D01*
X13675941Y-9413162D01*
X13674463Y-9395204D01*
X13672618Y-9379941D01*
X13670416Y-9368086D01*
X13670098Y-9366808D01*
X13664692Y-9349949D01*
X13657296Y-9332603D01*
X13648609Y-9316191D01*
X13639330Y-9302130D01*
X13636369Y-9298383D01*
X13619813Y-9281660D01*
X13600083Y-9267211D01*
X13577755Y-9255344D01*
X13553404Y-9246365D01*
X13528623Y-9240744D01*
X13518425Y-9239606D01*
X13505442Y-9238881D01*
X13490928Y-9238568D01*
X13476135Y-9238666D01*
G37*
X13476135Y-9238666D02*
X13462317Y-9239174D01*
X13450725Y-9240091D01*
X13445469Y-9240817D01*
X13418011Y-9247519D01*
X13392237Y-9257662D01*
X13368657Y-9270997D01*
X13347782Y-9287271D01*
X13344515Y-9290336D01*
X13333992Y-9301698D01*
X13324681Y-9314095D01*
X13316820Y-9326949D01*
X13310648Y-9339683D01*
X13306403Y-9351720D01*
X13304322Y-9362481D01*
X13304645Y-9371390D01*
X13307610Y-9377868D01*
X13308150Y-9378450D01*
X13310505Y-9380336D01*
X13313639Y-9381568D01*
X13318426Y-9382281D01*
X13325741Y-9382608D01*
X13335806Y-9382683D01*
X13345684Y-9382506D01*
X13354253Y-9382024D01*
X13360468Y-9381317D01*
X13363034Y-9380647D01*
X13365842Y-9377946D01*
X13369946Y-9372564D01*
X13374587Y-9365524D01*
X13375934Y-9363301D01*
X13384299Y-9351043D01*
X13394454Y-9338991D01*
X13405459Y-9328092D01*
X13416375Y-9319290D01*
X13424685Y-9314259D01*
X13441882Y-9307829D01*
X13462007Y-9303812D01*
X13484425Y-9302329D01*
X13485950Y-9302324D01*
X13510016Y-9303830D01*
X13531394Y-9308430D01*
X13550405Y-9316238D01*
X13567373Y-9327373D01*
X13576054Y-9335058D01*
X13586531Y-9346707D01*
X13594636Y-9359265D01*
X13601047Y-9373940D01*
X13605022Y-9386590D01*
X13606253Y-9391282D01*
X13607238Y-9395887D01*
X13608004Y-9400933D01*
X13608579Y-9406949D01*
X13608991Y-9414464D01*
X13609267Y-9424007D01*
X13609435Y-9436107D01*
X13609522Y-9451292D01*
X13609555Y-9470091D01*
X13609558Y-9473700D01*
X13609537Y-9493962D01*
X13609436Y-9510507D01*
X13609234Y-9523849D01*
X13608909Y-9534505D01*
X13608440Y-9542989D01*
X13607807Y-9549817D01*
X13606988Y-9555505D01*
X13606028Y-9560284D01*
X13599157Y-9582106D01*
X13589180Y-9601098D01*
X13576192Y-9617164D01*
X13560288Y-9630205D01*
X13541566Y-9640121D01*
X13522499Y-9646265D01*
X13511079Y-9648140D01*
X13497227Y-9649091D01*
X13482182Y-9649161D01*
X13467184Y-9648389D01*
X13453470Y-9646817D01*
X13442280Y-9644483D01*
X13439336Y-9643547D01*
X13418700Y-9634472D01*
X13401586Y-9623217D01*
X13387893Y-9609634D01*
X13377521Y-9593576D01*
X13370371Y-9574892D01*
X13366344Y-9553434D01*
X13365300Y-9533187D01*
X13365300Y-9514134D01*
X13414998Y-9513496D01*
X13464695Y-9512858D01*
X13470560Y-9506990D01*
X13473513Y-9503652D01*
X13475330Y-9500110D01*
X13476342Y-9495180D01*
X13476877Y-9487674D01*
X13477031Y-9483707D01*
X13477003Y-9472240D01*
X13475762Y-9464049D01*
X13472973Y-9458265D01*
X13468300Y-9454023D01*
X13464754Y-9452007D01*
X13462329Y-9450978D01*
X13459293Y-9450156D01*
X13455172Y-9449521D01*
X13449494Y-9449047D01*
X13441786Y-9448714D01*
X13431576Y-9448497D01*
X13418392Y-9448374D01*
X13401761Y-9448322D01*
X13388583Y-9448315D01*
X13369191Y-9448387D01*
X13351894Y-9448591D01*
X13337111Y-9448913D01*
X13325264Y-9449343D01*
X13316774Y-9449867D01*
X13312061Y-9450475D01*
X13311858Y-9450527D01*
X13307567Y-9451932D01*
X13304201Y-9453809D01*
X13301660Y-9456638D01*
X13299845Y-9460901D01*
X13298656Y-9467077D01*
X13297993Y-9475648D01*
X13297757Y-9487095D01*
X13297847Y-9501897D01*
X13298095Y-9516869D01*
X13298587Y-9536735D01*
X13299336Y-9553114D01*
X13300482Y-9566749D01*
X13302165Y-9578386D01*
X13304523Y-9588768D01*
X13307695Y-9598639D01*
X13311821Y-9608744D01*
X13317039Y-9619827D01*
X13317523Y-9620808D01*
X13330637Y-9642717D01*
X13346875Y-9661944D01*
X13365994Y-9678375D01*
X13387751Y-9691892D01*
X13411902Y-9702381D01*
X13438206Y-9709726D01*
X13466418Y-9713812D01*
X13496296Y-9714522D01*
X13512408Y-9713519D01*
X13539524Y-9709467D01*
X13564854Y-9702497D01*
X13587762Y-9692818D01*
X13602375Y-9684303D01*
X13620706Y-9669653D01*
X13636944Y-9651666D01*
X13650785Y-9630842D01*
X13661924Y-9607681D01*
X13670057Y-9582682D01*
X13673211Y-9567920D01*
X13675070Y-9554174D01*
X13676474Y-9537398D01*
X13677433Y-9518306D01*
X13677958Y-9497614D01*
X13678060Y-9476039D01*
X13677751Y-9454294D01*
X13677041Y-9433097D01*
X13675941Y-9413162D01*
X13674463Y-9395204D01*
X13672618Y-9379941D01*
X13670416Y-9368086D01*
X13670098Y-9366808D01*
X13664692Y-9349949D01*
X13657296Y-9332603D01*
X13648609Y-9316191D01*
X13639330Y-9302130D01*
X13636369Y-9298383D01*
X13619813Y-9281660D01*
X13600083Y-9267211D01*
X13577755Y-9255344D01*
X13553404Y-9246365D01*
X13528623Y-9240744D01*
X13518425Y-9239606D01*
X13505442Y-9238881D01*
X13490928Y-9238568D01*
X13476135Y-9238666D01*
G36*
X14917888Y-8917944D02*
G01*
X14902027Y-8927838D01*
X14888335Y-8940619D01*
X14877460Y-8955538D01*
X14870051Y-8971845D01*
X14869378Y-8974022D01*
X14868962Y-8975751D01*
X14868580Y-8978086D01*
X14868233Y-8981209D01*
X14867918Y-8985303D01*
X14867634Y-8990552D01*
X14867379Y-8997140D01*
X14867152Y-9005248D01*
X14866951Y-9015061D01*
X14866775Y-9026762D01*
X14866621Y-9040534D01*
X14866490Y-9056561D01*
X14866378Y-9075024D01*
X14866285Y-9096109D01*
X14866209Y-9119998D01*
X14866148Y-9146874D01*
X14866100Y-9176920D01*
X14866065Y-9210320D01*
X14866041Y-9247258D01*
X14866026Y-9287915D01*
X14866018Y-9332477D01*
X14866017Y-9371042D01*
X14866012Y-9419249D01*
X14866003Y-9463409D01*
X14865995Y-9503708D01*
X14865997Y-9540331D01*
X14866014Y-9573465D01*
X14866053Y-9603296D01*
X14866122Y-9630008D01*
X14866227Y-9653789D01*
X14866375Y-9674825D01*
X14866572Y-9693300D01*
X14866826Y-9709402D01*
X14867143Y-9723316D01*
X14867530Y-9735228D01*
X14867994Y-9745324D01*
X14868542Y-9753791D01*
X14869181Y-9760813D01*
X14869916Y-9766577D01*
X14870756Y-9771269D01*
X14871707Y-9775075D01*
X14872775Y-9778181D01*
X14873968Y-9780772D01*
X14875292Y-9783035D01*
X14876755Y-9785156D01*
X14878362Y-9787321D01*
X14880121Y-9789715D01*
X14881408Y-9791568D01*
X14893954Y-9806530D01*
X14909289Y-9818508D01*
X14923167Y-9825611D01*
X14934808Y-9830358D01*
X15225850Y-9830767D01*
X15267473Y-9830821D01*
X15305071Y-9830858D01*
X15338853Y-9830877D01*
X15369029Y-9830875D01*
X15395806Y-9830852D01*
X15419395Y-9830804D01*
X15440002Y-9830730D01*
X15457838Y-9830629D01*
X15473111Y-9830498D01*
X15486030Y-9830335D01*
X15496803Y-9830139D01*
X15505640Y-9829908D01*
X15512749Y-9829640D01*
X15518340Y-9829332D01*
X15522620Y-9828984D01*
X15525799Y-9828592D01*
X15528085Y-9828156D01*
X15528533Y-9828042D01*
X15546177Y-9821156D01*
X15561829Y-9810676D01*
X15575119Y-9796918D01*
X15585675Y-9780201D01*
X15586508Y-9778500D01*
X15593092Y-9764742D01*
X15593092Y-9677051D01*
X15509483Y-9677051D01*
X15509460Y-9690562D01*
X15509012Y-9700417D01*
X15507568Y-9707191D01*
X15504559Y-9711461D01*
X15499415Y-9713801D01*
X15491566Y-9714786D01*
X15480442Y-9714993D01*
X15471912Y-9714982D01*
X15458298Y-9714796D01*
X15443416Y-9714305D01*
X15429170Y-9713587D01*
X15418570Y-9712819D01*
X15381546Y-9707852D01*
X15347304Y-9699772D01*
X15315884Y-9688610D01*
X15287328Y-9674397D01*
X15261676Y-9657166D01*
X15238970Y-9636948D01*
X15219251Y-9613776D01*
X15202559Y-9587680D01*
X15188936Y-9558694D01*
X15178422Y-9526848D01*
X15178185Y-9525964D01*
X15175142Y-9516691D01*
X15171846Y-9510427D01*
X15169998Y-9508502D01*
X15168454Y-9507810D01*
X15165741Y-9507227D01*
X15161527Y-9506746D01*
X15155483Y-9506356D01*
X15147276Y-9506049D01*
X15136577Y-9505816D01*
X15123054Y-9505649D01*
X15106375Y-9505538D01*
X15086211Y-9505475D01*
X15062230Y-9505451D01*
X15055392Y-9505450D01*
X15030323Y-9505434D01*
X15009160Y-9505380D01*
X14991576Y-9505280D01*
X14977243Y-9505125D01*
X14965835Y-9504907D01*
X14957024Y-9504617D01*
X14950483Y-9504245D01*
X14945884Y-9503785D01*
X14942901Y-9503227D01*
X14941206Y-9502562D01*
X14941034Y-9502446D01*
X14939126Y-9500558D01*
X14937913Y-9497678D01*
X14937242Y-9492925D01*
X14936965Y-9485417D01*
X14936925Y-9478326D01*
X14936799Y-9471683D01*
X14936643Y-9466090D01*
X14936791Y-9461458D01*
X14937574Y-9457698D01*
X14939325Y-9454720D01*
X14942378Y-9452434D01*
X14947065Y-9450750D01*
X14953718Y-9449579D01*
X14962672Y-9448831D01*
X14974258Y-9448417D01*
X14988809Y-9448246D01*
X15006658Y-9448229D01*
X15028139Y-9448276D01*
X15048345Y-9448300D01*
X15151700Y-9448300D01*
X15158529Y-9442198D01*
X15162231Y-9438504D01*
X15164392Y-9434789D01*
X15165531Y-9429656D01*
X15166165Y-9421709D01*
X15166173Y-9421561D01*
X15166425Y-9413310D01*
X15165875Y-9407873D01*
X15164267Y-9403867D01*
X15162399Y-9401204D01*
X15157809Y-9395383D01*
X15090926Y-9395383D01*
X15072097Y-9395363D01*
X15057050Y-9395288D01*
X15045331Y-9395134D01*
X15036490Y-9394881D01*
X15030075Y-9394505D01*
X15025633Y-9393984D01*
X15022712Y-9393296D01*
X15020860Y-9392418D01*
X15020171Y-9391880D01*
X15018234Y-9389393D01*
X15017055Y-9385583D01*
X15016466Y-9379496D01*
X15016300Y-9370177D01*
X15016300Y-9369730D01*
X15016411Y-9360585D01*
X15016863Y-9354761D01*
X15017835Y-9351347D01*
X15019505Y-9349433D01*
X15020394Y-9348891D01*
X15023834Y-9348210D01*
X15031208Y-9347642D01*
X15042217Y-9347199D01*
X15056563Y-9346890D01*
X15073949Y-9346725D01*
X15085020Y-9346700D01*
X15103670Y-9346658D01*
X15118556Y-9346519D01*
X15130146Y-9346262D01*
X15138911Y-9345864D01*
X15145319Y-9345304D01*
X15149838Y-9344561D01*
X15152938Y-9343614D01*
X15152969Y-9343601D01*
X15157791Y-9340961D01*
X15161360Y-9337239D01*
X15163849Y-9331830D01*
X15165432Y-9324132D01*
X15166284Y-9313541D01*
X15166576Y-9299452D01*
X15166583Y-9296257D01*
X15166611Y-9284554D01*
X15166776Y-9276301D01*
X15167203Y-9270715D01*
X15168019Y-9267012D01*
X15169347Y-9264410D01*
X15171312Y-9262124D01*
X15172164Y-9261264D01*
X15177744Y-9255683D01*
X15224384Y-9255683D01*
X15240931Y-9255713D01*
X15253727Y-9255902D01*
X15263254Y-9256403D01*
X15269994Y-9257367D01*
X15274429Y-9258945D01*
X15277042Y-9261291D01*
X15278315Y-9264554D01*
X15278729Y-9268888D01*
X15278767Y-9272791D01*
X15277351Y-9281743D01*
X15272994Y-9287757D01*
X15265527Y-9290983D01*
X15258010Y-9291667D01*
X15250308Y-9292259D01*
X15245229Y-9294485D01*
X15242268Y-9299016D01*
X15240921Y-9306526D01*
X15240667Y-9314807D01*
X15241195Y-9325444D01*
X15243106Y-9333482D01*
X15246886Y-9339264D01*
X15253024Y-9343133D01*
X15262007Y-9345430D01*
X15274322Y-9346499D01*
X15286058Y-9346700D01*
X15296551Y-9346741D01*
X15303638Y-9346968D01*
X15308145Y-9347538D01*
X15310901Y-9348608D01*
X15312731Y-9350335D01*
X15313875Y-9351975D01*
X15315764Y-9356145D01*
X15316641Y-9361953D01*
X15316644Y-9370521D01*
X15316518Y-9373350D01*
X15316011Y-9381239D01*
X15315009Y-9386977D01*
X15312912Y-9390905D01*
X15309122Y-9393368D01*
X15303040Y-9394706D01*
X15294066Y-9395264D01*
X15281603Y-9395382D01*
X15278000Y-9395383D01*
X15264621Y-9395458D01*
X15254895Y-9395914D01*
X15248237Y-9397105D01*
X15244068Y-9399379D01*
X15241805Y-9403090D01*
X15240865Y-9408586D01*
X15240668Y-9416220D01*
X15240667Y-9417903D01*
X15240824Y-9426232D01*
X15241551Y-9431711D01*
X15243226Y-9435720D01*
X15246229Y-9439639D01*
X15246840Y-9440329D01*
X15253013Y-9447242D01*
X15306586Y-9447877D01*
X15323426Y-9448110D01*
X15336533Y-9448385D01*
X15346406Y-9448738D01*
X15353546Y-9449202D01*
X15358452Y-9449814D01*
X15361625Y-9450608D01*
X15363565Y-9451620D01*
X15363913Y-9451909D01*
X15365687Y-9454204D01*
X15366812Y-9457794D01*
X15367423Y-9463550D01*
X15367652Y-9472344D01*
X15367667Y-9476507D01*
X15367707Y-9485260D01*
X15367512Y-9492050D01*
X15366605Y-9497123D01*
X15364512Y-9500730D01*
X15360758Y-9503119D01*
X15354867Y-9504538D01*
X15346364Y-9505235D01*
X15334774Y-9505458D01*
X15319622Y-9505458D01*
X15312305Y-9505450D01*
X15296721Y-9505470D01*
X15284813Y-9505559D01*
X15276024Y-9505763D01*
X15269795Y-9506126D01*
X15265569Y-9506693D01*
X15262790Y-9507509D01*
X15260899Y-9508619D01*
X15259717Y-9509683D01*
X15256414Y-9514825D01*
X15255818Y-9521418D01*
X15257938Y-9530170D01*
X15260092Y-9535749D01*
X15271837Y-9558365D01*
X15286961Y-9578607D01*
X15305155Y-9596182D01*
X15326112Y-9610797D01*
X15349523Y-9622158D01*
X15351792Y-9623030D01*
X15364498Y-9627520D01*
X15376436Y-9631005D01*
X15388484Y-9633622D01*
X15401524Y-9635509D01*
X15416434Y-9636803D01*
X15434094Y-9637639D01*
X15448100Y-9638016D01*
X15461819Y-9638347D01*
X15474318Y-9638724D01*
X15484901Y-9639118D01*
X15492872Y-9639503D01*
X15497534Y-9639852D01*
X15498223Y-9639954D01*
X15502422Y-9641179D01*
X15505432Y-9643240D01*
X15507449Y-9646776D01*
X15508665Y-9652427D01*
X15509276Y-9660832D01*
X15509475Y-9672631D01*
X15509483Y-9677051D01*
X15593092Y-9677051D01*
X15593092Y-8975225D01*
X15586296Y-8961340D01*
X15578030Y-8948134D01*
X15566878Y-8935532D01*
X15554075Y-8924752D01*
X15541828Y-8917458D01*
X15529592Y-8911725D01*
X14930575Y-8911725D01*
X14917888Y-8917944D01*
G37*
X14917888Y-8917944D02*
X14902027Y-8927838D01*
X14888335Y-8940619D01*
X14877460Y-8955538D01*
X14870051Y-8971845D01*
X14869378Y-8974022D01*
X14868962Y-8975751D01*
X14868580Y-8978086D01*
X14868233Y-8981209D01*
X14867918Y-8985303D01*
X14867634Y-8990552D01*
X14867379Y-8997140D01*
X14867152Y-9005248D01*
X14866951Y-9015061D01*
X14866775Y-9026762D01*
X14866621Y-9040534D01*
X14866490Y-9056561D01*
X14866378Y-9075024D01*
X14866285Y-9096109D01*
X14866209Y-9119998D01*
X14866148Y-9146874D01*
X14866100Y-9176920D01*
X14866065Y-9210320D01*
X14866041Y-9247258D01*
X14866026Y-9287915D01*
X14866018Y-9332477D01*
X14866017Y-9371042D01*
X14866012Y-9419249D01*
X14866003Y-9463409D01*
X14865995Y-9503708D01*
X14865997Y-9540331D01*
X14866014Y-9573465D01*
X14866053Y-9603296D01*
X14866122Y-9630008D01*
X14866227Y-9653789D01*
X14866375Y-9674825D01*
X14866572Y-9693300D01*
X14866826Y-9709402D01*
X14867143Y-9723316D01*
X14867530Y-9735228D01*
X14867994Y-9745324D01*
X14868542Y-9753791D01*
X14869181Y-9760813D01*
X14869916Y-9766577D01*
X14870756Y-9771269D01*
X14871707Y-9775075D01*
X14872775Y-9778181D01*
X14873968Y-9780772D01*
X14875292Y-9783035D01*
X14876755Y-9785156D01*
X14878362Y-9787321D01*
X14880121Y-9789715D01*
X14881408Y-9791568D01*
X14893954Y-9806530D01*
X14909289Y-9818508D01*
X14923167Y-9825611D01*
X14934808Y-9830358D01*
X15225850Y-9830767D01*
X15267473Y-9830821D01*
X15305071Y-9830858D01*
X15338853Y-9830877D01*
X15369029Y-9830875D01*
X15395806Y-9830852D01*
X15419395Y-9830804D01*
X15440002Y-9830730D01*
X15457838Y-9830629D01*
X15473111Y-9830498D01*
X15486030Y-9830335D01*
X15496803Y-9830139D01*
X15505640Y-9829908D01*
X15512749Y-9829640D01*
X15518340Y-9829332D01*
X15522620Y-9828984D01*
X15525799Y-9828592D01*
X15528085Y-9828156D01*
X15528533Y-9828042D01*
X15546177Y-9821156D01*
X15561829Y-9810676D01*
X15575119Y-9796918D01*
X15585675Y-9780201D01*
X15586508Y-9778500D01*
X15593092Y-9764742D01*
X15593092Y-9677051D01*
X15509483Y-9677051D01*
X15509460Y-9690562D01*
X15509012Y-9700417D01*
X15507568Y-9707191D01*
X15504559Y-9711461D01*
X15499415Y-9713801D01*
X15491566Y-9714786D01*
X15480442Y-9714993D01*
X15471912Y-9714982D01*
X15458298Y-9714796D01*
X15443416Y-9714305D01*
X15429170Y-9713587D01*
X15418570Y-9712819D01*
X15381546Y-9707852D01*
X15347304Y-9699772D01*
X15315884Y-9688610D01*
X15287328Y-9674397D01*
X15261676Y-9657166D01*
X15238970Y-9636948D01*
X15219251Y-9613776D01*
X15202559Y-9587680D01*
X15188936Y-9558694D01*
X15178422Y-9526848D01*
X15178185Y-9525964D01*
X15175142Y-9516691D01*
X15171846Y-9510427D01*
X15169998Y-9508502D01*
X15168454Y-9507810D01*
X15165741Y-9507227D01*
X15161527Y-9506746D01*
X15155483Y-9506356D01*
X15147276Y-9506049D01*
X15136577Y-9505816D01*
X15123054Y-9505649D01*
X15106375Y-9505538D01*
X15086211Y-9505475D01*
X15062230Y-9505451D01*
X15055392Y-9505450D01*
X15030323Y-9505434D01*
X15009160Y-9505380D01*
X14991576Y-9505280D01*
X14977243Y-9505125D01*
X14965835Y-9504907D01*
X14957024Y-9504617D01*
X14950483Y-9504245D01*
X14945884Y-9503785D01*
X14942901Y-9503227D01*
X14941206Y-9502562D01*
X14941034Y-9502446D01*
X14939126Y-9500558D01*
X14937913Y-9497678D01*
X14937242Y-9492925D01*
X14936965Y-9485417D01*
X14936925Y-9478326D01*
X14936799Y-9471683D01*
X14936643Y-9466090D01*
X14936791Y-9461458D01*
X14937574Y-9457698D01*
X14939325Y-9454720D01*
X14942378Y-9452434D01*
X14947065Y-9450750D01*
X14953718Y-9449579D01*
X14962672Y-9448831D01*
X14974258Y-9448417D01*
X14988809Y-9448246D01*
X15006658Y-9448229D01*
X15028139Y-9448276D01*
X15048345Y-9448300D01*
X15151700Y-9448300D01*
X15158529Y-9442198D01*
X15162231Y-9438504D01*
X15164392Y-9434789D01*
X15165531Y-9429656D01*
X15166165Y-9421709D01*
X15166173Y-9421561D01*
X15166425Y-9413310D01*
X15165875Y-9407873D01*
X15164267Y-9403867D01*
X15162399Y-9401204D01*
X15157809Y-9395383D01*
X15090926Y-9395383D01*
X15072097Y-9395363D01*
X15057050Y-9395288D01*
X15045331Y-9395134D01*
X15036490Y-9394881D01*
X15030075Y-9394505D01*
X15025633Y-9393984D01*
X15022712Y-9393296D01*
X15020860Y-9392418D01*
X15020171Y-9391880D01*
X15018234Y-9389393D01*
X15017055Y-9385583D01*
X15016466Y-9379496D01*
X15016300Y-9370177D01*
X15016300Y-9369730D01*
X15016411Y-9360585D01*
X15016863Y-9354761D01*
X15017835Y-9351347D01*
X15019505Y-9349433D01*
X15020394Y-9348891D01*
X15023834Y-9348210D01*
X15031208Y-9347642D01*
X15042217Y-9347199D01*
X15056563Y-9346890D01*
X15073949Y-9346725D01*
X15085020Y-9346700D01*
X15103670Y-9346658D01*
X15118556Y-9346519D01*
X15130146Y-9346262D01*
X15138911Y-9345864D01*
X15145319Y-9345304D01*
X15149838Y-9344561D01*
X15152938Y-9343614D01*
X15152969Y-9343601D01*
X15157791Y-9340961D01*
X15161360Y-9337239D01*
X15163849Y-9331830D01*
X15165432Y-9324132D01*
X15166284Y-9313541D01*
X15166576Y-9299452D01*
X15166583Y-9296257D01*
X15166611Y-9284554D01*
X15166776Y-9276301D01*
X15167203Y-9270715D01*
X15168019Y-9267012D01*
X15169347Y-9264410D01*
X15171312Y-9262124D01*
X15172164Y-9261264D01*
X15177744Y-9255683D01*
X15224384Y-9255683D01*
X15240931Y-9255713D01*
X15253727Y-9255902D01*
X15263254Y-9256403D01*
X15269994Y-9257367D01*
X15274429Y-9258945D01*
X15277042Y-9261291D01*
X15278315Y-9264554D01*
X15278729Y-9268888D01*
X15278767Y-9272791D01*
X15277351Y-9281743D01*
X15272994Y-9287757D01*
X15265527Y-9290983D01*
X15258010Y-9291667D01*
X15250308Y-9292259D01*
X15245229Y-9294485D01*
X15242268Y-9299016D01*
X15240921Y-9306526D01*
X15240667Y-9314807D01*
X15241195Y-9325444D01*
X15243106Y-9333482D01*
X15246886Y-9339264D01*
X15253024Y-9343133D01*
X15262007Y-9345430D01*
X15274322Y-9346499D01*
X15286058Y-9346700D01*
X15296551Y-9346741D01*
X15303638Y-9346968D01*
X15308145Y-9347538D01*
X15310901Y-9348608D01*
X15312731Y-9350335D01*
X15313875Y-9351975D01*
X15315764Y-9356145D01*
X15316641Y-9361953D01*
X15316644Y-9370521D01*
X15316518Y-9373350D01*
X15316011Y-9381239D01*
X15315009Y-9386977D01*
X15312912Y-9390905D01*
X15309122Y-9393368D01*
X15303040Y-9394706D01*
X15294066Y-9395264D01*
X15281603Y-9395382D01*
X15278000Y-9395383D01*
X15264621Y-9395458D01*
X15254895Y-9395914D01*
X15248237Y-9397105D01*
X15244068Y-9399379D01*
X15241805Y-9403090D01*
X15240865Y-9408586D01*
X15240668Y-9416220D01*
X15240667Y-9417903D01*
X15240824Y-9426232D01*
X15241551Y-9431711D01*
X15243226Y-9435720D01*
X15246229Y-9439639D01*
X15246840Y-9440329D01*
X15253013Y-9447242D01*
X15306586Y-9447877D01*
X15323426Y-9448110D01*
X15336533Y-9448385D01*
X15346406Y-9448738D01*
X15353546Y-9449202D01*
X15358452Y-9449814D01*
X15361625Y-9450608D01*
X15363565Y-9451620D01*
X15363913Y-9451909D01*
X15365687Y-9454204D01*
X15366812Y-9457794D01*
X15367423Y-9463550D01*
X15367652Y-9472344D01*
X15367667Y-9476507D01*
X15367707Y-9485260D01*
X15367512Y-9492050D01*
X15366605Y-9497123D01*
X15364512Y-9500730D01*
X15360758Y-9503119D01*
X15354867Y-9504538D01*
X15346364Y-9505235D01*
X15334774Y-9505458D01*
X15319622Y-9505458D01*
X15312305Y-9505450D01*
X15296721Y-9505470D01*
X15284813Y-9505559D01*
X15276024Y-9505763D01*
X15269795Y-9506126D01*
X15265569Y-9506693D01*
X15262790Y-9507509D01*
X15260899Y-9508619D01*
X15259717Y-9509683D01*
X15256414Y-9514825D01*
X15255818Y-9521418D01*
X15257938Y-9530170D01*
X15260092Y-9535749D01*
X15271837Y-9558365D01*
X15286961Y-9578607D01*
X15305155Y-9596182D01*
X15326112Y-9610797D01*
X15349523Y-9622158D01*
X15351792Y-9623030D01*
X15364498Y-9627520D01*
X15376436Y-9631005D01*
X15388484Y-9633622D01*
X15401524Y-9635509D01*
X15416434Y-9636803D01*
X15434094Y-9637639D01*
X15448100Y-9638016D01*
X15461819Y-9638347D01*
X15474318Y-9638724D01*
X15484901Y-9639118D01*
X15492872Y-9639503D01*
X15497534Y-9639852D01*
X15498223Y-9639954D01*
X15502422Y-9641179D01*
X15505432Y-9643240D01*
X15507449Y-9646776D01*
X15508665Y-9652427D01*
X15509276Y-9660832D01*
X15509475Y-9672631D01*
X15509483Y-9677051D01*
X15593092Y-9677051D01*
X15593092Y-8975225D01*
X15586296Y-8961340D01*
X15578030Y-8948134D01*
X15566878Y-8935532D01*
X15554075Y-8924752D01*
X15541828Y-8917458D01*
X15529592Y-8911725D01*
X14930575Y-8911725D01*
X14917888Y-8917944D01*
D12*
G04 #@! TO.C,J4*
X16026250Y-8875000D02*
X16026250Y-8920000D01*
X16211250Y-8875000D02*
X16026250Y-8875000D01*
X16466250Y-9655000D02*
X16441250Y-9655000D01*
X16466250Y-8875000D02*
X16441250Y-8875000D01*
X16211250Y-9655000D02*
X16026250Y-9655000D01*
X16026250Y-9655000D02*
X16026250Y-9610000D01*
X15971250Y-9095000D02*
X15971250Y-9140000D01*
X15971250Y-9095000D02*
X16016250Y-9095000D01*
X15850178Y-9240000D02*
X15903750Y-9240000D01*
X15914464Y-9236429D01*
X15921607Y-9229286D01*
X15925178Y-9218571D01*
X15925178Y-9211429D01*
X15875178Y-9307857D02*
X15925178Y-9307857D01*
X15846607Y-9290000D02*
X15900178Y-9272143D01*
X15900178Y-9318571D01*
G04 #@! TD*
M02*
