G04 #@! TF.GenerationSoftware,KiCad,Pcbnew,(6.0.0)*
G04 #@! TF.CreationDate,2022-04-11T01:36:55-05:00*
G04 #@! TF.ProjectId,temp sensor,74656d70-2073-4656-9e73-6f722e6b6963,0.3*
G04 #@! TF.SameCoordinates,Original*
G04 #@! TF.FileFunction,Paste,Top*
G04 #@! TF.FilePolarity,Positive*
%FSLAX45Y45*%
G04 Gerber Fmt 4.5, Leading zero omitted, Abs format (unit mm)*
G04 Created by KiCad (PCBNEW (6.0.0)) date 2022-04-11 01:36:55*
%MOMM*%
%LPD*%
G01*
G04 APERTURE LIST*
G04 Aperture macros list*
%AMRoundRect*
0 Rectangle with rounded corners*
0 $1 Rounding radius*
0 $2 $3 $4 $5 $6 $7 $8 $9 X,Y pos of 4 corners*
0 Add a 4 corners polygon primitive as box body*
4,1,4,$2,$3,$4,$5,$6,$7,$8,$9,$2,$3,0*
0 Add four circle primitives for the rounded corners*
1,1,$1+$1,$2,$3*
1,1,$1+$1,$4,$5*
1,1,$1+$1,$6,$7*
1,1,$1+$1,$8,$9*
0 Add four rect primitives between the rounded corners*
20,1,$1+$1,$2,$3,$4,$5,0*
20,1,$1+$1,$4,$5,$6,$7,0*
20,1,$1+$1,$6,$7,$8,$9,0*
20,1,$1+$1,$8,$9,$2,$3,0*%
%AMFreePoly0*
4,1,16,0.475001,-0.400000,0.075000,-0.400000,0.075000,-0.388121,0.000000,-0.400000,-0.123607,-0.380423,-0.235114,-0.323607,-0.323607,-0.235114,-0.380423,-0.123607,-0.400000,0.000000,-0.380423,0.123607,-0.323607,0.235114,-0.308721,0.250000,-0.675000,0.250000,-0.675000,0.900000,0.475000,0.900000,0.475001,-0.400000,0.475001,-0.400000,$1*%
%AMFreePoly1*
4,1,16,0.675000,0.250000,0.308721,0.250000,0.323607,0.235114,0.380423,0.123607,0.400000,0.000000,0.380423,-0.123607,0.323607,-0.235114,0.235114,-0.323607,0.123607,-0.380423,0.000000,-0.400000,-0.075000,-0.388121,-0.075000,-0.400000,-0.475000,-0.400000,-0.475000,0.900000,0.675000,0.900000,0.675000,0.250000,0.675000,0.250000,$1*%
G04 Aperture macros list end*
%ADD10R,0.450000X0.600000*%
%ADD11RoundRect,0.140000X-0.170000X0.140000X-0.170000X-0.140000X0.170000X-0.140000X0.170000X0.140000X0*%
%ADD12RoundRect,0.150000X-0.512500X-0.150000X0.512500X-0.150000X0.512500X0.150000X-0.512500X0.150000X0*%
%ADD13R,0.350000X0.500000*%
%ADD14R,1.200000X3.700000*%
%ADD15RoundRect,0.135000X-0.135000X-0.185000X0.135000X-0.185000X0.135000X0.185000X-0.135000X0.185000X0*%
%ADD16RoundRect,0.135000X0.135000X0.185000X-0.135000X0.185000X-0.135000X-0.185000X0.135000X-0.185000X0*%
%ADD17RoundRect,0.135000X0.185000X-0.135000X0.185000X0.135000X-0.185000X0.135000X-0.185000X-0.135000X0*%
%ADD18RoundRect,0.087500X0.087500X-0.187500X0.087500X0.187500X-0.087500X0.187500X-0.087500X-0.187500X0*%
%ADD19RoundRect,0.087500X-0.087500X0.187500X-0.087500X-0.187500X0.087500X-0.187500X0.087500X0.187500X0*%
%ADD20RoundRect,0.125000X0.575000X-0.125000X0.575000X0.125000X-0.575000X0.125000X-0.575000X-0.125000X0*%
%ADD21RoundRect,0.250000X-0.250000X-0.475000X0.250000X-0.475000X0.250000X0.475000X-0.250000X0.475000X0*%
%ADD22RoundRect,0.140000X-0.140000X-0.170000X0.140000X-0.170000X0.140000X0.170000X-0.140000X0.170000X0*%
%ADD23R,1.450000X0.600000*%
%ADD24R,1.450000X0.300000*%
%ADD25RoundRect,0.140000X0.140000X0.170000X-0.140000X0.170000X-0.140000X-0.170000X0.140000X-0.170000X0*%
%ADD26RoundRect,0.275000X-0.451417X-0.229069X0.393926X-0.317918X0.451417X0.229069X-0.393926X0.317918X0*%
%ADD27RoundRect,0.175000X-0.213240X-0.354653X0.134843X-0.391238X0.213240X0.354653X-0.134843X0.391238X0*%
%ADD28FreePoly0,174.000000*%
%ADD29FreePoly1,174.000000*%
%ADD30RoundRect,0.135000X-0.185000X0.135000X-0.185000X-0.135000X0.185000X-0.135000X0.185000X0.135000X0*%
%ADD31RoundRect,0.140000X0.170000X-0.140000X0.170000X0.140000X-0.170000X0.140000X-0.170000X-0.140000X0*%
%ADD32R,0.400000X0.650000*%
%ADD33R,0.630000X0.660000*%
%ADD34R,0.800000X0.400000*%
%ADD35RoundRect,0.275000X-0.501168X0.071280X0.140335X-0.486370X0.501168X-0.071280X-0.140335X0.486370X0*%
%ADD36RoundRect,0.175000X-0.378096X-0.168206X-0.113948X-0.397826X0.378096X0.168206X0.113948X0.397826X0*%
%ADD37FreePoly0,139.000000*%
%ADD38FreePoly1,139.000000*%
%ADD39R,0.400000X0.800000*%
%ADD40R,1.450000X1.450000*%
%ADD41R,0.700000X0.700000*%
%ADD42RoundRect,0.250001X0.462499X0.624999X-0.462499X0.624999X-0.462499X-0.624999X0.462499X-0.624999X0*%
%ADD43RoundRect,0.250001X-0.624999X0.462499X-0.624999X-0.462499X0.624999X-0.462499X0.624999X0.462499X0*%
%ADD44R,0.590000X0.690000*%
%ADD45RoundRect,0.225000X-0.225000X-0.250000X0.225000X-0.250000X0.225000X0.250000X-0.225000X0.250000X0*%
%ADD46R,0.650000X0.400000*%
G04 APERTURE END LIST*
D10*
G04 #@! TO.C,D1*
X13082800Y-8862000D03*
X13082800Y-8652000D03*
G04 #@! TD*
D11*
G04 #@! TO.C,C11*
X14602800Y-10093000D03*
X14602800Y-10189000D03*
G04 #@! TD*
D12*
G04 #@! TO.C,U5*
X15177558Y-9319002D03*
X15177558Y-9414002D03*
X15177558Y-9509002D03*
X15405058Y-9509002D03*
X15405058Y-9414002D03*
X15405058Y-9319002D03*
G04 #@! TD*
D13*
G04 #@! TO.C,U3*
X12765700Y-9060500D03*
X12830700Y-9060500D03*
X12895700Y-9060500D03*
X12960700Y-9060500D03*
X12960700Y-9265500D03*
X12895700Y-9265500D03*
X12830700Y-9265500D03*
X12765700Y-9265500D03*
G04 #@! TD*
D11*
G04 #@! TO.C,C2*
X14405800Y-10198000D03*
X14405800Y-10294000D03*
G04 #@! TD*
D14*
G04 #@! TO.C,L2*
X15443300Y-10192100D03*
X15163300Y-10192100D03*
G04 #@! TD*
D15*
G04 #@! TO.C,R8*
X14696800Y-10111000D03*
X14798800Y-10111000D03*
G04 #@! TD*
G04 #@! TO.C,R1*
X15059776Y-9008222D03*
X15161776Y-9008222D03*
G04 #@! TD*
D16*
G04 #@! TO.C,R3*
X12075800Y-9497000D03*
X11973800Y-9497000D03*
G04 #@! TD*
D17*
G04 #@! TO.C,R15*
X11897800Y-8930000D03*
X11897800Y-8828000D03*
G04 #@! TD*
D16*
G04 #@! TO.C,R13*
X15000800Y-9518000D03*
X14898800Y-9518000D03*
G04 #@! TD*
D12*
G04 #@! TO.C,U2*
X15622050Y-10068000D03*
X15622050Y-10163000D03*
X15622050Y-10258000D03*
X15849550Y-10258000D03*
X15849550Y-10068000D03*
G04 #@! TD*
D18*
G04 #@! TO.C,U1*
X13090800Y-9266500D03*
D19*
X13190800Y-9061500D03*
D18*
X13190800Y-9266500D03*
D20*
X13140800Y-9164000D03*
D19*
X13090800Y-9061500D03*
G04 #@! TD*
D21*
G04 #@! TO.C,C8*
X15825720Y-9894824D03*
X16015720Y-9894824D03*
G04 #@! TD*
D16*
G04 #@! TO.C,R11*
X15300144Y-9667240D03*
X15198144Y-9667240D03*
G04 #@! TD*
D15*
G04 #@! TO.C,R14*
X11975800Y-9636000D03*
X12077800Y-9636000D03*
G04 #@! TD*
D16*
G04 #@! TO.C,R12*
X15000424Y-9379966D03*
X14898424Y-9379966D03*
G04 #@! TD*
G04 #@! TO.C,R17*
X12890800Y-8745000D03*
X12788800Y-8745000D03*
G04 #@! TD*
D15*
G04 #@! TO.C,R2*
X14865800Y-9098000D03*
X14967800Y-9098000D03*
G04 #@! TD*
D22*
G04 #@! TO.C,C4*
X12376800Y-9710000D03*
X12472800Y-9710000D03*
G04 #@! TD*
D23*
G04 #@! TO.C,J1*
X15705196Y-9589396D03*
X15705196Y-9509396D03*
D24*
X15705196Y-9389396D03*
X15705196Y-9289396D03*
X15705196Y-9239396D03*
X15705196Y-9139396D03*
D23*
X15705196Y-9019396D03*
X15705196Y-8939396D03*
X15705196Y-8939396D03*
X15705196Y-9019396D03*
D24*
X15705196Y-9089396D03*
X15705196Y-9189396D03*
X15705196Y-9339396D03*
X15705196Y-9439396D03*
D23*
X15705196Y-9509396D03*
X15705196Y-9589396D03*
G04 #@! TD*
D17*
G04 #@! TO.C,R5*
X12587800Y-9962000D03*
X12587800Y-9860000D03*
G04 #@! TD*
D16*
G04 #@! TO.C,R7*
X13174800Y-9410000D03*
X13072800Y-9410000D03*
G04 #@! TD*
D15*
G04 #@! TO.C,R19*
X15390800Y-9033000D03*
X15492800Y-9033000D03*
G04 #@! TD*
D25*
G04 #@! TO.C,C6*
X14997800Y-9848384D03*
X14901800Y-9848384D03*
G04 #@! TD*
D26*
G04 #@! TO.C,SW2*
X12868998Y-10205603D03*
D27*
X13006663Y-10235154D03*
X12728197Y-10205886D03*
D28*
X12671819Y-10335704D03*
D29*
X13034819Y-10373857D03*
G04 #@! TD*
D30*
G04 #@! TO.C,R4*
X13017800Y-9809000D03*
X13017800Y-9911000D03*
G04 #@! TD*
D31*
G04 #@! TO.C,C5*
X13225800Y-8803000D03*
X13225800Y-8707000D03*
G04 #@! TD*
D16*
G04 #@! TO.C,R9*
X14782800Y-10340000D03*
X14680800Y-10340000D03*
G04 #@! TD*
D32*
G04 #@! TO.C,Q1*
X12759800Y-9960000D03*
X12824800Y-9960000D03*
X12889800Y-9960000D03*
X12889800Y-9770000D03*
X12824800Y-9770000D03*
X12759800Y-9770000D03*
G04 #@! TD*
D33*
G04 #@! TO.C,D2*
X11789500Y-9061000D03*
D34*
X11848000Y-9142000D03*
X11848000Y-9210000D03*
X11848000Y-9316000D03*
X11848000Y-9384000D03*
D33*
X11789500Y-9465000D03*
G04 #@! TD*
D25*
G04 #@! TO.C,C1*
X12092800Y-8859000D03*
X11996800Y-8859000D03*
G04 #@! TD*
D16*
G04 #@! TO.C,R16*
X12828800Y-8839000D03*
X12726800Y-8839000D03*
G04 #@! TD*
D17*
G04 #@! TO.C,R6*
X14504800Y-10195000D03*
X14504800Y-10093000D03*
G04 #@! TD*
D35*
G04 #@! TO.C,SW1*
X12319666Y-9976982D03*
D36*
X12415485Y-10080151D03*
X12204166Y-9896454D03*
D37*
X12083523Y-9970458D03*
D38*
X12358992Y-10209919D03*
G04 #@! TD*
D15*
G04 #@! TO.C,R10*
X15196800Y-9157000D03*
X15298800Y-9157000D03*
G04 #@! TD*
D16*
G04 #@! TO.C,R20*
X15318686Y-9816084D03*
X15216686Y-9816084D03*
G04 #@! TD*
D34*
G04 #@! TO.C,IC1*
X13443000Y-8764000D03*
X13443000Y-8844000D03*
X13443000Y-8924000D03*
X13443000Y-9004000D03*
X13443000Y-9084000D03*
X13443000Y-9164000D03*
X13443000Y-9244000D03*
X13443000Y-9324000D03*
X13443000Y-9404000D03*
X13443000Y-9484000D03*
X13443000Y-9564000D03*
D39*
X13553000Y-9654000D03*
X13633000Y-9654000D03*
X13713000Y-9654000D03*
X13793000Y-9654000D03*
X13873000Y-9654000D03*
X13953000Y-9654000D03*
X14033000Y-9654000D03*
X14113000Y-9654000D03*
X14193000Y-9654000D03*
X14273000Y-9654000D03*
X14353000Y-9654000D03*
X14433000Y-9654000D03*
X14513000Y-9654000D03*
D34*
X14623000Y-9564000D03*
X14623000Y-9484000D03*
X14623000Y-9404000D03*
X14623000Y-9324000D03*
X14623000Y-9244000D03*
X14623000Y-9164000D03*
X14623000Y-9084000D03*
X14623000Y-9004000D03*
X14623000Y-8924000D03*
X14623000Y-8844000D03*
X14623000Y-8764000D03*
D39*
X14513000Y-8674000D03*
X14433000Y-8674000D03*
X14353000Y-8674000D03*
X14273000Y-8674000D03*
X14193000Y-8674000D03*
X14113000Y-8674000D03*
X14033000Y-8674000D03*
X13953000Y-8674000D03*
X13873000Y-8674000D03*
X13793000Y-8674000D03*
X13713000Y-8674000D03*
X13633000Y-8674000D03*
X13553000Y-8674000D03*
D40*
X14033000Y-9164000D03*
D41*
X14628000Y-8669000D03*
X14628000Y-9659000D03*
X13438000Y-9659000D03*
X13438000Y-8669000D03*
D40*
X13835500Y-8966500D03*
X13835500Y-9164000D03*
X13835500Y-9361500D03*
X14033000Y-9361500D03*
X14230500Y-9361500D03*
X14230500Y-9164000D03*
X14230500Y-8966500D03*
X14033000Y-8966500D03*
G04 #@! TD*
D16*
G04 #@! TO.C,R21*
X14404800Y-9895000D03*
X14302800Y-9895000D03*
G04 #@! TD*
D42*
G04 #@! TO.C,C3*
X12566550Y-8700000D03*
X12269050Y-8700000D03*
G04 #@! TD*
D43*
G04 #@! TO.C,C9*
X14959800Y-10021250D03*
X14959800Y-10318750D03*
G04 #@! TD*
D25*
G04 #@! TO.C,C10*
X12295800Y-8984000D03*
X12199800Y-8984000D03*
G04 #@! TD*
D44*
G04 #@! TO.C,U6*
X12415800Y-9227000D03*
X12495800Y-9227000D03*
X12575800Y-9227000D03*
X12655800Y-9227000D03*
X12655800Y-9099000D03*
X12575800Y-9099000D03*
X12495800Y-9099000D03*
X12415800Y-9099000D03*
G04 #@! TD*
D45*
G04 #@! TO.C,C7*
X12490300Y-8964000D03*
X12645300Y-8964000D03*
G04 #@! TD*
D46*
G04 #@! TO.C,U4*
X12094800Y-9108000D03*
X12094800Y-9173000D03*
X12094800Y-9238000D03*
X12284800Y-9238000D03*
X12284800Y-9108000D03*
G04 #@! TD*
M02*
