G04 #@! TF.GenerationSoftware,KiCad,Pcbnew,(6.0.0)*
G04 #@! TF.CreationDate,2022-02-21T15:34:57-06:00*
G04 #@! TF.ProjectId,temp sensor,74656d70-2073-4656-9e73-6f722e6b6963,0.3*
G04 #@! TF.SameCoordinates,Original*
G04 #@! TF.FileFunction,Legend,Top*
G04 #@! TF.FilePolarity,Positive*
%FSLAX45Y45*%
G04 Gerber Fmt 4.5, Leading zero omitted, Abs format (unit mm)*
G04 Created by KiCad (PCBNEW (6.0.0)) date 2022-02-21 15:34:57*
%MOMM*%
%LPD*%
G01*
G04 APERTURE LIST*
%ADD10C,0.100000*%
%ADD11C,0.187500*%
%ADD12C,0.300000*%
%ADD13C,0.120000*%
%ADD14C,0.150000*%
%ADD15C,0.200000*%
G04 APERTURE END LIST*
D10*
X12749236Y-8982000D02*
G75*
G03*
X12749236Y-8982000I-2236J0D01*
G01*
X12633236Y-8932000D02*
G75*
G03*
X12633236Y-8932000I-2236J0D01*
G01*
X13038000Y-9290000D02*
G75*
G03*
X13038000Y-9290000I-2236J0D01*
G01*
X13403236Y-10196000D02*
G75*
G03*
X13403236Y-10196000I-2236J0D01*
G01*
X15599236Y-9982000D02*
G75*
G03*
X15599236Y-9982000I-2236J0D01*
G01*
X13144800Y-8064000D02*
X13072000Y-8064000D01*
X15007000Y-8064000D02*
X14924800Y-8064000D01*
D11*
X15987857Y-8580714D02*
X16017857Y-8670714D01*
X16047857Y-8580714D01*
X16095000Y-8580714D02*
X16103571Y-8580714D01*
X16112143Y-8585000D01*
X16116428Y-8589286D01*
X16120714Y-8597857D01*
X16125000Y-8615000D01*
X16125000Y-8636429D01*
X16120714Y-8653571D01*
X16116428Y-8662143D01*
X16112143Y-8666429D01*
X16103571Y-8670714D01*
X16095000Y-8670714D01*
X16086428Y-8666429D01*
X16082143Y-8662143D01*
X16077857Y-8653571D01*
X16073571Y-8636429D01*
X16073571Y-8615000D01*
X16077857Y-8597857D01*
X16082143Y-8589286D01*
X16086428Y-8585000D01*
X16095000Y-8580714D01*
X16163571Y-8662143D02*
X16167857Y-8666429D01*
X16163571Y-8670714D01*
X16159286Y-8666429D01*
X16163571Y-8662143D01*
X16163571Y-8670714D01*
X16197857Y-8580714D02*
X16253571Y-8580714D01*
X16223571Y-8615000D01*
X16236428Y-8615000D01*
X16245000Y-8619286D01*
X16249286Y-8623571D01*
X16253571Y-8632143D01*
X16253571Y-8653571D01*
X16249286Y-8662143D01*
X16245000Y-8666429D01*
X16236428Y-8670714D01*
X16210714Y-8670714D01*
X16202143Y-8666429D01*
X16197857Y-8662143D01*
D12*
X15018314Y-8167057D02*
X15104028Y-8167057D01*
X15061171Y-8317057D02*
X15061171Y-8167057D01*
X15139743Y-8167057D02*
X15175457Y-8317057D01*
X15204028Y-8209914D01*
X15232600Y-8317057D01*
X15268314Y-8167057D01*
X15325457Y-8317057D02*
X15325457Y-8167057D01*
X15475457Y-8174200D02*
X15461171Y-8167057D01*
X15439743Y-8167057D01*
X15418314Y-8174200D01*
X15404028Y-8188486D01*
X15396886Y-8202771D01*
X15389743Y-8231343D01*
X15389743Y-8252771D01*
X15396886Y-8281343D01*
X15404028Y-8295628D01*
X15418314Y-8309914D01*
X15439743Y-8317057D01*
X15454028Y-8317057D01*
X15475457Y-8309914D01*
X15482600Y-8302771D01*
X15482600Y-8252771D01*
X15454028Y-8252771D01*
D13*
G04 #@! TO.C,U5*
X15486715Y-9453491D02*
X15486715Y-9514205D01*
X15490286Y-9521348D01*
X15493858Y-9524919D01*
X15501001Y-9528491D01*
X15515286Y-9528491D01*
X15522429Y-9524919D01*
X15526001Y-9521348D01*
X15529572Y-9514205D01*
X15529572Y-9453491D01*
X15601001Y-9453491D02*
X15565286Y-9453491D01*
X15561715Y-9489205D01*
X15565286Y-9485633D01*
X15572429Y-9482062D01*
X15590286Y-9482062D01*
X15597429Y-9485633D01*
X15601001Y-9489205D01*
X15604572Y-9496348D01*
X15604572Y-9514205D01*
X15601001Y-9521348D01*
X15597429Y-9524919D01*
X15590286Y-9528491D01*
X15572429Y-9528491D01*
X15565286Y-9524919D01*
X15561715Y-9521348D01*
G04 #@! TO.C,U3*
X12783573Y-8907857D02*
X12783573Y-8968571D01*
X12787144Y-8975714D01*
X12790716Y-8979285D01*
X12797859Y-8982857D01*
X12812144Y-8982857D01*
X12819287Y-8979285D01*
X12822859Y-8975714D01*
X12826430Y-8968571D01*
X12826430Y-8907857D01*
X12855002Y-8907857D02*
X12901430Y-8907857D01*
X12876430Y-8936428D01*
X12887144Y-8936428D01*
X12894287Y-8939999D01*
X12897859Y-8943571D01*
X12901430Y-8950714D01*
X12901430Y-8968571D01*
X12897859Y-8975714D01*
X12894287Y-8979285D01*
X12887144Y-8982857D01*
X12865716Y-8982857D01*
X12858573Y-8979285D01*
X12855002Y-8975714D01*
G04 #@! TO.C,C2*
X14206586Y-10247500D02*
X14210157Y-10251071D01*
X14213728Y-10261786D01*
X14213728Y-10268929D01*
X14210157Y-10279643D01*
X14203014Y-10286786D01*
X14195871Y-10290357D01*
X14181586Y-10293929D01*
X14170871Y-10293929D01*
X14156586Y-10290357D01*
X14149443Y-10286786D01*
X14142300Y-10279643D01*
X14138728Y-10268929D01*
X14138728Y-10261786D01*
X14142300Y-10251071D01*
X14145871Y-10247500D01*
X14145871Y-10218929D02*
X14142300Y-10215357D01*
X14138728Y-10208214D01*
X14138728Y-10190357D01*
X14142300Y-10183214D01*
X14145871Y-10179643D01*
X14153014Y-10176071D01*
X14160157Y-10176071D01*
X14170871Y-10179643D01*
X14213728Y-10222500D01*
X14213728Y-10176071D01*
G04 #@! TO.C,L2*
X15341746Y-10198916D02*
X15341746Y-10234630D01*
X15266746Y-10234630D01*
X15273889Y-10177487D02*
X15270318Y-10173916D01*
X15266746Y-10166773D01*
X15266746Y-10148916D01*
X15270318Y-10141773D01*
X15273889Y-10138202D01*
X15281032Y-10134630D01*
X15288175Y-10134630D01*
X15298889Y-10138202D01*
X15341746Y-10181059D01*
X15341746Y-10134630D01*
G04 #@! TO.C,R8*
X14292300Y-10178929D02*
X14267300Y-10143214D01*
X14249443Y-10178929D02*
X14249443Y-10103929D01*
X14278014Y-10103929D01*
X14285157Y-10107500D01*
X14288728Y-10111071D01*
X14292300Y-10118214D01*
X14292300Y-10128929D01*
X14288728Y-10136071D01*
X14285157Y-10139643D01*
X14278014Y-10143214D01*
X14249443Y-10143214D01*
X14335157Y-10136071D02*
X14328014Y-10132500D01*
X14324443Y-10128929D01*
X14320871Y-10121786D01*
X14320871Y-10118214D01*
X14324443Y-10111071D01*
X14328014Y-10107500D01*
X14335157Y-10103929D01*
X14349443Y-10103929D01*
X14356586Y-10107500D01*
X14360157Y-10111071D01*
X14363728Y-10118214D01*
X14363728Y-10121786D01*
X14360157Y-10128929D01*
X14356586Y-10132500D01*
X14349443Y-10136071D01*
X14335157Y-10136071D01*
X14328014Y-10139643D01*
X14324443Y-10143214D01*
X14320871Y-10150357D01*
X14320871Y-10164643D01*
X14324443Y-10171786D01*
X14328014Y-10175357D01*
X14335157Y-10178929D01*
X14349443Y-10178929D01*
X14356586Y-10175357D01*
X14360157Y-10171786D01*
X14363728Y-10164643D01*
X14363728Y-10150357D01*
X14360157Y-10143214D01*
X14356586Y-10139643D01*
X14349443Y-10136071D01*
G04 #@! TO.C,R1*
X15026078Y-9168785D02*
X15001078Y-9133070D01*
X14983221Y-9168785D02*
X14983221Y-9093785D01*
X15011792Y-9093785D01*
X15018935Y-9097356D01*
X15022506Y-9100927D01*
X15026078Y-9108070D01*
X15026078Y-9118785D01*
X15022506Y-9125927D01*
X15018935Y-9129499D01*
X15011792Y-9133070D01*
X14983221Y-9133070D01*
X15097506Y-9168785D02*
X15054649Y-9168785D01*
X15076078Y-9168785D02*
X15076078Y-9093785D01*
X15068935Y-9104499D01*
X15061792Y-9111642D01*
X15054649Y-9115213D01*
G04 #@! TO.C,R3*
X12183728Y-9322500D02*
X12148014Y-9347500D01*
X12183728Y-9365357D02*
X12108728Y-9365357D01*
X12108728Y-9336786D01*
X12112300Y-9329643D01*
X12115871Y-9326071D01*
X12123014Y-9322500D01*
X12133728Y-9322500D01*
X12140871Y-9326071D01*
X12144443Y-9329643D01*
X12148014Y-9336786D01*
X12148014Y-9365357D01*
X12108728Y-9297500D02*
X12108728Y-9251071D01*
X12137300Y-9276071D01*
X12137300Y-9265357D01*
X12140871Y-9258214D01*
X12144443Y-9254643D01*
X12151586Y-9251071D01*
X12169443Y-9251071D01*
X12176586Y-9254643D01*
X12180157Y-9258214D01*
X12183728Y-9265357D01*
X12183728Y-9286786D01*
X12180157Y-9293929D01*
X12176586Y-9297500D01*
G04 #@! TO.C,R15*
X11943728Y-8908214D02*
X11908014Y-8933214D01*
X11943728Y-8951071D02*
X11868728Y-8951071D01*
X11868728Y-8922500D01*
X11872300Y-8915357D01*
X11875871Y-8911786D01*
X11883014Y-8908214D01*
X11893728Y-8908214D01*
X11900871Y-8911786D01*
X11904443Y-8915357D01*
X11908014Y-8922500D01*
X11908014Y-8951071D01*
X11943728Y-8836786D02*
X11943728Y-8879643D01*
X11943728Y-8858214D02*
X11868728Y-8858214D01*
X11879443Y-8865357D01*
X11886586Y-8872500D01*
X11890157Y-8879643D01*
X11868728Y-8768929D02*
X11868728Y-8804643D01*
X11904443Y-8808214D01*
X11900871Y-8804643D01*
X11897300Y-8797500D01*
X11897300Y-8779643D01*
X11900871Y-8772500D01*
X11904443Y-8768929D01*
X11911586Y-8765357D01*
X11929443Y-8765357D01*
X11936586Y-8768929D01*
X11940157Y-8772500D01*
X11943728Y-8779643D01*
X11943728Y-8797500D01*
X11940157Y-8804643D01*
X11936586Y-8808214D01*
G04 #@! TO.C,R13*
X14889600Y-9706037D02*
X14864600Y-9670322D01*
X14846742Y-9706037D02*
X14846742Y-9631037D01*
X14875314Y-9631037D01*
X14882457Y-9634608D01*
X14886028Y-9638179D01*
X14889600Y-9645322D01*
X14889600Y-9656037D01*
X14886028Y-9663179D01*
X14882457Y-9666751D01*
X14875314Y-9670322D01*
X14846742Y-9670322D01*
X14961028Y-9706037D02*
X14918171Y-9706037D01*
X14939600Y-9706037D02*
X14939600Y-9631037D01*
X14932457Y-9641751D01*
X14925314Y-9648894D01*
X14918171Y-9652465D01*
X14986028Y-9631037D02*
X15032457Y-9631037D01*
X15007457Y-9659608D01*
X15018171Y-9659608D01*
X15025314Y-9663179D01*
X15028885Y-9666751D01*
X15032457Y-9673894D01*
X15032457Y-9691751D01*
X15028885Y-9698894D01*
X15025314Y-9702465D01*
X15018171Y-9706037D01*
X14996742Y-9706037D01*
X14989600Y-9702465D01*
X14986028Y-9698894D01*
G04 #@! TO.C,D1*
X13123818Y-8448787D02*
X13048818Y-8448787D01*
X13048818Y-8430930D01*
X13052390Y-8420216D01*
X13059533Y-8413073D01*
X13066676Y-8409501D01*
X13080961Y-8405930D01*
X13091676Y-8405930D01*
X13105961Y-8409501D01*
X13113104Y-8413073D01*
X13120247Y-8420216D01*
X13123818Y-8430930D01*
X13123818Y-8448787D01*
X13123818Y-8334501D02*
X13123818Y-8377358D01*
X13123818Y-8355930D02*
X13048818Y-8355930D01*
X13059533Y-8363073D01*
X13066676Y-8370216D01*
X13070247Y-8377358D01*
G04 #@! TO.C,U2*
X15951969Y-10140773D02*
X15951969Y-10201487D01*
X15955540Y-10208630D01*
X15959112Y-10212201D01*
X15966255Y-10215773D01*
X15980540Y-10215773D01*
X15987683Y-10212201D01*
X15991255Y-10208630D01*
X15994826Y-10201487D01*
X15994826Y-10140773D01*
X16026969Y-10147915D02*
X16030540Y-10144344D01*
X16037683Y-10140773D01*
X16055540Y-10140773D01*
X16062683Y-10144344D01*
X16066255Y-10147915D01*
X16069826Y-10155058D01*
X16069826Y-10162201D01*
X16066255Y-10172915D01*
X16023398Y-10215773D01*
X16069826Y-10215773D01*
G04 #@! TO.C,U1*
X12958579Y-8917763D02*
X12958579Y-8978477D01*
X12962150Y-8985620D01*
X12965722Y-8989191D01*
X12972865Y-8992763D01*
X12987150Y-8992763D01*
X12994293Y-8989191D01*
X12997865Y-8985620D01*
X13001436Y-8978477D01*
X13001436Y-8917763D01*
X13076436Y-8992763D02*
X13033579Y-8992763D01*
X13055008Y-8992763D02*
X13055008Y-8917763D01*
X13047865Y-8928477D01*
X13040722Y-8935620D01*
X13033579Y-8939191D01*
G04 #@! TO.C,C8*
X16157140Y-9922626D02*
X16153568Y-9926197D01*
X16142854Y-9929769D01*
X16135711Y-9929769D01*
X16124997Y-9926197D01*
X16117854Y-9919054D01*
X16114283Y-9911911D01*
X16110711Y-9897626D01*
X16110711Y-9886911D01*
X16114283Y-9872626D01*
X16117854Y-9865483D01*
X16124997Y-9858340D01*
X16135711Y-9854769D01*
X16142854Y-9854769D01*
X16153568Y-9858340D01*
X16157140Y-9861911D01*
X16199997Y-9886911D02*
X16192854Y-9883340D01*
X16189283Y-9879769D01*
X16185711Y-9872626D01*
X16185711Y-9869054D01*
X16189283Y-9861911D01*
X16192854Y-9858340D01*
X16199997Y-9854769D01*
X16214283Y-9854769D01*
X16221426Y-9858340D01*
X16224997Y-9861911D01*
X16228568Y-9869054D01*
X16228568Y-9872626D01*
X16224997Y-9879769D01*
X16221426Y-9883340D01*
X16214283Y-9886911D01*
X16199997Y-9886911D01*
X16192854Y-9890483D01*
X16189283Y-9894054D01*
X16185711Y-9901197D01*
X16185711Y-9915483D01*
X16189283Y-9922626D01*
X16192854Y-9926197D01*
X16199997Y-9929769D01*
X16214283Y-9929769D01*
X16221426Y-9926197D01*
X16224997Y-9922626D01*
X16228568Y-9915483D01*
X16228568Y-9901197D01*
X16224997Y-9894054D01*
X16221426Y-9890483D01*
X16214283Y-9886911D01*
G04 #@! TO.C,R11*
X15464656Y-9710863D02*
X15439656Y-9675148D01*
X15421798Y-9710863D02*
X15421798Y-9635863D01*
X15450370Y-9635863D01*
X15457513Y-9639434D01*
X15461084Y-9643005D01*
X15464656Y-9650148D01*
X15464656Y-9660863D01*
X15461084Y-9668005D01*
X15457513Y-9671577D01*
X15450370Y-9675148D01*
X15421798Y-9675148D01*
X15536084Y-9710863D02*
X15493227Y-9710863D01*
X15514656Y-9710863D02*
X15514656Y-9635863D01*
X15507513Y-9646577D01*
X15500370Y-9653720D01*
X15493227Y-9657291D01*
X15607513Y-9710863D02*
X15564656Y-9710863D01*
X15586084Y-9710863D02*
X15586084Y-9635863D01*
X15578941Y-9646577D01*
X15571798Y-9653720D01*
X15564656Y-9657291D01*
G04 #@! TO.C,R14*
X12171586Y-9503929D02*
X12146586Y-9468214D01*
X12128728Y-9503929D02*
X12128728Y-9428929D01*
X12157300Y-9428929D01*
X12164443Y-9432500D01*
X12168014Y-9436071D01*
X12171586Y-9443214D01*
X12171586Y-9453929D01*
X12168014Y-9461071D01*
X12164443Y-9464643D01*
X12157300Y-9468214D01*
X12128728Y-9468214D01*
X12243014Y-9503929D02*
X12200157Y-9503929D01*
X12221586Y-9503929D02*
X12221586Y-9428929D01*
X12214443Y-9439643D01*
X12207300Y-9446786D01*
X12200157Y-9450357D01*
X12307300Y-9453929D02*
X12307300Y-9503929D01*
X12289443Y-9425357D02*
X12271586Y-9478929D01*
X12318014Y-9478929D01*
G04 #@! TO.C,R12*
X14773194Y-9308993D02*
X14748194Y-9273278D01*
X14730336Y-9308993D02*
X14730336Y-9233993D01*
X14758908Y-9233993D01*
X14766051Y-9237564D01*
X14769622Y-9241135D01*
X14773194Y-9248278D01*
X14773194Y-9258993D01*
X14769622Y-9266135D01*
X14766051Y-9269707D01*
X14758908Y-9273278D01*
X14730336Y-9273278D01*
X14844622Y-9308993D02*
X14801765Y-9308993D01*
X14823194Y-9308993D02*
X14823194Y-9233993D01*
X14816051Y-9244707D01*
X14808908Y-9251850D01*
X14801765Y-9255421D01*
X14873194Y-9241135D02*
X14876765Y-9237564D01*
X14883908Y-9233993D01*
X14901765Y-9233993D01*
X14908908Y-9237564D01*
X14912479Y-9241135D01*
X14916051Y-9248278D01*
X14916051Y-9255421D01*
X14912479Y-9266135D01*
X14869622Y-9308993D01*
X14916051Y-9308993D01*
G04 #@! TO.C,JP1*
X12727300Y-9415929D02*
X12727300Y-9469500D01*
X12723728Y-9480214D01*
X12716586Y-9487357D01*
X12705871Y-9490929D01*
X12698728Y-9490929D01*
X12763014Y-9490929D02*
X12763014Y-9415929D01*
X12791586Y-9415929D01*
X12798728Y-9419500D01*
X12802300Y-9423071D01*
X12805871Y-9430214D01*
X12805871Y-9440929D01*
X12802300Y-9448071D01*
X12798728Y-9451643D01*
X12791586Y-9455214D01*
X12763014Y-9455214D01*
X12877300Y-9490929D02*
X12834443Y-9490929D01*
X12855871Y-9490929D02*
X12855871Y-9415929D01*
X12848728Y-9426643D01*
X12841586Y-9433786D01*
X12834443Y-9437357D01*
G04 #@! TO.C,R17*
X12880386Y-8569853D02*
X12855386Y-8534138D01*
X12837528Y-8569853D02*
X12837528Y-8494853D01*
X12866100Y-8494853D01*
X12873243Y-8498424D01*
X12876814Y-8501995D01*
X12880386Y-8509138D01*
X12880386Y-8519853D01*
X12876814Y-8526995D01*
X12873243Y-8530567D01*
X12866100Y-8534138D01*
X12837528Y-8534138D01*
X12951814Y-8569853D02*
X12908957Y-8569853D01*
X12930386Y-8569853D02*
X12930386Y-8494853D01*
X12923243Y-8505567D01*
X12916100Y-8512710D01*
X12908957Y-8516281D01*
X12976814Y-8494853D02*
X13026814Y-8494853D01*
X12994671Y-8569853D01*
G04 #@! TO.C,R2*
X14800038Y-9085168D02*
X14764324Y-9110168D01*
X14800038Y-9128025D02*
X14725038Y-9128025D01*
X14725038Y-9099454D01*
X14728610Y-9092311D01*
X14732181Y-9088739D01*
X14739324Y-9085168D01*
X14750038Y-9085168D01*
X14757181Y-9088739D01*
X14760753Y-9092311D01*
X14764324Y-9099454D01*
X14764324Y-9128025D01*
X14732181Y-9056597D02*
X14728610Y-9053025D01*
X14725038Y-9045882D01*
X14725038Y-9028025D01*
X14728610Y-9020882D01*
X14732181Y-9017311D01*
X14739324Y-9013739D01*
X14746467Y-9013739D01*
X14757181Y-9017311D01*
X14800038Y-9060168D01*
X14800038Y-9013739D01*
G04 #@! TO.C,C4*
X13339942Y-9660264D02*
X13343513Y-9663835D01*
X13347084Y-9674550D01*
X13347084Y-9681693D01*
X13343513Y-9692407D01*
X13336370Y-9699550D01*
X13329227Y-9703121D01*
X13314942Y-9706693D01*
X13304227Y-9706693D01*
X13289942Y-9703121D01*
X13282799Y-9699550D01*
X13275656Y-9692407D01*
X13272084Y-9681693D01*
X13272084Y-9674550D01*
X13275656Y-9663835D01*
X13279227Y-9660264D01*
X13297084Y-9595978D02*
X13347084Y-9595978D01*
X13268513Y-9613835D02*
X13322084Y-9631693D01*
X13322084Y-9585264D01*
G04 #@! TO.C,J1*
X15501950Y-9321654D02*
X15555522Y-9321654D01*
X15566236Y-9325225D01*
X15573379Y-9332368D01*
X15576950Y-9343083D01*
X15576950Y-9350225D01*
X15576950Y-9246654D02*
X15576950Y-9289511D01*
X15576950Y-9268083D02*
X15501950Y-9268083D01*
X15512665Y-9275225D01*
X15519808Y-9282368D01*
X15523379Y-9289511D01*
G04 #@! TO.C,R5*
X12516678Y-9852480D02*
X12480964Y-9877480D01*
X12516678Y-9895337D02*
X12441678Y-9895337D01*
X12441678Y-9866766D01*
X12445250Y-9859623D01*
X12448821Y-9856051D01*
X12455964Y-9852480D01*
X12466678Y-9852480D01*
X12473821Y-9856051D01*
X12477393Y-9859623D01*
X12480964Y-9866766D01*
X12480964Y-9895337D01*
X12441678Y-9784623D02*
X12441678Y-9820337D01*
X12477393Y-9823909D01*
X12473821Y-9820337D01*
X12470250Y-9813194D01*
X12470250Y-9795337D01*
X12473821Y-9788194D01*
X12477393Y-9784623D01*
X12484536Y-9781051D01*
X12502393Y-9781051D01*
X12509536Y-9784623D01*
X12513107Y-9788194D01*
X12516678Y-9795337D01*
X12516678Y-9813194D01*
X12513107Y-9820337D01*
X12509536Y-9823909D01*
G04 #@! TO.C,R7*
X13193900Y-9845729D02*
X13168900Y-9810014D01*
X13151043Y-9845729D02*
X13151043Y-9770729D01*
X13179614Y-9770729D01*
X13186757Y-9774300D01*
X13190328Y-9777871D01*
X13193900Y-9785014D01*
X13193900Y-9795729D01*
X13190328Y-9802871D01*
X13186757Y-9806443D01*
X13179614Y-9810014D01*
X13151043Y-9810014D01*
X13218900Y-9770729D02*
X13268900Y-9770729D01*
X13236757Y-9845729D01*
G04 #@! TO.C,R19*
X15391586Y-8893929D02*
X15366586Y-8858214D01*
X15348728Y-8893929D02*
X15348728Y-8818929D01*
X15377300Y-8818929D01*
X15384443Y-8822500D01*
X15388014Y-8826071D01*
X15391586Y-8833214D01*
X15391586Y-8843929D01*
X15388014Y-8851071D01*
X15384443Y-8854643D01*
X15377300Y-8858214D01*
X15348728Y-8858214D01*
X15463014Y-8893929D02*
X15420157Y-8893929D01*
X15441586Y-8893929D02*
X15441586Y-8818929D01*
X15434443Y-8829643D01*
X15427300Y-8836786D01*
X15420157Y-8840357D01*
X15498728Y-8893929D02*
X15513014Y-8893929D01*
X15520157Y-8890357D01*
X15523728Y-8886786D01*
X15530871Y-8876071D01*
X15534443Y-8861786D01*
X15534443Y-8833214D01*
X15530871Y-8826071D01*
X15527300Y-8822500D01*
X15520157Y-8818929D01*
X15505871Y-8818929D01*
X15498728Y-8822500D01*
X15495157Y-8826071D01*
X15491586Y-8833214D01*
X15491586Y-8851071D01*
X15495157Y-8858214D01*
X15498728Y-8861786D01*
X15505871Y-8865357D01*
X15520157Y-8865357D01*
X15527300Y-8861786D01*
X15530871Y-8858214D01*
X15534443Y-8851071D01*
G04 #@! TO.C,C6*
X14717300Y-9901786D02*
X14713728Y-9905357D01*
X14703014Y-9908929D01*
X14695871Y-9908929D01*
X14685157Y-9905357D01*
X14678014Y-9898214D01*
X14674443Y-9891071D01*
X14670871Y-9876786D01*
X14670871Y-9866071D01*
X14674443Y-9851786D01*
X14678014Y-9844643D01*
X14685157Y-9837500D01*
X14695871Y-9833929D01*
X14703014Y-9833929D01*
X14713728Y-9837500D01*
X14717300Y-9841071D01*
X14781586Y-9833929D02*
X14767300Y-9833929D01*
X14760157Y-9837500D01*
X14756586Y-9841071D01*
X14749443Y-9851786D01*
X14745871Y-9866071D01*
X14745871Y-9894643D01*
X14749443Y-9901786D01*
X14753014Y-9905357D01*
X14760157Y-9908929D01*
X14774443Y-9908929D01*
X14781586Y-9905357D01*
X14785157Y-9901786D01*
X14788728Y-9894643D01*
X14788728Y-9876786D01*
X14785157Y-9869643D01*
X14781586Y-9866071D01*
X14774443Y-9862500D01*
X14760157Y-9862500D01*
X14753014Y-9866071D01*
X14749443Y-9869643D01*
X14745871Y-9876786D01*
G04 #@! TO.C,SW2*
X12549738Y-10371625D02*
X12554410Y-10361343D01*
X12556276Y-10343584D01*
X12553471Y-10336107D01*
X12550293Y-10332182D01*
X12543562Y-10327883D01*
X12536458Y-10327136D01*
X12528981Y-10329942D01*
X12525056Y-10333120D01*
X12520758Y-10339851D01*
X12515713Y-10353685D01*
X12511414Y-10360415D01*
X12507489Y-10363594D01*
X12500012Y-10366399D01*
X12492908Y-10365652D01*
X12486178Y-10361354D01*
X12482999Y-10357429D01*
X12480194Y-10349952D01*
X12482060Y-10332192D01*
X12486732Y-10321910D01*
X12485794Y-10296674D02*
X12562249Y-10286754D01*
X12510465Y-10266947D01*
X12565236Y-10258339D01*
X12492513Y-10232740D01*
X12502230Y-10208624D02*
X12499052Y-10204698D01*
X12496246Y-10197221D01*
X12498113Y-10179462D01*
X12502412Y-10172732D01*
X12506337Y-10169553D01*
X12513814Y-10166748D01*
X12520917Y-10167495D01*
X12531200Y-10172166D01*
X12569342Y-10219269D01*
X12574195Y-10173094D01*
G04 #@! TO.C,R4*
X13196282Y-9872334D02*
X13160568Y-9897334D01*
X13196282Y-9915191D02*
X13121282Y-9915191D01*
X13121282Y-9886620D01*
X13124854Y-9879477D01*
X13128425Y-9875905D01*
X13135568Y-9872334D01*
X13146282Y-9872334D01*
X13153425Y-9875905D01*
X13156997Y-9879477D01*
X13160568Y-9886620D01*
X13160568Y-9915191D01*
X13146282Y-9808048D02*
X13196282Y-9808048D01*
X13117711Y-9825905D02*
X13171282Y-9843763D01*
X13171282Y-9797334D01*
G04 #@! TO.C,C5*
X12411786Y-8742500D02*
X12415357Y-8746071D01*
X12418928Y-8756786D01*
X12418928Y-8763929D01*
X12415357Y-8774643D01*
X12408214Y-8781786D01*
X12401071Y-8785357D01*
X12386786Y-8788929D01*
X12376071Y-8788929D01*
X12361786Y-8785357D01*
X12354643Y-8781786D01*
X12347500Y-8774643D01*
X12343928Y-8763929D01*
X12343928Y-8756786D01*
X12347500Y-8746071D01*
X12351071Y-8742500D01*
X12343928Y-8674643D02*
X12343928Y-8710357D01*
X12379643Y-8713929D01*
X12376071Y-8710357D01*
X12372500Y-8703214D01*
X12372500Y-8685357D01*
X12376071Y-8678214D01*
X12379643Y-8674643D01*
X12386786Y-8671071D01*
X12404643Y-8671071D01*
X12411786Y-8674643D01*
X12415357Y-8678214D01*
X12418928Y-8685357D01*
X12418928Y-8703214D01*
X12415357Y-8710357D01*
X12411786Y-8713929D01*
G04 #@! TO.C,R9*
X14297300Y-10323929D02*
X14272300Y-10288214D01*
X14254443Y-10323929D02*
X14254443Y-10248929D01*
X14283014Y-10248929D01*
X14290157Y-10252500D01*
X14293728Y-10256071D01*
X14297300Y-10263214D01*
X14297300Y-10273929D01*
X14293728Y-10281071D01*
X14290157Y-10284643D01*
X14283014Y-10288214D01*
X14254443Y-10288214D01*
X14333014Y-10323929D02*
X14347300Y-10323929D01*
X14354443Y-10320357D01*
X14358014Y-10316786D01*
X14365157Y-10306071D01*
X14368728Y-10291786D01*
X14368728Y-10263214D01*
X14365157Y-10256071D01*
X14361586Y-10252500D01*
X14354443Y-10248929D01*
X14340157Y-10248929D01*
X14333014Y-10252500D01*
X14329443Y-10256071D01*
X14325871Y-10263214D01*
X14325871Y-10281071D01*
X14329443Y-10288214D01*
X14333014Y-10291786D01*
X14340157Y-10295357D01*
X14354443Y-10295357D01*
X14361586Y-10291786D01*
X14365157Y-10288214D01*
X14368728Y-10281071D01*
G04 #@! TO.C,Q1*
X12812157Y-9904927D02*
X12805014Y-9901356D01*
X12797871Y-9894213D01*
X12787157Y-9883499D01*
X12780014Y-9879927D01*
X12772871Y-9879927D01*
X12776443Y-9897785D02*
X12769300Y-9894213D01*
X12762157Y-9887070D01*
X12758586Y-9872785D01*
X12758586Y-9847785D01*
X12762157Y-9833499D01*
X12769300Y-9826356D01*
X12776443Y-9822785D01*
X12790728Y-9822785D01*
X12797871Y-9826356D01*
X12805014Y-9833499D01*
X12808586Y-9847785D01*
X12808586Y-9872785D01*
X12805014Y-9887070D01*
X12797871Y-9894213D01*
X12790728Y-9897785D01*
X12776443Y-9897785D01*
X12880014Y-9897785D02*
X12837157Y-9897785D01*
X12858586Y-9897785D02*
X12858586Y-9822785D01*
X12851443Y-9833499D01*
X12844300Y-9840642D01*
X12837157Y-9844213D01*
G04 #@! TO.C,D2*
X11895028Y-9686657D02*
X11820028Y-9686657D01*
X11820028Y-9668800D01*
X11823600Y-9658086D01*
X11830743Y-9650943D01*
X11837886Y-9647371D01*
X11852171Y-9643800D01*
X11862886Y-9643800D01*
X11877171Y-9647371D01*
X11884314Y-9650943D01*
X11891457Y-9658086D01*
X11895028Y-9668800D01*
X11895028Y-9686657D01*
X11827171Y-9615229D02*
X11823600Y-9611657D01*
X11820028Y-9604514D01*
X11820028Y-9586657D01*
X11823600Y-9579514D01*
X11827171Y-9575943D01*
X11834314Y-9572371D01*
X11841457Y-9572371D01*
X11852171Y-9575943D01*
X11895028Y-9618800D01*
X11895028Y-9572371D01*
G04 #@! TO.C,C1*
X12355380Y-9796876D02*
X12358951Y-9800447D01*
X12362522Y-9811162D01*
X12362522Y-9818305D01*
X12358951Y-9829019D01*
X12351808Y-9836162D01*
X12344665Y-9839733D01*
X12330380Y-9843305D01*
X12319665Y-9843305D01*
X12305380Y-9839733D01*
X12298237Y-9836162D01*
X12291094Y-9829019D01*
X12287522Y-9818305D01*
X12287522Y-9811162D01*
X12291094Y-9800447D01*
X12294665Y-9796876D01*
X12362522Y-9725447D02*
X12362522Y-9768305D01*
X12362522Y-9746876D02*
X12287522Y-9746876D01*
X12298237Y-9754019D01*
X12305380Y-9761162D01*
X12308951Y-9768305D01*
G04 #@! TO.C,U4*
X12202657Y-9168929D02*
X12202657Y-9229643D01*
X12206228Y-9236786D01*
X12209800Y-9240357D01*
X12216943Y-9243929D01*
X12231228Y-9243929D01*
X12238371Y-9240357D01*
X12241943Y-9236786D01*
X12245514Y-9229643D01*
X12245514Y-9168929D01*
X12313371Y-9193929D02*
X12313371Y-9243929D01*
X12295514Y-9165357D02*
X12277657Y-9218929D01*
X12324086Y-9218929D01*
G04 #@! TO.C,R16*
X12660930Y-8570869D02*
X12635930Y-8535154D01*
X12618072Y-8570869D02*
X12618072Y-8495869D01*
X12646644Y-8495869D01*
X12653787Y-8499440D01*
X12657358Y-8503011D01*
X12660930Y-8510154D01*
X12660930Y-8520869D01*
X12657358Y-8528011D01*
X12653787Y-8531583D01*
X12646644Y-8535154D01*
X12618072Y-8535154D01*
X12732358Y-8570869D02*
X12689501Y-8570869D01*
X12710930Y-8570869D02*
X12710930Y-8495869D01*
X12703787Y-8506583D01*
X12696644Y-8513726D01*
X12689501Y-8517297D01*
X12796644Y-8495869D02*
X12782358Y-8495869D01*
X12775215Y-8499440D01*
X12771644Y-8503011D01*
X12764501Y-8513726D01*
X12760930Y-8528011D01*
X12760930Y-8556583D01*
X12764501Y-8563726D01*
X12768072Y-8567297D01*
X12775215Y-8570869D01*
X12789501Y-8570869D01*
X12796644Y-8567297D01*
X12800215Y-8563726D01*
X12803787Y-8556583D01*
X12803787Y-8538726D01*
X12800215Y-8531583D01*
X12796644Y-8528011D01*
X12789501Y-8524440D01*
X12775215Y-8524440D01*
X12768072Y-8528011D01*
X12764501Y-8531583D01*
X12760930Y-8538726D01*
G04 #@! TO.C,R6*
X14567300Y-9913929D02*
X14542300Y-9878214D01*
X14524443Y-9913929D02*
X14524443Y-9838929D01*
X14553014Y-9838929D01*
X14560157Y-9842500D01*
X14563728Y-9846071D01*
X14567300Y-9853214D01*
X14567300Y-9863929D01*
X14563728Y-9871071D01*
X14560157Y-9874643D01*
X14553014Y-9878214D01*
X14524443Y-9878214D01*
X14631586Y-9838929D02*
X14617300Y-9838929D01*
X14610157Y-9842500D01*
X14606586Y-9846071D01*
X14599443Y-9856786D01*
X14595871Y-9871071D01*
X14595871Y-9899643D01*
X14599443Y-9906786D01*
X14603014Y-9910357D01*
X14610157Y-9913929D01*
X14624443Y-9913929D01*
X14631586Y-9910357D01*
X14635157Y-9906786D01*
X14638728Y-9899643D01*
X14638728Y-9881786D01*
X14635157Y-9874643D01*
X14631586Y-9871071D01*
X14624443Y-9867500D01*
X14610157Y-9867500D01*
X14603014Y-9871071D01*
X14599443Y-9874643D01*
X14595871Y-9881786D01*
G04 #@! TO.C,SW1*
X11972267Y-9911979D02*
X11981991Y-9906236D01*
X11993707Y-9892759D01*
X11995698Y-9885025D01*
X11995345Y-9879987D01*
X11992297Y-9872605D01*
X11986907Y-9867919D01*
X11979173Y-9865928D01*
X11974134Y-9866281D01*
X11966753Y-9869328D01*
X11954685Y-9877767D01*
X11947304Y-9880815D01*
X11942265Y-9881167D01*
X11934531Y-9879176D01*
X11929141Y-9874490D01*
X11926093Y-9867108D01*
X11925741Y-9862070D01*
X11927731Y-9854336D01*
X11939447Y-9840859D01*
X11949171Y-9835116D01*
X11962877Y-9813905D02*
X12031196Y-9849633D01*
X12000137Y-9803705D01*
X12049940Y-9828070D01*
X12005053Y-9765388D01*
X12106174Y-9763380D02*
X12078057Y-9795725D01*
X12092116Y-9779553D02*
X12035512Y-9730348D01*
X12038912Y-9742768D01*
X12039617Y-9752845D01*
X12037626Y-9760579D01*
G04 #@! TO.C,R10*
X15458740Y-9183009D02*
X15433740Y-9147294D01*
X15415882Y-9183009D02*
X15415882Y-9108009D01*
X15444454Y-9108009D01*
X15451597Y-9111580D01*
X15455168Y-9115151D01*
X15458740Y-9122294D01*
X15458740Y-9133009D01*
X15455168Y-9140151D01*
X15451597Y-9143723D01*
X15444454Y-9147294D01*
X15415882Y-9147294D01*
X15530168Y-9183009D02*
X15487311Y-9183009D01*
X15508740Y-9183009D02*
X15508740Y-9108009D01*
X15501597Y-9118723D01*
X15494454Y-9125866D01*
X15487311Y-9129437D01*
X15576597Y-9108009D02*
X15583740Y-9108009D01*
X15590882Y-9111580D01*
X15594454Y-9115151D01*
X15598025Y-9122294D01*
X15601597Y-9136580D01*
X15601597Y-9154437D01*
X15598025Y-9168723D01*
X15594454Y-9175866D01*
X15590882Y-9179437D01*
X15583740Y-9183009D01*
X15576597Y-9183009D01*
X15569454Y-9179437D01*
X15565882Y-9175866D01*
X15562311Y-9168723D01*
X15558740Y-9154437D01*
X15558740Y-9136580D01*
X15562311Y-9122294D01*
X15565882Y-9115151D01*
X15569454Y-9111580D01*
X15576597Y-9108009D01*
G04 #@! TO.C,R20*
X15217514Y-9963085D02*
X15192514Y-9927370D01*
X15174656Y-9963085D02*
X15174656Y-9888085D01*
X15203228Y-9888085D01*
X15210371Y-9891656D01*
X15213942Y-9895227D01*
X15217514Y-9902370D01*
X15217514Y-9913085D01*
X15213942Y-9920227D01*
X15210371Y-9923799D01*
X15203228Y-9927370D01*
X15174656Y-9927370D01*
X15246085Y-9895227D02*
X15249656Y-9891656D01*
X15256799Y-9888085D01*
X15274656Y-9888085D01*
X15281799Y-9891656D01*
X15285371Y-9895227D01*
X15288942Y-9902370D01*
X15288942Y-9909513D01*
X15285371Y-9920227D01*
X15242514Y-9963085D01*
X15288942Y-9963085D01*
X15335371Y-9888085D02*
X15342514Y-9888085D01*
X15349656Y-9891656D01*
X15353228Y-9895227D01*
X15356799Y-9902370D01*
X15360371Y-9916656D01*
X15360371Y-9934513D01*
X15356799Y-9948799D01*
X15353228Y-9955942D01*
X15349656Y-9959513D01*
X15342514Y-9963085D01*
X15335371Y-9963085D01*
X15328228Y-9959513D01*
X15324656Y-9955942D01*
X15321085Y-9948799D01*
X15317514Y-9934513D01*
X15317514Y-9916656D01*
X15321085Y-9902370D01*
X15324656Y-9895227D01*
X15328228Y-9891656D01*
X15335371Y-9888085D01*
D14*
G04 #@! TO.C,D3*
X11854534Y-8994078D02*
X11754534Y-8994078D01*
X11754534Y-8970268D01*
X11759296Y-8955982D01*
X11768820Y-8946458D01*
X11778344Y-8941697D01*
X11797391Y-8936935D01*
X11811677Y-8936935D01*
X11830724Y-8941697D01*
X11840248Y-8946458D01*
X11849772Y-8955982D01*
X11854534Y-8970268D01*
X11854534Y-8994078D01*
X11754534Y-8903601D02*
X11754534Y-8841697D01*
X11792629Y-8875030D01*
X11792629Y-8860744D01*
X11797391Y-8851220D01*
X11802153Y-8846458D01*
X11811677Y-8841697D01*
X11835486Y-8841697D01*
X11845010Y-8846458D01*
X11849772Y-8851220D01*
X11854534Y-8860744D01*
X11854534Y-8889316D01*
X11849772Y-8898839D01*
X11845010Y-8903601D01*
D13*
G04 #@! TO.C,IC1*
X13940936Y-9857219D02*
X13940936Y-9782219D01*
X14019507Y-9850076D02*
X14015936Y-9853647D01*
X14005221Y-9857219D01*
X13998078Y-9857219D01*
X13987364Y-9853647D01*
X13980221Y-9846504D01*
X13976650Y-9839361D01*
X13973078Y-9825076D01*
X13973078Y-9814361D01*
X13976650Y-9800076D01*
X13980221Y-9792933D01*
X13987364Y-9785790D01*
X13998078Y-9782219D01*
X14005221Y-9782219D01*
X14015936Y-9785790D01*
X14019507Y-9789361D01*
X14090936Y-9857219D02*
X14048078Y-9857219D01*
X14069507Y-9857219D02*
X14069507Y-9782219D01*
X14062364Y-9792933D01*
X14055221Y-9800076D01*
X14048078Y-9803647D01*
D10*
G04 #@! TO.C,R21*
X13961586Y-9993929D02*
X13936586Y-9958214D01*
X13918728Y-9993929D02*
X13918728Y-9918929D01*
X13947300Y-9918929D01*
X13954443Y-9922500D01*
X13958014Y-9926071D01*
X13961586Y-9933214D01*
X13961586Y-9943929D01*
X13958014Y-9951071D01*
X13954443Y-9954643D01*
X13947300Y-9958214D01*
X13918728Y-9958214D01*
X13990157Y-9926071D02*
X13993728Y-9922500D01*
X14000871Y-9918929D01*
X14018728Y-9918929D01*
X14025871Y-9922500D01*
X14029443Y-9926071D01*
X14033014Y-9933214D01*
X14033014Y-9940357D01*
X14029443Y-9951071D01*
X13986586Y-9993929D01*
X14033014Y-9993929D01*
X14104443Y-9993929D02*
X14061586Y-9993929D01*
X14083014Y-9993929D02*
X14083014Y-9918929D01*
X14075871Y-9929643D01*
X14068728Y-9936786D01*
X14061586Y-9940357D01*
D14*
G04 #@! TO.C,H2*
X15664009Y-8025238D02*
X15664009Y-7925238D01*
X15664009Y-7972857D02*
X15721152Y-7972857D01*
X15721152Y-8025238D02*
X15721152Y-7925238D01*
X15764009Y-7934762D02*
X15768771Y-7930000D01*
X15778295Y-7925238D01*
X15802105Y-7925238D01*
X15811628Y-7930000D01*
X15816390Y-7934762D01*
X15821152Y-7944286D01*
X15821152Y-7953809D01*
X15816390Y-7968095D01*
X15759248Y-8025238D01*
X15821152Y-8025238D01*
G04 #@! TO.C,H1*
X12463609Y-8025238D02*
X12463609Y-7925238D01*
X12463609Y-7972857D02*
X12520752Y-7972857D01*
X12520752Y-8025238D02*
X12520752Y-7925238D01*
X12620752Y-8025238D02*
X12563609Y-8025238D01*
X12592181Y-8025238D02*
X12592181Y-7925238D01*
X12582657Y-7939524D01*
X12573133Y-7949048D01*
X12563609Y-7953809D01*
G04 #@! TO.C,C3*
X12064096Y-8766667D02*
X12068858Y-8771429D01*
X12073620Y-8785714D01*
X12073620Y-8795238D01*
X12068858Y-8809524D01*
X12059334Y-8819048D01*
X12049810Y-8823810D01*
X12030763Y-8828571D01*
X12016477Y-8828571D01*
X11997430Y-8823810D01*
X11987906Y-8819048D01*
X11978382Y-8809524D01*
X11973620Y-8795238D01*
X11973620Y-8785714D01*
X11978382Y-8771429D01*
X11983144Y-8766667D01*
X11973620Y-8733333D02*
X11973620Y-8671429D01*
X12011715Y-8704762D01*
X12011715Y-8690476D01*
X12016477Y-8680952D01*
X12021239Y-8676190D01*
X12030763Y-8671429D01*
X12054572Y-8671429D01*
X12064096Y-8676190D01*
X12068858Y-8680952D01*
X12073620Y-8690476D01*
X12073620Y-8719048D01*
X12068858Y-8728571D01*
X12064096Y-8733333D01*
G04 #@! TO.C,C9*
X14757300Y-10476786D02*
X14753728Y-10480357D01*
X14743014Y-10483929D01*
X14735871Y-10483929D01*
X14725157Y-10480357D01*
X14718014Y-10473214D01*
X14714443Y-10466071D01*
X14710871Y-10451786D01*
X14710871Y-10441071D01*
X14714443Y-10426786D01*
X14718014Y-10419643D01*
X14725157Y-10412500D01*
X14735871Y-10408929D01*
X14743014Y-10408929D01*
X14753728Y-10412500D01*
X14757300Y-10416071D01*
X14793014Y-10483929D02*
X14807300Y-10483929D01*
X14814443Y-10480357D01*
X14818014Y-10476786D01*
X14825157Y-10466071D01*
X14828728Y-10451786D01*
X14828728Y-10423214D01*
X14825157Y-10416071D01*
X14821586Y-10412500D01*
X14814443Y-10408929D01*
X14800157Y-10408929D01*
X14793014Y-10412500D01*
X14789443Y-10416071D01*
X14785871Y-10423214D01*
X14785871Y-10441071D01*
X14789443Y-10448214D01*
X14793014Y-10451786D01*
X14800157Y-10455357D01*
X14814443Y-10455357D01*
X14821586Y-10451786D01*
X14825157Y-10448214D01*
X14828728Y-10441071D01*
D13*
G04 #@! TO.C,U5*
X15201308Y-9575002D02*
X15381308Y-9575002D01*
X15381308Y-9253002D02*
X15136308Y-9253002D01*
D10*
G04 #@! TO.C,U3*
X12998200Y-9285700D02*
X12998200Y-9270700D01*
X12728200Y-9285700D02*
X12728200Y-9270700D01*
X12728200Y-9286700D02*
X12743200Y-9286700D01*
X12998200Y-9015700D02*
X12998200Y-9030700D01*
X12983200Y-9015700D02*
X12998200Y-9015700D01*
X12998200Y-9285700D02*
X12983200Y-9285700D01*
X12728200Y-9030700D02*
X12728200Y-9005700D01*
D13*
G04 #@! TO.C,C2*
X14408800Y-10215942D02*
X14408800Y-10244058D01*
X14510800Y-10215942D02*
X14510800Y-10244058D01*
G04 #@! TO.C,L2*
X15503300Y-9982100D02*
X15103300Y-9982100D01*
X15503300Y-10402100D02*
X15103300Y-10402100D01*
G04 #@! TO.C,R8*
X14676074Y-10101950D02*
X14723526Y-10101950D01*
X14676074Y-10206450D02*
X14723526Y-10206450D01*
G04 #@! TO.C,R1*
X15087050Y-8955972D02*
X15134502Y-8955972D01*
X15087050Y-9060472D02*
X15134502Y-9060472D01*
G04 #@! TO.C,R3*
X12074750Y-9413726D02*
X12074750Y-9366274D01*
X11970250Y-9413726D02*
X11970250Y-9366274D01*
G04 #@! TO.C,R15*
X11970250Y-9113726D02*
X11970250Y-9066274D01*
X12074750Y-9113726D02*
X12074750Y-9066274D01*
G04 #@! TO.C,R13*
X14972388Y-9608746D02*
X14924936Y-9608746D01*
X14972388Y-9504246D02*
X14924936Y-9504246D01*
G04 #@! TO.C,D1*
X13257500Y-8992500D02*
X13257500Y-8677500D01*
X13087500Y-8992500D02*
X13257500Y-8992500D01*
X13087500Y-8992500D02*
X13087500Y-8677500D01*
G04 #@! TO.C,U2*
X15632600Y-10334970D02*
X15812600Y-10334970D01*
X15812600Y-10012970D02*
X15567600Y-10012970D01*
G04 #@! TO.C,U1*
X13253600Y-9250700D02*
X13253600Y-9050700D01*
X13031600Y-9150700D02*
X13031600Y-9050700D01*
G04 #@! TO.C,C8*
X15894595Y-9968324D02*
X15946845Y-9968324D01*
X15894595Y-9821324D02*
X15946845Y-9821324D01*
G04 #@! TO.C,R11*
X15272870Y-9614990D02*
X15225418Y-9614990D01*
X15272870Y-9719490D02*
X15225418Y-9719490D01*
G04 #@! TO.C,R14*
X12071274Y-9565250D02*
X12118726Y-9565250D01*
X12071274Y-9669750D02*
X12118726Y-9669750D01*
G04 #@! TO.C,R12*
X14973150Y-9432216D02*
X14925698Y-9432216D01*
X14973150Y-9327716D02*
X14925698Y-9327716D01*
G04 #@! TO.C,JP1*
X12766074Y-9652250D02*
X12813526Y-9652250D01*
X12766074Y-9547750D02*
X12813526Y-9547750D01*
G04 #@! TO.C,R17*
X12900850Y-8768026D02*
X12900850Y-8720574D01*
X12796350Y-8768026D02*
X12796350Y-8720574D01*
G04 #@! TO.C,R2*
X14821026Y-9106948D02*
X14821026Y-9059496D01*
X14925526Y-9106948D02*
X14925526Y-9059496D01*
G04 #@! TO.C,C4*
X13144000Y-9664058D02*
X13144000Y-9635942D01*
X13246000Y-9664058D02*
X13246000Y-9635942D01*
G04 #@! TO.C,J1*
X15919696Y-8794396D02*
X16119696Y-8794396D01*
X15919696Y-9734396D02*
X16119696Y-9734396D01*
X16309696Y-9734396D02*
X16499696Y-9734396D01*
X16499696Y-9734396D02*
X16499696Y-8794396D01*
X16309696Y-8794396D02*
X16499696Y-8794396D01*
G04 #@! TO.C,R5*
X12657050Y-9883726D02*
X12657050Y-9836274D01*
X12552550Y-9883726D02*
X12552550Y-9836274D01*
G04 #@! TO.C,R7*
X13141226Y-9327750D02*
X13093774Y-9327750D01*
X13141226Y-9432250D02*
X13093774Y-9432250D01*
G04 #@! TO.C,R19*
X15390772Y-8955606D02*
X15438224Y-8955606D01*
X15390772Y-9060106D02*
X15438224Y-9060106D01*
G04 #@! TO.C,C6*
X14963858Y-9899384D02*
X14935742Y-9899384D01*
X14963858Y-9797384D02*
X14935742Y-9797384D01*
G04 #@! TO.C,SW2*
X12695838Y-10131094D02*
X12636166Y-10124823D01*
X12746132Y-10417923D02*
X12945036Y-10438828D01*
X12636166Y-10124823D02*
X12625714Y-10224275D01*
X13113537Y-10174996D02*
X13103084Y-10274448D01*
X13053866Y-10168725D02*
X13113537Y-10174996D01*
G04 #@! TO.C,R4*
X12992550Y-9836274D02*
X12992550Y-9883726D01*
X13097050Y-9836274D02*
X13097050Y-9883726D01*
G04 #@! TO.C,C5*
X12461500Y-8725942D02*
X12461500Y-8754058D01*
X12563500Y-8725942D02*
X12563500Y-8754058D01*
G04 #@! TO.C,R9*
X14723526Y-10358850D02*
X14676074Y-10358850D01*
X14723526Y-10254350D02*
X14676074Y-10254350D01*
G04 #@! TO.C,Q1*
X12940800Y-9935000D02*
X12940800Y-9795000D01*
X12708800Y-9795000D02*
X12708800Y-9985000D01*
G04 #@! TO.C,D2*
X11909000Y-9509000D02*
X11737000Y-9509000D01*
X11737000Y-9017000D02*
X11737000Y-9509000D01*
X11909000Y-9028000D02*
X11909000Y-9509000D01*
X11783000Y-9017000D02*
X11737000Y-9017000D01*
G04 #@! TO.C,C1*
X12368800Y-9555942D02*
X12368800Y-9584058D01*
X12470800Y-9555942D02*
X12470800Y-9584058D01*
G04 #@! TO.C,U4*
X12372000Y-9013400D02*
X12372000Y-9313400D01*
X12694000Y-9163400D02*
X12694000Y-9313400D01*
G04 #@! TO.C,R16*
X12748450Y-8768026D02*
X12748450Y-8720574D01*
X12643950Y-8768026D02*
X12643950Y-8720574D01*
G04 #@! TO.C,R6*
X14548328Y-9949042D02*
X14595780Y-9949042D01*
X14548328Y-10053542D02*
X14595780Y-10053542D01*
G04 #@! TO.C,SW1*
X12537536Y-10092172D02*
X12471930Y-10167643D01*
X12175275Y-9777264D02*
X12109670Y-9852735D01*
X12492253Y-10052809D02*
X12537536Y-10092172D01*
X12220558Y-9816628D02*
X12175275Y-9777264D01*
X12097238Y-10080431D02*
X12248180Y-10211643D01*
G04 #@! TO.C,R10*
X15236086Y-9106736D02*
X15283538Y-9106736D01*
X15236086Y-9211236D02*
X15283538Y-9211236D01*
G04 #@! TO.C,R20*
X15291412Y-9868334D02*
X15243960Y-9868334D01*
X15291412Y-9763834D02*
X15243960Y-9763834D01*
D15*
G04 #@! TO.C,IC1*
X13373000Y-8064000D02*
X13373000Y-9724000D01*
X13373000Y-8064000D02*
X13373000Y-8064000D01*
X14693000Y-8564000D02*
X14693000Y-8564000D01*
X13373000Y-8064000D02*
X13373000Y-8064000D01*
X13373000Y-8564000D02*
X13373000Y-8564000D01*
X14693000Y-9724000D02*
X14693000Y-8064000D01*
X14693000Y-8064000D02*
X14693000Y-8064000D01*
X13313000Y-8764000D02*
X13313000Y-8764000D01*
X14693000Y-8064000D02*
X14693000Y-8564000D01*
X14693000Y-8064000D02*
X14693000Y-8064000D01*
X13373000Y-9724000D02*
X14693000Y-9724000D01*
X13313000Y-8764000D02*
X13313000Y-8764000D01*
X13373000Y-8564000D02*
X13373000Y-8064000D01*
X14693000Y-8064000D02*
X13373000Y-8064000D01*
X13323000Y-8764000D02*
X13323000Y-8764000D01*
X13313000Y-8764000D02*
G75*
G03*
X13323000Y-8764000I5000J0D01*
G01*
X13323000Y-8764000D02*
G75*
G03*
X13313000Y-8764000I-5000J0D01*
G01*
X13313000Y-8764000D02*
G75*
G03*
X13323000Y-8764000I5000J0D01*
G01*
D13*
G04 #@! TO.C,R21*
X14293526Y-10012250D02*
X14246074Y-10012250D01*
X14293526Y-9907750D02*
X14246074Y-9907750D01*
G04 #@! TO.C,C3*
X12300800Y-8954218D02*
X12300800Y-8833806D01*
X12118800Y-8954218D02*
X12118800Y-8833806D01*
G04 #@! TO.C,C9*
X15050800Y-10109794D02*
X15050800Y-10230206D01*
X14868800Y-10109794D02*
X14868800Y-10230206D01*
G04 #@! TD*
M02*
