G04 #@! TF.GenerationSoftware,KiCad,Pcbnew,(6.0.0)*
G04 #@! TF.CreationDate,2022-02-21T15:34:57-06:00*
G04 #@! TF.ProjectId,temp sensor,74656d70-2073-4656-9e73-6f722e6b6963,0.3*
G04 #@! TF.SameCoordinates,Original*
G04 #@! TF.FileFunction,Soldermask,Top*
G04 #@! TF.FilePolarity,Negative*
%FSLAX45Y45*%
G04 Gerber Fmt 4.5, Leading zero omitted, Abs format (unit mm)*
G04 Created by KiCad (PCBNEW (6.0.0)) date 2022-02-21 15:34:57*
%MOMM*%
%LPD*%
G01*
G04 APERTURE LIST*
G04 Aperture macros list*
%AMRoundRect*
0 Rectangle with rounded corners*
0 $1 Rounding radius*
0 $2 $3 $4 $5 $6 $7 $8 $9 X,Y pos of 4 corners*
0 Add a 4 corners polygon primitive as box body*
4,1,4,$2,$3,$4,$5,$6,$7,$8,$9,$2,$3,0*
0 Add four circle primitives for the rounded corners*
1,1,$1+$1,$2,$3*
1,1,$1+$1,$4,$5*
1,1,$1+$1,$6,$7*
1,1,$1+$1,$8,$9*
0 Add four rect primitives between the rounded corners*
20,1,$1+$1,$2,$3,$4,$5,0*
20,1,$1+$1,$4,$5,$6,$7,0*
20,1,$1+$1,$6,$7,$8,$9,0*
20,1,$1+$1,$8,$9,$2,$3,0*%
%AMFreePoly0*
4,1,16,0.475001,-0.400000,0.075000,-0.400000,0.075000,-0.388121,0.000000,-0.400000,-0.123607,-0.380423,-0.235114,-0.323607,-0.323607,-0.235114,-0.380423,-0.123607,-0.400000,0.000000,-0.380423,0.123607,-0.323607,0.235114,-0.308721,0.250000,-0.675000,0.250000,-0.675000,0.900000,0.475000,0.900000,0.475001,-0.400000,0.475001,-0.400000,$1*%
%AMFreePoly1*
4,1,16,0.675000,0.250000,0.308721,0.250000,0.323607,0.235114,0.380423,0.123607,0.400000,0.000000,0.380423,-0.123607,0.323607,-0.235114,0.235114,-0.323607,0.123607,-0.380423,0.000000,-0.400000,-0.075000,-0.388121,-0.075000,-0.400000,-0.475000,-0.400000,-0.475000,0.900000,0.675000,0.900000,0.675000,0.250000,0.675000,0.250000,$1*%
G04 Aperture macros list end*
%ADD10R,1.060000X0.650000*%
%ADD11R,0.350000X0.500000*%
%ADD12RoundRect,0.225000X-0.250000X0.225000X-0.250000X-0.225000X0.250000X-0.225000X0.250000X0.225000X0*%
%ADD13R,1.200000X3.700000*%
%ADD14RoundRect,0.200000X-0.200000X-0.275000X0.200000X-0.275000X0.200000X0.275000X-0.200000X0.275000X0*%
%ADD15RoundRect,0.200000X0.275000X-0.200000X0.275000X0.200000X-0.275000X0.200000X-0.275000X-0.200000X0*%
%ADD16RoundRect,0.200000X0.200000X0.275000X-0.200000X0.275000X-0.200000X-0.275000X0.200000X-0.275000X0*%
%ADD17R,1.000000X1.000000*%
%ADD18RoundRect,0.087500X0.087500X-0.187500X0.087500X0.187500X-0.087500X0.187500X-0.087500X-0.187500X0*%
%ADD19RoundRect,0.175000X0.625000X-0.175000X0.625000X0.175000X-0.625000X0.175000X-0.625000X-0.175000X0*%
%ADD20RoundRect,0.250000X-0.250000X-0.475000X0.250000X-0.475000X0.250000X0.475000X-0.250000X0.475000X0*%
%ADD21RoundRect,0.225000X0.250000X-0.225000X0.250000X0.225000X-0.250000X0.225000X-0.250000X-0.225000X0*%
%ADD22C,0.650000*%
%ADD23R,1.450000X0.600000*%
%ADD24R,1.450000X0.300000*%
%ADD25O,1.600000X1.000000*%
%ADD26O,2.100000X1.000000*%
%ADD27RoundRect,0.225000X0.225000X0.250000X-0.225000X0.250000X-0.225000X-0.250000X0.225000X-0.250000X0*%
%ADD28RoundRect,0.275000X-0.451417X-0.229069X0.393926X-0.317918X0.451417X0.229069X-0.393926X0.317918X0*%
%ADD29RoundRect,0.175000X-0.213240X-0.354653X0.134843X-0.391238X0.213240X0.354653X-0.134843X0.391238X0*%
%ADD30FreePoly0,174.000000*%
%ADD31FreePoly1,174.000000*%
%ADD32RoundRect,0.200000X-0.275000X0.200000X-0.275000X-0.200000X0.275000X-0.200000X0.275000X0.200000X0*%
%ADD33R,0.400000X0.650000*%
%ADD34R,0.630000X0.660000*%
%ADD35R,0.800000X0.400000*%
%ADD36RoundRect,0.100000X-0.100000X0.300000X-0.100000X-0.300000X0.100000X-0.300000X0.100000X0.300000X0*%
%ADD37R,2.400000X1.500000*%
%ADD38RoundRect,0.275000X-0.501168X0.071280X0.140335X-0.486370X0.501168X-0.071280X-0.140335X0.486370X0*%
%ADD39RoundRect,0.175000X-0.378096X-0.168206X-0.113948X-0.397826X0.378096X0.168206X0.113948X0.397826X0*%
%ADD40FreePoly0,139.000000*%
%ADD41FreePoly1,139.000000*%
%ADD42R,1.000000X0.420000*%
%ADD43R,1.000000X0.500000*%
%ADD44R,0.400000X0.800000*%
%ADD45R,1.450000X1.450000*%
%ADD46R,0.700000X0.700000*%
%ADD47C,1.650000*%
%ADD48RoundRect,0.250001X0.624999X-0.462499X0.624999X0.462499X-0.624999X0.462499X-0.624999X-0.462499X0*%
%ADD49RoundRect,0.250001X-0.624999X0.462499X-0.624999X-0.462499X0.624999X-0.462499X0.624999X0.462499X0*%
%ADD50O,1.900000X1.200000*%
%ADD51C,1.450000*%
G04 APERTURE END LIST*
D10*
G04 #@! TO.C,U5*
X15181308Y-9319002D03*
X15181308Y-9414002D03*
X15181308Y-9509002D03*
X15401308Y-9509002D03*
X15401308Y-9414002D03*
X15401308Y-9319002D03*
G04 #@! TD*
D11*
G04 #@! TO.C,U3*
X12765700Y-9048200D03*
X12830700Y-9048200D03*
X12895700Y-9048200D03*
X12960700Y-9048200D03*
X12960700Y-9253200D03*
X12895700Y-9253200D03*
X12830700Y-9253200D03*
X12765700Y-9253200D03*
G04 #@! TD*
D12*
G04 #@! TO.C,C2*
X14459800Y-10152500D03*
X14459800Y-10307500D03*
G04 #@! TD*
D13*
G04 #@! TO.C,L2*
X15443300Y-10192100D03*
X15163300Y-10192100D03*
G04 #@! TD*
D14*
G04 #@! TO.C,R8*
X14617300Y-10154200D03*
X14782300Y-10154200D03*
G04 #@! TD*
G04 #@! TO.C,R1*
X15028276Y-9008222D03*
X15193276Y-9008222D03*
G04 #@! TD*
D15*
G04 #@! TO.C,R3*
X12022500Y-9472500D03*
X12022500Y-9307500D03*
G04 #@! TD*
G04 #@! TO.C,R15*
X12022500Y-9172500D03*
X12022500Y-9007500D03*
G04 #@! TD*
D16*
G04 #@! TO.C,R13*
X15031162Y-9556496D03*
X14866162Y-9556496D03*
G04 #@! TD*
D17*
G04 #@! TO.C,D1*
X13172500Y-8927500D03*
X13172500Y-8677500D03*
G04 #@! TD*
D10*
G04 #@! TO.C,U2*
X15612600Y-10078970D03*
X15612600Y-10173970D03*
X15612600Y-10268970D03*
X15832600Y-10268970D03*
X15832600Y-10078970D03*
G04 #@! TD*
D18*
G04 #@! TO.C,U1*
X13092600Y-9243200D03*
X13192600Y-9243200D03*
X13192600Y-9058200D03*
X13092600Y-9058200D03*
D19*
X13142600Y-9150700D03*
G04 #@! TD*
D20*
G04 #@! TO.C,C8*
X15825720Y-9894824D03*
X16015720Y-9894824D03*
G04 #@! TD*
D16*
G04 #@! TO.C,R11*
X15331644Y-9667240D03*
X15166644Y-9667240D03*
G04 #@! TD*
D14*
G04 #@! TO.C,R14*
X12012500Y-9617500D03*
X12177500Y-9617500D03*
G04 #@! TD*
D16*
G04 #@! TO.C,R12*
X15031924Y-9379966D03*
X14866924Y-9379966D03*
G04 #@! TD*
D14*
G04 #@! TO.C,JP1*
X12707300Y-9600000D03*
X12872300Y-9600000D03*
X13037300Y-9600000D03*
G04 #@! TD*
D15*
G04 #@! TO.C,R17*
X12848600Y-8826800D03*
X12848600Y-8661800D03*
G04 #@! TD*
G04 #@! TO.C,R2*
X14873276Y-9165722D03*
X14873276Y-9000722D03*
G04 #@! TD*
D21*
G04 #@! TO.C,C4*
X13195000Y-9727500D03*
X13195000Y-9572500D03*
G04 #@! TD*
D22*
G04 #@! TO.C,J1*
X15849696Y-9553396D03*
X15849696Y-8975396D03*
D23*
X15705196Y-9589396D03*
X15705196Y-9509396D03*
D24*
X15705196Y-9389396D03*
X15705196Y-9289396D03*
X15705196Y-9239396D03*
X15705196Y-9139396D03*
D23*
X15705196Y-9019396D03*
X15705196Y-8939396D03*
X15705196Y-8939396D03*
X15705196Y-9019396D03*
D24*
X15705196Y-9089396D03*
X15705196Y-9189396D03*
X15705196Y-9339396D03*
X15705196Y-9439396D03*
D23*
X15705196Y-9509396D03*
X15705196Y-9589396D03*
D25*
X16214696Y-8832396D03*
X16214696Y-9696396D03*
D26*
X15796696Y-9696396D03*
X15796696Y-8832396D03*
G04 #@! TD*
D15*
G04 #@! TO.C,R5*
X12604800Y-9942500D03*
X12604800Y-9777500D03*
G04 #@! TD*
D16*
G04 #@! TO.C,R7*
X13200000Y-9380000D03*
X13035000Y-9380000D03*
G04 #@! TD*
D14*
G04 #@! TO.C,R19*
X15331998Y-9007856D03*
X15496998Y-9007856D03*
G04 #@! TD*
D27*
G04 #@! TO.C,C6*
X15027300Y-9848384D03*
X14872300Y-9848384D03*
G04 #@! TD*
D28*
G04 #@! TO.C,SW2*
X12868998Y-10205603D03*
D29*
X13006663Y-10235154D03*
X12728197Y-10205886D03*
D30*
X12671819Y-10335704D03*
D31*
X13034819Y-10373857D03*
G04 #@! TD*
D32*
G04 #@! TO.C,R4*
X13044800Y-9777500D03*
X13044800Y-9942500D03*
G04 #@! TD*
D12*
G04 #@! TO.C,C5*
X12512500Y-8662500D03*
X12512500Y-8817500D03*
G04 #@! TD*
D16*
G04 #@! TO.C,R9*
X14782300Y-10306600D03*
X14617300Y-10306600D03*
G04 #@! TD*
D33*
G04 #@! TO.C,Q1*
X12759800Y-9960000D03*
X12824800Y-9960000D03*
X12889800Y-9960000D03*
X12889800Y-9770000D03*
X12824800Y-9770000D03*
X12759800Y-9770000D03*
G04 #@! TD*
D34*
G04 #@! TO.C,D2*
X11789500Y-9061000D03*
D35*
X11848000Y-9142000D03*
X11848000Y-9210000D03*
X11848000Y-9316000D03*
X11848000Y-9384000D03*
D34*
X11789500Y-9465000D03*
G04 #@! TD*
D12*
G04 #@! TO.C,C1*
X12419800Y-9492500D03*
X12419800Y-9647500D03*
G04 #@! TD*
D36*
G04 #@! TO.C,U4*
X12633000Y-9018400D03*
X12533000Y-9018400D03*
X12433000Y-9018400D03*
X12433000Y-9308400D03*
X12533000Y-9308400D03*
X12633000Y-9308400D03*
D37*
X12533000Y-9163400D03*
G04 #@! TD*
D15*
G04 #@! TO.C,R16*
X12696200Y-8826800D03*
X12696200Y-8661800D03*
G04 #@! TD*
D14*
G04 #@! TO.C,R6*
X14489554Y-10001292D03*
X14654554Y-10001292D03*
G04 #@! TD*
D38*
G04 #@! TO.C,SW1*
X12319666Y-9976982D03*
D39*
X12415485Y-10080151D03*
X12204166Y-9896454D03*
D40*
X12083523Y-9970458D03*
D41*
X12358992Y-10209919D03*
G04 #@! TD*
D14*
G04 #@! TO.C,R10*
X15177312Y-9158986D03*
X15342312Y-9158986D03*
G04 #@! TD*
D16*
G04 #@! TO.C,R20*
X15350186Y-9816084D03*
X15185186Y-9816084D03*
G04 #@! TD*
D42*
G04 #@! TO.C,D3*
X11841000Y-9457000D03*
D43*
X11841000Y-9381000D03*
X11841000Y-9306000D03*
X11841000Y-9226000D03*
X11841000Y-9141000D03*
D42*
X11841000Y-9065000D03*
G04 #@! TD*
D35*
G04 #@! TO.C,IC1*
X13443000Y-8764000D03*
X13443000Y-8844000D03*
X13443000Y-8924000D03*
X13443000Y-9004000D03*
X13443000Y-9084000D03*
X13443000Y-9164000D03*
X13443000Y-9244000D03*
X13443000Y-9324000D03*
X13443000Y-9404000D03*
X13443000Y-9484000D03*
X13443000Y-9564000D03*
D44*
X13553000Y-9654000D03*
X13633000Y-9654000D03*
X13713000Y-9654000D03*
X13793000Y-9654000D03*
X13873000Y-9654000D03*
X13953000Y-9654000D03*
X14033000Y-9654000D03*
X14113000Y-9654000D03*
X14193000Y-9654000D03*
X14273000Y-9654000D03*
X14353000Y-9654000D03*
X14433000Y-9654000D03*
X14513000Y-9654000D03*
D35*
X14623000Y-9564000D03*
X14623000Y-9484000D03*
X14623000Y-9404000D03*
X14623000Y-9324000D03*
X14623000Y-9244000D03*
X14623000Y-9164000D03*
X14623000Y-9084000D03*
X14623000Y-9004000D03*
X14623000Y-8924000D03*
X14623000Y-8844000D03*
X14623000Y-8764000D03*
D44*
X14513000Y-8674000D03*
X14433000Y-8674000D03*
X14353000Y-8674000D03*
X14273000Y-8674000D03*
X14193000Y-8674000D03*
X14113000Y-8674000D03*
X14033000Y-8674000D03*
X13953000Y-8674000D03*
X13873000Y-8674000D03*
X13793000Y-8674000D03*
X13713000Y-8674000D03*
X13633000Y-8674000D03*
X13553000Y-8674000D03*
D45*
X14033000Y-9164000D03*
D46*
X14628000Y-8669000D03*
X14628000Y-9659000D03*
X13438000Y-9659000D03*
X13438000Y-8669000D03*
D45*
X13835500Y-8966500D03*
X13835500Y-9164000D03*
X13835500Y-9361500D03*
X14033000Y-9361500D03*
X14230500Y-9361500D03*
X14230500Y-9164000D03*
X14230500Y-8966500D03*
X14033000Y-8966500D03*
G04 #@! TD*
D16*
G04 #@! TO.C,R21*
X14352300Y-9960000D03*
X14187300Y-9960000D03*
G04 #@! TD*
D47*
G04 #@! TO.C,H3*
X14153000Y-10306600D03*
G04 #@! TD*
G04 #@! TO.C,H2*
X15740200Y-8300000D03*
G04 #@! TD*
G04 #@! TO.C,H1*
X12539800Y-8300000D03*
G04 #@! TD*
D48*
G04 #@! TO.C,C3*
X12209800Y-9042762D03*
X12209800Y-8745262D03*
G04 #@! TD*
D49*
G04 #@! TO.C,C9*
X14959800Y-10021250D03*
X14959800Y-10318750D03*
G04 #@! TD*
D50*
G04 #@! TO.C,J4*
X16326250Y-9615000D03*
X16326250Y-8915000D03*
D51*
X16056250Y-9015000D03*
X16056250Y-9515000D03*
G04 #@! TD*
M02*
