G04 #@! TF.GenerationSoftware,KiCad,Pcbnew,(5.1.10)-1*
G04 #@! TF.CreationDate,2021-05-15T21:05:10-05:00*
G04 #@! TF.ProjectId,temp sensor,74656d70-2073-4656-9e73-6f722e6b6963,rev?*
G04 #@! TF.SameCoordinates,Original*
G04 #@! TF.FileFunction,Paste,Top*
G04 #@! TF.FilePolarity,Positive*
%FSLAX45Y45*%
G04 Gerber Fmt 4.5, Leading zero omitted, Abs format (unit mm)*
G04 Created by KiCad (PCBNEW (5.1.10)-1) date 2021-05-15 21:05:10*
%MOMM*%
%LPD*%
G01*
G04 APERTURE LIST*
%ADD10R,0.350000X0.500000*%
%ADD11R,0.630000X0.660000*%
%ADD12R,0.800000X0.400000*%
%ADD13R,1.060000X0.650000*%
%ADD14R,0.400000X0.800000*%
%ADD15R,1.450000X1.450000*%
%ADD16R,0.700000X0.700000*%
%ADD17R,1.900000X1.500000*%
%ADD18R,1.350000X0.400000*%
%ADD19R,1.200000X3.700000*%
%ADD20R,2.800000X1.000000*%
%ADD21R,1.000000X1.000000*%
G04 APERTURE END LIST*
D10*
G04 #@! TO.C,U3*
X6650700Y-4863200D03*
X6585700Y-4863200D03*
X6520700Y-4863200D03*
X6455700Y-4863200D03*
X6455700Y-5068200D03*
X6520700Y-5068200D03*
X6585700Y-5068200D03*
X6650700Y-5068200D03*
G04 #@! TD*
G04 #@! TO.C,R8*
G36*
G01*
X8417000Y-6147025D02*
X8417000Y-6095775D01*
G75*
G02*
X8438875Y-6073900I21875J0D01*
G01*
X8482625Y-6073900D01*
G75*
G02*
X8504500Y-6095775I0J-21875D01*
G01*
X8504500Y-6147025D01*
G75*
G02*
X8482625Y-6168900I-21875J0D01*
G01*
X8438875Y-6168900D01*
G75*
G02*
X8417000Y-6147025I0J21875D01*
G01*
G37*
G36*
G01*
X8259500Y-6147025D02*
X8259500Y-6095775D01*
G75*
G02*
X8281375Y-6073900I21875J0D01*
G01*
X8325125Y-6073900D01*
G75*
G02*
X8347000Y-6095775I0J-21875D01*
G01*
X8347000Y-6147025D01*
G75*
G02*
X8325125Y-6168900I-21875J0D01*
G01*
X8281375Y-6168900D01*
G75*
G02*
X8259500Y-6147025I0J21875D01*
G01*
G37*
G04 #@! TD*
G04 #@! TO.C,C5*
G36*
G01*
X6320100Y-4482875D02*
X6320100Y-4534125D01*
G75*
G02*
X6298225Y-4556000I-21875J0D01*
G01*
X6254475Y-4556000D01*
G75*
G02*
X6232600Y-4534125I0J21875D01*
G01*
X6232600Y-4482875D01*
G75*
G02*
X6254475Y-4461000I21875J0D01*
G01*
X6298225Y-4461000D01*
G75*
G02*
X6320100Y-4482875I0J-21875D01*
G01*
G37*
G36*
G01*
X6162600Y-4482875D02*
X6162600Y-4534125D01*
G75*
G02*
X6140725Y-4556000I-21875J0D01*
G01*
X6096975Y-4556000D01*
G75*
G02*
X6075100Y-4534125I0J21875D01*
G01*
X6075100Y-4482875D01*
G75*
G02*
X6096975Y-4461000I21875J0D01*
G01*
X6140725Y-4461000D01*
G75*
G02*
X6162600Y-4482875I0J-21875D01*
G01*
G37*
G04 #@! TD*
G04 #@! TO.C,R9*
G36*
G01*
X8280175Y-5770300D02*
X8331425Y-5770300D01*
G75*
G02*
X8353300Y-5792175I0J-21875D01*
G01*
X8353300Y-5835925D01*
G75*
G02*
X8331425Y-5857800I-21875J0D01*
G01*
X8280175Y-5857800D01*
G75*
G02*
X8258300Y-5835925I0J21875D01*
G01*
X8258300Y-5792175D01*
G75*
G02*
X8280175Y-5770300I21875J0D01*
G01*
G37*
G36*
G01*
X8280175Y-5927800D02*
X8331425Y-5927800D01*
G75*
G02*
X8353300Y-5949675I0J-21875D01*
G01*
X8353300Y-5993425D01*
G75*
G02*
X8331425Y-6015300I-21875J0D01*
G01*
X8280175Y-6015300D01*
G75*
G02*
X8258300Y-5993425I0J21875D01*
G01*
X8258300Y-5949675D01*
G75*
G02*
X8280175Y-5927800I21875J0D01*
G01*
G37*
G04 #@! TD*
G04 #@! TO.C,C9*
G36*
G01*
X8656225Y-5984500D02*
X8564975Y-5984500D01*
G75*
G02*
X8540600Y-5960125I0J24375D01*
G01*
X8540600Y-5911375D01*
G75*
G02*
X8564975Y-5887000I24375J0D01*
G01*
X8656225Y-5887000D01*
G75*
G02*
X8680600Y-5911375I0J-24375D01*
G01*
X8680600Y-5960125D01*
G75*
G02*
X8656225Y-5984500I-24375J0D01*
G01*
G37*
G36*
G01*
X8656225Y-5797000D02*
X8564975Y-5797000D01*
G75*
G02*
X8540600Y-5772625I0J24375D01*
G01*
X8540600Y-5723875D01*
G75*
G02*
X8564975Y-5699500I24375J0D01*
G01*
X8656225Y-5699500D01*
G75*
G02*
X8680600Y-5723875I0J-24375D01*
G01*
X8680600Y-5772625D01*
G75*
G02*
X8656225Y-5797000I-24375J0D01*
G01*
G37*
G04 #@! TD*
D11*
G04 #@! TO.C,D2*
X5427500Y-4878000D03*
D12*
X5486000Y-4959000D03*
X5486000Y-5027000D03*
X5486000Y-5133000D03*
X5486000Y-5201000D03*
D11*
X5427500Y-5282000D03*
G04 #@! TD*
G04 #@! TO.C,C4*
G36*
G01*
X6748200Y-5219925D02*
X6748200Y-5168675D01*
G75*
G02*
X6770075Y-5146800I21875J0D01*
G01*
X6813825Y-5146800D01*
G75*
G02*
X6835700Y-5168675I0J-21875D01*
G01*
X6835700Y-5219925D01*
G75*
G02*
X6813825Y-5241800I-21875J0D01*
G01*
X6770075Y-5241800D01*
G75*
G02*
X6748200Y-5219925I0J21875D01*
G01*
G37*
G36*
G01*
X6905700Y-5219925D02*
X6905700Y-5168675D01*
G75*
G02*
X6927575Y-5146800I21875J0D01*
G01*
X6971325Y-5146800D01*
G75*
G02*
X6993200Y-5168675I0J-21875D01*
G01*
X6993200Y-5219925D01*
G75*
G02*
X6971325Y-5241800I-21875J0D01*
G01*
X6927575Y-5241800D01*
G75*
G02*
X6905700Y-5219925I0J21875D01*
G01*
G37*
G04 #@! TD*
G04 #@! TO.C,L1*
G36*
G01*
X6718075Y-4462200D02*
X6769325Y-4462200D01*
G75*
G02*
X6791200Y-4484075I0J-21875D01*
G01*
X6791200Y-4527825D01*
G75*
G02*
X6769325Y-4549700I-21875J0D01*
G01*
X6718075Y-4549700D01*
G75*
G02*
X6696200Y-4527825I0J21875D01*
G01*
X6696200Y-4484075D01*
G75*
G02*
X6718075Y-4462200I21875J0D01*
G01*
G37*
G36*
G01*
X6718075Y-4619700D02*
X6769325Y-4619700D01*
G75*
G02*
X6791200Y-4641575I0J-21875D01*
G01*
X6791200Y-4685325D01*
G75*
G02*
X6769325Y-4707200I-21875J0D01*
G01*
X6718075Y-4707200D01*
G75*
G02*
X6696200Y-4685325I0J21875D01*
G01*
X6696200Y-4641575D01*
G75*
G02*
X6718075Y-4619700I21875J0D01*
G01*
G37*
G04 #@! TD*
G04 #@! TO.C,R7*
G36*
G01*
X6840800Y-5321075D02*
X6840800Y-5372325D01*
G75*
G02*
X6818925Y-5394200I-21875J0D01*
G01*
X6775175Y-5394200D01*
G75*
G02*
X6753300Y-5372325I0J21875D01*
G01*
X6753300Y-5321075D01*
G75*
G02*
X6775175Y-5299200I21875J0D01*
G01*
X6818925Y-5299200D01*
G75*
G02*
X6840800Y-5321075I0J-21875D01*
G01*
G37*
G36*
G01*
X6683300Y-5321075D02*
X6683300Y-5372325D01*
G75*
G02*
X6661425Y-5394200I-21875J0D01*
G01*
X6617675Y-5394200D01*
G75*
G02*
X6595800Y-5372325I0J21875D01*
G01*
X6595800Y-5321075D01*
G75*
G02*
X6617675Y-5299200I21875J0D01*
G01*
X6661425Y-5299200D01*
G75*
G02*
X6683300Y-5321075I0J-21875D01*
G01*
G37*
G04 #@! TD*
G04 #@! TO.C,R10*
G36*
G01*
X9131525Y-5189800D02*
X9080275Y-5189800D01*
G75*
G02*
X9058400Y-5167925I0J21875D01*
G01*
X9058400Y-5124175D01*
G75*
G02*
X9080275Y-5102300I21875J0D01*
G01*
X9131525Y-5102300D01*
G75*
G02*
X9153400Y-5124175I0J-21875D01*
G01*
X9153400Y-5167925D01*
G75*
G02*
X9131525Y-5189800I-21875J0D01*
G01*
G37*
G36*
G01*
X9131525Y-5032300D02*
X9080275Y-5032300D01*
G75*
G02*
X9058400Y-5010425I0J21875D01*
G01*
X9058400Y-4966675D01*
G75*
G02*
X9080275Y-4944800I21875J0D01*
G01*
X9131525Y-4944800D01*
G75*
G02*
X9153400Y-4966675I0J-21875D01*
G01*
X9153400Y-5010425D01*
G75*
G02*
X9131525Y-5032300I-21875J0D01*
G01*
G37*
G04 #@! TD*
G04 #@! TO.C,R11*
G36*
G01*
X9131525Y-5387900D02*
X9080275Y-5387900D01*
G75*
G02*
X9058400Y-5366025I0J21875D01*
G01*
X9058400Y-5322275D01*
G75*
G02*
X9080275Y-5300400I21875J0D01*
G01*
X9131525Y-5300400D01*
G75*
G02*
X9153400Y-5322275I0J-21875D01*
G01*
X9153400Y-5366025D01*
G75*
G02*
X9131525Y-5387900I-21875J0D01*
G01*
G37*
G36*
G01*
X9131525Y-5545400D02*
X9080275Y-5545400D01*
G75*
G02*
X9058400Y-5523525I0J21875D01*
G01*
X9058400Y-5479775D01*
G75*
G02*
X9080275Y-5457900I21875J0D01*
G01*
X9131525Y-5457900D01*
G75*
G02*
X9153400Y-5479775I0J-21875D01*
G01*
X9153400Y-5523525D01*
G75*
G02*
X9131525Y-5545400I-21875J0D01*
G01*
G37*
G04 #@! TD*
G04 #@! TO.C,R12*
G36*
G01*
X8753400Y-4952775D02*
X8753400Y-5004025D01*
G75*
G02*
X8731525Y-5025900I-21875J0D01*
G01*
X8687775Y-5025900D01*
G75*
G02*
X8665900Y-5004025I0J21875D01*
G01*
X8665900Y-4952775D01*
G75*
G02*
X8687775Y-4930900I21875J0D01*
G01*
X8731525Y-4930900D01*
G75*
G02*
X8753400Y-4952775I0J-21875D01*
G01*
G37*
G36*
G01*
X8910900Y-4952775D02*
X8910900Y-5004025D01*
G75*
G02*
X8889025Y-5025900I-21875J0D01*
G01*
X8845275Y-5025900D01*
G75*
G02*
X8823400Y-5004025I0J21875D01*
G01*
X8823400Y-4952775D01*
G75*
G02*
X8845275Y-4930900I21875J0D01*
G01*
X8889025Y-4930900D01*
G75*
G02*
X8910900Y-4952775I0J-21875D01*
G01*
G37*
G04 #@! TD*
G04 #@! TO.C,R13*
G36*
G01*
X8910900Y-5486175D02*
X8910900Y-5537425D01*
G75*
G02*
X8889025Y-5559300I-21875J0D01*
G01*
X8845275Y-5559300D01*
G75*
G02*
X8823400Y-5537425I0J21875D01*
G01*
X8823400Y-5486175D01*
G75*
G02*
X8845275Y-5464300I21875J0D01*
G01*
X8889025Y-5464300D01*
G75*
G02*
X8910900Y-5486175I0J-21875D01*
G01*
G37*
G36*
G01*
X8753400Y-5486175D02*
X8753400Y-5537425D01*
G75*
G02*
X8731525Y-5559300I-21875J0D01*
G01*
X8687775Y-5559300D01*
G75*
G02*
X8665900Y-5537425I0J21875D01*
G01*
X8665900Y-5486175D01*
G75*
G02*
X8687775Y-5464300I21875J0D01*
G01*
X8731525Y-5464300D01*
G75*
G02*
X8753400Y-5486175I0J-21875D01*
G01*
G37*
G04 #@! TD*
D13*
G04 #@! TO.C,U2*
X9249900Y-5823200D03*
X9249900Y-5918200D03*
X9249900Y-6013200D03*
X9469900Y-6013200D03*
X9469900Y-5823200D03*
G04 #@! TD*
G04 #@! TO.C,U4*
G36*
G01*
X6313000Y-4793400D02*
X6333000Y-4793400D01*
G75*
G02*
X6343000Y-4803400I0J-10000D01*
G01*
X6343000Y-4863400D01*
G75*
G02*
X6333000Y-4873400I-10000J0D01*
G01*
X6313000Y-4873400D01*
G75*
G02*
X6303000Y-4863400I0J10000D01*
G01*
X6303000Y-4803400D01*
G75*
G02*
X6313000Y-4793400I10000J0D01*
G01*
G37*
G36*
G01*
X6213000Y-4793400D02*
X6233000Y-4793400D01*
G75*
G02*
X6243000Y-4803400I0J-10000D01*
G01*
X6243000Y-4863400D01*
G75*
G02*
X6233000Y-4873400I-10000J0D01*
G01*
X6213000Y-4873400D01*
G75*
G02*
X6203000Y-4863400I0J10000D01*
G01*
X6203000Y-4803400D01*
G75*
G02*
X6213000Y-4793400I10000J0D01*
G01*
G37*
G36*
G01*
X6113000Y-4793400D02*
X6133000Y-4793400D01*
G75*
G02*
X6143000Y-4803400I0J-10000D01*
G01*
X6143000Y-4863400D01*
G75*
G02*
X6133000Y-4873400I-10000J0D01*
G01*
X6113000Y-4873400D01*
G75*
G02*
X6103000Y-4863400I0J10000D01*
G01*
X6103000Y-4803400D01*
G75*
G02*
X6113000Y-4793400I10000J0D01*
G01*
G37*
G36*
G01*
X6113000Y-5083400D02*
X6133000Y-5083400D01*
G75*
G02*
X6143000Y-5093400I0J-10000D01*
G01*
X6143000Y-5153400D01*
G75*
G02*
X6133000Y-5163400I-10000J0D01*
G01*
X6113000Y-5163400D01*
G75*
G02*
X6103000Y-5153400I0J10000D01*
G01*
X6103000Y-5093400D01*
G75*
G02*
X6113000Y-5083400I10000J0D01*
G01*
G37*
G36*
G01*
X6213000Y-5083400D02*
X6233000Y-5083400D01*
G75*
G02*
X6243000Y-5093400I0J-10000D01*
G01*
X6243000Y-5153400D01*
G75*
G02*
X6233000Y-5163400I-10000J0D01*
G01*
X6213000Y-5163400D01*
G75*
G02*
X6203000Y-5153400I0J10000D01*
G01*
X6203000Y-5093400D01*
G75*
G02*
X6213000Y-5083400I10000J0D01*
G01*
G37*
G36*
G01*
X6313000Y-5083400D02*
X6333000Y-5083400D01*
G75*
G02*
X6343000Y-5093400I0J-10000D01*
G01*
X6343000Y-5153400D01*
G75*
G02*
X6333000Y-5163400I-10000J0D01*
G01*
X6313000Y-5163400D01*
G75*
G02*
X6303000Y-5153400I0J10000D01*
G01*
X6303000Y-5093400D01*
G75*
G02*
X6313000Y-5083400I10000J0D01*
G01*
G37*
G36*
G01*
X6249500Y-4910900D02*
X6316500Y-4910900D01*
G75*
G02*
X6331500Y-4925900I0J-15000D01*
G01*
X6331500Y-4955900D01*
G75*
G02*
X6316500Y-4970900I-15000J0D01*
G01*
X6249500Y-4970900D01*
G75*
G02*
X6234500Y-4955900I0J15000D01*
G01*
X6234500Y-4925900D01*
G75*
G02*
X6249500Y-4910900I15000J0D01*
G01*
G37*
G36*
G01*
X6129500Y-4910900D02*
X6196500Y-4910900D01*
G75*
G02*
X6211500Y-4925900I0J-15000D01*
G01*
X6211500Y-4955900D01*
G75*
G02*
X6196500Y-4970900I-15000J0D01*
G01*
X6129500Y-4970900D01*
G75*
G02*
X6114500Y-4955900I0J15000D01*
G01*
X6114500Y-4925900D01*
G75*
G02*
X6129500Y-4910900I15000J0D01*
G01*
G37*
G36*
G01*
X6249500Y-4985900D02*
X6316500Y-4985900D01*
G75*
G02*
X6331500Y-5000900I0J-15000D01*
G01*
X6331500Y-5030900D01*
G75*
G02*
X6316500Y-5045900I-15000J0D01*
G01*
X6249500Y-5045900D01*
G75*
G02*
X6234500Y-5030900I0J15000D01*
G01*
X6234500Y-5000900D01*
G75*
G02*
X6249500Y-4985900I15000J0D01*
G01*
G37*
G36*
G01*
X6129500Y-4985900D02*
X6196500Y-4985900D01*
G75*
G02*
X6211500Y-5000900I0J-15000D01*
G01*
X6211500Y-5030900D01*
G75*
G02*
X6196500Y-5045900I-15000J0D01*
G01*
X6129500Y-5045900D01*
G75*
G02*
X6114500Y-5030900I0J15000D01*
G01*
X6114500Y-5000900D01*
G75*
G02*
X6129500Y-4985900I15000J0D01*
G01*
G37*
G04 #@! TD*
G04 #@! TO.C,U5*
X8729200Y-5150100D03*
X8729200Y-5245100D03*
X8729200Y-5340100D03*
X8949200Y-5340100D03*
X8949200Y-5150100D03*
X8949200Y-5245100D03*
G04 #@! TD*
G04 #@! TO.C,R1*
G36*
G01*
X8361100Y-4851625D02*
X8361100Y-4800375D01*
G75*
G02*
X8382975Y-4778500I21875J0D01*
G01*
X8426725Y-4778500D01*
G75*
G02*
X8448600Y-4800375I0J-21875D01*
G01*
X8448600Y-4851625D01*
G75*
G02*
X8426725Y-4873500I-21875J0D01*
G01*
X8382975Y-4873500D01*
G75*
G02*
X8361100Y-4851625I0J21875D01*
G01*
G37*
G36*
G01*
X8518600Y-4851625D02*
X8518600Y-4800375D01*
G75*
G02*
X8540475Y-4778500I21875J0D01*
G01*
X8584225Y-4778500D01*
G75*
G02*
X8606100Y-4800375I0J-21875D01*
G01*
X8606100Y-4851625D01*
G75*
G02*
X8584225Y-4873500I-21875J0D01*
G01*
X8540475Y-4873500D01*
G75*
G02*
X8518600Y-4851625I0J21875D01*
G01*
G37*
G04 #@! TD*
D12*
G04 #@! TO.C,IC1*
X7080800Y-4619800D03*
X7080800Y-4699800D03*
X7080800Y-4779800D03*
X7080800Y-4859800D03*
X7080800Y-4939800D03*
X7080800Y-5019800D03*
X7080800Y-5099800D03*
X7080800Y-5179800D03*
X7080800Y-5259800D03*
X7080800Y-5339800D03*
X7080800Y-5419800D03*
D14*
X7190800Y-5509800D03*
X7270800Y-5509800D03*
X7350800Y-5509800D03*
X7430800Y-5509800D03*
X7510800Y-5509800D03*
X7590800Y-5509800D03*
X7670800Y-5509800D03*
X7750800Y-5509800D03*
X7830800Y-5509800D03*
X7910800Y-5509800D03*
X7990800Y-5509800D03*
X8070800Y-5509800D03*
X8150800Y-5509800D03*
D12*
X8260800Y-5419800D03*
X8260800Y-5339800D03*
X8260800Y-5259800D03*
X8260800Y-5179800D03*
X8260800Y-5099800D03*
X8260800Y-5019800D03*
X8260800Y-4939800D03*
X8260800Y-4859800D03*
X8260800Y-4779800D03*
X8260800Y-4699800D03*
X8260800Y-4619800D03*
D14*
X8150800Y-4529800D03*
X8070800Y-4529800D03*
X7990800Y-4529800D03*
X7910800Y-4529800D03*
X7830800Y-4529800D03*
X7750800Y-4529800D03*
X7670800Y-4529800D03*
X7590800Y-4529800D03*
X7510800Y-4529800D03*
X7430800Y-4529800D03*
X7350800Y-4529800D03*
X7270800Y-4529800D03*
X7190800Y-4529800D03*
D15*
X7670800Y-5019800D03*
D16*
X8265800Y-4524800D03*
X8265800Y-5514800D03*
X7075800Y-5514800D03*
X7075800Y-4524800D03*
D15*
X7473300Y-4822300D03*
X7473300Y-5019800D03*
X7473300Y-5217300D03*
X7670800Y-5217300D03*
X7868300Y-5217300D03*
X7868300Y-5019800D03*
X7868300Y-4822300D03*
X7670800Y-4822300D03*
G04 #@! TD*
D17*
G04 #@! TO.C,J4*
X9963750Y-4980000D03*
D18*
X9693750Y-5145000D03*
X9693750Y-5210000D03*
X9693750Y-4950000D03*
X9693750Y-5015000D03*
X9693750Y-5080000D03*
D17*
X9963750Y-5180000D03*
G04 #@! TD*
G04 #@! TO.C,R2*
G36*
G01*
X8361100Y-5004025D02*
X8361100Y-4952775D01*
G75*
G02*
X8382975Y-4930900I21875J0D01*
G01*
X8426725Y-4930900D01*
G75*
G02*
X8448600Y-4952775I0J-21875D01*
G01*
X8448600Y-5004025D01*
G75*
G02*
X8426725Y-5025900I-21875J0D01*
G01*
X8382975Y-5025900D01*
G75*
G02*
X8361100Y-5004025I0J21875D01*
G01*
G37*
G36*
G01*
X8518600Y-5004025D02*
X8518600Y-4952775D01*
G75*
G02*
X8540475Y-4930900I21875J0D01*
G01*
X8584225Y-4930900D01*
G75*
G02*
X8606100Y-4952775I0J-21875D01*
G01*
X8606100Y-5004025D01*
G75*
G02*
X8584225Y-5025900I-21875J0D01*
G01*
X8540475Y-5025900D01*
G75*
G02*
X8518600Y-5004025I0J21875D01*
G01*
G37*
G04 #@! TD*
G04 #@! TO.C,R3*
G36*
G01*
X5616500Y-4635275D02*
X5616500Y-4686525D01*
G75*
G02*
X5594625Y-4708400I-21875J0D01*
G01*
X5550875Y-4708400D01*
G75*
G02*
X5529000Y-4686525I0J21875D01*
G01*
X5529000Y-4635275D01*
G75*
G02*
X5550875Y-4613400I21875J0D01*
G01*
X5594625Y-4613400D01*
G75*
G02*
X5616500Y-4635275I0J-21875D01*
G01*
G37*
G36*
G01*
X5774000Y-4635275D02*
X5774000Y-4686525D01*
G75*
G02*
X5752125Y-4708400I-21875J0D01*
G01*
X5708375Y-4708400D01*
G75*
G02*
X5686500Y-4686525I0J21875D01*
G01*
X5686500Y-4635275D01*
G75*
G02*
X5708375Y-4613400I21875J0D01*
G01*
X5752125Y-4613400D01*
G75*
G02*
X5774000Y-4635275I0J-21875D01*
G01*
G37*
G04 #@! TD*
G04 #@! TO.C,R14*
G36*
G01*
X5651275Y-4767000D02*
X5702525Y-4767000D01*
G75*
G02*
X5724400Y-4788875I0J-21875D01*
G01*
X5724400Y-4832625D01*
G75*
G02*
X5702525Y-4854500I-21875J0D01*
G01*
X5651275Y-4854500D01*
G75*
G02*
X5629400Y-4832625I0J21875D01*
G01*
X5629400Y-4788875D01*
G75*
G02*
X5651275Y-4767000I21875J0D01*
G01*
G37*
G36*
G01*
X5651275Y-4924500D02*
X5702525Y-4924500D01*
G75*
G02*
X5724400Y-4946375I0J-21875D01*
G01*
X5724400Y-4990125D01*
G75*
G02*
X5702525Y-5012000I-21875J0D01*
G01*
X5651275Y-5012000D01*
G75*
G02*
X5629400Y-4990125I0J21875D01*
G01*
X5629400Y-4946375D01*
G75*
G02*
X5651275Y-4924500I21875J0D01*
G01*
G37*
G04 #@! TD*
G04 #@! TO.C,R15*
G36*
G01*
X5702525Y-5159300D02*
X5651275Y-5159300D01*
G75*
G02*
X5629400Y-5137425I0J21875D01*
G01*
X5629400Y-5093675D01*
G75*
G02*
X5651275Y-5071800I21875J0D01*
G01*
X5702525Y-5071800D01*
G75*
G02*
X5724400Y-5093675I0J-21875D01*
G01*
X5724400Y-5137425D01*
G75*
G02*
X5702525Y-5159300I-21875J0D01*
G01*
G37*
G36*
G01*
X5702525Y-5316800D02*
X5651275Y-5316800D01*
G75*
G02*
X5629400Y-5294925I0J21875D01*
G01*
X5629400Y-5251175D01*
G75*
G02*
X5651275Y-5229300I21875J0D01*
G01*
X5702525Y-5229300D01*
G75*
G02*
X5724400Y-5251175I0J-21875D01*
G01*
X5724400Y-5294925D01*
G75*
G02*
X5702525Y-5316800I-21875J0D01*
G01*
G37*
G04 #@! TD*
G04 #@! TO.C,C8*
G36*
G01*
X9595400Y-5671725D02*
X9595400Y-5580475D01*
G75*
G02*
X9619775Y-5556100I24375J0D01*
G01*
X9668525Y-5556100D01*
G75*
G02*
X9692900Y-5580475I0J-24375D01*
G01*
X9692900Y-5671725D01*
G75*
G02*
X9668525Y-5696100I-24375J0D01*
G01*
X9619775Y-5696100D01*
G75*
G02*
X9595400Y-5671725I0J24375D01*
G01*
G37*
G36*
G01*
X9407900Y-5671725D02*
X9407900Y-5580475D01*
G75*
G02*
X9432275Y-5556100I24375J0D01*
G01*
X9481025Y-5556100D01*
G75*
G02*
X9505400Y-5580475I0J-24375D01*
G01*
X9505400Y-5671725D01*
G75*
G02*
X9481025Y-5696100I-24375J0D01*
G01*
X9432275Y-5696100D01*
G75*
G02*
X9407900Y-5671725I0J24375D01*
G01*
G37*
G04 #@! TD*
D19*
G04 #@! TO.C,L2*
X9080800Y-6007100D03*
X8800800Y-6007100D03*
G04 #@! TD*
G04 #@! TO.C,U1*
G36*
G01*
X6791350Y-5095700D02*
X6773850Y-5095700D01*
G75*
G02*
X6765100Y-5086950I0J8750D01*
G01*
X6765100Y-5049450D01*
G75*
G02*
X6773850Y-5040700I8750J0D01*
G01*
X6791350Y-5040700D01*
G75*
G02*
X6800100Y-5049450I0J-8750D01*
G01*
X6800100Y-5086950D01*
G75*
G02*
X6791350Y-5095700I-8750J0D01*
G01*
G37*
G36*
G01*
X6891350Y-5095700D02*
X6873850Y-5095700D01*
G75*
G02*
X6865100Y-5086950I0J8750D01*
G01*
X6865100Y-5049450D01*
G75*
G02*
X6873850Y-5040700I8750J0D01*
G01*
X6891350Y-5040700D01*
G75*
G02*
X6900100Y-5049450I0J-8750D01*
G01*
X6900100Y-5086950D01*
G75*
G02*
X6891350Y-5095700I-8750J0D01*
G01*
G37*
G36*
G01*
X6873850Y-4835700D02*
X6891350Y-4835700D01*
G75*
G02*
X6900100Y-4844450I0J-8750D01*
G01*
X6900100Y-4881950D01*
G75*
G02*
X6891350Y-4890700I-8750J0D01*
G01*
X6873850Y-4890700D01*
G75*
G02*
X6865100Y-4881950I0J8750D01*
G01*
X6865100Y-4844450D01*
G75*
G02*
X6873850Y-4835700I8750J0D01*
G01*
G37*
G36*
G01*
X6773850Y-4835700D02*
X6791350Y-4835700D01*
G75*
G02*
X6800100Y-4844450I0J-8750D01*
G01*
X6800100Y-4881950D01*
G75*
G02*
X6791350Y-4890700I-8750J0D01*
G01*
X6773850Y-4890700D01*
G75*
G02*
X6765100Y-4881950I0J8750D01*
G01*
X6765100Y-4844450D01*
G75*
G02*
X6773850Y-4835700I8750J0D01*
G01*
G37*
G36*
G01*
X6890100Y-4990700D02*
X6775100Y-4990700D01*
G75*
G02*
X6762600Y-4978200I0J12500D01*
G01*
X6762600Y-4953200D01*
G75*
G02*
X6775100Y-4940700I12500J0D01*
G01*
X6890100Y-4940700D01*
G75*
G02*
X6902600Y-4953200I0J-12500D01*
G01*
X6902600Y-4978200D01*
G75*
G02*
X6890100Y-4990700I-12500J0D01*
G01*
G37*
G04 #@! TD*
G04 #@! TO.C,C1*
G36*
G01*
X6447100Y-5384575D02*
X6447100Y-5435825D01*
G75*
G02*
X6425225Y-5457700I-21875J0D01*
G01*
X6381475Y-5457700D01*
G75*
G02*
X6359600Y-5435825I0J21875D01*
G01*
X6359600Y-5384575D01*
G75*
G02*
X6381475Y-5362700I21875J0D01*
G01*
X6425225Y-5362700D01*
G75*
G02*
X6447100Y-5384575I0J-21875D01*
G01*
G37*
G36*
G01*
X6289600Y-5384575D02*
X6289600Y-5435825D01*
G75*
G02*
X6267725Y-5457700I-21875J0D01*
G01*
X6223975Y-5457700D01*
G75*
G02*
X6202100Y-5435825I0J21875D01*
G01*
X6202100Y-5384575D01*
G75*
G02*
X6223975Y-5362700I21875J0D01*
G01*
X6267725Y-5362700D01*
G75*
G02*
X6289600Y-5384575I0J-21875D01*
G01*
G37*
G04 #@! TD*
G04 #@! TO.C,R16*
G36*
G01*
X6451825Y-4681800D02*
X6400575Y-4681800D01*
G75*
G02*
X6378700Y-4659925I0J21875D01*
G01*
X6378700Y-4616175D01*
G75*
G02*
X6400575Y-4594300I21875J0D01*
G01*
X6451825Y-4594300D01*
G75*
G02*
X6473700Y-4616175I0J-21875D01*
G01*
X6473700Y-4659925D01*
G75*
G02*
X6451825Y-4681800I-21875J0D01*
G01*
G37*
G36*
G01*
X6451825Y-4524300D02*
X6400575Y-4524300D01*
G75*
G02*
X6378700Y-4502425I0J21875D01*
G01*
X6378700Y-4458675D01*
G75*
G02*
X6400575Y-4436800I21875J0D01*
G01*
X6451825Y-4436800D01*
G75*
G02*
X6473700Y-4458675I0J-21875D01*
G01*
X6473700Y-4502425D01*
G75*
G02*
X6451825Y-4524300I-21875J0D01*
G01*
G37*
G04 #@! TD*
G04 #@! TO.C,R17*
G36*
G01*
X6604225Y-4524300D02*
X6552975Y-4524300D01*
G75*
G02*
X6531100Y-4502425I0J21875D01*
G01*
X6531100Y-4458675D01*
G75*
G02*
X6552975Y-4436800I21875J0D01*
G01*
X6604225Y-4436800D01*
G75*
G02*
X6626100Y-4458675I0J-21875D01*
G01*
X6626100Y-4502425D01*
G75*
G02*
X6604225Y-4524300I-21875J0D01*
G01*
G37*
G36*
G01*
X6604225Y-4681800D02*
X6552975Y-4681800D01*
G75*
G02*
X6531100Y-4659925I0J21875D01*
G01*
X6531100Y-4616175D01*
G75*
G02*
X6552975Y-4594300I21875J0D01*
G01*
X6604225Y-4594300D01*
G75*
G02*
X6626100Y-4616175I0J-21875D01*
G01*
X6626100Y-4659925D01*
G75*
G02*
X6604225Y-4681800I-21875J0D01*
G01*
G37*
G04 #@! TD*
D20*
G04 #@! TO.C,SW1*
X6652700Y-6029300D03*
X6072700Y-6029300D03*
X6652700Y-5629300D03*
X6072700Y-5629300D03*
G04 #@! TD*
G04 #@! TO.C,C3*
G36*
G01*
X5989225Y-4816100D02*
X5897975Y-4816100D01*
G75*
G02*
X5873600Y-4791725I0J24375D01*
G01*
X5873600Y-4742975D01*
G75*
G02*
X5897975Y-4718600I24375J0D01*
G01*
X5989225Y-4718600D01*
G75*
G02*
X6013600Y-4742975I0J-24375D01*
G01*
X6013600Y-4791725D01*
G75*
G02*
X5989225Y-4816100I-24375J0D01*
G01*
G37*
G36*
G01*
X5989225Y-4628600D02*
X5897975Y-4628600D01*
G75*
G02*
X5873600Y-4604225I0J24375D01*
G01*
X5873600Y-4555475D01*
G75*
G02*
X5897975Y-4531100I24375J0D01*
G01*
X5989225Y-4531100D01*
G75*
G02*
X6013600Y-4555475I0J-24375D01*
G01*
X6013600Y-4604225D01*
G75*
G02*
X5989225Y-4628600I-24375J0D01*
G01*
G37*
G04 #@! TD*
D21*
G04 #@! TO.C,D1*
X6921500Y-4737100D03*
X6921500Y-4487100D03*
G04 #@! TD*
G04 #@! TO.C,C2*
G36*
G01*
X8132500Y-5689825D02*
X8132500Y-5638575D01*
G75*
G02*
X8154375Y-5616700I21875J0D01*
G01*
X8198125Y-5616700D01*
G75*
G02*
X8220000Y-5638575I0J-21875D01*
G01*
X8220000Y-5689825D01*
G75*
G02*
X8198125Y-5711700I-21875J0D01*
G01*
X8154375Y-5711700D01*
G75*
G02*
X8132500Y-5689825I0J21875D01*
G01*
G37*
G36*
G01*
X8290000Y-5689825D02*
X8290000Y-5638575D01*
G75*
G02*
X8311875Y-5616700I21875J0D01*
G01*
X8355625Y-5616700D01*
G75*
G02*
X8377500Y-5638575I0J-21875D01*
G01*
X8377500Y-5689825D01*
G75*
G02*
X8355625Y-5711700I-21875J0D01*
G01*
X8311875Y-5711700D01*
G75*
G02*
X8290000Y-5689825I0J21875D01*
G01*
G37*
G04 #@! TD*
G04 #@! TO.C,R18*
G36*
G01*
X6921275Y-5300400D02*
X6972525Y-5300400D01*
G75*
G02*
X6994400Y-5322275I0J-21875D01*
G01*
X6994400Y-5366025D01*
G75*
G02*
X6972525Y-5387900I-21875J0D01*
G01*
X6921275Y-5387900D01*
G75*
G02*
X6899400Y-5366025I0J21875D01*
G01*
X6899400Y-5322275D01*
G75*
G02*
X6921275Y-5300400I21875J0D01*
G01*
G37*
G36*
G01*
X6921275Y-5457900D02*
X6972525Y-5457900D01*
G75*
G02*
X6994400Y-5479775I0J-21875D01*
G01*
X6994400Y-5523525D01*
G75*
G02*
X6972525Y-5545400I-21875J0D01*
G01*
X6921275Y-5545400D01*
G75*
G02*
X6899400Y-5523525I0J21875D01*
G01*
X6899400Y-5479775D01*
G75*
G02*
X6921275Y-5457900I21875J0D01*
G01*
G37*
G04 #@! TD*
M02*
