<?xml version="1.0" standalone="no"?>
 <!DOCTYPE svg PUBLIC "-//W3C//DTD SVG 1.1//EN" 
 "http://www.w3.org/Graphics/SVG/1.1/DTD/svg11.dtd"> 
<svg
  xmlns:svg="http://www.w3.org/2000/svg"
  xmlns="http://www.w3.org/2000/svg"
  xmlns:xlink="http://www.w3.org/1999/xlink"
  version="1.1"
  width="29.700220cm" height="21.000720cm" viewBox="0 0 116930 82680">
<title>SVG Picture created as temp sensor-NPTH-drl_map.svg date 2021/07/14 09:57:29 </title>
  <desc>Picture generated by PCBNEW </desc>
<g style="fill:#000000; fill-opacity:1;stroke:#000000; stroke-opacity:1;
stroke-linecap:round; stroke-linejoin:round;"
 transform="translate(0 0) scale(1 1)">
</g>
<g style="fill:#000000; fill-opacity:0.0; 
stroke:#000000; stroke-width:-0.000393701; stroke-opacity:1; 
stroke-linecap:round; stroke-linejoin:round;">
</g>
<g style="fill:#000000; fill-opacity:0.0; 
stroke:#000000; stroke-width:59.0551; stroke-opacity:1; 
stroke-linecap:round; stroke-linejoin:round;">
<path d="M47534.3 33619.8 A585.029 585.029 0.0 0 0 48105.6 34567.9" />
<path d="M50826.9 33075.8 A583.012 583.012 0.0 0 0 50256.2 32128" />
</g>
<g style="fill:#000000; fill-opacity:0.0; 
stroke:#000000; stroke-width:19.685; stroke-opacity:1; 
stroke-linecap:round; stroke-linejoin:round;">
<path d="M50256.2 32128 A4039.03 4039.03 0.0 0 0 47535.3 33620.6" />
<path d="M50826.9 33075.8 A4037.4 4037.4 0.0 0 0 48105.6 34567.9" />
<path d="M63311.7 34567.9 A4037.4 4037.4 0.0 0 0 60590.4 33075.8" />
<path d="M63882 33620.6 A4039.03 4039.03 0.0 0 0 61161.1 32128" />
</g>
<g style="fill:#000000; fill-opacity:0.0; 
stroke:#000000; stroke-width:59.0551; stroke-opacity:1; 
stroke-linecap:round; stroke-linejoin:round;">
<path d="M63311.7 34567.9 A585.029 585.029 0.0 0 0 63883 33619.8" />
<path d="M61161.1 32128 A583.012 583.012 0.0 0 0 60590.4 33075.8" />
</g>
<g style="fill:#000000; fill-opacity:0.0; 
stroke:#000000; stroke-width:19.685; stroke-opacity:1; 
stroke-linecap:round; stroke-linejoin:round;">
<path d="M60449.2 41376.4 A4900 4900 0.0 0 0 65026.8 38224.4" />
<path d="M58749 33876
L51749 33876
" />
<path d="M51749 33876
L51749 31576
" />
<path d="M65025 34724
L64848 34724
" />
<path d="M64849 38224
L64848 34724
" />
<path d="M65025.3 34724.5 A4900 4900 0.0 0 0 60449.2 31576.4" />
<path d="M60449 41376
L51068 41374
" />
<path d="M58749 31576
L58749 33876
" />
<path d="M51749 31576
L50949 31576
" />
<path d="M60449 31576
L58749 31576
" />
<path d="M64849 38224
L65026 38224
" />
<path d="M50949.2 31576.4 A4900 4900 0.0 1 0 51068.9 41374.9" />
</g>
<g style="fill:#000000; fill-opacity:0.0; 
stroke:#000000; stroke-width:78.7402; stroke-opacity:1; 
stroke-linecap:round; stroke-linejoin:round;">
</g>
<g style="fill:#000000; fill-opacity:0.0; 
stroke:#000000; stroke-width:118.11; stroke-opacity:1; 
stroke-linecap:round; stroke-linejoin:round;">
<text x="46826.8" y="43276"
textLength="8779.53" font-size="1574.8" lengthAdjust="spacingAndGlyphs"
text-anchor="start" opacity="0">Drill Map:</text>
<path d="M47167 43219
L47167 42038
L47448 42038
L47616 42094
L47729 42207
L47785 42319
L47841 42544
L47841 42713
L47785 42938
L47729 43051
L47616 43163
L47448 43219
L47167 43219
" />
<path d="M48348 43219
L48348 42432
" />
<path d="M48348 42657
L48404 42544
L48460 42488
L48573 42432
L48685 42432
" />
<path d="M49079 43219
L49079 42432
" />
<path d="M49079 42038
L49023 42094
L49079 42151
L49135 42094
L49079 42038
L49079 42151
" />
<path d="M49810 43219
L49697 43163
L49641 43051
L49641 42038
" />
<path d="M50429 43219
L50316 43163
L50260 43051
L50260 42038
" />
<path d="M51778 43219
L51778 42038
L52172 42882
L52566 42038
L52566 43219
" />
<path d="M53634 43219
L53634 42601
L53578 42488
L53466 42432
L53241 42432
L53128 42488
" />
<path d="M53634 43163
L53522 43219
L53241 43219
L53128 43163
L53072 43051
L53072 42938
L53128 42826
L53241 42769
L53522 42769
L53634 42713
" />
<path d="M54197 42432
L54197 43613
" />
<path d="M54197 42488
L54309 42432
L54534 42432
L54647 42488
L54703 42544
L54759 42657
L54759 42994
L54703 43107
L54647 43163
L54534 43219
L54309 43219
L54197 43163
" />
<path d="M55266 43107
L55322 43163
L55266 43219
L55209 43163
L55266 43107
L55266 43219
" />
<path d="M55266 42488
L55322 42544
L55266 42601
L55209 42544
L55266 42488
L55266 42601
" />
</g> 
</svg>
