G04 #@! TF.GenerationSoftware,KiCad,Pcbnew,(6.0.0)*
G04 #@! TF.CreationDate,2022-03-23T01:08:54-05:00*
G04 #@! TF.ProjectId,temp sensor,74656d70-2073-4656-9e73-6f722e6b6963,0.3*
G04 #@! TF.SameCoordinates,Original*
G04 #@! TF.FileFunction,AssemblyDrawing,Top*
%FSLAX45Y45*%
G04 Gerber Fmt 4.5, Leading zero omitted, Abs format (unit mm)*
G04 Created by KiCad (PCBNEW (6.0.0)) date 2022-03-23 01:08:54*
%MOMM*%
%LPD*%
G01*
G04 APERTURE LIST*
%ADD10C,0.150000*%
%ADD11C,0.075000*%
%ADD12C,0.040000*%
%ADD13C,0.080000*%
%ADD14C,0.254000*%
%ADD15C,0.120000*%
%ADD16C,0.060000*%
%ADD17C,0.100000*%
%ADD18C,0.127000*%
%ADD19C,0.200000*%
G04 APERTURE END LIST*
D10*
G04 #@! TO.C,U5*
X15800476Y-9767048D02*
X15805238Y-9752762D01*
X15805238Y-9728952D01*
X15800476Y-9719429D01*
X15795714Y-9714667D01*
X15786190Y-9709905D01*
X15776667Y-9709905D01*
X15767143Y-9714667D01*
X15762381Y-9719429D01*
X15757619Y-9728952D01*
X15752857Y-9748000D01*
X15748095Y-9757524D01*
X15743333Y-9762286D01*
X15733809Y-9767048D01*
X15724286Y-9767048D01*
X15714762Y-9762286D01*
X15710000Y-9757524D01*
X15705238Y-9748000D01*
X15705238Y-9724190D01*
X15710000Y-9709905D01*
X15805238Y-9667048D02*
X15705238Y-9667048D01*
X15805238Y-9609905D01*
X15705238Y-9609905D01*
X15705238Y-9519429D02*
X15705238Y-9538476D01*
X15710000Y-9548000D01*
X15714762Y-9552762D01*
X15729048Y-9562286D01*
X15748095Y-9567048D01*
X15786190Y-9567048D01*
X15795714Y-9562286D01*
X15800476Y-9557524D01*
X15805238Y-9548000D01*
X15805238Y-9528952D01*
X15800476Y-9519429D01*
X15795714Y-9514667D01*
X15786190Y-9509905D01*
X15762381Y-9509905D01*
X15752857Y-9514667D01*
X15748095Y-9519429D01*
X15743333Y-9528952D01*
X15743333Y-9548000D01*
X15748095Y-9557524D01*
X15752857Y-9562286D01*
X15762381Y-9567048D01*
X15705238Y-9419429D02*
X15705238Y-9467048D01*
X15752857Y-9471810D01*
X15748095Y-9467048D01*
X15743333Y-9457524D01*
X15743333Y-9433714D01*
X15748095Y-9424190D01*
X15752857Y-9419429D01*
X15762381Y-9414667D01*
X15786190Y-9414667D01*
X15795714Y-9419429D01*
X15800476Y-9424190D01*
X15805238Y-9433714D01*
X15805238Y-9457524D01*
X15800476Y-9467048D01*
X15795714Y-9471810D01*
X15714762Y-9376571D02*
X15710000Y-9371810D01*
X15705238Y-9362286D01*
X15705238Y-9338476D01*
X15710000Y-9328952D01*
X15714762Y-9324190D01*
X15724286Y-9319429D01*
X15733809Y-9319429D01*
X15748095Y-9324190D01*
X15805238Y-9381333D01*
X15805238Y-9319429D01*
X15714762Y-9281333D02*
X15710000Y-9276571D01*
X15705238Y-9267048D01*
X15705238Y-9243238D01*
X15710000Y-9233714D01*
X15714762Y-9228952D01*
X15724286Y-9224190D01*
X15733809Y-9224190D01*
X15748095Y-9228952D01*
X15805238Y-9286095D01*
X15805238Y-9224190D01*
X15705238Y-9162286D02*
X15705238Y-9152762D01*
X15710000Y-9143238D01*
X15714762Y-9138476D01*
X15724286Y-9133714D01*
X15743333Y-9128952D01*
X15767143Y-9128952D01*
X15786190Y-9133714D01*
X15795714Y-9138476D01*
X15800476Y-9143238D01*
X15805238Y-9152762D01*
X15805238Y-9162286D01*
X15800476Y-9171810D01*
X15795714Y-9176571D01*
X15786190Y-9181333D01*
X15767143Y-9186095D01*
X15743333Y-9186095D01*
X15724286Y-9181333D01*
X15714762Y-9176571D01*
X15710000Y-9171810D01*
X15705238Y-9162286D01*
D11*
X15263927Y-9452097D02*
X15304403Y-9452097D01*
X15309165Y-9449716D01*
X15311546Y-9447335D01*
X15313927Y-9442573D01*
X15313927Y-9433050D01*
X15311546Y-9428288D01*
X15309165Y-9425907D01*
X15304403Y-9423526D01*
X15263927Y-9423526D01*
X15263927Y-9375907D02*
X15263927Y-9399716D01*
X15287736Y-9402097D01*
X15285356Y-9399716D01*
X15282975Y-9394954D01*
X15282975Y-9383050D01*
X15285356Y-9378288D01*
X15287736Y-9375907D01*
X15292498Y-9373526D01*
X15304403Y-9373526D01*
X15309165Y-9375907D01*
X15311546Y-9378288D01*
X15313927Y-9383050D01*
X15313927Y-9394954D01*
X15311546Y-9399716D01*
X15309165Y-9402097D01*
D10*
G04 #@! TO.C,U3*
X12607905Y-8956157D02*
X12622190Y-8960919D01*
X12626952Y-8965681D01*
X12631714Y-8975205D01*
X12631714Y-8989490D01*
X12626952Y-8999014D01*
X12622190Y-9003776D01*
X12612667Y-9008538D01*
X12574571Y-9008538D01*
X12574571Y-8908538D01*
X12607905Y-8908538D01*
X12617428Y-8913300D01*
X12622190Y-8918062D01*
X12626952Y-8927586D01*
X12626952Y-8937110D01*
X12622190Y-8946633D01*
X12617428Y-8951395D01*
X12607905Y-8956157D01*
X12574571Y-8956157D01*
X12674571Y-9008538D02*
X12674571Y-8908538D01*
X12707905Y-8979967D01*
X12741238Y-8908538D01*
X12741238Y-9008538D01*
X12788857Y-8956157D02*
X12822190Y-8956157D01*
X12836476Y-9008538D02*
X12788857Y-9008538D01*
X12788857Y-8908538D01*
X12836476Y-8908538D01*
X12874571Y-8918062D02*
X12879333Y-8913300D01*
X12888857Y-8908538D01*
X12912667Y-8908538D01*
X12922190Y-8913300D01*
X12926952Y-8918062D01*
X12931714Y-8927586D01*
X12931714Y-8937110D01*
X12926952Y-8951395D01*
X12869809Y-9008538D01*
X12931714Y-9008538D01*
X12988857Y-8951395D02*
X12979333Y-8946633D01*
X12974571Y-8941871D01*
X12969809Y-8932348D01*
X12969809Y-8927586D01*
X12974571Y-8918062D01*
X12979333Y-8913300D01*
X12988857Y-8908538D01*
X13007905Y-8908538D01*
X13017428Y-8913300D01*
X13022190Y-8918062D01*
X13026952Y-8927586D01*
X13026952Y-8932348D01*
X13022190Y-8941871D01*
X13017428Y-8946633D01*
X13007905Y-8951395D01*
X12988857Y-8951395D01*
X12979333Y-8956157D01*
X12974571Y-8960919D01*
X12969809Y-8970443D01*
X12969809Y-8989490D01*
X12974571Y-8999014D01*
X12979333Y-9003776D01*
X12988857Y-9008538D01*
X13007905Y-9008538D01*
X13017428Y-9003776D01*
X13022190Y-8999014D01*
X13026952Y-8989490D01*
X13026952Y-8970443D01*
X13022190Y-8960919D01*
X13017428Y-8956157D01*
X13007905Y-8951395D01*
X13088857Y-8908538D02*
X13098381Y-8908538D01*
X13107905Y-8913300D01*
X13112667Y-8918062D01*
X13117428Y-8927586D01*
X13122190Y-8946633D01*
X13122190Y-8970443D01*
X13117428Y-8989490D01*
X13112667Y-8999014D01*
X13107905Y-9003776D01*
X13098381Y-9008538D01*
X13088857Y-9008538D01*
X13079333Y-9003776D01*
X13074571Y-8999014D01*
X13069809Y-8989490D01*
X13065048Y-8970443D01*
X13065048Y-8946633D01*
X13069809Y-8927586D01*
X13074571Y-8918062D01*
X13079333Y-8913300D01*
X13088857Y-8908538D01*
D11*
X12825105Y-9135619D02*
X12825105Y-9176095D01*
X12827486Y-9180857D01*
X12829867Y-9183238D01*
X12834628Y-9185619D01*
X12844152Y-9185619D01*
X12848914Y-9183238D01*
X12851295Y-9180857D01*
X12853676Y-9176095D01*
X12853676Y-9135619D01*
X12872724Y-9135619D02*
X12903676Y-9135619D01*
X12887009Y-9154667D01*
X12894152Y-9154667D01*
X12898914Y-9157048D01*
X12901295Y-9159429D01*
X12903676Y-9164190D01*
X12903676Y-9176095D01*
X12901295Y-9180857D01*
X12898914Y-9183238D01*
X12894152Y-9185619D01*
X12879867Y-9185619D01*
X12875105Y-9183238D01*
X12872724Y-9180857D01*
D10*
G04 #@! TO.C,C2*
X14296038Y-10360429D02*
X14296038Y-10350905D01*
X14300800Y-10341381D01*
X14305562Y-10336619D01*
X14315086Y-10331857D01*
X14334133Y-10327095D01*
X14357943Y-10327095D01*
X14376990Y-10331857D01*
X14386514Y-10336619D01*
X14391276Y-10341381D01*
X14396038Y-10350905D01*
X14396038Y-10360429D01*
X14391276Y-10369952D01*
X14386514Y-10374714D01*
X14376990Y-10379476D01*
X14357943Y-10384238D01*
X14334133Y-10384238D01*
X14315086Y-10379476D01*
X14305562Y-10374714D01*
X14300800Y-10369952D01*
X14296038Y-10360429D01*
X14386514Y-10284238D02*
X14391276Y-10279476D01*
X14396038Y-10284238D01*
X14391276Y-10289000D01*
X14386514Y-10284238D01*
X14396038Y-10284238D01*
X14396038Y-10184238D02*
X14396038Y-10241381D01*
X14396038Y-10212810D02*
X14296038Y-10212810D01*
X14310324Y-10222333D01*
X14319848Y-10231857D01*
X14324609Y-10241381D01*
X14329371Y-10098524D02*
X14396038Y-10098524D01*
X14329371Y-10141381D02*
X14381752Y-10141381D01*
X14391276Y-10136619D01*
X14396038Y-10127095D01*
X14396038Y-10112810D01*
X14391276Y-10103286D01*
X14386514Y-10098524D01*
D12*
X14475728Y-10243167D02*
X14476919Y-10244357D01*
X14478109Y-10247929D01*
X14478109Y-10250310D01*
X14476919Y-10253881D01*
X14474538Y-10256262D01*
X14472157Y-10257452D01*
X14467395Y-10258643D01*
X14463824Y-10258643D01*
X14459062Y-10257452D01*
X14456681Y-10256262D01*
X14454300Y-10253881D01*
X14453109Y-10250310D01*
X14453109Y-10247929D01*
X14454300Y-10244357D01*
X14455490Y-10243167D01*
X14455490Y-10233643D02*
X14454300Y-10232452D01*
X14453109Y-10230071D01*
X14453109Y-10224119D01*
X14454300Y-10221738D01*
X14455490Y-10220548D01*
X14457871Y-10219357D01*
X14460252Y-10219357D01*
X14463824Y-10220548D01*
X14478109Y-10234833D01*
X14478109Y-10219357D01*
D10*
G04 #@! TO.C,L2*
X15138381Y-10442762D02*
X15143143Y-10438000D01*
X15152667Y-10433238D01*
X15176476Y-10433238D01*
X15186000Y-10438000D01*
X15190762Y-10442762D01*
X15195524Y-10452286D01*
X15195524Y-10461810D01*
X15190762Y-10476095D01*
X15133619Y-10533238D01*
X15195524Y-10533238D01*
X15238381Y-10523714D02*
X15243143Y-10528476D01*
X15238381Y-10533238D01*
X15233619Y-10528476D01*
X15238381Y-10523714D01*
X15238381Y-10533238D01*
X15281238Y-10442762D02*
X15286000Y-10438000D01*
X15295524Y-10433238D01*
X15319333Y-10433238D01*
X15328857Y-10438000D01*
X15333619Y-10442762D01*
X15338381Y-10452286D01*
X15338381Y-10461810D01*
X15333619Y-10476095D01*
X15276476Y-10533238D01*
X15338381Y-10533238D01*
X15424095Y-10466571D02*
X15424095Y-10533238D01*
X15381238Y-10466571D02*
X15381238Y-10518952D01*
X15386000Y-10528476D01*
X15395524Y-10533238D01*
X15409809Y-10533238D01*
X15419333Y-10528476D01*
X15424095Y-10523714D01*
X15471714Y-10533238D02*
X15471714Y-10433238D01*
X15471714Y-10480857D02*
X15528857Y-10480857D01*
X15528857Y-10533238D02*
X15528857Y-10433238D01*
X15286633Y-10237338D02*
X15239014Y-10237338D01*
X15239014Y-10137338D01*
X15315205Y-10146862D02*
X15319967Y-10142100D01*
X15329490Y-10137338D01*
X15353300Y-10137338D01*
X15362824Y-10142100D01*
X15367586Y-10146862D01*
X15372348Y-10156386D01*
X15372348Y-10165910D01*
X15367586Y-10180195D01*
X15310443Y-10237338D01*
X15372348Y-10237338D01*
G04 #@! TO.C,R8*
X14631133Y-10173238D02*
X14612086Y-10173238D01*
X14602562Y-10178000D01*
X14597800Y-10182762D01*
X14588276Y-10197048D01*
X14583514Y-10216095D01*
X14583514Y-10254190D01*
X14588276Y-10263714D01*
X14593038Y-10268476D01*
X14602562Y-10273238D01*
X14621609Y-10273238D01*
X14631133Y-10268476D01*
X14635895Y-10263714D01*
X14640657Y-10254190D01*
X14640657Y-10230381D01*
X14635895Y-10220857D01*
X14631133Y-10216095D01*
X14621609Y-10211333D01*
X14602562Y-10211333D01*
X14593038Y-10216095D01*
X14588276Y-10220857D01*
X14583514Y-10230381D01*
X14697800Y-10216095D02*
X14688276Y-10211333D01*
X14683514Y-10206571D01*
X14678752Y-10197048D01*
X14678752Y-10192286D01*
X14683514Y-10182762D01*
X14688276Y-10178000D01*
X14697800Y-10173238D01*
X14716848Y-10173238D01*
X14726371Y-10178000D01*
X14731133Y-10182762D01*
X14735895Y-10192286D01*
X14735895Y-10197048D01*
X14731133Y-10206571D01*
X14726371Y-10211333D01*
X14716848Y-10216095D01*
X14697800Y-10216095D01*
X14688276Y-10220857D01*
X14683514Y-10225619D01*
X14678752Y-10235143D01*
X14678752Y-10254190D01*
X14683514Y-10263714D01*
X14688276Y-10268476D01*
X14697800Y-10273238D01*
X14716848Y-10273238D01*
X14726371Y-10268476D01*
X14731133Y-10263714D01*
X14735895Y-10254190D01*
X14735895Y-10235143D01*
X14731133Y-10225619D01*
X14726371Y-10220857D01*
X14716848Y-10216095D01*
X14797800Y-10173238D02*
X14807324Y-10173238D01*
X14816848Y-10178000D01*
X14821609Y-10182762D01*
X14826371Y-10192286D01*
X14831133Y-10211333D01*
X14831133Y-10235143D01*
X14826371Y-10254190D01*
X14821609Y-10263714D01*
X14816848Y-10268476D01*
X14807324Y-10273238D01*
X14797800Y-10273238D01*
X14788276Y-10268476D01*
X14783514Y-10263714D01*
X14778752Y-10254190D01*
X14773990Y-10235143D01*
X14773990Y-10211333D01*
X14778752Y-10192286D01*
X14783514Y-10182762D01*
X14788276Y-10178000D01*
X14797800Y-10173238D01*
X14873990Y-10273238D02*
X14873990Y-10173238D01*
X14883514Y-10235143D02*
X14912086Y-10273238D01*
X14912086Y-10206571D02*
X14873990Y-10244667D01*
D12*
X14743467Y-10122762D02*
X14734800Y-10110381D01*
X14728609Y-10122762D02*
X14728609Y-10096762D01*
X14738514Y-10096762D01*
X14740990Y-10098000D01*
X14742228Y-10099238D01*
X14743467Y-10101714D01*
X14743467Y-10105429D01*
X14742228Y-10107905D01*
X14740990Y-10109143D01*
X14738514Y-10110381D01*
X14728609Y-10110381D01*
X14758324Y-10107905D02*
X14755848Y-10106667D01*
X14754609Y-10105429D01*
X14753371Y-10102952D01*
X14753371Y-10101714D01*
X14754609Y-10099238D01*
X14755848Y-10098000D01*
X14758324Y-10096762D01*
X14763276Y-10096762D01*
X14765752Y-10098000D01*
X14766990Y-10099238D01*
X14768228Y-10101714D01*
X14768228Y-10102952D01*
X14766990Y-10105429D01*
X14765752Y-10106667D01*
X14763276Y-10107905D01*
X14758324Y-10107905D01*
X14755848Y-10109143D01*
X14754609Y-10110381D01*
X14753371Y-10112857D01*
X14753371Y-10117810D01*
X14754609Y-10120286D01*
X14755848Y-10121524D01*
X14758324Y-10122762D01*
X14763276Y-10122762D01*
X14765752Y-10121524D01*
X14766990Y-10120286D01*
X14768228Y-10117810D01*
X14768228Y-10112857D01*
X14766990Y-10110381D01*
X14765752Y-10109143D01*
X14763276Y-10107905D01*
D10*
G04 #@! TO.C,R1*
X14984585Y-9103793D02*
X14984585Y-9170460D01*
X14960776Y-9065698D02*
X14936966Y-9137127D01*
X14998871Y-9137127D01*
X15041728Y-9170460D02*
X15060776Y-9170460D01*
X15070300Y-9165698D01*
X15075062Y-9160936D01*
X15084585Y-9146651D01*
X15089347Y-9127603D01*
X15089347Y-9089508D01*
X15084585Y-9079984D01*
X15079824Y-9075222D01*
X15070300Y-9070460D01*
X15051252Y-9070460D01*
X15041728Y-9075222D01*
X15036966Y-9079984D01*
X15032204Y-9089508D01*
X15032204Y-9113317D01*
X15036966Y-9122841D01*
X15041728Y-9127603D01*
X15051252Y-9132365D01*
X15070300Y-9132365D01*
X15079824Y-9127603D01*
X15084585Y-9122841D01*
X15089347Y-9113317D01*
X15136966Y-9170460D02*
X15156014Y-9170460D01*
X15165538Y-9165698D01*
X15170300Y-9160936D01*
X15179824Y-9146651D01*
X15184585Y-9127603D01*
X15184585Y-9089508D01*
X15179824Y-9079984D01*
X15175062Y-9075222D01*
X15165538Y-9070460D01*
X15146490Y-9070460D01*
X15136966Y-9075222D01*
X15132204Y-9079984D01*
X15127443Y-9089508D01*
X15127443Y-9113317D01*
X15132204Y-9122841D01*
X15136966Y-9127603D01*
X15146490Y-9132365D01*
X15165538Y-9132365D01*
X15175062Y-9127603D01*
X15179824Y-9122841D01*
X15184585Y-9113317D01*
X15284585Y-9170460D02*
X15251252Y-9122841D01*
X15227443Y-9170460D02*
X15227443Y-9070460D01*
X15265538Y-9070460D01*
X15275062Y-9075222D01*
X15279824Y-9079984D01*
X15284585Y-9089508D01*
X15284585Y-9103793D01*
X15279824Y-9113317D01*
X15275062Y-9118079D01*
X15265538Y-9122841D01*
X15227443Y-9122841D01*
D12*
X15106443Y-9019984D02*
X15097776Y-9007603D01*
X15091585Y-9019984D02*
X15091585Y-8993984D01*
X15101490Y-8993984D01*
X15103966Y-8995222D01*
X15105204Y-8996460D01*
X15106443Y-8998936D01*
X15106443Y-9002651D01*
X15105204Y-9005127D01*
X15103966Y-9006365D01*
X15101490Y-9007603D01*
X15091585Y-9007603D01*
X15131204Y-9019984D02*
X15116347Y-9019984D01*
X15123776Y-9019984D02*
X15123776Y-8993984D01*
X15121300Y-8997698D01*
X15118824Y-9000174D01*
X15116347Y-9001412D01*
D10*
G04 #@! TO.C,R3*
X11900990Y-9334762D02*
X11905752Y-9330000D01*
X11915276Y-9325238D01*
X11939086Y-9325238D01*
X11948609Y-9330000D01*
X11953371Y-9334762D01*
X11958133Y-9344286D01*
X11958133Y-9353810D01*
X11953371Y-9368095D01*
X11896228Y-9425238D01*
X11958133Y-9425238D01*
X12020038Y-9325238D02*
X12029562Y-9325238D01*
X12039086Y-9330000D01*
X12043848Y-9334762D01*
X12048609Y-9344286D01*
X12053371Y-9363333D01*
X12053371Y-9387143D01*
X12048609Y-9406190D01*
X12043848Y-9415714D01*
X12039086Y-9420476D01*
X12029562Y-9425238D01*
X12020038Y-9425238D01*
X12010514Y-9420476D01*
X12005752Y-9415714D01*
X12000990Y-9406190D01*
X11996228Y-9387143D01*
X11996228Y-9363333D01*
X12000990Y-9344286D01*
X12005752Y-9334762D01*
X12010514Y-9330000D01*
X12020038Y-9325238D01*
X12115276Y-9325238D02*
X12124800Y-9325238D01*
X12134324Y-9330000D01*
X12139086Y-9334762D01*
X12143848Y-9344286D01*
X12148609Y-9363333D01*
X12148609Y-9387143D01*
X12143848Y-9406190D01*
X12139086Y-9415714D01*
X12134324Y-9420476D01*
X12124800Y-9425238D01*
X12115276Y-9425238D01*
X12105752Y-9420476D01*
X12100990Y-9415714D01*
X12096228Y-9406190D01*
X12091467Y-9387143D01*
X12091467Y-9363333D01*
X12096228Y-9344286D01*
X12100990Y-9334762D01*
X12105752Y-9330000D01*
X12115276Y-9325238D01*
D12*
X12020467Y-9508762D02*
X12011800Y-9496381D01*
X12005609Y-9508762D02*
X12005609Y-9482762D01*
X12015514Y-9482762D01*
X12017990Y-9484000D01*
X12019228Y-9485238D01*
X12020467Y-9487714D01*
X12020467Y-9491429D01*
X12019228Y-9493905D01*
X12017990Y-9495143D01*
X12015514Y-9496381D01*
X12005609Y-9496381D01*
X12029133Y-9482762D02*
X12045228Y-9482762D01*
X12036562Y-9492667D01*
X12040276Y-9492667D01*
X12042752Y-9493905D01*
X12043990Y-9495143D01*
X12045228Y-9497619D01*
X12045228Y-9503810D01*
X12043990Y-9506286D01*
X12042752Y-9507524D01*
X12040276Y-9508762D01*
X12032848Y-9508762D01*
X12030371Y-9507524D01*
X12029133Y-9506286D01*
D10*
G04 #@! TO.C,R15*
X12060038Y-8945667D02*
X12060038Y-9002810D01*
X12060038Y-8974238D02*
X11960038Y-8974238D01*
X11974324Y-8983762D01*
X11983848Y-8993286D01*
X11988609Y-9002810D01*
X11960038Y-8883762D02*
X11960038Y-8874238D01*
X11964800Y-8864714D01*
X11969562Y-8859952D01*
X11979086Y-8855190D01*
X11998133Y-8850429D01*
X12021943Y-8850429D01*
X12040990Y-8855190D01*
X12050514Y-8859952D01*
X12055276Y-8864714D01*
X12060038Y-8874238D01*
X12060038Y-8883762D01*
X12055276Y-8893286D01*
X12050514Y-8898048D01*
X12040990Y-8902810D01*
X12021943Y-8907571D01*
X11998133Y-8907571D01*
X11979086Y-8902810D01*
X11969562Y-8898048D01*
X11964800Y-8893286D01*
X11960038Y-8883762D01*
X11960038Y-8788524D02*
X11960038Y-8779000D01*
X11964800Y-8769476D01*
X11969562Y-8764714D01*
X11979086Y-8759952D01*
X11998133Y-8755190D01*
X12021943Y-8755190D01*
X12040990Y-8759952D01*
X12050514Y-8764714D01*
X12055276Y-8769476D01*
X12060038Y-8779000D01*
X12060038Y-8788524D01*
X12055276Y-8798048D01*
X12050514Y-8802810D01*
X12040990Y-8807571D01*
X12021943Y-8812333D01*
X11998133Y-8812333D01*
X11979086Y-8807571D01*
X11969562Y-8802810D01*
X11964800Y-8798048D01*
X11960038Y-8788524D01*
D12*
X11909562Y-8895714D02*
X11897181Y-8904381D01*
X11909562Y-8910571D02*
X11883562Y-8910571D01*
X11883562Y-8900667D01*
X11884800Y-8898190D01*
X11886038Y-8896952D01*
X11888514Y-8895714D01*
X11892228Y-8895714D01*
X11894705Y-8896952D01*
X11895943Y-8898190D01*
X11897181Y-8900667D01*
X11897181Y-8910571D01*
X11909562Y-8870952D02*
X11909562Y-8885810D01*
X11909562Y-8878381D02*
X11883562Y-8878381D01*
X11887276Y-8880857D01*
X11889752Y-8883333D01*
X11890990Y-8885810D01*
X11883562Y-8847429D02*
X11883562Y-8859810D01*
X11895943Y-8861048D01*
X11894705Y-8859810D01*
X11893467Y-8857333D01*
X11893467Y-8851143D01*
X11894705Y-8848667D01*
X11895943Y-8847429D01*
X11898419Y-8846190D01*
X11904609Y-8846190D01*
X11907086Y-8847429D01*
X11908324Y-8848667D01*
X11909562Y-8851143D01*
X11909562Y-8857333D01*
X11908324Y-8859810D01*
X11907086Y-8861048D01*
D10*
G04 #@! TO.C,R13*
X14873609Y-9355762D02*
X14878371Y-9351000D01*
X14887895Y-9346238D01*
X14911705Y-9346238D01*
X14921228Y-9351000D01*
X14925990Y-9355762D01*
X14930752Y-9365286D01*
X14930752Y-9374810D01*
X14925990Y-9389095D01*
X14868848Y-9446238D01*
X14930752Y-9446238D01*
X14964086Y-9346238D02*
X15030752Y-9346238D01*
X14987895Y-9446238D01*
D12*
X14933086Y-9529762D02*
X14924419Y-9517381D01*
X14918228Y-9529762D02*
X14918228Y-9503762D01*
X14928133Y-9503762D01*
X14930609Y-9505000D01*
X14931848Y-9506238D01*
X14933086Y-9508714D01*
X14933086Y-9512429D01*
X14931848Y-9514905D01*
X14930609Y-9516143D01*
X14928133Y-9517381D01*
X14918228Y-9517381D01*
X14957848Y-9529762D02*
X14942990Y-9529762D01*
X14950419Y-9529762D02*
X14950419Y-9503762D01*
X14947943Y-9507476D01*
X14945467Y-9509952D01*
X14942990Y-9511190D01*
X14966514Y-9503762D02*
X14982609Y-9503762D01*
X14973943Y-9513667D01*
X14977657Y-9513667D01*
X14980133Y-9514905D01*
X14981371Y-9516143D01*
X14982609Y-9518619D01*
X14982609Y-9524810D01*
X14981371Y-9527286D01*
X14980133Y-9528524D01*
X14977657Y-9529762D01*
X14970228Y-9529762D01*
X14967752Y-9528524D01*
X14966514Y-9527286D01*
D10*
G04 #@! TO.C,U2*
X15578343Y-10381268D02*
X15635486Y-10381268D01*
X15606914Y-10481268D02*
X15606914Y-10381268D01*
X15716438Y-10481268D02*
X15668819Y-10481268D01*
X15668819Y-10381268D01*
X15735486Y-10381268D02*
X15768819Y-10481268D01*
X15802152Y-10381268D01*
X15878343Y-10381268D02*
X15859295Y-10381268D01*
X15849771Y-10386030D01*
X15845009Y-10390792D01*
X15835486Y-10405078D01*
X15830724Y-10424125D01*
X15830724Y-10462220D01*
X15835486Y-10471744D01*
X15840248Y-10476506D01*
X15849771Y-10481268D01*
X15868819Y-10481268D01*
X15878343Y-10476506D01*
X15883105Y-10471744D01*
X15887867Y-10462220D01*
X15887867Y-10438411D01*
X15883105Y-10428887D01*
X15878343Y-10424125D01*
X15868819Y-10419363D01*
X15849771Y-10419363D01*
X15840248Y-10424125D01*
X15835486Y-10428887D01*
X15830724Y-10438411D01*
X15925962Y-10390792D02*
X15930724Y-10386030D01*
X15940248Y-10381268D01*
X15964057Y-10381268D01*
X15973581Y-10386030D01*
X15978343Y-10390792D01*
X15983105Y-10400316D01*
X15983105Y-10409840D01*
X15978343Y-10424125D01*
X15921200Y-10481268D01*
X15983105Y-10481268D01*
X16073581Y-10381268D02*
X16025962Y-10381268D01*
X16021200Y-10428887D01*
X16025962Y-10424125D01*
X16035486Y-10419363D01*
X16059295Y-10419363D01*
X16068819Y-10424125D01*
X16073581Y-10428887D01*
X16078343Y-10438411D01*
X16078343Y-10462220D01*
X16073581Y-10471744D01*
X16068819Y-10476506D01*
X16059295Y-10481268D01*
X16035486Y-10481268D01*
X16025962Y-10476506D01*
X16021200Y-10471744D01*
X16164057Y-10381268D02*
X16145009Y-10381268D01*
X16135486Y-10386030D01*
X16130724Y-10390792D01*
X16121200Y-10405078D01*
X16116438Y-10424125D01*
X16116438Y-10462220D01*
X16121200Y-10471744D01*
X16125962Y-10476506D01*
X16135486Y-10481268D01*
X16154533Y-10481268D01*
X16164057Y-10476506D01*
X16168819Y-10471744D01*
X16173581Y-10462220D01*
X16173581Y-10438411D01*
X16168819Y-10428887D01*
X16164057Y-10424125D01*
X16154533Y-10419363D01*
X16135486Y-10419363D01*
X16125962Y-10424125D01*
X16121200Y-10428887D01*
X16116438Y-10438411D01*
X16221200Y-10481268D02*
X16240248Y-10481268D01*
X16249771Y-10476506D01*
X16254533Y-10471744D01*
X16264057Y-10457459D01*
X16268819Y-10438411D01*
X16268819Y-10400316D01*
X16264057Y-10390792D01*
X16259295Y-10386030D01*
X16249771Y-10381268D01*
X16230724Y-10381268D01*
X16221200Y-10386030D01*
X16216438Y-10390792D01*
X16211676Y-10400316D01*
X16211676Y-10424125D01*
X16216438Y-10433649D01*
X16221200Y-10438411D01*
X16230724Y-10443173D01*
X16249771Y-10443173D01*
X16259295Y-10438411D01*
X16264057Y-10433649D01*
X16268819Y-10424125D01*
X16311676Y-10481268D02*
X16311676Y-10381268D01*
X16335486Y-10381268D01*
X16349771Y-10386030D01*
X16359295Y-10395554D01*
X16364057Y-10405078D01*
X16368819Y-10424125D01*
X16368819Y-10438411D01*
X16364057Y-10457459D01*
X16359295Y-10466982D01*
X16349771Y-10476506D01*
X16335486Y-10481268D01*
X16311676Y-10481268D01*
X16445009Y-10428887D02*
X16459295Y-10433649D01*
X16464057Y-10438411D01*
X16468819Y-10447935D01*
X16468819Y-10462220D01*
X16464057Y-10471744D01*
X16459295Y-10476506D01*
X16449771Y-10481268D01*
X16411676Y-10481268D01*
X16411676Y-10381268D01*
X16445009Y-10381268D01*
X16454533Y-10386030D01*
X16459295Y-10390792D01*
X16464057Y-10400316D01*
X16464057Y-10409840D01*
X16459295Y-10419363D01*
X16454533Y-10424125D01*
X16445009Y-10428887D01*
X16411676Y-10428887D01*
X16497390Y-10381268D02*
X16530724Y-10481268D01*
X16564057Y-10381268D01*
D11*
X15708419Y-10201095D02*
X15748895Y-10201095D01*
X15753657Y-10198714D01*
X15756038Y-10196333D01*
X15758419Y-10191571D01*
X15758419Y-10182048D01*
X15756038Y-10177286D01*
X15753657Y-10174905D01*
X15748895Y-10172524D01*
X15708419Y-10172524D01*
X15713181Y-10151095D02*
X15710800Y-10148714D01*
X15708419Y-10143952D01*
X15708419Y-10132048D01*
X15710800Y-10127286D01*
X15713181Y-10124905D01*
X15717943Y-10122524D01*
X15722705Y-10122524D01*
X15729848Y-10124905D01*
X15758419Y-10153476D01*
X15758419Y-10122524D01*
D10*
G04 #@! TO.C,U1*
X13413676Y-9375967D02*
X13418438Y-9361681D01*
X13418438Y-9337871D01*
X13413676Y-9328348D01*
X13408914Y-9323586D01*
X13399390Y-9318824D01*
X13389867Y-9318824D01*
X13380343Y-9323586D01*
X13375581Y-9328348D01*
X13370819Y-9337871D01*
X13366057Y-9356919D01*
X13361295Y-9366443D01*
X13356533Y-9371205D01*
X13347009Y-9375967D01*
X13337486Y-9375967D01*
X13327962Y-9371205D01*
X13323200Y-9366443D01*
X13318438Y-9356919D01*
X13318438Y-9333110D01*
X13323200Y-9318824D01*
X13418438Y-9275967D02*
X13318438Y-9275967D01*
X13366057Y-9275967D02*
X13366057Y-9218824D01*
X13418438Y-9218824D02*
X13318438Y-9218824D01*
X13318438Y-9185490D02*
X13318438Y-9128348D01*
X13418438Y-9156919D02*
X13318438Y-9156919D01*
X13408914Y-9037871D02*
X13413676Y-9042633D01*
X13418438Y-9056919D01*
X13418438Y-9066443D01*
X13413676Y-9080729D01*
X13404152Y-9090252D01*
X13394628Y-9095014D01*
X13375581Y-9099776D01*
X13361295Y-9099776D01*
X13342248Y-9095014D01*
X13332724Y-9090252D01*
X13323200Y-9080729D01*
X13318438Y-9066443D01*
X13318438Y-9056919D01*
X13323200Y-9042633D01*
X13327962Y-9037871D01*
X13318438Y-9004538D02*
X13318438Y-8942633D01*
X13356533Y-8975967D01*
X13356533Y-8961681D01*
X13361295Y-8952157D01*
X13366057Y-8947395D01*
X13375581Y-8942633D01*
X13399390Y-8942633D01*
X13408914Y-8947395D01*
X13413676Y-8952157D01*
X13418438Y-8961681D01*
X13418438Y-8990252D01*
X13413676Y-8999776D01*
X13408914Y-9004538D01*
D13*
X13113419Y-9202095D02*
X13153895Y-9202095D01*
X13158657Y-9199714D01*
X13161038Y-9197333D01*
X13163419Y-9192571D01*
X13163419Y-9183048D01*
X13161038Y-9178286D01*
X13158657Y-9175905D01*
X13153895Y-9173524D01*
X13113419Y-9173524D01*
X13163419Y-9123524D02*
X13163419Y-9152095D01*
X13163419Y-9137810D02*
X13113419Y-9137810D01*
X13120562Y-9142571D01*
X13125324Y-9147333D01*
X13127705Y-9152095D01*
D10*
G04 #@! TO.C,C8*
X16201381Y-9901571D02*
X16201381Y-9968238D01*
X16177571Y-9863476D02*
X16153762Y-9934905D01*
X16215667Y-9934905D01*
X16253762Y-9958714D02*
X16258524Y-9963476D01*
X16253762Y-9968238D01*
X16249000Y-9963476D01*
X16253762Y-9958714D01*
X16253762Y-9968238D01*
X16291857Y-9868238D02*
X16358524Y-9868238D01*
X16315667Y-9968238D01*
X16439476Y-9901571D02*
X16439476Y-9968238D01*
X16396619Y-9901571D02*
X16396619Y-9953952D01*
X16401381Y-9963476D01*
X16410905Y-9968238D01*
X16425190Y-9968238D01*
X16434714Y-9963476D01*
X16439476Y-9958714D01*
D13*
X15912387Y-9912681D02*
X15910006Y-9915062D01*
X15902863Y-9917443D01*
X15898101Y-9917443D01*
X15890958Y-9915062D01*
X15886196Y-9910300D01*
X15883815Y-9905538D01*
X15881434Y-9896014D01*
X15881434Y-9888872D01*
X15883815Y-9879348D01*
X15886196Y-9874586D01*
X15890958Y-9869824D01*
X15898101Y-9867443D01*
X15902863Y-9867443D01*
X15910006Y-9869824D01*
X15912387Y-9872205D01*
X15940958Y-9888872D02*
X15936196Y-9886491D01*
X15933815Y-9884110D01*
X15931434Y-9879348D01*
X15931434Y-9876967D01*
X15933815Y-9872205D01*
X15936196Y-9869824D01*
X15940958Y-9867443D01*
X15950482Y-9867443D01*
X15955244Y-9869824D01*
X15957625Y-9872205D01*
X15960006Y-9876967D01*
X15960006Y-9879348D01*
X15957625Y-9884110D01*
X15955244Y-9886491D01*
X15950482Y-9888872D01*
X15940958Y-9888872D01*
X15936196Y-9891253D01*
X15933815Y-9893634D01*
X15931434Y-9898395D01*
X15931434Y-9907919D01*
X15933815Y-9912681D01*
X15936196Y-9915062D01*
X15940958Y-9917443D01*
X15950482Y-9917443D01*
X15955244Y-9915062D01*
X15957625Y-9912681D01*
X15960006Y-9907919D01*
X15960006Y-9898395D01*
X15957625Y-9893634D01*
X15955244Y-9891253D01*
X15950482Y-9888872D01*
D10*
G04 #@! TO.C,R11*
X15180096Y-9595478D02*
X15122953Y-9595478D01*
X15151525Y-9595478D02*
X15151525Y-9495478D01*
X15142001Y-9509764D01*
X15132477Y-9519288D01*
X15122953Y-9524050D01*
X15270572Y-9495478D02*
X15222953Y-9495478D01*
X15218192Y-9543097D01*
X15222953Y-9538335D01*
X15232477Y-9533573D01*
X15256287Y-9533573D01*
X15265811Y-9538335D01*
X15270572Y-9543097D01*
X15275334Y-9552621D01*
X15275334Y-9576430D01*
X15270572Y-9585954D01*
X15265811Y-9590716D01*
X15256287Y-9595478D01*
X15232477Y-9595478D01*
X15222953Y-9590716D01*
X15218192Y-9585954D01*
X15318192Y-9595478D02*
X15318192Y-9495478D01*
X15375334Y-9595478D02*
X15332477Y-9538335D01*
X15375334Y-9495478D02*
X15318192Y-9552621D01*
D12*
X15232430Y-9679002D02*
X15223763Y-9666621D01*
X15217572Y-9679002D02*
X15217572Y-9653002D01*
X15227477Y-9653002D01*
X15229953Y-9654240D01*
X15231192Y-9655478D01*
X15232430Y-9657954D01*
X15232430Y-9661669D01*
X15231192Y-9664145D01*
X15229953Y-9665383D01*
X15227477Y-9666621D01*
X15217572Y-9666621D01*
X15257192Y-9679002D02*
X15242334Y-9679002D01*
X15249763Y-9679002D02*
X15249763Y-9653002D01*
X15247287Y-9656716D01*
X15244811Y-9659192D01*
X15242334Y-9660430D01*
X15281953Y-9679002D02*
X15267096Y-9679002D01*
X15274525Y-9679002D02*
X15274525Y-9653002D01*
X15272049Y-9656716D01*
X15269572Y-9659192D01*
X15267096Y-9660430D01*
D10*
G04 #@! TO.C,R14*
X11960133Y-9798238D02*
X11902990Y-9798238D01*
X11931562Y-9798238D02*
X11931562Y-9698238D01*
X11922038Y-9712524D01*
X11912514Y-9722048D01*
X11902990Y-9726810D01*
X12022038Y-9698238D02*
X12031562Y-9698238D01*
X12041086Y-9703000D01*
X12045848Y-9707762D01*
X12050609Y-9717286D01*
X12055371Y-9736333D01*
X12055371Y-9760143D01*
X12050609Y-9779190D01*
X12045848Y-9788714D01*
X12041086Y-9793476D01*
X12031562Y-9798238D01*
X12022038Y-9798238D01*
X12012514Y-9793476D01*
X12007752Y-9788714D01*
X12002990Y-9779190D01*
X11998228Y-9760143D01*
X11998228Y-9736333D01*
X12002990Y-9717286D01*
X12007752Y-9707762D01*
X12012514Y-9703000D01*
X12022038Y-9698238D01*
X12117276Y-9698238D02*
X12126800Y-9698238D01*
X12136324Y-9703000D01*
X12141086Y-9707762D01*
X12145848Y-9717286D01*
X12150609Y-9736333D01*
X12150609Y-9760143D01*
X12145848Y-9779190D01*
X12141086Y-9788714D01*
X12136324Y-9793476D01*
X12126800Y-9798238D01*
X12117276Y-9798238D01*
X12107752Y-9793476D01*
X12102990Y-9788714D01*
X12098228Y-9779190D01*
X12093467Y-9760143D01*
X12093467Y-9736333D01*
X12098228Y-9717286D01*
X12102990Y-9707762D01*
X12107752Y-9703000D01*
X12117276Y-9698238D01*
D12*
X12010086Y-9647762D02*
X12001419Y-9635381D01*
X11995228Y-9647762D02*
X11995228Y-9621762D01*
X12005133Y-9621762D01*
X12007609Y-9623000D01*
X12008848Y-9624238D01*
X12010086Y-9626714D01*
X12010086Y-9630429D01*
X12008848Y-9632905D01*
X12007609Y-9634143D01*
X12005133Y-9635381D01*
X11995228Y-9635381D01*
X12034848Y-9647762D02*
X12019990Y-9647762D01*
X12027419Y-9647762D02*
X12027419Y-9621762D01*
X12024943Y-9625476D01*
X12022467Y-9627952D01*
X12019990Y-9629190D01*
X12057133Y-9630429D02*
X12057133Y-9647762D01*
X12050943Y-9620524D02*
X12044752Y-9639095D01*
X12060848Y-9639095D01*
D10*
G04 #@! TO.C,R12*
X14873233Y-9217728D02*
X14877995Y-9212966D01*
X14887519Y-9208204D01*
X14911329Y-9208204D01*
X14920852Y-9212966D01*
X14925614Y-9217728D01*
X14930376Y-9227252D01*
X14930376Y-9236776D01*
X14925614Y-9251061D01*
X14868472Y-9308204D01*
X14930376Y-9308204D01*
X14963710Y-9208204D02*
X15030376Y-9208204D01*
X14987519Y-9308204D01*
D12*
X14932710Y-9391728D02*
X14924043Y-9379347D01*
X14917852Y-9391728D02*
X14917852Y-9365728D01*
X14927757Y-9365728D01*
X14930233Y-9366966D01*
X14931472Y-9368204D01*
X14932710Y-9370680D01*
X14932710Y-9374395D01*
X14931472Y-9376871D01*
X14930233Y-9378109D01*
X14927757Y-9379347D01*
X14917852Y-9379347D01*
X14957472Y-9391728D02*
X14942614Y-9391728D01*
X14950043Y-9391728D02*
X14950043Y-9365728D01*
X14947567Y-9369442D01*
X14945091Y-9371918D01*
X14942614Y-9373156D01*
X14967376Y-9368204D02*
X14968614Y-9366966D01*
X14971091Y-9365728D01*
X14977281Y-9365728D01*
X14979757Y-9366966D01*
X14980995Y-9368204D01*
X14982233Y-9370680D01*
X14982233Y-9373156D01*
X14980995Y-9376871D01*
X14966138Y-9391728D01*
X14982233Y-9391728D01*
D10*
G04 #@! TO.C,R17*
X12821752Y-8715238D02*
X12764609Y-8715238D01*
X12793181Y-8715238D02*
X12793181Y-8615238D01*
X12783657Y-8629524D01*
X12774133Y-8639048D01*
X12764609Y-8643810D01*
X12883657Y-8615238D02*
X12893181Y-8615238D01*
X12902705Y-8620000D01*
X12907467Y-8624762D01*
X12912228Y-8634286D01*
X12916990Y-8653333D01*
X12916990Y-8677143D01*
X12912228Y-8696190D01*
X12907467Y-8705714D01*
X12902705Y-8710476D01*
X12893181Y-8715238D01*
X12883657Y-8715238D01*
X12874133Y-8710476D01*
X12869371Y-8705714D01*
X12864609Y-8696190D01*
X12859848Y-8677143D01*
X12859848Y-8653333D01*
X12864609Y-8634286D01*
X12869371Y-8624762D01*
X12874133Y-8620000D01*
X12883657Y-8615238D01*
X12959848Y-8715238D02*
X12959848Y-8615238D01*
X13016990Y-8715238D02*
X12974133Y-8658095D01*
X13016990Y-8615238D02*
X12959848Y-8672381D01*
D12*
X12874086Y-8798762D02*
X12865419Y-8786381D01*
X12859228Y-8798762D02*
X12859228Y-8772762D01*
X12869133Y-8772762D01*
X12871609Y-8774000D01*
X12872848Y-8775238D01*
X12874086Y-8777714D01*
X12874086Y-8781429D01*
X12872848Y-8783905D01*
X12871609Y-8785143D01*
X12869133Y-8786381D01*
X12859228Y-8786381D01*
X12898848Y-8798762D02*
X12883990Y-8798762D01*
X12891419Y-8798762D02*
X12891419Y-8772762D01*
X12888943Y-8776476D01*
X12886467Y-8778952D01*
X12883990Y-8780190D01*
X12907514Y-8772762D02*
X12924848Y-8772762D01*
X12913705Y-8798762D01*
D10*
G04 #@! TO.C,R2*
X14790609Y-9193571D02*
X14790609Y-9260238D01*
X14766800Y-9155476D02*
X14742990Y-9226905D01*
X14804895Y-9226905D01*
X14847752Y-9260238D02*
X14866800Y-9260238D01*
X14876324Y-9255476D01*
X14881086Y-9250714D01*
X14890609Y-9236429D01*
X14895371Y-9217381D01*
X14895371Y-9179286D01*
X14890609Y-9169762D01*
X14885848Y-9165000D01*
X14876324Y-9160238D01*
X14857276Y-9160238D01*
X14847752Y-9165000D01*
X14842990Y-9169762D01*
X14838228Y-9179286D01*
X14838228Y-9203095D01*
X14842990Y-9212619D01*
X14847752Y-9217381D01*
X14857276Y-9222143D01*
X14876324Y-9222143D01*
X14885848Y-9217381D01*
X14890609Y-9212619D01*
X14895371Y-9203095D01*
X14942990Y-9260238D02*
X14962038Y-9260238D01*
X14971562Y-9255476D01*
X14976324Y-9250714D01*
X14985848Y-9236429D01*
X14990609Y-9217381D01*
X14990609Y-9179286D01*
X14985848Y-9169762D01*
X14981086Y-9165000D01*
X14971562Y-9160238D01*
X14952514Y-9160238D01*
X14942990Y-9165000D01*
X14938228Y-9169762D01*
X14933467Y-9179286D01*
X14933467Y-9203095D01*
X14938228Y-9212619D01*
X14942990Y-9217381D01*
X14952514Y-9222143D01*
X14971562Y-9222143D01*
X14981086Y-9217381D01*
X14985848Y-9212619D01*
X14990609Y-9203095D01*
X15090609Y-9260238D02*
X15057276Y-9212619D01*
X15033467Y-9260238D02*
X15033467Y-9160238D01*
X15071562Y-9160238D01*
X15081086Y-9165000D01*
X15085848Y-9169762D01*
X15090609Y-9179286D01*
X15090609Y-9193571D01*
X15085848Y-9203095D01*
X15081086Y-9207857D01*
X15071562Y-9212619D01*
X15033467Y-9212619D01*
D12*
X14912467Y-9109762D02*
X14903800Y-9097381D01*
X14897609Y-9109762D02*
X14897609Y-9083762D01*
X14907514Y-9083762D01*
X14909990Y-9085000D01*
X14911228Y-9086238D01*
X14912467Y-9088714D01*
X14912467Y-9092429D01*
X14911228Y-9094905D01*
X14909990Y-9096143D01*
X14907514Y-9097381D01*
X14897609Y-9097381D01*
X14922371Y-9086238D02*
X14923609Y-9085000D01*
X14926086Y-9083762D01*
X14932276Y-9083762D01*
X14934752Y-9085000D01*
X14935990Y-9086238D01*
X14937228Y-9088714D01*
X14937228Y-9091190D01*
X14935990Y-9094905D01*
X14921133Y-9109762D01*
X14937228Y-9109762D01*
D10*
G04 #@! TO.C,C4*
X12303371Y-9771238D02*
X12312895Y-9771238D01*
X12322419Y-9776000D01*
X12327181Y-9780762D01*
X12331943Y-9790286D01*
X12336705Y-9809333D01*
X12336705Y-9833143D01*
X12331943Y-9852190D01*
X12327181Y-9861714D01*
X12322419Y-9866476D01*
X12312895Y-9871238D01*
X12303371Y-9871238D01*
X12293848Y-9866476D01*
X12289086Y-9861714D01*
X12284324Y-9852190D01*
X12279562Y-9833143D01*
X12279562Y-9809333D01*
X12284324Y-9790286D01*
X12289086Y-9780762D01*
X12293848Y-9776000D01*
X12303371Y-9771238D01*
X12379562Y-9861714D02*
X12384324Y-9866476D01*
X12379562Y-9871238D01*
X12374800Y-9866476D01*
X12379562Y-9861714D01*
X12379562Y-9871238D01*
X12479562Y-9871238D02*
X12422419Y-9871238D01*
X12450990Y-9871238D02*
X12450990Y-9771238D01*
X12441467Y-9785524D01*
X12431943Y-9795048D01*
X12422419Y-9799810D01*
X12565276Y-9804571D02*
X12565276Y-9871238D01*
X12522419Y-9804571D02*
X12522419Y-9856952D01*
X12527181Y-9866476D01*
X12536705Y-9871238D01*
X12550990Y-9871238D01*
X12560514Y-9866476D01*
X12565276Y-9861714D01*
D12*
X12420633Y-9718929D02*
X12419443Y-9720119D01*
X12415871Y-9721310D01*
X12413490Y-9721310D01*
X12409919Y-9720119D01*
X12407538Y-9717738D01*
X12406348Y-9715357D01*
X12405157Y-9710595D01*
X12405157Y-9707024D01*
X12406348Y-9702262D01*
X12407538Y-9699881D01*
X12409919Y-9697500D01*
X12413490Y-9696310D01*
X12415871Y-9696310D01*
X12419443Y-9697500D01*
X12420633Y-9698690D01*
X12442062Y-9704643D02*
X12442062Y-9721310D01*
X12436109Y-9695119D02*
X12430157Y-9712976D01*
X12445633Y-9712976D01*
D10*
G04 #@! TO.C,J1*
X16725238Y-10218048D02*
X16806190Y-10218048D01*
X16815714Y-10213286D01*
X16820476Y-10208524D01*
X16825238Y-10199000D01*
X16825238Y-10179952D01*
X16820476Y-10170429D01*
X16815714Y-10165667D01*
X16806190Y-10160905D01*
X16725238Y-10160905D01*
X16820476Y-10118048D02*
X16825238Y-10103762D01*
X16825238Y-10079952D01*
X16820476Y-10070429D01*
X16815714Y-10065667D01*
X16806190Y-10060905D01*
X16796667Y-10060905D01*
X16787143Y-10065667D01*
X16782381Y-10070429D01*
X16777619Y-10079952D01*
X16772857Y-10099000D01*
X16768095Y-10108524D01*
X16763333Y-10113286D01*
X16753809Y-10118048D01*
X16744286Y-10118048D01*
X16734762Y-10113286D01*
X16730000Y-10108524D01*
X16725238Y-10099000D01*
X16725238Y-10075190D01*
X16730000Y-10060905D01*
X16772857Y-9984714D02*
X16777619Y-9970429D01*
X16782381Y-9965667D01*
X16791905Y-9960905D01*
X16806190Y-9960905D01*
X16815714Y-9965667D01*
X16820476Y-9970429D01*
X16825238Y-9979952D01*
X16825238Y-10018048D01*
X16725238Y-10018048D01*
X16725238Y-9984714D01*
X16730000Y-9975190D01*
X16734762Y-9970429D01*
X16744286Y-9965667D01*
X16753809Y-9965667D01*
X16763333Y-9970429D01*
X16768095Y-9975190D01*
X16772857Y-9984714D01*
X16772857Y-10018048D01*
X16834762Y-9941857D02*
X16834762Y-9865667D01*
X16815714Y-9784714D02*
X16820476Y-9789476D01*
X16825238Y-9803762D01*
X16825238Y-9813286D01*
X16820476Y-9827571D01*
X16810952Y-9837095D01*
X16801429Y-9841857D01*
X16782381Y-9846619D01*
X16768095Y-9846619D01*
X16749048Y-9841857D01*
X16739524Y-9837095D01*
X16730000Y-9827571D01*
X16725238Y-9813286D01*
X16725238Y-9803762D01*
X16730000Y-9789476D01*
X16734762Y-9784714D01*
X16834762Y-9765667D02*
X16834762Y-9689476D01*
X16825238Y-9608524D02*
X16777619Y-9641857D01*
X16825238Y-9665667D02*
X16725238Y-9665667D01*
X16725238Y-9627571D01*
X16730000Y-9618048D01*
X16734762Y-9613286D01*
X16744286Y-9608524D01*
X16758571Y-9608524D01*
X16768095Y-9613286D01*
X16772857Y-9618048D01*
X16777619Y-9627571D01*
X16777619Y-9665667D01*
X16820476Y-9527571D02*
X16825238Y-9537095D01*
X16825238Y-9556143D01*
X16820476Y-9565667D01*
X16810952Y-9570429D01*
X16772857Y-9570429D01*
X16763333Y-9565667D01*
X16758571Y-9556143D01*
X16758571Y-9537095D01*
X16763333Y-9527571D01*
X16772857Y-9522810D01*
X16782381Y-9522810D01*
X16791905Y-9570429D01*
X16820476Y-9437095D02*
X16825238Y-9446619D01*
X16825238Y-9465667D01*
X16820476Y-9475190D01*
X16815714Y-9479952D01*
X16806190Y-9484714D01*
X16777619Y-9484714D01*
X16768095Y-9479952D01*
X16763333Y-9475190D01*
X16758571Y-9465667D01*
X16758571Y-9446619D01*
X16763333Y-9437095D01*
X16820476Y-9356143D02*
X16825238Y-9365667D01*
X16825238Y-9384714D01*
X16820476Y-9394238D01*
X16810952Y-9399000D01*
X16772857Y-9399000D01*
X16763333Y-9394238D01*
X16758571Y-9384714D01*
X16758571Y-9365667D01*
X16763333Y-9356143D01*
X16772857Y-9351381D01*
X16782381Y-9351381D01*
X16791905Y-9399000D01*
X16758571Y-9308524D02*
X16858571Y-9308524D01*
X16763333Y-9308524D02*
X16758571Y-9299000D01*
X16758571Y-9279952D01*
X16763333Y-9270429D01*
X16768095Y-9265667D01*
X16777619Y-9260905D01*
X16806190Y-9260905D01*
X16815714Y-9265667D01*
X16820476Y-9270429D01*
X16825238Y-9279952D01*
X16825238Y-9299000D01*
X16820476Y-9308524D01*
X16758571Y-9232333D02*
X16758571Y-9194238D01*
X16725238Y-9218048D02*
X16810952Y-9218048D01*
X16820476Y-9213286D01*
X16825238Y-9203762D01*
X16825238Y-9194238D01*
X16825238Y-9118048D02*
X16772857Y-9118048D01*
X16763333Y-9122810D01*
X16758571Y-9132333D01*
X16758571Y-9151381D01*
X16763333Y-9160905D01*
X16820476Y-9118048D02*
X16825238Y-9127571D01*
X16825238Y-9151381D01*
X16820476Y-9160905D01*
X16810952Y-9165667D01*
X16801429Y-9165667D01*
X16791905Y-9160905D01*
X16787143Y-9151381D01*
X16787143Y-9127571D01*
X16782381Y-9118048D01*
X16820476Y-9027571D02*
X16825238Y-9037095D01*
X16825238Y-9056143D01*
X16820476Y-9065667D01*
X16815714Y-9070429D01*
X16806190Y-9075190D01*
X16777619Y-9075190D01*
X16768095Y-9070429D01*
X16763333Y-9065667D01*
X16758571Y-9056143D01*
X16758571Y-9037095D01*
X16763333Y-9027571D01*
X16825238Y-8970429D02*
X16820476Y-8979952D01*
X16810952Y-8984714D01*
X16725238Y-8984714D01*
X16820476Y-8894238D02*
X16825238Y-8903762D01*
X16825238Y-8922810D01*
X16820476Y-8932333D01*
X16810952Y-8937095D01*
X16772857Y-8937095D01*
X16763333Y-8932333D01*
X16758571Y-8922810D01*
X16758571Y-8903762D01*
X16763333Y-8894238D01*
X16772857Y-8889476D01*
X16782381Y-8889476D01*
X16791905Y-8937095D01*
X16834762Y-8870429D02*
X16834762Y-8794238D01*
X16725238Y-8770429D02*
X16806190Y-8770429D01*
X16815714Y-8765667D01*
X16820476Y-8760905D01*
X16825238Y-8751381D01*
X16825238Y-8732333D01*
X16820476Y-8722810D01*
X16815714Y-8718048D01*
X16806190Y-8713286D01*
X16725238Y-8713286D01*
X16820476Y-8670429D02*
X16825238Y-8656143D01*
X16825238Y-8632333D01*
X16820476Y-8622810D01*
X16815714Y-8618048D01*
X16806190Y-8613286D01*
X16796667Y-8613286D01*
X16787143Y-8618048D01*
X16782381Y-8622810D01*
X16777619Y-8632333D01*
X16772857Y-8651381D01*
X16768095Y-8660905D01*
X16763333Y-8665667D01*
X16753809Y-8670429D01*
X16744286Y-8670429D01*
X16734762Y-8665667D01*
X16730000Y-8660905D01*
X16725238Y-8651381D01*
X16725238Y-8627571D01*
X16730000Y-8613286D01*
X16772857Y-8537095D02*
X16777619Y-8522810D01*
X16782381Y-8518048D01*
X16791905Y-8513286D01*
X16806190Y-8513286D01*
X16815714Y-8518048D01*
X16820476Y-8522810D01*
X16825238Y-8532333D01*
X16825238Y-8570429D01*
X16725238Y-8570429D01*
X16725238Y-8537095D01*
X16730000Y-8527571D01*
X16734762Y-8522810D01*
X16744286Y-8518048D01*
X16753809Y-8518048D01*
X16763333Y-8522810D01*
X16768095Y-8527571D01*
X16772857Y-8537095D01*
X16772857Y-8570429D01*
X16734762Y-8475190D02*
X16730000Y-8470429D01*
X16725238Y-8460905D01*
X16725238Y-8437095D01*
X16730000Y-8427571D01*
X16734762Y-8422810D01*
X16744286Y-8418048D01*
X16753809Y-8418048D01*
X16768095Y-8422810D01*
X16825238Y-8479952D01*
X16825238Y-8418048D01*
X16815714Y-8375190D02*
X16820476Y-8370428D01*
X16825238Y-8375190D01*
X16820476Y-8379952D01*
X16815714Y-8375190D01*
X16825238Y-8375190D01*
X16725238Y-8308524D02*
X16725238Y-8299000D01*
X16730000Y-8289476D01*
X16734762Y-8284714D01*
X16744286Y-8279952D01*
X16763333Y-8275190D01*
X16787143Y-8275190D01*
X16806190Y-8279952D01*
X16815714Y-8284714D01*
X16820476Y-8289476D01*
X16825238Y-8299000D01*
X16825238Y-8308524D01*
X16820476Y-8318048D01*
X16815714Y-8322809D01*
X16806190Y-8327571D01*
X16787143Y-8332333D01*
X16763333Y-8332333D01*
X16744286Y-8327571D01*
X16734762Y-8322809D01*
X16730000Y-8318048D01*
X16725238Y-8308524D01*
X16054934Y-9297729D02*
X16126363Y-9297729D01*
X16140648Y-9302491D01*
X16150172Y-9312015D01*
X16154934Y-9326301D01*
X16154934Y-9335825D01*
X16154934Y-9197729D02*
X16154934Y-9254872D01*
X16154934Y-9226301D02*
X16054934Y-9226301D01*
X16069220Y-9235825D01*
X16078744Y-9245348D01*
X16083505Y-9254872D01*
G04 #@! TO.C,R5*
X12750038Y-9980048D02*
X12750038Y-10037190D01*
X12750038Y-10008619D02*
X12650038Y-10008619D01*
X12664324Y-10018143D01*
X12673848Y-10027667D01*
X12678609Y-10037190D01*
X12650038Y-9918143D02*
X12650038Y-9908619D01*
X12654800Y-9899095D01*
X12659562Y-9894333D01*
X12669086Y-9889571D01*
X12688133Y-9884810D01*
X12711943Y-9884810D01*
X12730990Y-9889571D01*
X12740514Y-9894333D01*
X12745276Y-9899095D01*
X12750038Y-9908619D01*
X12750038Y-9918143D01*
X12745276Y-9927667D01*
X12740514Y-9932429D01*
X12730990Y-9937190D01*
X12711943Y-9941952D01*
X12688133Y-9941952D01*
X12669086Y-9937190D01*
X12659562Y-9932429D01*
X12654800Y-9927667D01*
X12650038Y-9918143D01*
X12750038Y-9841952D02*
X12650038Y-9841952D01*
X12750038Y-9784810D02*
X12692895Y-9827667D01*
X12650038Y-9784810D02*
X12707181Y-9841952D01*
D12*
X12599562Y-9915333D02*
X12587181Y-9924000D01*
X12599562Y-9930190D02*
X12573562Y-9930190D01*
X12573562Y-9920286D01*
X12574800Y-9917810D01*
X12576038Y-9916571D01*
X12578514Y-9915333D01*
X12582228Y-9915333D01*
X12584705Y-9916571D01*
X12585943Y-9917810D01*
X12587181Y-9920286D01*
X12587181Y-9930190D01*
X12573562Y-9891810D02*
X12573562Y-9904190D01*
X12585943Y-9905429D01*
X12584705Y-9904190D01*
X12583467Y-9901714D01*
X12583467Y-9895524D01*
X12584705Y-9893048D01*
X12585943Y-9891810D01*
X12588419Y-9890571D01*
X12594609Y-9890571D01*
X12597086Y-9891810D01*
X12598324Y-9893048D01*
X12599562Y-9895524D01*
X12599562Y-9901714D01*
X12598324Y-9904190D01*
X12597086Y-9905429D01*
D10*
G04 #@! TO.C,R7*
X13054752Y-9338238D02*
X12997609Y-9338238D01*
X13026181Y-9338238D02*
X13026181Y-9238238D01*
X13016657Y-9252524D01*
X13007133Y-9262048D01*
X12997609Y-9266810D01*
X13116657Y-9238238D02*
X13126181Y-9238238D01*
X13135705Y-9243000D01*
X13140467Y-9247762D01*
X13145228Y-9257286D01*
X13149990Y-9276333D01*
X13149990Y-9300143D01*
X13145228Y-9319190D01*
X13140467Y-9328714D01*
X13135705Y-9333476D01*
X13126181Y-9338238D01*
X13116657Y-9338238D01*
X13107133Y-9333476D01*
X13102371Y-9328714D01*
X13097609Y-9319190D01*
X13092848Y-9300143D01*
X13092848Y-9276333D01*
X13097609Y-9257286D01*
X13102371Y-9247762D01*
X13107133Y-9243000D01*
X13116657Y-9238238D01*
X13192848Y-9338238D02*
X13192848Y-9238238D01*
X13249990Y-9338238D02*
X13207133Y-9281095D01*
X13249990Y-9238238D02*
X13192848Y-9295381D01*
D12*
X13119467Y-9421762D02*
X13110800Y-9409381D01*
X13104609Y-9421762D02*
X13104609Y-9395762D01*
X13114514Y-9395762D01*
X13116990Y-9397000D01*
X13118228Y-9398238D01*
X13119467Y-9400714D01*
X13119467Y-9404429D01*
X13118228Y-9406905D01*
X13116990Y-9408143D01*
X13114514Y-9409381D01*
X13104609Y-9409381D01*
X13128133Y-9395762D02*
X13145467Y-9395762D01*
X13134324Y-9421762D01*
D10*
G04 #@! TO.C,R19*
X15353705Y-9095238D02*
X15306086Y-9095238D01*
X15301324Y-9142857D01*
X15306086Y-9138095D01*
X15315609Y-9133333D01*
X15339419Y-9133333D01*
X15348943Y-9138095D01*
X15353705Y-9142857D01*
X15358467Y-9152381D01*
X15358467Y-9176190D01*
X15353705Y-9185714D01*
X15348943Y-9190476D01*
X15339419Y-9195238D01*
X15315609Y-9195238D01*
X15306086Y-9190476D01*
X15301324Y-9185714D01*
X15401324Y-9185714D02*
X15406086Y-9190476D01*
X15401324Y-9195238D01*
X15396562Y-9190476D01*
X15401324Y-9185714D01*
X15401324Y-9195238D01*
X15501324Y-9195238D02*
X15444181Y-9195238D01*
X15472752Y-9195238D02*
X15472752Y-9095238D01*
X15463228Y-9109524D01*
X15453705Y-9119048D01*
X15444181Y-9123810D01*
X15544181Y-9195238D02*
X15544181Y-9095238D01*
X15553705Y-9157143D02*
X15582276Y-9195238D01*
X15582276Y-9128571D02*
X15544181Y-9166667D01*
D12*
X15425086Y-9044762D02*
X15416419Y-9032381D01*
X15410228Y-9044762D02*
X15410228Y-9018762D01*
X15420133Y-9018762D01*
X15422609Y-9020000D01*
X15423848Y-9021238D01*
X15425086Y-9023714D01*
X15425086Y-9027429D01*
X15423848Y-9029905D01*
X15422609Y-9031143D01*
X15420133Y-9032381D01*
X15410228Y-9032381D01*
X15449848Y-9044762D02*
X15434990Y-9044762D01*
X15442419Y-9044762D02*
X15442419Y-9018762D01*
X15439943Y-9022476D01*
X15437467Y-9024952D01*
X15434990Y-9026190D01*
X15462228Y-9044762D02*
X15467181Y-9044762D01*
X15469657Y-9043524D01*
X15470895Y-9042286D01*
X15473371Y-9038571D01*
X15474609Y-9033619D01*
X15474609Y-9023714D01*
X15473371Y-9021238D01*
X15472133Y-9020000D01*
X15469657Y-9018762D01*
X15464705Y-9018762D01*
X15462228Y-9020000D01*
X15460990Y-9021238D01*
X15459752Y-9023714D01*
X15459752Y-9029905D01*
X15460990Y-9032381D01*
X15462228Y-9033619D01*
X15464705Y-9034857D01*
X15469657Y-9034857D01*
X15472133Y-9033619D01*
X15473371Y-9032381D01*
X15474609Y-9029905D01*
D10*
G04 #@! TO.C,C6*
X14780752Y-9677622D02*
X14790276Y-9677622D01*
X14799800Y-9682384D01*
X14804562Y-9687146D01*
X14809324Y-9696670D01*
X14814086Y-9715717D01*
X14814086Y-9739527D01*
X14809324Y-9758574D01*
X14804562Y-9768098D01*
X14799800Y-9772860D01*
X14790276Y-9777622D01*
X14780752Y-9777622D01*
X14771228Y-9772860D01*
X14766467Y-9768098D01*
X14761705Y-9758574D01*
X14756943Y-9739527D01*
X14756943Y-9715717D01*
X14761705Y-9696670D01*
X14766467Y-9687146D01*
X14771228Y-9682384D01*
X14780752Y-9677622D01*
X14856943Y-9768098D02*
X14861705Y-9772860D01*
X14856943Y-9777622D01*
X14852181Y-9772860D01*
X14856943Y-9768098D01*
X14856943Y-9777622D01*
X14923609Y-9677622D02*
X14933133Y-9677622D01*
X14942657Y-9682384D01*
X14947419Y-9687146D01*
X14952181Y-9696670D01*
X14956943Y-9715717D01*
X14956943Y-9739527D01*
X14952181Y-9758574D01*
X14947419Y-9768098D01*
X14942657Y-9772860D01*
X14933133Y-9777622D01*
X14923609Y-9777622D01*
X14914086Y-9772860D01*
X14909324Y-9768098D01*
X14904562Y-9758574D01*
X14899800Y-9739527D01*
X14899800Y-9715717D01*
X14904562Y-9696670D01*
X14909324Y-9687146D01*
X14914086Y-9682384D01*
X14923609Y-9677622D01*
X15052181Y-9777622D02*
X14995038Y-9777622D01*
X15023609Y-9777622D02*
X15023609Y-9677622D01*
X15014086Y-9691908D01*
X15004562Y-9701432D01*
X14995038Y-9706194D01*
X15137895Y-9710955D02*
X15137895Y-9777622D01*
X15095038Y-9710955D02*
X15095038Y-9763336D01*
X15099800Y-9772860D01*
X15109324Y-9777622D01*
X15123609Y-9777622D01*
X15133133Y-9772860D01*
X15137895Y-9768098D01*
D12*
X14945633Y-9857313D02*
X14944443Y-9858503D01*
X14940871Y-9859694D01*
X14938490Y-9859694D01*
X14934919Y-9858503D01*
X14932538Y-9856122D01*
X14931348Y-9853741D01*
X14930157Y-9848979D01*
X14930157Y-9845408D01*
X14931348Y-9840646D01*
X14932538Y-9838265D01*
X14934919Y-9835884D01*
X14938490Y-9834694D01*
X14940871Y-9834694D01*
X14944443Y-9835884D01*
X14945633Y-9837074D01*
X14967062Y-9834694D02*
X14962300Y-9834694D01*
X14959919Y-9835884D01*
X14958728Y-9837074D01*
X14956348Y-9840646D01*
X14955157Y-9845408D01*
X14955157Y-9854932D01*
X14956348Y-9857313D01*
X14957538Y-9858503D01*
X14959919Y-9859694D01*
X14964681Y-9859694D01*
X14967062Y-9858503D01*
X14968252Y-9857313D01*
X14969443Y-9854932D01*
X14969443Y-9848979D01*
X14968252Y-9846598D01*
X14967062Y-9845408D01*
X14964681Y-9844217D01*
X14959919Y-9844217D01*
X14957538Y-9845408D01*
X14956348Y-9846598D01*
X14955157Y-9848979D01*
D10*
G04 #@! TO.C,SW2*
X12994334Y-10288683D02*
X12980624Y-10282454D01*
X12956945Y-10279965D01*
X12946976Y-10283705D01*
X12941742Y-10287943D01*
X12936011Y-10296917D01*
X12935015Y-10306389D01*
X12938755Y-10316358D01*
X12942994Y-10321592D01*
X12951967Y-10327323D01*
X12970413Y-10334050D01*
X12979387Y-10339781D01*
X12983625Y-10345015D01*
X12987365Y-10354984D01*
X12986370Y-10364456D01*
X12980638Y-10373430D01*
X12975405Y-10377668D01*
X12965435Y-10381408D01*
X12941756Y-10378919D01*
X12928047Y-10372690D01*
X12894398Y-10373942D02*
X12881172Y-10272001D01*
X12854762Y-10341047D01*
X12843285Y-10268019D01*
X12809153Y-10364982D01*
X12776998Y-10352026D02*
X12771765Y-10356264D01*
X12761795Y-10360005D01*
X12738116Y-10357516D01*
X12729142Y-10351784D01*
X12724904Y-10346551D01*
X12721164Y-10336582D01*
X12722159Y-10327110D01*
X12728388Y-10313400D01*
X12791191Y-10262543D01*
X12729626Y-10256073D01*
G04 #@! TO.C,R4*
X12946038Y-9929048D02*
X12946038Y-9986190D01*
X12946038Y-9957619D02*
X12846038Y-9957619D01*
X12860324Y-9967143D01*
X12869848Y-9976667D01*
X12874609Y-9986190D01*
X12846038Y-9867143D02*
X12846038Y-9857619D01*
X12850800Y-9848095D01*
X12855562Y-9843333D01*
X12865086Y-9838571D01*
X12884133Y-9833810D01*
X12907943Y-9833810D01*
X12926990Y-9838571D01*
X12936514Y-9843333D01*
X12941276Y-9848095D01*
X12946038Y-9857619D01*
X12946038Y-9867143D01*
X12941276Y-9876667D01*
X12936514Y-9881429D01*
X12926990Y-9886190D01*
X12907943Y-9890952D01*
X12884133Y-9890952D01*
X12865086Y-9886190D01*
X12855562Y-9881429D01*
X12850800Y-9876667D01*
X12846038Y-9867143D01*
X12946038Y-9790952D02*
X12846038Y-9790952D01*
X12946038Y-9733810D02*
X12888895Y-9776667D01*
X12846038Y-9733810D02*
X12903181Y-9790952D01*
D12*
X13029562Y-9864333D02*
X13017181Y-9873000D01*
X13029562Y-9879190D02*
X13003562Y-9879190D01*
X13003562Y-9869286D01*
X13004800Y-9866810D01*
X13006038Y-9865571D01*
X13008514Y-9864333D01*
X13012228Y-9864333D01*
X13014705Y-9865571D01*
X13015943Y-9866810D01*
X13017181Y-9869286D01*
X13017181Y-9879190D01*
X13012228Y-9842048D02*
X13029562Y-9842048D01*
X13002324Y-9848238D02*
X13020895Y-9854429D01*
X13020895Y-9838333D01*
D10*
G04 #@! TO.C,C5*
X13246038Y-8887429D02*
X13246038Y-8877905D01*
X13250800Y-8868381D01*
X13255562Y-8863619D01*
X13265086Y-8858857D01*
X13284133Y-8854095D01*
X13307943Y-8854095D01*
X13326990Y-8858857D01*
X13336514Y-8863619D01*
X13341276Y-8868381D01*
X13346038Y-8877905D01*
X13346038Y-8887429D01*
X13341276Y-8896952D01*
X13336514Y-8901714D01*
X13326990Y-8906476D01*
X13307943Y-8911238D01*
X13284133Y-8911238D01*
X13265086Y-8906476D01*
X13255562Y-8901714D01*
X13250800Y-8896952D01*
X13246038Y-8887429D01*
X13336514Y-8811238D02*
X13341276Y-8806476D01*
X13346038Y-8811238D01*
X13341276Y-8816000D01*
X13336514Y-8811238D01*
X13346038Y-8811238D01*
X13346038Y-8711238D02*
X13346038Y-8768381D01*
X13346038Y-8739810D02*
X13246038Y-8739810D01*
X13260324Y-8749333D01*
X13269848Y-8758857D01*
X13274609Y-8768381D01*
X13279371Y-8625524D02*
X13346038Y-8625524D01*
X13279371Y-8668381D02*
X13331752Y-8668381D01*
X13341276Y-8663619D01*
X13346038Y-8654095D01*
X13346038Y-8639810D01*
X13341276Y-8630286D01*
X13336514Y-8625524D01*
D12*
X13193728Y-8770167D02*
X13194919Y-8771357D01*
X13196109Y-8774929D01*
X13196109Y-8777310D01*
X13194919Y-8780881D01*
X13192538Y-8783262D01*
X13190157Y-8784452D01*
X13185395Y-8785643D01*
X13181824Y-8785643D01*
X13177062Y-8784452D01*
X13174681Y-8783262D01*
X13172300Y-8780881D01*
X13171109Y-8777310D01*
X13171109Y-8774929D01*
X13172300Y-8771357D01*
X13173490Y-8770167D01*
X13171109Y-8747548D02*
X13171109Y-8759452D01*
X13183014Y-8760643D01*
X13181824Y-8759452D01*
X13180633Y-8757071D01*
X13180633Y-8751119D01*
X13181824Y-8748738D01*
X13183014Y-8747548D01*
X13185395Y-8746357D01*
X13191348Y-8746357D01*
X13193728Y-8747548D01*
X13194919Y-8748738D01*
X13196109Y-8751119D01*
X13196109Y-8757071D01*
X13194919Y-8759452D01*
X13193728Y-8760643D01*
D10*
G04 #@! TO.C,R9*
X14615133Y-10268238D02*
X14557990Y-10268238D01*
X14586562Y-10268238D02*
X14586562Y-10168238D01*
X14577038Y-10182524D01*
X14567514Y-10192048D01*
X14557990Y-10196810D01*
X14705609Y-10168238D02*
X14657990Y-10168238D01*
X14653228Y-10215857D01*
X14657990Y-10211095D01*
X14667514Y-10206333D01*
X14691324Y-10206333D01*
X14700848Y-10211095D01*
X14705609Y-10215857D01*
X14710371Y-10225381D01*
X14710371Y-10249190D01*
X14705609Y-10258714D01*
X14700848Y-10263476D01*
X14691324Y-10268238D01*
X14667514Y-10268238D01*
X14657990Y-10263476D01*
X14653228Y-10258714D01*
X14772276Y-10168238D02*
X14781800Y-10168238D01*
X14791324Y-10173000D01*
X14796086Y-10177762D01*
X14800848Y-10187286D01*
X14805609Y-10206333D01*
X14805609Y-10230143D01*
X14800848Y-10249190D01*
X14796086Y-10258714D01*
X14791324Y-10263476D01*
X14781800Y-10268238D01*
X14772276Y-10268238D01*
X14762752Y-10263476D01*
X14757990Y-10258714D01*
X14753228Y-10249190D01*
X14748467Y-10230143D01*
X14748467Y-10206333D01*
X14753228Y-10187286D01*
X14757990Y-10177762D01*
X14762752Y-10173000D01*
X14772276Y-10168238D01*
X14848467Y-10268238D02*
X14848467Y-10168238D01*
X14905609Y-10268238D02*
X14862752Y-10211095D01*
X14905609Y-10168238D02*
X14848467Y-10225381D01*
D12*
X14727467Y-10351762D02*
X14718800Y-10339381D01*
X14712609Y-10351762D02*
X14712609Y-10325762D01*
X14722514Y-10325762D01*
X14724990Y-10327000D01*
X14726228Y-10328238D01*
X14727467Y-10330714D01*
X14727467Y-10334429D01*
X14726228Y-10336905D01*
X14724990Y-10338143D01*
X14722514Y-10339381D01*
X14712609Y-10339381D01*
X14739848Y-10351762D02*
X14744800Y-10351762D01*
X14747276Y-10350524D01*
X14748514Y-10349286D01*
X14750990Y-10345571D01*
X14752228Y-10340619D01*
X14752228Y-10330714D01*
X14750990Y-10328238D01*
X14749752Y-10327000D01*
X14747276Y-10325762D01*
X14742324Y-10325762D01*
X14739848Y-10327000D01*
X14738609Y-10328238D01*
X14737371Y-10330714D01*
X14737371Y-10336905D01*
X14738609Y-10339381D01*
X14739848Y-10340619D01*
X14742324Y-10341857D01*
X14747276Y-10341857D01*
X14749752Y-10340619D01*
X14750990Y-10339381D01*
X14752228Y-10336905D01*
D10*
G04 #@! TO.C,Q1*
X12979157Y-9617476D02*
X12983919Y-9603190D01*
X12988681Y-9598429D01*
X12998205Y-9593667D01*
X13012490Y-9593667D01*
X13022014Y-9598429D01*
X13026776Y-9603190D01*
X13031538Y-9612714D01*
X13031538Y-9650810D01*
X12931538Y-9650810D01*
X12931538Y-9617476D01*
X12936300Y-9607952D01*
X12941062Y-9603190D01*
X12950586Y-9598429D01*
X12960109Y-9598429D01*
X12969633Y-9603190D01*
X12974395Y-9607952D01*
X12979157Y-9617476D01*
X12979157Y-9650810D01*
X13022014Y-9493667D02*
X13026776Y-9498429D01*
X13031538Y-9512714D01*
X13031538Y-9522238D01*
X13026776Y-9536524D01*
X13017252Y-9546048D01*
X13007728Y-9550810D01*
X12988681Y-9555571D01*
X12974395Y-9555571D01*
X12955348Y-9550810D01*
X12945824Y-9546048D01*
X12936300Y-9536524D01*
X12931538Y-9522238D01*
X12931538Y-9512714D01*
X12936300Y-9498429D01*
X12941062Y-9493667D01*
X12974395Y-9436524D02*
X12969633Y-9446048D01*
X12964871Y-9450810D01*
X12955348Y-9455571D01*
X12950586Y-9455571D01*
X12941062Y-9450810D01*
X12936300Y-9446048D01*
X12931538Y-9436524D01*
X12931538Y-9417476D01*
X12936300Y-9407952D01*
X12941062Y-9403190D01*
X12950586Y-9398429D01*
X12955348Y-9398429D01*
X12964871Y-9403190D01*
X12969633Y-9407952D01*
X12974395Y-9417476D01*
X12974395Y-9436524D01*
X12979157Y-9446048D01*
X12983919Y-9450810D01*
X12993443Y-9455571D01*
X13012490Y-9455571D01*
X13022014Y-9450810D01*
X13026776Y-9446048D01*
X13031538Y-9436524D01*
X13031538Y-9417476D01*
X13026776Y-9407952D01*
X13022014Y-9403190D01*
X13012490Y-9398429D01*
X12993443Y-9398429D01*
X12983919Y-9403190D01*
X12979157Y-9407952D01*
X12974395Y-9417476D01*
X12964871Y-9312714D02*
X13031538Y-9312714D01*
X12926776Y-9336524D02*
X12998205Y-9360333D01*
X12998205Y-9298429D01*
X12931538Y-9269857D02*
X12931538Y-9203190D01*
X13031538Y-9246048D01*
X12979157Y-9131762D02*
X12983919Y-9117476D01*
X12988681Y-9112714D01*
X12998205Y-9107952D01*
X13012490Y-9107952D01*
X13022014Y-9112714D01*
X13026776Y-9117476D01*
X13031538Y-9127000D01*
X13031538Y-9165095D01*
X12931538Y-9165095D01*
X12931538Y-9131762D01*
X12936300Y-9122238D01*
X12941062Y-9117476D01*
X12950586Y-9112714D01*
X12960109Y-9112714D01*
X12969633Y-9117476D01*
X12974395Y-9122238D01*
X12979157Y-9131762D01*
X12979157Y-9165095D01*
X13031538Y-9065095D02*
X12931538Y-9065095D01*
X12931538Y-9041286D01*
X12936300Y-9027000D01*
X12945824Y-9017476D01*
X12955348Y-9012714D01*
X12974395Y-9007952D01*
X12988681Y-9007952D01*
X13007728Y-9012714D01*
X13017252Y-9017476D01*
X13026776Y-9027000D01*
X13031538Y-9041286D01*
X13031538Y-9065095D01*
X12931538Y-8974619D02*
X13031538Y-8950810D01*
X12960109Y-8931762D01*
X13031538Y-8912714D01*
X12931538Y-8888905D01*
X13031538Y-8798429D02*
X13031538Y-8855571D01*
X13031538Y-8827000D02*
X12931538Y-8827000D01*
X12945824Y-8836524D01*
X12955348Y-8846048D01*
X12960109Y-8855571D01*
D11*
X12820038Y-9892381D02*
X12815276Y-9890000D01*
X12810514Y-9885238D01*
X12803371Y-9878095D01*
X12798609Y-9875714D01*
X12793848Y-9875714D01*
X12796228Y-9887619D02*
X12791467Y-9885238D01*
X12786705Y-9880476D01*
X12784324Y-9870952D01*
X12784324Y-9854286D01*
X12786705Y-9844762D01*
X12791467Y-9840000D01*
X12796228Y-9837619D01*
X12805752Y-9837619D01*
X12810514Y-9840000D01*
X12815276Y-9844762D01*
X12817657Y-9854286D01*
X12817657Y-9870952D01*
X12815276Y-9880476D01*
X12810514Y-9885238D01*
X12805752Y-9887619D01*
X12796228Y-9887619D01*
X12865276Y-9887619D02*
X12836705Y-9887619D01*
X12850990Y-9887619D02*
X12850990Y-9837619D01*
X12846228Y-9844762D01*
X12841467Y-9849524D01*
X12836705Y-9851905D01*
D10*
G04 #@! TO.C,D2*
X11567762Y-9403476D02*
X11563000Y-9413000D01*
X11553476Y-9422524D01*
X11539190Y-9436810D01*
X11534428Y-9446333D01*
X11534428Y-9455857D01*
X11558238Y-9451095D02*
X11553476Y-9460619D01*
X11543952Y-9470143D01*
X11524905Y-9474905D01*
X11491571Y-9474905D01*
X11472524Y-9470143D01*
X11463000Y-9460619D01*
X11458238Y-9451095D01*
X11458238Y-9432048D01*
X11463000Y-9422524D01*
X11472524Y-9413000D01*
X11491571Y-9408238D01*
X11524905Y-9408238D01*
X11543952Y-9413000D01*
X11553476Y-9422524D01*
X11558238Y-9432048D01*
X11558238Y-9451095D01*
X11558238Y-9317762D02*
X11558238Y-9365381D01*
X11458238Y-9365381D01*
X11553476Y-9289190D02*
X11558238Y-9274905D01*
X11558238Y-9251095D01*
X11553476Y-9241571D01*
X11548714Y-9236810D01*
X11539190Y-9232048D01*
X11529667Y-9232048D01*
X11520143Y-9236810D01*
X11515381Y-9241571D01*
X11510619Y-9251095D01*
X11505857Y-9270143D01*
X11501095Y-9279667D01*
X11496333Y-9284429D01*
X11486809Y-9289190D01*
X11477286Y-9289190D01*
X11467762Y-9284429D01*
X11463000Y-9279667D01*
X11458238Y-9270143D01*
X11458238Y-9246333D01*
X11463000Y-9232048D01*
X11458238Y-9146333D02*
X11458238Y-9165381D01*
X11463000Y-9174905D01*
X11467762Y-9179667D01*
X11482048Y-9189190D01*
X11501095Y-9193952D01*
X11539190Y-9193952D01*
X11548714Y-9189190D01*
X11553476Y-9184429D01*
X11558238Y-9174905D01*
X11558238Y-9155857D01*
X11553476Y-9146333D01*
X11548714Y-9141571D01*
X11539190Y-9136810D01*
X11515381Y-9136810D01*
X11505857Y-9141571D01*
X11501095Y-9146333D01*
X11496333Y-9155857D01*
X11496333Y-9174905D01*
X11501095Y-9184429D01*
X11505857Y-9189190D01*
X11515381Y-9193952D01*
X11529667Y-9098714D02*
X11529667Y-9051095D01*
X11558238Y-9108238D02*
X11458238Y-9074905D01*
X11558238Y-9041571D01*
X11889738Y-9313810D02*
X11789738Y-9313810D01*
X11789738Y-9290000D01*
X11794500Y-9275714D01*
X11804024Y-9266190D01*
X11813548Y-9261429D01*
X11832595Y-9256667D01*
X11846881Y-9256667D01*
X11865928Y-9261429D01*
X11875452Y-9266190D01*
X11884976Y-9275714D01*
X11889738Y-9290000D01*
X11889738Y-9313810D01*
X11799262Y-9218571D02*
X11794500Y-9213810D01*
X11789738Y-9204286D01*
X11789738Y-9180476D01*
X11794500Y-9170952D01*
X11799262Y-9166190D01*
X11808786Y-9161429D01*
X11818309Y-9161429D01*
X11832595Y-9166190D01*
X11889738Y-9223333D01*
X11889738Y-9161429D01*
G04 #@! TO.C,C1*
X11923371Y-8688238D02*
X11932895Y-8688238D01*
X11942419Y-8693000D01*
X11947181Y-8697762D01*
X11951943Y-8707286D01*
X11956705Y-8726333D01*
X11956705Y-8750143D01*
X11951943Y-8769190D01*
X11947181Y-8778714D01*
X11942419Y-8783476D01*
X11932895Y-8788238D01*
X11923371Y-8788238D01*
X11913848Y-8783476D01*
X11909086Y-8778714D01*
X11904324Y-8769190D01*
X11899562Y-8750143D01*
X11899562Y-8726333D01*
X11904324Y-8707286D01*
X11909086Y-8697762D01*
X11913848Y-8693000D01*
X11923371Y-8688238D01*
X11999562Y-8778714D02*
X12004324Y-8783476D01*
X11999562Y-8788238D01*
X11994800Y-8783476D01*
X11999562Y-8778714D01*
X11999562Y-8788238D01*
X12099562Y-8788238D02*
X12042419Y-8788238D01*
X12070990Y-8788238D02*
X12070990Y-8688238D01*
X12061467Y-8702524D01*
X12051943Y-8712048D01*
X12042419Y-8716810D01*
X12185276Y-8721571D02*
X12185276Y-8788238D01*
X12142419Y-8721571D02*
X12142419Y-8773952D01*
X12147181Y-8783476D01*
X12156705Y-8788238D01*
X12170990Y-8788238D01*
X12180514Y-8783476D01*
X12185276Y-8778714D01*
D12*
X12040633Y-8867929D02*
X12039443Y-8869119D01*
X12035871Y-8870310D01*
X12033490Y-8870310D01*
X12029919Y-8869119D01*
X12027538Y-8866738D01*
X12026348Y-8864357D01*
X12025157Y-8859595D01*
X12025157Y-8856024D01*
X12026348Y-8851262D01*
X12027538Y-8848881D01*
X12029919Y-8846500D01*
X12033490Y-8845310D01*
X12035871Y-8845310D01*
X12039443Y-8846500D01*
X12040633Y-8847690D01*
X12064443Y-8870310D02*
X12050157Y-8870310D01*
X12057300Y-8870310D02*
X12057300Y-8845310D01*
X12054919Y-8848881D01*
X12052538Y-8851262D01*
X12050157Y-8852452D01*
D10*
G04 #@! TO.C,R16*
X12626752Y-8719238D02*
X12569609Y-8719238D01*
X12598181Y-8719238D02*
X12598181Y-8619238D01*
X12588657Y-8633524D01*
X12579133Y-8643048D01*
X12569609Y-8647810D01*
X12688657Y-8619238D02*
X12698181Y-8619238D01*
X12707705Y-8624000D01*
X12712467Y-8628762D01*
X12717228Y-8638286D01*
X12721990Y-8657333D01*
X12721990Y-8681143D01*
X12717228Y-8700190D01*
X12712467Y-8709714D01*
X12707705Y-8714476D01*
X12698181Y-8719238D01*
X12688657Y-8719238D01*
X12679133Y-8714476D01*
X12674371Y-8709714D01*
X12669609Y-8700190D01*
X12664848Y-8681143D01*
X12664848Y-8657333D01*
X12669609Y-8638286D01*
X12674371Y-8628762D01*
X12679133Y-8624000D01*
X12688657Y-8619238D01*
X12764848Y-8719238D02*
X12764848Y-8619238D01*
X12821990Y-8719238D02*
X12779133Y-8662095D01*
X12821990Y-8619238D02*
X12764848Y-8676381D01*
D12*
X12679086Y-8802762D02*
X12670419Y-8790381D01*
X12664228Y-8802762D02*
X12664228Y-8776762D01*
X12674133Y-8776762D01*
X12676609Y-8778000D01*
X12677848Y-8779238D01*
X12679086Y-8781714D01*
X12679086Y-8785429D01*
X12677848Y-8787905D01*
X12676609Y-8789143D01*
X12674133Y-8790381D01*
X12664228Y-8790381D01*
X12703848Y-8802762D02*
X12688990Y-8802762D01*
X12696419Y-8802762D02*
X12696419Y-8776762D01*
X12693943Y-8780476D01*
X12691467Y-8782952D01*
X12688990Y-8784190D01*
X12726133Y-8776762D02*
X12721181Y-8776762D01*
X12718705Y-8778000D01*
X12717467Y-8779238D01*
X12714990Y-8782952D01*
X12713752Y-8787905D01*
X12713752Y-8797810D01*
X12714990Y-8800286D01*
X12716228Y-8801524D01*
X12718705Y-8802762D01*
X12723657Y-8802762D01*
X12726133Y-8801524D01*
X12727371Y-8800286D01*
X12728609Y-8797810D01*
X12728609Y-8791619D01*
X12727371Y-8789143D01*
X12726133Y-8787905D01*
X12723657Y-8786667D01*
X12718705Y-8786667D01*
X12716228Y-8787905D01*
X12714990Y-8789143D01*
X12713752Y-8791619D01*
D10*
G04 #@! TO.C,R6*
X14756038Y-10190571D02*
X14656038Y-10190571D01*
X14756038Y-10133429D01*
X14656038Y-10133429D01*
X14756038Y-10085810D02*
X14656038Y-10085810D01*
X14656038Y-10047714D01*
X14660800Y-10038190D01*
X14665562Y-10033429D01*
X14675086Y-10028667D01*
X14689371Y-10028667D01*
X14698895Y-10033429D01*
X14703657Y-10038190D01*
X14708419Y-10047714D01*
X14708419Y-10085810D01*
D12*
X14605562Y-10116333D02*
X14593181Y-10125000D01*
X14605562Y-10131190D02*
X14579562Y-10131190D01*
X14579562Y-10121286D01*
X14580800Y-10118810D01*
X14582038Y-10117571D01*
X14584514Y-10116333D01*
X14588228Y-10116333D01*
X14590705Y-10117571D01*
X14591943Y-10118810D01*
X14593181Y-10121286D01*
X14593181Y-10131190D01*
X14579562Y-10094048D02*
X14579562Y-10099000D01*
X14580800Y-10101476D01*
X14582038Y-10102714D01*
X14585752Y-10105190D01*
X14590705Y-10106429D01*
X14600609Y-10106429D01*
X14603086Y-10105190D01*
X14604324Y-10103952D01*
X14605562Y-10101476D01*
X14605562Y-10096524D01*
X14604324Y-10094048D01*
X14603086Y-10092810D01*
X14600609Y-10091571D01*
X14594419Y-10091571D01*
X14591943Y-10092810D01*
X14590705Y-10094048D01*
X14589467Y-10096524D01*
X14589467Y-10101476D01*
X14590705Y-10103952D01*
X14591943Y-10105190D01*
X14594419Y-10106429D01*
D10*
G04 #@! TO.C,SW1*
X12374683Y-10116927D02*
X12367025Y-10103961D01*
X12349056Y-10088340D01*
X12338744Y-10085686D01*
X12332026Y-10086156D01*
X12322184Y-10090219D01*
X12315936Y-10097407D01*
X12313282Y-10107719D01*
X12313751Y-10114437D01*
X12317815Y-10124279D01*
X12329066Y-10140369D01*
X12333130Y-10150211D01*
X12333600Y-10156929D01*
X12330945Y-10167241D01*
X12324697Y-10174428D01*
X12314855Y-10178492D01*
X12308137Y-10178962D01*
X12297825Y-10176308D01*
X12279856Y-10160687D01*
X12272199Y-10147721D01*
X12243918Y-10129446D02*
X12291554Y-10038355D01*
X12230317Y-10079766D01*
X12262803Y-10013362D01*
X12179228Y-10073213D01*
X12176551Y-9938384D02*
X12219677Y-9975873D01*
X12198114Y-9957128D02*
X12132508Y-10032599D01*
X12149068Y-10028066D01*
X12162504Y-10027126D01*
X12172816Y-10029781D01*
G04 #@! TO.C,R10*
X15178752Y-9319238D02*
X15121609Y-9319238D01*
X15150181Y-9319238D02*
X15150181Y-9219238D01*
X15140657Y-9233524D01*
X15131133Y-9243048D01*
X15121609Y-9247810D01*
X15269228Y-9219238D02*
X15221609Y-9219238D01*
X15216848Y-9266857D01*
X15221609Y-9262095D01*
X15231133Y-9257333D01*
X15254943Y-9257333D01*
X15264467Y-9262095D01*
X15269228Y-9266857D01*
X15273990Y-9276381D01*
X15273990Y-9300190D01*
X15269228Y-9309714D01*
X15264467Y-9314476D01*
X15254943Y-9319238D01*
X15231133Y-9319238D01*
X15221609Y-9314476D01*
X15216848Y-9309714D01*
X15316848Y-9319238D02*
X15316848Y-9219238D01*
X15373990Y-9319238D02*
X15331133Y-9262095D01*
X15373990Y-9219238D02*
X15316848Y-9276381D01*
D12*
X15231086Y-9168762D02*
X15222419Y-9156381D01*
X15216228Y-9168762D02*
X15216228Y-9142762D01*
X15226133Y-9142762D01*
X15228609Y-9144000D01*
X15229848Y-9145238D01*
X15231086Y-9147714D01*
X15231086Y-9151429D01*
X15229848Y-9153905D01*
X15228609Y-9155143D01*
X15226133Y-9156381D01*
X15216228Y-9156381D01*
X15255848Y-9168762D02*
X15240990Y-9168762D01*
X15248419Y-9168762D02*
X15248419Y-9142762D01*
X15245943Y-9146476D01*
X15243467Y-9148952D01*
X15240990Y-9150190D01*
X15271943Y-9142762D02*
X15274419Y-9142762D01*
X15276895Y-9144000D01*
X15278133Y-9145238D01*
X15279371Y-9147714D01*
X15280609Y-9152667D01*
X15280609Y-9158857D01*
X15279371Y-9163810D01*
X15278133Y-9166286D01*
X15276895Y-9167524D01*
X15274419Y-9168762D01*
X15271943Y-9168762D01*
X15269467Y-9167524D01*
X15268228Y-9166286D01*
X15266990Y-9163810D01*
X15265752Y-9158857D01*
X15265752Y-9152667D01*
X15266990Y-9147714D01*
X15268228Y-9145238D01*
X15269467Y-9144000D01*
X15271943Y-9142762D01*
D10*
G04 #@! TO.C,R20*
X15179591Y-9644322D02*
X15131972Y-9644322D01*
X15127210Y-9691941D01*
X15131972Y-9687179D01*
X15141495Y-9682417D01*
X15165305Y-9682417D01*
X15174829Y-9687179D01*
X15179591Y-9691941D01*
X15184353Y-9701465D01*
X15184353Y-9725274D01*
X15179591Y-9734798D01*
X15174829Y-9739560D01*
X15165305Y-9744322D01*
X15141495Y-9744322D01*
X15131972Y-9739560D01*
X15127210Y-9734798D01*
X15227210Y-9734798D02*
X15231972Y-9739560D01*
X15227210Y-9744322D01*
X15222448Y-9739560D01*
X15227210Y-9734798D01*
X15227210Y-9744322D01*
X15327210Y-9744322D02*
X15270067Y-9744322D01*
X15298638Y-9744322D02*
X15298638Y-9644322D01*
X15289114Y-9658608D01*
X15279591Y-9668132D01*
X15270067Y-9672894D01*
X15370067Y-9744322D02*
X15370067Y-9644322D01*
X15379591Y-9706227D02*
X15408162Y-9744322D01*
X15408162Y-9677655D02*
X15370067Y-9715751D01*
D12*
X15250972Y-9827846D02*
X15242305Y-9815465D01*
X15236114Y-9827846D02*
X15236114Y-9801846D01*
X15246019Y-9801846D01*
X15248495Y-9803084D01*
X15249734Y-9804322D01*
X15250972Y-9806798D01*
X15250972Y-9810513D01*
X15249734Y-9812989D01*
X15248495Y-9814227D01*
X15246019Y-9815465D01*
X15236114Y-9815465D01*
X15260876Y-9804322D02*
X15262114Y-9803084D01*
X15264591Y-9801846D01*
X15270781Y-9801846D01*
X15273257Y-9803084D01*
X15274495Y-9804322D01*
X15275734Y-9806798D01*
X15275734Y-9809274D01*
X15274495Y-9812989D01*
X15259638Y-9827846D01*
X15275734Y-9827846D01*
X15291829Y-9801846D02*
X15294305Y-9801846D01*
X15296781Y-9803084D01*
X15298019Y-9804322D01*
X15299257Y-9806798D01*
X15300495Y-9811751D01*
X15300495Y-9817941D01*
X15299257Y-9822894D01*
X15298019Y-9825370D01*
X15296781Y-9826608D01*
X15294305Y-9827846D01*
X15291829Y-9827846D01*
X15289353Y-9826608D01*
X15288114Y-9825370D01*
X15286876Y-9822894D01*
X15285638Y-9817941D01*
X15285638Y-9811751D01*
X15286876Y-9806798D01*
X15288114Y-9804322D01*
X15289353Y-9803084D01*
X15291829Y-9801846D01*
D14*
G04 #@! TO.C,IC1*
X13909024Y-8951452D02*
X13909024Y-8824452D01*
X14042071Y-8939357D02*
X14036024Y-8945405D01*
X14017881Y-8951452D01*
X14005786Y-8951452D01*
X13987643Y-8945405D01*
X13975548Y-8933310D01*
X13969500Y-8921214D01*
X13963452Y-8897024D01*
X13963452Y-8878881D01*
X13969500Y-8854690D01*
X13975548Y-8842595D01*
X13987643Y-8830500D01*
X14005786Y-8824452D01*
X14017881Y-8824452D01*
X14036024Y-8830500D01*
X14042071Y-8836548D01*
X14163024Y-8951452D02*
X14090452Y-8951452D01*
X14126738Y-8951452D02*
X14126738Y-8824452D01*
X14114643Y-8842595D01*
X14102548Y-8854690D01*
X14090452Y-8860738D01*
D10*
G04 #@! TO.C,R21*
X14284752Y-9823238D02*
X14227609Y-9823238D01*
X14256181Y-9823238D02*
X14256181Y-9723238D01*
X14246657Y-9737524D01*
X14237133Y-9747048D01*
X14227609Y-9751810D01*
X14346657Y-9723238D02*
X14356181Y-9723238D01*
X14365705Y-9728000D01*
X14370467Y-9732762D01*
X14375228Y-9742286D01*
X14379990Y-9761333D01*
X14379990Y-9785143D01*
X14375228Y-9804190D01*
X14370467Y-9813714D01*
X14365705Y-9818476D01*
X14356181Y-9823238D01*
X14346657Y-9823238D01*
X14337133Y-9818476D01*
X14332371Y-9813714D01*
X14327609Y-9804190D01*
X14322848Y-9785143D01*
X14322848Y-9761333D01*
X14327609Y-9742286D01*
X14332371Y-9732762D01*
X14337133Y-9728000D01*
X14346657Y-9723238D01*
X14422848Y-9823238D02*
X14422848Y-9723238D01*
X14479990Y-9823238D02*
X14437133Y-9766095D01*
X14479990Y-9723238D02*
X14422848Y-9780381D01*
D12*
X14337086Y-9906762D02*
X14328419Y-9894381D01*
X14322228Y-9906762D02*
X14322228Y-9880762D01*
X14332133Y-9880762D01*
X14334609Y-9882000D01*
X14335848Y-9883238D01*
X14337086Y-9885714D01*
X14337086Y-9889429D01*
X14335848Y-9891905D01*
X14334609Y-9893143D01*
X14332133Y-9894381D01*
X14322228Y-9894381D01*
X14346990Y-9883238D02*
X14348228Y-9882000D01*
X14350705Y-9880762D01*
X14356895Y-9880762D01*
X14359371Y-9882000D01*
X14360609Y-9883238D01*
X14361848Y-9885714D01*
X14361848Y-9888190D01*
X14360609Y-9891905D01*
X14345752Y-9906762D01*
X14361848Y-9906762D01*
X14386609Y-9906762D02*
X14371752Y-9906762D01*
X14379181Y-9906762D02*
X14379181Y-9880762D01*
X14376705Y-9884476D01*
X14374228Y-9886952D01*
X14371752Y-9888190D01*
D10*
G04 #@! TO.C,H3*
X13674428Y-10671838D02*
X13674428Y-10571838D01*
X13707762Y-10643267D01*
X13741095Y-10571838D01*
X13741095Y-10671838D01*
X13803000Y-10671838D02*
X13793476Y-10667076D01*
X13788714Y-10662314D01*
X13783952Y-10652790D01*
X13783952Y-10624219D01*
X13788714Y-10614695D01*
X13793476Y-10609933D01*
X13803000Y-10605171D01*
X13817286Y-10605171D01*
X13826809Y-10609933D01*
X13831571Y-10614695D01*
X13836333Y-10624219D01*
X13836333Y-10652790D01*
X13831571Y-10662314D01*
X13826809Y-10667076D01*
X13817286Y-10671838D01*
X13803000Y-10671838D01*
X13922048Y-10605171D02*
X13922048Y-10671838D01*
X13879190Y-10605171D02*
X13879190Y-10657552D01*
X13883952Y-10667076D01*
X13893476Y-10671838D01*
X13907762Y-10671838D01*
X13917286Y-10667076D01*
X13922048Y-10662314D01*
X13969667Y-10605171D02*
X13969667Y-10671838D01*
X13969667Y-10614695D02*
X13974428Y-10609933D01*
X13983952Y-10605171D01*
X13998238Y-10605171D01*
X14007762Y-10609933D01*
X14012524Y-10619457D01*
X14012524Y-10671838D01*
X14045857Y-10605171D02*
X14083952Y-10605171D01*
X14060143Y-10571838D02*
X14060143Y-10657552D01*
X14064905Y-10667076D01*
X14074428Y-10671838D01*
X14083952Y-10671838D01*
X14117286Y-10671838D02*
X14117286Y-10605171D01*
X14117286Y-10571838D02*
X14112524Y-10576600D01*
X14117286Y-10581362D01*
X14122048Y-10576600D01*
X14117286Y-10571838D01*
X14117286Y-10581362D01*
X14164905Y-10605171D02*
X14164905Y-10671838D01*
X14164905Y-10614695D02*
X14169667Y-10609933D01*
X14179190Y-10605171D01*
X14193476Y-10605171D01*
X14203000Y-10609933D01*
X14207762Y-10619457D01*
X14207762Y-10671838D01*
X14298238Y-10605171D02*
X14298238Y-10686124D01*
X14293476Y-10695648D01*
X14288714Y-10700410D01*
X14279190Y-10705171D01*
X14264905Y-10705171D01*
X14255381Y-10700410D01*
X14298238Y-10667076D02*
X14288714Y-10671838D01*
X14269667Y-10671838D01*
X14260143Y-10667076D01*
X14255381Y-10662314D01*
X14250619Y-10652790D01*
X14250619Y-10624219D01*
X14255381Y-10614695D01*
X14260143Y-10609933D01*
X14269667Y-10605171D01*
X14288714Y-10605171D01*
X14298238Y-10609933D01*
X14345857Y-10671838D02*
X14345857Y-10571838D01*
X14345857Y-10619457D02*
X14403000Y-10619457D01*
X14403000Y-10671838D02*
X14403000Y-10571838D01*
X14464905Y-10671838D02*
X14455381Y-10667076D01*
X14450619Y-10662314D01*
X14445857Y-10652790D01*
X14445857Y-10624219D01*
X14450619Y-10614695D01*
X14455381Y-10609933D01*
X14464905Y-10605171D01*
X14479190Y-10605171D01*
X14488714Y-10609933D01*
X14493476Y-10614695D01*
X14498238Y-10624219D01*
X14498238Y-10652790D01*
X14493476Y-10662314D01*
X14488714Y-10667076D01*
X14479190Y-10671838D01*
X14464905Y-10671838D01*
X14555381Y-10671838D02*
X14545857Y-10667076D01*
X14541095Y-10657552D01*
X14541095Y-10571838D01*
X14631571Y-10667076D02*
X14622048Y-10671838D01*
X14603000Y-10671838D01*
X14593476Y-10667076D01*
X14588714Y-10657552D01*
X14588714Y-10619457D01*
X14593476Y-10609933D01*
X14603000Y-10605171D01*
X14622048Y-10605171D01*
X14631571Y-10609933D01*
X14636333Y-10619457D01*
X14636333Y-10628981D01*
X14588714Y-10638505D01*
X14106809Y-10351838D02*
X14106809Y-10251838D01*
X14106809Y-10299457D02*
X14163952Y-10299457D01*
X14163952Y-10351838D02*
X14163952Y-10251838D01*
X14202048Y-10251838D02*
X14263952Y-10251838D01*
X14230619Y-10289933D01*
X14244905Y-10289933D01*
X14254428Y-10294695D01*
X14259190Y-10299457D01*
X14263952Y-10308981D01*
X14263952Y-10332790D01*
X14259190Y-10342314D01*
X14254428Y-10347076D01*
X14244905Y-10351838D01*
X14216333Y-10351838D01*
X14206809Y-10347076D01*
X14202048Y-10342314D01*
G04 #@! TO.C,H2*
X15261628Y-8665238D02*
X15261628Y-8565238D01*
X15294962Y-8636667D01*
X15328295Y-8565238D01*
X15328295Y-8665238D01*
X15390200Y-8665238D02*
X15380676Y-8660476D01*
X15375914Y-8655714D01*
X15371152Y-8646190D01*
X15371152Y-8617619D01*
X15375914Y-8608095D01*
X15380676Y-8603333D01*
X15390200Y-8598571D01*
X15404486Y-8598571D01*
X15414009Y-8603333D01*
X15418771Y-8608095D01*
X15423533Y-8617619D01*
X15423533Y-8646190D01*
X15418771Y-8655714D01*
X15414009Y-8660476D01*
X15404486Y-8665238D01*
X15390200Y-8665238D01*
X15509248Y-8598571D02*
X15509248Y-8665238D01*
X15466390Y-8598571D02*
X15466390Y-8650952D01*
X15471152Y-8660476D01*
X15480676Y-8665238D01*
X15494962Y-8665238D01*
X15504486Y-8660476D01*
X15509248Y-8655714D01*
X15556867Y-8598571D02*
X15556867Y-8665238D01*
X15556867Y-8608095D02*
X15561628Y-8603333D01*
X15571152Y-8598571D01*
X15585438Y-8598571D01*
X15594962Y-8603333D01*
X15599724Y-8612857D01*
X15599724Y-8665238D01*
X15633057Y-8598571D02*
X15671152Y-8598571D01*
X15647343Y-8565238D02*
X15647343Y-8650952D01*
X15652105Y-8660476D01*
X15661628Y-8665238D01*
X15671152Y-8665238D01*
X15704486Y-8665238D02*
X15704486Y-8598571D01*
X15704486Y-8565238D02*
X15699724Y-8570000D01*
X15704486Y-8574762D01*
X15709248Y-8570000D01*
X15704486Y-8565238D01*
X15704486Y-8574762D01*
X15752105Y-8598571D02*
X15752105Y-8665238D01*
X15752105Y-8608095D02*
X15756867Y-8603333D01*
X15766390Y-8598571D01*
X15780676Y-8598571D01*
X15790200Y-8603333D01*
X15794962Y-8612857D01*
X15794962Y-8665238D01*
X15885438Y-8598571D02*
X15885438Y-8679524D01*
X15880676Y-8689048D01*
X15875914Y-8693810D01*
X15866390Y-8698571D01*
X15852105Y-8698571D01*
X15842581Y-8693810D01*
X15885438Y-8660476D02*
X15875914Y-8665238D01*
X15856867Y-8665238D01*
X15847343Y-8660476D01*
X15842581Y-8655714D01*
X15837819Y-8646190D01*
X15837819Y-8617619D01*
X15842581Y-8608095D01*
X15847343Y-8603333D01*
X15856867Y-8598571D01*
X15875914Y-8598571D01*
X15885438Y-8603333D01*
X15933057Y-8665238D02*
X15933057Y-8565238D01*
X15933057Y-8612857D02*
X15990200Y-8612857D01*
X15990200Y-8665238D02*
X15990200Y-8565238D01*
X16052105Y-8665238D02*
X16042581Y-8660476D01*
X16037819Y-8655714D01*
X16033057Y-8646190D01*
X16033057Y-8617619D01*
X16037819Y-8608095D01*
X16042581Y-8603333D01*
X16052105Y-8598571D01*
X16066390Y-8598571D01*
X16075914Y-8603333D01*
X16080676Y-8608095D01*
X16085438Y-8617619D01*
X16085438Y-8646190D01*
X16080676Y-8655714D01*
X16075914Y-8660476D01*
X16066390Y-8665238D01*
X16052105Y-8665238D01*
X16142581Y-8665238D02*
X16133057Y-8660476D01*
X16128295Y-8650952D01*
X16128295Y-8565238D01*
X16218771Y-8660476D02*
X16209248Y-8665238D01*
X16190200Y-8665238D01*
X16180676Y-8660476D01*
X16175914Y-8650952D01*
X16175914Y-8612857D01*
X16180676Y-8603333D01*
X16190200Y-8598571D01*
X16209248Y-8598571D01*
X16218771Y-8603333D01*
X16223533Y-8612857D01*
X16223533Y-8622381D01*
X16175914Y-8631905D01*
X15694009Y-8345238D02*
X15694009Y-8245238D01*
X15694009Y-8292857D02*
X15751152Y-8292857D01*
X15751152Y-8345238D02*
X15751152Y-8245238D01*
X15794009Y-8254762D02*
X15798771Y-8250000D01*
X15808295Y-8245238D01*
X15832105Y-8245238D01*
X15841628Y-8250000D01*
X15846390Y-8254762D01*
X15851152Y-8264286D01*
X15851152Y-8273809D01*
X15846390Y-8288095D01*
X15789248Y-8345238D01*
X15851152Y-8345238D01*
G04 #@! TO.C,H1*
X12061228Y-8665238D02*
X12061228Y-8565238D01*
X12094562Y-8636667D01*
X12127895Y-8565238D01*
X12127895Y-8665238D01*
X12189800Y-8665238D02*
X12180276Y-8660476D01*
X12175514Y-8655714D01*
X12170752Y-8646190D01*
X12170752Y-8617619D01*
X12175514Y-8608095D01*
X12180276Y-8603333D01*
X12189800Y-8598571D01*
X12204086Y-8598571D01*
X12213609Y-8603333D01*
X12218371Y-8608095D01*
X12223133Y-8617619D01*
X12223133Y-8646190D01*
X12218371Y-8655714D01*
X12213609Y-8660476D01*
X12204086Y-8665238D01*
X12189800Y-8665238D01*
X12308848Y-8598571D02*
X12308848Y-8665238D01*
X12265990Y-8598571D02*
X12265990Y-8650952D01*
X12270752Y-8660476D01*
X12280276Y-8665238D01*
X12294562Y-8665238D01*
X12304086Y-8660476D01*
X12308848Y-8655714D01*
X12356467Y-8598571D02*
X12356467Y-8665238D01*
X12356467Y-8608095D02*
X12361228Y-8603333D01*
X12370752Y-8598571D01*
X12385038Y-8598571D01*
X12394562Y-8603333D01*
X12399324Y-8612857D01*
X12399324Y-8665238D01*
X12432657Y-8598571D02*
X12470752Y-8598571D01*
X12446943Y-8565238D02*
X12446943Y-8650952D01*
X12451705Y-8660476D01*
X12461228Y-8665238D01*
X12470752Y-8665238D01*
X12504086Y-8665238D02*
X12504086Y-8598571D01*
X12504086Y-8565238D02*
X12499324Y-8570000D01*
X12504086Y-8574762D01*
X12508848Y-8570000D01*
X12504086Y-8565238D01*
X12504086Y-8574762D01*
X12551705Y-8598571D02*
X12551705Y-8665238D01*
X12551705Y-8608095D02*
X12556467Y-8603333D01*
X12565990Y-8598571D01*
X12580276Y-8598571D01*
X12589800Y-8603333D01*
X12594562Y-8612857D01*
X12594562Y-8665238D01*
X12685038Y-8598571D02*
X12685038Y-8679524D01*
X12680276Y-8689048D01*
X12675514Y-8693810D01*
X12665990Y-8698571D01*
X12651705Y-8698571D01*
X12642181Y-8693810D01*
X12685038Y-8660476D02*
X12675514Y-8665238D01*
X12656467Y-8665238D01*
X12646943Y-8660476D01*
X12642181Y-8655714D01*
X12637419Y-8646190D01*
X12637419Y-8617619D01*
X12642181Y-8608095D01*
X12646943Y-8603333D01*
X12656467Y-8598571D01*
X12675514Y-8598571D01*
X12685038Y-8603333D01*
X12732657Y-8665238D02*
X12732657Y-8565238D01*
X12732657Y-8612857D02*
X12789800Y-8612857D01*
X12789800Y-8665238D02*
X12789800Y-8565238D01*
X12851705Y-8665238D02*
X12842181Y-8660476D01*
X12837419Y-8655714D01*
X12832657Y-8646190D01*
X12832657Y-8617619D01*
X12837419Y-8608095D01*
X12842181Y-8603333D01*
X12851705Y-8598571D01*
X12865990Y-8598571D01*
X12875514Y-8603333D01*
X12880276Y-8608095D01*
X12885038Y-8617619D01*
X12885038Y-8646190D01*
X12880276Y-8655714D01*
X12875514Y-8660476D01*
X12865990Y-8665238D01*
X12851705Y-8665238D01*
X12942181Y-8665238D02*
X12932657Y-8660476D01*
X12927895Y-8650952D01*
X12927895Y-8565238D01*
X13018371Y-8660476D02*
X13008848Y-8665238D01*
X12989800Y-8665238D01*
X12980276Y-8660476D01*
X12975514Y-8650952D01*
X12975514Y-8612857D01*
X12980276Y-8603333D01*
X12989800Y-8598571D01*
X13008848Y-8598571D01*
X13018371Y-8603333D01*
X13023133Y-8612857D01*
X13023133Y-8622381D01*
X12975514Y-8631905D01*
X12493609Y-8345238D02*
X12493609Y-8245238D01*
X12493609Y-8292857D02*
X12550752Y-8292857D01*
X12550752Y-8345238D02*
X12550752Y-8245238D01*
X12650752Y-8345238D02*
X12593609Y-8345238D01*
X12622181Y-8345238D02*
X12622181Y-8245238D01*
X12612657Y-8259524D01*
X12603133Y-8269048D01*
X12593609Y-8273809D01*
G04 #@! TO.C,C3*
X12133514Y-8539238D02*
X12076371Y-8539238D01*
X12104943Y-8539238D02*
X12104943Y-8439238D01*
X12095419Y-8453524D01*
X12085895Y-8463048D01*
X12076371Y-8467810D01*
X12195419Y-8439238D02*
X12204943Y-8439238D01*
X12214467Y-8444000D01*
X12219228Y-8448762D01*
X12223990Y-8458286D01*
X12228752Y-8477333D01*
X12228752Y-8501143D01*
X12223990Y-8520190D01*
X12219228Y-8529714D01*
X12214467Y-8534476D01*
X12204943Y-8539238D01*
X12195419Y-8539238D01*
X12185895Y-8534476D01*
X12181133Y-8529714D01*
X12176371Y-8520190D01*
X12171609Y-8501143D01*
X12171609Y-8477333D01*
X12176371Y-8458286D01*
X12181133Y-8448762D01*
X12185895Y-8444000D01*
X12195419Y-8439238D01*
X12314467Y-8472571D02*
X12314467Y-8539238D01*
X12271609Y-8472571D02*
X12271609Y-8524952D01*
X12276371Y-8534476D01*
X12285895Y-8539238D01*
X12300181Y-8539238D01*
X12309705Y-8534476D01*
X12314467Y-8529714D01*
D15*
X12184467Y-8704571D02*
X12180657Y-8708381D01*
X12169228Y-8712190D01*
X12161609Y-8712190D01*
X12150181Y-8708381D01*
X12142562Y-8700762D01*
X12138752Y-8693143D01*
X12134943Y-8677905D01*
X12134943Y-8666476D01*
X12138752Y-8651238D01*
X12142562Y-8643619D01*
X12150181Y-8636000D01*
X12161609Y-8632190D01*
X12169228Y-8632190D01*
X12180657Y-8636000D01*
X12184467Y-8639810D01*
X12211133Y-8632190D02*
X12260657Y-8632190D01*
X12233990Y-8662667D01*
X12245419Y-8662667D01*
X12253038Y-8666476D01*
X12256848Y-8670286D01*
X12260657Y-8677905D01*
X12260657Y-8696952D01*
X12256848Y-8704571D01*
X12253038Y-8708381D01*
X12245419Y-8712190D01*
X12222562Y-8712190D01*
X12214943Y-8708381D01*
X12211133Y-8704571D01*
D10*
G04 #@! TO.C,C9*
X14823038Y-10234286D02*
X14823038Y-10291429D01*
X14823038Y-10262857D02*
X14723038Y-10262857D01*
X14737324Y-10272381D01*
X14746848Y-10281905D01*
X14751609Y-10291429D01*
X14723038Y-10172381D02*
X14723038Y-10162857D01*
X14727800Y-10153333D01*
X14732562Y-10148571D01*
X14742086Y-10143810D01*
X14761133Y-10139048D01*
X14784943Y-10139048D01*
X14803990Y-10143810D01*
X14813514Y-10148571D01*
X14818276Y-10153333D01*
X14823038Y-10162857D01*
X14823038Y-10172381D01*
X14818276Y-10181905D01*
X14813514Y-10186667D01*
X14803990Y-10191429D01*
X14784943Y-10196190D01*
X14761133Y-10196190D01*
X14742086Y-10191429D01*
X14732562Y-10186667D01*
X14727800Y-10181905D01*
X14723038Y-10172381D01*
X14756371Y-10053333D02*
X14823038Y-10053333D01*
X14756371Y-10096190D02*
X14808752Y-10096190D01*
X14818276Y-10091429D01*
X14823038Y-10081905D01*
X14823038Y-10067619D01*
X14818276Y-10058095D01*
X14813514Y-10053333D01*
D15*
X14988371Y-10183333D02*
X14992181Y-10187143D01*
X14995990Y-10198571D01*
X14995990Y-10206190D01*
X14992181Y-10217619D01*
X14984562Y-10225238D01*
X14976943Y-10229048D01*
X14961705Y-10232857D01*
X14950276Y-10232857D01*
X14935038Y-10229048D01*
X14927419Y-10225238D01*
X14919800Y-10217619D01*
X14915990Y-10206190D01*
X14915990Y-10198571D01*
X14919800Y-10187143D01*
X14923609Y-10183333D01*
X14995990Y-10145238D02*
X14995990Y-10130000D01*
X14992181Y-10122381D01*
X14988371Y-10118571D01*
X14976943Y-10110952D01*
X14961705Y-10107143D01*
X14931228Y-10107143D01*
X14923609Y-10110952D01*
X14919800Y-10114762D01*
X14915990Y-10122381D01*
X14915990Y-10137619D01*
X14919800Y-10145238D01*
X14923609Y-10149048D01*
X14931228Y-10152857D01*
X14950276Y-10152857D01*
X14957895Y-10149048D01*
X14961705Y-10145238D01*
X14965514Y-10137619D01*
X14965514Y-10122381D01*
X14961705Y-10114762D01*
X14957895Y-10110952D01*
X14950276Y-10107143D01*
D10*
G04 #@! TO.C,C10*
X12151371Y-8815238D02*
X12160895Y-8815238D01*
X12170419Y-8820000D01*
X12175181Y-8824762D01*
X12179943Y-8834286D01*
X12184705Y-8853333D01*
X12184705Y-8877143D01*
X12179943Y-8896190D01*
X12175181Y-8905714D01*
X12170419Y-8910476D01*
X12160895Y-8915238D01*
X12151371Y-8915238D01*
X12141848Y-8910476D01*
X12137086Y-8905714D01*
X12132324Y-8896190D01*
X12127562Y-8877143D01*
X12127562Y-8853333D01*
X12132324Y-8834286D01*
X12137086Y-8824762D01*
X12141848Y-8820000D01*
X12151371Y-8815238D01*
X12227562Y-8905714D02*
X12232324Y-8910476D01*
X12227562Y-8915238D01*
X12222800Y-8910476D01*
X12227562Y-8905714D01*
X12227562Y-8915238D01*
X12327562Y-8915238D02*
X12270419Y-8915238D01*
X12298990Y-8915238D02*
X12298990Y-8815238D01*
X12289467Y-8829524D01*
X12279943Y-8839048D01*
X12270419Y-8843810D01*
X12413276Y-8848571D02*
X12413276Y-8915238D01*
X12370419Y-8848571D02*
X12370419Y-8900952D01*
X12375181Y-8910476D01*
X12384705Y-8915238D01*
X12398990Y-8915238D01*
X12408514Y-8910476D01*
X12413276Y-8905714D01*
D12*
X12256728Y-8994929D02*
X12255538Y-8996119D01*
X12251967Y-8997310D01*
X12249586Y-8997310D01*
X12246014Y-8996119D01*
X12243633Y-8993738D01*
X12242443Y-8991357D01*
X12241252Y-8986595D01*
X12241252Y-8983024D01*
X12242443Y-8978262D01*
X12243633Y-8975881D01*
X12246014Y-8973500D01*
X12249586Y-8972310D01*
X12251967Y-8972310D01*
X12255538Y-8973500D01*
X12256728Y-8974690D01*
X12280538Y-8997310D02*
X12266252Y-8997310D01*
X12273395Y-8997310D02*
X12273395Y-8972310D01*
X12271014Y-8975881D01*
X12268633Y-8978262D01*
X12266252Y-8979452D01*
X12296014Y-8972310D02*
X12298395Y-8972310D01*
X12300776Y-8973500D01*
X12301967Y-8974690D01*
X12303157Y-8977071D01*
X12304348Y-8981833D01*
X12304348Y-8987786D01*
X12303157Y-8992548D01*
X12301967Y-8994929D01*
X12300776Y-8996119D01*
X12298395Y-8997310D01*
X12296014Y-8997310D01*
X12293633Y-8996119D01*
X12292443Y-8994929D01*
X12291252Y-8992548D01*
X12290062Y-8987786D01*
X12290062Y-8981833D01*
X12291252Y-8977071D01*
X12292443Y-8974690D01*
X12293633Y-8973500D01*
X12296014Y-8972310D01*
D10*
G04 #@! TO.C,U6*
X12848587Y-8643961D02*
X12848587Y-8596342D01*
X12877158Y-8653485D02*
X12777158Y-8620151D01*
X12877158Y-8586818D01*
X12872396Y-8558247D02*
X12877158Y-8543961D01*
X12877158Y-8520151D01*
X12872396Y-8510628D01*
X12867634Y-8505866D01*
X12858110Y-8501104D01*
X12848587Y-8501104D01*
X12839063Y-8505866D01*
X12834301Y-8510628D01*
X12829539Y-8520151D01*
X12824777Y-8539199D01*
X12820015Y-8548723D01*
X12815253Y-8553485D01*
X12805729Y-8558247D01*
X12796206Y-8558247D01*
X12786682Y-8553485D01*
X12781920Y-8548723D01*
X12777158Y-8539199D01*
X12777158Y-8515390D01*
X12781920Y-8501104D01*
X12777158Y-8467770D02*
X12777158Y-8401104D01*
X12877158Y-8443961D01*
X12777158Y-8372532D02*
X12777158Y-8310628D01*
X12815253Y-8343961D01*
X12815253Y-8329675D01*
X12820015Y-8320151D01*
X12824777Y-8315389D01*
X12834301Y-8310628D01*
X12858110Y-8310628D01*
X12867634Y-8315389D01*
X12872396Y-8320151D01*
X12877158Y-8329675D01*
X12877158Y-8358247D01*
X12872396Y-8367770D01*
X12867634Y-8372532D01*
X12810491Y-8224913D02*
X12877158Y-8224913D01*
X12772396Y-8248723D02*
X12843825Y-8272532D01*
X12843825Y-8210628D01*
X12877158Y-8120151D02*
X12877158Y-8177294D01*
X12877158Y-8148723D02*
X12777158Y-8148723D01*
X12791444Y-8158247D01*
X12800968Y-8167770D01*
X12805729Y-8177294D01*
X12839063Y-8077294D02*
X12839063Y-8001104D01*
X12877158Y-7953485D02*
X12777158Y-7953485D01*
X12777158Y-7929675D01*
X12781920Y-7915389D01*
X12791444Y-7905866D01*
X12800968Y-7901104D01*
X12820015Y-7896342D01*
X12834301Y-7896342D01*
X12853348Y-7901104D01*
X12862872Y-7905866D01*
X12872396Y-7915389D01*
X12877158Y-7929675D01*
X12877158Y-7953485D01*
X12877158Y-7805866D02*
X12877158Y-7853485D01*
X12777158Y-7853485D01*
X12781920Y-7720151D02*
X12777158Y-7729675D01*
X12777158Y-7743961D01*
X12781920Y-7758247D01*
X12791444Y-7767770D01*
X12800968Y-7772532D01*
X12820015Y-7777294D01*
X12834301Y-7777294D01*
X12853348Y-7772532D01*
X12862872Y-7767770D01*
X12872396Y-7758247D01*
X12877158Y-7743961D01*
X12877158Y-7734437D01*
X12872396Y-7720151D01*
X12867634Y-7715389D01*
X12834301Y-7715389D01*
X12834301Y-7734437D01*
X12777158Y-7686818D02*
X12777158Y-7629675D01*
X12877158Y-7658247D02*
X12777158Y-7658247D01*
G04 #@! TO.C,C7*
X12433133Y-9053238D02*
X12375990Y-9053238D01*
X12404562Y-9053238D02*
X12404562Y-8953238D01*
X12395038Y-8967524D01*
X12385514Y-8977048D01*
X12375990Y-8981810D01*
X12518848Y-8986571D02*
X12518848Y-9053238D01*
X12475990Y-8986571D02*
X12475990Y-9038952D01*
X12480752Y-9048476D01*
X12490276Y-9053238D01*
X12504562Y-9053238D01*
X12514086Y-9048476D01*
X12518848Y-9043714D01*
D16*
X12443133Y-8879286D02*
X12441228Y-8881190D01*
X12435514Y-8883095D01*
X12431705Y-8883095D01*
X12425990Y-8881190D01*
X12422181Y-8877381D01*
X12420276Y-8873571D01*
X12418371Y-8865952D01*
X12418371Y-8860238D01*
X12420276Y-8852619D01*
X12422181Y-8848810D01*
X12425990Y-8845000D01*
X12431705Y-8843095D01*
X12435514Y-8843095D01*
X12441228Y-8845000D01*
X12443133Y-8846905D01*
X12456467Y-8843095D02*
X12483133Y-8843095D01*
X12465990Y-8883095D01*
D10*
G04 #@! TO.C,SYM1*
X12583990Y-9412476D02*
X12598276Y-9417238D01*
X12622086Y-9417238D01*
X12631609Y-9412476D01*
X12636371Y-9407714D01*
X12641133Y-9398190D01*
X12641133Y-9388667D01*
X12636371Y-9379143D01*
X12631609Y-9374381D01*
X12622086Y-9369619D01*
X12603038Y-9364857D01*
X12593514Y-9360095D01*
X12588752Y-9355333D01*
X12583990Y-9345810D01*
X12583990Y-9336286D01*
X12588752Y-9326762D01*
X12593514Y-9322000D01*
X12603038Y-9317238D01*
X12626848Y-9317238D01*
X12641133Y-9322000D01*
X12703038Y-9369619D02*
X12703038Y-9417238D01*
X12669705Y-9317238D02*
X12703038Y-9369619D01*
X12736371Y-9317238D01*
X12769705Y-9417238D02*
X12769705Y-9317238D01*
X12803038Y-9388667D01*
X12836371Y-9317238D01*
X12836371Y-9417238D01*
X12860181Y-9426762D02*
X12936371Y-9426762D01*
X12955419Y-9388667D02*
X13003038Y-9388667D01*
X12945895Y-9417238D02*
X12979228Y-9317238D01*
X13012562Y-9417238D01*
X13045895Y-9417238D02*
X13045895Y-9350571D01*
X13045895Y-9369619D02*
X13050657Y-9360095D01*
X13055419Y-9355333D01*
X13064943Y-9350571D01*
X13074467Y-9350571D01*
X13107800Y-9417238D02*
X13107800Y-9350571D01*
X13107800Y-9369619D02*
X13112562Y-9360095D01*
X13117324Y-9355333D01*
X13126848Y-9350571D01*
X13136371Y-9350571D01*
X13183990Y-9417238D02*
X13174467Y-9412476D01*
X13169705Y-9407714D01*
X13164943Y-9398190D01*
X13164943Y-9369619D01*
X13169705Y-9360095D01*
X13174467Y-9355333D01*
X13183990Y-9350571D01*
X13198276Y-9350571D01*
X13207800Y-9355333D01*
X13212562Y-9360095D01*
X13217324Y-9369619D01*
X13217324Y-9398190D01*
X13212562Y-9407714D01*
X13207800Y-9412476D01*
X13198276Y-9417238D01*
X13183990Y-9417238D01*
X13250657Y-9350571D02*
X13269705Y-9417238D01*
X13288752Y-9369619D01*
X13307800Y-9417238D01*
X13326848Y-9350571D01*
X13341133Y-9426762D02*
X13417324Y-9426762D01*
X13441133Y-9417238D02*
X13441133Y-9317238D01*
X13498276Y-9417238D01*
X13498276Y-9317238D01*
X13560181Y-9417238D02*
X13550657Y-9412476D01*
X13545895Y-9407714D01*
X13541133Y-9398190D01*
X13541133Y-9369619D01*
X13545895Y-9360095D01*
X13550657Y-9355333D01*
X13560181Y-9350571D01*
X13574467Y-9350571D01*
X13583990Y-9355333D01*
X13588752Y-9360095D01*
X13593514Y-9369619D01*
X13593514Y-9398190D01*
X13588752Y-9407714D01*
X13583990Y-9412476D01*
X13574467Y-9417238D01*
X13560181Y-9417238D01*
X13636371Y-9417238D02*
X13636371Y-9350571D01*
X13636371Y-9369619D02*
X13641133Y-9360095D01*
X13645895Y-9355333D01*
X13655419Y-9350571D01*
X13664943Y-9350571D01*
X13698276Y-9417238D02*
X13698276Y-9350571D01*
X13698276Y-9360095D02*
X13703038Y-9355333D01*
X13712562Y-9350571D01*
X13726848Y-9350571D01*
X13736371Y-9355333D01*
X13741133Y-9364857D01*
X13741133Y-9417238D01*
X13741133Y-9364857D02*
X13745895Y-9355333D01*
X13755419Y-9350571D01*
X13769705Y-9350571D01*
X13779228Y-9355333D01*
X13783990Y-9364857D01*
X13783990Y-9417238D01*
X13874467Y-9417238D02*
X13874467Y-9364857D01*
X13869705Y-9355333D01*
X13860181Y-9350571D01*
X13841133Y-9350571D01*
X13831609Y-9355333D01*
X13874467Y-9412476D02*
X13864943Y-9417238D01*
X13841133Y-9417238D01*
X13831609Y-9412476D01*
X13826848Y-9402952D01*
X13826848Y-9393429D01*
X13831609Y-9383905D01*
X13841133Y-9379143D01*
X13864943Y-9379143D01*
X13874467Y-9374381D01*
X13936371Y-9417238D02*
X13926848Y-9412476D01*
X13922086Y-9402952D01*
X13922086Y-9317238D01*
G04 #@! TO.C,U4*
X11570752Y-9418238D02*
X11570752Y-9318238D01*
X11604086Y-9389667D01*
X11637419Y-9318238D01*
X11637419Y-9418238D01*
X11685038Y-9418238D02*
X11685038Y-9318238D01*
X11789800Y-9408714D02*
X11785038Y-9413476D01*
X11770752Y-9418238D01*
X11761228Y-9418238D01*
X11746943Y-9413476D01*
X11737419Y-9403952D01*
X11732657Y-9394429D01*
X11727895Y-9375381D01*
X11727895Y-9361095D01*
X11732657Y-9342048D01*
X11737419Y-9332524D01*
X11746943Y-9323000D01*
X11761228Y-9318238D01*
X11770752Y-9318238D01*
X11785038Y-9323000D01*
X11789800Y-9327762D01*
X11880276Y-9318238D02*
X11832657Y-9318238D01*
X11827895Y-9365857D01*
X11832657Y-9361095D01*
X11842181Y-9356333D01*
X11865990Y-9356333D01*
X11875514Y-9361095D01*
X11880276Y-9365857D01*
X11885038Y-9375381D01*
X11885038Y-9399190D01*
X11880276Y-9408714D01*
X11875514Y-9413476D01*
X11865990Y-9418238D01*
X11842181Y-9418238D01*
X11832657Y-9413476D01*
X11827895Y-9408714D01*
X11918371Y-9318238D02*
X11980276Y-9318238D01*
X11946943Y-9356333D01*
X11961228Y-9356333D01*
X11970752Y-9361095D01*
X11975514Y-9365857D01*
X11980276Y-9375381D01*
X11980276Y-9399190D01*
X11975514Y-9408714D01*
X11970752Y-9413476D01*
X11961228Y-9418238D01*
X11932657Y-9418238D01*
X11923133Y-9413476D01*
X11918371Y-9408714D01*
X12065990Y-9318238D02*
X12046943Y-9318238D01*
X12037419Y-9323000D01*
X12032657Y-9327762D01*
X12023133Y-9342048D01*
X12018371Y-9361095D01*
X12018371Y-9399190D01*
X12023133Y-9408714D01*
X12027895Y-9413476D01*
X12037419Y-9418238D01*
X12056467Y-9418238D01*
X12065990Y-9413476D01*
X12070752Y-9408714D01*
X12075514Y-9399190D01*
X12075514Y-9375381D01*
X12070752Y-9365857D01*
X12065990Y-9361095D01*
X12056467Y-9356333D01*
X12037419Y-9356333D01*
X12027895Y-9361095D01*
X12023133Y-9365857D01*
X12018371Y-9375381D01*
X12165990Y-9318238D02*
X12118371Y-9318238D01*
X12113609Y-9365857D01*
X12118371Y-9361095D01*
X12127895Y-9356333D01*
X12151705Y-9356333D01*
X12161228Y-9361095D01*
X12165990Y-9365857D01*
X12170752Y-9375381D01*
X12170752Y-9399190D01*
X12165990Y-9408714D01*
X12161228Y-9413476D01*
X12151705Y-9418238D01*
X12127895Y-9418238D01*
X12118371Y-9413476D01*
X12113609Y-9408714D01*
X12213609Y-9380143D02*
X12289800Y-9380143D01*
X12327895Y-9318238D02*
X12389800Y-9318238D01*
X12356467Y-9356333D01*
X12370752Y-9356333D01*
X12380276Y-9361095D01*
X12385038Y-9365857D01*
X12389800Y-9375381D01*
X12389800Y-9399190D01*
X12385038Y-9408714D01*
X12380276Y-9413476D01*
X12370752Y-9418238D01*
X12342181Y-9418238D01*
X12332657Y-9413476D01*
X12327895Y-9408714D01*
X12432657Y-9408714D02*
X12437419Y-9413476D01*
X12432657Y-9418238D01*
X12427895Y-9413476D01*
X12432657Y-9408714D01*
X12432657Y-9418238D01*
X12470752Y-9318238D02*
X12532657Y-9318238D01*
X12499324Y-9356333D01*
X12513609Y-9356333D01*
X12523133Y-9361095D01*
X12527895Y-9365857D01*
X12532657Y-9375381D01*
X12532657Y-9399190D01*
X12527895Y-9408714D01*
X12523133Y-9413476D01*
X12513609Y-9418238D01*
X12485038Y-9418238D01*
X12475514Y-9413476D01*
X12470752Y-9408714D01*
X12594562Y-9370619D02*
X12594562Y-9418238D01*
X12561228Y-9318238D02*
X12594562Y-9370619D01*
X12627895Y-9318238D01*
X12718371Y-9408714D02*
X12713609Y-9413476D01*
X12699324Y-9418238D01*
X12689800Y-9418238D01*
X12675514Y-9413476D01*
X12665990Y-9403952D01*
X12661228Y-9394429D01*
X12656467Y-9375381D01*
X12656467Y-9361095D01*
X12661228Y-9342048D01*
X12665990Y-9332524D01*
X12675514Y-9323000D01*
X12689800Y-9318238D01*
X12699324Y-9318238D01*
X12713609Y-9323000D01*
X12718371Y-9327762D01*
X12808848Y-9318238D02*
X12761228Y-9318238D01*
X12756467Y-9365857D01*
X12761228Y-9361095D01*
X12770752Y-9356333D01*
X12794562Y-9356333D01*
X12804086Y-9361095D01*
X12808848Y-9365857D01*
X12813609Y-9375381D01*
X12813609Y-9399190D01*
X12808848Y-9408714D01*
X12804086Y-9413476D01*
X12794562Y-9418238D01*
X12770752Y-9418238D01*
X12761228Y-9413476D01*
X12756467Y-9408714D01*
D11*
X12162419Y-9211095D02*
X12202895Y-9211095D01*
X12207657Y-9208714D01*
X12210038Y-9206333D01*
X12212419Y-9201571D01*
X12212419Y-9192048D01*
X12210038Y-9187286D01*
X12207657Y-9184905D01*
X12202895Y-9182524D01*
X12162419Y-9182524D01*
X12179086Y-9137286D02*
X12212419Y-9137286D01*
X12160038Y-9149190D02*
X12195752Y-9161095D01*
X12195752Y-9130143D01*
D17*
G04 #@! TO.C,U5*
X15251308Y-9269002D02*
X15371308Y-9269002D01*
X15211308Y-9559002D02*
X15211308Y-9309002D01*
X15371308Y-9559002D02*
X15211308Y-9559002D01*
X15211308Y-9309002D02*
X15251308Y-9269002D01*
X15371308Y-9269002D02*
X15371308Y-9559002D01*
G04 #@! TO.C,U3*
X12738200Y-9288000D02*
X12738200Y-9113000D01*
X12738200Y-9113000D02*
X12813200Y-9038000D01*
X12988200Y-9038000D02*
X12988200Y-9288000D01*
X12988200Y-9288000D02*
X12738200Y-9288000D01*
X12813200Y-9038000D02*
X12988200Y-9038000D01*
G04 #@! TO.C,C2*
X14491800Y-10289000D02*
X14441800Y-10289000D01*
X14491800Y-10189000D02*
X14491800Y-10289000D01*
X14441800Y-10289000D02*
X14441800Y-10189000D01*
X14441800Y-10189000D02*
X14491800Y-10189000D01*
G04 #@! TO.C,L2*
X15103300Y-10392100D02*
X15503300Y-10392100D01*
X15503300Y-9992100D02*
X15103300Y-9992100D01*
X15503300Y-10392100D02*
X15503300Y-9992100D01*
X15103300Y-9992100D02*
X15103300Y-10392100D01*
G04 #@! TO.C,R8*
X14800300Y-10138000D02*
X14695300Y-10138000D01*
X14800300Y-10084000D02*
X14800300Y-10138000D01*
X14695300Y-10138000D02*
X14695300Y-10084000D01*
X14695300Y-10084000D02*
X14800300Y-10084000D01*
G04 #@! TO.C,R1*
X15058276Y-9035222D02*
X15058276Y-8981222D01*
X15163276Y-9035222D02*
X15058276Y-9035222D01*
X15163276Y-8981222D02*
X15163276Y-9035222D01*
X15058276Y-8981222D02*
X15163276Y-8981222D01*
G04 #@! TO.C,R3*
X12077300Y-9470000D02*
X12077300Y-9524000D01*
X12077300Y-9524000D02*
X11972300Y-9524000D01*
X11972300Y-9470000D02*
X12077300Y-9470000D01*
X11972300Y-9524000D02*
X11972300Y-9470000D01*
G04 #@! TO.C,R15*
X11924800Y-8826500D02*
X11924800Y-8931500D01*
X11870800Y-8826500D02*
X11924800Y-8826500D01*
X11924800Y-8931500D02*
X11870800Y-8931500D01*
X11870800Y-8931500D02*
X11870800Y-8826500D01*
G04 #@! TO.C,R13*
X14897300Y-9491000D02*
X15002300Y-9491000D01*
X15002300Y-9545000D02*
X14897300Y-9545000D01*
X14897300Y-9545000D02*
X14897300Y-9491000D01*
X15002300Y-9491000D02*
X15002300Y-9545000D01*
G04 #@! TO.C,U2*
X15815800Y-10018000D02*
X15815800Y-10308000D01*
X15655800Y-10058000D02*
X15695800Y-10018000D01*
X15655800Y-10308000D02*
X15655800Y-10058000D01*
X15695800Y-10018000D02*
X15815800Y-10018000D01*
X15815800Y-10308000D02*
X15655800Y-10308000D01*
G04 #@! TO.C,U1*
X13040800Y-9214000D02*
X13040800Y-9064000D01*
X13240800Y-9264000D02*
X13090800Y-9264000D01*
X13090800Y-9264000D02*
X13040800Y-9214000D01*
X13240800Y-9064000D02*
X13240800Y-9264000D01*
X13040800Y-9064000D02*
X13240800Y-9064000D01*
G04 #@! TO.C,C8*
X16020720Y-9957324D02*
X15820720Y-9957324D01*
X15820720Y-9832324D02*
X16020720Y-9832324D01*
X16020720Y-9832324D02*
X16020720Y-9957324D01*
X15820720Y-9957324D02*
X15820720Y-9832324D01*
G04 #@! TO.C,R11*
X15196644Y-9694240D02*
X15196644Y-9640240D01*
X15301644Y-9640240D02*
X15301644Y-9694240D01*
X15196644Y-9640240D02*
X15301644Y-9640240D01*
X15301644Y-9694240D02*
X15196644Y-9694240D01*
G04 #@! TO.C,R14*
X12079300Y-9663000D02*
X11974300Y-9663000D01*
X12079300Y-9609000D02*
X12079300Y-9663000D01*
X11974300Y-9609000D02*
X12079300Y-9609000D01*
X11974300Y-9663000D02*
X11974300Y-9609000D01*
G04 #@! TO.C,R12*
X15001924Y-9406966D02*
X14896924Y-9406966D01*
X14896924Y-9406966D02*
X14896924Y-9352966D01*
X15001924Y-9352966D02*
X15001924Y-9406966D01*
X14896924Y-9352966D02*
X15001924Y-9352966D01*
G04 #@! TO.C,R17*
X12943300Y-8760000D02*
X12943300Y-8814000D01*
X12838300Y-8814000D02*
X12838300Y-8760000D01*
X12838300Y-8760000D02*
X12943300Y-8760000D01*
X12943300Y-8814000D02*
X12838300Y-8814000D01*
G04 #@! TO.C,R2*
X14969300Y-9125000D02*
X14864300Y-9125000D01*
X14864300Y-9071000D02*
X14969300Y-9071000D01*
X14864300Y-9125000D02*
X14864300Y-9071000D01*
X14969300Y-9071000D02*
X14969300Y-9125000D01*
G04 #@! TO.C,C4*
X12374800Y-9685000D02*
X12474800Y-9685000D01*
X12474800Y-9685000D02*
X12474800Y-9735000D01*
X12374800Y-9735000D02*
X12374800Y-9685000D01*
X12474800Y-9735000D02*
X12374800Y-9735000D01*
G04 #@! TO.C,J1*
X15744696Y-8817396D02*
X16474696Y-8817396D01*
X15744696Y-9711396D02*
X16474696Y-9711396D01*
X16474696Y-9711396D02*
X16474696Y-8817396D01*
X15744696Y-9711396D02*
X15744696Y-8817396D01*
G04 #@! TO.C,R5*
X12614800Y-9858500D02*
X12614800Y-9963500D01*
X12614800Y-9963500D02*
X12560800Y-9963500D01*
X12560800Y-9963500D02*
X12560800Y-9858500D01*
X12560800Y-9858500D02*
X12614800Y-9858500D01*
G04 #@! TO.C,R7*
X13176300Y-9383000D02*
X13176300Y-9437000D01*
X13176300Y-9437000D02*
X13071300Y-9437000D01*
X13071300Y-9383000D02*
X13176300Y-9383000D01*
X13071300Y-9437000D02*
X13071300Y-9383000D01*
G04 #@! TO.C,R19*
X15494300Y-9060000D02*
X15389300Y-9060000D01*
X15494300Y-9006000D02*
X15494300Y-9060000D01*
X15389300Y-9006000D02*
X15494300Y-9006000D01*
X15389300Y-9060000D02*
X15389300Y-9006000D01*
G04 #@! TO.C,C6*
X14899800Y-9823384D02*
X14999800Y-9823384D01*
X14899800Y-9873384D02*
X14899800Y-9823384D01*
X14999800Y-9873384D02*
X14899800Y-9873384D01*
X14999800Y-9823384D02*
X14999800Y-9873384D01*
G04 #@! TO.C,SW2*
X12738396Y-10491517D02*
X12937301Y-10512423D01*
X12649516Y-10141308D02*
X13097051Y-10188346D01*
X12937301Y-10512423D02*
X12945977Y-10429878D01*
X12622757Y-10395906D02*
X13070292Y-10442944D01*
X12649516Y-10141308D02*
X12622757Y-10395906D01*
X12738396Y-10491517D02*
X12747072Y-10408972D01*
X13097051Y-10188346D02*
X13070292Y-10442944D01*
G04 #@! TO.C,R4*
X12990800Y-9807500D02*
X13044800Y-9807500D01*
X12990800Y-9912500D02*
X12990800Y-9807500D01*
X13044800Y-9807500D02*
X13044800Y-9912500D01*
X13044800Y-9912500D02*
X12990800Y-9912500D01*
G04 #@! TO.C,C5*
X13209800Y-8816000D02*
X13159800Y-8816000D01*
X13159800Y-8816000D02*
X13159800Y-8716000D01*
X13159800Y-8716000D02*
X13209800Y-8716000D01*
X13209800Y-8716000D02*
X13209800Y-8816000D01*
G04 #@! TO.C,R9*
X14679300Y-10313000D02*
X14784300Y-10313000D01*
X14784300Y-10367000D02*
X14679300Y-10367000D01*
X14784300Y-10313000D02*
X14784300Y-10367000D01*
X14679300Y-10367000D02*
X14679300Y-10313000D01*
G04 #@! TO.C,Q1*
X12714800Y-9797500D02*
X12714800Y-9882500D01*
X12764800Y-9932500D02*
X12934800Y-9932500D01*
X12714800Y-9797500D02*
X12934800Y-9797500D01*
X12934800Y-9797500D02*
X12934800Y-9932500D01*
X12714800Y-9882500D02*
X12764800Y-9932500D01*
G04 #@! TO.C,D2*
X11898000Y-9028000D02*
X11748000Y-9028000D01*
X11898000Y-9028000D02*
X11898000Y-9498000D01*
X11748000Y-9028000D02*
X11748000Y-9498000D01*
X11898000Y-9498000D02*
X11748000Y-9498000D01*
G04 #@! TO.C,C1*
X11994800Y-8884000D02*
X11994800Y-8834000D01*
X11994800Y-8834000D02*
X12094800Y-8834000D01*
X12094800Y-8884000D02*
X11994800Y-8884000D01*
X12094800Y-8834000D02*
X12094800Y-8884000D01*
G04 #@! TO.C,R16*
X12643300Y-8764000D02*
X12748300Y-8764000D01*
X12643300Y-8818000D02*
X12643300Y-8764000D01*
X12748300Y-8818000D02*
X12643300Y-8818000D01*
X12748300Y-8764000D02*
X12748300Y-8818000D01*
G04 #@! TO.C,R6*
X14620800Y-10059500D02*
X14620800Y-10164500D01*
X14566800Y-10164500D02*
X14566800Y-10059500D01*
X14620800Y-10164500D02*
X14566800Y-10164500D01*
X14566800Y-10059500D02*
X14620800Y-10059500D01*
G04 #@! TO.C,SW1*
X12199632Y-10267491D02*
X12254085Y-10204850D01*
X12516375Y-10093652D02*
X12348423Y-10286858D01*
X12176755Y-9798426D02*
X12516375Y-10093652D01*
X12048690Y-10136280D02*
X12103143Y-10073639D01*
X12008804Y-9991631D02*
X12348423Y-10286858D01*
X12176755Y-9798426D02*
X12008804Y-9991631D01*
X12048690Y-10136280D02*
X12199632Y-10267491D01*
G04 #@! TO.C,R10*
X15195300Y-9184000D02*
X15195300Y-9130000D01*
X15300300Y-9130000D02*
X15300300Y-9184000D01*
X15195300Y-9130000D02*
X15300300Y-9130000D01*
X15300300Y-9184000D02*
X15195300Y-9184000D01*
G04 #@! TO.C,R20*
X15215186Y-9789084D02*
X15320186Y-9789084D01*
X15320186Y-9843084D02*
X15215186Y-9843084D01*
X15215186Y-9843084D02*
X15215186Y-9789084D01*
X15320186Y-9789084D02*
X15320186Y-9843084D01*
G04 #@! TO.C,IC1*
X13373000Y-8064000D02*
X13373000Y-9724000D01*
X14693000Y-9724000D02*
X14693000Y-8064000D01*
X13373000Y-9724000D02*
X14693000Y-9724000D01*
X14693000Y-8064000D02*
X13373000Y-8064000D01*
G04 #@! TO.C,R21*
X14301300Y-9922000D02*
X14301300Y-9868000D01*
X14406300Y-9922000D02*
X14301300Y-9922000D01*
X14406300Y-9868000D02*
X14406300Y-9922000D01*
X14301300Y-9868000D02*
X14406300Y-9868000D01*
G04 #@! TO.C,C3*
X12037800Y-8756000D02*
X12037800Y-8596000D01*
X12357800Y-8756000D02*
X12037800Y-8756000D01*
X12037800Y-8596000D02*
X12357800Y-8596000D01*
X12357800Y-8596000D02*
X12357800Y-8756000D01*
G04 #@! TO.C,C9*
X14879800Y-10010000D02*
X15039800Y-10010000D01*
X15039800Y-10330000D02*
X14879800Y-10330000D01*
X15039800Y-10010000D02*
X15039800Y-10330000D01*
X14879800Y-10330000D02*
X14879800Y-10010000D01*
G04 #@! TO.C,C10*
X12222800Y-9011000D02*
X12222800Y-8961000D01*
X12322800Y-9011000D02*
X12222800Y-9011000D01*
X12222800Y-8961000D02*
X12322800Y-8961000D01*
X12322800Y-8961000D02*
X12322800Y-9011000D01*
D18*
G04 #@! TO.C,U6*
X12380800Y-9063000D02*
X12690800Y-9063000D01*
X12380800Y-9263000D02*
X12380800Y-9063000D01*
X12690800Y-9063000D02*
X12690800Y-9263000D01*
X12690800Y-9263000D02*
X12380800Y-9263000D01*
D19*
X12425800Y-9317450D02*
G75*
G03*
X12425800Y-9317450I-10000J0D01*
G01*
D17*
G04 #@! TO.C,C7*
X12369800Y-8905000D02*
X12369800Y-8825000D01*
X12529800Y-8905000D02*
X12369800Y-8905000D01*
X12369800Y-8825000D02*
X12529800Y-8825000D01*
X12529800Y-8825000D02*
X12529800Y-8905000D01*
G04 #@! TO.C,U4*
X12122300Y-9113000D02*
X12122300Y-9283000D01*
X12257300Y-9063000D02*
X12172300Y-9063000D01*
X12257300Y-9283000D02*
X12122300Y-9283000D01*
X12172300Y-9063000D02*
X12122300Y-9113000D01*
X12257300Y-9063000D02*
X12257300Y-9283000D01*
G04 #@! TD*
M02*
