G04 #@! TF.GenerationSoftware,KiCad,Pcbnew,(6.0.0)*
G04 #@! TF.CreationDate,2022-02-21T15:34:56-06:00*
G04 #@! TF.ProjectId,temp sensor,74656d70-2073-4656-9e73-6f722e6b6963,0.3*
G04 #@! TF.SameCoordinates,Original*
G04 #@! TF.FileFunction,Copper,L2,Bot*
G04 #@! TF.FilePolarity,Positive*
%FSLAX45Y45*%
G04 Gerber Fmt 4.5, Leading zero omitted, Abs format (unit mm)*
G04 Created by KiCad (PCBNEW (6.0.0)) date 2022-02-21 15:34:56*
%MOMM*%
%LPD*%
G01*
G04 APERTURE LIST*
G04 #@! TA.AperFunction,ComponentPad*
%ADD10O,1.600000X1.000000*%
G04 #@! TD*
G04 #@! TA.AperFunction,ComponentPad*
%ADD11O,2.100000X1.000000*%
G04 #@! TD*
G04 #@! TA.AperFunction,SMDPad,CuDef*
%ADD12R,1.350000X0.400000*%
G04 #@! TD*
G04 #@! TA.AperFunction,SMDPad,CuDef*
%ADD13R,1.900000X1.200000*%
G04 #@! TD*
G04 #@! TA.AperFunction,ComponentPad*
%ADD14O,1.900000X1.200000*%
G04 #@! TD*
G04 #@! TA.AperFunction,ComponentPad*
%ADD15C,1.450000*%
G04 #@! TD*
G04 #@! TA.AperFunction,SMDPad,CuDef*
%ADD16R,1.900000X1.500000*%
G04 #@! TD*
G04 #@! TA.AperFunction,SMDPad,CuDef*
%ADD17R,0.600000X1.750000*%
G04 #@! TD*
G04 #@! TA.AperFunction,SMDPad,CuDef*
%ADD18R,2.510000X1.000000*%
G04 #@! TD*
G04 #@! TA.AperFunction,ViaPad*
%ADD19C,0.800000*%
G04 #@! TD*
G04 #@! TA.AperFunction,ViaPad*
%ADD20C,0.700000*%
G04 #@! TD*
G04 #@! TA.AperFunction,Conductor*
%ADD21C,0.200000*%
G04 #@! TD*
G04 #@! TA.AperFunction,Conductor*
%ADD22C,0.250000*%
G04 #@! TD*
G04 #@! TA.AperFunction,Conductor*
%ADD23C,0.600000*%
G04 #@! TD*
G04 #@! TA.AperFunction,Conductor*
%ADD24C,0.152400*%
G04 #@! TD*
G04 #@! TA.AperFunction,Conductor*
%ADD25C,0.400000*%
G04 #@! TD*
G04 APERTURE END LIST*
D10*
G04 #@! TO.P,J1,S1,SHIELD*
G04 #@! TO.N,GND*
X16214696Y-8832396D03*
X16214696Y-9696396D03*
D11*
X15796696Y-9696396D03*
X15796696Y-8832396D03*
G04 #@! TD*
D12*
G04 #@! TO.P,J4,1,VBUS*
G04 #@! TO.N,/V_USB*
X16056250Y-9135000D03*
G04 #@! TO.P,J4,2,D-*
G04 #@! TO.N,/D-*
X16056250Y-9200000D03*
G04 #@! TO.P,J4,3,D+*
G04 #@! TO.N,/D+*
X16056250Y-9265000D03*
G04 #@! TO.P,J4,4,ID*
G04 #@! TO.N,unconnected-(J4-Pad4)*
X16056250Y-9330000D03*
G04 #@! TO.P,J4,5,GND*
G04 #@! TO.N,GND*
X16056250Y-9395000D03*
D13*
G04 #@! TO.P,J4,6,Shield*
X16326250Y-9555000D03*
D14*
X16326250Y-9615000D03*
X16326250Y-8915000D03*
D15*
X16056250Y-9015000D03*
X16056250Y-9515000D03*
D16*
X16326250Y-9365000D03*
X16326250Y-9165000D03*
D13*
X16326250Y-8975000D03*
G04 #@! TD*
D17*
G04 #@! TO.P,J3,1,Pin_1*
G04 #@! TO.N,/EN*
X13971000Y-9824500D03*
G04 #@! TO.P,J3,2,Pin_2*
G04 #@! TO.N,/IO14_pico*
X14071000Y-9649500D03*
G04 #@! TO.P,J3,3,Pin_3*
G04 #@! TO.N,/IO12_pico*
X14171000Y-9824500D03*
G04 #@! TO.P,J3,4,Pin_4*
G04 #@! TO.N,/IO13_pico*
X14271000Y-9649500D03*
G04 #@! TO.P,J3,5,Pin_5*
G04 #@! TO.N,/IO15_pico*
X14371000Y-9824500D03*
G04 #@! TO.P,J3,6,Pin_6*
G04 #@! TO.N,GND*
X14471000Y-9649500D03*
G04 #@! TO.P,J3,7,Pin_7*
G04 #@! TO.N,+3V3*
X14571000Y-9824500D03*
G04 #@! TD*
D18*
G04 #@! TO.P,J2,1,Pin_1*
G04 #@! TO.N,+3V3*
X13685300Y-9993000D03*
G04 #@! TO.P,J2,2,Pin_2*
G04 #@! TO.N,GND*
X13354300Y-10247000D03*
G04 #@! TD*
G04 #@! TO.P,J6,1,Pin_1*
G04 #@! TO.N,/DTR*
X12990300Y-9683000D03*
G04 #@! TO.P,J6,2,Pin_2*
G04 #@! TO.N,/RTS*
X12659300Y-9937000D03*
G04 #@! TD*
G04 #@! TO.P,J5,1,Pin_1*
G04 #@! TO.N,/TDX0*
X15265300Y-8763000D03*
G04 #@! TO.P,J5,2,Pin_2*
G04 #@! TO.N,/RTX0*
X14934300Y-9017000D03*
G04 #@! TD*
D19*
G04 #@! TO.N,GND*
X15976346Y-10249916D03*
X13002899Y-9150701D03*
X15303300Y-10192100D03*
X15722966Y-10131284D03*
X14757000Y-8919000D03*
X14032000Y-8807000D03*
X14279000Y-8811000D03*
X14469000Y-8820000D03*
X13734000Y-8813000D03*
X13578000Y-8812000D03*
X14448000Y-9482000D03*
X14445000Y-9170000D03*
X13811832Y-10415058D03*
X11964998Y-8672110D03*
X15029000Y-9174000D03*
X14761000Y-9272000D03*
X14981000Y-9715000D03*
X14034062Y-9273382D03*
X13932462Y-9171782D03*
X13830862Y-9273382D03*
X13932462Y-9374982D03*
X13932462Y-8968582D03*
X14224562Y-9273382D03*
X14135662Y-9374982D03*
X14135662Y-9171782D03*
X14135662Y-8968582D03*
X14224562Y-9070182D03*
X14034062Y-9070182D03*
X13830862Y-9070182D03*
X13164566Y-10392664D03*
X16032226Y-9713214D03*
X12511098Y-8909854D03*
X15303246Y-10352024D03*
X12527500Y-10272500D03*
X12351390Y-9145000D03*
X12352348Y-9025424D03*
X11966702Y-9848596D03*
X14463850Y-10416582D03*
X14651048Y-10437156D03*
X12093014Y-8888010D03*
X16295624Y-9907016D03*
X16388588Y-9767062D03*
X15516098Y-9392158D03*
X15653258Y-9763760D03*
X13115544Y-10149078D03*
X15722418Y-10217189D03*
X11880416Y-8832892D03*
X12569800Y-9610000D03*
X15297404Y-8905494D03*
X12329800Y-9260000D03*
X15282674Y-9414000D03*
X14792706Y-9720580D03*
X13998268Y-10415058D03*
X15306802Y-9938004D03*
X13319800Y-8680000D03*
X14315514Y-10409216D03*
X15601900Y-8832501D03*
X14924606Y-10197380D03*
X16141192Y-10083800D03*
X12886950Y-9146950D03*
X12365048Y-8649250D03*
X12573762Y-10157714D03*
X14800580Y-8706612D03*
X15012744Y-10200428D03*
X15445486Y-9646158D03*
X12410000Y-8902500D03*
G04 #@! TO.N,+3V3*
X12773150Y-9407874D03*
X12773153Y-9496451D03*
X14063801Y-9951000D03*
X12747510Y-8949990D03*
X14823895Y-9975765D03*
X14766364Y-10034312D03*
X12960604Y-9437624D03*
G04 #@! TO.N,/RTX0*
X14869800Y-8900000D03*
G04 #@! TO.N,/TDX0*
X15189800Y-8890000D03*
G04 #@! TO.N,/EN*
X13329750Y-9490000D03*
D20*
G04 #@! TO.N,/D-*
X15862000Y-9216000D03*
G04 #@! TO.N,/D+*
X15592429Y-9288280D03*
D19*
G04 #@! TO.N,Net-(R8-Pad1)*
X14564180Y-10231924D03*
X15832253Y-10165472D03*
G04 #@! TO.N,/IO32_pico*
X13199800Y-9840000D03*
X11941000Y-8952000D03*
G04 #@! TO.N,/IO33_pico*
X13349800Y-9950000D03*
X12298879Y-9720921D03*
G04 #@! TO.N,/IO14_pico*
X14031727Y-9601950D03*
G04 #@! TO.N,/IO12_pico*
X14070226Y-9796950D03*
G04 #@! TO.N,/DTR*
X12959800Y-9749950D03*
G04 #@! TO.N,/V_USB*
X15906750Y-9072118D03*
X15597790Y-9018197D03*
G04 #@! TO.N,/CC1*
X15854553Y-9396301D03*
X15220764Y-9767044D03*
G04 #@! TO.N,/IO13_pico*
X14171000Y-9562501D03*
X12707682Y-9332282D03*
X13288000Y-9266004D03*
X12962499Y-8960000D03*
G04 #@! TO.N,/IO15_pico*
X13424800Y-10055000D03*
X14279800Y-9796950D03*
X12083879Y-9505921D03*
G04 #@! TO.N,/I38_pico*
X12857125Y-8936298D03*
X13298799Y-9083999D03*
G04 #@! TD*
D21*
G04 #@! TO.N,GND*
X15973758Y-9395000D02*
X15929102Y-9439656D01*
D22*
X15516098Y-9392158D02*
X15516098Y-9256098D01*
D21*
X15929102Y-9610090D02*
X16032226Y-9713214D01*
X16056250Y-9395000D02*
X15973758Y-9395000D01*
D22*
X15282674Y-9414000D02*
X15282674Y-9637326D01*
D21*
X15929102Y-9439656D02*
X15929102Y-9610090D01*
D22*
X15516098Y-9256098D02*
X15420000Y-9160000D01*
G04 #@! TO.N,+3V3*
X12635182Y-9415053D02*
X12716580Y-9496451D01*
D23*
X14766364Y-10033296D02*
X14766364Y-10034312D01*
X14599500Y-9927500D02*
X14775630Y-9927500D01*
X14815000Y-9985676D02*
X14766364Y-10034312D01*
X13167674Y-9407874D02*
X12773150Y-9407874D01*
X13556701Y-9946901D02*
X13556701Y-9930291D01*
X13864800Y-9985500D02*
X13595300Y-9985500D01*
X13556701Y-9930291D02*
X13239800Y-9613390D01*
D22*
X12716580Y-9496451D02*
X12773149Y-9496451D01*
D23*
X14504518Y-9927500D02*
X14439018Y-9993000D01*
X12773149Y-9496451D02*
X12773153Y-9496451D01*
X14571000Y-9899000D02*
X14571000Y-9824500D01*
X12889800Y-9410000D02*
X12803349Y-9496451D01*
X14032800Y-9993000D02*
X13785300Y-9993000D01*
X13239800Y-9480000D02*
X13167674Y-9407874D01*
X14599500Y-9927500D02*
X14571000Y-9899000D01*
X14775630Y-9927500D02*
X14823895Y-9975765D01*
X13595300Y-9985500D02*
X13556701Y-9946901D01*
X14599500Y-9927500D02*
X14504518Y-9927500D01*
X12803349Y-9496451D02*
X12773153Y-9496451D01*
D22*
X14063801Y-9951000D02*
X14063801Y-9961999D01*
X12635182Y-9062318D02*
X12635182Y-9415053D01*
D23*
X13239800Y-9613390D02*
X13239800Y-9480000D01*
D22*
X14063801Y-9961999D02*
X14032800Y-9993000D01*
D23*
X14439018Y-9993000D02*
X14032800Y-9993000D01*
X14823895Y-9975765D02*
X14766364Y-10033296D01*
D22*
X12747510Y-8949990D02*
X12635182Y-9062318D01*
G04 #@! TO.N,/RTX0*
X14934300Y-9017000D02*
X14934300Y-8964500D01*
X14934300Y-8964500D02*
X14869800Y-8900000D01*
G04 #@! TO.N,/TDX0*
X15265300Y-8814500D02*
X15189800Y-8890000D01*
X15265300Y-8763000D02*
X15265300Y-8814500D01*
G04 #@! TO.N,/EN*
X13739800Y-9830000D02*
X13745300Y-9824500D01*
X13545898Y-9830000D02*
X13739800Y-9830000D01*
X13329750Y-9490000D02*
X13329750Y-9613852D01*
X13745300Y-9824500D02*
X13971000Y-9824500D01*
X13329750Y-9613852D02*
X13545898Y-9830000D01*
D21*
G04 #@! TO.N,/D-*
X16056250Y-9200000D02*
X15878000Y-9200000D01*
X15878000Y-9200000D02*
X15862000Y-9216000D01*
D24*
G04 #@! TO.N,/D+*
X15627429Y-9323280D02*
X15592429Y-9288280D01*
X16056250Y-9265000D02*
X15892771Y-9265000D01*
X15892771Y-9265000D02*
X15834492Y-9323280D01*
X15834492Y-9323280D02*
X15627429Y-9323280D01*
D22*
G04 #@! TO.N,Net-(R8-Pad1)*
X15832253Y-10220389D02*
X15645966Y-10406676D01*
X14767797Y-10435541D02*
X14564180Y-10231924D01*
X15521343Y-10435541D02*
X14767797Y-10435541D01*
X15832253Y-10165472D02*
X15832253Y-10220389D01*
X15550208Y-10406676D02*
X15521343Y-10435541D01*
X15645966Y-10406676D02*
X15550208Y-10406676D01*
G04 #@! TO.N,/IO32_pico*
X13199800Y-9840000D02*
X12947389Y-9840000D01*
X12947389Y-9840000D02*
X12907389Y-9800000D01*
X12480419Y-9800000D02*
X11941000Y-9260581D01*
X11941000Y-9260581D02*
X11941000Y-8952000D01*
X12907389Y-9800000D02*
X12480419Y-9800000D01*
G04 #@! TO.N,/IO33_pico*
X13332250Y-9967550D02*
X13011367Y-9967550D01*
X13011367Y-9967550D02*
X12888769Y-9844952D01*
X13349800Y-9950000D02*
X13332250Y-9967550D01*
X12422911Y-9844952D02*
X12298879Y-9720921D01*
X12888769Y-9844952D02*
X12422911Y-9844952D01*
G04 #@! TO.N,/IO14_pico*
X14031727Y-9610227D02*
X14071000Y-9649500D01*
X14031727Y-9601950D02*
X14031727Y-9610227D01*
G04 #@! TO.N,/IO12_pico*
X14171000Y-9824500D02*
X14092500Y-9824500D01*
X14071150Y-9796950D02*
X14081000Y-9806800D01*
X14070226Y-9796950D02*
X14071150Y-9796950D01*
X14092500Y-9824500D02*
X14089000Y-9821000D01*
G04 #@! TO.N,/DTR*
X12959800Y-9749950D02*
X12959800Y-9744710D01*
X12959800Y-9744710D02*
X12987298Y-9717212D01*
D23*
G04 #@! TO.N,/V_USB*
X15597790Y-9018197D02*
X15651710Y-9072118D01*
X15651710Y-9072118D02*
X15906750Y-9072118D01*
D25*
X16056250Y-9135000D02*
X15969632Y-9135000D01*
X15969632Y-9135000D02*
X15906750Y-9072118D01*
D21*
G04 #@! TO.N,/CC1*
X15487856Y-9762998D02*
X15854553Y-9396301D01*
X15220764Y-9767044D02*
X15224810Y-9762998D01*
X15224810Y-9762998D02*
X15487856Y-9762998D01*
D22*
G04 #@! TO.N,/IO13_pico*
X14171000Y-9562501D02*
X14184001Y-9562501D01*
X12960700Y-8993474D02*
X12992004Y-8993474D01*
X13693251Y-9496549D02*
X13506349Y-9496549D01*
X13288000Y-9278200D02*
X13288000Y-9266004D01*
X12962499Y-8960000D02*
X12922384Y-9000116D01*
X12922384Y-9000116D02*
X12707682Y-9214817D01*
X12954058Y-9000116D02*
X12960700Y-8993474D01*
X12992004Y-8993474D02*
X12993989Y-8991489D01*
X12922384Y-9000116D02*
X12954058Y-9000116D01*
X14171000Y-9562501D02*
X14137999Y-9529500D01*
X13506349Y-9496549D02*
X13288000Y-9278200D01*
X13726202Y-9529500D02*
X13693251Y-9496549D01*
X12962499Y-8960000D02*
X12993989Y-8991489D01*
X13268503Y-9266004D02*
X13288000Y-9266004D01*
X14137999Y-9529500D02*
X13726202Y-9529500D01*
X14184001Y-9562501D02*
X14271000Y-9649500D01*
X12993989Y-8991489D02*
X13268503Y-9266004D01*
X12707682Y-9214817D02*
X12707682Y-9332282D01*
G04 #@! TO.N,/IO15_pico*
X14279800Y-9796950D02*
X14343450Y-9796950D01*
X12083879Y-9614080D02*
X12083879Y-9505921D01*
X12545251Y-10075451D02*
X12083879Y-9614080D01*
X13424800Y-10055000D02*
X13404349Y-10075451D01*
X13404349Y-10075451D02*
X12545251Y-10075451D01*
X14343450Y-9796950D02*
X14371000Y-9824500D01*
G04 #@! TO.N,/I38_pico*
X12857125Y-8936298D02*
X12905924Y-8887500D01*
X13102300Y-8887500D02*
X13298799Y-9083999D01*
X12905924Y-8887500D02*
X13102300Y-8887500D01*
G04 #@! TD*
G04 #@! TA.AperFunction,Conductor*
G04 #@! TO.N,GND*
G36*
X16359491Y-8601813D02*
G01*
X16360187Y-8602689D01*
X16373067Y-8623354D01*
X16386309Y-8644600D01*
X16393391Y-8655963D01*
X16393527Y-8656195D01*
X16425179Y-8713781D01*
X16425302Y-8714020D01*
X16449632Y-8764674D01*
X16453754Y-8773255D01*
X16453862Y-8773497D01*
X16455786Y-8778138D01*
X16455787Y-8781888D01*
X16453511Y-8784367D01*
X16453508Y-8784368D01*
X16453481Y-8784382D01*
X16449830Y-8786242D01*
X16447832Y-8787260D01*
X16447831Y-8787261D01*
X16447830Y-8787262D01*
X16443350Y-8791742D01*
X16443350Y-8791742D01*
X16443350Y-8791742D01*
X16438872Y-8796220D01*
X16438872Y-8796221D01*
X16438871Y-8796222D01*
X16435991Y-8801875D01*
X16433120Y-8807510D01*
X16433120Y-8807511D01*
X16433119Y-8807512D01*
X16432290Y-8812750D01*
X16432277Y-8812834D01*
X16432276Y-8812834D01*
X16432277Y-8812834D01*
X16431138Y-8820024D01*
X16431198Y-8820405D01*
X16431198Y-8820405D01*
X16431576Y-8822794D01*
X16431637Y-8823560D01*
X16431639Y-8852593D01*
X16430204Y-8856058D01*
X16426739Y-8857493D01*
X16423274Y-8856058D01*
X16422996Y-8855756D01*
X16420662Y-8852994D01*
X16420280Y-8852630D01*
X16405961Y-8841682D01*
X16405510Y-8841409D01*
X16389174Y-8833791D01*
X16388675Y-8833622D01*
X16371022Y-8829676D01*
X16370625Y-8829621D01*
X16370324Y-8829604D01*
X16370189Y-8829600D01*
X16347225Y-8829600D01*
X16346535Y-8829886D01*
X16346250Y-8830575D01*
X16346250Y-9059425D01*
X16346747Y-9060625D01*
X16346747Y-9064375D01*
X16346250Y-9065575D01*
X16346250Y-9464425D01*
X16346747Y-9465625D01*
X16346747Y-9469375D01*
X16346250Y-9470575D01*
X16346250Y-9699425D01*
X16346535Y-9700115D01*
X16347225Y-9700400D01*
X16365753Y-9700400D01*
X16366018Y-9700386D01*
X16379432Y-9698928D01*
X16379948Y-9698815D01*
X16397031Y-9693066D01*
X16397510Y-9692845D01*
X16412960Y-9683561D01*
X16413380Y-9683243D01*
X16423431Y-9673738D01*
X16426934Y-9672400D01*
X16430358Y-9673931D01*
X16431698Y-9677298D01*
X16431700Y-9704020D01*
X16431700Y-9705469D01*
X16431639Y-9706236D01*
X16431262Y-9708622D01*
X16431201Y-9709004D01*
X16431700Y-9712151D01*
X16433184Y-9721518D01*
X16433185Y-9721518D01*
X16433185Y-9721518D01*
X16433448Y-9722035D01*
X16433448Y-9722036D01*
X16433547Y-9722230D01*
X16438762Y-9732463D01*
X16438763Y-9732464D01*
X16438938Y-9732807D01*
X16438938Y-9732807D01*
X16438938Y-9732807D01*
X16439210Y-9733079D01*
X16439210Y-9733080D01*
X16443230Y-9737098D01*
X16447625Y-9741493D01*
X16447625Y-9741493D01*
X16447898Y-9741766D01*
X16447898Y-9741766D01*
X16447898Y-9741766D01*
X16448242Y-9741941D01*
X16448242Y-9741941D01*
X16453849Y-9744797D01*
X16456284Y-9747649D01*
X16456152Y-9751036D01*
X16454600Y-9754790D01*
X16454258Y-9755616D01*
X16454149Y-9755861D01*
X16425723Y-9815159D01*
X16425601Y-9815398D01*
X16393970Y-9873048D01*
X16393834Y-9873280D01*
X16359091Y-9929112D01*
X16358943Y-9929336D01*
X16321194Y-9983180D01*
X16321033Y-9983395D01*
X16282523Y-10032378D01*
X16280391Y-10035089D01*
X16280220Y-10035295D01*
X16260320Y-10057934D01*
X16236805Y-10084686D01*
X16236622Y-10084882D01*
X16235434Y-10086093D01*
X16193876Y-10128446D01*
X16190567Y-10131819D01*
X16190374Y-10132005D01*
X16141814Y-10176350D01*
X16141614Y-10176523D01*
X16090697Y-10218141D01*
X16090487Y-10218303D01*
X16041296Y-10254200D01*
X16037367Y-10257068D01*
X16037146Y-10257220D01*
X16008916Y-10275538D01*
X15981984Y-10293015D01*
X15981755Y-10293155D01*
X15924713Y-10325874D01*
X15924479Y-10325999D01*
X15865729Y-10355545D01*
X15865489Y-10355658D01*
X15805206Y-10381940D01*
X15804961Y-10382039D01*
X15771213Y-10394601D01*
X15743332Y-10404978D01*
X15743078Y-10405065D01*
X15731292Y-10408730D01*
X15727558Y-10408389D01*
X15725158Y-10405506D01*
X15725500Y-10401772D01*
X15726372Y-10400587D01*
X15868503Y-10258456D01*
X15868651Y-10258314D01*
X15872879Y-10254426D01*
X15873125Y-10254200D01*
X15875491Y-10250383D01*
X15875751Y-10250005D01*
X15878466Y-10246428D01*
X15878589Y-10246118D01*
X15878589Y-10246118D01*
X15879229Y-10244503D01*
X15879620Y-10243724D01*
X15880536Y-10242247D01*
X15880536Y-10242247D01*
X15880712Y-10241964D01*
X15881546Y-10239091D01*
X15881964Y-10237653D01*
X15882114Y-10237216D01*
X15883766Y-10233041D01*
X15883983Y-10230981D01*
X15884151Y-10230126D01*
X15884153Y-10230119D01*
X15884728Y-10228137D01*
X15884755Y-10227775D01*
X15884773Y-10227737D01*
X15884793Y-10227629D01*
X15884822Y-10227634D01*
X15886263Y-10224586D01*
X15893963Y-10217253D01*
X15894115Y-10217025D01*
X15894115Y-10217025D01*
X15903750Y-10202523D01*
X15903750Y-10202523D01*
X15903902Y-10202294D01*
X15905869Y-10197117D01*
X15910182Y-10185762D01*
X15910182Y-10185762D01*
X15910279Y-10185506D01*
X15912778Y-10167722D01*
X15912810Y-10165472D01*
X15911026Y-10149569D01*
X15910838Y-10147897D01*
X15910838Y-10147897D01*
X15910808Y-10147625D01*
X15907429Y-10137921D01*
X15904992Y-10130924D01*
X15904992Y-10130924D01*
X15904902Y-10130665D01*
X15904431Y-10129911D01*
X15895530Y-10115667D01*
X15895530Y-10115667D01*
X15895385Y-10115435D01*
X15894781Y-10114826D01*
X15887538Y-10107533D01*
X15882730Y-10102692D01*
X15876091Y-10098478D01*
X15867798Y-10093215D01*
X15867798Y-10093215D01*
X15867567Y-10093069D01*
X15867309Y-10092977D01*
X15867309Y-10092977D01*
X15850907Y-10087136D01*
X15850648Y-10087044D01*
X15850376Y-10087012D01*
X15850376Y-10087012D01*
X15840756Y-10085865D01*
X15832816Y-10084918D01*
X15832544Y-10084946D01*
X15832543Y-10084946D01*
X15823807Y-10085865D01*
X15814955Y-10086795D01*
X15797954Y-10092583D01*
X15797721Y-10092726D01*
X15797721Y-10092726D01*
X15782891Y-10101849D01*
X15782891Y-10101850D01*
X15782658Y-10101993D01*
X15782462Y-10102184D01*
X15782462Y-10102185D01*
X15770022Y-10114366D01*
X15770022Y-10114367D01*
X15769827Y-10114558D01*
X15769678Y-10114788D01*
X15769678Y-10114788D01*
X15762993Y-10125162D01*
X15760098Y-10129654D01*
X15753956Y-10146530D01*
X15751705Y-10164348D01*
X15751731Y-10164620D01*
X15751731Y-10164620D01*
X15753424Y-10181887D01*
X15753457Y-10182221D01*
X15759126Y-10199262D01*
X15759268Y-10199496D01*
X15759268Y-10199496D01*
X15764656Y-10208393D01*
X15765223Y-10212100D01*
X15763929Y-10214396D01*
X15625634Y-10352691D01*
X15622169Y-10354126D01*
X15551491Y-10354126D01*
X15551286Y-10354122D01*
X15545216Y-10353867D01*
X15544891Y-10353944D01*
X15544891Y-10353944D01*
X15544113Y-10354126D01*
X15540845Y-10354893D01*
X15540392Y-10354977D01*
X15538851Y-10355188D01*
X15536274Y-10355541D01*
X15536274Y-10355541D01*
X15535943Y-10355586D01*
X15535637Y-10355719D01*
X15535637Y-10355719D01*
X15534042Y-10356409D01*
X15533215Y-10356682D01*
X15531524Y-10357079D01*
X15531524Y-10357079D01*
X15531199Y-10357155D01*
X15530906Y-10357316D01*
X15530905Y-10357316D01*
X15527264Y-10359318D01*
X15526850Y-10359521D01*
X15523036Y-10361171D01*
X15523036Y-10361172D01*
X15522730Y-10361304D01*
X15521120Y-10362608D01*
X15520398Y-10363093D01*
X15518582Y-10364091D01*
X15517807Y-10364760D01*
X15515201Y-10367366D01*
X15514820Y-10367709D01*
X15511540Y-10370365D01*
X15511347Y-10370637D01*
X15511347Y-10370637D01*
X15510153Y-10372317D01*
X15509624Y-10372943D01*
X15504787Y-10377780D01*
X15501011Y-10381556D01*
X15497546Y-10382991D01*
X14791593Y-10382991D01*
X14788129Y-10381556D01*
X14645945Y-10239372D01*
X14644510Y-10235907D01*
X14644557Y-10235225D01*
X14644683Y-10234327D01*
X14644705Y-10234173D01*
X14644736Y-10231924D01*
X14642735Y-10214077D01*
X14639823Y-10205716D01*
X14636919Y-10197376D01*
X14636918Y-10197375D01*
X14636828Y-10197117D01*
X14636357Y-10196363D01*
X14627457Y-10182119D01*
X14627457Y-10182119D01*
X14627312Y-10181887D01*
X14626696Y-10181267D01*
X14614850Y-10169338D01*
X14614657Y-10169143D01*
X14599494Y-10159520D01*
X14599236Y-10159429D01*
X14599236Y-10159428D01*
X14582833Y-10153588D01*
X14582575Y-10153496D01*
X14582303Y-10153464D01*
X14582303Y-10153463D01*
X14573659Y-10152433D01*
X14564742Y-10151370D01*
X14564470Y-10151398D01*
X14564470Y-10151398D01*
X14553963Y-10152503D01*
X14546882Y-10153247D01*
X14529881Y-10159034D01*
X14529647Y-10159178D01*
X14529647Y-10159178D01*
X14514818Y-10168301D01*
X14514817Y-10168301D01*
X14514584Y-10168445D01*
X14514389Y-10168636D01*
X14514389Y-10168636D01*
X14501949Y-10180818D01*
X14501949Y-10180818D01*
X14501753Y-10181010D01*
X14492025Y-10196106D01*
X14489865Y-10202038D01*
X14486203Y-10212100D01*
X14485882Y-10212982D01*
X14483631Y-10230799D01*
X14483658Y-10231072D01*
X14483658Y-10231072D01*
X14484557Y-10240242D01*
X14485384Y-10248673D01*
X14491053Y-10265714D01*
X14491194Y-10265948D01*
X14491195Y-10265948D01*
X14499643Y-10279898D01*
X14500356Y-10281075D01*
X14500546Y-10281272D01*
X14500546Y-10281272D01*
X14505158Y-10286048D01*
X14512831Y-10293994D01*
X14527859Y-10303828D01*
X14544692Y-10310088D01*
X14544962Y-10310124D01*
X14544963Y-10310124D01*
X14551347Y-10310976D01*
X14562493Y-10312463D01*
X14562766Y-10312438D01*
X14562766Y-10312438D01*
X14564676Y-10312264D01*
X14567456Y-10312011D01*
X14571037Y-10313126D01*
X14571365Y-10313426D01*
X14719075Y-10461136D01*
X14720510Y-10464601D01*
X14719075Y-10468065D01*
X14715609Y-10469501D01*
X12974493Y-10469229D01*
X12973847Y-10469186D01*
X12971783Y-10468911D01*
X12970900Y-10468793D01*
X12970900Y-10468793D01*
X12970519Y-10468742D01*
X12968306Y-10469148D01*
X12967404Y-10469229D01*
X12928454Y-10469079D01*
X12902575Y-10468980D01*
X12902299Y-10468971D01*
X12864439Y-10466683D01*
X12834604Y-10464879D01*
X12834330Y-10464855D01*
X12790120Y-10459663D01*
X12766974Y-10456945D01*
X12766700Y-10456905D01*
X12699901Y-10445201D01*
X12699629Y-10445146D01*
X12633598Y-10429686D01*
X12633330Y-10429616D01*
X12568276Y-10410449D01*
X12568013Y-10410364D01*
X12504148Y-10387553D01*
X12503890Y-10387452D01*
X12441415Y-10361069D01*
X12441163Y-10360954D01*
X12397695Y-10339627D01*
X12599384Y-10339627D01*
X12602229Y-10356186D01*
X12602341Y-10356448D01*
X12602341Y-10356448D01*
X12605878Y-10364760D01*
X12608808Y-10371645D01*
X12618766Y-10385177D01*
X12618983Y-10385361D01*
X12618983Y-10385361D01*
X12631353Y-10395871D01*
X12631570Y-10396055D01*
X12646533Y-10403695D01*
X12646810Y-10403763D01*
X12646810Y-10403763D01*
X12662641Y-10407637D01*
X12662641Y-10407637D01*
X12662852Y-10407689D01*
X12663912Y-10407754D01*
X12676026Y-10407754D01*
X12688506Y-10406299D01*
X12704299Y-10400567D01*
X12704537Y-10400411D01*
X12704537Y-10400411D01*
X12718111Y-10391511D01*
X12718112Y-10391511D01*
X12718350Y-10391355D01*
X12724419Y-10384948D01*
X12729708Y-10379365D01*
X12729708Y-10379365D01*
X12729904Y-10379158D01*
X12730704Y-10377780D01*
X12962385Y-10377780D01*
X12965230Y-10394339D01*
X12965341Y-10394601D01*
X12965342Y-10394601D01*
X12970333Y-10406332D01*
X12971808Y-10409798D01*
X12981766Y-10423330D01*
X12981983Y-10423514D01*
X12981983Y-10423514D01*
X12989222Y-10429664D01*
X12994570Y-10434208D01*
X13009533Y-10441848D01*
X13009810Y-10441916D01*
X13009810Y-10441916D01*
X13025641Y-10445790D01*
X13025641Y-10445790D01*
X13025853Y-10445842D01*
X13026912Y-10445907D01*
X13039026Y-10445907D01*
X13051507Y-10444452D01*
X13067300Y-10438720D01*
X13067537Y-10438564D01*
X13067538Y-10438564D01*
X13081112Y-10429664D01*
X13081112Y-10429664D01*
X13081350Y-10429508D01*
X13092905Y-10417311D01*
X13096940Y-10410364D01*
X13101200Y-10403029D01*
X13101200Y-10403029D01*
X13101343Y-10402783D01*
X13103381Y-10396055D01*
X13106131Y-10386976D01*
X13106131Y-10386975D01*
X13106213Y-10386703D01*
X13107147Y-10371645D01*
X13107236Y-10370218D01*
X13107236Y-10370218D01*
X13107253Y-10369934D01*
X13104408Y-10353376D01*
X13104297Y-10353114D01*
X13104297Y-10353114D01*
X13097942Y-10338179D01*
X13097830Y-10337917D01*
X13087872Y-10324385D01*
X13087655Y-10324201D01*
X13087655Y-10324200D01*
X13075284Y-10313691D01*
X13075068Y-10313507D01*
X13074322Y-10313126D01*
X13070110Y-10310976D01*
X13060105Y-10305866D01*
X13051773Y-10303828D01*
X13043997Y-10301925D01*
X13043997Y-10301925D01*
X13043785Y-10301873D01*
X13042726Y-10301807D01*
X13030612Y-10301807D01*
X13018131Y-10303262D01*
X13002338Y-10308995D01*
X13002101Y-10309151D01*
X13002100Y-10309151D01*
X12992294Y-10315580D01*
X12988288Y-10318207D01*
X12984360Y-10322353D01*
X12977871Y-10329203D01*
X12976734Y-10330404D01*
X12976591Y-10330650D01*
X12971213Y-10339908D01*
X12968295Y-10344932D01*
X12968212Y-10345205D01*
X12968212Y-10345205D01*
X12963530Y-10360665D01*
X12963425Y-10361012D01*
X12963242Y-10363968D01*
X12962703Y-10372652D01*
X12962385Y-10377780D01*
X12730704Y-10377780D01*
X12733505Y-10372958D01*
X12738199Y-10364876D01*
X12738200Y-10364876D01*
X12738343Y-10364630D01*
X12739390Y-10361171D01*
X12743130Y-10348823D01*
X12743130Y-10348822D01*
X12743213Y-10348550D01*
X12744253Y-10331782D01*
X12741408Y-10315223D01*
X12741296Y-10314961D01*
X12741296Y-10314961D01*
X12734941Y-10300026D01*
X12734830Y-10299764D01*
X12734460Y-10299261D01*
X13203400Y-10299261D01*
X13203447Y-10299737D01*
X13204780Y-10306437D01*
X13205142Y-10307312D01*
X13210220Y-10314911D01*
X13210889Y-10315580D01*
X13218488Y-10320658D01*
X13219363Y-10321020D01*
X13226063Y-10322353D01*
X13226539Y-10322400D01*
X13333325Y-10322400D01*
X13334014Y-10322115D01*
X13334300Y-10321425D01*
X13334300Y-10321425D01*
X13374300Y-10321425D01*
X13374585Y-10322114D01*
X13375275Y-10322400D01*
X13482061Y-10322400D01*
X13482537Y-10322353D01*
X13489237Y-10321020D01*
X13490112Y-10320658D01*
X13497711Y-10315580D01*
X13498380Y-10314911D01*
X13503458Y-10307312D01*
X13503820Y-10306437D01*
X13504711Y-10301959D01*
X14069992Y-10301959D01*
X14070932Y-10319892D01*
X14075701Y-10337205D01*
X14075825Y-10337440D01*
X14083952Y-10352855D01*
X14083952Y-10352855D01*
X14084076Y-10353090D01*
X14095667Y-10366806D01*
X14100047Y-10370155D01*
X14109722Y-10377552D01*
X14109722Y-10377552D01*
X14109933Y-10377713D01*
X14110173Y-10377825D01*
X14118984Y-10381934D01*
X14126208Y-10385302D01*
X14126466Y-10385360D01*
X14143536Y-10389175D01*
X14143537Y-10389175D01*
X14143733Y-10389219D01*
X14144045Y-10389237D01*
X14144215Y-10389246D01*
X14144216Y-10389246D01*
X14144282Y-10389250D01*
X14157487Y-10389250D01*
X14170852Y-10387798D01*
X14171880Y-10387452D01*
X14187621Y-10382155D01*
X14187872Y-10382070D01*
X14203265Y-10372821D01*
X14205575Y-10370637D01*
X14216119Y-10360665D01*
X14216312Y-10360483D01*
X14226406Y-10345631D01*
X14232057Y-10331501D01*
X14232976Y-10329203D01*
X14232976Y-10329203D01*
X14233075Y-10328957D01*
X14235646Y-10313426D01*
X14235964Y-10311503D01*
X14235964Y-10311503D01*
X14236008Y-10311241D01*
X14235802Y-10307312D01*
X14235082Y-10293573D01*
X14235082Y-10293573D01*
X14235068Y-10293308D01*
X14231940Y-10281953D01*
X14230370Y-10276251D01*
X14230370Y-10276251D01*
X14230299Y-10275995D01*
X14225741Y-10267350D01*
X14222048Y-10260345D01*
X14222048Y-10260345D01*
X14221924Y-10260110D01*
X14210333Y-10246394D01*
X14200781Y-10239091D01*
X14196278Y-10235648D01*
X14196278Y-10235648D01*
X14196067Y-10235487D01*
X14191488Y-10233352D01*
X14180032Y-10228010D01*
X14180032Y-10228010D01*
X14179792Y-10227898D01*
X14171414Y-10226025D01*
X14162464Y-10224025D01*
X14162463Y-10224025D01*
X14162267Y-10223981D01*
X14161954Y-10223963D01*
X14161785Y-10223954D01*
X14161784Y-10223954D01*
X14161718Y-10223950D01*
X14148513Y-10223950D01*
X14135147Y-10225402D01*
X14118128Y-10231130D01*
X14112807Y-10234327D01*
X14105742Y-10238572D01*
X14102735Y-10240379D01*
X14102543Y-10240561D01*
X14102542Y-10240561D01*
X14096939Y-10245860D01*
X14089688Y-10252717D01*
X14079594Y-10267569D01*
X14079495Y-10267816D01*
X14073836Y-10281965D01*
X14072925Y-10284243D01*
X14069992Y-10301959D01*
X13504711Y-10301959D01*
X13505153Y-10299737D01*
X13505200Y-10299261D01*
X13505200Y-10267975D01*
X13504914Y-10267286D01*
X13504225Y-10267000D01*
X13375275Y-10267000D01*
X13374585Y-10267286D01*
X13374300Y-10267975D01*
X13374300Y-10321425D01*
X13334300Y-10321425D01*
X13334300Y-10267975D01*
X13334014Y-10267286D01*
X13333325Y-10267000D01*
X13204375Y-10267000D01*
X13203686Y-10267286D01*
X13203400Y-10267975D01*
X13203400Y-10299261D01*
X12734460Y-10299261D01*
X12724871Y-10286232D01*
X12724655Y-10286048D01*
X12724654Y-10286048D01*
X12712284Y-10275538D01*
X12712067Y-10275354D01*
X12697104Y-10267714D01*
X12689890Y-10265948D01*
X12680996Y-10263772D01*
X12680996Y-10263772D01*
X12680785Y-10263720D01*
X12679726Y-10263654D01*
X12667611Y-10263654D01*
X12655131Y-10265110D01*
X12639338Y-10270842D01*
X12639100Y-10270998D01*
X12639100Y-10270998D01*
X12625526Y-10279898D01*
X12625287Y-10280054D01*
X12613733Y-10292251D01*
X12612965Y-10293573D01*
X12605493Y-10306437D01*
X12605295Y-10306779D01*
X12605212Y-10307052D01*
X12605212Y-10307052D01*
X12600578Y-10322353D01*
X12600425Y-10322859D01*
X12600031Y-10329203D01*
X12599474Y-10338179D01*
X12599384Y-10339627D01*
X12397695Y-10339627D01*
X12380278Y-10331082D01*
X12380033Y-10330953D01*
X12320934Y-10297689D01*
X12320697Y-10297546D01*
X12263572Y-10260996D01*
X12263343Y-10260840D01*
X12208375Y-10221120D01*
X12208155Y-10220952D01*
X12200085Y-10214396D01*
X12199404Y-10213842D01*
X12286558Y-10213842D01*
X12289403Y-10230400D01*
X12289514Y-10230662D01*
X12289515Y-10230663D01*
X12293726Y-10240561D01*
X12295981Y-10245860D01*
X12305939Y-10259392D01*
X12306156Y-10259576D01*
X12306156Y-10259576D01*
X12313381Y-10265714D01*
X12318743Y-10270270D01*
X12333706Y-10277910D01*
X12333983Y-10277978D01*
X12333983Y-10277978D01*
X12349814Y-10281852D01*
X12349814Y-10281852D01*
X12350026Y-10281904D01*
X12351085Y-10281969D01*
X12363199Y-10281969D01*
X12375680Y-10280514D01*
X12391473Y-10274782D01*
X12391710Y-10274626D01*
X12391711Y-10274626D01*
X12405285Y-10265726D01*
X12405285Y-10265726D01*
X12405523Y-10265570D01*
X12417078Y-10253373D01*
X12420957Y-10246694D01*
X12425373Y-10239091D01*
X12425373Y-10239091D01*
X12425516Y-10238845D01*
X12425944Y-10237431D01*
X12429399Y-10226025D01*
X13203400Y-10226025D01*
X13203685Y-10226715D01*
X13204375Y-10227000D01*
X13333325Y-10227000D01*
X13334014Y-10226715D01*
X13334300Y-10226025D01*
X13374300Y-10226025D01*
X13374585Y-10226715D01*
X13375275Y-10227000D01*
X13504225Y-10227000D01*
X13504914Y-10226715D01*
X13505200Y-10226025D01*
X13505200Y-10194739D01*
X13505153Y-10194263D01*
X13503820Y-10187563D01*
X13503458Y-10186688D01*
X13498380Y-10179089D01*
X13497711Y-10178420D01*
X13490112Y-10173342D01*
X13489237Y-10172980D01*
X13482537Y-10171647D01*
X13482061Y-10171600D01*
X13375275Y-10171600D01*
X13374585Y-10171886D01*
X13374300Y-10172575D01*
X13374300Y-10226025D01*
X13334300Y-10226025D01*
X13334300Y-10172575D01*
X13334014Y-10171886D01*
X13333325Y-10171600D01*
X13226539Y-10171600D01*
X13226063Y-10171647D01*
X13219363Y-10172980D01*
X13218488Y-10173342D01*
X13210889Y-10178420D01*
X13210220Y-10179089D01*
X13205142Y-10186688D01*
X13204780Y-10187563D01*
X13203447Y-10194263D01*
X13203400Y-10194739D01*
X13203400Y-10226025D01*
X12429399Y-10226025D01*
X12430304Y-10223038D01*
X12430304Y-10223037D01*
X12430386Y-10222765D01*
X12430940Y-10213842D01*
X12431409Y-10206280D01*
X12431409Y-10206280D01*
X12431426Y-10205996D01*
X12428581Y-10189438D01*
X12428470Y-10189176D01*
X12428470Y-10189176D01*
X12422115Y-10174241D01*
X12422003Y-10173978D01*
X12412045Y-10160447D01*
X12411828Y-10160263D01*
X12411828Y-10160262D01*
X12399457Y-10149753D01*
X12399241Y-10149569D01*
X12384278Y-10141928D01*
X12374033Y-10139422D01*
X12368170Y-10137987D01*
X12368170Y-10137987D01*
X12367958Y-10137935D01*
X12366899Y-10137869D01*
X12354785Y-10137869D01*
X12342304Y-10139324D01*
X12326511Y-10145057D01*
X12326274Y-10145213D01*
X12326273Y-10145213D01*
X12313640Y-10153496D01*
X12312461Y-10154269D01*
X12312265Y-10154475D01*
X12301848Y-10165472D01*
X12300907Y-10166466D01*
X12300177Y-10167722D01*
X12293963Y-10178420D01*
X12292468Y-10180994D01*
X12292385Y-10181267D01*
X12292385Y-10181267D01*
X12289825Y-10189719D01*
X12287598Y-10197073D01*
X12286558Y-10213842D01*
X12199404Y-10213842D01*
X12155518Y-10178188D01*
X12155310Y-10178010D01*
X12105173Y-10132339D01*
X12104974Y-10132148D01*
X12102781Y-10129911D01*
X12070059Y-10096532D01*
X12057499Y-10083719D01*
X12057311Y-10083516D01*
X12012649Y-10032483D01*
X12012472Y-10032269D01*
X11970764Y-9978792D01*
X11970600Y-9978569D01*
X11967698Y-9974381D01*
X12011089Y-9974381D01*
X12013934Y-9990939D01*
X12014045Y-9991201D01*
X12014046Y-9991201D01*
X12018832Y-10002450D01*
X12020512Y-10006398D01*
X12030470Y-10019930D01*
X12030687Y-10020114D01*
X12030687Y-10020115D01*
X12037926Y-10026264D01*
X12043274Y-10030808D01*
X12058237Y-10038449D01*
X12058514Y-10038516D01*
X12058514Y-10038516D01*
X12074345Y-10042390D01*
X12074345Y-10042390D01*
X12074557Y-10042442D01*
X12075616Y-10042508D01*
X12087730Y-10042508D01*
X12100211Y-10041053D01*
X12116004Y-10035320D01*
X12116241Y-10035164D01*
X12116242Y-10035164D01*
X12129816Y-10026264D01*
X12129816Y-10026264D01*
X12130054Y-10026108D01*
X12140470Y-10015113D01*
X12141413Y-10014118D01*
X12141413Y-10014118D01*
X12141609Y-10013911D01*
X12144797Y-10008421D01*
X12149904Y-9999630D01*
X12149904Y-9999629D01*
X12150047Y-9999383D01*
X12150465Y-9998004D01*
X12154835Y-9983576D01*
X12154835Y-9983576D01*
X12154917Y-9983303D01*
X12155957Y-9966535D01*
X12153112Y-9949976D01*
X12153001Y-9949714D01*
X12153001Y-9949714D01*
X12146646Y-9934779D01*
X12146534Y-9934517D01*
X12136576Y-9920985D01*
X12136359Y-9920801D01*
X12136359Y-9920801D01*
X12123988Y-9910291D01*
X12123772Y-9910107D01*
X12108809Y-9902467D01*
X12102467Y-9900915D01*
X12092701Y-9898525D01*
X12092701Y-9898525D01*
X12092489Y-9898473D01*
X12091430Y-9898408D01*
X12079316Y-9898408D01*
X12066835Y-9899863D01*
X12051042Y-9905595D01*
X12050805Y-9905751D01*
X12050804Y-9905751D01*
X12037230Y-9914651D01*
X12036992Y-9914807D01*
X12025438Y-9927004D01*
X12025295Y-9927250D01*
X12017182Y-9941217D01*
X12016999Y-9941532D01*
X12016916Y-9941805D01*
X12016916Y-9941805D01*
X12014356Y-9950258D01*
X12012129Y-9957612D01*
X12011954Y-9960429D01*
X12011143Y-9973499D01*
X12011089Y-9974381D01*
X11967698Y-9974381D01*
X11931981Y-9922823D01*
X11931830Y-9922591D01*
X11896421Y-9864749D01*
X11896285Y-9864512D01*
X11864201Y-9804760D01*
X11864078Y-9804515D01*
X11835422Y-9743047D01*
X11835313Y-9742794D01*
X11810175Y-9679803D01*
X11810083Y-9679550D01*
X11788544Y-9615239D01*
X11788464Y-9614976D01*
X11770595Y-9549553D01*
X11770530Y-9549284D01*
X11756386Y-9482957D01*
X11756336Y-9482684D01*
X11752605Y-9458580D01*
X11745963Y-9415667D01*
X11745929Y-9415393D01*
X11745919Y-9415286D01*
X11742309Y-9378195D01*
X11739359Y-9347893D01*
X11739340Y-9347616D01*
X11737087Y-9291983D01*
X11736595Y-9279855D01*
X11736592Y-9279578D01*
X11736663Y-9275153D01*
X11737259Y-9238056D01*
X11737681Y-9211769D01*
X11737693Y-9211492D01*
X11742611Y-9143854D01*
X11742639Y-9143578D01*
X11750556Y-9082603D01*
X11751371Y-9076326D01*
X11751415Y-9076052D01*
X11752285Y-9071420D01*
X11755951Y-9051899D01*
X11763934Y-9009400D01*
X11763992Y-9009130D01*
X11778384Y-8950875D01*
X11860451Y-8950875D01*
X11860478Y-8951148D01*
X11860478Y-8951148D01*
X11861518Y-8961754D01*
X11862204Y-8968749D01*
X11867873Y-8985790D01*
X11868014Y-8986024D01*
X11868015Y-8986024D01*
X11873938Y-8995804D01*
X11877176Y-9001151D01*
X11877366Y-9001348D01*
X11877366Y-9001349D01*
X11887075Y-9011402D01*
X11888450Y-9014806D01*
X11888450Y-9259298D01*
X11888446Y-9259503D01*
X11888191Y-9265573D01*
X11888267Y-9265898D01*
X11888267Y-9265898D01*
X11888329Y-9266159D01*
X11889217Y-9269945D01*
X11889300Y-9270397D01*
X11889385Y-9271017D01*
X11889820Y-9274193D01*
X11889910Y-9274846D01*
X11890043Y-9275152D01*
X11890043Y-9275153D01*
X11890732Y-9276747D01*
X11891006Y-9277574D01*
X11891403Y-9279265D01*
X11891403Y-9279265D01*
X11891479Y-9279591D01*
X11891640Y-9279884D01*
X11891640Y-9279884D01*
X11893642Y-9283525D01*
X11893845Y-9283939D01*
X11895283Y-9287263D01*
X11895628Y-9288060D01*
X11896932Y-9289670D01*
X11897417Y-9290392D01*
X11898415Y-9292208D01*
X11898583Y-9292402D01*
X11898583Y-9292402D01*
X11898996Y-9292880D01*
X11899084Y-9292982D01*
X11901690Y-9295588D01*
X11902033Y-9295969D01*
X11904689Y-9299249D01*
X11905713Y-9299976D01*
X11906641Y-9300636D01*
X11907267Y-9301165D01*
X12038725Y-9432623D01*
X12040160Y-9436088D01*
X12038725Y-9439553D01*
X12037828Y-9440261D01*
X12034284Y-9442441D01*
X12034088Y-9442633D01*
X12034088Y-9442633D01*
X12021648Y-9454815D01*
X12021648Y-9454815D01*
X12021453Y-9455006D01*
X12011724Y-9470102D01*
X12008933Y-9477771D01*
X12005928Y-9486026D01*
X12005582Y-9486978D01*
X12003331Y-9504796D01*
X12003358Y-9505068D01*
X12003358Y-9505068D01*
X12004787Y-9519647D01*
X12005083Y-9522669D01*
X12010752Y-9539710D01*
X12010894Y-9539945D01*
X12010894Y-9539945D01*
X12017211Y-9550375D01*
X12020055Y-9555072D01*
X12020245Y-9555269D01*
X12020246Y-9555269D01*
X12029954Y-9565322D01*
X12031329Y-9568726D01*
X12031329Y-9612796D01*
X12031325Y-9613001D01*
X12031071Y-9619071D01*
X12031147Y-9619396D01*
X12031147Y-9619396D01*
X12031318Y-9620126D01*
X12032096Y-9623443D01*
X12032180Y-9623895D01*
X12032789Y-9628344D01*
X12032922Y-9628651D01*
X12032922Y-9628651D01*
X12033612Y-9630245D01*
X12033885Y-9631072D01*
X12034282Y-9632763D01*
X12034282Y-9632764D01*
X12034358Y-9633089D01*
X12034520Y-9633382D01*
X12034520Y-9633382D01*
X12036521Y-9637023D01*
X12036724Y-9637438D01*
X12038137Y-9640701D01*
X12038507Y-9641558D01*
X12039708Y-9643040D01*
X12039811Y-9643168D01*
X12040296Y-9643890D01*
X12041295Y-9645706D01*
X12041463Y-9645901D01*
X12041463Y-9645901D01*
X12041829Y-9646325D01*
X12041963Y-9646480D01*
X12044569Y-9649086D01*
X12044912Y-9649467D01*
X12047568Y-9652747D01*
X12048181Y-9653182D01*
X12049520Y-9654134D01*
X12050147Y-9654664D01*
X12507184Y-10111701D01*
X12507326Y-10111849D01*
X12511439Y-10116322D01*
X12515256Y-10118689D01*
X12515635Y-10118949D01*
X12519212Y-10121664D01*
X12519522Y-10121787D01*
X12519522Y-10121787D01*
X12521137Y-10122426D01*
X12521916Y-10122818D01*
X12523392Y-10123734D01*
X12523393Y-10123734D01*
X12523676Y-10123909D01*
X12523996Y-10124002D01*
X12523996Y-10124002D01*
X12527987Y-10125162D01*
X12528424Y-10125311D01*
X12532598Y-10126964D01*
X12532930Y-10126999D01*
X12532930Y-10126999D01*
X12534041Y-10127116D01*
X12534659Y-10127181D01*
X12535513Y-10127348D01*
X12537502Y-10127926D01*
X12537758Y-10127945D01*
X12537759Y-10127945D01*
X12538167Y-10127975D01*
X12538522Y-10128001D01*
X12542207Y-10128001D01*
X12542720Y-10128028D01*
X12546585Y-10128434D01*
X12546917Y-10128469D01*
X12549279Y-10128070D01*
X12550096Y-10128001D01*
X13390548Y-10128001D01*
X13392256Y-10128308D01*
X13405312Y-10133164D01*
X13405582Y-10133200D01*
X13405583Y-10133200D01*
X13412540Y-10134128D01*
X13423113Y-10135539D01*
X13423386Y-10135514D01*
X13423386Y-10135514D01*
X13440725Y-10133936D01*
X13440725Y-10133936D01*
X13440998Y-10133911D01*
X13458078Y-10128362D01*
X13458313Y-10128221D01*
X13458314Y-10128221D01*
X13473269Y-10119306D01*
X13473269Y-10119306D01*
X13473504Y-10119166D01*
X13476306Y-10116498D01*
X13485483Y-10107758D01*
X13486510Y-10106781D01*
X13486661Y-10106553D01*
X13486662Y-10106552D01*
X13496296Y-10092051D01*
X13496297Y-10092051D01*
X13496448Y-10091822D01*
X13498263Y-10087044D01*
X13502728Y-10075290D01*
X13502728Y-10075290D01*
X13502826Y-10075034D01*
X13505325Y-10057249D01*
X13505356Y-10055000D01*
X13503355Y-10037153D01*
X13501728Y-10032483D01*
X13497539Y-10020452D01*
X13497538Y-10020451D01*
X13497448Y-10020193D01*
X13497206Y-10019805D01*
X13488077Y-10005195D01*
X13488077Y-10005195D01*
X13487932Y-10004963D01*
X13487101Y-10004126D01*
X13478562Y-9995527D01*
X13475277Y-9992219D01*
X13461228Y-9983303D01*
X13460345Y-9982743D01*
X13460345Y-9982743D01*
X13460114Y-9982596D01*
X13459856Y-9982505D01*
X13459856Y-9982504D01*
X13443453Y-9976664D01*
X13443195Y-9976572D01*
X13442923Y-9976540D01*
X13442923Y-9976539D01*
X13432144Y-9975254D01*
X13428873Y-9973419D01*
X13427872Y-9969707D01*
X13430325Y-9952249D01*
X13430356Y-9950000D01*
X13428355Y-9932153D01*
X13423177Y-9917284D01*
X13422539Y-9915452D01*
X13422538Y-9915451D01*
X13422448Y-9915193D01*
X13422110Y-9914651D01*
X13413077Y-9900195D01*
X13413077Y-9900195D01*
X13412932Y-9899963D01*
X13411913Y-9898937D01*
X13404580Y-9891552D01*
X13400277Y-9887219D01*
X13393305Y-9882795D01*
X13385345Y-9877743D01*
X13385345Y-9877743D01*
X13385114Y-9877596D01*
X13384856Y-9877505D01*
X13384856Y-9877504D01*
X13368453Y-9871664D01*
X13368195Y-9871572D01*
X13367923Y-9871540D01*
X13367923Y-9871539D01*
X13358434Y-9870408D01*
X13350362Y-9869446D01*
X13350090Y-9869474D01*
X13350090Y-9869474D01*
X13339583Y-9870579D01*
X13332502Y-9871323D01*
X13332242Y-9871411D01*
X13332242Y-9871411D01*
X13331875Y-9871536D01*
X13315501Y-9877110D01*
X13311891Y-9879331D01*
X13300438Y-9886377D01*
X13300437Y-9886377D01*
X13300204Y-9886521D01*
X13300009Y-9886712D01*
X13300009Y-9886712D01*
X13287569Y-9898894D01*
X13287569Y-9898894D01*
X13287373Y-9899086D01*
X13287225Y-9899316D01*
X13287225Y-9899316D01*
X13278564Y-9912754D01*
X13275481Y-9914889D01*
X13274446Y-9915000D01*
X13248119Y-9915000D01*
X13244654Y-9913565D01*
X13243219Y-9910100D01*
X13244654Y-9906635D01*
X13245610Y-9905891D01*
X13248269Y-9904306D01*
X13248269Y-9904306D01*
X13248504Y-9904166D01*
X13261510Y-9891781D01*
X13261661Y-9891553D01*
X13261662Y-9891552D01*
X13271296Y-9877051D01*
X13271297Y-9877051D01*
X13271448Y-9876822D01*
X13272033Y-9875283D01*
X13277728Y-9860290D01*
X13277728Y-9860290D01*
X13277826Y-9860034D01*
X13280325Y-9842249D01*
X13280356Y-9840000D01*
X13278355Y-9822153D01*
X13275226Y-9813169D01*
X13272539Y-9805452D01*
X13272538Y-9805451D01*
X13272448Y-9805193D01*
X13272179Y-9804761D01*
X13263077Y-9790195D01*
X13263077Y-9790195D01*
X13262932Y-9789963D01*
X13259011Y-9786015D01*
X13253843Y-9780810D01*
X13250277Y-9777219D01*
X13241974Y-9771950D01*
X13235345Y-9767743D01*
X13235345Y-9767743D01*
X13235114Y-9767596D01*
X13234856Y-9767505D01*
X13234856Y-9767504D01*
X13218453Y-9761664D01*
X13218195Y-9761572D01*
X13217923Y-9761540D01*
X13217923Y-9761539D01*
X13209279Y-9760509D01*
X13200362Y-9759446D01*
X13200090Y-9759474D01*
X13200090Y-9759474D01*
X13189583Y-9760579D01*
X13182502Y-9761323D01*
X13165501Y-9767110D01*
X13165000Y-9767419D01*
X13150438Y-9776377D01*
X13150437Y-9776377D01*
X13150204Y-9776521D01*
X13150009Y-9776712D01*
X13150009Y-9776712D01*
X13140472Y-9786051D01*
X13137044Y-9787450D01*
X13038294Y-9787450D01*
X13034829Y-9786015D01*
X13033394Y-9782550D01*
X13033713Y-9780811D01*
X13035461Y-9776210D01*
X13038032Y-9773481D01*
X13040041Y-9773050D01*
X13118952Y-9773050D01*
X13123670Y-9772303D01*
X13127950Y-9771625D01*
X13127950Y-9771625D01*
X13128330Y-9771565D01*
X13136299Y-9767504D01*
X13139291Y-9765980D01*
X13139291Y-9765980D01*
X13139634Y-9765805D01*
X13148605Y-9756834D01*
X13154365Y-9745530D01*
X13154587Y-9744125D01*
X13154961Y-9741766D01*
X13155850Y-9736152D01*
X13155850Y-9629848D01*
X13154365Y-9620470D01*
X13150724Y-9613324D01*
X13148780Y-9609509D01*
X13148780Y-9609509D01*
X13148605Y-9609166D01*
X13139634Y-9600195D01*
X13139291Y-9600020D01*
X13139291Y-9600020D01*
X13133660Y-9597151D01*
X13128330Y-9594435D01*
X13127950Y-9594375D01*
X13127950Y-9594375D01*
X13123989Y-9593748D01*
X13118952Y-9592950D01*
X13118759Y-9592950D01*
X12990300Y-9592950D01*
X12861648Y-9592950D01*
X12856930Y-9593697D01*
X12852650Y-9594375D01*
X12852650Y-9594375D01*
X12852270Y-9594435D01*
X12846940Y-9597151D01*
X12841309Y-9600020D01*
X12841309Y-9600020D01*
X12840966Y-9600195D01*
X12831995Y-9609166D01*
X12831820Y-9609509D01*
X12831820Y-9609509D01*
X12829876Y-9613324D01*
X12826235Y-9620470D01*
X12826175Y-9620850D01*
X12826175Y-9620850D01*
X12825916Y-9622486D01*
X12824750Y-9629848D01*
X12824750Y-9736152D01*
X12825439Y-9740502D01*
X12825642Y-9741784D01*
X12824766Y-9745430D01*
X12821569Y-9747390D01*
X12820802Y-9747450D01*
X12504215Y-9747450D01*
X12500751Y-9746015D01*
X11994985Y-9240250D01*
X11993550Y-9236785D01*
X11993550Y-9063984D01*
X12582164Y-9063984D01*
X12582373Y-9065222D01*
X12582563Y-9066345D01*
X12582632Y-9067162D01*
X12582632Y-9413769D01*
X12582628Y-9413975D01*
X12582373Y-9420045D01*
X12583399Y-9424416D01*
X12583482Y-9424868D01*
X12584092Y-9429317D01*
X12584225Y-9429624D01*
X12584225Y-9429624D01*
X12584914Y-9431218D01*
X12585188Y-9432045D01*
X12585585Y-9433736D01*
X12585585Y-9433737D01*
X12585661Y-9434062D01*
X12585822Y-9434355D01*
X12585822Y-9434355D01*
X12587824Y-9437996D01*
X12588027Y-9438411D01*
X12588828Y-9440261D01*
X12589810Y-9442531D01*
X12590943Y-9443930D01*
X12591114Y-9444141D01*
X12591599Y-9444863D01*
X12592597Y-9446679D01*
X12593266Y-9447453D01*
X12595872Y-9450059D01*
X12596215Y-9450440D01*
X12598871Y-9453720D01*
X12600400Y-9454807D01*
X12600823Y-9455107D01*
X12601449Y-9455637D01*
X12678513Y-9532701D01*
X12678655Y-9532849D01*
X12682769Y-9537322D01*
X12686585Y-9539689D01*
X12686964Y-9539949D01*
X12690541Y-9542664D01*
X12690851Y-9542787D01*
X12690851Y-9542787D01*
X12692466Y-9543426D01*
X12693245Y-9543818D01*
X12694722Y-9544733D01*
X12694722Y-9544733D01*
X12695005Y-9544909D01*
X12695326Y-9545002D01*
X12695326Y-9545002D01*
X12699316Y-9546162D01*
X12699753Y-9546311D01*
X12703928Y-9547964D01*
X12704259Y-9547999D01*
X12704259Y-9547999D01*
X12705192Y-9548097D01*
X12705988Y-9548180D01*
X12706842Y-9548348D01*
X12708831Y-9548926D01*
X12709088Y-9548945D01*
X12709088Y-9548945D01*
X12709497Y-9548975D01*
X12709851Y-9549001D01*
X12710531Y-9549001D01*
X12714056Y-9550497D01*
X12721804Y-9558521D01*
X12736832Y-9568355D01*
X12753664Y-9574615D01*
X12753935Y-9574651D01*
X12753935Y-9574651D01*
X12760384Y-9575511D01*
X12771466Y-9576990D01*
X12771738Y-9576965D01*
X12771738Y-9576965D01*
X12789078Y-9575387D01*
X12789078Y-9575387D01*
X12789351Y-9575362D01*
X12806431Y-9569812D01*
X12806666Y-9569672D01*
X12806667Y-9569672D01*
X12812212Y-9566366D01*
X12814133Y-9565710D01*
X12820181Y-9564979D01*
X12821484Y-9564486D01*
X12822373Y-9564243D01*
X12823454Y-9564054D01*
X12823454Y-9564054D01*
X12823744Y-9564004D01*
X12829710Y-9561385D01*
X12829947Y-9561288D01*
X12836041Y-9558985D01*
X12836284Y-9558818D01*
X12836285Y-9558818D01*
X12837189Y-9558197D01*
X12837994Y-9557749D01*
X12839269Y-9557189D01*
X12844437Y-9553223D01*
X12844645Y-9553073D01*
X12849770Y-9549550D01*
X12850014Y-9549382D01*
X12850211Y-9549162D01*
X12850211Y-9549161D01*
X12854257Y-9544620D01*
X12854451Y-9544415D01*
X12900776Y-9498090D01*
X12904240Y-9496655D01*
X12907765Y-9498151D01*
X12909065Y-9499497D01*
X12909065Y-9499497D01*
X12909255Y-9499694D01*
X12924283Y-9509528D01*
X12941116Y-9515788D01*
X12941386Y-9515824D01*
X12941387Y-9515824D01*
X12948344Y-9516752D01*
X12958917Y-9518163D01*
X12959190Y-9518138D01*
X12959190Y-9518138D01*
X12976529Y-9516560D01*
X12976529Y-9516560D01*
X12976802Y-9516535D01*
X12993882Y-9510986D01*
X12994117Y-9510845D01*
X12994118Y-9510845D01*
X13009073Y-9501930D01*
X13009073Y-9501930D01*
X13009308Y-9501790D01*
X13022314Y-9489405D01*
X13022465Y-9489177D01*
X13022466Y-9489176D01*
X13026992Y-9482364D01*
X13028488Y-9480112D01*
X13031601Y-9478021D01*
X13032569Y-9477924D01*
X13136629Y-9477924D01*
X13140093Y-9479359D01*
X13168315Y-9507581D01*
X13169750Y-9511045D01*
X13169750Y-9610787D01*
X13169739Y-9611120D01*
X13169332Y-9617083D01*
X13169863Y-9620126D01*
X13170452Y-9623500D01*
X13170490Y-9623753D01*
X13171272Y-9630222D01*
X13171377Y-9630498D01*
X13171377Y-9630498D01*
X13171765Y-9631524D01*
X13172008Y-9632414D01*
X13172069Y-9632763D01*
X13172247Y-9633785D01*
X13172366Y-9634055D01*
X13172366Y-9634055D01*
X13174865Y-9639750D01*
X13174962Y-9639987D01*
X13175103Y-9640360D01*
X13177265Y-9646082D01*
X13177432Y-9646325D01*
X13177433Y-9646325D01*
X13178054Y-9647229D01*
X13178502Y-9648035D01*
X13179062Y-9649310D01*
X13179242Y-9649545D01*
X13183028Y-9654478D01*
X13183178Y-9654685D01*
X13185204Y-9657633D01*
X13186869Y-9660055D01*
X13187089Y-9660251D01*
X13187090Y-9660252D01*
X13191631Y-9664298D01*
X13191836Y-9664491D01*
X13486577Y-9959233D01*
X13487977Y-9962109D01*
X13488174Y-9963733D01*
X13488278Y-9964010D01*
X13488278Y-9964010D01*
X13488666Y-9965036D01*
X13488909Y-9965925D01*
X13489065Y-9966819D01*
X13489149Y-9967297D01*
X13489267Y-9967567D01*
X13489267Y-9967567D01*
X13491767Y-9973262D01*
X13491864Y-9973499D01*
X13494167Y-9979594D01*
X13494334Y-9979837D01*
X13494334Y-9979837D01*
X13494955Y-9980741D01*
X13495404Y-9981547D01*
X13495963Y-9982822D01*
X13496143Y-9983056D01*
X13499929Y-9987989D01*
X13500080Y-9988197D01*
X13502844Y-9992219D01*
X13503770Y-9993566D01*
X13503990Y-9993763D01*
X13503991Y-9993763D01*
X13508533Y-9997810D01*
X13508738Y-9998004D01*
X13518315Y-10007581D01*
X13519750Y-10011045D01*
X13519750Y-10046152D01*
X13519780Y-10046342D01*
X13521127Y-10054847D01*
X13521235Y-10055530D01*
X13521959Y-10056951D01*
X13524709Y-10062348D01*
X13526995Y-10066834D01*
X13535966Y-10075805D01*
X13536309Y-10075980D01*
X13536309Y-10075980D01*
X13541618Y-10078685D01*
X13547270Y-10081565D01*
X13547650Y-10081625D01*
X13547650Y-10081625D01*
X13550568Y-10082087D01*
X13556648Y-10083050D01*
X13685300Y-10083050D01*
X13813952Y-10083050D01*
X13818670Y-10082303D01*
X13822950Y-10081625D01*
X13822950Y-10081625D01*
X13823330Y-10081565D01*
X13828982Y-10078685D01*
X13834291Y-10075980D01*
X13834291Y-10075980D01*
X13834634Y-10075805D01*
X13843605Y-10066834D01*
X13844170Y-10065725D01*
X13847022Y-10063290D01*
X13848536Y-10063050D01*
X14436415Y-10063050D01*
X14436748Y-10063061D01*
X14442711Y-10063468D01*
X14449127Y-10062348D01*
X14449381Y-10062310D01*
X14455850Y-10061528D01*
X14457152Y-10061035D01*
X14458042Y-10060792D01*
X14459122Y-10060604D01*
X14459122Y-10060603D01*
X14459413Y-10060553D01*
X14465378Y-10057934D01*
X14465616Y-10057837D01*
X14467582Y-10057094D01*
X14471710Y-10055535D01*
X14471953Y-10055368D01*
X14471953Y-10055367D01*
X14472857Y-10054746D01*
X14473663Y-10054298D01*
X14474938Y-10053738D01*
X14480106Y-10049772D01*
X14480313Y-10049622D01*
X14485439Y-10046099D01*
X14485683Y-10045931D01*
X14485879Y-10045711D01*
X14485879Y-10045710D01*
X14489925Y-10041169D01*
X14490119Y-10040964D01*
X14532098Y-9998985D01*
X14535563Y-9997550D01*
X14592595Y-9997550D01*
X14593488Y-9997632D01*
X14595069Y-9997925D01*
X14601436Y-9997558D01*
X14601718Y-9997550D01*
X14687554Y-9997550D01*
X14691019Y-9998985D01*
X14692454Y-10002450D01*
X14692159Y-10004126D01*
X14688522Y-10014118D01*
X14688066Y-10015370D01*
X14685815Y-10033188D01*
X14685842Y-10033460D01*
X14685842Y-10033460D01*
X14686577Y-10040955D01*
X14687568Y-10051061D01*
X14693237Y-10068102D01*
X14702540Y-10083463D01*
X14702730Y-10083660D01*
X14702730Y-10083660D01*
X14706086Y-10087136D01*
X14715015Y-10096382D01*
X14730043Y-10106216D01*
X14746876Y-10112476D01*
X14747146Y-10112512D01*
X14747147Y-10112512D01*
X14754104Y-10113440D01*
X14764677Y-10114851D01*
X14764950Y-10114826D01*
X14764950Y-10114826D01*
X14782289Y-10113248D01*
X14782289Y-10113248D01*
X14782562Y-10113223D01*
X14799642Y-10107674D01*
X14799877Y-10107533D01*
X14799878Y-10107533D01*
X14814833Y-10098618D01*
X14814833Y-10098618D01*
X14815068Y-10098478D01*
X14828074Y-10086093D01*
X14828225Y-10085865D01*
X14828226Y-10085865D01*
X14837860Y-10071363D01*
X14837861Y-10071363D01*
X14838012Y-10071134D01*
X14839263Y-10067842D01*
X14843400Y-10056951D01*
X14844516Y-10055226D01*
X14846627Y-10053115D01*
X14848578Y-10051919D01*
X14855649Y-10049622D01*
X14857173Y-10049127D01*
X14857408Y-10048986D01*
X14857409Y-10048986D01*
X14872364Y-10040071D01*
X14872364Y-10040071D01*
X14872599Y-10039931D01*
X14885605Y-10027546D01*
X14885756Y-10027318D01*
X14885757Y-10027317D01*
X14895391Y-10012816D01*
X14895392Y-10012816D01*
X14895543Y-10012587D01*
X14896128Y-10011049D01*
X14901823Y-9996055D01*
X14901823Y-9996055D01*
X14901921Y-9995799D01*
X14904420Y-9978014D01*
X14904451Y-9975765D01*
X14902450Y-9957918D01*
X14899782Y-9950258D01*
X14896634Y-9941217D01*
X14896633Y-9941216D01*
X14896543Y-9940958D01*
X14894573Y-9937804D01*
X14887172Y-9925960D01*
X14887172Y-9925960D01*
X14887027Y-9925728D01*
X14884209Y-9922890D01*
X14876822Y-9915452D01*
X14874372Y-9912984D01*
X14868248Y-9909098D01*
X14859440Y-9903508D01*
X14859440Y-9903508D01*
X14859209Y-9903361D01*
X14858951Y-9903270D01*
X14858951Y-9903269D01*
X14846813Y-9898947D01*
X14844992Y-9897796D01*
X14836296Y-9889101D01*
X14827003Y-9879807D01*
X14826775Y-9879564D01*
X14823041Y-9875283D01*
X14822847Y-9875060D01*
X14817515Y-9871313D01*
X14817313Y-9871163D01*
X14816758Y-9870728D01*
X14812184Y-9867142D01*
X14810915Y-9866569D01*
X14810114Y-9866112D01*
X14809217Y-9865481D01*
X14809216Y-9865481D01*
X14808975Y-9865311D01*
X14805576Y-9863986D01*
X14802905Y-9862945D01*
X14802669Y-9862845D01*
X14797000Y-9860286D01*
X14797000Y-9860286D01*
X14796732Y-9860165D01*
X14795363Y-9859911D01*
X14794476Y-9859658D01*
X14793454Y-9859260D01*
X14793454Y-9859260D01*
X14793179Y-9859152D01*
X14791542Y-9858937D01*
X14786718Y-9858302D01*
X14786465Y-9858262D01*
X14783534Y-9857719D01*
X14780061Y-9857075D01*
X14773694Y-9857442D01*
X14773412Y-9857450D01*
X14645950Y-9857450D01*
X14642485Y-9856015D01*
X14641050Y-9852550D01*
X14641050Y-9820248D01*
X14641050Y-9820248D01*
X14641050Y-9733848D01*
X14639565Y-9724470D01*
X14635802Y-9717085D01*
X14633980Y-9713509D01*
X14633980Y-9713509D01*
X14633805Y-9713166D01*
X14624834Y-9704195D01*
X14624491Y-9704020D01*
X14624491Y-9704020D01*
X14617386Y-9700400D01*
X14613530Y-9698435D01*
X14613150Y-9698375D01*
X14613150Y-9698375D01*
X14609933Y-9697866D01*
X14604152Y-9696950D01*
X14603959Y-9696950D01*
X14571000Y-9696950D01*
X14537848Y-9696950D01*
X14532066Y-9697866D01*
X14528420Y-9696990D01*
X14526460Y-9693793D01*
X14526400Y-9693026D01*
X14526400Y-9670475D01*
X14526114Y-9669786D01*
X14525425Y-9669500D01*
X14491975Y-9669500D01*
X14491285Y-9669786D01*
X14491000Y-9670475D01*
X14491000Y-9761425D01*
X14491285Y-9762114D01*
X14491975Y-9762400D01*
X14496050Y-9762400D01*
X14499515Y-9763835D01*
X14500950Y-9767300D01*
X14500950Y-9852892D01*
X14499515Y-9856356D01*
X14496892Y-9857719D01*
X14494408Y-9858152D01*
X14494154Y-9858190D01*
X14487686Y-9858972D01*
X14487409Y-9859077D01*
X14487409Y-9859077D01*
X14486383Y-9859465D01*
X14485494Y-9859708D01*
X14484413Y-9859897D01*
X14484413Y-9859897D01*
X14484122Y-9859947D01*
X14483852Y-9860066D01*
X14483852Y-9860066D01*
X14478157Y-9862566D01*
X14477920Y-9862663D01*
X14471825Y-9864966D01*
X14471582Y-9865133D01*
X14471582Y-9865133D01*
X14470678Y-9865754D01*
X14469872Y-9866202D01*
X14468597Y-9866762D01*
X14468363Y-9866942D01*
X14463429Y-9870728D01*
X14463222Y-9870878D01*
X14458313Y-9874252D01*
X14457852Y-9874569D01*
X14457656Y-9874789D01*
X14457656Y-9874790D01*
X14453610Y-9879331D01*
X14453416Y-9879536D01*
X14449415Y-9883537D01*
X14445950Y-9884972D01*
X14442485Y-9883537D01*
X14441050Y-9880072D01*
X14441050Y-9828917D01*
X14441050Y-9767300D01*
X14442485Y-9763835D01*
X14445950Y-9762400D01*
X14450025Y-9762400D01*
X14450714Y-9762115D01*
X14451000Y-9761425D01*
X14451000Y-9670475D01*
X14450714Y-9669786D01*
X14450025Y-9669500D01*
X14416575Y-9669500D01*
X14415886Y-9669786D01*
X14415600Y-9670475D01*
X14415600Y-9693026D01*
X14414165Y-9696491D01*
X14410700Y-9697926D01*
X14409934Y-9697866D01*
X14407629Y-9697501D01*
X14404152Y-9696950D01*
X14401768Y-9696950D01*
X14345950Y-9696950D01*
X14342485Y-9695515D01*
X14341050Y-9692050D01*
X14341050Y-9628525D01*
X14415600Y-9628525D01*
X14415885Y-9629215D01*
X14416575Y-9629500D01*
X14450025Y-9629500D01*
X14450714Y-9629215D01*
X14451000Y-9628525D01*
X14491000Y-9628525D01*
X14491285Y-9629215D01*
X14491975Y-9629500D01*
X14525425Y-9629500D01*
X14526114Y-9629215D01*
X14526400Y-9628525D01*
X14526400Y-9559739D01*
X14526353Y-9559263D01*
X14525020Y-9552563D01*
X14524658Y-9551688D01*
X14519580Y-9544089D01*
X14518911Y-9543420D01*
X14511312Y-9538342D01*
X14510437Y-9537980D01*
X14503737Y-9536647D01*
X14503261Y-9536600D01*
X14491975Y-9536600D01*
X14491285Y-9536886D01*
X14491000Y-9537575D01*
X14491000Y-9628525D01*
X14451000Y-9628525D01*
X14451000Y-9537575D01*
X14450714Y-9536886D01*
X14450025Y-9536600D01*
X14438739Y-9536600D01*
X14438263Y-9536647D01*
X14431563Y-9537980D01*
X14430688Y-9538342D01*
X14423089Y-9543420D01*
X14422420Y-9544089D01*
X14417342Y-9551688D01*
X14416980Y-9552563D01*
X14415647Y-9559263D01*
X14415600Y-9559739D01*
X14415600Y-9628525D01*
X14341050Y-9628525D01*
X14341050Y-9559041D01*
X14341050Y-9558848D01*
X14340157Y-9553209D01*
X14339625Y-9549850D01*
X14339625Y-9549850D01*
X14339565Y-9549470D01*
X14335530Y-9541552D01*
X14333980Y-9538509D01*
X14333980Y-9538509D01*
X14333805Y-9538166D01*
X14325639Y-9530000D01*
X14551000Y-9530000D01*
X14649069Y-9530000D01*
X14649552Y-9530024D01*
X14668449Y-9531896D01*
X14669396Y-9532085D01*
X14687326Y-9537558D01*
X14688217Y-9537930D01*
X14704725Y-9546814D01*
X14705526Y-9547353D01*
X14708306Y-9549653D01*
X14720157Y-9559458D01*
X14720514Y-9559785D01*
X14742472Y-9581944D01*
X14800000Y-9640000D01*
X15049679Y-9640000D01*
X15050318Y-9640042D01*
X15062302Y-9641620D01*
X15063537Y-9641951D01*
X15074404Y-9646452D01*
X15075511Y-9647091D01*
X15084844Y-9654252D01*
X15085748Y-9655156D01*
X15092909Y-9664488D01*
X15093548Y-9665596D01*
X15097635Y-9675463D01*
X15098049Y-9676463D01*
X15098380Y-9677698D01*
X15100000Y-9690000D01*
X15100000Y-9740000D01*
X15141950Y-9740000D01*
X15142820Y-9740502D01*
X15143790Y-9744125D01*
X15143537Y-9745161D01*
X15142467Y-9748101D01*
X15140216Y-9765919D01*
X15140242Y-9766191D01*
X15140242Y-9766191D01*
X15141120Y-9775140D01*
X15141968Y-9783792D01*
X15147637Y-9800833D01*
X15147779Y-9801068D01*
X15147779Y-9801068D01*
X15155040Y-9813058D01*
X15156940Y-9816195D01*
X15157130Y-9816392D01*
X15157130Y-9816392D01*
X15160854Y-9820248D01*
X15169416Y-9829114D01*
X15184443Y-9838947D01*
X15201276Y-9845207D01*
X15201547Y-9845243D01*
X15201547Y-9845243D01*
X15208504Y-9846172D01*
X15219077Y-9847582D01*
X15219350Y-9847558D01*
X15219350Y-9847558D01*
X15236689Y-9845980D01*
X15236690Y-9845980D01*
X15236962Y-9845955D01*
X15254043Y-9840405D01*
X15254278Y-9840265D01*
X15254278Y-9840265D01*
X15269233Y-9831350D01*
X15269233Y-9831350D01*
X15269469Y-9831209D01*
X15282474Y-9818824D01*
X15284858Y-9815237D01*
X15287971Y-9813145D01*
X15288939Y-9813048D01*
X15481698Y-9813048D01*
X15482779Y-9813169D01*
X15483800Y-9813400D01*
X15484149Y-9813379D01*
X15489321Y-9813058D01*
X15489624Y-9813048D01*
X15491450Y-9813048D01*
X15492767Y-9812860D01*
X15493157Y-9812820D01*
X15498109Y-9812512D01*
X15498437Y-9812394D01*
X15498438Y-9812394D01*
X15499556Y-9811990D01*
X15500525Y-9811749D01*
X15501702Y-9811580D01*
X15501702Y-9811580D01*
X15502047Y-9811531D01*
X15503174Y-9811018D01*
X15506564Y-9809477D01*
X15506928Y-9809329D01*
X15511266Y-9807763D01*
X15511266Y-9807763D01*
X15511594Y-9807644D01*
X15512836Y-9806737D01*
X15513698Y-9806234D01*
X15514781Y-9805741D01*
X15514781Y-9805741D01*
X15515098Y-9805597D01*
X15515362Y-9805369D01*
X15515363Y-9805369D01*
X15518857Y-9802358D01*
X15519164Y-9802114D01*
X15520489Y-9801146D01*
X15521766Y-9799870D01*
X15522032Y-9799622D01*
X15525695Y-9796466D01*
X15525959Y-9796238D01*
X15526714Y-9795074D01*
X15527361Y-9794274D01*
X15604550Y-9717085D01*
X15668743Y-9717085D01*
X15668823Y-9717549D01*
X15668983Y-9718092D01*
X15675644Y-9733746D01*
X15675924Y-9734238D01*
X15686008Y-9747939D01*
X15686393Y-9748353D01*
X15699359Y-9759368D01*
X15699829Y-9759682D01*
X15714981Y-9767419D01*
X15715511Y-9767616D01*
X15732101Y-9771675D01*
X15732531Y-9771741D01*
X15733348Y-9771791D01*
X15733496Y-9771796D01*
X15775721Y-9771796D01*
X15776410Y-9771511D01*
X15776696Y-9770821D01*
X15816696Y-9770821D01*
X15816981Y-9771511D01*
X15817671Y-9771796D01*
X15855957Y-9771796D01*
X15856240Y-9771780D01*
X15868876Y-9770306D01*
X15869427Y-9770176D01*
X15885420Y-9764371D01*
X15885925Y-9764118D01*
X15900152Y-9754790D01*
X15900586Y-9754427D01*
X15912286Y-9742077D01*
X15912625Y-9741624D01*
X15921170Y-9726913D01*
X15921396Y-9726394D01*
X15924141Y-9717329D01*
X15924117Y-9717085D01*
X16111743Y-9717085D01*
X16111823Y-9717549D01*
X16111983Y-9718092D01*
X16118644Y-9733746D01*
X16118924Y-9734238D01*
X16129008Y-9747939D01*
X16129393Y-9748353D01*
X16142359Y-9759368D01*
X16142829Y-9759682D01*
X16157981Y-9767419D01*
X16158511Y-9767616D01*
X16175101Y-9771675D01*
X16175531Y-9771741D01*
X16176348Y-9771791D01*
X16176496Y-9771796D01*
X16193721Y-9771796D01*
X16194410Y-9771511D01*
X16194696Y-9770821D01*
X16234696Y-9770821D01*
X16234981Y-9771511D01*
X16235671Y-9771796D01*
X16248957Y-9771796D01*
X16249240Y-9771780D01*
X16261876Y-9770306D01*
X16262427Y-9770176D01*
X16278420Y-9764371D01*
X16278925Y-9764118D01*
X16293152Y-9754790D01*
X16293586Y-9754427D01*
X16305286Y-9742077D01*
X16305625Y-9741624D01*
X16314170Y-9726913D01*
X16314396Y-9726394D01*
X16317141Y-9717329D01*
X16317068Y-9716587D01*
X16316835Y-9716396D01*
X16235671Y-9716396D01*
X16234981Y-9716682D01*
X16234696Y-9717371D01*
X16234696Y-9770821D01*
X16194696Y-9770821D01*
X16194696Y-9717371D01*
X16194410Y-9716682D01*
X16193721Y-9716396D01*
X16112600Y-9716396D01*
X16111910Y-9716682D01*
X16111743Y-9717085D01*
X15924117Y-9717085D01*
X15924068Y-9716587D01*
X15923835Y-9716396D01*
X15817671Y-9716396D01*
X15816981Y-9716682D01*
X15816696Y-9717371D01*
X15816696Y-9770821D01*
X15776696Y-9770821D01*
X15776696Y-9717371D01*
X15776410Y-9716682D01*
X15775721Y-9716396D01*
X15669600Y-9716396D01*
X15668910Y-9716682D01*
X15668743Y-9717085D01*
X15604550Y-9717085D01*
X15668453Y-9653182D01*
X15671918Y-9651747D01*
X15675383Y-9653182D01*
X15676818Y-9656647D01*
X15676155Y-9659108D01*
X15672222Y-9665879D01*
X15671996Y-9666399D01*
X15669251Y-9675463D01*
X15669324Y-9676206D01*
X15669557Y-9676396D01*
X15775721Y-9676396D01*
X15776410Y-9676111D01*
X15776696Y-9675421D01*
X15776696Y-9621971D01*
X15776410Y-9621282D01*
X15775721Y-9620996D01*
X15737435Y-9620996D01*
X15737152Y-9621013D01*
X15724515Y-9622486D01*
X15723964Y-9622616D01*
X15707972Y-9628421D01*
X15707467Y-9628674D01*
X15705168Y-9630181D01*
X15701484Y-9630881D01*
X15698384Y-9628770D01*
X15697684Y-9625085D01*
X15699017Y-9622618D01*
X15768426Y-9553209D01*
X15771891Y-9551774D01*
X15775356Y-9553209D01*
X15776708Y-9556781D01*
X15776761Y-9556778D01*
X15776770Y-9556947D01*
X15776782Y-9556977D01*
X15776759Y-9557346D01*
X15779624Y-9574019D01*
X15779736Y-9574282D01*
X15779736Y-9574282D01*
X15780737Y-9576636D01*
X15786248Y-9589586D01*
X15796275Y-9603212D01*
X15796492Y-9603396D01*
X15796492Y-9603396D01*
X15798639Y-9605220D01*
X15809168Y-9614165D01*
X15809421Y-9614294D01*
X15809421Y-9614294D01*
X15814024Y-9616645D01*
X15816457Y-9619499D01*
X15816696Y-9621009D01*
X15816696Y-9675421D01*
X15816981Y-9676111D01*
X15817671Y-9676396D01*
X15923792Y-9676396D01*
X15924481Y-9676111D01*
X15924649Y-9675707D01*
X15924607Y-9675463D01*
X16112251Y-9675463D01*
X16112324Y-9676206D01*
X16112557Y-9676396D01*
X16193721Y-9676396D01*
X16194410Y-9676111D01*
X16194696Y-9675421D01*
X16234696Y-9675421D01*
X16234981Y-9676111D01*
X16235671Y-9676396D01*
X16305275Y-9676396D01*
X16305964Y-9676111D01*
X16306250Y-9675421D01*
X16306250Y-9635975D01*
X16305964Y-9635286D01*
X16305275Y-9635000D01*
X16235671Y-9635000D01*
X16234981Y-9635286D01*
X16234696Y-9635975D01*
X16234696Y-9675421D01*
X16194696Y-9675421D01*
X16194696Y-9621971D01*
X16194410Y-9621282D01*
X16193721Y-9620996D01*
X16180435Y-9620996D01*
X16180152Y-9621013D01*
X16167515Y-9622486D01*
X16166964Y-9622616D01*
X16150972Y-9628421D01*
X16150467Y-9628674D01*
X16136240Y-9638002D01*
X16135806Y-9638365D01*
X16124106Y-9650715D01*
X16123767Y-9651168D01*
X16115222Y-9665879D01*
X16114996Y-9666399D01*
X16112251Y-9675463D01*
X15924607Y-9675463D01*
X15924569Y-9675244D01*
X15924409Y-9674700D01*
X15917748Y-9659046D01*
X15917468Y-9658555D01*
X15907384Y-9644853D01*
X15906998Y-9644439D01*
X15894033Y-9633424D01*
X15893563Y-9633110D01*
X15882391Y-9627406D01*
X15879958Y-9624552D01*
X15880255Y-9620813D01*
X15882361Y-9618723D01*
X15882402Y-9618709D01*
X15882640Y-9618553D01*
X15882640Y-9618553D01*
X15889135Y-9614294D01*
X15896550Y-9609433D01*
X15908184Y-9597151D01*
X15908221Y-9597087D01*
X16002851Y-9597087D01*
X16002972Y-9597381D01*
X16016657Y-9605029D01*
X16017094Y-9605220D01*
X16034897Y-9611005D01*
X16035364Y-9611107D01*
X16053952Y-9613324D01*
X16054428Y-9613334D01*
X16073094Y-9611898D01*
X16073563Y-9611815D01*
X16091594Y-9606780D01*
X16092038Y-9606608D01*
X16108748Y-9598168D01*
X16109150Y-9597912D01*
X16109352Y-9597755D01*
X16109719Y-9597105D01*
X16109584Y-9596619D01*
X16106991Y-9594025D01*
X16205850Y-9594025D01*
X16206136Y-9594715D01*
X16206825Y-9595000D01*
X16305275Y-9595000D01*
X16305964Y-9594715D01*
X16306250Y-9594025D01*
X16306250Y-9575975D01*
X16305964Y-9575286D01*
X16305275Y-9575000D01*
X16206825Y-9575000D01*
X16206136Y-9575286D01*
X16205850Y-9575975D01*
X16205850Y-9594025D01*
X16106991Y-9594025D01*
X16056939Y-9543974D01*
X16056250Y-9543688D01*
X16055561Y-9543974D01*
X16003136Y-9596398D01*
X16002851Y-9597087D01*
X15908221Y-9597087D01*
X15916682Y-9582522D01*
X15916804Y-9582119D01*
X15921503Y-9566603D01*
X15921503Y-9566603D01*
X15921585Y-9566331D01*
X15922178Y-9556778D01*
X15922615Y-9549730D01*
X15922615Y-9549730D01*
X15922633Y-9549446D01*
X15919768Y-9532773D01*
X15913144Y-9517206D01*
X15910686Y-9513865D01*
X15957906Y-9513865D01*
X15959472Y-9532520D01*
X15959558Y-9532988D01*
X15964718Y-9550984D01*
X15964894Y-9551427D01*
X15973451Y-9568076D01*
X15973524Y-9568191D01*
X15974100Y-9568511D01*
X15974596Y-9568370D01*
X16027276Y-9515689D01*
X16027562Y-9515000D01*
X16084938Y-9515000D01*
X16085224Y-9515689D01*
X16137614Y-9568080D01*
X16138304Y-9568366D01*
X16138604Y-9568241D01*
X16146000Y-9555221D01*
X16146194Y-9554785D01*
X16152103Y-9537022D01*
X16152209Y-9536557D01*
X16152529Y-9534025D01*
X16205850Y-9534025D01*
X16206135Y-9534715D01*
X16206825Y-9535000D01*
X16305275Y-9535000D01*
X16305964Y-9534715D01*
X16306250Y-9534025D01*
X16306250Y-9470575D01*
X16305753Y-9469375D01*
X16305753Y-9465625D01*
X16306250Y-9464425D01*
X16306250Y-9385975D01*
X16305964Y-9385286D01*
X16305275Y-9385000D01*
X16206825Y-9385000D01*
X16206136Y-9385286D01*
X16205850Y-9385975D01*
X16205850Y-9442261D01*
X16205897Y-9442737D01*
X16207230Y-9449437D01*
X16207592Y-9450312D01*
X16212670Y-9457911D01*
X16213339Y-9458580D01*
X16220590Y-9463426D01*
X16222674Y-9466544D01*
X16221942Y-9470222D01*
X16220590Y-9471574D01*
X16213339Y-9476420D01*
X16212670Y-9477089D01*
X16207592Y-9484688D01*
X16207230Y-9485563D01*
X16205897Y-9492263D01*
X16205850Y-9492739D01*
X16205850Y-9534025D01*
X16152529Y-9534025D01*
X16154568Y-9517882D01*
X16154587Y-9517610D01*
X16154622Y-9515137D01*
X16154610Y-9514864D01*
X16152773Y-9496131D01*
X16152681Y-9495664D01*
X16147270Y-9477742D01*
X16147088Y-9477301D01*
X16138918Y-9461935D01*
X16138342Y-9461460D01*
X16138046Y-9461489D01*
X16085224Y-9514311D01*
X16084938Y-9515000D01*
X16027562Y-9515000D01*
X16027276Y-9514311D01*
X15974815Y-9461849D01*
X15974125Y-9461563D01*
X15973838Y-9461682D01*
X15965946Y-9476037D01*
X15965759Y-9476475D01*
X15960098Y-9494319D01*
X15959999Y-9494784D01*
X15957913Y-9513389D01*
X15957906Y-9513865D01*
X15910686Y-9513865D01*
X15903117Y-9503580D01*
X15902900Y-9503396D01*
X15902900Y-9503396D01*
X15894965Y-9496655D01*
X15890224Y-9492627D01*
X15889511Y-9492263D01*
X15885558Y-9490244D01*
X15875157Y-9484933D01*
X15874155Y-9484688D01*
X15872314Y-9484238D01*
X15869290Y-9482020D01*
X15868719Y-9478313D01*
X15870937Y-9475289D01*
X15871964Y-9474818D01*
X15887831Y-9469663D01*
X15888066Y-9469522D01*
X15888067Y-9469522D01*
X15903022Y-9460607D01*
X15903022Y-9460607D01*
X15903257Y-9460467D01*
X15916263Y-9448082D01*
X15916414Y-9447854D01*
X15916415Y-9447853D01*
X15926049Y-9433352D01*
X15926049Y-9433352D01*
X15926201Y-9433123D01*
X15926391Y-9432623D01*
X15932227Y-9417261D01*
X15963350Y-9417261D01*
X15963397Y-9417737D01*
X15964730Y-9424437D01*
X15965092Y-9425312D01*
X15970170Y-9432911D01*
X15970839Y-9433580D01*
X15978438Y-9438658D01*
X15979313Y-9439020D01*
X15985923Y-9440335D01*
X15987431Y-9439711D01*
X15994873Y-9432269D01*
X15998338Y-9430833D01*
X16001803Y-9432269D01*
X16055561Y-9486026D01*
X16056250Y-9486312D01*
X16056939Y-9486026D01*
X16110697Y-9432269D01*
X16114162Y-9430833D01*
X16117627Y-9432269D01*
X16125069Y-9439711D01*
X16126577Y-9440335D01*
X16133187Y-9439020D01*
X16134062Y-9438658D01*
X16141661Y-9433580D01*
X16142330Y-9432911D01*
X16147408Y-9425312D01*
X16147770Y-9424437D01*
X16149103Y-9417737D01*
X16149150Y-9417261D01*
X16149150Y-9415975D01*
X16148864Y-9415286D01*
X16148175Y-9415000D01*
X15964325Y-9415000D01*
X15963636Y-9415286D01*
X15963350Y-9415975D01*
X15963350Y-9417261D01*
X15932227Y-9417261D01*
X15932481Y-9416591D01*
X15932481Y-9416591D01*
X15932579Y-9416335D01*
X15935078Y-9398550D01*
X15935109Y-9396301D01*
X15933107Y-9378454D01*
X15928949Y-9366511D01*
X15929164Y-9362767D01*
X15931965Y-9360273D01*
X15933576Y-9360000D01*
X15945893Y-9360000D01*
X15949358Y-9361435D01*
X15950259Y-9362675D01*
X15950826Y-9363788D01*
X15954338Y-9370680D01*
X15955945Y-9373834D01*
X15964916Y-9382805D01*
X15965259Y-9382980D01*
X15965259Y-9382980D01*
X15969224Y-9385000D01*
X15976220Y-9388565D01*
X15976600Y-9388625D01*
X15976600Y-9388625D01*
X15979518Y-9389087D01*
X15985598Y-9390050D01*
X16056250Y-9390050D01*
X16126902Y-9390050D01*
X16131620Y-9389303D01*
X16135900Y-9388625D01*
X16135900Y-9388625D01*
X16136280Y-9388565D01*
X16143276Y-9385000D01*
X16147241Y-9382980D01*
X16147241Y-9382980D01*
X16147584Y-9382805D01*
X16156555Y-9373834D01*
X16158162Y-9370680D01*
X16161674Y-9363788D01*
X16162315Y-9362530D01*
X16163800Y-9353152D01*
X16163800Y-9344025D01*
X16205850Y-9344025D01*
X16206135Y-9344715D01*
X16206825Y-9345000D01*
X16305275Y-9345000D01*
X16305964Y-9344715D01*
X16306250Y-9344025D01*
X16306250Y-9185975D01*
X16305964Y-9185286D01*
X16305275Y-9185000D01*
X16206825Y-9185000D01*
X16206136Y-9185286D01*
X16205850Y-9185975D01*
X16205850Y-9242261D01*
X16205897Y-9242737D01*
X16207230Y-9249437D01*
X16207592Y-9250312D01*
X16212670Y-9257911D01*
X16213339Y-9258580D01*
X16216849Y-9260926D01*
X16218932Y-9264044D01*
X16218201Y-9267722D01*
X16216849Y-9269074D01*
X16213339Y-9271420D01*
X16212670Y-9272089D01*
X16207592Y-9279688D01*
X16207230Y-9280563D01*
X16205897Y-9287263D01*
X16205850Y-9287739D01*
X16205850Y-9344025D01*
X16163800Y-9344025D01*
X16163800Y-9306848D01*
X16162596Y-9299249D01*
X16162441Y-9298267D01*
X16162441Y-9296734D01*
X16162622Y-9295588D01*
X16163800Y-9288152D01*
X16163800Y-9241848D01*
X16162441Y-9233267D01*
X16162441Y-9231734D01*
X16163504Y-9225022D01*
X16163800Y-9223152D01*
X16163800Y-9176848D01*
X16162441Y-9168267D01*
X16162441Y-9166734D01*
X16162792Y-9164513D01*
X16163800Y-9158152D01*
X16163800Y-9144025D01*
X16205850Y-9144025D01*
X16206135Y-9144715D01*
X16206825Y-9145000D01*
X16305275Y-9145000D01*
X16305964Y-9144715D01*
X16306250Y-9144025D01*
X16306250Y-9065575D01*
X16305753Y-9064375D01*
X16305753Y-9060625D01*
X16306250Y-9059425D01*
X16306250Y-8995975D01*
X16305964Y-8995286D01*
X16305275Y-8995000D01*
X16206825Y-8995000D01*
X16206136Y-8995286D01*
X16205850Y-8995975D01*
X16205850Y-9037261D01*
X16205897Y-9037737D01*
X16207230Y-9044437D01*
X16207592Y-9045312D01*
X16212670Y-9052911D01*
X16213339Y-9053580D01*
X16220590Y-9058426D01*
X16222674Y-9061544D01*
X16221942Y-9065222D01*
X16220590Y-9066574D01*
X16213339Y-9071420D01*
X16212670Y-9072089D01*
X16207592Y-9079688D01*
X16207230Y-9080563D01*
X16205897Y-9087263D01*
X16205850Y-9087739D01*
X16205850Y-9144025D01*
X16163800Y-9144025D01*
X16163800Y-9111848D01*
X16162805Y-9105565D01*
X16162375Y-9102850D01*
X16162375Y-9102850D01*
X16162315Y-9102470D01*
X16158776Y-9095524D01*
X16156730Y-9091509D01*
X16156730Y-9091509D01*
X16156555Y-9091166D01*
X16147584Y-9082195D01*
X16147241Y-9082020D01*
X16147241Y-9082020D01*
X16139041Y-9077842D01*
X16136605Y-9074990D01*
X16137005Y-9071056D01*
X16146000Y-9055221D01*
X16146194Y-9054785D01*
X16152103Y-9037022D01*
X16152209Y-9036557D01*
X16154568Y-9017882D01*
X16154587Y-9017610D01*
X16154622Y-9015137D01*
X16154610Y-9014864D01*
X16152773Y-8996131D01*
X16152681Y-8995664D01*
X16147270Y-8977742D01*
X16147088Y-8977301D01*
X16138918Y-8961935D01*
X16138342Y-8961460D01*
X16138046Y-8961489D01*
X16059715Y-9039820D01*
X16056250Y-9041255D01*
X16052785Y-9039820D01*
X15974815Y-8961849D01*
X15974125Y-8961563D01*
X15973838Y-8961682D01*
X15965946Y-8976037D01*
X15965759Y-8976475D01*
X15960098Y-8994319D01*
X15959999Y-8994785D01*
X15959165Y-9002220D01*
X15957353Y-9005503D01*
X15953750Y-9006543D01*
X15951670Y-9005811D01*
X15942064Y-8999714D01*
X15941806Y-8999623D01*
X15941806Y-8999622D01*
X15925403Y-8993782D01*
X15925258Y-8993730D01*
X15925258Y-8993730D01*
X15925145Y-8993690D01*
X15925157Y-8993657D01*
X15922249Y-8991569D01*
X15921631Y-8988334D01*
X15921585Y-8988331D01*
X15921597Y-8988151D01*
X15922348Y-8976037D01*
X15922615Y-8971730D01*
X15922615Y-8971730D01*
X15922633Y-8971446D01*
X15919768Y-8954773D01*
X15918618Y-8952070D01*
X15913256Y-8939468D01*
X15913144Y-8939206D01*
X15908431Y-8932802D01*
X16002694Y-8932802D01*
X16002842Y-8933308D01*
X16055561Y-8986026D01*
X16056250Y-8986312D01*
X16056939Y-8986026D01*
X16088940Y-8954025D01*
X16205850Y-8954025D01*
X16206135Y-8954715D01*
X16206825Y-8955000D01*
X16305275Y-8955000D01*
X16305964Y-8954715D01*
X16306250Y-8954025D01*
X16306250Y-8935975D01*
X16305964Y-8935286D01*
X16305275Y-8935000D01*
X16206825Y-8935000D01*
X16206135Y-8935286D01*
X16205850Y-8935975D01*
X16205850Y-8954025D01*
X16088940Y-8954025D01*
X16109442Y-8933524D01*
X16109728Y-8932834D01*
X16109611Y-8932553D01*
X16094582Y-8924427D01*
X16094143Y-8924242D01*
X16076259Y-8918706D01*
X16075793Y-8918611D01*
X16057175Y-8916654D01*
X16056698Y-8916650D01*
X16038056Y-8918347D01*
X16037586Y-8918437D01*
X16019628Y-8923722D01*
X16019186Y-8923901D01*
X16002907Y-8932411D01*
X16002694Y-8932802D01*
X15908431Y-8932802D01*
X15903117Y-8925580D01*
X15902900Y-8925396D01*
X15902900Y-8925396D01*
X15898621Y-8921761D01*
X15890224Y-8914627D01*
X15889971Y-8914498D01*
X15889971Y-8914497D01*
X15881946Y-8910400D01*
X15879513Y-8907546D01*
X15879811Y-8903808D01*
X15882503Y-8901430D01*
X15885420Y-8900371D01*
X15885925Y-8900118D01*
X15900152Y-8890790D01*
X15900586Y-8890427D01*
X15912286Y-8878077D01*
X15912625Y-8877624D01*
X15921170Y-8862913D01*
X15921396Y-8862394D01*
X15924141Y-8853329D01*
X15924117Y-8853085D01*
X16111743Y-8853085D01*
X16111823Y-8853549D01*
X16111983Y-8854092D01*
X16118644Y-8869746D01*
X16118924Y-8870238D01*
X16129008Y-8883939D01*
X16129393Y-8884353D01*
X16142359Y-8895368D01*
X16142829Y-8895682D01*
X16157981Y-8903419D01*
X16158511Y-8903616D01*
X16175101Y-8907675D01*
X16175531Y-8907741D01*
X16176348Y-8907791D01*
X16176496Y-8907796D01*
X16193721Y-8907796D01*
X16194410Y-8907511D01*
X16194696Y-8906821D01*
X16194696Y-8894025D01*
X16234696Y-8894025D01*
X16234981Y-8894715D01*
X16235671Y-8895000D01*
X16305275Y-8895000D01*
X16305964Y-8894715D01*
X16306250Y-8894025D01*
X16306250Y-8853371D01*
X16305964Y-8852682D01*
X16305275Y-8852396D01*
X16235671Y-8852396D01*
X16234981Y-8852682D01*
X16234696Y-8853371D01*
X16234696Y-8894025D01*
X16194696Y-8894025D01*
X16194696Y-8853371D01*
X16194410Y-8852682D01*
X16193721Y-8852396D01*
X16112600Y-8852396D01*
X16111910Y-8852682D01*
X16111743Y-8853085D01*
X15924117Y-8853085D01*
X15924068Y-8852587D01*
X15923835Y-8852396D01*
X15817671Y-8852396D01*
X15816981Y-8852682D01*
X15816696Y-8853371D01*
X15816696Y-8907630D01*
X15815261Y-8911094D01*
X15814483Y-8911727D01*
X15802842Y-8919359D01*
X15791207Y-8931641D01*
X15782710Y-8946270D01*
X15782628Y-8946542D01*
X15782628Y-8946542D01*
X15777992Y-8961849D01*
X15777806Y-8962461D01*
X15777720Y-8963848D01*
X15777197Y-8972290D01*
X15776759Y-8979346D01*
X15776807Y-8979627D01*
X15779484Y-8995203D01*
X15779587Y-8995804D01*
X15779587Y-8995804D01*
X15779624Y-8996019D01*
X15779563Y-8996030D01*
X15779191Y-8999513D01*
X15776273Y-9001869D01*
X15774889Y-9002068D01*
X15682756Y-9002068D01*
X15679291Y-9000633D01*
X15675715Y-8997057D01*
X15674552Y-8995203D01*
X15670528Y-8983649D01*
X15670528Y-8983649D01*
X15670438Y-8983390D01*
X15669967Y-8982636D01*
X15661067Y-8968392D01*
X15661067Y-8968392D01*
X15660921Y-8968160D01*
X15659860Y-8967092D01*
X15654268Y-8961460D01*
X15648267Y-8955417D01*
X15637944Y-8948866D01*
X15633335Y-8945940D01*
X15633334Y-8945940D01*
X15633103Y-8945794D01*
X15632846Y-8945702D01*
X15632845Y-8945702D01*
X15616443Y-8939861D01*
X15616185Y-8939769D01*
X15615913Y-8939737D01*
X15615913Y-8939737D01*
X15607268Y-8938706D01*
X15598352Y-8937643D01*
X15598080Y-8937672D01*
X15598080Y-8937672D01*
X15587572Y-8938776D01*
X15580491Y-8939520D01*
X15563490Y-8945308D01*
X15563257Y-8945451D01*
X15563257Y-8945451D01*
X15548427Y-8954575D01*
X15548427Y-8954575D01*
X15548194Y-8954718D01*
X15547999Y-8954910D01*
X15547998Y-8954910D01*
X15535559Y-8967092D01*
X15535559Y-8967092D01*
X15535363Y-8967283D01*
X15535215Y-8967513D01*
X15535215Y-8967513D01*
X15532476Y-8971762D01*
X15525634Y-8982379D01*
X15522290Y-8991569D01*
X15520292Y-8997057D01*
X15519492Y-8999255D01*
X15517241Y-9017073D01*
X15518994Y-9034946D01*
X15524662Y-9051987D01*
X15524804Y-9052221D01*
X15524804Y-9052222D01*
X15532891Y-9065575D01*
X15533966Y-9067349D01*
X15546441Y-9080267D01*
X15561469Y-9090101D01*
X15562425Y-9090457D01*
X15562561Y-9090507D01*
X15565308Y-9093060D01*
X15565446Y-9096808D01*
X15562893Y-9099555D01*
X15560853Y-9100000D01*
X15460000Y-9100000D01*
X15460000Y-9170000D01*
X15458307Y-9185028D01*
X15458063Y-9186098D01*
X15453250Y-9199851D01*
X15452774Y-9200839D01*
X15451166Y-9203398D01*
X15445022Y-9213177D01*
X15444338Y-9214035D01*
X15434035Y-9224338D01*
X15433177Y-9225022D01*
X15423720Y-9230964D01*
X15420839Y-9232774D01*
X15419851Y-9233250D01*
X15406098Y-9238063D01*
X15405028Y-9238307D01*
X15390273Y-9239969D01*
X15389725Y-9240000D01*
X15340275Y-9240000D01*
X15339727Y-9239969D01*
X15322747Y-9238056D01*
X15321677Y-9237812D01*
X15305810Y-9232260D01*
X15304822Y-9231784D01*
X15294060Y-9225022D01*
X15290588Y-9222840D01*
X15289730Y-9222156D01*
X15277844Y-9210270D01*
X15277160Y-9209412D01*
X15268216Y-9195178D01*
X15267740Y-9194190D01*
X15262188Y-9178323D01*
X15261944Y-9177253D01*
X15260000Y-9160000D01*
X15260000Y-9080000D01*
X15100000Y-9080000D01*
X15100000Y-9199759D01*
X15099976Y-9200240D01*
X15098126Y-9219029D01*
X15097938Y-9219971D01*
X15092528Y-9237807D01*
X15092160Y-9238694D01*
X15083375Y-9255131D01*
X15082841Y-9255930D01*
X15080077Y-9259298D01*
X15071648Y-9269569D01*
X15071017Y-9270338D01*
X15070338Y-9271017D01*
X15055930Y-9282841D01*
X15055131Y-9283375D01*
X15038694Y-9292160D01*
X15037807Y-9292528D01*
X15019971Y-9297938D01*
X15019029Y-9298126D01*
X15000240Y-9299976D01*
X14999759Y-9300000D01*
X14800000Y-9300000D01*
X14777975Y-9311720D01*
X14777975Y-9311720D01*
X14713289Y-9346140D01*
X14712746Y-9346387D01*
X14699341Y-9351537D01*
X14690820Y-9354810D01*
X14689660Y-9355099D01*
X14666348Y-9357963D01*
X14665751Y-9358000D01*
X14551000Y-9358000D01*
X14551000Y-9530000D01*
X14325639Y-9530000D01*
X14324834Y-9529195D01*
X14324491Y-9529020D01*
X14324491Y-9529020D01*
X14319182Y-9526315D01*
X14313530Y-9523435D01*
X14313150Y-9523375D01*
X14313150Y-9523375D01*
X14308692Y-9522669D01*
X14304152Y-9521950D01*
X14299912Y-9521950D01*
X14242775Y-9521950D01*
X14239311Y-9520515D01*
X14238620Y-9519647D01*
X14234277Y-9512696D01*
X14234277Y-9512696D01*
X14234132Y-9512464D01*
X14231311Y-9509623D01*
X14225538Y-9503810D01*
X14221477Y-9499720D01*
X14209726Y-9492263D01*
X14206545Y-9490244D01*
X14206545Y-9490244D01*
X14206314Y-9490097D01*
X14206056Y-9490006D01*
X14206056Y-9490006D01*
X14189653Y-9484165D01*
X14189395Y-9484073D01*
X14189123Y-9484041D01*
X14189123Y-9484041D01*
X14180033Y-9482957D01*
X14171562Y-9481947D01*
X14171290Y-9481975D01*
X14171290Y-9481975D01*
X14167347Y-9482390D01*
X14164228Y-9482718D01*
X14161134Y-9482009D01*
X14159574Y-9481042D01*
X14155262Y-9479789D01*
X14154826Y-9479640D01*
X14153684Y-9479188D01*
X14150962Y-9478110D01*
X14150962Y-9478110D01*
X14150652Y-9477987D01*
X14148591Y-9477771D01*
X14147737Y-9477603D01*
X14145748Y-9477025D01*
X14145491Y-9477006D01*
X14145491Y-9477006D01*
X14145082Y-9476976D01*
X14144728Y-9476950D01*
X14141041Y-9476950D01*
X14140529Y-9476923D01*
X14136665Y-9476517D01*
X14136333Y-9476482D01*
X14136003Y-9476538D01*
X14133972Y-9476881D01*
X14133155Y-9476950D01*
X13749999Y-9476950D01*
X13746534Y-9475515D01*
X13731318Y-9460299D01*
X13731176Y-9460151D01*
X13727063Y-9455678D01*
X13726779Y-9455502D01*
X13726778Y-9455501D01*
X13723247Y-9453312D01*
X13722867Y-9453051D01*
X13719557Y-9450538D01*
X13719557Y-9450538D01*
X13719291Y-9450336D01*
X13717364Y-9449573D01*
X13716586Y-9449182D01*
X13715110Y-9448267D01*
X13715110Y-9448267D01*
X13714826Y-9448091D01*
X13710514Y-9446838D01*
X13710078Y-9446689D01*
X13708937Y-9446237D01*
X13706215Y-9445159D01*
X13706214Y-9445159D01*
X13705904Y-9445036D01*
X13703844Y-9444820D01*
X13702989Y-9444652D01*
X13701000Y-9444074D01*
X13700744Y-9444055D01*
X13700743Y-9444055D01*
X13700335Y-9444025D01*
X13699980Y-9443999D01*
X13696294Y-9443999D01*
X13695782Y-9443972D01*
X13691917Y-9443566D01*
X13691585Y-9443531D01*
X13691256Y-9443587D01*
X13689224Y-9443930D01*
X13688407Y-9443999D01*
X13530145Y-9443999D01*
X13526681Y-9442564D01*
X13368262Y-9284145D01*
X13366827Y-9280680D01*
X13366874Y-9279998D01*
X13367645Y-9274515D01*
X13368525Y-9268253D01*
X13368556Y-9266004D01*
X13366796Y-9250312D01*
X13366585Y-9248429D01*
X13366585Y-9248429D01*
X13366555Y-9248157D01*
X13363124Y-9238307D01*
X13360739Y-9231456D01*
X13360738Y-9231455D01*
X13360648Y-9231197D01*
X13355740Y-9223342D01*
X13351277Y-9216199D01*
X13351277Y-9216199D01*
X13351132Y-9215967D01*
X13349213Y-9214035D01*
X13338670Y-9203418D01*
X13338477Y-9203223D01*
X13323314Y-9193600D01*
X13323056Y-9193509D01*
X13323056Y-9193508D01*
X13306653Y-9187668D01*
X13306395Y-9187576D01*
X13306123Y-9187544D01*
X13306123Y-9187543D01*
X13297479Y-9186513D01*
X13288562Y-9185450D01*
X13288290Y-9185478D01*
X13288290Y-9185478D01*
X13277783Y-9186583D01*
X13270702Y-9187327D01*
X13270442Y-9187415D01*
X13270442Y-9187415D01*
X13268696Y-9188010D01*
X13264953Y-9187767D01*
X13263652Y-9186836D01*
X13044264Y-8967448D01*
X13042829Y-8963983D01*
X13042877Y-8963301D01*
X13043003Y-8962403D01*
X13043024Y-8962249D01*
X13043029Y-8961904D01*
X13043054Y-8960155D01*
X13043056Y-8960000D01*
X13041429Y-8945496D01*
X13042469Y-8941893D01*
X13045752Y-8940080D01*
X13046298Y-8940050D01*
X13078503Y-8940050D01*
X13081968Y-8941485D01*
X13217126Y-9076643D01*
X13218561Y-9080108D01*
X13218523Y-9080722D01*
X13218285Y-9082603D01*
X13218285Y-9082603D01*
X13218251Y-9082875D01*
X13218277Y-9083147D01*
X13218277Y-9083147D01*
X13218959Y-9090101D01*
X13220003Y-9100748D01*
X13225672Y-9117789D01*
X13234975Y-9133151D01*
X13235165Y-9133347D01*
X13235165Y-9133348D01*
X13240547Y-9138920D01*
X13247451Y-9146069D01*
X13262478Y-9155903D01*
X13279311Y-9162163D01*
X13279582Y-9162199D01*
X13279582Y-9162199D01*
X13286539Y-9163127D01*
X13297112Y-9164538D01*
X13297385Y-9164513D01*
X13297385Y-9164513D01*
X13314724Y-9162935D01*
X13314724Y-9162935D01*
X13314997Y-9162911D01*
X13332077Y-9157361D01*
X13332313Y-9157221D01*
X13332313Y-9157220D01*
X13347268Y-9148306D01*
X13347268Y-9148305D01*
X13347504Y-9148165D01*
X13360509Y-9135780D01*
X13360661Y-9135552D01*
X13360661Y-9135552D01*
X13370296Y-9121050D01*
X13370296Y-9121050D01*
X13370448Y-9120822D01*
X13373856Y-9111848D01*
X13376728Y-9104289D01*
X13376728Y-9104289D01*
X13376825Y-9104033D01*
X13379324Y-9086249D01*
X13379356Y-9083999D01*
X13378004Y-9071946D01*
X13377384Y-9066424D01*
X13377384Y-9066424D01*
X13377354Y-9066152D01*
X13373707Y-9055680D01*
X13371538Y-9049451D01*
X13371538Y-9049451D01*
X13371448Y-9049192D01*
X13369135Y-9045491D01*
X13362076Y-9034194D01*
X13362076Y-9034194D01*
X13361931Y-9033962D01*
X13360497Y-9032518D01*
X13352288Y-9024251D01*
X13349276Y-9021219D01*
X13343517Y-9017564D01*
X13334344Y-9011742D01*
X13334344Y-9011742D01*
X13334113Y-9011596D01*
X13333855Y-9011504D01*
X13333855Y-9011504D01*
X13317452Y-9005663D01*
X13317194Y-9005571D01*
X13316922Y-9005539D01*
X13316922Y-9005539D01*
X13308278Y-9004508D01*
X13299362Y-9003445D01*
X13299090Y-9003473D01*
X13299089Y-9003473D01*
X13295533Y-9003847D01*
X13291937Y-9002782D01*
X13291556Y-9002439D01*
X13252965Y-8963848D01*
X14768750Y-8963848D01*
X14768750Y-9070152D01*
X14770235Y-9079530D01*
X14775995Y-9090834D01*
X14784966Y-9099805D01*
X14785309Y-9099980D01*
X14785309Y-9099980D01*
X14785348Y-9100000D01*
X14796270Y-9105565D01*
X14796650Y-9105625D01*
X14796650Y-9105625D01*
X14799568Y-9106087D01*
X14805648Y-9107050D01*
X14934300Y-9107050D01*
X15062952Y-9107050D01*
X15067670Y-9106303D01*
X15071950Y-9105625D01*
X15071950Y-9105625D01*
X15072330Y-9105565D01*
X15083251Y-9100000D01*
X15083291Y-9099980D01*
X15083291Y-9099980D01*
X15083634Y-9099805D01*
X15092605Y-9090834D01*
X15098365Y-9079530D01*
X15099850Y-9070152D01*
X15099850Y-8963848D01*
X15098515Y-8955417D01*
X15098425Y-8954850D01*
X15098425Y-8954850D01*
X15098365Y-8954470D01*
X15094061Y-8946024D01*
X15092780Y-8943509D01*
X15092780Y-8943509D01*
X15092605Y-8943166D01*
X15083634Y-8934195D01*
X15083291Y-8934020D01*
X15083291Y-8934020D01*
X15073002Y-8928777D01*
X15072330Y-8928435D01*
X15071950Y-8928375D01*
X15071950Y-8928375D01*
X15069032Y-8927913D01*
X15062952Y-8926950D01*
X14973675Y-8926950D01*
X14970664Y-8925758D01*
X14970611Y-8925833D01*
X14968659Y-8924446D01*
X14968033Y-8923916D01*
X14951565Y-8907448D01*
X14950130Y-8903983D01*
X14950177Y-8903301D01*
X14950303Y-8902403D01*
X14950325Y-8902249D01*
X14950356Y-8900000D01*
X14948355Y-8882153D01*
X14945104Y-8872819D01*
X14942539Y-8865452D01*
X14942538Y-8865451D01*
X14942448Y-8865193D01*
X14941977Y-8864439D01*
X14933077Y-8850195D01*
X14933077Y-8850195D01*
X14932932Y-8849963D01*
X14931886Y-8848909D01*
X14923399Y-8840363D01*
X14920277Y-8837219D01*
X14905114Y-8827596D01*
X14904856Y-8827505D01*
X14904856Y-8827504D01*
X14888453Y-8821664D01*
X14888195Y-8821572D01*
X14887923Y-8821540D01*
X14887923Y-8821539D01*
X14879279Y-8820509D01*
X14870362Y-8819446D01*
X14870090Y-8819474D01*
X14870090Y-8819474D01*
X14859583Y-8820579D01*
X14852502Y-8821323D01*
X14835501Y-8827110D01*
X14835267Y-8827254D01*
X14835267Y-8827254D01*
X14820438Y-8836377D01*
X14820437Y-8836377D01*
X14820204Y-8836521D01*
X14820009Y-8836712D01*
X14820009Y-8836712D01*
X14807569Y-8848894D01*
X14807569Y-8848894D01*
X14807373Y-8849086D01*
X14807225Y-8849316D01*
X14807225Y-8849316D01*
X14804796Y-8853085D01*
X14797645Y-8864182D01*
X14794193Y-8873664D01*
X14792159Y-8879254D01*
X14791502Y-8881058D01*
X14789251Y-8898875D01*
X14789278Y-8899148D01*
X14789278Y-8899148D01*
X14789491Y-8901316D01*
X14791004Y-8916749D01*
X14791941Y-8919566D01*
X14793761Y-8925037D01*
X14793493Y-8928777D01*
X14791336Y-8930949D01*
X14790384Y-8931434D01*
X14785309Y-8934020D01*
X14785309Y-8934020D01*
X14784966Y-8934195D01*
X14775995Y-8943166D01*
X14775820Y-8943509D01*
X14775820Y-8943509D01*
X14774539Y-8946024D01*
X14770235Y-8954470D01*
X14770175Y-8954850D01*
X14770175Y-8954850D01*
X14769802Y-8957203D01*
X14768750Y-8963848D01*
X13252965Y-8963848D01*
X13140367Y-8851250D01*
X13140225Y-8851102D01*
X13140111Y-8850979D01*
X13136111Y-8846629D01*
X13135828Y-8846453D01*
X13135827Y-8846452D01*
X13132296Y-8844263D01*
X13131916Y-8844001D01*
X13128606Y-8841489D01*
X13128605Y-8841489D01*
X13128339Y-8841287D01*
X13126413Y-8840524D01*
X13125635Y-8840133D01*
X13124159Y-8839218D01*
X13124159Y-8839218D01*
X13123875Y-8839042D01*
X13119563Y-8837789D01*
X13119127Y-8837640D01*
X13117694Y-8837072D01*
X13115263Y-8836110D01*
X13115263Y-8836110D01*
X13114953Y-8835987D01*
X13112892Y-8835770D01*
X13112038Y-8835603D01*
X13110049Y-8835025D01*
X13109792Y-8835006D01*
X13109792Y-8835006D01*
X13109383Y-8834976D01*
X13109029Y-8834950D01*
X13105342Y-8834950D01*
X13104830Y-8834923D01*
X13100966Y-8834517D01*
X13100634Y-8834482D01*
X13100304Y-8834538D01*
X13098273Y-8834881D01*
X13097456Y-8834950D01*
X12907207Y-8834950D01*
X12907002Y-8834946D01*
X12900932Y-8834691D01*
X12900607Y-8834767D01*
X12900607Y-8834767D01*
X12899509Y-8835025D01*
X12896560Y-8835716D01*
X12896108Y-8835800D01*
X12895000Y-8835952D01*
X12891990Y-8836364D01*
X12891990Y-8836364D01*
X12891659Y-8836410D01*
X12891352Y-8836542D01*
X12891352Y-8836542D01*
X12889758Y-8837232D01*
X12888931Y-8837506D01*
X12887240Y-8837902D01*
X12887239Y-8837903D01*
X12886914Y-8837979D01*
X12886621Y-8838140D01*
X12886621Y-8838140D01*
X12882980Y-8840142D01*
X12882565Y-8840345D01*
X12878752Y-8841995D01*
X12878751Y-8841995D01*
X12878445Y-8842128D01*
X12876835Y-8843432D01*
X12876113Y-8843917D01*
X12874297Y-8844915D01*
X12873523Y-8845583D01*
X12870917Y-8848190D01*
X12870535Y-8848533D01*
X12867256Y-8851189D01*
X12865955Y-8853020D01*
X12865869Y-8853140D01*
X12865340Y-8853767D01*
X12864441Y-8854666D01*
X12860976Y-8856101D01*
X12860396Y-8856066D01*
X12857688Y-8855744D01*
X12857416Y-8855772D01*
X12857415Y-8855772D01*
X12846908Y-8856877D01*
X12839827Y-8857621D01*
X12822826Y-8863408D01*
X12822593Y-8863552D01*
X12822593Y-8863552D01*
X12807763Y-8872675D01*
X12807763Y-8872675D01*
X12807530Y-8872819D01*
X12797635Y-8882509D01*
X12794155Y-8883907D01*
X12791581Y-8883145D01*
X12782823Y-8877587D01*
X12771548Y-8873572D01*
X12766163Y-8871654D01*
X12765905Y-8871562D01*
X12765633Y-8871530D01*
X12765632Y-8871530D01*
X12756988Y-8870499D01*
X12748072Y-8869436D01*
X12747800Y-8869465D01*
X12747800Y-8869465D01*
X12740445Y-8870238D01*
X12730211Y-8871313D01*
X12729952Y-8871401D01*
X12729952Y-8871401D01*
X12729727Y-8871478D01*
X12713210Y-8877101D01*
X12709710Y-8879254D01*
X12698147Y-8886368D01*
X12698147Y-8886368D01*
X12697914Y-8886511D01*
X12697718Y-8886703D01*
X12697718Y-8886703D01*
X12685279Y-8898885D01*
X12685278Y-8898885D01*
X12685083Y-8899076D01*
X12675354Y-8914172D01*
X12673466Y-8919359D01*
X12669944Y-8929036D01*
X12669212Y-8931048D01*
X12666961Y-8948866D01*
X12667158Y-8950875D01*
X12667392Y-8953260D01*
X12666302Y-8956848D01*
X12665980Y-8957203D01*
X12598932Y-9024251D01*
X12598784Y-9024393D01*
X12594311Y-9028506D01*
X12594135Y-9028790D01*
X12594134Y-9028791D01*
X12591945Y-9032322D01*
X12591684Y-9032702D01*
X12589171Y-9036012D01*
X12589171Y-9036013D01*
X12588969Y-9036278D01*
X12588207Y-9038205D01*
X12587815Y-9038983D01*
X12586900Y-9040459D01*
X12586900Y-9040459D01*
X12586724Y-9040743D01*
X12586630Y-9041064D01*
X12586630Y-9041064D01*
X12585471Y-9045055D01*
X12585322Y-9045491D01*
X12583948Y-9048960D01*
X12583669Y-9049665D01*
X12583594Y-9050383D01*
X12583453Y-9051725D01*
X12583285Y-9052580D01*
X12582707Y-9054569D01*
X12582688Y-9054825D01*
X12582688Y-9054826D01*
X12582659Y-9055221D01*
X12582632Y-9055589D01*
X12582632Y-9059275D01*
X12582605Y-9059788D01*
X12582164Y-9063984D01*
X11993550Y-9063984D01*
X11993550Y-9014604D01*
X11995071Y-9011055D01*
X12002710Y-9003781D01*
X12002861Y-9003553D01*
X12002862Y-9003552D01*
X12012496Y-8989051D01*
X12012497Y-8989051D01*
X12012648Y-8988822D01*
X12012943Y-8988047D01*
X12018928Y-8972290D01*
X12018928Y-8972290D01*
X12019026Y-8972034D01*
X12021525Y-8954249D01*
X12021528Y-8954025D01*
X12021554Y-8952155D01*
X12021556Y-8952000D01*
X12019555Y-8934153D01*
X12016091Y-8924207D01*
X12013739Y-8917452D01*
X12013738Y-8917451D01*
X12013648Y-8917193D01*
X12013310Y-8916650D01*
X12004277Y-8902195D01*
X12004277Y-8902195D01*
X12004132Y-8901963D01*
X12003071Y-8900894D01*
X11996250Y-8894025D01*
X11991477Y-8889219D01*
X11980342Y-8882153D01*
X11976545Y-8879743D01*
X11976545Y-8879743D01*
X11976314Y-8879596D01*
X11976056Y-8879505D01*
X11976056Y-8879504D01*
X11959653Y-8873664D01*
X11959395Y-8873572D01*
X11959123Y-8873540D01*
X11959123Y-8873539D01*
X11950479Y-8872509D01*
X11941562Y-8871446D01*
X11941290Y-8871474D01*
X11941290Y-8871474D01*
X11930783Y-8872579D01*
X11923702Y-8873323D01*
X11906701Y-8879110D01*
X11903535Y-8881058D01*
X11891638Y-8888377D01*
X11891637Y-8888377D01*
X11891404Y-8888521D01*
X11891209Y-8888712D01*
X11891209Y-8888712D01*
X11878769Y-8900894D01*
X11878769Y-8900894D01*
X11878573Y-8901086D01*
X11868845Y-8916182D01*
X11866035Y-8923901D01*
X11863128Y-8931887D01*
X11862702Y-8933058D01*
X11860451Y-8950875D01*
X11778384Y-8950875D01*
X11780257Y-8943292D01*
X11780331Y-8943025D01*
X11800291Y-8878210D01*
X11800380Y-8877948D01*
X11813386Y-8842893D01*
X11823969Y-8814366D01*
X11824072Y-8814110D01*
X11824667Y-8812750D01*
X11851218Y-8751961D01*
X11851336Y-8751711D01*
X11855570Y-8743341D01*
X11870524Y-8713781D01*
X11872513Y-8709848D01*
X15099750Y-8709848D01*
X15099750Y-8816152D01*
X15101235Y-8825530D01*
X15103789Y-8830542D01*
X15106756Y-8836364D01*
X15106995Y-8836834D01*
X15115966Y-8845805D01*
X15116462Y-8846058D01*
X15116536Y-8846145D01*
X15116621Y-8846207D01*
X15116606Y-8846227D01*
X15118897Y-8848909D01*
X15118603Y-8852648D01*
X15118356Y-8853078D01*
X15117912Y-8853767D01*
X15117645Y-8854182D01*
X15114467Y-8862913D01*
X15111801Y-8870238D01*
X15111502Y-8871058D01*
X15109251Y-8888875D01*
X15111004Y-8906749D01*
X15116673Y-8923790D01*
X15116814Y-8924024D01*
X15116815Y-8924024D01*
X15124052Y-8935975D01*
X15125976Y-8939151D01*
X15126166Y-8939348D01*
X15126166Y-8939348D01*
X15130184Y-8943509D01*
X15138451Y-8952070D01*
X15153479Y-8961904D01*
X15170312Y-8968164D01*
X15170582Y-8968200D01*
X15170583Y-8968200D01*
X15176642Y-8969008D01*
X15188113Y-8970539D01*
X15188386Y-8970514D01*
X15188386Y-8970514D01*
X15205725Y-8968936D01*
X15205725Y-8968936D01*
X15205998Y-8968911D01*
X15223078Y-8963362D01*
X15223313Y-8963221D01*
X15223314Y-8963221D01*
X15238269Y-8954306D01*
X15238269Y-8954306D01*
X15238504Y-8954166D01*
X15242245Y-8950604D01*
X15247392Y-8945702D01*
X15251510Y-8941781D01*
X15251661Y-8941553D01*
X15251662Y-8941552D01*
X15261296Y-8927051D01*
X15261297Y-8927051D01*
X15261448Y-8926822D01*
X15261853Y-8925758D01*
X15267728Y-8910290D01*
X15267728Y-8910290D01*
X15267826Y-8910034D01*
X15270325Y-8892249D01*
X15270356Y-8890000D01*
X15270252Y-8889072D01*
X15269990Y-8886733D01*
X15271030Y-8883130D01*
X15271395Y-8882722D01*
X15299632Y-8854485D01*
X15303012Y-8853085D01*
X15668743Y-8853085D01*
X15668823Y-8853549D01*
X15668983Y-8854092D01*
X15675644Y-8869746D01*
X15675924Y-8870238D01*
X15686008Y-8883939D01*
X15686393Y-8884353D01*
X15699359Y-8895368D01*
X15699829Y-8895682D01*
X15714981Y-8903419D01*
X15715511Y-8903616D01*
X15732101Y-8907675D01*
X15732531Y-8907741D01*
X15733348Y-8907791D01*
X15733496Y-8907796D01*
X15775721Y-8907796D01*
X15776410Y-8907511D01*
X15776696Y-8906821D01*
X15776696Y-8853371D01*
X15776410Y-8852682D01*
X15775721Y-8852396D01*
X15669600Y-8852396D01*
X15668910Y-8852682D01*
X15668743Y-8853085D01*
X15303012Y-8853085D01*
X15303097Y-8853050D01*
X15393952Y-8853050D01*
X15398670Y-8852303D01*
X15402950Y-8851625D01*
X15402950Y-8851625D01*
X15403330Y-8851565D01*
X15413018Y-8846629D01*
X15414291Y-8845980D01*
X15414291Y-8845980D01*
X15414634Y-8845805D01*
X15423605Y-8836834D01*
X15423844Y-8836364D01*
X15426811Y-8830542D01*
X15429365Y-8825530D01*
X15429798Y-8822794D01*
X15430176Y-8820405D01*
X15430850Y-8816152D01*
X15430850Y-8811463D01*
X15669251Y-8811463D01*
X15669324Y-8812206D01*
X15669557Y-8812396D01*
X15775721Y-8812396D01*
X15776410Y-8812111D01*
X15776696Y-8811421D01*
X15816696Y-8811421D01*
X15816981Y-8812111D01*
X15817671Y-8812396D01*
X15923792Y-8812396D01*
X15924481Y-8812111D01*
X15924649Y-8811707D01*
X15924607Y-8811463D01*
X16112251Y-8811463D01*
X16112324Y-8812206D01*
X16112557Y-8812396D01*
X16193721Y-8812396D01*
X16194410Y-8812111D01*
X16194696Y-8811421D01*
X16234696Y-8811421D01*
X16234981Y-8812111D01*
X16235671Y-8812396D01*
X16316792Y-8812396D01*
X16317481Y-8812111D01*
X16317649Y-8811707D01*
X16317569Y-8811244D01*
X16317409Y-8810700D01*
X16310748Y-8795046D01*
X16310468Y-8794555D01*
X16300384Y-8780853D01*
X16299998Y-8780439D01*
X16287033Y-8769424D01*
X16286563Y-8769110D01*
X16271411Y-8761373D01*
X16270881Y-8761176D01*
X16254291Y-8757117D01*
X16253861Y-8757051D01*
X16253044Y-8757001D01*
X16252896Y-8756996D01*
X16235671Y-8756996D01*
X16234981Y-8757282D01*
X16234696Y-8757971D01*
X16234696Y-8811421D01*
X16194696Y-8811421D01*
X16194696Y-8757971D01*
X16194410Y-8757282D01*
X16193721Y-8756996D01*
X16180435Y-8756996D01*
X16180152Y-8757013D01*
X16167515Y-8758486D01*
X16166964Y-8758616D01*
X16150972Y-8764421D01*
X16150467Y-8764674D01*
X16136240Y-8774002D01*
X16135806Y-8774365D01*
X16124106Y-8786715D01*
X16123767Y-8787168D01*
X16115222Y-8801879D01*
X16114996Y-8802399D01*
X16112251Y-8811463D01*
X15924607Y-8811463D01*
X15924569Y-8811244D01*
X15924409Y-8810700D01*
X15917748Y-8795046D01*
X15917468Y-8794555D01*
X15907384Y-8780853D01*
X15906998Y-8780439D01*
X15894033Y-8769424D01*
X15893563Y-8769110D01*
X15878411Y-8761373D01*
X15877881Y-8761176D01*
X15861291Y-8757117D01*
X15860861Y-8757051D01*
X15860044Y-8757001D01*
X15859896Y-8756996D01*
X15817671Y-8756996D01*
X15816981Y-8757282D01*
X15816696Y-8757971D01*
X15816696Y-8811421D01*
X15776696Y-8811421D01*
X15776696Y-8757971D01*
X15776410Y-8757282D01*
X15775721Y-8756996D01*
X15737435Y-8756996D01*
X15737152Y-8757013D01*
X15724515Y-8758486D01*
X15723964Y-8758616D01*
X15707972Y-8764421D01*
X15707467Y-8764674D01*
X15693240Y-8774002D01*
X15692806Y-8774365D01*
X15681106Y-8786715D01*
X15680767Y-8787168D01*
X15672222Y-8801879D01*
X15671996Y-8802399D01*
X15669251Y-8811463D01*
X15430850Y-8811463D01*
X15430850Y-8709848D01*
X15429365Y-8700470D01*
X15426485Y-8694818D01*
X15423780Y-8689509D01*
X15423780Y-8689509D01*
X15423605Y-8689166D01*
X15414634Y-8680195D01*
X15414291Y-8680020D01*
X15414291Y-8680020D01*
X15408982Y-8677315D01*
X15403330Y-8674435D01*
X15402950Y-8674375D01*
X15402950Y-8674375D01*
X15400032Y-8673913D01*
X15393952Y-8672950D01*
X15393759Y-8672950D01*
X15265300Y-8672950D01*
X15136648Y-8672950D01*
X15131930Y-8673697D01*
X15127650Y-8674375D01*
X15127650Y-8674375D01*
X15127270Y-8674435D01*
X15121618Y-8677315D01*
X15116309Y-8680020D01*
X15116309Y-8680020D01*
X15115966Y-8680195D01*
X15106995Y-8689166D01*
X15106820Y-8689509D01*
X15106820Y-8689509D01*
X15104115Y-8694818D01*
X15101235Y-8700470D01*
X15099750Y-8709848D01*
X11872513Y-8709848D01*
X11881949Y-8691196D01*
X11882081Y-8690952D01*
X11902276Y-8656077D01*
X11916065Y-8632264D01*
X11916210Y-8632029D01*
X11918592Y-8628405D01*
X11932948Y-8606560D01*
X11936050Y-8604453D01*
X11937038Y-8604351D01*
X13099407Y-8603307D01*
X13102873Y-8604739D01*
X13104251Y-8607441D01*
X13104300Y-8607748D01*
X13105783Y-8617115D01*
X13111536Y-8628405D01*
X13120495Y-8637364D01*
X13120839Y-8637539D01*
X13120839Y-8637539D01*
X13126140Y-8640240D01*
X13131785Y-8643117D01*
X13132166Y-8643177D01*
X13132166Y-8643177D01*
X13143919Y-8645038D01*
X13144300Y-8645099D01*
X13144681Y-8645038D01*
X13147067Y-8644660D01*
X13147834Y-8644600D01*
X14918766Y-8644600D01*
X14919533Y-8644660D01*
X14922300Y-8645099D01*
X14922681Y-8645038D01*
X14925448Y-8644600D01*
X14934434Y-8643177D01*
X14934434Y-8643177D01*
X14934815Y-8643117D01*
X14940460Y-8640240D01*
X14945761Y-8637539D01*
X14945761Y-8637539D01*
X14946104Y-8637364D01*
X14955064Y-8628405D01*
X14960816Y-8617115D01*
X14962300Y-8607748D01*
X14962615Y-8605762D01*
X14964574Y-8602564D01*
X14967450Y-8601629D01*
X14999658Y-8601600D01*
X16356025Y-8600381D01*
X16359491Y-8601813D01*
G37*
G04 #@! TD.AperFunction*
G04 #@! TA.AperFunction,Conductor*
G36*
X12977245Y-9049522D02*
G01*
X12978716Y-9050534D01*
X13207775Y-9279593D01*
X13209023Y-9282233D01*
X13209120Y-9282212D01*
X13209177Y-9282480D01*
X13209204Y-9282753D01*
X13214873Y-9299794D01*
X13224176Y-9315155D01*
X13236651Y-9328074D01*
X13251679Y-9337908D01*
X13268512Y-9344168D01*
X13268782Y-9344204D01*
X13268783Y-9344204D01*
X13279722Y-9345663D01*
X13282539Y-9347056D01*
X13336902Y-9401419D01*
X13338337Y-9404883D01*
X13336902Y-9408348D01*
X13333437Y-9409783D01*
X13332857Y-9409749D01*
X13330312Y-9409446D01*
X13330040Y-9409474D01*
X13330040Y-9409474D01*
X13319533Y-9410579D01*
X13312452Y-9411323D01*
X13312192Y-9411411D01*
X13312192Y-9411411D01*
X13309847Y-9412210D01*
X13295451Y-9417110D01*
X13295217Y-9417254D01*
X13295217Y-9417254D01*
X13286689Y-9422500D01*
X13282986Y-9423093D01*
X13280657Y-9421792D01*
X13219047Y-9360181D01*
X13218819Y-9359937D01*
X13215085Y-9355657D01*
X13214891Y-9355434D01*
X13209559Y-9351687D01*
X13209357Y-9351537D01*
X13208397Y-9350785D01*
X13204228Y-9347515D01*
X13202959Y-9346942D01*
X13202158Y-9346486D01*
X13201261Y-9345855D01*
X13201260Y-9345855D01*
X13201019Y-9345685D01*
X13197620Y-9344360D01*
X13194949Y-9343319D01*
X13194713Y-9343219D01*
X13189044Y-9340660D01*
X13189044Y-9340660D01*
X13188775Y-9340538D01*
X13187407Y-9340285D01*
X13186520Y-9340032D01*
X13185498Y-9339634D01*
X13185498Y-9339634D01*
X13185222Y-9339526D01*
X13184929Y-9339488D01*
X13178762Y-9338676D01*
X13178508Y-9338636D01*
X13176166Y-9338201D01*
X13172105Y-9337449D01*
X13166745Y-9337758D01*
X13165737Y-9337816D01*
X13165455Y-9337824D01*
X12813596Y-9337824D01*
X12810970Y-9337061D01*
X12808695Y-9335617D01*
X12808694Y-9335617D01*
X12808463Y-9335470D01*
X12808206Y-9335378D01*
X12808205Y-9335378D01*
X12791803Y-9329537D01*
X12791802Y-9329537D01*
X12791545Y-9329446D01*
X12791273Y-9329413D01*
X12791191Y-9329394D01*
X12788146Y-9327206D01*
X12787441Y-9325170D01*
X12786267Y-9314706D01*
X12786267Y-9314706D01*
X12786237Y-9314435D01*
X12783529Y-9306658D01*
X12780421Y-9297733D01*
X12780421Y-9297733D01*
X12780331Y-9297474D01*
X12779868Y-9296734D01*
X12770959Y-9282477D01*
X12770959Y-9282477D01*
X12770814Y-9282244D01*
X12769280Y-9280700D01*
X12763771Y-9275153D01*
X12761655Y-9273022D01*
X12760232Y-9269569D01*
X12760232Y-9238614D01*
X12761667Y-9235149D01*
X12942715Y-9054101D01*
X12946180Y-9052666D01*
X12952775Y-9052666D01*
X12952980Y-9052670D01*
X12959050Y-9052924D01*
X12959375Y-9052848D01*
X12959375Y-9052848D01*
X12960643Y-9052551D01*
X12963422Y-9051899D01*
X12963874Y-9051815D01*
X12965416Y-9051604D01*
X12967992Y-9051251D01*
X12967992Y-9051251D01*
X12968323Y-9051206D01*
X12970224Y-9050383D01*
X12971051Y-9050110D01*
X12972742Y-9049713D01*
X12972742Y-9049713D01*
X12973068Y-9049637D01*
X12973360Y-9049476D01*
X12973496Y-9049424D01*
X12977245Y-9049522D01*
G37*
G04 #@! TD.AperFunction*
G04 #@! TA.AperFunction,Conductor*
G36*
X15599428Y-9580346D02*
G01*
X15598571Y-9581501D01*
X15468559Y-9711513D01*
X15465095Y-9712948D01*
X15281906Y-9712948D01*
X15278429Y-9711501D01*
X15272439Y-9705469D01*
X15271241Y-9704263D01*
X15262334Y-9698610D01*
X15256309Y-9694787D01*
X15256309Y-9694787D01*
X15256078Y-9694640D01*
X15255820Y-9694548D01*
X15255820Y-9694548D01*
X15248805Y-9692050D01*
X15241611Y-9689489D01*
X15240000Y-9688033D01*
X15240000Y-9660275D01*
X15240031Y-9659727D01*
X15241944Y-9642747D01*
X15242188Y-9641677D01*
X15247740Y-9625810D01*
X15248216Y-9624822D01*
X15251561Y-9619499D01*
X15257160Y-9610588D01*
X15257844Y-9609730D01*
X15269730Y-9597844D01*
X15270588Y-9597160D01*
X15284822Y-9588216D01*
X15285810Y-9587740D01*
X15301677Y-9582188D01*
X15302747Y-9581944D01*
X15314925Y-9580572D01*
X15319727Y-9580031D01*
X15320275Y-9580000D01*
X15599462Y-9580000D01*
X15599428Y-9580346D01*
G37*
G04 #@! TD.AperFunction*
G04 #@! TD*
M02*
