M48
; DRILL file {KiCad (6.0.0)} date Wed Mar 23 01:09:18 2022
; FORMAT={-:-/ absolute / inch / decimal}
; #@! TF.CreationDate,2022-03-23T01:09:18-05:00
; #@! TF.GenerationSoftware,Kicad,Pcbnew,(6.0.0)
; #@! TF.FileFunction,Plated,1,2,PTH
FMAT,2
INCH
; #@! TA.AperFunction,Plated,PTH,ViaDrill
T1C0.0157
; #@! TA.AperFunction,Plated,PTH,ComponentDrill
T2C0.0236
; #@! TA.AperFunction,Plated,PTH,ComponentDrill
T3C0.0335
%
G90
G05
T1
X4.6637Y-3.7953
X4.6751Y-3.4437
X4.6869Y-3.8413
X4.6964Y-3.4102
X4.7113Y-3.8774
X4.7209Y-3.5273
X4.7846Y-3.7642
X4.7972Y-3.6094
X4.7987Y-3.6705
X4.8015Y-3.4181
X4.8203Y-3.7806
X4.8905Y-3.5394
X4.9161Y-3.6697
X4.9172Y-4.0634
X4.9503Y-3.9991
X4.9711Y-3.7722
X4.9735Y-3.5055
X4.9948Y-3.6764
X4.996Y-3.9378
X5.0619Y-3.5182
X5.1023Y-3.8343
X5.1033Y-3.5276
X5.1054Y-3.6795
X5.1193Y-3.6026
X5.1452Y-3.4075
X5.1539Y-3.9657
X5.1759Y-4.0213
X5.1838Y-4.1
X5.1881Y-3.8327
X5.2315Y-3.648
X5.2326Y-4.0984
X5.2357Y-3.5764
X5.2393Y-3.7173
X5.244Y-3.4173
X5.2857Y-4.1016
X5.3019Y-3.9268
X5.3124Y-3.851
X5.3444Y-3.6457
X5.3456Y-3.5843
X5.3457Y-3.4693
X5.346Y-3.7012
X5.3472Y-3.5256
X5.359Y-3.8602
X5.3649Y-4.0969
X5.4071Y-3.4697
X5.4377Y-4.1004
X5.4464Y-3.6469
X5.4468Y-3.5689
X5.4494Y-3.9414
X5.4857Y-3.5309
X5.4857Y-3.6079
X5.4857Y-3.6858
X5.5111Y-4.1004
X5.5243Y-3.7803
X5.5244Y-3.4673
X5.5251Y-3.5689
X5.5259Y-3.6469
X5.5395Y-3.8571
X5.5637Y-3.5309
X5.5637Y-3.6079
X5.5637Y-3.6858
X5.5791Y-3.7648
X5.5897Y-3.9327
X5.6002Y-3.5689
X5.6023Y-3.6469
X5.6217Y-3.4689
X5.622Y-3.8571
X5.636Y-4.0981
X5.6657Y-3.9799
X5.6869Y-3.6496
X5.687Y-3.6102
X5.6881Y-3.6933
X5.6882Y-3.7331
X5.6889Y-3.5614
X5.6944Y-4.101
X5.6965Y-3.4724
X5.6987Y-3.8571
X5.7644Y-4.1118
X5.7771Y-3.8937
X5.8098Y-3.5114
X5.8109Y-4.1079
X5.8114Y-3.6504
X5.8239Y-3.827
X5.827Y-3.4278
X5.8758Y-4.0147
X5.8802Y-3.4264
X5.898Y-3.8248
X5.9098Y-3.628
X5.9105Y-4.0159
X5.9326Y-3.4051
X5.9422Y-3.5817
X5.9802Y-3.5
X5.9924Y-3.8453
X6.0066Y-3.4024
X6.0168Y-3.7063
X6.0249Y-4.0756
X6.0249Y-4.0126
X6.0263Y-3.9126
X6.0767Y-3.4024
X6.0809Y-3.7977
X6.1087Y-3.6977
X6.1172Y-3.4173
X6.1388Y-3.6568
X6.1692Y-3.8843
X6.17Y-3.415
X6.1905Y-4.0012
X6.2332Y-4.0022
X6.2419Y-3.6993
X6.2449Y-3.6283
X6.2625Y-3.5717
X6.3228Y-4.0122
X6.3548Y-3.97
X6.4156Y-3.9004
X6.4302Y-3.4083
X6.4522Y-3.8453
T2
X4.7573Y-3.9254
X4.8657Y-4.0197
X4.9889Y-4.0692
X5.1318Y-4.0842
T3
X6.3214Y-3.5492
X6.3214Y-3.7461
T2
G00X6.1975Y-3.4773
M15
G01X6.2408Y-3.4773
M16
G05
G00X6.1975Y-3.8175
M15
G01X6.2408Y-3.8175
M16
G05
G00X6.3719Y-3.4773
M15
G01X6.3955Y-3.4773
M16
G05
G00X6.3719Y-3.8175
M15
G01X6.3955Y-3.8175
M16
G05
G00X6.4139Y-3.5098
M15
G01X6.4414Y-3.5098
M16
G05
G00X6.4414Y-3.7854
M15
G01X6.4139Y-3.7854
M16
G05
T0
M30
